<?xml version="1.0" encoding="UTF-8" standalone="no"?>
<!DOCTYPE svg PUBLIC "-//W3C//DTD SVG 1.1//EN"
 "http://www.w3.org/Graphics/SVG/1.1/DTD/svg11.dtd">
<!-- Generated by graphviz version 9.0.0 (20230911.1827)
 -->
<!-- Title: ogxx::Index_set_sortedvector Pages: 1 -->
<svg width="198pt" height="220pt"
 viewBox="0.00 0.00 197.75 220.00" xmlns="http://www.w3.org/2000/svg" xmlns:xlink="http://www.w3.org/1999/xlink">
<g id="graph0" class="graph" transform="scale(1 1) rotate(0) translate(4 216)">
<title>ogxx::Index_set_sortedvector</title>
<!-- Node1 -->
<g id="Node000001" class="node">
<title>Node1</title>
<g id="a_Node000001"><a xlink:title=" ">
<polygon fill="#999999" stroke="#666666" points="152.38,-20 9.62,-20 9.62,0 152.38,0 152.38,-20"/>
<text text-anchor="middle" x="81" y="-6.5" font-family="Helvetica,sans-Serif" font-size="10.00">ogxx::Index_set_sortedvector</text>
</a>
</g>
</g>
<!-- Node2 -->
<g id="Node000002" class="node">
<title>Node2</title>
<g id="a_Node000002"><a xlink:href="../../d3/da1/classogxx_1_1_st__set.html" target="_top" xlink:title="Possibly non&#45;iterable set of simple type items.">
<polygon fill="white" stroke="#666666" points="58,-82 0,-82 0,-62 58,-62 58,-82"/>
<text text-anchor="middle" x="29" y="-68.5" font-family="Helvetica,sans-Serif" font-size="10.00">Index_set</text>
</a>
</g>
</g>
<!-- Node2&#45;&gt;Node1 -->
<g id="edge1_Node000001_Node000002" class="edge">
<title>Node2&#45;&gt;Node1</title>
<g id="a_edge1_Node000001_Node000002"><a xlink:title=" ">
<path fill="none" stroke="#63b8ff" d="M44.38,-53.25C53.82,-42.36 65.51,-28.88 73.1,-20.11"/>
<polygon fill="#63b8ff" stroke="#63b8ff" points="42.02,-50.63 38.12,-60.48 47.31,-55.22 42.02,-50.63"/>
</a>
</g>
</g>
<!-- Node3 -->
<g id="Node000003" class="node">
<title>Node3</title>
<g id="a_Node000003"><a xlink:href="../../d2/d20/classogxx_1_1_indexed__iterable.html" target="_top" xlink:title=" ">
<polygon fill="white" stroke="#666666" points="189.75,-88 76.25,-88 76.25,-56 189.75,-56 189.75,-88"/>
<text text-anchor="start" x="84.25" y="-74.5" font-family="Helvetica,sans-Serif" font-size="10.00">ogxx::Indexed_iterable</text>
<text text-anchor="middle" x="133" y="-62.5" font-family="Helvetica,sans-Serif" font-size="10.00">&lt; Scalar_index &gt;</text>
</a>
</g>
</g>
<!-- Node3&#45;&gt;Node1 -->
<g id="edge2_Node000001_Node000003" class="edge">
<title>Node3&#45;&gt;Node1</title>
<g id="a_edge2_Node000001_Node000003"><a xlink:title=" ">
<path fill="none" stroke="#63b8ff" d="M112.18,-46.98C104.11,-37.66 95.33,-27.54 89.15,-20.41"/>
<polygon fill="#63b8ff" stroke="#63b8ff" points="109.42,-49.14 118.62,-54.4 114.71,-44.56 109.42,-49.14"/>
</a>
</g>
</g>
<!-- Node4 -->
<g id="Node000004" class="node">
<title>Node4</title>
<g id="a_Node000004"><a xlink:href="../../d9/d72/classogxx_1_1_sized__iterable.html" target="_top" xlink:title="Not only iterable but we know in advance, how many items it contains.">
<polygon fill="white" stroke="#666666" points="185.25,-156 80.75,-156 80.75,-124 185.25,-124 185.25,-156"/>
<text text-anchor="start" x="88.75" y="-142.5" font-family="Helvetica,sans-Serif" font-size="10.00">ogxx::Sized_iterable</text>
<text text-anchor="middle" x="133" y="-130.5" font-family="Helvetica,sans-Serif" font-size="10.00">&lt; Item &gt;</text>
</a>
</g>
</g>
<!-- Node4&#45;&gt;Node3 -->
<g id="edge3_Node000003_Node000004" class="edge">
<title>Node4&#45;&gt;Node3</title>
<g id="a_edge3_Node000003_Node000004"><a xlink:title=" ">
<path fill="none" stroke="#63b8ff" d="M133,-112.31C133,-104.12 133,-95.38 133,-88.22"/>
<polygon fill="#63b8ff" stroke="#63b8ff" points="129.5,-112.18 133,-122.18 136.5,-112.18 129.5,-112.18"/>
</a>
</g>
</g>
<!-- Node5 -->
<g id="Node000005" class="node">
<title>Node5</title>
<g id="a_Node000005"><a xlink:href="../../d8/d9b/classogxx_1_1_iterable.html" target="_top" xlink:title="An interface for an object that can be iterated with an iterator.">
<polygon fill="white" stroke="#666666" points="188.62,-212 77.38,-212 77.38,-192 188.62,-192 188.62,-212"/>
<text text-anchor="middle" x="133" y="-198.5" font-family="Helvetica,sans-Serif" font-size="10.00">ogxx::Iterable&lt; Item &gt;</text>
</a>
</g>
</g>
<!-- Node5&#45;&gt;Node4 -->
<g id="edge4_Node000004_Node000005" class="edge">
<title>Node5&#45;&gt;Node4</title>
<g id="a_edge4_Node000004_Node000005"><a xlink:title=" ">
<path fill="none" stroke="#63b8ff" d="M133,-180.31C133,-172.37 133,-163.46 133,-156.14"/>
<polygon fill="#63b8ff" stroke="#63b8ff" points="129.5,-180.11 133,-190.11 136.5,-180.11 129.5,-180.11"/>
</a>
</g>
</g>
</g>
</svg>
