<?xml version="1.0" encoding="UTF-8" standalone="no"?>
<!DOCTYPE svg PUBLIC "-//W3C//DTD SVG 1.1//EN"
 "http://www.w3.org/Graphics/SVG/1.1/DTD/svg11.dtd">
<!-- Generated by graphviz version 9.0.0 (20230911.1827)
 -->
<!-- Title: ogxx::St_set&lt; Item &gt; Pages: 1 -->
<svg width="295pt" height="190pt"
 viewBox="0.00 0.00 295.00 190.00" xmlns="http://www.w3.org/2000/svg" xmlns:xlink="http://www.w3.org/1999/xlink">
<g id="graph0" class="graph" transform="scale(1 1) rotate(0) translate(4 186)">
<title>ogxx::St_set&lt; Item &gt;</title>
<!-- Node1 -->
<g id="Node000001" class="node">
<title>Node1</title>
<g id="a_Node000001"><a xlink:title="Possibly non&#45;iterable set of simple type items.">
<polygon fill="#999999" stroke="#666666" points="108.25,-101 0,-101 0,-81 108.25,-81 108.25,-101"/>
<text text-anchor="middle" x="54.12" y="-87.5" font-family="Helvetica,sans-Serif" font-size="10.00">ogxx::St_set&lt; Item &gt;</text>
</a>
</g>
</g>
<!-- Node2 -->
<g id="Node000002" class="node">
<title>Node2</title>
<g id="a_Node000002"><a xlink:href="../../d4/de1/classogxx_1_1_adjacency.html" target="_top" xlink:title="Representation of adjacent vertices of a vertex of a graph. Vertex degree is the size of the adjacenc...">
<polygon fill="white" stroke="#666666" points="278.38,-182 152.88,-182 152.88,-150 278.38,-150 278.38,-182"/>
<text text-anchor="start" x="160.88" y="-168.5" font-family="Helvetica,sans-Serif" font-size="10.00">ogxx::Adjacency&lt; Scalar</text>
<text text-anchor="middle" x="215.62" y="-156.5" font-family="Helvetica,sans-Serif" font-size="10.00">_index &gt;</text>
</a>
</g>
</g>
<!-- Node1&#45;&gt;Node2 -->
<g id="edge1_Node000001_Node000002" class="edge">
<title>Node1&#45;&gt;Node2</title>
<g id="a_edge1_Node000001_Node000002"><a xlink:title=" ">
<path fill="none" stroke="#63b8ff" d="M81.26,-107.22C98.7,-117.65 122.37,-131.07 144.25,-141 150.86,-144 157.95,-146.89 164.98,-149.56"/>
<polygon fill="#63b8ff" stroke="#63b8ff" points="83.43,-104.44 73.06,-102.25 79.8,-110.43 83.43,-104.44"/>
</a>
</g>
</g>
<!-- Node3 -->
<g id="Node000003" class="node">
<title>Node3</title>
<g id="a_Node000003"><a xlink:href="../../dc/d31/classogxx_1_1_index__set__bitvector.html" target="_top" xlink:title=" ">
<polygon fill="white" stroke="#666666" points="278.75,-132 152.5,-132 152.5,-100 278.75,-100 278.75,-132"/>
<text text-anchor="start" x="160.5" y="-118.5" font-family="Helvetica,sans-Serif" font-size="10.00">ogxx::Index_set_bitvector</text>
<text text-anchor="middle" x="215.62" y="-106.5" font-family="Helvetica,sans-Serif" font-size="10.00">&lt; Scalar_index &gt;</text>
</a>
</g>
</g>
<!-- Node1&#45;&gt;Node3 -->
<g id="edge2_Node000001_Node000003" class="edge">
<title>Node1&#45;&gt;Node3</title>
<g id="a_edge2_Node000001_Node000003"><a xlink:title=" ">
<path fill="none" stroke="#63b8ff" d="M120,-101.17C130.6,-102.83 141.57,-104.55 152.11,-106.2"/>
<polygon fill="#63b8ff" stroke="#63b8ff" points="120.6,-97.72 110.18,-99.63 119.51,-104.63 120.6,-97.72"/>
</a>
</g>
</g>
<!-- Node4 -->
<g id="Node000004" class="node">
<title>Node4</title>
<g id="a_Node000004"><a xlink:href="../../d4/d22/classogxx_1_1_index__set__hashtable.html" target="_top" xlink:title=" ">
<polygon fill="white" stroke="#666666" points="281.75,-82 149.5,-82 149.5,-50 281.75,-50 281.75,-82"/>
<text text-anchor="start" x="157.5" y="-68.5" font-family="Helvetica,sans-Serif" font-size="10.00">ogxx::Index_set_hashtable</text>
<text text-anchor="middle" x="215.62" y="-56.5" font-family="Helvetica,sans-Serif" font-size="10.00">&lt; Scalar_index &gt;</text>
</a>
</g>
</g>
<!-- Node1&#45;&gt;Node4 -->
<g id="edge3_Node000001_Node000004" class="edge">
<title>Node1&#45;&gt;Node4</title>
<g id="a_edge3_Node000001_Node000004"><a xlink:title=" ">
<path fill="none" stroke="#63b8ff" d="M119.81,-80.86C129.44,-79.35 139.37,-77.79 149.02,-76.28"/>
<polygon fill="#63b8ff" stroke="#63b8ff" points="119.51,-77.37 110.18,-82.37 120.6,-84.28 119.51,-77.37"/>
</a>
</g>
</g>
<!-- Node5 -->
<g id="Node000005" class="node">
<title>Node5</title>
<g id="a_Node000005"><a xlink:href="../../d2/d01/classogxx_1_1_index__set__sortedvector.html" target="_top" xlink:title=" ">
<polygon fill="white" stroke="#666666" points="287,-32 144.25,-32 144.25,0 287,0 287,-32"/>
<text text-anchor="start" x="152.25" y="-18.5" font-family="Helvetica,sans-Serif" font-size="10.00">ogxx::Index_set_sortedvector</text>
<text text-anchor="middle" x="215.62" y="-6.5" font-family="Helvetica,sans-Serif" font-size="10.00">&lt; Scalar_index &gt;</text>
</a>
</g>
</g>
<!-- Node1&#45;&gt;Node5 -->
<g id="edge4_Node000001_Node000005" class="edge">
<title>Node1&#45;&gt;Node5</title>
<g id="a_edge4_Node000001_Node000005"><a xlink:title=" ">
<path fill="none" stroke="#63b8ff" d="M81.26,-74.78C98.7,-64.35 122.37,-50.93 144.25,-41 150.86,-38 157.95,-35.11 164.98,-32.44"/>
<polygon fill="#63b8ff" stroke="#63b8ff" points="79.8,-71.57 73.06,-79.75 83.43,-77.56 79.8,-71.57"/>
</a>
</g>
</g>
</g>
</svg>
