<?xml version="1.0" encoding="UTF-8" standalone="no"?>
<!DOCTYPE svg PUBLIC "-//W3C//DTD SVG 1.1//EN"
 "http://www.w3.org/Graphics/SVG/1.1/DTD/svg11.dtd">
<!-- Generated by graphviz version 9.0.0 (20230911.1827)
 -->
<!-- Title: tests/stl_iterator_and_iterator_algorithms.cpp Pages: 1 -->
<svg width="617pt" height="264pt"
 viewBox="0.00 0.00 616.50 264.00" xmlns="http://www.w3.org/2000/svg" xmlns:xlink="http://www.w3.org/1999/xlink">
<g id="graph0" class="graph" transform="scale(1 1) rotate(0) translate(4 260)">
<title>tests/stl_iterator_and_iterator_algorithms.cpp</title>
<!-- Node1 -->
<g id="Node000001" class="node">
<title>Node1</title>
<g id="a_Node000001"><a xlink:title="Testing Stl_iterator and iterator_algorithms.hpp.">
<polygon fill="#999999" stroke="#666666" points="476.38,-256 335.12,-256 335.12,-224 476.38,-224 476.38,-256"/>
<text text-anchor="start" x="343.12" y="-242.5" font-family="Helvetica,sans-Serif" font-size="10.00">tests/stl_iterator</text>
<text text-anchor="middle" x="405.75" y="-230.5" font-family="Helvetica,sans-Serif" font-size="10.00">_and_iterator_algorithms.cpp</text>
</a>
</g>
</g>
<!-- Node2 -->
<g id="Node000002" class="node">
<title>Node2</title>
<g id="a_Node000002"><a xlink:href="../../d0/d53/testing__head_8hpp.html" target="_top" xlink:title="A helper file to be included in each testing cpp.">
<polygon fill="white" stroke="#666666" points="141.88,-188 51.62,-188 51.62,-168 141.88,-168 141.88,-188"/>
<text text-anchor="middle" x="96.75" y="-174.5" font-family="Helvetica,sans-Serif" font-size="10.00">testing_head.hpp</text>
</a>
</g>
</g>
<!-- Node1&#45;&gt;Node2 -->
<g id="edge1_Node000001_Node000002" class="edge">
<title>Node1&#45;&gt;Node2</title>
<g id="a_edge1_Node000001_Node000002"><a xlink:title=" ">
<path fill="none" stroke="#63b8ff" d="M334.86,-225.23C279.7,-214.52 204.19,-199.86 153.11,-189.94"/>
<polygon fill="#63b8ff" stroke="#63b8ff" points="153.92,-186.54 143.44,-188.07 152.59,-193.41 153.92,-186.54"/>
</a>
</g>
</g>
<!-- Node13 -->
<g id="Node000013" class="node">
<title>Node13</title>
<g id="a_Node000013"><a xlink:href="../../d4/d29/stl__iterator_8hpp.html" target="_top" xlink:title="This file defines the Stl_iterator class, which provides an iterator for standard C++ containers.">
<polygon fill="white" stroke="#666666" points="264,-188 159.5,-188 159.5,-168 264,-168 264,-188"/>
<text text-anchor="middle" x="211.75" y="-174.5" font-family="Helvetica,sans-Serif" font-size="10.00">ogxx/stl_iterator.hpp</text>
</a>
</g>
</g>
<!-- Node1&#45;&gt;Node13 -->
<g id="edge12_Node000001_Node000013" class="edge">
<title>Node1&#45;&gt;Node13</title>
<g id="a_edge12_Node000001_Node000013"><a xlink:title=" ">
<path fill="none" stroke="#63b8ff" d="M355.79,-223.55C324.03,-213.73 283.4,-201.16 253.39,-191.88"/>
<polygon fill="#63b8ff" stroke="#63b8ff" points="254.49,-188.55 243.9,-188.94 252.42,-195.24 254.49,-188.55"/>
</a>
</g>
</g>
<!-- Node16 -->
<g id="Node000016" class="node">
<title>Node16</title>
<g id="a_Node000016"><a xlink:href="../../d7/d63/iterator__algorithms_8hpp.html" target="_top" xlink:title="Helper functions to work with iterators inspired by STL algorithm header.">
<polygon fill="white" stroke="#666666" points="421.25,-188 282.25,-188 282.25,-168 421.25,-168 421.25,-188"/>
<text text-anchor="middle" x="351.75" y="-174.5" font-family="Helvetica,sans-Serif" font-size="10.00">ogxx/iterator_algorithms.hpp</text>
</a>
</g>
</g>
<!-- Node1&#45;&gt;Node16 -->
<g id="edge16_Node000001_Node000016" class="edge">
<title>Node1&#45;&gt;Node16</title>
<g id="a_edge16_Node000001_Node000016"><a xlink:title=" ">
<path fill="none" stroke="#63b8ff" d="M391.84,-223.55C384.5,-215.39 375.45,-205.33 367.81,-196.84"/>
<polygon fill="#63b8ff" stroke="#63b8ff" points="370.52,-194.62 361.23,-189.53 365.32,-199.31 370.52,-194.62"/>
</a>
</g>
</g>
<!-- Node17 -->
<g id="Node000017" class="node">
<title>Node17</title>
<g id="a_Node000017"><a xlink:title=" ">
<polygon fill="#e0e0e0" stroke="#999999" points="479.75,-188 439.75,-188 439.75,-168 479.75,-168 479.75,-188"/>
<text text-anchor="middle" x="459.75" y="-174.5" font-family="Helvetica,sans-Serif" font-size="10.00">string</text>
</a>
</g>
</g>
<!-- Node1&#45;&gt;Node17 -->
<g id="edge18_Node000001_Node000017" class="edge">
<title>Node1&#45;&gt;Node17</title>
<g id="a_edge18_Node000001_Node000017"><a xlink:title=" ">
<path fill="none" stroke="#63b8ff" d="M419.66,-223.55C427,-215.39 436.05,-205.33 443.69,-196.84"/>
<polygon fill="#63b8ff" stroke="#63b8ff" points="446.18,-199.31 450.27,-189.53 440.98,-194.62 446.18,-199.31"/>
</a>
</g>
</g>
<!-- Node18 -->
<g id="Node000018" class="node">
<title>Node18</title>
<g id="a_Node000018"><a xlink:title=" ">
<polygon fill="#e0e0e0" stroke="#999999" points="549.38,-188 498.12,-188 498.12,-168 549.38,-168 549.38,-188"/>
<text text-anchor="middle" x="523.75" y="-174.5" font-family="Helvetica,sans-Serif" font-size="10.00">sstream</text>
</a>
</g>
</g>
<!-- Node1&#45;&gt;Node18 -->
<g id="edge19_Node000001_Node000018" class="edge">
<title>Node1&#45;&gt;Node18</title>
<g id="a_edge19_Node000001_Node000018"><a xlink:title=" ">
<path fill="none" stroke="#63b8ff" d="M436.14,-223.55C454.32,-214.3 477.28,-202.63 495.14,-193.55"/>
<polygon fill="#63b8ff" stroke="#63b8ff" points="496.57,-196.75 503.9,-189.09 493.4,-190.51 496.57,-196.75"/>
</a>
</g>
</g>
<!-- Node19 -->
<g id="Node000019" class="node">
<title>Node19</title>
<g id="a_Node000019"><a xlink:title=" ">
<polygon fill="#e0e0e0" stroke="#999999" points="608.5,-188 567,-188 567,-168 608.5,-168 608.5,-188"/>
<text text-anchor="middle" x="587.75" y="-174.5" font-family="Helvetica,sans-Serif" font-size="10.00">vector</text>
</a>
</g>
</g>
<!-- Node1&#45;&gt;Node19 -->
<g id="edge20_Node000001_Node000019" class="edge">
<title>Node1&#45;&gt;Node19</title>
<g id="a_edge20_Node000001_Node000019"><a xlink:title=" ">
<path fill="none" stroke="#63b8ff" d="M452.62,-223.55C485.16,-212.82 527.64,-198.82 556.21,-189.4"/>
<polygon fill="#63b8ff" stroke="#63b8ff" points="556.96,-192.84 565.36,-186.38 554.77,-186.19 556.96,-192.84"/>
</a>
</g>
</g>
<!-- Node3 -->
<g id="Node000003" class="node">
<title>Node3</title>
<g id="a_Node000003"><a xlink:title=" ">
<polygon fill="#e0e0e0" stroke="#999999" points="132.62,-132 40.88,-132 40.88,-112 132.62,-112 132.62,-132"/>
<text text-anchor="middle" x="86.75" y="-118.5" font-family="Helvetica,sans-Serif" font-size="10.00">doctest/doctest.h</text>
</a>
</g>
</g>
<!-- Node2&#45;&gt;Node3 -->
<g id="edge2_Node000002_Node000003" class="edge">
<title>Node2&#45;&gt;Node3</title>
<g id="a_edge2_Node000002_Node000003"><a xlink:title=" ">
<path fill="none" stroke="#63b8ff" d="M95.01,-167.59C93.77,-160.93 92.07,-151.75 90.54,-143.44"/>
<polygon fill="#63b8ff" stroke="#63b8ff" points="94.01,-142.98 88.75,-133.79 87.13,-144.26 94.01,-142.98"/>
</a>
</g>
</g>
<!-- Node4 -->
<g id="Node000004" class="node">
<title>Node4</title>
<g id="a_Node000004"><a xlink:href="../../de/d2f/primitive__definitions_8hpp.html" target="_top" xlink:title="Primitive type declarations like scalar indices and so on.">
<polygon fill="white" stroke="#666666" points="300.12,-76 157.38,-76 157.38,-56 300.12,-56 300.12,-76"/>
<text text-anchor="middle" x="228.75" y="-62.5" font-family="Helvetica,sans-Serif" font-size="10.00">ogxx/primitive_definitions.hpp</text>
</a>
</g>
</g>
<!-- Node2&#45;&gt;Node4 -->
<g id="edge3_Node000002_Node000004" class="edge">
<title>Node2&#45;&gt;Node4</title>
<g id="a_edge3_Node000002_Node000004"><a xlink:title=" ">
<path fill="none" stroke="#63b8ff" d="M108,-167.62C130.41,-148.95 180.85,-106.92 208.93,-83.52"/>
<polygon fill="#63b8ff" stroke="#63b8ff" points="210.92,-86.41 216.36,-77.32 206.44,-81.04 210.92,-86.41"/>
</a>
</g>
</g>
<!-- Node5 -->
<g id="Node000005" class="node">
<title>Node5</title>
<g id="a_Node000005"><a xlink:title=" ">
<polygon fill="#e0e0e0" stroke="#999999" points="47.5,-20 0,-20 0,0 47.5,0 47.5,-20"/>
<text text-anchor="middle" x="23.75" y="-6.5" font-family="Helvetica,sans-Serif" font-size="10.00">cstddef</text>
</a>
</g>
</g>
<!-- Node4&#45;&gt;Node5 -->
<g id="edge4_Node000004_Node000005" class="edge">
<title>Node4&#45;&gt;Node5</title>
<g id="a_edge4_Node000004_Node000005"><a xlink:title=" ">
<path fill="none" stroke="#63b8ff" d="M191.57,-55.55C158.83,-47.19 109.57,-34.48 58.72,-20.77"/>
<polygon fill="#63b8ff" stroke="#63b8ff" points="59.88,-17.46 49.31,-18.23 58.05,-24.22 59.88,-17.46"/>
</a>
</g>
</g>
<!-- Node6 -->
<g id="Node000006" class="node">
<title>Node6</title>
<g id="a_Node000006"><a xlink:title=" ">
<polygon fill="#e0e0e0" stroke="#999999" points="110.38,-20 65.12,-20 65.12,0 110.38,0 110.38,-20"/>
<text text-anchor="middle" x="87.75" y="-6.5" font-family="Helvetica,sans-Serif" font-size="10.00">cstdint</text>
</a>
</g>
</g>
<!-- Node4&#45;&gt;Node6 -->
<g id="edge5_Node000004_Node000006" class="edge">
<title>Node4&#45;&gt;Node6</title>
<g id="a_edge5_Node000004_Node000006"><a xlink:title=" ">
<path fill="none" stroke="#63b8ff" d="M204.19,-55.59C181.23,-46.8 146.77,-33.6 121.29,-23.84"/>
<polygon fill="#63b8ff" stroke="#63b8ff" points="122.63,-20.61 112.04,-20.3 120.13,-27.15 122.63,-20.61"/>
</a>
</g>
</g>
<!-- Node7 -->
<g id="Node000007" class="node">
<title>Node7</title>
<g id="a_Node000007"><a xlink:title=" ">
<polygon fill="#e0e0e0" stroke="#999999" points="157.15,-20 128.35,-20 128.35,0 157.15,0 157.15,-20"/>
<text text-anchor="middle" x="142.75" y="-6.5" font-family="Helvetica,sans-Serif" font-size="10.00">bit</text>
</a>
</g>
</g>
<!-- Node4&#45;&gt;Node7 -->
<g id="edge6_Node000004_Node000007" class="edge">
<title>Node4&#45;&gt;Node7</title>
<g id="a_edge6_Node000004_Node000007"><a xlink:title=" ">
<path fill="none" stroke="#63b8ff" d="M213.77,-55.59C200.94,-47.54 182.23,-35.79 167.23,-26.37"/>
<polygon fill="#63b8ff" stroke="#63b8ff" points="169.17,-23.46 158.84,-21.1 165.45,-29.38 169.17,-23.46"/>
</a>
</g>
</g>
<!-- Node8 -->
<g id="Node000008" class="node">
<title>Node8</title>
<g id="a_Node000008"><a xlink:title=" ">
<polygon fill="#e0e0e0" stroke="#999999" points="214.38,-20 175.12,-20 175.12,0 214.38,0 214.38,-20"/>
<text text-anchor="middle" x="194.75" y="-6.5" font-family="Helvetica,sans-Serif" font-size="10.00">limits</text>
</a>
</g>
</g>
<!-- Node4&#45;&gt;Node8 -->
<g id="edge7_Node000004_Node000008" class="edge">
<title>Node4&#45;&gt;Node8</title>
<g id="a_edge7_Node000004_Node000008"><a xlink:title=" ">
<path fill="none" stroke="#63b8ff" d="M222.83,-55.59C218.39,-48.55 212.17,-38.67 206.71,-30"/>
<polygon fill="#63b8ff" stroke="#63b8ff" points="209.7,-28.18 201.41,-21.58 203.78,-31.91 209.7,-28.18"/>
</a>
</g>
</g>
<!-- Node9 -->
<g id="Node000009" class="node">
<title>Node9</title>
<g id="a_Node000009"><a xlink:title=" ">
<polygon fill="#e0e0e0" stroke="#999999" points="294.62,-20 232.88,-20 232.88,0 294.62,0 294.62,-20"/>
<text text-anchor="middle" x="263.75" y="-6.5" font-family="Helvetica,sans-Serif" font-size="10.00">type_traits</text>
</a>
</g>
</g>
<!-- Node4&#45;&gt;Node9 -->
<g id="edge8_Node000004_Node000009" class="edge">
<title>Node4&#45;&gt;Node9</title>
<g id="a_edge8_Node000004_Node000009"><a xlink:title=" ">
<path fill="none" stroke="#63b8ff" d="M234.85,-55.59C239.46,-48.47 245.96,-38.45 251.62,-29.72"/>
<polygon fill="#63b8ff" stroke="#63b8ff" points="254.4,-31.86 256.9,-21.57 248.52,-28.06 254.4,-31.86"/>
</a>
</g>
</g>
<!-- Node10 -->
<g id="Node000010" class="node">
<title>Node10</title>
<g id="a_Node000010"><a xlink:title=" ">
<polygon fill="#e0e0e0" stroke="#999999" points="364.38,-20 313.12,-20 313.12,0 364.38,0 364.38,-20"/>
<text text-anchor="middle" x="338.75" y="-6.5" font-family="Helvetica,sans-Serif" font-size="10.00">memory</text>
</a>
</g>
</g>
<!-- Node4&#45;&gt;Node10 -->
<g id="edge9_Node000004_Node000010" class="edge">
<title>Node4&#45;&gt;Node10</title>
<g id="a_edge9_Node000004_Node000010"><a xlink:title=" ">
<path fill="none" stroke="#63b8ff" d="M247.91,-55.59C264.84,-47.28 289.8,-35.03 309.27,-25.47"/>
<polygon fill="#63b8ff" stroke="#63b8ff" points="310.65,-28.7 318.08,-21.15 307.56,-22.41 310.65,-28.7"/>
</a>
</g>
</g>
<!-- Node11 -->
<g id="Node000011" class="node">
<title>Node11</title>
<g id="a_Node000011"><a xlink:title=" ">
<polygon fill="#e0e0e0" stroke="#999999" points="421.38,-20 382.12,-20 382.12,0 421.38,0 421.38,-20"/>
<text text-anchor="middle" x="401.75" y="-6.5" font-family="Helvetica,sans-Serif" font-size="10.00">utility</text>
</a>
</g>
</g>
<!-- Node4&#45;&gt;Node11 -->
<g id="edge10_Node000004_Node000011" class="edge">
<title>Node4&#45;&gt;Node11</title>
<g id="a_edge10_Node000004_Node000011"><a xlink:title=" ">
<path fill="none" stroke="#63b8ff" d="M259.61,-55.52C286.75,-47.16 327.59,-34.54 371.07,-20.83"/>
<polygon fill="#63b8ff" stroke="#63b8ff" points="371.95,-24.22 380.43,-17.87 369.84,-17.55 371.95,-24.22"/>
</a>
</g>
</g>
<!-- Node12 -->
<g id="Node000012" class="node">
<title>Node12</title>
<g id="a_Node000012"><a xlink:title=" ">
<polygon fill="#e0e0e0" stroke="#999999" points="498.12,-20 439.38,-20 439.38,0 498.12,0 498.12,-20"/>
<text text-anchor="middle" x="468.75" y="-6.5" font-family="Helvetica,sans-Serif" font-size="10.00">stdexcept</text>
</a>
</g>
</g>
<!-- Node4&#45;&gt;Node12 -->
<g id="edge11_Node000004_Node000012" class="edge">
<title>Node4&#45;&gt;Node12</title>
<g id="a_edge11_Node000004_Node000012"><a xlink:title=" ">
<path fill="none" stroke="#63b8ff" d="M272.13,-55.51C310.67,-47.04 368.81,-34.17 427.86,-20.64"/>
<polygon fill="#63b8ff" stroke="#63b8ff" points="428.45,-24.1 437.41,-18.45 426.88,-17.28 428.45,-24.1"/>
</a>
</g>
</g>
<!-- Node14 -->
<g id="Node000014" class="node">
<title>Node14</title>
<g id="a_Node000014"><a xlink:title=" ">
<polygon fill="#e0e0e0" stroke="#999999" points="234.75,-132 188.75,-132 188.75,-112 234.75,-112 234.75,-132"/>
<text text-anchor="middle" x="211.75" y="-118.5" font-family="Helvetica,sans-Serif" font-size="10.00">iterator</text>
</a>
</g>
</g>
<!-- Node13&#45;&gt;Node14 -->
<g id="edge13_Node000013_Node000014" class="edge">
<title>Node13&#45;&gt;Node14</title>
<g id="a_edge13_Node000013_Node000014"><a xlink:title=" ">
<path fill="none" stroke="#63b8ff" d="M211.75,-167.59C211.75,-161.01 211.75,-151.96 211.75,-143.73"/>
<polygon fill="#63b8ff" stroke="#63b8ff" points="215.25,-143.81 211.75,-133.81 208.25,-143.81 215.25,-143.81"/>
</a>
</g>
</g>
<!-- Node15 -->
<g id="Node000015" class="node">
<title>Node15</title>
<g id="a_Node000015"><a xlink:href="../../d9/dde/iterator_8hpp.html" target="_top" xlink:title="Linear sequence iterator interfaces.">
<polygon fill="white" stroke="#666666" points="341.12,-132 252.38,-132 252.38,-112 341.12,-112 341.12,-132"/>
<text text-anchor="middle" x="296.75" y="-118.5" font-family="Helvetica,sans-Serif" font-size="10.00">ogxx/iterator.hpp</text>
</a>
</g>
</g>
<!-- Node13&#45;&gt;Node15 -->
<g id="edge14_Node000013_Node000015" class="edge">
<title>Node13&#45;&gt;Node15</title>
<g id="a_edge14_Node000013_Node000015"><a xlink:title=" ">
<path fill="none" stroke="#63b8ff" d="M226.56,-167.59C239.15,-159.59 257.5,-147.93 272.28,-138.54"/>
<polygon fill="#63b8ff" stroke="#63b8ff" points="273.99,-141.61 280.55,-133.29 270.23,-135.7 273.99,-141.61"/>
</a>
</g>
</g>
<!-- Node15&#45;&gt;Node4 -->
<g id="edge15_Node000015_Node000004" class="edge">
<title>Node15&#45;&gt;Node4</title>
<g id="a_edge15_Node000015_Node000004"><a xlink:title=" ">
<path fill="none" stroke="#63b8ff" d="M284.91,-111.59C275.06,-103.77 260.82,-92.46 249.14,-83.19"/>
<polygon fill="#63b8ff" stroke="#63b8ff" points="251.65,-80.72 241.64,-77.24 247.3,-86.2 251.65,-80.72"/>
</a>
</g>
</g>
<!-- Node16&#45;&gt;Node15 -->
<g id="edge17_Node000016_Node000015" class="edge">
<title>Node16&#45;&gt;Node15</title>
<g id="a_edge17_Node000016_Node000015"><a xlink:title=" ">
<path fill="none" stroke="#63b8ff" d="M342.17,-167.59C334.52,-160.08 323.59,-149.35 314.37,-140.3"/>
<polygon fill="#63b8ff" stroke="#63b8ff" points="316.89,-137.87 307.3,-133.36 311.98,-142.86 316.89,-137.87"/>
</a>
</g>
</g>
</g>
</svg>
