<?xml version="1.0" encoding="UTF-8" standalone="no"?>
<!DOCTYPE svg PUBLIC "-//W3C//DTD SVG 1.1//EN"
 "http://www.w3.org/Graphics/SVG/1.1/DTD/svg11.dtd">
<!-- Generated by graphviz version 9.0.0 (20230911.1827)
 -->
<!-- Title: ogxx::Symmetric_dense_st_matrix&lt; ST &gt; Pages: 1 -->
<svg width="235pt" height="234pt"
 viewBox="0.00 0.00 235.38 234.00" xmlns="http://www.w3.org/2000/svg" xmlns:xlink="http://www.w3.org/1999/xlink">
<g id="graph0" class="graph" transform="scale(1 1) rotate(0) translate(4 230)">
<title>ogxx::Symmetric_dense_st_matrix&lt; ST &gt;</title>
<!-- Node1 -->
<g id="Node000001" class="node">
<title>Node1</title>
<g id="a_Node000001"><a xlink:title="A class that represents a symmetric matrix in dense storage format.">
<polygon fill="#999999" stroke="#666666" points="121.75,-32 0,-32 0,0 121.75,0 121.75,-32"/>
<text text-anchor="start" x="8" y="-18.5" font-family="Helvetica,sans-Serif" font-size="10.00">ogxx::Symmetric_dense</text>
<text text-anchor="middle" x="60.88" y="-6.5" font-family="Helvetica,sans-Serif" font-size="10.00">_st_matrix&lt; ST &gt;</text>
</a>
</g>
</g>
<!-- Node2 -->
<g id="Node000002" class="node">
<title>Node2</title>
<g id="a_Node000002"><a xlink:href="../../da/dce/classogxx_1_1_st__matrix.html" target="_top" xlink:title="Simple type matrix interface. Iterating the matrix means going through all its elements in row&#45;major ...">
<polygon fill="white" stroke="#666666" points="118.38,-100 3.38,-100 3.38,-80 118.38,-80 118.38,-100"/>
<text text-anchor="middle" x="60.88" y="-86.5" font-family="Helvetica,sans-Serif" font-size="10.00">ogxx::St_matrix&lt; ST &gt;</text>
</a>
</g>
</g>
<!-- Node2&#45;&gt;Node1 -->
<g id="edge1_Node000001_Node000002" class="edge">
<title>Node2&#45;&gt;Node1</title>
<g id="a_edge1_Node000001_Node000002"><a xlink:title=" ">
<path fill="none" stroke="#63b8ff" d="M54.71,-68.46C53.79,-57.01 53.96,-42.99 55.21,-32.47"/>
<polygon fill="#63b8ff" stroke="#63b8ff" points="51.2,-68.61 55.95,-78.09 58.15,-67.72 51.2,-68.61"/>
</a>
</g>
</g>
<!-- Node2&#45;&gt;Node1 -->
<g id="edge5_Node000001_Node000002" class="edge">
<title>Node2&#45;&gt;Node1</title>
<g id="a_edge5_Node000001_Node000002"><a xlink:title=" ">
<path fill="none" stroke="#63b8ff" d="M67.04,-68.46C67.96,-57.01 67.79,-42.99 66.54,-32.47"/>
<polygon fill="#63b8ff" stroke="#63b8ff" points="63.6,-67.72 65.8,-78.09 70.55,-68.61 63.6,-67.72"/>
</a>
</g>
</g>
<!-- Node3 -->
<g id="Node000003" class="node">
<title>Node3</title>
<g id="a_Node000003"><a xlink:href="../../d0/d06/classogxx_1_1_matrix__base.html" target="_top" xlink:title="Common matrix function independent of matrix item type.">
<polygon fill="white" stroke="#666666" points="97,-163 0.75,-163 0.75,-143 97,-143 97,-163"/>
<text text-anchor="middle" x="48.88" y="-149.5" font-family="Helvetica,sans-Serif" font-size="10.00">ogxx::Matrix_base</text>
</a>
</g>
</g>
<!-- Node3&#45;&gt;Node2 -->
<g id="edge2_Node000002_Node000003" class="edge">
<title>Node3&#45;&gt;Node2</title>
<g id="a_edge2_Node000002_Node000003"><a xlink:title=" ">
<path fill="none" stroke="#63b8ff" d="M52.9,-131.53C54.98,-120.98 57.41,-108.62 59.04,-100.35"/>
<polygon fill="#63b8ff" stroke="#63b8ff" points="49.49,-130.76 50.99,-141.25 56.35,-132.11 49.49,-130.76"/>
</a>
</g>
</g>
<!-- Node4 -->
<g id="Node000004" class="node">
<title>Node4</title>
<g id="a_Node000004"><a xlink:href="../../d9/d72/classogxx_1_1_sized__iterable.html" target="_top" xlink:title=" ">
<polygon fill="white" stroke="#666666" points="219.12,-169 114.62,-169 114.62,-137 219.12,-137 219.12,-169"/>
<text text-anchor="start" x="122.62" y="-155.5" font-family="Helvetica,sans-Serif" font-size="10.00">ogxx::Sized_iterable</text>
<text text-anchor="middle" x="166.88" y="-143.5" font-family="Helvetica,sans-Serif" font-size="10.00">&lt; ST &gt;</text>
</a>
</g>
</g>
<!-- Node4&#45;&gt;Node2 -->
<g id="edge3_Node000002_Node000004" class="edge">
<title>Node4&#45;&gt;Node2</title>
<g id="a_edge3_Node000002_Node000004"><a xlink:title=" ">
<path fill="none" stroke="#63b8ff" d="M130.2,-130.9C112.21,-120.54 91.44,-108.59 77.36,-100.49"/>
<polygon fill="#63b8ff" stroke="#63b8ff" points="128.4,-133.9 138.81,-135.85 131.89,-127.83 128.4,-133.9"/>
</a>
</g>
</g>
<!-- Node5 -->
<g id="Node000005" class="node">
<title>Node5</title>
<g id="a_Node000005"><a xlink:href="../../d8/d9b/classogxx_1_1_iterable.html" target="_top" xlink:title="An interface for an object that can be iterated with an iterator.">
<polygon fill="white" stroke="#666666" points="222.5,-226 111.25,-226 111.25,-206 222.5,-206 222.5,-226"/>
<text text-anchor="middle" x="166.88" y="-212.5" font-family="Helvetica,sans-Serif" font-size="10.00">ogxx::Iterable&lt; Item &gt;</text>
</a>
</g>
</g>
<!-- Node5&#45;&gt;Node4 -->
<g id="edge4_Node000004_Node000005" class="edge">
<title>Node5&#45;&gt;Node4</title>
<g id="a_edge4_Node000004_Node000005"><a xlink:title=" ">
<path fill="none" stroke="#63b8ff" d="M166.88,-194.36C166.88,-186.07 166.88,-176.69 166.88,-169.06"/>
<polygon fill="#63b8ff" stroke="#63b8ff" points="163.38,-194.22 166.88,-204.22 170.38,-194.22 163.38,-194.22"/>
</a>
</g>
</g>
<!-- Node6 -->
<g id="Node000006" class="node">
<title>Node6</title>
<g id="a_Node000006"><a xlink:title=" ">
<polygon fill="white" stroke="#666666" points="227.38,-100 136.38,-100 136.38,-80 227.38,-80 227.38,-100"/>
<text text-anchor="middle" x="181.88" y="-86.5" font-family="Helvetica,sans-Serif" font-size="10.00">std::vector&lt; ST &gt;</text>
</a>
</g>
</g>
<!-- Node6&#45;&gt;Node1 -->
<g id="edge6_Node000001_Node000006" class="edge">
<title>Node6&#45;&gt;Node1</title>
<g id="a_edge6_Node000001_Node000006"><a xlink:title=" ">
<path fill="none" stroke="#9a32cd" stroke-dasharray="5,2" d="M156.2,-73.72C135.79,-61.58 107.37,-44.66 86.87,-32.47"/>
<polygon fill="#9a32cd" stroke="#9a32cd" points="154.37,-76.71 164.76,-78.81 157.95,-70.69 154.37,-76.71"/>
</a>
</g>
<text text-anchor="middle" x="149.38" y="-52.5" font-family="Helvetica,sans-Serif" font-size="10.00" fill="grey"> data_</text>
</g>
</g>
</svg>
