<?xml version="1.0" encoding="UTF-8" standalone="no"?>
<!DOCTYPE svg PUBLIC "-//W3C//DTD SVG 1.1//EN"
 "http://www.w3.org/Graphics/SVG/1.1/DTD/svg11.dtd">
<!-- Generated by graphviz version 9.0.0 (20230911.1827)
 -->
<!-- Title: include/ogxx/iterable.hpp Pages: 1 -->
<svg width="2235pt" height="424pt"
 viewBox="0.00 0.00 2235.00 424.00" xmlns="http://www.w3.org/2000/svg" xmlns:xlink="http://www.w3.org/1999/xlink">
<g id="graph0" class="graph" transform="scale(1 1) rotate(0) translate(4 420)">
<title>include/ogxx/iterable.hpp</title>
<!-- Node1 -->
<g id="Node000001" class="node">
<title>Node1</title>
<g id="a_Node000001"><a xlink:title="Iterable interfaces.">
<polygon fill="#999999" stroke="#666666" points="977.62,-416 853.62,-416 853.62,-396 977.62,-396 977.62,-416"/>
<text text-anchor="middle" x="915.62" y="-402.5" font-family="Helvetica,sans-Serif" font-size="10.00">include/ogxx/iterable.hpp</text>
</a>
</g>
</g>
<!-- Node2 -->
<g id="Node000002" class="node">
<title>Node2</title>
<g id="a_Node000002"><a xlink:href="../../d0/df1/edge__list_8hpp.html" target="_top" xlink:title="Graph edge list interface.">
<polygon fill="white" stroke="#666666" points="839.38,-218 707.88,-218 707.88,-198 839.38,-198 839.38,-218"/>
<text text-anchor="middle" x="773.62" y="-204.5" font-family="Helvetica,sans-Serif" font-size="10.00">include/ogxx/edge_list.hpp</text>
</a>
</g>
</g>
<!-- Node1&#45;&gt;Node2 -->
<g id="edge1_Node000001_Node000002" class="edge">
<title>Node1&#45;&gt;Node2</title>
<g id="a_edge1_Node000001_Node000002"><a xlink:title=" ">
<path fill="none" stroke="#63b8ff" d="M902.16,-386.42C872.52,-345.5 802.47,-248.82 780.41,-218.36"/>
<polygon fill="#63b8ff" stroke="#63b8ff" points="899.19,-388.28 907.89,-394.32 904.86,-384.17 899.19,-388.28"/>
</a>
</g>
</g>
<!-- Node5 -->
<g id="Node000005" class="node">
<title>Node5</title>
<g id="a_Node000005"><a xlink:href="../../d1/d63/graph__view__di__el_8cpp.html" target="_top" xlink:title="Graph view implementation for directed graph represented by an edge list.">
<polygon fill="white" stroke="#666666" points="575.75,-156 467.5,-156 467.5,-124 575.75,-124 575.75,-156"/>
<text text-anchor="start" x="475.5" y="-142.5" font-family="Helvetica,sans-Serif" font-size="10.00">source/graph_view_di</text>
<text text-anchor="middle" x="521.62" y="-130.5" font-family="Helvetica,sans-Serif" font-size="10.00">_el.cpp</text>
</a>
</g>
</g>
<!-- Node1&#45;&gt;Node5 -->
<g id="edge42_Node000001_Node000005" class="edge">
<title>Node1&#45;&gt;Node5</title>
<g id="a_edge42_Node000001_Node000005"><a xlink:title=" ">
<path fill="none" stroke="#63b8ff" d="M890.26,-389.76C840.07,-359.42 724.89,-288.75 631.62,-224 599.2,-201.49 562.88,-173.51 541.15,-156.47"/>
<polygon fill="#63b8ff" stroke="#63b8ff" points="888.29,-392.66 898.66,-394.83 891.9,-386.67 888.29,-392.66"/>
</a>
</g>
</g>
<!-- Node6 -->
<g id="Node000006" class="node">
<title>Node6</title>
<g id="a_Node000006"><a xlink:href="../../dd/d0c/point__distance__matrix_8hpp.html" target="_top" xlink:title="Facilities to compute distance matrices according to selected metrics.">
<polygon fill="white" stroke="#666666" points="110.12,-292 1.12,-292 1.12,-260 110.12,-260 110.12,-292"/>
<text text-anchor="start" x="9.12" y="-278.5" font-family="Helvetica,sans-Serif" font-size="10.00">include/ogxx/point</text>
<text text-anchor="middle" x="55.62" y="-266.5" font-family="Helvetica,sans-Serif" font-size="10.00">_distance_matrix.hpp</text>
</a>
</g>
</g>
<!-- Node1&#45;&gt;Node6 -->
<g id="edge5_Node000001_Node000006" class="edge">
<title>Node1&#45;&gt;Node6</title>
<g id="a_edge5_Node000001_Node000006"><a xlink:title=" ">
<path fill="none" stroke="#63b8ff" d="M842.11,-403.02C693.99,-398.52 364.42,-385.89 254.62,-360 191.23,-345.05 122.08,-312.08 84.28,-292.49"/>
<polygon fill="#63b8ff" stroke="#63b8ff" points="841.7,-406.5 851.8,-403.31 841.91,-399.51 841.7,-406.5"/>
</a>
</g>
</g>
<!-- Node8 -->
<g id="Node000008" class="node">
<title>Node8</title>
<g id="a_Node000008"><a xlink:href="../../df/dd1/st__matrix_8hpp.html" target="_top" xlink:title="St_matrix interface, st_ stands for &quot;simple type&quot;, i.e. a thing like int or double.">
<polygon fill="white" stroke="#666666" points="397.12,-354 264.12,-354 264.12,-334 397.12,-334 397.12,-354"/>
<text text-anchor="middle" x="330.62" y="-340.5" font-family="Helvetica,sans-Serif" font-size="10.00">include/ogxx/st_matrix.hpp</text>
</a>
</g>
</g>
<!-- Node1&#45;&gt;Node8 -->
<g id="edge7_Node000001_Node000008" class="edge">
<title>Node1&#45;&gt;Node8</title>
<g id="a_edge7_Node000001_Node000008"><a xlink:title=" ">
<path fill="none" stroke="#63b8ff" d="M841.85,-397.43C727.1,-385.66 507.6,-363.15 397.33,-351.84"/>
<polygon fill="#63b8ff" stroke="#63b8ff" points="841.49,-400.91 851.79,-398.45 842.2,-393.95 841.49,-400.91"/>
</a>
</g>
</g>
<!-- Node17 -->
<g id="Node000017" class="node">
<title>Node17</title>
<g id="a_Node000017"><a xlink:href="../../d4/d1a/vertex__pair_8hpp.html" target="_top" xlink:title="Vertex pair related type declarations.">
<polygon fill="white" stroke="#666666" points="1067.25,-360 968,-360 968,-328 1067.25,-328 1067.25,-360"/>
<text text-anchor="start" x="976" y="-346.5" font-family="Helvetica,sans-Serif" font-size="10.00">include/ogxx/vertex</text>
<text text-anchor="middle" x="1017.62" y="-334.5" font-family="Helvetica,sans-Serif" font-size="10.00">_pair.hpp</text>
</a>
</g>
</g>
<!-- Node1&#45;&gt;Node17 -->
<g id="edge18_Node000001_Node000017" class="edge">
<title>Node1&#45;&gt;Node17</title>
<g id="a_edge18_Node000001_Node000017"><a xlink:title=" ">
<path fill="none" stroke="#63b8ff" d="M941.42,-389.83C956.74,-380.81 976.11,-369.42 991.49,-360.37"/>
<polygon fill="#63b8ff" stroke="#63b8ff" points="939.71,-386.77 932.87,-394.86 943.26,-392.8 939.71,-386.77"/>
</a>
</g>
</g>
<!-- Node33 -->
<g id="Node000033" class="node">
<title>Node33</title>
<g id="a_Node000033"><a xlink:href="../../d7/d92/index__set__bitvector_8hpp.html" target="_top" xlink:title="Index_set implemented via bit vector.">
<polygon fill="white" stroke="#666666" points="1689.75,-354 1539.5,-354 1539.5,-334 1689.75,-334 1689.75,-354"/>
<text text-anchor="middle" x="1614.62" y="-340.5" font-family="Helvetica,sans-Serif" font-size="10.00">source/index_set_bitvector.hpp</text>
</a>
</g>
</g>
<!-- Node1&#45;&gt;Node33 -->
<g id="edge43_Node000001_Node000033" class="edge">
<title>Node1&#45;&gt;Node33</title>
<g id="a_edge43_Node000001_Node000033"><a xlink:title=" ">
<path fill="none" stroke="#63b8ff" d="M989.27,-398.68C1122.98,-387.2 1404.27,-363.06 1539.24,-351.47"/>
<polygon fill="#63b8ff" stroke="#63b8ff" points="989.14,-395.18 979.47,-399.52 989.73,-402.15 989.14,-395.18"/>
</a>
</g>
</g>
<!-- Node35 -->
<g id="Node000035" class="node">
<title>Node35</title>
<g id="a_Node000035"><a xlink:href="../../d2/d73/index__set__hashtable_8hpp.html" target="_top" xlink:title="This file defines Index_set and Sized_iterable implementation based upon std::unordered_set.">
<polygon fill="white" stroke="#666666" points="1898.75,-354 1742.5,-354 1742.5,-334 1898.75,-334 1898.75,-354"/>
<text text-anchor="middle" x="1820.62" y="-340.5" font-family="Helvetica,sans-Serif" font-size="10.00">source/index_set_hashtable.hpp</text>
</a>
</g>
</g>
<!-- Node1&#45;&gt;Node35 -->
<g id="edge46_Node000001_Node000035" class="edge">
<title>Node1&#45;&gt;Node35</title>
<g id="a_edge46_Node000001_Node000035"><a xlink:title=" ">
<path fill="none" stroke="#63b8ff" d="M989.2,-402.37C1128.07,-397.04 1438.28,-383.46 1698.62,-360 1715.31,-358.5 1733.23,-356.5 1750.07,-354.47"/>
<polygon fill="#63b8ff" stroke="#63b8ff" points="989.27,-398.86 979.41,-402.74 989.53,-405.86 989.27,-398.86"/>
</a>
</g>
</g>
<!-- Node37 -->
<g id="Node000037" class="node">
<title>Node37</title>
<g id="a_Node000037"><a xlink:href="../../d5/df8/index__set__sortedvector_8hpp.html" target="_top" xlink:title="Index_set implementation based upon a sorted vector of set elements.">
<polygon fill="white" stroke="#666666" points="2116,-354 1949.25,-354 1949.25,-334 2116,-334 2116,-354"/>
<text text-anchor="middle" x="2032.62" y="-340.5" font-family="Helvetica,sans-Serif" font-size="10.00">source/index_set_sortedvector.hpp</text>
</a>
</g>
</g>
<!-- Node1&#45;&gt;Node37 -->
<g id="edge49_Node000001_Node000037" class="edge">
<title>Node1&#45;&gt;Node37</title>
<g id="a_edge49_Node000001_Node000037"><a xlink:title=" ">
<path fill="none" stroke="#63b8ff" d="M989.56,-403.52C1154.53,-399.8 1565.13,-388.28 1907.62,-360 1925.05,-358.56 1943.79,-356.56 1961.33,-354.48"/>
<polygon fill="#63b8ff" stroke="#63b8ff" points="989.55,-400.02 979.63,-403.74 989.7,-407.02 989.55,-400.02"/>
</a>
</g>
</g>
<!-- Node3 -->
<g id="Node000003" class="node">
<title>Node3</title>
<g id="a_Node000003"><a xlink:href="../../d6/d2b/edge__list__io_8hpp.html" target="_top" xlink:title="Textual input&#45;output for edge list.">
<polygon fill="white" stroke="#666666" points="707,-156 594.25,-156 594.25,-124 707,-124 707,-156"/>
<text text-anchor="start" x="602.25" y="-142.5" font-family="Helvetica,sans-Serif" font-size="10.00">include/ogxx/edge_list</text>
<text text-anchor="middle" x="650.62" y="-130.5" font-family="Helvetica,sans-Serif" font-size="10.00">_io.hpp</text>
</a>
</g>
</g>
<!-- Node2&#45;&gt;Node3 -->
<g id="edge2_Node000002_Node000003" class="edge">
<title>Node2&#45;&gt;Node3</title>
<g id="a_edge2_Node000002_Node000003"><a xlink:title=" ">
<path fill="none" stroke="#63b8ff" d="M746.01,-192.18C726.09,-181.49 699.27,-167.1 679.14,-156.3"/>
<polygon fill="#63b8ff" stroke="#63b8ff" points="744.2,-195.18 754.67,-196.83 747.51,-189.02 744.2,-195.18"/>
</a>
</g>
</g>
<!-- Node4 -->
<g id="Node000004" class="node">
<title>Node4</title>
<g id="a_Node000004"><a xlink:href="../../d3/dcc/graph__repr__conv_8hpp.html" target="_top" xlink:title="Graph representation conversion operations.">
<polygon fill="white" stroke="#666666" points="822.5,-156 724.75,-156 724.75,-124 822.5,-124 822.5,-156"/>
<text text-anchor="start" x="732.75" y="-142.5" font-family="Helvetica,sans-Serif" font-size="10.00">include/ogxx/graph</text>
<text text-anchor="middle" x="773.62" y="-130.5" font-family="Helvetica,sans-Serif" font-size="10.00">_repr_conv.hpp</text>
</a>
</g>
</g>
<!-- Node2&#45;&gt;Node4 -->
<g id="edge3_Node000002_Node000004" class="edge">
<title>Node2&#45;&gt;Node4</title>
<g id="a_edge3_Node000002_Node000004"><a xlink:title=" ">
<path fill="none" stroke="#63b8ff" d="M773.62,-186.1C773.62,-176.43 773.62,-165.16 773.62,-156.3"/>
<polygon fill="#63b8ff" stroke="#63b8ff" points="770.13,-186.03 773.63,-196.03 777.13,-186.03 770.13,-186.03"/>
</a>
</g>
</g>
<!-- Node2&#45;&gt;Node5 -->
<g id="edge4_Node000002_Node000005" class="edge">
<title>Node2&#45;&gt;Node5</title>
<g id="a_edge4_Node000002_Node000005"><a xlink:title=" ">
<path fill="none" stroke="#63b8ff" d="M726.6,-194.68C683.95,-183.51 621.08,-167.05 576.22,-155.3"/>
<polygon fill="#63b8ff" stroke="#63b8ff" points="725.49,-198.01 736.06,-197.16 727.27,-191.24 725.49,-198.01"/>
</a>
</g>
</g>
<!-- Node7 -->
<g id="Node000007" class="node">
<title>Node7</title>
<g id="a_Node000007"><a xlink:href="../../d3/d60/point__distance__matrix_8cpp.html" target="_top" xlink:title="Implementation of point distance matrix adapter for a metrics object.">
<polygon fill="white" stroke="#666666" points="111.25,-224 0,-224 0,-192 111.25,-192 111.25,-224"/>
<text text-anchor="start" x="8" y="-210.5" font-family="Helvetica,sans-Serif" font-size="10.00">source/point_distance</text>
<text text-anchor="middle" x="55.62" y="-198.5" font-family="Helvetica,sans-Serif" font-size="10.00">_matrix.cpp</text>
</a>
</g>
</g>
<!-- Node6&#45;&gt;Node7 -->
<g id="edge6_Node000006_Node000007" class="edge">
<title>Node6&#45;&gt;Node7</title>
<g id="a_edge6_Node000006_Node000007"><a xlink:title=" ">
<path fill="none" stroke="#63b8ff" d="M55.62,-248.31C55.62,-240.12 55.62,-231.38 55.62,-224.22"/>
<polygon fill="#63b8ff" stroke="#63b8ff" points="52.13,-248.18 55.63,-258.18 59.13,-248.18 52.13,-248.18"/>
</a>
</g>
</g>
<!-- Node8&#45;&gt;Node6 -->
<g id="edge8_Node000008_Node000006" class="edge">
<title>Node8&#45;&gt;Node6</title>
<g id="a_edge8_Node000008_Node000006"><a xlink:title=" ">
<path fill="none" stroke="#63b8ff" d="M280.16,-330.89C232.15,-319.37 160.08,-302.07 110.62,-290.2"/>
<polygon fill="#63b8ff" stroke="#63b8ff" points="279.21,-334.26 289.75,-333.19 280.85,-327.45 279.21,-334.26"/>
</a>
</g>
</g>
<!-- Node9 -->
<g id="Node000009" class="node">
<title>Node9</title>
<g id="a_Node000009"><a xlink:href="../../dd/db4/st__matrix__io_8hpp.html" target="_top" xlink:title="St_matrix reading and printing operations.">
<polygon fill="white" stroke="#666666" points="581.75,-292 467.5,-292 467.5,-260 581.75,-260 581.75,-292"/>
<text text-anchor="start" x="475.5" y="-278.5" font-family="Helvetica,sans-Serif" font-size="10.00">include/ogxx/st_matrix</text>
<text text-anchor="middle" x="524.62" y="-266.5" font-family="Helvetica,sans-Serif" font-size="10.00">_io.hpp</text>
</a>
</g>
</g>
<!-- Node8&#45;&gt;Node9 -->
<g id="edge9_Node000008_Node000009" class="edge">
<title>Node8&#45;&gt;Node9</title>
<g id="a_edge9_Node000008_Node000009"><a xlink:title=" ">
<path fill="none" stroke="#63b8ff" d="M369.04,-329.93C400.74,-319.15 445.8,-303.82 479.28,-292.43"/>
<polygon fill="#63b8ff" stroke="#63b8ff" points="368.19,-326.52 359.85,-333.06 370.45,-333.15 368.19,-326.52"/>
</a>
</g>
</g>
<!-- Node13 -->
<g id="Node000013" class="node">
<title>Node13</title>
<g id="a_Node000013"><a xlink:href="../../df/da6/source_2dense__st__matrix_8cpp.html" target="_top" xlink:title="Dense matrix implementation (of abstract matrix interface from matrix.hpp).">
<polygon fill="white" stroke="#666666" points="449.12,-286 310.12,-286 310.12,-266 449.12,-266 449.12,-286"/>
<text text-anchor="middle" x="379.62" y="-272.5" font-family="Helvetica,sans-Serif" font-size="10.00">source/dense_st_matrix.cpp</text>
</a>
</g>
</g>
<!-- Node8&#45;&gt;Node13 -->
<g id="edge13_Node000008_Node000013" class="edge">
<title>Node8&#45;&gt;Node13</title>
<g id="a_edge13_Node000008_Node000013"><a xlink:title=" ">
<path fill="none" stroke="#63b8ff" d="M344.35,-324.52C353.54,-312.13 365.27,-296.33 372.62,-286.44"/>
<polygon fill="#63b8ff" stroke="#63b8ff" points="341.7,-322.21 338.55,-332.33 347.32,-326.39 341.7,-322.21"/>
</a>
</g>
</g>
<!-- Node14 -->
<g id="Node000014" class="node">
<title>Node14</title>
<g id="a_Node000014"><a xlink:href="../../d8/d4d/symmetric__dense__st__matrix_8cpp.html" target="_top" xlink:title="Implementation of a class for compact storage of a symmetric matrix.">
<polygon fill="white" stroke="#666666" points="253.38,-292 127.88,-292 127.88,-260 253.38,-260 253.38,-292"/>
<text text-anchor="start" x="135.88" y="-278.5" font-family="Helvetica,sans-Serif" font-size="10.00">source/symmetric_dense</text>
<text text-anchor="middle" x="190.62" y="-266.5" font-family="Helvetica,sans-Serif" font-size="10.00">_st_matrix.cpp</text>
</a>
</g>
</g>
<!-- Node8&#45;&gt;Node14 -->
<g id="edge14_Node000008_Node000014" class="edge">
<title>Node8&#45;&gt;Node14</title>
<g id="a_edge14_Node000008_Node000014"><a xlink:title=" ">
<path fill="none" stroke="#63b8ff" d="M300.16,-328.64C277.48,-317.95 246.56,-303.37 223.35,-292.43"/>
<polygon fill="#63b8ff" stroke="#63b8ff" points="298.66,-331.8 309.2,-332.9 301.64,-325.47 298.66,-331.8"/>
</a>
</g>
</g>
<!-- Node16 -->
<g id="Node000016" class="node">
<title>Node16</title>
<g id="a_Node000016"><a xlink:href="../../db/dc8/tests_2dense__st__matrix_8cpp.html" target="_top" xlink:title="A helper file to be included in each testing cpp.">
<polygon fill="white" stroke="#666666" points="361.38,-82 229.88,-82 229.88,-62 361.38,-62 361.38,-82"/>
<text text-anchor="middle" x="295.62" y="-68.5" font-family="Helvetica,sans-Serif" font-size="10.00">tests/dense_st_matrix.cpp</text>
</a>
</g>
</g>
<!-- Node8&#45;&gt;Node16 -->
<g id="edge16_Node000008_Node000016" class="edge">
<title>Node8&#45;&gt;Node16</title>
<g id="a_edge16_Node000008_Node000016"><a xlink:title=" ">
<path fill="none" stroke="#63b8ff" d="M316.49,-324.27C310.38,-315.06 303.89,-303.49 300.62,-292 278.35,-213.72 289.82,-113.28 294.19,-82.43"/>
<polygon fill="#63b8ff" stroke="#63b8ff" points="313.53,-326.15 322.16,-332.3 319.25,-322.11 313.53,-326.15"/>
</a>
</g>
</g>
<!-- Node10 -->
<g id="Node000010" class="node">
<title>Node10</title>
<g id="a_Node000010"><a xlink:href="../../d1/d44/source_2st__matrix__io__read_8cpp.html" target="_top" xlink:title="Implementation of st_matrix_io.hpp&#39;s read function.">
<polygon fill="white" stroke="#666666" points="411.38,-224 309.88,-224 309.88,-192 411.38,-192 411.38,-224"/>
<text text-anchor="start" x="317.88" y="-210.5" font-family="Helvetica,sans-Serif" font-size="10.00">source/st_matrix_io</text>
<text text-anchor="middle" x="360.62" y="-198.5" font-family="Helvetica,sans-Serif" font-size="10.00">_read.cpp</text>
</a>
</g>
</g>
<!-- Node9&#45;&gt;Node10 -->
<g id="edge10_Node000009_Node000010" class="edge">
<title>Node9&#45;&gt;Node10</title>
<g id="a_edge10_Node000009_Node000010"><a xlink:title=" ">
<path fill="none" stroke="#63b8ff" d="M475.65,-255.29C451.17,-245.44 421.97,-233.69 399.12,-224.49"/>
<polygon fill="#63b8ff" stroke="#63b8ff" points="474.19,-258.47 484.77,-258.96 476.8,-251.98 474.19,-258.47"/>
</a>
</g>
</g>
<!-- Node11 -->
<g id="Node000011" class="node">
<title>Node11</title>
<g id="a_Node000011"><a xlink:href="../../d0/ddf/tests_2st__matrix__io__read_8cpp.html" target="_top" xlink:title="St_matrix io::read function tests.">
<polygon fill="white" stroke="#666666" points="486.62,-88 392.62,-88 392.62,-56 486.62,-56 486.62,-88"/>
<text text-anchor="start" x="400.62" y="-74.5" font-family="Helvetica,sans-Serif" font-size="10.00">tests/st_matrix_io</text>
<text text-anchor="middle" x="439.62" y="-62.5" font-family="Helvetica,sans-Serif" font-size="10.00">_read.cpp</text>
</a>
</g>
</g>
<!-- Node9&#45;&gt;Node11 -->
<g id="edge11_Node000009_Node000011" class="edge">
<title>Node9&#45;&gt;Node11</title>
<g id="a_edge11_Node000009_Node000011"><a xlink:title=" ">
<path fill="none" stroke="#63b8ff" d="M508.04,-250.04C493.17,-226.63 471.72,-190.21 458.62,-156 449.9,-133.22 444.53,-105.33 441.81,-88.37"/>
<polygon fill="#63b8ff" stroke="#63b8ff" points="504.98,-251.75 513.34,-258.26 510.86,-247.96 504.98,-251.75"/>
</a>
</g>
</g>
<!-- Node12 -->
<g id="Node000012" class="node">
<title>Node12</title>
<g id="a_Node000012"><a xlink:href="../../da/d4a/build__all_8cpp.html" target="_top" xlink:title="Include all test files here to build them at once.">
<polygon fill="white" stroke="#666666" points="487,-20 392.25,-20 392.25,0 487,0 487,-20"/>
<text text-anchor="middle" x="439.62" y="-6.5" font-family="Helvetica,sans-Serif" font-size="10.00">tests/build_all.cpp</text>
</a>
</g>
</g>
<!-- Node11&#45;&gt;Node12 -->
<g id="edge12_Node000011_Node000012" class="edge">
<title>Node11&#45;&gt;Node12</title>
<g id="a_edge12_Node000011_Node000012"><a xlink:title=" ">
<path fill="none" stroke="#63b8ff" d="M439.62,-44.08C439.62,-35.6 439.62,-26.8 439.62,-20.41"/>
<polygon fill="#63b8ff" stroke="#63b8ff" points="436.13,-44.03 439.63,-54.03 443.13,-44.03 436.13,-44.03"/>
</a>
</g>
</g>
<!-- Node15 -->
<g id="Node000015" class="node">
<title>Node15</title>
<g id="a_Node000015"><a xlink:href="../../d5/d40/symmetric__dense__st__matrix__test_8cpp.html" target="_top" xlink:title="Tests for Symmetric_dense_st_matrix.">
<polygon fill="white" stroke="#666666" points="249.62,-224 131.62,-224 131.62,-192 249.62,-192 249.62,-224"/>
<text text-anchor="start" x="139.62" y="-210.5" font-family="Helvetica,sans-Serif" font-size="10.00">tests/symmetric_dense</text>
<text text-anchor="middle" x="190.62" y="-198.5" font-family="Helvetica,sans-Serif" font-size="10.00">_st_matrix_test.cpp</text>
</a>
</g>
</g>
<!-- Node14&#45;&gt;Node15 -->
<g id="edge15_Node000014_Node000015" class="edge">
<title>Node14&#45;&gt;Node15</title>
<g id="a_edge15_Node000014_Node000015"><a xlink:title=" ">
<path fill="none" stroke="#63b8ff" d="M190.62,-248.31C190.62,-240.12 190.62,-231.38 190.62,-224.22"/>
<polygon fill="#63b8ff" stroke="#63b8ff" points="187.13,-248.18 190.63,-258.18 194.13,-248.18 187.13,-248.18"/>
</a>
</g>
</g>
<!-- Node16&#45;&gt;Node12 -->
<g id="edge17_Node000016_Node000012" class="edge">
<title>Node16&#45;&gt;Node12</title>
<g id="a_edge17_Node000016_Node000012"><a xlink:title=" ">
<path fill="none" stroke="#63b8ff" d="M328.68,-57.23C355.84,-45.91 393.57,-30.19 417.28,-20.31"/>
<polygon fill="#63b8ff" stroke="#63b8ff" points="327.41,-53.97 319.52,-61.04 330.1,-60.43 327.41,-53.97"/>
</a>
</g>
</g>
<!-- Node18 -->
<g id="Node000018" class="node">
<title>Node18</title>
<g id="a_Node000018"><a xlink:href="../../d7/d6c/graph__view_8hpp.html" target="_top" xlink:title="Graph view interface that may be used for graph representation coversion.">
<polygon fill="white" stroke="#666666" points="1119.5,-292 1021.75,-292 1021.75,-260 1119.5,-260 1119.5,-292"/>
<text text-anchor="start" x="1029.75" y="-278.5" font-family="Helvetica,sans-Serif" font-size="10.00">include/ogxx/graph</text>
<text text-anchor="middle" x="1070.62" y="-266.5" font-family="Helvetica,sans-Serif" font-size="10.00">_view.hpp</text>
</a>
</g>
</g>
<!-- Node17&#45;&gt;Node18 -->
<g id="edge19_Node000017_Node000018" class="edge">
<title>Node17&#45;&gt;Node18</title>
<g id="a_edge19_Node000017_Node000018"><a xlink:title=" ">
<path fill="none" stroke="#63b8ff" d="M1037,-318.87C1044.16,-309.96 1052.06,-300.12 1058.4,-292.22"/>
<polygon fill="#63b8ff" stroke="#63b8ff" points="1034.4,-316.52 1030.87,-326.51 1039.86,-320.91 1034.4,-316.52"/>
</a>
</g>
</g>
<!-- Node18&#45;&gt;Node2 -->
<g id="edge35_Node000018_Node000002" class="edge">
<title>Node18&#45;&gt;Node2</title>
<g id="a_edge35_Node000018_Node000002"><a xlink:title=" ">
<path fill="none" stroke="#63b8ff" d="M1010.42,-261.62C952.66,-248.78 866.91,-229.73 816,-218.42"/>
<polygon fill="#63b8ff" stroke="#63b8ff" points="1009.58,-265.02 1020.1,-263.77 1011.1,-258.19 1009.58,-265.02"/>
</a>
</g>
</g>
<!-- Node18&#45;&gt;Node4 -->
<g id="edge36_Node000018_Node000004" class="edge">
<title>Node18&#45;&gt;Node4</title>
<g id="a_edge36_Node000018_Node000004"><a xlink:title=" ">
<path fill="none" stroke="#63b8ff" d="M1020.42,-255.34C997.47,-246.15 970.03,-234.85 945.62,-224 895.49,-201.7 838.29,-173.54 804.12,-156.42"/>
<polygon fill="#63b8ff" stroke="#63b8ff" points="1018.96,-258.53 1029.54,-258.98 1021.55,-252.03 1018.96,-258.53"/>
</a>
</g>
</g>
<!-- Node18&#45;&gt;Node5 -->
<g id="edge38_Node000018_Node000005" class="edge">
<title>Node18&#45;&gt;Node5</title>
<g id="a_edge38_Node000018_Node000005"><a xlink:title=" ">
<path fill="none" stroke="#63b8ff" d="M1009.96,-272.43C935.3,-267.97 805.32,-255.95 698.62,-224 667.01,-214.53 661.48,-206.05 631.62,-192 605.91,-179.9 576.73,-166.38 554.88,-156.3"/>
<polygon fill="#63b8ff" stroke="#63b8ff" points="1009.76,-275.92 1019.94,-273 1010.16,-268.94 1009.76,-275.92"/>
</a>
</g>
</g>
<!-- Node19 -->
<g id="Node000019" class="node">
<title>Node19</title>
<g id="a_Node000019"><a xlink:href="../../d6/da0/adjacency__list_8hpp.html" target="_top" xlink:title="Adjacency list graph representation interface.">
<polygon fill="white" stroke="#666666" points="1264.62,-224 1146.62,-224 1146.62,-192 1264.62,-192 1264.62,-224"/>
<text text-anchor="start" x="1154.62" y="-210.5" font-family="Helvetica,sans-Serif" font-size="10.00">include/ogxx/adjacency</text>
<text text-anchor="middle" x="1205.62" y="-198.5" font-family="Helvetica,sans-Serif" font-size="10.00">_list.hpp</text>
</a>
</g>
</g>
<!-- Node18&#45;&gt;Node19 -->
<g id="edge20_Node000018_Node000019" class="edge">
<title>Node18&#45;&gt;Node19</title>
<g id="a_edge20_Node000018_Node000019"><a xlink:title=" ">
<path fill="none" stroke="#63b8ff" d="M1112.61,-254.47C1132.5,-244.75 1155.84,-233.34 1174.17,-224.38"/>
<polygon fill="#63b8ff" stroke="#63b8ff" points="1111.08,-251.32 1103.64,-258.86 1114.16,-257.61 1111.08,-251.32"/>
</a>
</g>
</g>
<!-- Node25 -->
<g id="Node000025" class="node">
<title>Node25</title>
<g id="a_Node000025"><a xlink:href="../../d0/da2/graph__view__di__al_8cpp.html" target="_top" xlink:title="Graph view implementation for directed graph represented by an adjacency list.">
<polygon fill="white" stroke="#666666" points="1779.75,-156 1671.5,-156 1671.5,-124 1779.75,-124 1779.75,-156"/>
<text text-anchor="start" x="1679.5" y="-142.5" font-family="Helvetica,sans-Serif" font-size="10.00">source/graph_view_di</text>
<text text-anchor="middle" x="1725.62" y="-130.5" font-family="Helvetica,sans-Serif" font-size="10.00">_al.cpp</text>
</a>
</g>
</g>
<!-- Node18&#45;&gt;Node25 -->
<g id="edge37_Node000018_Node000025" class="edge">
<title>Node18&#45;&gt;Node25</title>
<g id="a_edge37_Node000018_Node000025"><a xlink:title=" ">
<path fill="none" stroke="#63b8ff" d="M1131.03,-270.13C1216.44,-262.56 1367.66,-246.49 1417.62,-224 1437.76,-214.94 1435.61,-201.33 1455.62,-192 1540.27,-152.56 1571.16,-174.82 1662.62,-156 1665.38,-155.43 1668.19,-154.83 1671.04,-154.21"/>
<polygon fill="#63b8ff" stroke="#63b8ff" points="1130.86,-266.63 1121.2,-270.99 1131.46,-273.6 1130.86,-266.63"/>
</a>
</g>
</g>
<!-- Node26 -->
<g id="Node000026" class="node">
<title>Node26</title>
<g id="a_Node000026"><a xlink:href="../../dc/dbd/bit__matrix_8hpp.html" target="_top" xlink:title="Bit_matrix interface.">
<polygon fill="white" stroke="#666666" points="1090.25,-218 955,-218 955,-198 1090.25,-198 1090.25,-218"/>
<text text-anchor="middle" x="1022.62" y="-204.5" font-family="Helvetica,sans-Serif" font-size="10.00">include/ogxx/bit_matrix.hpp</text>
</a>
</g>
</g>
<!-- Node18&#45;&gt;Node26 -->
<g id="edge29_Node000018_Node000026" class="edge">
<title>Node18&#45;&gt;Node26</title>
<g id="a_edge29_Node000018_Node000026"><a xlink:title=" ">
<path fill="none" stroke="#63b8ff" d="M1052.95,-250.7C1044.76,-239.43 1035.51,-226.71 1029.4,-218.32"/>
<polygon fill="#63b8ff" stroke="#63b8ff" points="1049.89,-252.44 1058.6,-258.47 1055.55,-248.32 1049.89,-252.44"/>
</a>
</g>
</g>
<!-- Node29 -->
<g id="Node000029" class="node">
<title>Node29</title>
<g id="a_Node000029"><a xlink:href="../../dc/d24/graph__view__un__am_8cpp.html" target="_top" xlink:title="Adjacency matrix of undirected graph adapter.">
<polygon fill="white" stroke="#666666" points="1389.25,-156 1278,-156 1278,-124 1389.25,-124 1389.25,-156"/>
<text text-anchor="start" x="1286" y="-142.5" font-family="Helvetica,sans-Serif" font-size="10.00">source/graph_view_un</text>
<text text-anchor="middle" x="1333.62" y="-130.5" font-family="Helvetica,sans-Serif" font-size="10.00">_am.cpp</text>
</a>
</g>
</g>
<!-- Node18&#45;&gt;Node29 -->
<g id="edge39_Node000018_Node000029" class="edge">
<title>Node18&#45;&gt;Node29</title>
<g id="a_edge39_Node000018_Node000029"><a xlink:title=" ">
<path fill="none" stroke="#63b8ff" d="M1084.73,-249.98C1096.53,-231.3 1115.04,-206.57 1137.62,-192 1143.66,-188.1 1221.94,-168.38 1277.71,-154.64"/>
<polygon fill="#63b8ff" stroke="#63b8ff" points="1081.86,-247.97 1079.67,-258.34 1087.85,-251.6 1081.86,-247.97"/>
</a>
</g>
</g>
<!-- Node31 -->
<g id="Node000031" class="node">
<title>Node31</title>
<g id="a_Node000031"><a xlink:href="../../d0/d9c/is__chain__loop_8cpp.html" target="_top" xlink:title="ogxx::functions, that check a subgraph of the graph gv contains (contour) on the vertices enumerated ...">
<polygon fill="white" stroke="#666666" points="1408.75,-218 1282.5,-218 1282.5,-198 1408.75,-198 1408.75,-218"/>
<text text-anchor="middle" x="1345.62" y="-204.5" font-family="Helvetica,sans-Serif" font-size="10.00">source/is_chain_loop.cpp</text>
</a>
</g>
</g>
<!-- Node18&#45;&gt;Node31 -->
<g id="edge40_Node000018_Node000031" class="edge">
<title>Node18&#45;&gt;Node31</title>
<g id="a_edge40_Node000018_Node000031"><a xlink:title=" ">
<path fill="none" stroke="#63b8ff" d="M1130.79,-260.56C1184.09,-247.77 1260.36,-229.46 1306.23,-218.45"/>
<polygon fill="#63b8ff" stroke="#63b8ff" points="1130.17,-257.11 1121.26,-262.85 1131.8,-263.92 1130.17,-257.11"/>
</a>
</g>
</g>
<!-- Node32 -->
<g id="Node000032" class="node">
<title>Node32</title>
<g id="a_Node000032"><a xlink:href="../../d7/dc5/make__clique_8cpp.html" target="_top" xlink:title="make_undirected_clique">
<polygon fill="white" stroke="#666666" points="1586.5,-218 1464.75,-218 1464.75,-198 1586.5,-198 1586.5,-218"/>
<text text-anchor="middle" x="1525.62" y="-204.5" font-family="Helvetica,sans-Serif" font-size="10.00">source/make_clique.cpp</text>
</a>
</g>
</g>
<!-- Node18&#45;&gt;Node32 -->
<g id="edge41_Node000018_Node000032" class="edge">
<title>Node18&#45;&gt;Node32</title>
<g id="a_edge41_Node000018_Node000032"><a xlink:title=" ">
<path fill="none" stroke="#63b8ff" d="M1131.07,-268.1C1206.2,-259.24 1338.22,-242.76 1450.62,-224 1460.45,-222.36 1470.95,-220.39 1480.9,-218.43"/>
<polygon fill="#63b8ff" stroke="#63b8ff" points="1130.99,-264.58 1121.47,-269.22 1131.81,-271.54 1130.99,-264.58"/>
</a>
</g>
</g>
<!-- Node19&#45;&gt;Node4 -->
<g id="edge25_Node000019_Node000004" class="edge">
<title>Node19&#45;&gt;Node4</title>
<g id="a_edge25_Node000019_Node000004"><a xlink:title=" ">
<path fill="none" stroke="#63b8ff" d="M1135.01,-196.94C1123.2,-195.27 1111.07,-193.58 1099.62,-192 980.57,-175.58 949.57,-179.09 831.62,-156 828.77,-155.44 825.84,-154.82 822.89,-154.17"/>
<polygon fill="#63b8ff" stroke="#63b8ff" points="1134.32,-200.37 1144.71,-198.31 1135.3,-193.44 1134.32,-200.37"/>
</a>
</g>
</g>
<!-- Node20 -->
<g id="Node000020" class="node">
<title>Node20</title>
<g id="a_Node000020"><a xlink:href="../../d8/d3e/adjacency__list__io_8hpp.html" target="_top" xlink:title="Textual input&#45;output for adjacency list.">
<polygon fill="white" stroke="#666666" points="1525.62,-156 1407.62,-156 1407.62,-124 1525.62,-124 1525.62,-156"/>
<text text-anchor="start" x="1415.62" y="-142.5" font-family="Helvetica,sans-Serif" font-size="10.00">include/ogxx/adjacency</text>
<text text-anchor="middle" x="1466.62" y="-130.5" font-family="Helvetica,sans-Serif" font-size="10.00">_list_io.hpp</text>
</a>
</g>
</g>
<!-- Node19&#45;&gt;Node20 -->
<g id="edge21_Node000019_Node000020" class="edge">
<title>Node19&#45;&gt;Node20</title>
<g id="a_edge21_Node000019_Node000020"><a xlink:title=" ">
<path fill="none" stroke="#63b8ff" d="M1275.87,-189.24C1316.91,-178.86 1368.15,-165.9 1407.18,-156.03"/>
<polygon fill="#63b8ff" stroke="#63b8ff" points="1275.15,-185.81 1266.32,-191.65 1276.87,-192.59 1275.15,-185.81"/>
</a>
</g>
</g>
<!-- Node23 -->
<g id="Node000023" class="node">
<title>Node23</title>
<g id="a_Node000023"><a xlink:href="../../d6/dda/adjacency__implementations_8cpp.html" target="_top" xlink:title="ogxx::Adjacency implementations based upon different Index_set implementations">
<polygon fill="white" stroke="#666666" points="1985.5,-150 1797.75,-150 1797.75,-130 1985.5,-130 1985.5,-150"/>
<text text-anchor="middle" x="1891.62" y="-136.5" font-family="Helvetica,sans-Serif" font-size="10.00">source/adjacency_implementations.cpp</text>
</a>
</g>
</g>
<!-- Node19&#45;&gt;Node23 -->
<g id="edge26_Node000019_Node000023" class="edge">
<title>Node19&#45;&gt;Node23</title>
<g id="a_edge26_Node000019_Node000023"><a xlink:title=" ">
<path fill="none" stroke="#63b8ff" d="M1276.13,-191.78C1502.69,-159.87 1564.17,-180.15 1788.62,-156 1802.64,-154.49 1817.68,-152.51 1831.81,-150.48"/>
<polygon fill="#63b8ff" stroke="#63b8ff" points="1275.77,-188.3 1266.37,-193.18 1276.76,-195.23 1275.77,-188.3"/>
</a>
</g>
</g>
<!-- Node24 -->
<g id="Node000024" class="node">
<title>Node24</title>
<g id="a_Node000024"><a xlink:href="../../d5/d8b/adjacency__list__vector_8cpp.html" target="_top" xlink:title="Adjacency_list interface implementation over std::vector.">
<polygon fill="white" stroke="#666666" points="1653.88,-156 1543.38,-156 1543.38,-124 1653.88,-124 1653.88,-156"/>
<text text-anchor="start" x="1551.38" y="-142.5" font-family="Helvetica,sans-Serif" font-size="10.00">source/adjacency_list</text>
<text text-anchor="middle" x="1598.62" y="-130.5" font-family="Helvetica,sans-Serif" font-size="10.00">_vector.cpp</text>
</a>
</g>
</g>
<!-- Node19&#45;&gt;Node24 -->
<g id="edge27_Node000019_Node000024" class="edge">
<title>Node19&#45;&gt;Node24</title>
<g id="a_edge27_Node000019_Node000024"><a xlink:title=" ">
<path fill="none" stroke="#63b8ff" d="M1275.92,-191.68C1390.82,-171.71 1422.98,-176.74 1534.62,-156 1537.43,-155.48 1540.3,-154.92 1543.19,-154.33"/>
<polygon fill="#63b8ff" stroke="#63b8ff" points="1275.64,-188.18 1266.4,-193.37 1276.85,-195.07 1275.64,-188.18"/>
</a>
</g>
</g>
<!-- Node19&#45;&gt;Node25 -->
<g id="edge28_Node000019_Node000025" class="edge">
<title>Node19&#45;&gt;Node25</title>
<g id="a_edge28_Node000019_Node000025"><a xlink:title=" ">
<path fill="none" stroke="#63b8ff" d="M1276.06,-191.76C1447.17,-166.02 1494.9,-183.59 1662.62,-156 1665.4,-155.54 1668.23,-155.03 1671.08,-154.48"/>
<polygon fill="#63b8ff" stroke="#63b8ff" points="1275.73,-188.27 1266.38,-193.24 1276.79,-195.18 1275.73,-188.27"/>
</a>
</g>
</g>
<!-- Node21 -->
<g id="Node000021" class="node">
<title>Node21</title>
<g id="a_Node000021"><a xlink:href="../../df/d01/source_2adjacency__list__io__read_8cpp.html" target="_top" xlink:title="Implementation of ogxx::io::read function for Adjacency_list.">
<polygon fill="white" stroke="#666666" points="1521.88,-88 1411.38,-88 1411.38,-56 1521.88,-56 1521.88,-88"/>
<text text-anchor="start" x="1419.38" y="-74.5" font-family="Helvetica,sans-Serif" font-size="10.00">source/adjacency_list</text>
<text text-anchor="middle" x="1466.62" y="-62.5" font-family="Helvetica,sans-Serif" font-size="10.00">_io_read.cpp</text>
</a>
</g>
</g>
<!-- Node20&#45;&gt;Node21 -->
<g id="edge22_Node000020_Node000021" class="edge">
<title>Node20&#45;&gt;Node21</title>
<g id="a_edge22_Node000020_Node000021"><a xlink:title=" ">
<path fill="none" stroke="#63b8ff" d="M1466.62,-112.31C1466.62,-104.12 1466.62,-95.38 1466.62,-88.22"/>
<polygon fill="#63b8ff" stroke="#63b8ff" points="1463.13,-112.18 1466.63,-122.18 1470.13,-112.18 1463.13,-112.18"/>
</a>
</g>
</g>
<!-- Node22 -->
<g id="Node000022" class="node">
<title>Node22</title>
<g id="a_Node000022"><a xlink:href="../../d0/d40/tests_2adjacency__list__io__read_8cpp.html" target="_top" xlink:title="Adjacency list io::read function tests.">
<polygon fill="white" stroke="#666666" points="1001.12,-88 898.12,-88 898.12,-56 1001.12,-56 1001.12,-88"/>
<text text-anchor="start" x="906.12" y="-74.5" font-family="Helvetica,sans-Serif" font-size="10.00">tests/adjacency_list</text>
<text text-anchor="middle" x="949.62" y="-62.5" font-family="Helvetica,sans-Serif" font-size="10.00">_io_read.cpp</text>
</a>
</g>
</g>
<!-- Node20&#45;&gt;Node22 -->
<g id="edge23_Node000020_Node000022" class="edge">
<title>Node20&#45;&gt;Node22</title>
<g id="a_edge23_Node000020_Node000022"><a xlink:title=" ">
<path fill="none" stroke="#63b8ff" d="M1396.21,-123.7C1247.38,-99.4 1083.15,-84.01 1001.38,-77.12"/>
<polygon fill="#63b8ff" stroke="#63b8ff" points="1395.43,-127.12 1405.86,-125.3 1396.57,-120.22 1395.43,-127.12"/>
</a>
</g>
</g>
<!-- Node22&#45;&gt;Node12 -->
<g id="edge24_Node000022_Node000012" class="edge">
<title>Node22&#45;&gt;Node12</title>
<g id="a_edge24_Node000022_Node000012"><a xlink:title=" ">
<path fill="none" stroke="#63b8ff" d="M886.73,-63.6C783.36,-51.44 579.83,-27.49 487.36,-16.62"/>
<polygon fill="#63b8ff" stroke="#63b8ff" points="886.07,-67.05 896.41,-64.74 886.89,-60.1 886.07,-67.05"/>
</a>
</g>
</g>
<!-- Node26&#45;&gt;Node4 -->
<g id="edge31_Node000026_Node000004" class="edge">
<title>Node26&#45;&gt;Node4</title>
<g id="a_edge31_Node000026_Node000004"><a xlink:title=" ">
<path fill="none" stroke="#63b8ff" d="M976.07,-194.66C932.45,-183.1 867.47,-165.88 822.97,-154.08"/>
<polygon fill="#63b8ff" stroke="#63b8ff" points="974.92,-197.98 985.49,-197.16 976.72,-191.21 974.92,-197.98"/>
</a>
</g>
</g>
<!-- Node27 -->
<g id="Node000027" class="node">
<title>Node27</title>
<g id="a_Node000027"><a xlink:href="../../d6/d1d/bit__matrix__io_8hpp.html" target="_top" xlink:title="Bit_matrix reading and printing operations.">
<polygon fill="white" stroke="#666666" points="1100.88,-156 984.38,-156 984.38,-124 1100.88,-124 1100.88,-156"/>
<text text-anchor="start" x="992.38" y="-142.5" font-family="Helvetica,sans-Serif" font-size="10.00">include/ogxx/bit_matrix</text>
<text text-anchor="middle" x="1042.62" y="-130.5" font-family="Helvetica,sans-Serif" font-size="10.00">_io.hpp</text>
</a>
</g>
</g>
<!-- Node26&#45;&gt;Node27 -->
<g id="edge30_Node000026_Node000027" class="edge">
<title>Node26&#45;&gt;Node27</title>
<g id="a_edge30_Node000026_Node000027"><a xlink:title=" ">
<path fill="none" stroke="#63b8ff" d="M1028.76,-186.75C1031.73,-176.94 1035.24,-165.36 1037.99,-156.3"/>
<polygon fill="#63b8ff" stroke="#63b8ff" points="1025.48,-185.51 1025.93,-196.1 1032.18,-187.54 1025.48,-185.51"/>
</a>
</g>
</g>
<!-- Node28 -->
<g id="Node000028" class="node">
<title>Node28</title>
<g id="a_Node000028"><a xlink:href="../../d9/d93/dense__bit__matrix_8cpp.html" target="_top" xlink:title=" ">
<polygon fill="white" stroke="#666666" points="1260.25,-150 1119,-150 1119,-130 1260.25,-130 1260.25,-150"/>
<text text-anchor="middle" x="1189.62" y="-136.5" font-family="Helvetica,sans-Serif" font-size="10.00">source/dense_bit_matrix.cpp</text>
</a>
</g>
</g>
<!-- Node26&#45;&gt;Node28 -->
<g id="edge32_Node000026_Node000028" class="edge">
<title>Node26&#45;&gt;Node28</title>
<g id="a_edge32_Node000026_Node000028"><a xlink:title=" ">
<path fill="none" stroke="#63b8ff" d="M1056.92,-193.45C1089.37,-180.62 1137.24,-161.7 1165.74,-150.44"/>
<polygon fill="#63b8ff" stroke="#63b8ff" points="1055.97,-190.06 1047.96,-196.99 1058.55,-196.57 1055.97,-190.06"/>
</a>
</g>
</g>
<!-- Node26&#45;&gt;Node29 -->
<g id="edge33_Node000026_Node000029" class="edge">
<title>Node26&#45;&gt;Node29</title>
<g id="a_edge33_Node000026_Node000029"><a xlink:title=" ">
<path fill="none" stroke="#63b8ff" d="M1081.78,-195.25C1131.88,-185.18 1205.56,-170.12 1269.62,-156 1272.3,-155.41 1275.04,-154.8 1277.8,-154.18"/>
<polygon fill="#63b8ff" stroke="#63b8ff" points="1081.12,-191.81 1072,-197.21 1082.5,-198.67 1081.12,-191.81"/>
</a>
</g>
</g>
<!-- Node30 -->
<g id="Node000030" class="node">
<title>Node30</title>
<g id="a_Node000030"><a xlink:href="../../d5/d69/symmetric__dense__bit__matrix_8cpp.html" target="_top" xlink:title="Symmetric_dense_bit matrix implementation (of abstract matrix interface from matrix....">
<polygon fill="white" stroke="#666666" points="966.38,-156 840.88,-156 840.88,-124 966.38,-124 966.38,-156"/>
<text text-anchor="start" x="848.88" y="-142.5" font-family="Helvetica,sans-Serif" font-size="10.00">source/symmetric_dense</text>
<text text-anchor="middle" x="903.62" y="-130.5" font-family="Helvetica,sans-Serif" font-size="10.00">_bit_matrix.cpp</text>
</a>
</g>
</g>
<!-- Node26&#45;&gt;Node30 -->
<g id="edge34_Node000026_Node000030" class="edge">
<title>Node26&#45;&gt;Node30</title>
<g id="a_edge34_Node000026_Node000030"><a xlink:title=" ">
<path fill="none" stroke="#63b8ff" d="M995.64,-192.03C976.39,-181.36 950.59,-167.05 931.21,-156.3"/>
<polygon fill="#63b8ff" stroke="#63b8ff" points="993.81,-195.02 1004.25,-196.81 997.2,-188.9 993.81,-195.02"/>
</a>
</g>
</g>
<!-- Node33&#45;&gt;Node23 -->
<g id="edge44_Node000033_Node000023" class="edge">
<title>Node33&#45;&gt;Node23</title>
<g id="a_edge44_Node000033_Node000023"><a xlink:title=" ">
<path fill="none" stroke="#63b8ff" d="M1614.44,-322.26C1615.34,-303.99 1619.31,-277.63 1633.62,-260 1686.16,-195.28 1781.77,-164.15 1840.69,-150.46"/>
<polygon fill="#63b8ff" stroke="#63b8ff" points="1610.95,-322.07 1614.26,-332.13 1617.95,-322.2 1610.95,-322.07"/>
</a>
</g>
</g>
<!-- Node34 -->
<g id="Node000034" class="node">
<title>Node34</title>
<g id="a_Node000034"><a xlink:href="../../de/d57/index__set__bitvector_8cpp.html" target="_top" xlink:title="Defining interfaces for bitvector.">
<polygon fill="white" stroke="#666666" points="1792.75,-286 1642.5,-286 1642.5,-266 1792.75,-266 1792.75,-286"/>
<text text-anchor="middle" x="1717.62" y="-272.5" font-family="Helvetica,sans-Serif" font-size="10.00">source/index_set_bitvector.cpp</text>
</a>
</g>
</g>
<!-- Node33&#45;&gt;Node34 -->
<g id="edge45_Node000033_Node000034" class="edge">
<title>Node33&#45;&gt;Node34</title>
<g id="a_edge45_Node000033_Node000034"><a xlink:title=" ">
<path fill="none" stroke="#63b8ff" d="M1638.98,-327.39C1658.84,-314.67 1686.23,-297.12 1702.89,-286.44"/>
<polygon fill="#63b8ff" stroke="#63b8ff" points="1637.19,-324.39 1630.66,-332.73 1640.96,-330.28 1637.19,-324.39"/>
</a>
</g>
</g>
<!-- Node35&#45;&gt;Node23 -->
<g id="edge47_Node000035_Node000023" class="edge">
<title>Node35&#45;&gt;Node23</title>
<g id="a_edge47_Node000035_Node000023"><a xlink:title=" ">
<path fill="none" stroke="#63b8ff" d="M1824.24,-322.32C1827.48,-305.34 1832.76,-280.81 1839.62,-260 1853.53,-217.82 1876.83,-170.09 1886.83,-150.33"/>
<polygon fill="#63b8ff" stroke="#63b8ff" points="1820.8,-321.68 1822.45,-332.14 1827.69,-322.94 1820.8,-321.68"/>
</a>
</g>
</g>
<!-- Node36 -->
<g id="Node000036" class="node">
<title>Node36</title>
<g id="a_Node000036"><a xlink:href="../../da/d7f/index__set__hashtable_8cpp.html" target="_top" xlink:title="index_set_hashtable.hpp implementation">
<polygon fill="white" stroke="#666666" points="2004.75,-286 1848.5,-286 1848.5,-266 2004.75,-266 2004.75,-286"/>
<text text-anchor="middle" x="1926.62" y="-272.5" font-family="Helvetica,sans-Serif" font-size="10.00">source/index_set_hashtable.cpp</text>
</a>
</g>
</g>
<!-- Node35&#45;&gt;Node36 -->
<g id="edge48_Node000035_Node000036" class="edge">
<title>Node35&#45;&gt;Node36</title>
<g id="a_edge48_Node000035_Node000036"><a xlink:title=" ">
<path fill="none" stroke="#63b8ff" d="M1845.41,-327.57C1865.87,-314.83 1894.24,-297.16 1911.47,-286.44"/>
<polygon fill="#63b8ff" stroke="#63b8ff" points="1843.74,-324.49 1837.1,-332.74 1847.44,-330.43 1843.74,-324.49"/>
</a>
</g>
</g>
<!-- Node37&#45;&gt;Node23 -->
<g id="edge50_Node000037_Node000023" class="edge">
<title>Node37&#45;&gt;Node23</title>
<g id="a_edge50_Node000037_Node000023"><a xlink:title=" ">
<path fill="none" stroke="#63b8ff" d="M2031.15,-322.23C2029.17,-304.69 2024.52,-279.41 2013.62,-260 1985.82,-210.46 1931.1,-168.29 1905.47,-150.31"/>
<polygon fill="#63b8ff" stroke="#63b8ff" points="2027.67,-322.52 2032.06,-332.16 2034.64,-321.89 2027.67,-322.52"/>
</a>
</g>
</g>
<!-- Node38 -->
<g id="Node000038" class="node">
<title>Node38</title>
<g id="a_Node000038"><a xlink:href="../../d4/d0c/source_2index__set__sortedvector_8cpp.html" target="_top" xlink:title="Index_set implemented via sorted vector.">
<polygon fill="white" stroke="#666666" points="2227,-286 2060.25,-286 2060.25,-266 2227,-266 2227,-286"/>
<text text-anchor="middle" x="2143.62" y="-272.5" font-family="Helvetica,sans-Serif" font-size="10.00">source/index_set_sortedvector.cpp</text>
</a>
</g>
</g>
<!-- Node37&#45;&gt;Node38 -->
<g id="edge51_Node000037_Node000038" class="edge">
<title>Node37&#45;&gt;Node38</title>
<g id="a_edge51_Node000037_Node000038"><a xlink:title=" ">
<path fill="none" stroke="#63b8ff" d="M2058.29,-327.74C2079.73,-314.99 2109.63,-297.21 2127.75,-286.44"/>
<polygon fill="#63b8ff" stroke="#63b8ff" points="2056.64,-324.65 2049.83,-332.77 2060.21,-330.67 2056.64,-324.65"/>
</a>
</g>
</g>
</g>
</svg>
