<?xml version="1.0" encoding="UTF-8" standalone="no"?>
<!DOCTYPE svg PUBLIC "-//W3C//DTD SVG 1.1//EN"
 "http://www.w3.org/Graphics/SVG/1.1/DTD/svg11.dtd">
<!-- Generated by graphviz version 9.0.0 (20230911.1827)
 -->
<!-- Title: ogxx::Index_set_hashtable Pages: 1 -->
<svg width="304pt" height="165pt"
 viewBox="0.00 0.00 303.50 165.00" xmlns="http://www.w3.org/2000/svg" xmlns:xlink="http://www.w3.org/1999/xlink">
<g id="graph0" class="graph" transform="scale(1 1) rotate(0) translate(4 161)">
<title>ogxx::Index_set_hashtable</title>
<!-- Node1 -->
<g id="Node000001" class="node">
<title>Node1</title>
<g id="a_Node000001"><a xlink:title=" ">
<polygon fill="#999999" stroke="#666666" points="194.12,-20 61.88,-20 61.88,0 194.12,0 194.12,-20"/>
<text text-anchor="middle" x="128" y="-6.5" font-family="Helvetica,sans-Serif" font-size="10.00">ogxx::Index_set_hashtable</text>
</a>
</g>
</g>
<!-- Node2 -->
<g id="Node000002" class="node">
<title>Node2</title>
<g id="a_Node000002"><a xlink:href="../../d3/da1/classogxx_1_1_st__set.html" target="_top" xlink:title="Possibly non&#45;iterable set of simple type items.">
<polygon fill="white" stroke="#666666" points="58,-94 0,-94 0,-74 58,-74 58,-94"/>
<text text-anchor="middle" x="29" y="-80.5" font-family="Helvetica,sans-Serif" font-size="10.00">Index_set</text>
</a>
</g>
</g>
<!-- Node2&#45;&gt;Node1 -->
<g id="edge1_Node000001_Node000002" class="edge">
<title>Node2&#45;&gt;Node1</title>
<g id="a_edge1_Node000001_Node000002"><a xlink:title=" ">
<path fill="none" stroke="#63b8ff" d="M51.09,-66.94C70.74,-52.64 98.82,-32.22 115.05,-20.42"/>
<polygon fill="#63b8ff" stroke="#63b8ff" points="49.2,-63.98 43.17,-72.7 53.31,-69.65 49.2,-63.98"/>
</a>
</g>
</g>
<!-- Node3 -->
<g id="Node000003" class="node">
<title>Node3</title>
<g id="a_Node000003"><a xlink:href="../../d9/d72/classogxx_1_1_sized__iterable.html" target="_top" xlink:title=" ">
<polygon fill="white" stroke="#666666" points="180.25,-100 75.75,-100 75.75,-68 180.25,-68 180.25,-100"/>
<text text-anchor="start" x="83.75" y="-86.5" font-family="Helvetica,sans-Serif" font-size="10.00">ogxx::Sized_iterable</text>
<text text-anchor="middle" x="128" y="-74.5" font-family="Helvetica,sans-Serif" font-size="10.00">&lt; Scalar_index &gt;</text>
</a>
</g>
</g>
<!-- Node3&#45;&gt;Node1 -->
<g id="edge2_Node000001_Node000003" class="edge">
<title>Node3&#45;&gt;Node1</title>
<g id="a_edge2_Node000001_Node000003"><a xlink:title=" ">
<path fill="none" stroke="#63b8ff" d="M128,-56.34C128,-43.7 128,-29.41 128,-20.31"/>
<polygon fill="#63b8ff" stroke="#63b8ff" points="124.5,-56.22 128,-66.22 131.5,-56.22 124.5,-56.22"/>
</a>
</g>
</g>
<!-- Node4 -->
<g id="Node000004" class="node">
<title>Node4</title>
<g id="a_Node000004"><a xlink:href="../../d8/d9b/classogxx_1_1_iterable.html" target="_top" xlink:title="An interface for an object that can be iterated with an iterator.">
<polygon fill="white" stroke="#666666" points="183.62,-157 72.38,-157 72.38,-137 183.62,-137 183.62,-157"/>
<text text-anchor="middle" x="128" y="-143.5" font-family="Helvetica,sans-Serif" font-size="10.00">ogxx::Iterable&lt; Item &gt;</text>
</a>
</g>
</g>
<!-- Node4&#45;&gt;Node3 -->
<g id="edge3_Node000003_Node000004" class="edge">
<title>Node4&#45;&gt;Node3</title>
<g id="a_edge3_Node000003_Node000004"><a xlink:title=" ">
<path fill="none" stroke="#63b8ff" d="M128,-125.36C128,-117.07 128,-107.69 128,-100.06"/>
<polygon fill="#63b8ff" stroke="#63b8ff" points="124.5,-125.22 128,-135.22 131.5,-125.22 124.5,-125.22"/>
</a>
</g>
</g>
<!-- Node5 -->
<g id="Node000005" class="node">
<title>Node5</title>
<g id="a_Node000005"><a xlink:title=" ">
<polygon fill="white" stroke="#666666" points="295.5,-100 198.5,-100 198.5,-68 295.5,-68 295.5,-100"/>
<text text-anchor="start" x="206.5" y="-86.5" font-family="Helvetica,sans-Serif" font-size="10.00">std::unordered_set</text>
<text text-anchor="middle" x="247" y="-74.5" font-family="Helvetica,sans-Serif" font-size="10.00">&lt; Scalar_index &gt;</text>
</a>
</g>
</g>
<!-- Node5&#45;&gt;Node1 -->
<g id="edge4_Node000001_Node000005" class="edge">
<title>Node5&#45;&gt;Node1</title>
<g id="a_edge4_Node000001_Node000005"><a xlink:title=" ">
<path fill="none" stroke="#9a32cd" stroke-dasharray="5,2" d="M211.85,-61.73C189.22,-48.04 160.91,-30.91 143.65,-20.47"/>
<polygon fill="#9a32cd" stroke="#9a32cd" points="209.81,-64.59 220.18,-66.77 213.43,-58.6 209.81,-64.59"/>
</a>
</g>
<text text-anchor="middle" x="213.88" y="-40.5" font-family="Helvetica,sans-Serif" font-size="10.00" fill="grey"> unord_set</text>
</g>
</g>
</svg>
