<?xml version="1.0" encoding="UTF-8" standalone="no"?>
<!DOCTYPE svg PUBLIC "-//W3C//DTD SVG 1.1//EN"
 "http://www.w3.org/Graphics/SVG/1.1/DTD/svg11.dtd">
<!-- Generated by graphviz version 9.0.0 (20230911.1827)
 -->
<!-- Title: ogxx::Symmetric_dense_bit_matrix Pages: 1 -->
<svg width="352pt" height="234pt"
 viewBox="0.00 0.00 351.88 234.00" xmlns="http://www.w3.org/2000/svg" xmlns:xlink="http://www.w3.org/1999/xlink">
<g id="graph0" class="graph" transform="scale(1 1) rotate(0) translate(4 230)">
<title>ogxx::Symmetric_dense_bit_matrix</title>
<!-- Node1 -->
<g id="Node000001" class="node">
<title>Node1</title>
<g id="a_Node000001"><a xlink:title="Symmetric dense bit matrix stores only one half without the main diagonal.">
<polygon fill="#999999" stroke="#666666" points="178,-32 56.25,-32 56.25,0 178,0 178,-32"/>
<text text-anchor="start" x="64.25" y="-18.5" font-family="Helvetica,sans-Serif" font-size="10.00">ogxx::Symmetric_dense</text>
<text text-anchor="middle" x="117.12" y="-6.5" font-family="Helvetica,sans-Serif" font-size="10.00">_bit_matrix</text>
</a>
</g>
</g>
<!-- Node2 -->
<g id="Node000002" class="node">
<title>Node2</title>
<g id="a_Node000002"><a xlink:href="../../d4/def/classogxx_1_1_bit__matrix.html" target="_top" xlink:title="Bit matrix interface. Iterating the matrix means going through all its elements in row&#45;major order.">
<polygon fill="white" stroke="#666666" points="103.75,-100 16.5,-100 16.5,-80 103.75,-80 103.75,-100"/>
<text text-anchor="middle" x="60.12" y="-86.5" font-family="Helvetica,sans-Serif" font-size="10.00">ogxx::Bit_matrix</text>
</a>
</g>
</g>
<!-- Node2&#45;&gt;Node1 -->
<g id="edge1_Node000001_Node000002" class="edge">
<title>Node2&#45;&gt;Node1</title>
<g id="a_edge1_Node000001_Node000002"><a xlink:title=" ">
<path fill="none" stroke="#63b8ff" d="M68.95,-70.27C77.16,-58.51 89.12,-43.55 99.22,-32.47"/>
<polygon fill="#63b8ff" stroke="#63b8ff" points="66.23,-68.04 63.67,-78.32 72.08,-71.87 66.23,-68.04"/>
</a>
</g>
</g>
<!-- Node2&#45;&gt;Node1 -->
<g id="edge5_Node000001_Node000002" class="edge">
<title>Node2&#45;&gt;Node1</title>
<g id="a_edge5_Node000001_Node000002"><a xlink:title=" ">
<path fill="none" stroke="#63b8ff" d="M80.02,-71.33C90.65,-59.43 102.87,-43.88 110.54,-32.47"/>
<polygon fill="#63b8ff" stroke="#63b8ff" points="77.61,-68.78 73.34,-78.48 82.72,-73.56 77.61,-68.78"/>
</a>
</g>
</g>
<!-- Node3 -->
<g id="Node000003" class="node">
<title>Node3</title>
<g id="a_Node000003"><a xlink:href="../../d0/d06/classogxx_1_1_matrix__base.html" target="_top" xlink:title="Common matrix function independent of matrix item type.">
<polygon fill="white" stroke="#666666" points="96.25,-163 0,-163 0,-143 96.25,-143 96.25,-163"/>
<text text-anchor="middle" x="48.12" y="-149.5" font-family="Helvetica,sans-Serif" font-size="10.00">ogxx::Matrix_base</text>
</a>
</g>
</g>
<!-- Node3&#45;&gt;Node2 -->
<g id="edge2_Node000002_Node000003" class="edge">
<title>Node3&#45;&gt;Node2</title>
<g id="a_edge2_Node000002_Node000003"><a xlink:title=" ">
<path fill="none" stroke="#63b8ff" d="M52.15,-131.53C54.23,-120.98 56.66,-108.62 58.29,-100.35"/>
<polygon fill="#63b8ff" stroke="#63b8ff" points="48.74,-130.76 50.24,-141.25 55.6,-132.11 48.74,-130.76"/>
</a>
</g>
</g>
<!-- Node4 -->
<g id="Node000004" class="node">
<title>Node4</title>
<g id="a_Node000004"><a xlink:href="../../d9/d72/classogxx_1_1_sized__iterable.html" target="_top" xlink:title=" ">
<polygon fill="white" stroke="#666666" points="218.38,-169 113.88,-169 113.88,-137 218.38,-137 218.38,-169"/>
<text text-anchor="start" x="121.88" y="-155.5" font-family="Helvetica,sans-Serif" font-size="10.00">ogxx::Sized_iterable</text>
<text text-anchor="middle" x="166.12" y="-143.5" font-family="Helvetica,sans-Serif" font-size="10.00">&lt; bool &gt;</text>
</a>
</g>
</g>
<!-- Node4&#45;&gt;Node2 -->
<g id="edge3_Node000002_Node000004" class="edge">
<title>Node4&#45;&gt;Node2</title>
<g id="a_edge3_Node000002_Node000004"><a xlink:title=" ">
<path fill="none" stroke="#63b8ff" d="M129.45,-130.9C111.46,-120.54 90.69,-108.59 76.61,-100.49"/>
<polygon fill="#63b8ff" stroke="#63b8ff" points="127.65,-133.9 138.06,-135.85 131.14,-127.83 127.65,-133.9"/>
</a>
</g>
</g>
<!-- Node5 -->
<g id="Node000005" class="node">
<title>Node5</title>
<g id="a_Node000005"><a xlink:href="../../d8/d9b/classogxx_1_1_iterable.html" target="_top" xlink:title="An interface for an object that can be iterated with an iterator.">
<polygon fill="white" stroke="#666666" points="221.75,-226 110.5,-226 110.5,-206 221.75,-206 221.75,-226"/>
<text text-anchor="middle" x="166.12" y="-212.5" font-family="Helvetica,sans-Serif" font-size="10.00">ogxx::Iterable&lt; Item &gt;</text>
</a>
</g>
</g>
<!-- Node5&#45;&gt;Node4 -->
<g id="edge4_Node000004_Node000005" class="edge">
<title>Node5&#45;&gt;Node4</title>
<g id="a_edge4_Node000004_Node000005"><a xlink:title=" ">
<path fill="none" stroke="#63b8ff" d="M166.12,-194.36C166.12,-186.07 166.12,-176.69 166.12,-169.06"/>
<polygon fill="#63b8ff" stroke="#63b8ff" points="162.63,-194.22 166.13,-204.22 169.63,-194.22 162.63,-194.22"/>
</a>
</g>
</g>
<!-- Node6 -->
<g id="Node000006" class="node">
<title>Node6</title>
<g id="a_Node000006"><a xlink:title=" ">
<polygon fill="white" stroke="#666666" points="224.25,-100 122,-100 122,-80 224.25,-80 224.25,-100"/>
<text text-anchor="middle" x="173.12" y="-86.5" font-family="Helvetica,sans-Serif" font-size="10.00">std::vector&lt; Word &gt;</text>
</a>
</g>
</g>
<!-- Node6&#45;&gt;Node1 -->
<g id="edge6_Node000001_Node000006" class="edge">
<title>Node6&#45;&gt;Node1</title>
<g id="a_edge6_Node000001_Node000006"><a xlink:title=" ">
<path fill="none" stroke="#9a32cd" stroke-dasharray="5,2" d="M158.83,-70.62C149.65,-58.82 137.86,-43.66 129.16,-32.47"/>
<polygon fill="#9a32cd" stroke="#9a32cd" points="155.97,-72.65 164.87,-78.39 161.5,-68.35 155.97,-72.65"/>
</a>
</g>
<text text-anchor="middle" x="177.25" y="-52.5" font-family="Helvetica,sans-Serif" font-size="10.00" fill="grey"> bit_contain</text>
</g>
<!-- Node7 -->
<g id="Node000007" class="node">
<title>Node7</title>
<g id="a_Node000007"><a xlink:href="../../d3/d28/structogxx_1_1_matrix__shape.html" target="_top" xlink:title="Matrix shape description (just two sizes).">
<polygon fill="white" stroke="#666666" points="343.88,-100 242.38,-100 242.38,-80 343.88,-80 343.88,-100"/>
<text text-anchor="middle" x="293.12" y="-86.5" font-family="Helvetica,sans-Serif" font-size="10.00">ogxx::Matrix_shape</text>
</a>
</g>
</g>
<!-- Node7&#45;&gt;Node1 -->
<g id="edge7_Node000001_Node000007" class="edge">
<title>Node7&#45;&gt;Node1</title>
<g id="a_edge7_Node000001_Node000007"><a xlink:title=" ">
<path fill="none" stroke="#9a32cd" stroke-dasharray="5,2" d="M263.01,-74.91C246.36,-67.27 225.23,-57.81 206.12,-50 191.33,-43.95 174.97,-37.75 160.35,-32.37"/>
<polygon fill="#9a32cd" stroke="#9a32cd" points="261.33,-77.99 271.87,-79 264.26,-71.63 261.33,-77.99"/>
</a>
</g>
<text text-anchor="middle" x="249.38" y="-52.5" font-family="Helvetica,sans-Serif" font-size="10.00" fill="grey"> _shape</text>
</g>
</g>
</svg>
