<?xml version="1.0" encoding="UTF-8" standalone="no"?>
<!DOCTYPE svg PUBLIC "-//W3C//DTD SVG 1.1//EN"
 "http://www.w3.org/Graphics/SVG/1.1/DTD/svg11.dtd">
<!-- Generated by graphviz version 9.0.0 (20230911.1827)
 -->
<!-- Title: source/index_set_bitvector.cpp Pages: 1 -->
<svg width="561pt" height="308pt"
 viewBox="0.00 0.00 560.62 308.00" xmlns="http://www.w3.org/2000/svg" xmlns:xlink="http://www.w3.org/1999/xlink">
<g id="graph0" class="graph" transform="scale(1 1) rotate(0) translate(4 304)">
<title>source/index_set_bitvector.cpp</title>
<!-- Node1 -->
<g id="Node000001" class="node">
<title>Node1</title>
<g id="a_Node000001"><a xlink:title="Defining interfaces for bitvector.">
<polygon fill="#999999" stroke="#666666" points="543.88,-300 393.62,-300 393.62,-280 543.88,-280 543.88,-300"/>
<text text-anchor="middle" x="468.75" y="-286.5" font-family="Helvetica,sans-Serif" font-size="10.00">source/index_set_bitvector.cpp</text>
</a>
</g>
</g>
<!-- Node2 -->
<g id="Node000002" class="node">
<title>Node2</title>
<g id="a_Node000002"><a xlink:href="../../d7/d92/index__set__bitvector_8hpp.html" target="_top" xlink:title="Index_set implemented via bit vector.">
<polygon fill="white" stroke="#666666" points="417.75,-244 299.75,-244 299.75,-224 417.75,-224 417.75,-244"/>
<text text-anchor="middle" x="358.75" y="-230.5" font-family="Helvetica,sans-Serif" font-size="10.00">index_set_bitvector.hpp</text>
</a>
</g>
</g>
<!-- Node1&#45;&gt;Node2 -->
<g id="edge1_Node000001_Node000002" class="edge">
<title>Node1&#45;&gt;Node2</title>
<g id="a_edge1_Node000001_Node000002"><a xlink:title=" ">
<path fill="none" stroke="#63b8ff" d="M449.59,-279.59C432.66,-271.28 407.7,-259.03 388.23,-249.47"/>
<polygon fill="#63b8ff" stroke="#63b8ff" points="389.94,-246.41 379.42,-245.15 386.85,-252.7 389.94,-246.41"/>
</a>
</g>
</g>
<!-- Node12 -->
<g id="Node000012" class="node">
<title>Node12</title>
<g id="a_Node000012"><a xlink:title=" ">
<polygon fill="#e0e0e0" stroke="#999999" points="498.12,-20 439.38,-20 439.38,0 498.12,0 498.12,-20"/>
<text text-anchor="middle" x="468.75" y="-6.5" font-family="Helvetica,sans-Serif" font-size="10.00">stdexcept</text>
</a>
</g>
</g>
<!-- Node1&#45;&gt;Node12 -->
<g id="edge18_Node000001_Node000012" class="edge">
<title>Node1&#45;&gt;Node12</title>
<g id="a_edge18_Node000001_Node000012"><a xlink:title=" ">
<path fill="none" stroke="#63b8ff" d="M468.75,-279.58C468.75,-260.57 468.75,-216.24 468.75,-179 468.75,-179 468.75,-179 468.75,-121 468.75,-89.87 468.75,-53.78 468.75,-31.68"/>
<polygon fill="#63b8ff" stroke="#63b8ff" points="472.25,-31.93 468.75,-21.93 465.25,-31.93 472.25,-31.93"/>
</a>
</g>
</g>
<!-- Node16 -->
<g id="Node000016" class="node">
<title>Node16</title>
<g id="a_Node000016"><a xlink:title=" ">
<polygon fill="#e0e0e0" stroke="#999999" points="552.62,-244 496.88,-244 496.88,-224 552.62,-224 552.62,-244"/>
<text text-anchor="middle" x="524.75" y="-230.5" font-family="Helvetica,sans-Serif" font-size="10.00">algorithm</text>
</a>
</g>
</g>
<!-- Node1&#45;&gt;Node16 -->
<g id="edge19_Node000001_Node000016" class="edge">
<title>Node1&#45;&gt;Node16</title>
<g id="a_edge19_Node000001_Node000016"><a xlink:title=" ">
<path fill="none" stroke="#63b8ff" d="M478.5,-279.59C486.37,-272.01 497.65,-261.13 507.1,-252.02"/>
<polygon fill="#63b8ff" stroke="#63b8ff" points="509.25,-254.81 514.02,-245.35 504.39,-249.77 509.25,-254.81"/>
</a>
</g>
</g>
<!-- Node3 -->
<g id="Node000003" class="node">
<title>Node3</title>
<g id="a_Node000003"><a xlink:href="../../d7/dbf/st__set_8hpp.html" target="_top" xlink:title="Simple type set interface. Set may be ordered or unordered.">
<polygon fill="white" stroke="#666666" points="272.62,-188 186.88,-188 186.88,-168 272.62,-168 272.62,-188"/>
<text text-anchor="middle" x="229.75" y="-174.5" font-family="Helvetica,sans-Serif" font-size="10.00">ogxx/st_set.hpp</text>
</a>
</g>
</g>
<!-- Node2&#45;&gt;Node3 -->
<g id="edge2_Node000002_Node000003" class="edge">
<title>Node2&#45;&gt;Node3</title>
<g id="a_edge2_Node000002_Node000003"><a xlink:title=" ">
<path fill="none" stroke="#63b8ff" d="M336.28,-223.59C315.96,-215.09 285.8,-202.46 262.74,-192.81"/>
<polygon fill="#63b8ff" stroke="#63b8ff" points="264.37,-189.7 253.79,-189.06 261.66,-196.15 264.37,-189.7"/>
</a>
</g>
</g>
<!-- Node14 -->
<g id="Node000014" class="node">
<title>Node14</title>
<g id="a_Node000014"><a xlink:href="../../db/d3e/iterable_8hpp.html" target="_top" xlink:title="Iterable interfaces.">
<polygon fill="white" stroke="#666666" points="380.88,-188 290.62,-188 290.62,-168 380.88,-168 380.88,-188"/>
<text text-anchor="middle" x="335.75" y="-174.5" font-family="Helvetica,sans-Serif" font-size="10.00">ogxx/iterable.hpp</text>
</a>
</g>
</g>
<!-- Node2&#45;&gt;Node14 -->
<g id="edge14_Node000002_Node000014" class="edge">
<title>Node2&#45;&gt;Node14</title>
<g id="a_edge14_Node000002_Node000014"><a xlink:title=" ">
<path fill="none" stroke="#63b8ff" d="M354.74,-223.59C351.84,-216.78 347.81,-207.32 344.21,-198.86"/>
<polygon fill="#63b8ff" stroke="#63b8ff" points="347.44,-197.52 340.3,-189.69 341,-200.26 347.44,-197.52"/>
</a>
</g>
</g>
<!-- Node15 -->
<g id="Node000015" class="node">
<title>Node15</title>
<g id="a_Node000015"><a xlink:title=" ">
<polygon fill="#e0e0e0" stroke="#999999" points="440.5,-188 399,-188 399,-168 440.5,-168 440.5,-188"/>
<text text-anchor="middle" x="419.75" y="-174.5" font-family="Helvetica,sans-Serif" font-size="10.00">vector</text>
</a>
</g>
</g>
<!-- Node2&#45;&gt;Node15 -->
<g id="edge17_Node000002_Node000015" class="edge">
<title>Node2&#45;&gt;Node15</title>
<g id="a_edge17_Node000002_Node000015"><a xlink:title=" ">
<path fill="none" stroke="#63b8ff" d="M369.38,-223.59C378.03,-215.93 390.48,-204.91 400.83,-195.75"/>
<polygon fill="#63b8ff" stroke="#63b8ff" points="402.95,-198.55 408.11,-189.3 398.31,-193.31 402.95,-198.55"/>
</a>
</g>
</g>
<!-- Node4 -->
<g id="Node000004" class="node">
<title>Node4</title>
<g id="a_Node000004"><a xlink:href="../../de/d2f/primitive__definitions_8hpp.html" target="_top" xlink:title="Primitive type declarations like scalar indices and so on.">
<polygon fill="white" stroke="#666666" points="335.12,-76 192.38,-76 192.38,-56 335.12,-56 335.12,-76"/>
<text text-anchor="middle" x="263.75" y="-62.5" font-family="Helvetica,sans-Serif" font-size="10.00">ogxx/primitive_definitions.hpp</text>
</a>
</g>
</g>
<!-- Node3&#45;&gt;Node4 -->
<g id="edge3_Node000003_Node000004" class="edge">
<title>Node3&#45;&gt;Node4</title>
<g id="a_edge3_Node000003_Node000004"><a xlink:title=" ">
<path fill="none" stroke="#63b8ff" d="M223.09,-167.86C214.58,-155 201.96,-130.99 210.75,-112 216.24,-100.13 226.58,-90.24 236.68,-82.79"/>
<polygon fill="#63b8ff" stroke="#63b8ff" points="238.55,-85.76 244.87,-77.25 234.63,-79.96 238.55,-85.76"/>
</a>
</g>
</g>
<!-- Node13 -->
<g id="Node000013" class="node">
<title>Node13</title>
<g id="a_Node000013"><a xlink:href="../../d9/dde/iterator_8hpp.html" target="_top" xlink:title="Linear sequence iterator interfaces.">
<polygon fill="white" stroke="#666666" points="308.12,-132 219.38,-132 219.38,-112 308.12,-112 308.12,-132"/>
<text text-anchor="middle" x="263.75" y="-118.5" font-family="Helvetica,sans-Serif" font-size="10.00">ogxx/iterator.hpp</text>
</a>
</g>
</g>
<!-- Node3&#45;&gt;Node13 -->
<g id="edge12_Node000003_Node000013" class="edge">
<title>Node3&#45;&gt;Node13</title>
<g id="a_edge12_Node000003_Node000013"><a xlink:title=" ">
<path fill="none" stroke="#63b8ff" d="M235.67,-167.59C240.11,-160.55 246.33,-150.67 251.79,-142"/>
<polygon fill="#63b8ff" stroke="#63b8ff" points="254.72,-143.91 257.09,-133.58 248.8,-140.18 254.72,-143.91"/>
</a>
</g>
</g>
<!-- Node5 -->
<g id="Node000005" class="node">
<title>Node5</title>
<g id="a_Node000005"><a xlink:title=" ">
<polygon fill="#e0e0e0" stroke="#999999" points="47.5,-20 0,-20 0,0 47.5,0 47.5,-20"/>
<text text-anchor="middle" x="23.75" y="-6.5" font-family="Helvetica,sans-Serif" font-size="10.00">cstddef</text>
</a>
</g>
</g>
<!-- Node4&#45;&gt;Node5 -->
<g id="edge4_Node000004_Node000005" class="edge">
<title>Node4&#45;&gt;Node5</title>
<g id="a_edge4_Node000004_Node000005"><a xlink:title=" ">
<path fill="none" stroke="#63b8ff" d="M216.06,-55.55C176.25,-47.46 117.78,-35.14 58.83,-20.67"/>
<polygon fill="#63b8ff" stroke="#63b8ff" points="59.84,-17.31 49.29,-18.3 58.15,-24.11 59.84,-17.31"/>
</a>
</g>
</g>
<!-- Node6 -->
<g id="Node000006" class="node">
<title>Node6</title>
<g id="a_Node000006"><a xlink:title=" ">
<polygon fill="#e0e0e0" stroke="#999999" points="110.38,-20 65.12,-20 65.12,0 110.38,0 110.38,-20"/>
<text text-anchor="middle" x="87.75" y="-6.5" font-family="Helvetica,sans-Serif" font-size="10.00">cstdint</text>
</a>
</g>
</g>
<!-- Node4&#45;&gt;Node6 -->
<g id="edge5_Node000004_Node000006" class="edge">
<title>Node4&#45;&gt;Node6</title>
<g id="a_edge5_Node000004_Node000006"><a xlink:title=" ">
<path fill="none" stroke="#63b8ff" d="M233.09,-55.59C201.91,-46.03 153.7,-31.23 121.46,-21.34"/>
<polygon fill="#63b8ff" stroke="#63b8ff" points="122.8,-18.09 112.22,-18.51 120.75,-24.79 122.8,-18.09"/>
</a>
</g>
</g>
<!-- Node7 -->
<g id="Node000007" class="node">
<title>Node7</title>
<g id="a_Node000007"><a xlink:title=" ">
<polygon fill="#e0e0e0" stroke="#999999" points="157.15,-20 128.35,-20 128.35,0 157.15,0 157.15,-20"/>
<text text-anchor="middle" x="142.75" y="-6.5" font-family="Helvetica,sans-Serif" font-size="10.00">bit</text>
</a>
</g>
</g>
<!-- Node4&#45;&gt;Node7 -->
<g id="edge6_Node000004_Node000007" class="edge">
<title>Node4&#45;&gt;Node7</title>
<g id="a_edge6_Node000004_Node000007"><a xlink:title=" ">
<path fill="none" stroke="#63b8ff" d="M242.67,-55.59C221.82,-46.29 189.9,-32.04 167.77,-22.17"/>
<polygon fill="#63b8ff" stroke="#63b8ff" points="169.44,-19.08 158.88,-18.2 166.58,-25.47 169.44,-19.08"/>
</a>
</g>
</g>
<!-- Node8 -->
<g id="Node000008" class="node">
<title>Node8</title>
<g id="a_Node000008"><a xlink:title=" ">
<polygon fill="#e0e0e0" stroke="#999999" points="214.38,-20 175.12,-20 175.12,0 214.38,0 214.38,-20"/>
<text text-anchor="middle" x="194.75" y="-6.5" font-family="Helvetica,sans-Serif" font-size="10.00">limits</text>
</a>
</g>
</g>
<!-- Node4&#45;&gt;Node8 -->
<g id="edge7_Node000004_Node000008" class="edge">
<title>Node4&#45;&gt;Node8</title>
<g id="a_edge7_Node000004_Node000008"><a xlink:title=" ">
<path fill="none" stroke="#63b8ff" d="M251.73,-55.59C241.74,-47.77 227.29,-36.46 215.44,-27.19"/>
<polygon fill="#63b8ff" stroke="#63b8ff" points="217.86,-24.64 207.82,-21.23 213.54,-30.15 217.86,-24.64"/>
</a>
</g>
</g>
<!-- Node9 -->
<g id="Node000009" class="node">
<title>Node9</title>
<g id="a_Node000009"><a xlink:title=" ">
<polygon fill="#e0e0e0" stroke="#999999" points="294.62,-20 232.88,-20 232.88,0 294.62,0 294.62,-20"/>
<text text-anchor="middle" x="263.75" y="-6.5" font-family="Helvetica,sans-Serif" font-size="10.00">type_traits</text>
</a>
</g>
</g>
<!-- Node4&#45;&gt;Node9 -->
<g id="edge8_Node000004_Node000009" class="edge">
<title>Node4&#45;&gt;Node9</title>
<g id="a_edge8_Node000004_Node000009"><a xlink:title=" ">
<path fill="none" stroke="#63b8ff" d="M263.75,-55.59C263.75,-49.01 263.75,-39.96 263.75,-31.73"/>
<polygon fill="#63b8ff" stroke="#63b8ff" points="267.25,-31.81 263.75,-21.81 260.25,-31.81 267.25,-31.81"/>
</a>
</g>
</g>
<!-- Node10 -->
<g id="Node000010" class="node">
<title>Node10</title>
<g id="a_Node000010"><a xlink:title=" ">
<polygon fill="#e0e0e0" stroke="#999999" points="364.38,-20 313.12,-20 313.12,0 364.38,0 364.38,-20"/>
<text text-anchor="middle" x="338.75" y="-6.5" font-family="Helvetica,sans-Serif" font-size="10.00">memory</text>
</a>
</g>
</g>
<!-- Node4&#45;&gt;Node10 -->
<g id="edge9_Node000004_Node000010" class="edge">
<title>Node4&#45;&gt;Node10</title>
<g id="a_edge9_Node000004_Node000010"><a xlink:title=" ">
<path fill="none" stroke="#63b8ff" d="M276.81,-55.59C287.72,-47.74 303.5,-36.38 316.41,-27.09"/>
<polygon fill="#63b8ff" stroke="#63b8ff" points="318.29,-30.05 324.36,-21.36 314.2,-24.37 318.29,-30.05"/>
</a>
</g>
</g>
<!-- Node11 -->
<g id="Node000011" class="node">
<title>Node11</title>
<g id="a_Node000011"><a xlink:title=" ">
<polygon fill="#e0e0e0" stroke="#999999" points="421.38,-20 382.12,-20 382.12,0 421.38,0 421.38,-20"/>
<text text-anchor="middle" x="401.75" y="-6.5" font-family="Helvetica,sans-Serif" font-size="10.00">utility</text>
</a>
</g>
</g>
<!-- Node4&#45;&gt;Node11 -->
<g id="edge10_Node000004_Node000011" class="edge">
<title>Node4&#45;&gt;Node11</title>
<g id="a_edge10_Node000004_Node000011"><a xlink:title=" ">
<path fill="none" stroke="#63b8ff" d="M287.79,-55.59C311.06,-46.49 346.43,-32.65 371.58,-22.81"/>
<polygon fill="#63b8ff" stroke="#63b8ff" points="372.56,-26.18 380.6,-19.28 370.01,-19.66 372.56,-26.18"/>
</a>
</g>
</g>
<!-- Node4&#45;&gt;Node12 -->
<g id="edge11_Node000004_Node000012" class="edge">
<title>Node4&#45;&gt;Node12</title>
<g id="a_edge11_Node000004_Node000012"><a xlink:title=" ">
<path fill="none" stroke="#63b8ff" d="M299.46,-55.59C335.32,-46.15 390.52,-31.61 428.06,-21.72"/>
<polygon fill="#63b8ff" stroke="#63b8ff" points="428.86,-25.13 437.64,-19.2 427.07,-18.36 428.86,-25.13"/>
</a>
</g>
</g>
<!-- Node13&#45;&gt;Node4 -->
<g id="edge13_Node000013_Node000004" class="edge">
<title>Node13&#45;&gt;Node4</title>
<g id="a_edge13_Node000013_Node000004"><a xlink:title=" ">
<path fill="none" stroke="#63b8ff" d="M263.75,-111.59C263.75,-105.01 263.75,-95.96 263.75,-87.73"/>
<polygon fill="#63b8ff" stroke="#63b8ff" points="267.25,-87.81 263.75,-77.81 260.25,-87.81 267.25,-87.81"/>
</a>
</g>
</g>
<!-- Node14&#45;&gt;Node4 -->
<g id="edge15_Node000014_Node000004" class="edge">
<title>Node14&#45;&gt;Node4</title>
<g id="a_edge15_Node000014_Node000004"><a xlink:title=" ">
<path fill="none" stroke="#63b8ff" d="M334.77,-167.91C332.98,-154.68 328.27,-129.75 316.75,-112 309.38,-100.64 298.3,-90.6 288.17,-82.9"/>
<polygon fill="#63b8ff" stroke="#63b8ff" points="290.3,-80.12 280.13,-77.15 286.22,-85.81 290.3,-80.12"/>
</a>
</g>
</g>
<!-- Node14&#45;&gt;Node13 -->
<g id="edge16_Node000014_Node000013" class="edge">
<title>Node14&#45;&gt;Node13</title>
<g id="a_edge16_Node000014_Node000013"><a xlink:title=" ">
<path fill="none" stroke="#63b8ff" d="M323.21,-167.59C312.78,-159.77 297.7,-148.46 285.34,-139.19"/>
<polygon fill="#63b8ff" stroke="#63b8ff" points="287.46,-136.41 277.36,-133.21 283.26,-142.01 287.46,-136.41"/>
</a>
</g>
</g>
</g>
</svg>
