<?xml version="1.0" encoding="UTF-8" standalone="no"?>
<!DOCTYPE svg PUBLIC "-//W3C//DTD SVG 1.1//EN"
 "http://www.w3.org/Graphics/SVG/1.1/DTD/svg11.dtd">
<!-- Generated by graphviz version 9.0.0 (20230911.1827)
 -->
<!-- Title: source/symmetric_dense_st_matrix.cpp Pages: 1 -->
<svg width="546pt" height="320pt"
 viewBox="0.00 0.00 546.38 320.00" xmlns="http://www.w3.org/2000/svg" xmlns:xlink="http://www.w3.org/1999/xlink">
<g id="graph0" class="graph" transform="scale(1 1) rotate(0) translate(4 316)">
<title>source/symmetric_dense_st_matrix.cpp</title>
<!-- Node1 -->
<g id="Node000001" class="node">
<title>Node1</title>
<g id="a_Node000001"><a xlink:title="Implementation of a class for compact storage of a symmetric matrix.">
<polygon fill="#999999" stroke="#666666" points="491.38,-312 365.88,-312 365.88,-280 491.38,-280 491.38,-312"/>
<text text-anchor="start" x="373.88" y="-298.5" font-family="Helvetica,sans-Serif" font-size="10.00">source/symmetric_dense</text>
<text text-anchor="middle" x="428.62" y="-286.5" font-family="Helvetica,sans-Serif" font-size="10.00">_st_matrix.cpp</text>
</a>
</g>
</g>
<!-- Node2 -->
<g id="Node000002" class="node">
<title>Node2</title>
<g id="a_Node000002"><a xlink:href="../../df/dd1/st__matrix_8hpp.html" target="_top" xlink:title="St_matrix interface, st_ stands for &quot;simple type&quot;, i.e. a thing like int or double.">
<polygon fill="white" stroke="#666666" points="318.25,-244 219,-244 219,-224 318.25,-224 318.25,-244"/>
<text text-anchor="middle" x="268.62" y="-230.5" font-family="Helvetica,sans-Serif" font-size="10.00">ogxx/st_matrix.hpp</text>
</a>
</g>
</g>
<!-- Node1&#45;&gt;Node2 -->
<g id="edge1_Node000001_Node000002" class="edge">
<title>Node1&#45;&gt;Node2</title>
<g id="a_edge1_Node000001_Node000002"><a xlink:title=" ">
<path fill="none" stroke="#63b8ff" d="M387.42,-279.55C361.73,-269.91 328.99,-257.64 304.39,-248.41"/>
<polygon fill="#63b8ff" stroke="#63b8ff" points="305.72,-245.17 295.13,-244.94 303.26,-251.73 305.72,-245.17"/>
</a>
</g>
</g>
<!-- Node12 -->
<g id="Node000012" class="node">
<title>Node12</title>
<g id="a_Node000012"><a xlink:title=" ">
<polygon fill="#e0e0e0" stroke="#999999" points="498,-20 439.25,-20 439.25,0 498,0 498,-20"/>
<text text-anchor="middle" x="468.62" y="-6.5" font-family="Helvetica,sans-Serif" font-size="10.00">stdexcept</text>
</a>
</g>
</g>
<!-- Node1&#45;&gt;Node12 -->
<g id="edge22_Node000001_Node000012" class="edge">
<title>Node1&#45;&gt;Node12</title>
<g id="a_edge22_Node000001_Node000012"><a xlink:title=" ">
<path fill="none" stroke="#63b8ff" d="M437.5,-279.82C449.29,-258.19 468.62,-216.92 468.62,-179 468.62,-179 468.62,-179 468.62,-121 468.62,-89.87 468.62,-53.78 468.62,-31.68"/>
<polygon fill="#63b8ff" stroke="#63b8ff" points="472.13,-31.93 468.63,-21.93 465.13,-31.93 472.13,-31.93"/>
</a>
</g>
</g>
<!-- Node16 -->
<g id="Node000016" class="node">
<title>Node16</title>
<g id="a_Node000016"><a xlink:href="../../d4/d29/stl__iterator_8hpp.html" target="_top" xlink:title="This file defines the Stl_iterator class, which provides an iterator for standard C++ containers.">
<polygon fill="white" stroke="#666666" points="440.88,-244 336.38,-244 336.38,-224 440.88,-224 440.88,-244"/>
<text text-anchor="middle" x="388.62" y="-230.5" font-family="Helvetica,sans-Serif" font-size="10.00">ogxx/stl_iterator.hpp</text>
</a>
</g>
</g>
<!-- Node1&#45;&gt;Node16 -->
<g id="edge18_Node000001_Node000016" class="edge">
<title>Node1&#45;&gt;Node16</title>
<g id="a_edge18_Node000001_Node000016"><a xlink:title=" ">
<path fill="none" stroke="#63b8ff" d="M418.32,-279.55C413.12,-271.74 406.75,-262.19 401.25,-253.94"/>
<polygon fill="#63b8ff" stroke="#63b8ff" points="404.2,-252.05 395.74,-245.67 398.37,-255.93 404.2,-252.05"/>
</a>
</g>
</g>
<!-- Node18 -->
<g id="Node000018" class="node">
<title>Node18</title>
<g id="a_Node000018"><a xlink:title=" ">
<polygon fill="#e0e0e0" stroke="#999999" points="538.38,-244 496.88,-244 496.88,-224 538.38,-224 538.38,-244"/>
<text text-anchor="middle" x="517.62" y="-230.5" font-family="Helvetica,sans-Serif" font-size="10.00">vector</text>
</a>
</g>
</g>
<!-- Node1&#45;&gt;Node18 -->
<g id="edge21_Node000001_Node000018" class="edge">
<title>Node1&#45;&gt;Node18</title>
<g id="a_edge21_Node000001_Node000018"><a xlink:title=" ">
<path fill="none" stroke="#63b8ff" d="M451.54,-279.55C464.68,-270.69 481.12,-259.61 494.32,-250.71"/>
<polygon fill="#63b8ff" stroke="#63b8ff" points="496.08,-253.75 502.41,-245.25 492.17,-247.94 496.08,-253.75"/>
</a>
</g>
</g>
<!-- Node3 -->
<g id="Node000003" class="node">
<title>Node3</title>
<g id="a_Node000003"><a xlink:href="../../db/d3e/iterable_8hpp.html" target="_top" xlink:title="Iterable interfaces.">
<polygon fill="white" stroke="#666666" points="322.75,-188 232.5,-188 232.5,-168 322.75,-168 322.75,-188"/>
<text text-anchor="middle" x="277.62" y="-174.5" font-family="Helvetica,sans-Serif" font-size="10.00">ogxx/iterable.hpp</text>
</a>
</g>
</g>
<!-- Node2&#45;&gt;Node3 -->
<g id="edge2_Node000002_Node000003" class="edge">
<title>Node2&#45;&gt;Node3</title>
<g id="a_edge2_Node000002_Node000003"><a xlink:title=" ">
<path fill="none" stroke="#63b8ff" d="M270.19,-223.59C271.3,-216.93 272.83,-207.75 274.22,-199.44"/>
<polygon fill="#63b8ff" stroke="#63b8ff" points="277.63,-200.23 275.83,-189.79 270.73,-199.08 277.63,-200.23"/>
</a>
</g>
</g>
<!-- Node14 -->
<g id="Node000014" class="node">
<title>Node14</title>
<g id="a_Node000014"><a xlink:href="../../df/dce/matrix_8hpp.html" target="_top" xlink:title="Abstract matrix interface.">
<polygon fill="white" stroke="#666666" points="214.5,-188 128.75,-188 128.75,-168 214.5,-168 214.5,-188"/>
<text text-anchor="middle" x="171.62" y="-174.5" font-family="Helvetica,sans-Serif" font-size="10.00">ogxx/matrix.hpp</text>
</a>
</g>
</g>
<!-- Node2&#45;&gt;Node14 -->
<g id="edge14_Node000002_Node000014" class="edge">
<title>Node2&#45;&gt;Node14</title>
<g id="a_edge14_Node000002_Node000014"><a xlink:title=" ">
<path fill="none" stroke="#63b8ff" d="M251.73,-223.59C237.08,-215.44 215.6,-203.48 198.58,-194"/>
<polygon fill="#63b8ff" stroke="#63b8ff" points="200.42,-191.02 189.98,-189.22 197.01,-197.14 200.42,-191.02"/>
</a>
</g>
</g>
<!-- Node4 -->
<g id="Node000004" class="node">
<title>Node4</title>
<g id="a_Node000004"><a xlink:href="../../de/d2f/primitive__definitions_8hpp.html" target="_top" xlink:title="Primitive type declarations like scalar indices and so on.">
<polygon fill="white" stroke="#666666" points="341,-76 198.25,-76 198.25,-56 341,-56 341,-76"/>
<text text-anchor="middle" x="269.62" y="-62.5" font-family="Helvetica,sans-Serif" font-size="10.00">ogxx/primitive_definitions.hpp</text>
</a>
</g>
</g>
<!-- Node3&#45;&gt;Node4 -->
<g id="edge3_Node000003_Node000004" class="edge">
<title>Node3&#45;&gt;Node4</title>
<g id="a_edge3_Node000003_Node000004"><a xlink:title=" ">
<path fill="none" stroke="#63b8ff" d="M292.18,-167.52C308.82,-155.4 332.54,-133.42 322.62,-112 317.13,-100.13 306.79,-90.24 296.69,-82.79"/>
<polygon fill="#63b8ff" stroke="#63b8ff" points="298.75,-79.96 288.5,-77.25 294.83,-85.76 298.75,-79.96"/>
</a>
</g>
</g>
<!-- Node13 -->
<g id="Node000013" class="node">
<title>Node13</title>
<g id="a_Node000013"><a xlink:href="../../d9/dde/iterator_8hpp.html" target="_top" xlink:title="Linear sequence iterator interfaces.">
<polygon fill="white" stroke="#666666" points="314,-132 225.25,-132 225.25,-112 314,-112 314,-132"/>
<text text-anchor="middle" x="269.62" y="-118.5" font-family="Helvetica,sans-Serif" font-size="10.00">ogxx/iterator.hpp</text>
</a>
</g>
</g>
<!-- Node3&#45;&gt;Node13 -->
<g id="edge12_Node000003_Node000013" class="edge">
<title>Node3&#45;&gt;Node13</title>
<g id="a_edge12_Node000003_Node000013"><a xlink:title=" ">
<path fill="none" stroke="#63b8ff" d="M276.23,-167.59C275.24,-160.93 273.88,-151.75 272.65,-143.44"/>
<polygon fill="#63b8ff" stroke="#63b8ff" points="276.15,-143.17 271.22,-133.8 269.23,-144.2 276.15,-143.17"/>
</a>
</g>
</g>
<!-- Node5 -->
<g id="Node000005" class="node">
<title>Node5</title>
<g id="a_Node000005"><a xlink:title=" ">
<polygon fill="#e0e0e0" stroke="#999999" points="311.38,-20 263.88,-20 263.88,0 311.38,0 311.38,-20"/>
<text text-anchor="middle" x="287.62" y="-6.5" font-family="Helvetica,sans-Serif" font-size="10.00">cstddef</text>
</a>
</g>
</g>
<!-- Node4&#45;&gt;Node5 -->
<g id="edge4_Node000004_Node000005" class="edge">
<title>Node4&#45;&gt;Node5</title>
<g id="a_edge4_Node000004_Node000005"><a xlink:title=" ">
<path fill="none" stroke="#63b8ff" d="M272.76,-55.59C275.01,-48.86 278.11,-39.53 280.91,-31.15"/>
<polygon fill="#63b8ff" stroke="#63b8ff" points="284.2,-32.33 284.05,-21.73 277.56,-30.11 284.2,-32.33"/>
</a>
</g>
</g>
<!-- Node6 -->
<g id="Node000006" class="node">
<title>Node6</title>
<g id="a_Node000006"><a xlink:title=" ">
<polygon fill="#e0e0e0" stroke="#999999" points="374.25,-20 329,-20 329,0 374.25,0 374.25,-20"/>
<text text-anchor="middle" x="351.62" y="-6.5" font-family="Helvetica,sans-Serif" font-size="10.00">cstdint</text>
</a>
</g>
</g>
<!-- Node4&#45;&gt;Node6 -->
<g id="edge5_Node000004_Node000006" class="edge">
<title>Node4&#45;&gt;Node6</title>
<g id="a_edge5_Node000004_Node000006"><a xlink:title=" ">
<path fill="none" stroke="#63b8ff" d="M283.91,-55.59C296.06,-47.59 313.76,-35.93 328.02,-26.54"/>
<polygon fill="#63b8ff" stroke="#63b8ff" points="329.54,-29.73 335.97,-21.31 325.69,-23.89 329.54,-29.73"/>
</a>
</g>
</g>
<!-- Node7 -->
<g id="Node000007" class="node">
<title>Node7</title>
<g id="a_Node000007"><a xlink:title=" ">
<polygon fill="#e0e0e0" stroke="#999999" points="421.02,-20 392.23,-20 392.23,0 421.02,0 421.02,-20"/>
<text text-anchor="middle" x="406.62" y="-6.5" font-family="Helvetica,sans-Serif" font-size="10.00">bit</text>
</a>
</g>
</g>
<!-- Node4&#45;&gt;Node7 -->
<g id="edge6_Node000004_Node000007" class="edge">
<title>Node4&#45;&gt;Node7</title>
<g id="a_edge6_Node000004_Node000007"><a xlink:title=" ">
<path fill="none" stroke="#63b8ff" d="M293.49,-55.59C318.09,-45.9 356.29,-30.84 381.38,-20.95"/>
<polygon fill="#63b8ff" stroke="#63b8ff" points="382.46,-24.29 390.48,-17.36 379.9,-17.77 382.46,-24.29"/>
</a>
</g>
</g>
<!-- Node8 -->
<g id="Node000008" class="node">
<title>Node8</title>
<g id="a_Node000008"><a xlink:title=" ">
<polygon fill="#e0e0e0" stroke="#999999" points="39.25,-20 0,-20 0,0 39.25,0 39.25,-20"/>
<text text-anchor="middle" x="19.62" y="-6.5" font-family="Helvetica,sans-Serif" font-size="10.00">limits</text>
</a>
</g>
</g>
<!-- Node4&#45;&gt;Node8 -->
<g id="edge7_Node000004_Node000008" class="edge">
<title>Node4&#45;&gt;Node8</title>
<g id="a_edge7_Node000004_Node000008"><a xlink:title=" ">
<path fill="none" stroke="#63b8ff" d="M215.69,-55.58C173.28,-47.82 112.5,-35.93 50.66,-20.31"/>
<polygon fill="#63b8ff" stroke="#63b8ff" points="51.54,-16.92 40.98,-17.84 49.8,-23.71 51.54,-16.92"/>
</a>
</g>
</g>
<!-- Node9 -->
<g id="Node000009" class="node">
<title>Node9</title>
<g id="a_Node000009"><a xlink:title=" ">
<polygon fill="#e0e0e0" stroke="#999999" points="119.5,-20 57.75,-20 57.75,0 119.5,0 119.5,-20"/>
<text text-anchor="middle" x="88.62" y="-6.5" font-family="Helvetica,sans-Serif" font-size="10.00">type_traits</text>
</a>
</g>
</g>
<!-- Node4&#45;&gt;Node9 -->
<g id="edge8_Node000004_Node000009" class="edge">
<title>Node4&#45;&gt;Node9</title>
<g id="a_edge8_Node000004_Node000009"><a xlink:title=" ">
<path fill="none" stroke="#63b8ff" d="M238.1,-55.59C208.25,-46.69 163.24,-33.26 130.42,-23.47"/>
<polygon fill="#63b8ff" stroke="#63b8ff" points="131.83,-20.24 121.24,-20.73 129.82,-26.94 131.83,-20.24"/>
</a>
</g>
</g>
<!-- Node10 -->
<g id="Node000010" class="node">
<title>Node10</title>
<g id="a_Node000010"><a xlink:title=" ">
<polygon fill="#e0e0e0" stroke="#999999" points="189.25,-20 138,-20 138,0 189.25,0 189.25,-20"/>
<text text-anchor="middle" x="163.62" y="-6.5" font-family="Helvetica,sans-Serif" font-size="10.00">memory</text>
</a>
</g>
</g>
<!-- Node4&#45;&gt;Node10 -->
<g id="edge9_Node000004_Node000010" class="edge">
<title>Node4&#45;&gt;Node10</title>
<g id="a_edge9_Node000004_Node000010"><a xlink:title=" ">
<path fill="none" stroke="#63b8ff" d="M251.16,-55.59C234.92,-47.32 211.02,-35.14 192.29,-25.6"/>
<polygon fill="#63b8ff" stroke="#63b8ff" points="194.08,-22.59 183.58,-21.17 190.9,-28.82 194.08,-22.59"/>
</a>
</g>
</g>
<!-- Node11 -->
<g id="Node000011" class="node">
<title>Node11</title>
<g id="a_Node000011"><a xlink:title=" ">
<polygon fill="#e0e0e0" stroke="#999999" points="246.25,-20 207,-20 207,0 246.25,0 246.25,-20"/>
<text text-anchor="middle" x="226.62" y="-6.5" font-family="Helvetica,sans-Serif" font-size="10.00">utility</text>
</a>
</g>
</g>
<!-- Node4&#45;&gt;Node11 -->
<g id="edge10_Node000004_Node000011" class="edge">
<title>Node4&#45;&gt;Node11</title>
<g id="a_edge10_Node000004_Node000011"><a xlink:title=" ">
<path fill="none" stroke="#63b8ff" d="M262.13,-55.59C256.34,-48.32 248.14,-38.02 241.08,-29.15"/>
<polygon fill="#63b8ff" stroke="#63b8ff" points="243.94,-27.12 234.97,-21.48 238.46,-31.49 243.94,-27.12"/>
</a>
</g>
</g>
<!-- Node4&#45;&gt;Node12 -->
<g id="edge11_Node000004_Node000012" class="edge">
<title>Node4&#45;&gt;Node12</title>
<g id="a_edge11_Node000004_Node000012"><a xlink:title=" ">
<path fill="none" stroke="#63b8ff" d="M304.29,-55.59C338.8,-46.23 391.75,-31.86 428.17,-21.98"/>
<polygon fill="#63b8ff" stroke="#63b8ff" points="428.7,-25.46 437.44,-19.46 426.87,-18.7 428.7,-25.46"/>
</a>
</g>
</g>
<!-- Node13&#45;&gt;Node4 -->
<g id="edge13_Node000013_Node000004" class="edge">
<title>Node13&#45;&gt;Node4</title>
<g id="a_edge13_Node000013_Node000004"><a xlink:title=" ">
<path fill="none" stroke="#63b8ff" d="M269.62,-111.59C269.62,-105.01 269.62,-95.96 269.62,-87.73"/>
<polygon fill="#63b8ff" stroke="#63b8ff" points="273.13,-87.81 269.63,-77.81 266.13,-87.81 273.13,-87.81"/>
</a>
</g>
</g>
<!-- Node14&#45;&gt;Node4 -->
<g id="edge15_Node000014_Node000004" class="edge">
<title>Node14&#45;&gt;Node4</title>
<g id="a_edge15_Node000014_Node000004"><a xlink:title=" ">
<path fill="none" stroke="#63b8ff" d="M162.15,-167.53C150.06,-154.27 132.12,-129.8 144.62,-112 155.22,-96.92 171.39,-86.87 188.61,-80.18"/>
<polygon fill="#63b8ff" stroke="#63b8ff" points="189.69,-83.51 197.99,-76.93 187.4,-76.89 189.69,-83.51"/>
</a>
</g>
</g>
<!-- Node14&#45;&gt;Node13 -->
<g id="edge16_Node000014_Node000013" class="edge">
<title>Node14&#45;&gt;Node13</title>
<g id="a_edge16_Node000014_Node000013"><a xlink:title=" ">
<path fill="none" stroke="#63b8ff" d="M188.7,-167.59C203.5,-159.44 225.19,-147.48 242.39,-138"/>
<polygon fill="#63b8ff" stroke="#63b8ff" points="244.03,-141.1 251.1,-133.21 240.65,-134.97 244.03,-141.1"/>
</a>
</g>
</g>
<!-- Node15 -->
<g id="Node000015" class="node">
<title>Node15</title>
<g id="a_Node000015"><a xlink:title=" ">
<polygon fill="#e0e0e0" stroke="#999999" points="207.38,-132 153.88,-132 153.88,-112 207.38,-112 207.38,-132"/>
<text text-anchor="middle" x="180.62" y="-118.5" font-family="Helvetica,sans-Serif" font-size="10.00">compare</text>
</a>
</g>
</g>
<!-- Node14&#45;&gt;Node15 -->
<g id="edge17_Node000014_Node000015" class="edge">
<title>Node14&#45;&gt;Node15</title>
<g id="a_edge17_Node000014_Node000015"><a xlink:title=" ">
<path fill="none" stroke="#63b8ff" d="M173.19,-167.59C174.3,-160.93 175.83,-151.75 177.22,-143.44"/>
<polygon fill="#63b8ff" stroke="#63b8ff" points="180.63,-144.23 178.83,-133.79 173.73,-143.08 180.63,-144.23"/>
</a>
</g>
</g>
<!-- Node16&#45;&gt;Node13 -->
<g id="edge20_Node000016_Node000013" class="edge">
<title>Node16&#45;&gt;Node13</title>
<g id="a_edge20_Node000016_Node000013"><a xlink:title=" ">
<path fill="none" stroke="#63b8ff" d="M393.22,-223.63C399.15,-210.05 407.39,-184.7 395.62,-168 379.71,-145.42 351.4,-134.11 325.64,-128.47"/>
<polygon fill="#63b8ff" stroke="#63b8ff" points="326.39,-125.05 315.91,-126.6 325.07,-131.92 326.39,-125.05"/>
</a>
</g>
</g>
<!-- Node17 -->
<g id="Node000017" class="node">
<title>Node17</title>
<g id="a_Node000017"><a xlink:title=" ">
<polygon fill="#e0e0e0" stroke="#999999" points="386.62,-188 340.62,-188 340.62,-168 386.62,-168 386.62,-188"/>
<text text-anchor="middle" x="363.62" y="-174.5" font-family="Helvetica,sans-Serif" font-size="10.00">iterator</text>
</a>
</g>
</g>
<!-- Node16&#45;&gt;Node17 -->
<g id="edge19_Node000016_Node000017" class="edge">
<title>Node16&#45;&gt;Node17</title>
<g id="a_edge19_Node000016_Node000017"><a xlink:title=" ">
<path fill="none" stroke="#63b8ff" d="M384.27,-223.59C381.08,-216.7 376.64,-207.1 372.69,-198.57"/>
<polygon fill="#63b8ff" stroke="#63b8ff" points="375.94,-197.28 368.57,-189.67 369.59,-200.22 375.94,-197.28"/>
</a>
</g>
</g>
</g>
</svg>
