<?xml version="1.0" encoding="UTF-8" standalone="no"?>
<!DOCTYPE svg PUBLIC "-//W3C//DTD SVG 1.1//EN"
 "http://www.w3.org/Graphics/SVG/1.1/DTD/svg11.dtd">
<!-- Generated by graphviz version 9.0.0 (20230911.1827)
 -->
<!-- Title: ogxx::Index_set_sortedvector Pages: 1 -->
<svg width="314pt" height="234pt"
 viewBox="0.00 0.00 313.88 234.00" xmlns="http://www.w3.org/2000/svg" xmlns:xlink="http://www.w3.org/1999/xlink">
<g id="graph0" class="graph" transform="scale(1 1) rotate(0) translate(4 230)">
<title>ogxx::Index_set_sortedvector</title>
<!-- Node1 -->
<g id="Node000001" class="node">
<title>Node1</title>
<g id="a_Node000001"><a xlink:title=" ">
<polygon fill="#999999" stroke="#666666" points="204.38,-20 61.62,-20 61.62,0 204.38,0 204.38,-20"/>
<text text-anchor="middle" x="133" y="-6.5" font-family="Helvetica,sans-Serif" font-size="10.00">ogxx::Index_set_sortedvector</text>
</a>
</g>
</g>
<!-- Node2 -->
<g id="Node000002" class="node">
<title>Node2</title>
<g id="a_Node000002"><a xlink:href="../../d3/da1/classogxx_1_1_st__set.html" target="_top" xlink:title="Possibly non&#45;iterable set of simple type items.">
<polygon fill="white" stroke="#666666" points="58,-94 0,-94 0,-74 58,-74 58,-94"/>
<text text-anchor="middle" x="29" y="-80.5" font-family="Helvetica,sans-Serif" font-size="10.00">Index_set</text>
</a>
</g>
</g>
<!-- Node2&#45;&gt;Node1 -->
<g id="edge1_Node000001_Node000002" class="edge">
<title>Node2&#45;&gt;Node1</title>
<g id="a_edge1_Node000001_Node000002"><a xlink:title=" ">
<path fill="none" stroke="#63b8ff" d="M51.92,-67.13C72.58,-52.83 102.27,-32.27 119.4,-20.42"/>
<polygon fill="#63b8ff" stroke="#63b8ff" points="50.07,-64.16 43.84,-72.73 54.05,-69.91 50.07,-64.16"/>
</a>
</g>
</g>
<!-- Node3 -->
<g id="Node000003" class="node">
<title>Node3</title>
<g id="a_Node000003"><a xlink:href="../../d2/d20/classogxx_1_1_indexed__iterable.html" target="_top" xlink:title=" ">
<polygon fill="white" stroke="#666666" points="189.75,-100 76.25,-100 76.25,-68 189.75,-68 189.75,-100"/>
<text text-anchor="start" x="84.25" y="-86.5" font-family="Helvetica,sans-Serif" font-size="10.00">ogxx::Indexed_iterable</text>
<text text-anchor="middle" x="133" y="-74.5" font-family="Helvetica,sans-Serif" font-size="10.00">&lt; Scalar_index &gt;</text>
</a>
</g>
</g>
<!-- Node3&#45;&gt;Node1 -->
<g id="edge2_Node000001_Node000003" class="edge">
<title>Node3&#45;&gt;Node1</title>
<g id="a_edge2_Node000001_Node000003"><a xlink:title=" ">
<path fill="none" stroke="#63b8ff" d="M133,-56.34C133,-43.7 133,-29.41 133,-20.31"/>
<polygon fill="#63b8ff" stroke="#63b8ff" points="129.5,-56.22 133,-66.22 136.5,-56.22 129.5,-56.22"/>
</a>
</g>
</g>
<!-- Node4 -->
<g id="Node000004" class="node">
<title>Node4</title>
<g id="a_Node000004"><a xlink:href="../../d9/d72/classogxx_1_1_sized__iterable.html" target="_top" xlink:title="Not only iterable but we know in advance, how many items it contains.">
<polygon fill="white" stroke="#666666" points="185.25,-169 80.75,-169 80.75,-137 185.25,-137 185.25,-169"/>
<text text-anchor="start" x="88.75" y="-155.5" font-family="Helvetica,sans-Serif" font-size="10.00">ogxx::Sized_iterable</text>
<text text-anchor="middle" x="133" y="-143.5" font-family="Helvetica,sans-Serif" font-size="10.00">&lt; Item &gt;</text>
</a>
</g>
</g>
<!-- Node4&#45;&gt;Node3 -->
<g id="edge3_Node000003_Node000004" class="edge">
<title>Node4&#45;&gt;Node3</title>
<g id="a_edge3_Node000003_Node000004"><a xlink:title=" ">
<path fill="none" stroke="#63b8ff" d="M133,-125.35C133,-116.78 133,-107.59 133,-100.14"/>
<polygon fill="#63b8ff" stroke="#63b8ff" points="129.5,-125.28 133,-135.28 136.5,-125.28 129.5,-125.28"/>
</a>
</g>
</g>
<!-- Node5 -->
<g id="Node000005" class="node">
<title>Node5</title>
<g id="a_Node000005"><a xlink:href="../../d8/d9b/classogxx_1_1_iterable.html" target="_top" xlink:title="An interface for an object that can be iterated with an iterator.">
<polygon fill="white" stroke="#666666" points="188.62,-226 77.38,-226 77.38,-206 188.62,-206 188.62,-226"/>
<text text-anchor="middle" x="133" y="-212.5" font-family="Helvetica,sans-Serif" font-size="10.00">ogxx::Iterable&lt; Item &gt;</text>
</a>
</g>
</g>
<!-- Node5&#45;&gt;Node4 -->
<g id="edge4_Node000004_Node000005" class="edge">
<title>Node5&#45;&gt;Node4</title>
<g id="a_edge4_Node000004_Node000005"><a xlink:title=" ">
<path fill="none" stroke="#63b8ff" d="M133,-194.36C133,-186.07 133,-176.69 133,-169.06"/>
<polygon fill="#63b8ff" stroke="#63b8ff" points="129.5,-194.22 133,-204.22 136.5,-194.22 129.5,-194.22"/>
</a>
</g>
</g>
<!-- Node6 -->
<g id="Node000006" class="node">
<title>Node6</title>
<g id="a_Node000006"><a xlink:title=" ">
<polygon fill="white" stroke="#666666" points="305.88,-100 208.12,-100 208.12,-68 305.88,-68 305.88,-100"/>
<text text-anchor="start" x="216.12" y="-86.5" font-family="Helvetica,sans-Serif" font-size="10.00">std::vector&lt; Scalar</text>
<text text-anchor="middle" x="257" y="-74.5" font-family="Helvetica,sans-Serif" font-size="10.00">_index &gt;</text>
</a>
</g>
</g>
<!-- Node6&#45;&gt;Node1 -->
<g id="edge5_Node000001_Node000006" class="edge">
<title>Node6&#45;&gt;Node1</title>
<g id="a_edge5_Node000001_Node000006"><a xlink:title=" ">
<path fill="none" stroke="#9a32cd" stroke-dasharray="5,2" d="M220.69,-61.92C197.06,-48.19 167.37,-30.96 149.31,-20.47"/>
<polygon fill="#9a32cd" stroke="#9a32cd" points="218.68,-64.8 229.09,-66.79 222.2,-58.75 218.68,-64.8"/>
</a>
</g>
<text text-anchor="middle" x="228.38" y="-40.5" font-family="Helvetica,sans-Serif" font-size="10.00" fill="grey"> sorted_vector</text>
</g>
</g>
</svg>
