<?xml version="1.0" encoding="UTF-8" standalone="no"?>
<!DOCTYPE svg PUBLIC "-//W3C//DTD SVG 1.1//EN"
 "http://www.w3.org/Graphics/SVG/1.1/DTD/svg11.dtd">
<!-- Generated by graphviz version 9.0.0 (20230911.1827)
 -->
<!-- Title: ogxx::Dense_bit_matrix Pages: 1 -->
<svg width="230pt" height="208pt"
 viewBox="0.00 0.00 229.75 208.00" xmlns="http://www.w3.org/2000/svg" xmlns:xlink="http://www.w3.org/1999/xlink">
<g id="graph0" class="graph" transform="scale(1 1) rotate(0) translate(4 204)">
<title>ogxx::Dense_bit_matrix</title>
<!-- Node1 -->
<g id="Node000001" class="node">
<title>Node1</title>
<g id="a_Node000001"><a xlink:title=" ">
<polygon fill="#999999" stroke="#666666" points="166.5,-20 47.75,-20 47.75,0 166.5,0 166.5,-20"/>
<text text-anchor="middle" x="107.12" y="-6.5" font-family="Helvetica,sans-Serif" font-size="10.00">ogxx::Dense_bit_matrix</text>
</a>
</g>
</g>
<!-- Node2 -->
<g id="Node000002" class="node">
<title>Node2</title>
<g id="a_Node000002"><a xlink:href="../../d4/def/classogxx_1_1_bit__matrix.html" target="_top" xlink:title="Bit matrix interface. Iterating the matrix means going through all its elements in row&#45;major order.">
<polygon fill="white" stroke="#666666" points="150.75,-76 63.5,-76 63.5,-56 150.75,-56 150.75,-76"/>
<text text-anchor="middle" x="107.12" y="-62.5" font-family="Helvetica,sans-Serif" font-size="10.00">ogxx::Bit_matrix</text>
</a>
</g>
</g>
<!-- Node2&#45;&gt;Node1 -->
<g id="edge1_Node000001_Node000002" class="edge">
<title>Node2&#45;&gt;Node1</title>
<g id="a_edge1_Node000001_Node000002"><a xlink:title=" ">
<path fill="none" stroke="#63b8ff" d="M100.55,-44.43C100.09,-36.11 100.54,-26.93 101.88,-20.3"/>
<polygon fill="#63b8ff" stroke="#63b8ff" points="97.04,-44.57 101.68,-54.09 103.99,-43.75 97.04,-44.57"/>
</a>
</g>
</g>
<!-- Node2&#45;&gt;Node1 -->
<g id="edge5_Node000001_Node000002" class="edge">
<title>Node2&#45;&gt;Node1</title>
<g id="a_edge5_Node000001_Node000002"><a xlink:title=" ">
<path fill="none" stroke="#63b8ff" d="M113.7,-44.43C114.16,-36.11 113.71,-26.93 112.37,-20.3"/>
<polygon fill="#63b8ff" stroke="#63b8ff" points="110.26,-43.75 112.57,-54.09 117.21,-44.57 110.26,-43.75"/>
</a>
</g>
</g>
<!-- Node3 -->
<g id="Node000003" class="node">
<title>Node3</title>
<g id="a_Node000003"><a xlink:href="../../d0/d06/classogxx_1_1_matrix__base.html" target="_top" xlink:title="Common matrix function independent of matrix item type.">
<polygon fill="white" stroke="#666666" points="96.25,-138 0,-138 0,-118 96.25,-118 96.25,-138"/>
<text text-anchor="middle" x="48.12" y="-124.5" font-family="Helvetica,sans-Serif" font-size="10.00">ogxx::Matrix_base</text>
</a>
</g>
</g>
<!-- Node3&#45;&gt;Node2 -->
<g id="edge2_Node000002_Node000003" class="edge">
<title>Node3&#45;&gt;Node2</title>
<g id="a_edge2_Node000002_Node000003"><a xlink:title=" ">
<path fill="none" stroke="#63b8ff" d="M65.26,-109.58C76.02,-98.63 89.46,-84.97 98.16,-76.11"/>
<polygon fill="#63b8ff" stroke="#63b8ff" points="62.92,-106.96 58.4,-116.55 67.91,-111.87 62.92,-106.96"/>
</a>
</g>
</g>
<!-- Node4 -->
<g id="Node000004" class="node">
<title>Node4</title>
<g id="a_Node000004"><a xlink:href="../../d9/d72/classogxx_1_1_sized__iterable.html" target="_top" xlink:title=" ">
<polygon fill="white" stroke="#666666" points="218.38,-144 113.88,-144 113.88,-112 218.38,-112 218.38,-144"/>
<text text-anchor="start" x="121.88" y="-130.5" font-family="Helvetica,sans-Serif" font-size="10.00">ogxx::Sized_iterable</text>
<text text-anchor="middle" x="166.12" y="-118.5" font-family="Helvetica,sans-Serif" font-size="10.00">&lt; bool &gt;</text>
</a>
</g>
</g>
<!-- Node4&#45;&gt;Node2 -->
<g id="edge3_Node000002_Node000004" class="edge">
<title>Node4&#45;&gt;Node2</title>
<g id="a_edge3_Node000002_Node000004"><a xlink:title=" ">
<path fill="none" stroke="#63b8ff" d="M143.07,-103.56C133.75,-94.08 123.53,-83.68 116.38,-76.41"/>
<polygon fill="#63b8ff" stroke="#63b8ff" points="140.36,-105.79 149.87,-110.47 145.35,-100.89 140.36,-105.79"/>
</a>
</g>
</g>
<!-- Node5 -->
<g id="Node000005" class="node">
<title>Node5</title>
<g id="a_Node000005"><a xlink:href="../../d8/d9b/classogxx_1_1_iterable.html" target="_top" xlink:title="An interface for an object that can be iterated with an iterator.">
<polygon fill="white" stroke="#666666" points="221.75,-200 110.5,-200 110.5,-180 221.75,-180 221.75,-200"/>
<text text-anchor="middle" x="166.12" y="-186.5" font-family="Helvetica,sans-Serif" font-size="10.00">ogxx::Iterable&lt; Item &gt;</text>
</a>
</g>
</g>
<!-- Node5&#45;&gt;Node4 -->
<g id="edge4_Node000004_Node000005" class="edge">
<title>Node5&#45;&gt;Node4</title>
<g id="a_edge4_Node000004_Node000005"><a xlink:title=" ">
<path fill="none" stroke="#63b8ff" d="M166.12,-168.31C166.12,-160.37 166.12,-151.46 166.12,-144.14"/>
<polygon fill="#63b8ff" stroke="#63b8ff" points="162.63,-168.11 166.13,-178.11 169.63,-168.11 162.63,-168.11"/>
</a>
</g>
</g>
</g>
</svg>
