<?xml version="1.0" encoding="UTF-8" standalone="no"?>
<!DOCTYPE svg PUBLIC "-//W3C//DTD SVG 1.1//EN"
 "http://www.w3.org/Graphics/SVG/1.1/DTD/svg11.dtd">
<!-- Generated by graphviz version 9.0.0 (20230911.1827)
 -->
<!-- Title: ogxx::Bit_matrix Pages: 1 -->
<svg width="266pt" height="220pt"
 viewBox="0.00 0.00 266.25 220.00" xmlns="http://www.w3.org/2000/svg" xmlns:xlink="http://www.w3.org/1999/xlink">
<g id="graph0" class="graph" transform="scale(1 1) rotate(0) translate(4 216)">
<title>ogxx::Bit_matrix</title>
<!-- Node1 -->
<g id="Node000001" class="node">
<title>Node1</title>
<g id="a_Node000001"><a xlink:title="Bit matrix interface. Iterating the matrix means going through all its elements in row&#45;major order.">
<polygon fill="#999999" stroke="#666666" points="172,-88 84.75,-88 84.75,-68 172,-68 172,-88"/>
<text text-anchor="middle" x="128.38" y="-74.5" font-family="Helvetica,sans-Serif" font-size="10.00">ogxx::Bit_matrix</text>
</a>
</g>
</g>
<!-- Node5 -->
<g id="Node000005" class="node">
<title>Node5</title>
<g id="a_Node000005"><a xlink:href="../../dc/d59/classogxx_1_1_dense__bit__matrix.html" target="_top" xlink:title=" ">
<polygon fill="white" stroke="#666666" points="118.75,-26 0,-26 0,-6 118.75,-6 118.75,-26"/>
<text text-anchor="middle" x="59.38" y="-12.5" font-family="Helvetica,sans-Serif" font-size="10.00">ogxx::Dense_bit_matrix</text>
</a>
</g>
</g>
<!-- Node1&#45;&gt;Node5 -->
<g id="edge4_Node000001_Node000005" class="edge">
<title>Node1&#45;&gt;Node5</title>
<g id="a_edge4_Node000001_Node000005"><a xlink:title=" ">
<path fill="none" stroke="#63b8ff" d="M103.76,-60.86C89.76,-49.72 73.54,-35.32 64.85,-26.11"/>
<polygon fill="#63b8ff" stroke="#63b8ff" points="101.27,-63.37 111.33,-66.7 105.55,-57.83 101.27,-63.37"/>
</a>
</g>
</g>
<!-- Node1&#45;&gt;Node5 -->
<g id="edge5_Node000001_Node000005" class="edge">
<title>Node1&#45;&gt;Node5</title>
<g id="a_edge5_Node000001_Node000005"><a xlink:title=" ">
<path fill="none" stroke="#63b8ff" d="M114.59,-59.63C103.11,-48.76 87.12,-35.18 75.13,-26.31"/>
<polygon fill="#63b8ff" stroke="#63b8ff" points="112.01,-62.01 121.58,-66.56 116.94,-57.04 112.01,-62.01"/>
</a>
</g>
</g>
<!-- Node6 -->
<g id="Node000006" class="node">
<title>Node6</title>
<g id="a_Node000006"><a xlink:href="../../d0/dec/classogxx_1_1_symmetric__dense__bit__matrix.html" target="_top" xlink:title="Symmetric dense bit matrix stores only one half without the main diagonal.">
<polygon fill="white" stroke="#666666" points="258.25,-32 136.5,-32 136.5,0 258.25,0 258.25,-32"/>
<text text-anchor="start" x="144.5" y="-18.5" font-family="Helvetica,sans-Serif" font-size="10.00">ogxx::Symmetric_dense</text>
<text text-anchor="middle" x="197.38" y="-6.5" font-family="Helvetica,sans-Serif" font-size="10.00">_bit_matrix</text>
</a>
</g>
</g>
<!-- Node1&#45;&gt;Node6 -->
<g id="edge6_Node000001_Node000006" class="edge">
<title>Node1&#45;&gt;Node6</title>
<g id="a_edge6_Node000001_Node000006"><a xlink:title=" ">
<path fill="none" stroke="#63b8ff" d="M142.08,-59.71C151.19,-51.08 163.16,-40.72 173.72,-32.37"/>
<polygon fill="#63b8ff" stroke="#63b8ff" points="139.81,-57.03 135.17,-66.56 144.73,-62.01 139.81,-57.03"/>
</a>
</g>
</g>
<!-- Node1&#45;&gt;Node6 -->
<g id="edge7_Node000001_Node000006" class="edge">
<title>Node1&#45;&gt;Node6</title>
<g id="a_edge7_Node000001_Node000006"><a xlink:title=" ">
<path fill="none" stroke="#63b8ff" d="M153.17,-60.72C164.35,-51.82 176.91,-40.86 185.92,-32.14"/>
<polygon fill="#63b8ff" stroke="#63b8ff" points="151.2,-57.82 145.42,-66.7 155.47,-63.37 151.2,-57.82"/>
</a>
</g>
</g>
<!-- Node2 -->
<g id="Node000002" class="node">
<title>Node2</title>
<g id="a_Node000002"><a xlink:href="../../d0/d06/classogxx_1_1_matrix__base.html" target="_top" xlink:title="Common matrix function independent of matrix item type.">
<polygon fill="white" stroke="#666666" points="117.5,-150 21.25,-150 21.25,-130 117.5,-130 117.5,-150"/>
<text text-anchor="middle" x="69.38" y="-136.5" font-family="Helvetica,sans-Serif" font-size="10.00">ogxx::Matrix_base</text>
</a>
</g>
</g>
<!-- Node2&#45;&gt;Node1 -->
<g id="edge1_Node000001_Node000002" class="edge">
<title>Node2&#45;&gt;Node1</title>
<g id="a_edge1_Node000001_Node000002"><a xlink:title=" ">
<path fill="none" stroke="#63b8ff" d="M86.51,-121.58C97.27,-110.63 110.71,-96.97 119.41,-88.11"/>
<polygon fill="#63b8ff" stroke="#63b8ff" points="84.17,-118.96 79.65,-128.55 89.16,-123.87 84.17,-118.96"/>
</a>
</g>
</g>
<!-- Node3 -->
<g id="Node000003" class="node">
<title>Node3</title>
<g id="a_Node000003"><a xlink:href="../../d9/d72/classogxx_1_1_sized__iterable.html" target="_top" xlink:title=" ">
<polygon fill="white" stroke="#666666" points="239.62,-156 135.12,-156 135.12,-124 239.62,-124 239.62,-156"/>
<text text-anchor="start" x="143.12" y="-142.5" font-family="Helvetica,sans-Serif" font-size="10.00">ogxx::Sized_iterable</text>
<text text-anchor="middle" x="187.38" y="-130.5" font-family="Helvetica,sans-Serif" font-size="10.00">&lt; bool &gt;</text>
</a>
</g>
</g>
<!-- Node3&#45;&gt;Node1 -->
<g id="edge2_Node000001_Node000003" class="edge">
<title>Node3&#45;&gt;Node1</title>
<g id="a_edge2_Node000001_Node000003"><a xlink:title=" ">
<path fill="none" stroke="#63b8ff" d="M164.32,-115.56C155,-106.08 144.78,-95.68 137.63,-88.41"/>
<polygon fill="#63b8ff" stroke="#63b8ff" points="161.61,-117.79 171.12,-122.47 166.6,-112.89 161.61,-117.79"/>
</a>
</g>
</g>
<!-- Node4 -->
<g id="Node000004" class="node">
<title>Node4</title>
<g id="a_Node000004"><a xlink:href="../../d8/d9b/classogxx_1_1_iterable.html" target="_top" xlink:title="An interface for an object that can be iterated with an iterator.">
<polygon fill="white" stroke="#666666" points="243,-212 131.75,-212 131.75,-192 243,-192 243,-212"/>
<text text-anchor="middle" x="187.38" y="-198.5" font-family="Helvetica,sans-Serif" font-size="10.00">ogxx::Iterable&lt; Item &gt;</text>
</a>
</g>
</g>
<!-- Node4&#45;&gt;Node3 -->
<g id="edge3_Node000003_Node000004" class="edge">
<title>Node4&#45;&gt;Node3</title>
<g id="a_edge3_Node000003_Node000004"><a xlink:title=" ">
<path fill="none" stroke="#63b8ff" d="M187.38,-180.31C187.38,-172.37 187.38,-163.46 187.38,-156.14"/>
<polygon fill="#63b8ff" stroke="#63b8ff" points="183.88,-180.11 187.38,-190.11 190.88,-180.11 183.88,-180.11"/>
</a>
</g>
</g>
</g>
</svg>
