<?xml version="1.0" encoding="UTF-8" standalone="no"?>
<!DOCTYPE svg PUBLIC "-//W3C//DTD SVG 1.1//EN"
 "http://www.w3.org/Graphics/SVG/1.1/DTD/svg11.dtd">
<!-- Generated by graphviz version 9.0.0 (20230911.1827)
 -->
<!-- Title: source/index_set_hashtable.hpp Pages: 1 -->
<svg width="370pt" height="84pt"
 viewBox="0.00 0.00 370.00 84.00" xmlns="http://www.w3.org/2000/svg" xmlns:xlink="http://www.w3.org/1999/xlink">
<g id="graph0" class="graph" transform="scale(1 1) rotate(0) translate(4 80)">
<title>source/index_set_hashtable.hpp</title>
<!-- Node1 -->
<g id="Node000001" class="node">
<title>Node1</title>
<g id="a_Node000001"><a xlink:title="This file defines Index_set and Sized_iterable implementation based upon std::unordered_set.">
<polygon fill="#999999" stroke="#666666" points="267,-76 110.75,-76 110.75,-56 267,-56 267,-76"/>
<text text-anchor="middle" x="188.88" y="-62.5" font-family="Helvetica,sans-Serif" font-size="10.00">source/index_set_hashtable.hpp</text>
</a>
</g>
</g>
<!-- Node2 -->
<g id="Node000002" class="node">
<title>Node2</title>
<g id="a_Node000002"><a xlink:href="../../d6/dda/adjacency__implementations_8cpp.html" target="_top" xlink:title="ogxx::Adjacency implementations based upon different Index_set implementations">
<polygon fill="white" stroke="#666666" points="187.75,-20 0,-20 0,0 187.75,0 187.75,-20"/>
<text text-anchor="middle" x="93.88" y="-6.5" font-family="Helvetica,sans-Serif" font-size="10.00">source/adjacency_implementations.cpp</text>
</a>
</g>
</g>
<!-- Node1&#45;&gt;Node2 -->
<g id="edge1_Node000001_Node000002" class="edge">
<title>Node1&#45;&gt;Node2</title>
<g id="a_edge1_Node000001_Node000002"><a xlink:title=" ">
<path fill="none" stroke="#63b8ff" d="M162.63,-50.08C145.98,-40.62 124.94,-28.66 110.55,-20.48"/>
<polygon fill="#63b8ff" stroke="#63b8ff" points="160.59,-52.95 171.01,-54.85 164.05,-46.86 160.59,-52.95"/>
</a>
</g>
</g>
<!-- Node3 -->
<g id="Node000003" class="node">
<title>Node3</title>
<g id="a_Node000003"><a xlink:href="../../da/d7f/index__set__hashtable_8cpp.html" target="_top" xlink:title="index_set_hashtable.hpp implementation">
<polygon fill="white" stroke="#666666" points="362,-20 205.75,-20 205.75,0 362,0 362,-20"/>
<text text-anchor="middle" x="283.88" y="-6.5" font-family="Helvetica,sans-Serif" font-size="10.00">source/index_set_hashtable.cpp</text>
</a>
</g>
</g>
<!-- Node1&#45;&gt;Node3 -->
<g id="edge2_Node000001_Node000003" class="edge">
<title>Node1&#45;&gt;Node3</title>
<g id="a_edge2_Node000001_Node000003"><a xlink:title=" ">
<path fill="none" stroke="#63b8ff" d="M215.12,-50.08C231.77,-40.62 252.81,-28.66 267.2,-20.48"/>
<polygon fill="#63b8ff" stroke="#63b8ff" points="213.7,-46.86 206.74,-54.85 217.16,-52.95 213.7,-46.86"/>
</a>
</g>
</g>
</g>
</svg>
