<?xml version="1.0" encoding="UTF-8" standalone="no"?>
<!DOCTYPE svg PUBLIC "-//W3C//DTD SVG 1.1//EN"
 "http://www.w3.org/Graphics/SVG/1.1/DTD/svg11.dtd">
<!-- Generated by graphviz version 9.0.0 (20230911.1827)
 -->
<!-- Title: include/ogxx/edge_list.hpp Pages: 1 -->
<svg width="363pt" height="96pt"
 viewBox="0.00 0.00 362.50 96.00" xmlns="http://www.w3.org/2000/svg" xmlns:xlink="http://www.w3.org/1999/xlink">
<g id="graph0" class="graph" transform="scale(1 1) rotate(0) translate(4 92)">
<title>include/ogxx/edge_list.hpp</title>
<!-- Node1 -->
<g id="Node000001" class="node">
<title>Node1</title>
<g id="a_Node000001"><a xlink:title="Graph edge list interface.">
<polygon fill="#999999" stroke="#666666" points="245.12,-88 113.62,-88 113.62,-68 245.12,-68 245.12,-88"/>
<text text-anchor="middle" x="179.38" y="-74.5" font-family="Helvetica,sans-Serif" font-size="10.00">include/ogxx/edge_list.hpp</text>
</a>
</g>
</g>
<!-- Node2 -->
<g id="Node000002" class="node">
<title>Node2</title>
<g id="a_Node000002"><a xlink:href="../../d6/d2b/edge__list__io_8hpp.html" target="_top" xlink:title="Textual input&#45;output for edge list.">
<polygon fill="white" stroke="#666666" points="112.75,-32 0,-32 0,0 112.75,0 112.75,-32"/>
<text text-anchor="start" x="8" y="-18.5" font-family="Helvetica,sans-Serif" font-size="10.00">include/ogxx/edge_list</text>
<text text-anchor="middle" x="56.38" y="-6.5" font-family="Helvetica,sans-Serif" font-size="10.00">_io.hpp</text>
</a>
</g>
</g>
<!-- Node1&#45;&gt;Node2 -->
<g id="edge1_Node000001_Node000002" class="edge">
<title>Node1&#45;&gt;Node2</title>
<g id="a_edge1_Node000001_Node000002"><a xlink:title=" ">
<path fill="none" stroke="#63b8ff" d="M149.85,-62.6C131.15,-53.47 106.97,-41.68 87.89,-32.37"/>
<polygon fill="#63b8ff" stroke="#63b8ff" points="148.27,-65.72 158.8,-66.96 151.34,-59.43 148.27,-65.72"/>
</a>
</g>
</g>
<!-- Node3 -->
<g id="Node000003" class="node">
<title>Node3</title>
<g id="a_Node000003"><a xlink:href="../../d3/dcc/graph__repr__conv_8hpp.html" target="_top" xlink:title="Graph representation conversion operations.">
<polygon fill="white" stroke="#666666" points="228.25,-32 130.5,-32 130.5,0 228.25,0 228.25,-32"/>
<text text-anchor="start" x="138.5" y="-18.5" font-family="Helvetica,sans-Serif" font-size="10.00">include/ogxx/graph</text>
<text text-anchor="middle" x="179.38" y="-6.5" font-family="Helvetica,sans-Serif" font-size="10.00">_repr_conv.hpp</text>
</a>
</g>
</g>
<!-- Node1&#45;&gt;Node3 -->
<g id="edge2_Node000001_Node000003" class="edge">
<title>Node1&#45;&gt;Node3</title>
<g id="a_edge2_Node000001_Node000003"><a xlink:title=" ">
<path fill="none" stroke="#63b8ff" d="M179.38,-56.31C179.38,-48.37 179.38,-39.46 179.38,-32.14"/>
<polygon fill="#63b8ff" stroke="#63b8ff" points="175.88,-56.11 179.38,-66.11 182.88,-56.11 175.88,-56.11"/>
</a>
</g>
</g>
<!-- Node4 -->
<g id="Node000004" class="node">
<title>Node4</title>
<g id="a_Node000004"><a xlink:href="../../d1/d63/graph__view__di__el_8cpp.html" target="_top" xlink:title="Graph view implementation for directed graph represented by an edge list.">
<polygon fill="white" stroke="#666666" points="354.5,-32 246.25,-32 246.25,0 354.5,0 354.5,-32"/>
<text text-anchor="start" x="254.25" y="-18.5" font-family="Helvetica,sans-Serif" font-size="10.00">source/graph_view_di</text>
<text text-anchor="middle" x="300.38" y="-6.5" font-family="Helvetica,sans-Serif" font-size="10.00">_el.cpp</text>
</a>
</g>
</g>
<!-- Node1&#45;&gt;Node4 -->
<g id="edge3_Node000001_Node000004" class="edge">
<title>Node1&#45;&gt;Node4</title>
<g id="a_edge3_Node000001_Node000004"><a xlink:title=" ">
<path fill="none" stroke="#63b8ff" d="M208.42,-62.6C226.82,-53.47 250.6,-41.68 269.37,-32.37"/>
<polygon fill="#63b8ff" stroke="#63b8ff" points="207.04,-59.37 199.64,-66.95 210.15,-65.65 207.04,-59.37"/>
</a>
</g>
</g>
</g>
</svg>
