<?xml version="1.0" encoding="UTF-8" standalone="no"?>
<!DOCTYPE svg PUBLIC "-//W3C//DTD SVG 1.1//EN"
 "http://www.w3.org/Graphics/SVG/1.1/DTD/svg11.dtd">
<!-- Generated by graphviz version 9.0.0 (20230911.1827)
 -->
<!-- Title: ogxx::directed::convert::Convertor Pages: 1 -->
<svg width="124pt" height="188pt"
 viewBox="0.00 0.00 123.75 188.00" xmlns="http://www.w3.org/2000/svg" xmlns:xlink="http://www.w3.org/1999/xlink">
<g id="graph0" class="graph" transform="scale(1 1) rotate(0) translate(4 184)">
<title>ogxx::directed::convert::Convertor</title>
<!-- Node1 -->
<g id="Node000001" class="node">
<title>Node1</title>
<g id="a_Node000001"><a xlink:title="A flow&#45;interface implementation, holds &quot;from&quot; adapter graph view and does &quot;to&quot; directed graph convers...">
<polygon fill="#999999" stroke="#666666" points="115,-32 0.75,-32 0.75,0 115,0 115,-32"/>
<text text-anchor="start" x="8.75" y="-18.5" font-family="Helvetica,sans-Serif" font-size="10.00">ogxx::directed::convert</text>
<text text-anchor="middle" x="57.88" y="-6.5" font-family="Helvetica,sans-Serif" font-size="10.00">::Convertor</text>
</a>
</g>
</g>
<!-- Node2 -->
<g id="Node000002" class="node">
<title>Node2</title>
<g id="a_Node000002"><a xlink:title=" ">
<polygon fill="white" stroke="#666666" points="115.75,-112 0,-112 0,-80 115.75,-80 115.75,-112"/>
<text text-anchor="start" x="8" y="-98.5" font-family="Helvetica,sans-Serif" font-size="10.00">std::unique_ptr&lt; Graph</text>
<text text-anchor="middle" x="57.88" y="-86.5" font-family="Helvetica,sans-Serif" font-size="10.00">_view const &gt;</text>
</a>
</g>
</g>
<!-- Node2&#45;&gt;Node1 -->
<g id="edge1_Node000001_Node000002" class="edge">
<title>Node2&#45;&gt;Node1</title>
<g id="a_edge1_Node000001_Node000002"><a xlink:title=" ">
<path fill="none" stroke="#9a32cd" stroke-dasharray="5,2" d="M57.88,-68.37C57.88,-56.37 57.88,-42.63 57.88,-32.38"/>
<polygon fill="#9a32cd" stroke="#9a32cd" points="54.38,-68.08 57.88,-78.08 61.38,-68.08 54.38,-68.08"/>
</a>
</g>
<text text-anchor="middle" x="71.38" y="-52.5" font-family="Helvetica,sans-Serif" font-size="10.00" fill="grey"> _from</text>
</g>
<!-- Node3 -->
<g id="Node000003" class="node">
<title>Node3</title>
<g id="a_Node000003"><a xlink:href="../../de/d37/classogxx_1_1_graph__view.html" target="_top" xlink:title="Generic graph interface to provide a common facade over concrete graph representations.">
<polygon fill="white" stroke="#666666" points="104.12,-180 11.62,-180 11.62,-160 104.12,-160 104.12,-180"/>
<text text-anchor="middle" x="57.88" y="-166.5" font-family="Helvetica,sans-Serif" font-size="10.00">ogxx::Graph_view</text>
</a>
</g>
</g>
<!-- Node3&#45;&gt;Node2 -->
<g id="edge2_Node000002_Node000003" class="edge">
<title>Node3&#45;&gt;Node2</title>
<g id="a_edge2_Node000002_Node000003"><a xlink:title=" ">
<path fill="none" stroke="#9a32cd" stroke-dasharray="5,2" d="M57.88,-148.1C57.88,-136.71 57.88,-122.87 57.88,-112.47"/>
<polygon fill="#9a32cd" stroke="#9a32cd" points="54.38,-148.07 57.88,-158.07 61.38,-148.07 54.38,-148.07"/>
</a>
</g>
<text text-anchor="middle" x="65" y="-132.5" font-family="Helvetica,sans-Serif" font-size="10.00" fill="grey"> ptr</text>
</g>
</g>
</svg>
