<?xml version="1.0" encoding="UTF-8" standalone="no"?>
<!DOCTYPE svg PUBLIC "-//W3C//DTD SVG 1.1//EN"
 "http://www.w3.org/Graphics/SVG/1.1/DTD/svg11.dtd">
<!-- Generated by graphviz version 9.0.0 (20230911.1827)
 -->
<!-- Title: include/ogxx/matrix.hpp Pages: 1 -->
<svg width="1368pt" height="288pt"
 viewBox="0.00 0.00 1367.75 288.00" xmlns="http://www.w3.org/2000/svg" xmlns:xlink="http://www.w3.org/1999/xlink">
<g id="graph0" class="graph" transform="scale(1 1) rotate(0) translate(4 284)">
<title>include/ogxx/matrix.hpp</title>
<!-- Node1 -->
<g id="Node000001" class="node">
<title>Node1</title>
<g id="a_Node000001"><a xlink:title="Abstract matrix interface.">
<polygon fill="#999999" stroke="#666666" points="1140,-280 1020.5,-280 1020.5,-260 1140,-260 1140,-280"/>
<text text-anchor="middle" x="1080.25" y="-266.5" font-family="Helvetica,sans-Serif" font-size="10.00">include/ogxx/matrix.hpp</text>
</a>
</g>
</g>
<!-- Node2 -->
<g id="Node000002" class="node">
<title>Node2</title>
<g id="a_Node000002"><a xlink:href="../../dc/dbd/bit__matrix_8hpp.html" target="_top" xlink:title="Bit_matrix interface.">
<polygon fill="white" stroke="#666666" points="460.88,-218 325.62,-218 325.62,-198 460.88,-198 460.88,-218"/>
<text text-anchor="middle" x="393.25" y="-204.5" font-family="Helvetica,sans-Serif" font-size="10.00">include/ogxx/bit_matrix.hpp</text>
</a>
</g>
</g>
<!-- Node1&#45;&gt;Node2 -->
<g id="edge1_Node000001_Node000002" class="edge">
<title>Node1&#45;&gt;Node2</title>
<g id="a_edge1_Node000001_Node000002"><a xlink:title=" ">
<path fill="none" stroke="#63b8ff" d="M1008.95,-262.77C875.99,-251.16 591.86,-226.35 461.36,-214.95"/>
<polygon fill="#63b8ff" stroke="#63b8ff" points="1008.41,-266.24 1018.68,-263.62 1009.02,-259.27 1008.41,-266.24"/>
</a>
</g>
</g>
<!-- Node8 -->
<g id="Node000008" class="node">
<title>Node8</title>
<g id="a_Node000008"><a xlink:href="../../df/dd1/st__matrix_8hpp.html" target="_top" xlink:title="St_matrix interface, st_ stands for &quot;simple type&quot;, i.e. a thing like int or double.">
<polygon fill="white" stroke="#666666" points="1077.75,-218 944.75,-218 944.75,-198 1077.75,-198 1077.75,-218"/>
<text text-anchor="middle" x="1011.25" y="-204.5" font-family="Helvetica,sans-Serif" font-size="10.00">include/ogxx/st_matrix.hpp</text>
</a>
</g>
</g>
<!-- Node1&#45;&gt;Node8 -->
<g id="edge7_Node000001_Node000008" class="edge">
<title>Node1&#45;&gt;Node8</title>
<g id="a_edge7_Node000001_Node000008"><a xlink:title=" ">
<path fill="none" stroke="#63b8ff" d="M1060.96,-252.22C1048.25,-241.18 1032.11,-227.14 1021.73,-218.11"/>
<polygon fill="#63b8ff" stroke="#63b8ff" points="1058.48,-254.71 1068.33,-258.63 1063.08,-249.43 1058.48,-254.71"/>
</a>
</g>
</g>
<!-- Node19 -->
<g id="Node000019" class="node">
<title>Node19</title>
<g id="a_Node000019"><a xlink:href="../../d2/d4a/matrix__read__write__sample_8cpp.html" target="_top" xlink:title="A simple console application demonstrating reading and writing matrices.">
<polygon fill="white" stroke="#666666" points="1202.62,-224 1095.88,-224 1095.88,-192 1202.62,-192 1202.62,-224"/>
<text text-anchor="start" x="1103.88" y="-210.5" font-family="Helvetica,sans-Serif" font-size="10.00">samples/matrix_read</text>
<text text-anchor="middle" x="1149.25" y="-198.5" font-family="Helvetica,sans-Serif" font-size="10.00">_write_sample.cpp</text>
</a>
</g>
</g>
<!-- Node1&#45;&gt;Node19 -->
<g id="edge19_Node000001_Node000019" class="edge">
<title>Node1&#45;&gt;Node19</title>
<g id="a_edge19_Node000001_Node000019"><a xlink:title=" ">
<path fill="none" stroke="#63b8ff" d="M1099.52,-252.24C1109.57,-243.51 1121.77,-232.9 1131.57,-224.37"/>
<polygon fill="#63b8ff" stroke="#63b8ff" points="1097.42,-249.43 1092.17,-258.63 1102.02,-254.71 1097.42,-249.43"/>
</a>
</g>
</g>
<!-- Node20 -->
<g id="Node000020" class="node">
<title>Node20</title>
<g id="a_Node000020"><a xlink:href="../../d8/d88/matrix__index__shape__window_8cpp.html" target="_top" xlink:title="Tests Matrix_index, Matrix_shape, Matrix_window structs.">
<polygon fill="white" stroke="#666666" points="1359.75,-224 1256.75,-224 1256.75,-192 1359.75,-192 1359.75,-224"/>
<text text-anchor="start" x="1264.75" y="-210.5" font-family="Helvetica,sans-Serif" font-size="10.00">tests/matrix_index</text>
<text text-anchor="middle" x="1308.25" y="-198.5" font-family="Helvetica,sans-Serif" font-size="10.00">_shape_window.cpp</text>
</a>
</g>
</g>
<!-- Node1&#45;&gt;Node20 -->
<g id="edge20_Node000001_Node000020" class="edge">
<title>Node1&#45;&gt;Node20</title>
<g id="a_edge20_Node000001_Node000020"><a xlink:title=" ">
<path fill="none" stroke="#63b8ff" d="M1126.8,-256.75C1164.48,-246.84 1217.49,-232.88 1256.49,-222.62"/>
<polygon fill="#63b8ff" stroke="#63b8ff" points="1126.37,-253.24 1117.59,-259.17 1128.15,-260.01 1126.37,-253.24"/>
</a>
</g>
</g>
<!-- Node3 -->
<g id="Node000003" class="node">
<title>Node3</title>
<g id="a_Node000003"><a xlink:href="../../d6/d1d/bit__matrix__io_8hpp.html" target="_top" xlink:title="Bit_matrix reading and printing operations.">
<polygon fill="white" stroke="#666666" points="116.5,-156 0,-156 0,-124 116.5,-124 116.5,-156"/>
<text text-anchor="start" x="8" y="-142.5" font-family="Helvetica,sans-Serif" font-size="10.00">include/ogxx/bit_matrix</text>
<text text-anchor="middle" x="58.25" y="-130.5" font-family="Helvetica,sans-Serif" font-size="10.00">_io.hpp</text>
</a>
</g>
</g>
<!-- Node2&#45;&gt;Node3 -->
<g id="edge2_Node000002_Node000003" class="edge">
<title>Node2&#45;&gt;Node3</title>
<g id="a_edge2_Node000002_Node000003"><a xlink:title=" ">
<path fill="none" stroke="#63b8ff" d="M329.57,-195.48C275.2,-185.5 194.96,-170.43 125.25,-156 122.45,-155.42 119.58,-154.82 116.69,-154.2"/>
<polygon fill="#63b8ff" stroke="#63b8ff" points="328.82,-198.9 339.28,-197.26 330.08,-192.01 328.82,-198.9"/>
</a>
</g>
</g>
<!-- Node4 -->
<g id="Node000004" class="node">
<title>Node4</title>
<g id="a_Node000004"><a xlink:href="../../d3/dcc/graph__repr__conv_8hpp.html" target="_top" xlink:title="Graph representation conversion operations.">
<polygon fill="white" stroke="#666666" points="232.12,-156 134.38,-156 134.38,-124 232.12,-124 232.12,-156"/>
<text text-anchor="start" x="142.38" y="-142.5" font-family="Helvetica,sans-Serif" font-size="10.00">include/ogxx/graph</text>
<text text-anchor="middle" x="183.25" y="-130.5" font-family="Helvetica,sans-Serif" font-size="10.00">_repr_conv.hpp</text>
</a>
</g>
</g>
<!-- Node2&#45;&gt;Node4 -->
<g id="edge3_Node000002_Node000004" class="edge">
<title>Node2&#45;&gt;Node4</title>
<g id="a_edge3_Node000002_Node000004"><a xlink:title=" ">
<path fill="none" stroke="#63b8ff" d="M352.57,-194.21C318.2,-183.41 268.89,-167.92 232.34,-156.43"/>
<polygon fill="#63b8ff" stroke="#63b8ff" points="351.13,-197.43 361.72,-197.09 353.23,-190.75 351.13,-197.43"/>
</a>
</g>
</g>
<!-- Node5 -->
<g id="Node000005" class="node">
<title>Node5</title>
<g id="a_Node000005"><a xlink:href="../../d9/d93/dense__bit__matrix_8cpp.html" target="_top" xlink:title=" ">
<polygon fill="white" stroke="#666666" points="391.88,-150 250.62,-150 250.62,-130 391.88,-130 391.88,-150"/>
<text text-anchor="middle" x="321.25" y="-136.5" font-family="Helvetica,sans-Serif" font-size="10.00">source/dense_bit_matrix.cpp</text>
</a>
</g>
</g>
<!-- Node2&#45;&gt;Node5 -->
<g id="edge4_Node000002_Node000005" class="edge">
<title>Node2&#45;&gt;Node5</title>
<g id="a_edge4_Node000002_Node000005"><a xlink:title=" ">
<path fill="none" stroke="#63b8ff" d="M374.67,-189.97C360.95,-177.39 342.77,-160.72 331.55,-150.44"/>
<polygon fill="#63b8ff" stroke="#63b8ff" points="372.08,-192.34 381.82,-196.52 376.81,-187.18 372.08,-192.34"/>
</a>
</g>
</g>
<!-- Node6 -->
<g id="Node000006" class="node">
<title>Node6</title>
<g id="a_Node000006"><a xlink:href="../../dc/d24/graph__view__un__am_8cpp.html" target="_top" xlink:title="Adjacency matrix of undirected graph adapter.">
<polygon fill="white" stroke="#666666" points="520.88,-156 409.62,-156 409.62,-124 520.88,-124 520.88,-156"/>
<text text-anchor="start" x="417.62" y="-142.5" font-family="Helvetica,sans-Serif" font-size="10.00">source/graph_view_un</text>
<text text-anchor="middle" x="465.25" y="-130.5" font-family="Helvetica,sans-Serif" font-size="10.00">_am.cpp</text>
</a>
</g>
</g>
<!-- Node2&#45;&gt;Node6 -->
<g id="edge5_Node000002_Node000006" class="edge">
<title>Node2&#45;&gt;Node6</title>
<g id="a_edge5_Node000002_Node000006"><a xlink:title=" ">
<path fill="none" stroke="#63b8ff" d="M411.89,-189.91C423.23,-179.52 437.59,-166.35 448.56,-156.3"/>
<polygon fill="#63b8ff" stroke="#63b8ff" points="409.69,-187.18 404.68,-196.52 414.42,-192.34 409.69,-187.18"/>
</a>
</g>
</g>
<!-- Node7 -->
<g id="Node000007" class="node">
<title>Node7</title>
<g id="a_Node000007"><a xlink:href="../../d5/d69/symmetric__dense__bit__matrix_8cpp.html" target="_top" xlink:title="Symmetric_dense_bit matrix implementation (of abstract matrix interface from matrix....">
<polygon fill="white" stroke="#666666" points="664,-156 538.5,-156 538.5,-124 664,-124 664,-156"/>
<text text-anchor="start" x="546.5" y="-142.5" font-family="Helvetica,sans-Serif" font-size="10.00">source/symmetric_dense</text>
<text text-anchor="middle" x="601.25" y="-130.5" font-family="Helvetica,sans-Serif" font-size="10.00">_bit_matrix.cpp</text>
</a>
</g>
</g>
<!-- Node2&#45;&gt;Node7 -->
<g id="edge6_Node000002_Node000007" class="edge">
<title>Node2&#45;&gt;Node7</title>
<g id="a_edge6_Node000002_Node000007"><a xlink:title=" ">
<path fill="none" stroke="#63b8ff" d="M433.99,-194.07C468.01,-183.28 516.58,-167.87 552.63,-156.43"/>
<polygon fill="#63b8ff" stroke="#63b8ff" points="432.97,-190.73 424.49,-197.09 435.08,-197.4 432.97,-190.73"/>
</a>
</g>
</g>
<!-- Node9 -->
<g id="Node000009" class="node">
<title>Node9</title>
<g id="a_Node000009"><a xlink:href="../../dd/d0c/point__distance__matrix_8hpp.html" target="_top" xlink:title="Facilities to compute distance matrices according to selected metrics.">
<polygon fill="white" stroke="#666666" points="790.75,-156 681.75,-156 681.75,-124 790.75,-124 790.75,-156"/>
<text text-anchor="start" x="689.75" y="-142.5" font-family="Helvetica,sans-Serif" font-size="10.00">include/ogxx/point</text>
<text text-anchor="middle" x="736.25" y="-130.5" font-family="Helvetica,sans-Serif" font-size="10.00">_distance_matrix.hpp</text>
</a>
</g>
</g>
<!-- Node8&#45;&gt;Node9 -->
<g id="edge8_Node000008_Node000009" class="edge">
<title>Node8&#45;&gt;Node9</title>
<g id="a_edge8_Node000008_Node000009"><a xlink:title=" ">
<path fill="none" stroke="#63b8ff" d="M960.79,-194.89C912.77,-183.37 840.71,-166.07 791.25,-154.2"/>
<polygon fill="#63b8ff" stroke="#63b8ff" points="959.84,-198.26 970.38,-197.19 961.47,-191.45 959.84,-198.26"/>
</a>
</g>
</g>
<!-- Node11 -->
<g id="Node000011" class="node">
<title>Node11</title>
<g id="a_Node000011"><a xlink:href="../../dd/db4/st__matrix__io_8hpp.html" target="_top" xlink:title="St_matrix reading and printing operations.">
<polygon fill="white" stroke="#666666" points="923.38,-156 809.12,-156 809.12,-124 923.38,-124 923.38,-156"/>
<text text-anchor="start" x="817.12" y="-142.5" font-family="Helvetica,sans-Serif" font-size="10.00">include/ogxx/st_matrix</text>
<text text-anchor="middle" x="866.25" y="-130.5" font-family="Helvetica,sans-Serif" font-size="10.00">_io.hpp</text>
</a>
</g>
</g>
<!-- Node8&#45;&gt;Node11 -->
<g id="edge10_Node000008_Node000011" class="edge">
<title>Node8&#45;&gt;Node11</title>
<g id="a_edge10_Node000008_Node000011"><a xlink:title=" ">
<path fill="none" stroke="#63b8ff" d="M980.02,-192.79C956.5,-182.08 924.29,-167.42 900.14,-156.43"/>
<polygon fill="#63b8ff" stroke="#63b8ff" points="978.55,-195.96 989.1,-196.92 981.45,-189.59 978.55,-195.96"/>
</a>
</g>
</g>
<!-- Node15 -->
<g id="Node000015" class="node">
<title>Node15</title>
<g id="a_Node000015"><a xlink:href="../../df/da6/source_2dense__st__matrix_8cpp.html" target="_top" xlink:title="Dense matrix implementation (of abstract matrix interface from matrix.hpp).">
<polygon fill="white" stroke="#666666" points="1080.75,-150 941.75,-150 941.75,-130 1080.75,-130 1080.75,-150"/>
<text text-anchor="middle" x="1011.25" y="-136.5" font-family="Helvetica,sans-Serif" font-size="10.00">source/dense_st_matrix.cpp</text>
</a>
</g>
</g>
<!-- Node8&#45;&gt;Node15 -->
<g id="edge14_Node000008_Node000015" class="edge">
<title>Node8&#45;&gt;Node15</title>
<g id="a_edge14_Node000008_Node000015"><a xlink:title=" ">
<path fill="none" stroke="#63b8ff" d="M1011.25,-186.28C1011.25,-174.27 1011.25,-159.74 1011.25,-150.44"/>
<polygon fill="#63b8ff" stroke="#63b8ff" points="1007.75,-186.03 1011.25,-196.03 1014.75,-186.03 1007.75,-186.03"/>
</a>
</g>
</g>
<!-- Node16 -->
<g id="Node000016" class="node">
<title>Node16</title>
<g id="a_Node000016"><a xlink:href="../../d8/d4d/symmetric__dense__st__matrix_8cpp.html" target="_top" xlink:title="Implementation of a class for compact storage of a symmetric matrix.">
<polygon fill="white" stroke="#666666" points="1224,-156 1098.5,-156 1098.5,-124 1224,-124 1224,-156"/>
<text text-anchor="start" x="1106.5" y="-142.5" font-family="Helvetica,sans-Serif" font-size="10.00">source/symmetric_dense</text>
<text text-anchor="middle" x="1161.25" y="-130.5" font-family="Helvetica,sans-Serif" font-size="10.00">_st_matrix.cpp</text>
</a>
</g>
</g>
<!-- Node8&#45;&gt;Node16 -->
<g id="edge15_Node000008_Node000016" class="edge">
<title>Node8&#45;&gt;Node16</title>
<g id="a_edge15_Node000008_Node000016"><a xlink:title=" ">
<path fill="none" stroke="#63b8ff" d="M1043.23,-192.93C1067.59,-182.21 1101.1,-167.47 1126.19,-156.43"/>
<polygon fill="#63b8ff" stroke="#63b8ff" points="1041.87,-189.7 1034.13,-196.93 1044.69,-196.11 1041.87,-189.7"/>
</a>
</g>
</g>
<!-- Node18 -->
<g id="Node000018" class="node">
<title>Node18</title>
<g id="a_Node000018"><a xlink:href="../../db/dc8/tests_2dense__st__matrix_8cpp.html" target="_top" xlink:title="A helper file to be included in each testing cpp.">
<polygon fill="white" stroke="#666666" points="1317,-82 1185.5,-82 1185.5,-62 1317,-62 1317,-82"/>
<text text-anchor="middle" x="1251.25" y="-68.5" font-family="Helvetica,sans-Serif" font-size="10.00">tests/dense_st_matrix.cpp</text>
</a>
</g>
</g>
<!-- Node8&#45;&gt;Node18 -->
<g id="edge17_Node000008_Node000018" class="edge">
<title>Node8&#45;&gt;Node18</title>
<g id="a_edge17_Node000008_Node000018"><a xlink:title=" ">
<path fill="none" stroke="#63b8ff" d="M1069.4,-195.25C1133.19,-182.12 1227.4,-161.92 1233.25,-156 1253.04,-135.96 1253.32,-99.62 1252.19,-82.46"/>
<polygon fill="#63b8ff" stroke="#63b8ff" points="1068.84,-191.79 1059.75,-197.23 1070.25,-198.65 1068.84,-191.79"/>
</a>
</g>
</g>
<!-- Node10 -->
<g id="Node000010" class="node">
<title>Node10</title>
<g id="a_Node000010"><a xlink:href="../../d3/d60/point__distance__matrix_8cpp.html" target="_top" xlink:title="Implementation of point distance matrix adapter for a metrics object.">
<polygon fill="white" stroke="#666666" points="791.88,-88 680.62,-88 680.62,-56 791.88,-56 791.88,-88"/>
<text text-anchor="start" x="688.62" y="-74.5" font-family="Helvetica,sans-Serif" font-size="10.00">source/point_distance</text>
<text text-anchor="middle" x="736.25" y="-62.5" font-family="Helvetica,sans-Serif" font-size="10.00">_matrix.cpp</text>
</a>
</g>
</g>
<!-- Node9&#45;&gt;Node10 -->
<g id="edge9_Node000009_Node000010" class="edge">
<title>Node9&#45;&gt;Node10</title>
<g id="a_edge9_Node000009_Node000010"><a xlink:title=" ">
<path fill="none" stroke="#63b8ff" d="M736.25,-112.31C736.25,-104.12 736.25,-95.38 736.25,-88.22"/>
<polygon fill="#63b8ff" stroke="#63b8ff" points="732.75,-112.18 736.25,-122.18 739.75,-112.18 732.75,-112.18"/>
</a>
</g>
</g>
<!-- Node12 -->
<g id="Node000012" class="node">
<title>Node12</title>
<g id="a_Node000012"><a xlink:href="../../d1/d44/source_2st__matrix__io__read_8cpp.html" target="_top" xlink:title="Implementation of st_matrix_io.hpp&#39;s read function.">
<polygon fill="white" stroke="#666666" points="917,-88 815.5,-88 815.5,-56 917,-56 917,-88"/>
<text text-anchor="start" x="823.5" y="-74.5" font-family="Helvetica,sans-Serif" font-size="10.00">source/st_matrix_io</text>
<text text-anchor="middle" x="866.25" y="-62.5" font-family="Helvetica,sans-Serif" font-size="10.00">_read.cpp</text>
</a>
</g>
</g>
<!-- Node11&#45;&gt;Node12 -->
<g id="edge11_Node000011_Node000012" class="edge">
<title>Node11&#45;&gt;Node12</title>
<g id="a_edge11_Node000011_Node000012"><a xlink:title=" ">
<path fill="none" stroke="#63b8ff" d="M866.25,-112.31C866.25,-104.12 866.25,-95.38 866.25,-88.22"/>
<polygon fill="#63b8ff" stroke="#63b8ff" points="862.75,-112.18 866.25,-122.18 869.75,-112.18 862.75,-112.18"/>
</a>
</g>
</g>
<!-- Node13 -->
<g id="Node000013" class="node">
<title>Node13</title>
<g id="a_Node000013"><a xlink:href="../../d0/ddf/tests_2st__matrix__io__read_8cpp.html" target="_top" xlink:title="St_matrix io::read function tests.">
<polygon fill="white" stroke="#666666" points="1030.25,-88 936.25,-88 936.25,-56 1030.25,-56 1030.25,-88"/>
<text text-anchor="start" x="944.25" y="-74.5" font-family="Helvetica,sans-Serif" font-size="10.00">tests/st_matrix_io</text>
<text text-anchor="middle" x="983.25" y="-62.5" font-family="Helvetica,sans-Serif" font-size="10.00">_read.cpp</text>
</a>
</g>
</g>
<!-- Node11&#45;&gt;Node13 -->
<g id="edge12_Node000011_Node000013" class="edge">
<title>Node11&#45;&gt;Node13</title>
<g id="a_edge12_Node000011_Node000013"><a xlink:title=" ">
<path fill="none" stroke="#63b8ff" d="M903.36,-118.07C920.43,-108.44 940.33,-97.21 955.99,-88.38"/>
<polygon fill="#63b8ff" stroke="#63b8ff" points="901.99,-114.82 895,-122.78 905.43,-120.92 901.99,-114.82"/>
</a>
</g>
</g>
<!-- Node14 -->
<g id="Node000014" class="node">
<title>Node14</title>
<g id="a_Node000014"><a xlink:href="../../da/d4a/build__all_8cpp.html" target="_top" xlink:title="Include all test files here to build them at once.">
<polygon fill="white" stroke="#666666" points="1298.62,-20 1203.88,-20 1203.88,0 1298.62,0 1298.62,-20"/>
<text text-anchor="middle" x="1251.25" y="-6.5" font-family="Helvetica,sans-Serif" font-size="10.00">tests/build_all.cpp</text>
</a>
</g>
</g>
<!-- Node13&#45;&gt;Node14 -->
<g id="edge13_Node000013_Node000014" class="edge">
<title>Node13&#45;&gt;Node14</title>
<g id="a_edge13_Node000013_Node000014"><a xlink:title=" ">
<path fill="none" stroke="#63b8ff" d="M1041.63,-55.74C1103.44,-41.17 1163.33,-28.67 1203.76,-20.46"/>
<polygon fill="#63b8ff" stroke="#63b8ff" points="1040.88,-52.32 1031.96,-58.04 1042.49,-59.13 1040.88,-52.32"/>
</a>
</g>
</g>
<!-- Node17 -->
<g id="Node000017" class="node">
<title>Node17</title>
<g id="a_Node000017"><a xlink:href="../../d5/d40/symmetric__dense__st__matrix__test_8cpp.html" target="_top" xlink:title="Tests for Symmetric_dense_st_matrix.">
<polygon fill="white" stroke="#666666" points="1167.25,-88 1049.25,-88 1049.25,-56 1167.25,-56 1167.25,-88"/>
<text text-anchor="start" x="1057.25" y="-74.5" font-family="Helvetica,sans-Serif" font-size="10.00">tests/symmetric_dense</text>
<text text-anchor="middle" x="1108.25" y="-62.5" font-family="Helvetica,sans-Serif" font-size="10.00">_st_matrix_test.cpp</text>
</a>
</g>
</g>
<!-- Node16&#45;&gt;Node17 -->
<g id="edge16_Node000016_Node000017" class="edge">
<title>Node16&#45;&gt;Node17</title>
<g id="a_edge16_Node000016_Node000017"><a xlink:title=" ">
<path fill="none" stroke="#63b8ff" d="M1141.87,-114.87C1134.72,-105.96 1126.82,-96.12 1120.48,-88.22"/>
<polygon fill="#63b8ff" stroke="#63b8ff" points="1139.02,-116.91 1148.01,-122.51 1144.48,-112.52 1139.02,-116.91"/>
</a>
</g>
</g>
<!-- Node18&#45;&gt;Node14 -->
<g id="edge18_Node000018_Node000014" class="edge">
<title>Node18&#45;&gt;Node14</title>
<g id="a_edge18_Node000018_Node000014"><a xlink:title=" ">
<path fill="none" stroke="#63b8ff" d="M1251.25,-50.25C1251.25,-39.97 1251.25,-28.09 1251.25,-20.11"/>
<polygon fill="#63b8ff" stroke="#63b8ff" points="1247.75,-50.11 1251.25,-60.11 1254.75,-50.11 1247.75,-50.11"/>
</a>
</g>
</g>
<!-- Node20&#45;&gt;Node14 -->
<g id="edge21_Node000020_Node000014" class="edge">
<title>Node20&#45;&gt;Node14</title>
<g id="a_edge21_Node000020_Node000014"><a xlink:title=" ">
<path fill="none" stroke="#63b8ff" d="M1320.24,-181.11C1332.99,-149.46 1348.49,-95.29 1326.25,-56 1316.52,-38.82 1297.34,-27.49 1280.8,-20.49"/>
<polygon fill="#63b8ff" stroke="#63b8ff" points="1317.03,-179.71 1316.34,-190.28 1323.47,-182.45 1317.03,-179.71"/>
</a>
</g>
</g>
</g>
</svg>
