<?xml version="1.0" encoding="UTF-8" standalone="no"?>
<!DOCTYPE svg PUBLIC "-//W3C//DTD SVG 1.1//EN"
 "http://www.w3.org/Graphics/SVG/1.1/DTD/svg11.dtd">
<!-- Generated by graphviz version 9.0.0 (20230911.1827)
 -->
<!-- Title: source/index_set_bitvector.hpp Pages: 1 -->
<svg width="364pt" height="84pt"
 viewBox="0.00 0.00 364.00 84.00" xmlns="http://www.w3.org/2000/svg" xmlns:xlink="http://www.w3.org/1999/xlink">
<g id="graph0" class="graph" transform="scale(1 1) rotate(0) translate(4 80)">
<title>source/index_set_bitvector.hpp</title>
<!-- Node1 -->
<g id="Node000001" class="node">
<title>Node1</title>
<g id="a_Node000001"><a xlink:title="Index_set implemented via bit vector.">
<polygon fill="#999999" stroke="#666666" points="262,-76 111.75,-76 111.75,-56 262,-56 262,-76"/>
<text text-anchor="middle" x="186.88" y="-62.5" font-family="Helvetica,sans-Serif" font-size="10.00">source/index_set_bitvector.hpp</text>
</a>
</g>
</g>
<!-- Node2 -->
<g id="Node000002" class="node">
<title>Node2</title>
<g id="a_Node000002"><a xlink:href="../../d6/dda/adjacency__implementations_8cpp.html" target="_top" xlink:title="ogxx::Adjacency implementations based upon different Index_set implementations">
<polygon fill="white" stroke="#666666" points="187.75,-20 0,-20 0,0 187.75,0 187.75,-20"/>
<text text-anchor="middle" x="93.88" y="-6.5" font-family="Helvetica,sans-Serif" font-size="10.00">source/adjacency_implementations.cpp</text>
</a>
</g>
</g>
<!-- Node1&#45;&gt;Node2 -->
<g id="edge1_Node000001_Node000002" class="edge">
<title>Node1&#45;&gt;Node2</title>
<g id="a_edge1_Node000001_Node000002"><a xlink:title=" ">
<path fill="none" stroke="#63b8ff" d="M161.18,-50.08C144.88,-40.62 124.29,-28.66 110.2,-20.48"/>
<polygon fill="#63b8ff" stroke="#63b8ff" points="158.96,-52.84 169.37,-54.83 162.48,-46.79 158.96,-52.84"/>
</a>
</g>
</g>
<!-- Node3 -->
<g id="Node000003" class="node">
<title>Node3</title>
<g id="a_Node000003"><a xlink:href="../../de/d57/index__set__bitvector_8cpp.html" target="_top" xlink:title="Defining interfaces for bitvector.">
<polygon fill="white" stroke="#666666" points="356,-20 205.75,-20 205.75,0 356,0 356,-20"/>
<text text-anchor="middle" x="280.88" y="-6.5" font-family="Helvetica,sans-Serif" font-size="10.00">source/index_set_bitvector.cpp</text>
</a>
</g>
</g>
<!-- Node1&#45;&gt;Node3 -->
<g id="edge2_Node000001_Node000003" class="edge">
<title>Node1&#45;&gt;Node3</title>
<g id="a_edge2_Node000001_Node000003"><a xlink:title=" ">
<path fill="none" stroke="#63b8ff" d="M212.85,-50.08C229.32,-40.62 250.13,-28.66 264.37,-20.48"/>
<polygon fill="#63b8ff" stroke="#63b8ff" points="211.49,-46.82 204.56,-54.84 214.98,-52.89 211.49,-46.82"/>
</a>
</g>
</g>
</g>
</svg>
