<?xml version="1.0" encoding="UTF-8" standalone="no"?>
<!DOCTYPE svg PUBLIC "-//W3C//DTD SVG 1.1//EN"
 "http://www.w3.org/Graphics/SVG/1.1/DTD/svg11.dtd">
<!-- Generated by graphviz version 9.0.0 (20230911.1827)
 -->
<!-- Title: include/ogxx/edge_list_io.hpp Pages: 1 -->
<svg width="506pt" height="432pt"
 viewBox="0.00 0.00 506.12 432.00" xmlns="http://www.w3.org/2000/svg" xmlns:xlink="http://www.w3.org/1999/xlink">
<g id="graph0" class="graph" transform="scale(1 1) rotate(0) translate(4 428)">
<title>include/ogxx/edge_list_io.hpp</title>
<!-- Node1 -->
<g id="Node000001" class="node">
<title>Node1</title>
<g id="a_Node000001"><a xlink:title="Textual input&#45;output for edge list.">
<polygon fill="#999999" stroke="#666666" points="234.12,-424 121.38,-424 121.38,-392 234.12,-392 234.12,-424"/>
<text text-anchor="start" x="129.38" y="-410.5" font-family="Helvetica,sans-Serif" font-size="10.00">include/ogxx/edge_list</text>
<text text-anchor="middle" x="177.75" y="-398.5" font-family="Helvetica,sans-Serif" font-size="10.00">_io.hpp</text>
</a>
</g>
</g>
<!-- Node2 -->
<g id="Node000002" class="node">
<title>Node2</title>
<g id="a_Node000002"><a xlink:href="../../d8/d3d/io__head_8hpp.html" target="_top" xlink:title="Shared things for *_io.hpp files.">
<polygon fill="white" stroke="#666666" points="168,-356 75.5,-356 75.5,-336 168,-336 168,-356"/>
<text text-anchor="middle" x="121.75" y="-342.5" font-family="Helvetica,sans-Serif" font-size="10.00">ogxx/io_head.hpp</text>
</a>
</g>
</g>
<!-- Node1&#45;&gt;Node2 -->
<g id="edge1_Node000001_Node000002" class="edge">
<title>Node1&#45;&gt;Node2</title>
<g id="a_edge1_Node000001_Node000002"><a xlink:title=" ">
<path fill="none" stroke="#63b8ff" d="M163.33,-391.55C155.63,-383.3 146.13,-373.12 138.15,-364.57"/>
<polygon fill="#63b8ff" stroke="#63b8ff" points="140.95,-362.44 131.56,-357.51 135.83,-367.21 140.95,-362.44"/>
</a>
</g>
</g>
<!-- Node5 -->
<g id="Node000005" class="node">
<title>Node5</title>
<g id="a_Node000005"><a xlink:href="../../d0/df1/edge__list_8hpp.html" target="_top" xlink:title="Graph edge list interface.">
<polygon fill="white" stroke="#666666" points="283.62,-356 185.88,-356 185.88,-336 283.62,-336 283.62,-356"/>
<text text-anchor="middle" x="234.75" y="-342.5" font-family="Helvetica,sans-Serif" font-size="10.00">ogxx/edge_list.hpp</text>
</a>
</g>
</g>
<!-- Node1&#45;&gt;Node5 -->
<g id="edge4_Node000001_Node000005" class="edge">
<title>Node1&#45;&gt;Node5</title>
<g id="a_edge4_Node000001_Node000005"><a xlink:title=" ">
<path fill="none" stroke="#63b8ff" d="M192.43,-391.55C200.26,-383.3 209.94,-373.12 218.06,-364.57"/>
<polygon fill="#63b8ff" stroke="#63b8ff" points="220.42,-367.17 224.77,-357.51 215.34,-362.34 220.42,-367.17"/>
</a>
</g>
</g>
<!-- Node3 -->
<g id="Node000003" class="node">
<title>Node3</title>
<g id="a_Node000003"><a xlink:title=" ">
<polygon fill="#e0e0e0" stroke="#999999" points="93.38,-300 30.12,-300 30.12,-280 93.38,-280 93.38,-300"/>
<text text-anchor="middle" x="61.75" y="-286.5" font-family="Helvetica,sans-Serif" font-size="10.00">string_view</text>
</a>
</g>
</g>
<!-- Node2&#45;&gt;Node3 -->
<g id="edge2_Node000002_Node000003" class="edge">
<title>Node2&#45;&gt;Node3</title>
<g id="a_edge2_Node000002_Node000003"><a xlink:title=" ">
<path fill="none" stroke="#63b8ff" d="M111.3,-335.59C102.78,-327.93 90.54,-316.91 80.36,-307.75"/>
<polygon fill="#63b8ff" stroke="#63b8ff" points="82.98,-305.4 73.21,-301.31 78.3,-310.6 82.98,-305.4"/>
</a>
</g>
</g>
<!-- Node4 -->
<g id="Node000004" class="node">
<title>Node4</title>
<g id="a_Node000004"><a xlink:title=" ">
<polygon fill="#e0e0e0" stroke="#999999" points="162.38,-300 111.12,-300 111.12,-280 162.38,-280 162.38,-300"/>
<text text-anchor="middle" x="136.75" y="-286.5" font-family="Helvetica,sans-Serif" font-size="10.00">ostream</text>
</a>
</g>
</g>
<!-- Node2&#45;&gt;Node4 -->
<g id="edge3_Node000002_Node000004" class="edge">
<title>Node2&#45;&gt;Node4</title>
<g id="a_edge3_Node000002_Node000004"><a xlink:title=" ">
<path fill="none" stroke="#63b8ff" d="M124.36,-335.59C126.23,-328.86 128.82,-319.53 131.15,-311.15"/>
<polygon fill="#63b8ff" stroke="#63b8ff" points="134.46,-312.33 133.76,-301.76 127.71,-310.46 134.46,-312.33"/>
</a>
</g>
</g>
<!-- Node6 -->
<g id="Node000006" class="node">
<title>Node6</title>
<g id="a_Node000006"><a xlink:href="../../db/d3e/iterable_8hpp.html" target="_top" xlink:title="Iterable interfaces.">
<polygon fill="white" stroke="#666666" points="268.88,-188 178.62,-188 178.62,-168 268.88,-168 268.88,-188"/>
<text text-anchor="middle" x="223.75" y="-174.5" font-family="Helvetica,sans-Serif" font-size="10.00">ogxx/iterable.hpp</text>
</a>
</g>
</g>
<!-- Node5&#45;&gt;Node6 -->
<g id="edge5_Node000005_Node000006" class="edge">
<title>Node5&#45;&gt;Node6</title>
<g id="a_edge5_Node000005_Node000006"><a xlink:title=" ">
<path fill="none" stroke="#63b8ff" d="M234.13,-335.6C232.4,-309.46 227.49,-235.48 225.1,-199.36"/>
<polygon fill="#63b8ff" stroke="#63b8ff" points="228.62,-199.55 224.47,-189.81 221.64,-200.02 228.62,-199.55"/>
</a>
</g>
</g>
<!-- Node17 -->
<g id="Node000017" class="node">
<title>Node17</title>
<g id="a_Node000017"><a xlink:href="../../d7/d6c/graph__view_8hpp.html" target="_top" xlink:title="Graph view interface that may be used for graph representation coversion.">
<polygon fill="white" stroke="#666666" points="353.75,-300 247.75,-300 247.75,-280 353.75,-280 353.75,-300"/>
<text text-anchor="middle" x="300.75" y="-286.5" font-family="Helvetica,sans-Serif" font-size="10.00">ogxx/graph_view.hpp</text>
</a>
</g>
</g>
<!-- Node5&#45;&gt;Node17 -->
<g id="edge17_Node000005_Node000017" class="edge">
<title>Node5&#45;&gt;Node17</title>
<g id="a_edge17_Node000005_Node000017"><a xlink:title=" ">
<path fill="none" stroke="#63b8ff" d="M246.25,-335.59C255.71,-327.85 269.35,-316.69 280.62,-307.47"/>
<polygon fill="#63b8ff" stroke="#63b8ff" points="282.69,-310.3 288.21,-301.26 278.26,-304.88 282.69,-310.3"/>
</a>
</g>
</g>
<!-- Node7 -->
<g id="Node000007" class="node">
<title>Node7</title>
<g id="a_Node000007"><a xlink:href="../../de/d2f/primitive__definitions_8hpp.html" target="_top" xlink:title="Primitive type declarations like scalar indices and so on.">
<polygon fill="white" stroke="#666666" points="300.12,-76 157.38,-76 157.38,-56 300.12,-56 300.12,-76"/>
<text text-anchor="middle" x="228.75" y="-62.5" font-family="Helvetica,sans-Serif" font-size="10.00">ogxx/primitive_definitions.hpp</text>
</a>
</g>
</g>
<!-- Node6&#45;&gt;Node7 -->
<g id="edge6_Node000006_Node000007" class="edge">
<title>Node6&#45;&gt;Node7</title>
<g id="a_edge6_Node000006_Node000007"><a xlink:title=" ">
<path fill="none" stroke="#63b8ff" d="M208.36,-167.67C190.77,-155.71 165.62,-133.9 175.75,-112 181.24,-100.13 191.58,-90.24 201.68,-82.79"/>
<polygon fill="#63b8ff" stroke="#63b8ff" points="203.55,-85.76 209.87,-77.25 199.63,-79.96 203.55,-85.76"/>
</a>
</g>
</g>
<!-- Node16 -->
<g id="Node000016" class="node">
<title>Node16</title>
<g id="a_Node000016"><a xlink:href="../../d9/dde/iterator_8hpp.html" target="_top" xlink:title="Linear sequence iterator interfaces.">
<polygon fill="white" stroke="#666666" points="273.12,-132 184.38,-132 184.38,-112 273.12,-112 273.12,-132"/>
<text text-anchor="middle" x="228.75" y="-118.5" font-family="Helvetica,sans-Serif" font-size="10.00">ogxx/iterator.hpp</text>
</a>
</g>
</g>
<!-- Node6&#45;&gt;Node16 -->
<g id="edge15_Node000006_Node000016" class="edge">
<title>Node6&#45;&gt;Node16</title>
<g id="a_edge15_Node000006_Node000016"><a xlink:title=" ">
<path fill="none" stroke="#63b8ff" d="M224.62,-167.59C225.23,-161.01 226.07,-151.96 226.83,-143.73"/>
<polygon fill="#63b8ff" stroke="#63b8ff" points="230.31,-144.09 227.75,-133.81 223.34,-143.44 230.31,-144.09"/>
</a>
</g>
</g>
<!-- Node8 -->
<g id="Node000008" class="node">
<title>Node8</title>
<g id="a_Node000008"><a xlink:title=" ">
<polygon fill="#e0e0e0" stroke="#999999" points="47.5,-20 0,-20 0,0 47.5,0 47.5,-20"/>
<text text-anchor="middle" x="23.75" y="-6.5" font-family="Helvetica,sans-Serif" font-size="10.00">cstddef</text>
</a>
</g>
</g>
<!-- Node7&#45;&gt;Node8 -->
<g id="edge7_Node000007_Node000008" class="edge">
<title>Node7&#45;&gt;Node8</title>
<g id="a_edge7_Node000007_Node000008"><a xlink:title=" ">
<path fill="none" stroke="#63b8ff" d="M191.57,-55.55C158.83,-47.19 109.57,-34.48 58.72,-20.77"/>
<polygon fill="#63b8ff" stroke="#63b8ff" points="59.88,-17.46 49.31,-18.23 58.05,-24.22 59.88,-17.46"/>
</a>
</g>
</g>
<!-- Node9 -->
<g id="Node000009" class="node">
<title>Node9</title>
<g id="a_Node000009"><a xlink:title=" ">
<polygon fill="#e0e0e0" stroke="#999999" points="110.38,-20 65.12,-20 65.12,0 110.38,0 110.38,-20"/>
<text text-anchor="middle" x="87.75" y="-6.5" font-family="Helvetica,sans-Serif" font-size="10.00">cstdint</text>
</a>
</g>
</g>
<!-- Node7&#45;&gt;Node9 -->
<g id="edge8_Node000007_Node000009" class="edge">
<title>Node7&#45;&gt;Node9</title>
<g id="a_edge8_Node000007_Node000009"><a xlink:title=" ">
<path fill="none" stroke="#63b8ff" d="M204.19,-55.59C181.23,-46.8 146.77,-33.6 121.29,-23.84"/>
<polygon fill="#63b8ff" stroke="#63b8ff" points="122.63,-20.61 112.04,-20.3 120.13,-27.15 122.63,-20.61"/>
</a>
</g>
</g>
<!-- Node10 -->
<g id="Node000010" class="node">
<title>Node10</title>
<g id="a_Node000010"><a xlink:title=" ">
<polygon fill="#e0e0e0" stroke="#999999" points="157.15,-20 128.35,-20 128.35,0 157.15,0 157.15,-20"/>
<text text-anchor="middle" x="142.75" y="-6.5" font-family="Helvetica,sans-Serif" font-size="10.00">bit</text>
</a>
</g>
</g>
<!-- Node7&#45;&gt;Node10 -->
<g id="edge9_Node000007_Node000010" class="edge">
<title>Node7&#45;&gt;Node10</title>
<g id="a_edge9_Node000007_Node000010"><a xlink:title=" ">
<path fill="none" stroke="#63b8ff" d="M213.77,-55.59C200.94,-47.54 182.23,-35.79 167.23,-26.37"/>
<polygon fill="#63b8ff" stroke="#63b8ff" points="169.17,-23.46 158.84,-21.1 165.45,-29.38 169.17,-23.46"/>
</a>
</g>
</g>
<!-- Node11 -->
<g id="Node000011" class="node">
<title>Node11</title>
<g id="a_Node000011"><a xlink:title=" ">
<polygon fill="#e0e0e0" stroke="#999999" points="214.38,-20 175.12,-20 175.12,0 214.38,0 214.38,-20"/>
<text text-anchor="middle" x="194.75" y="-6.5" font-family="Helvetica,sans-Serif" font-size="10.00">limits</text>
</a>
</g>
</g>
<!-- Node7&#45;&gt;Node11 -->
<g id="edge10_Node000007_Node000011" class="edge">
<title>Node7&#45;&gt;Node11</title>
<g id="a_edge10_Node000007_Node000011"><a xlink:title=" ">
<path fill="none" stroke="#63b8ff" d="M222.83,-55.59C218.39,-48.55 212.17,-38.67 206.71,-30"/>
<polygon fill="#63b8ff" stroke="#63b8ff" points="209.7,-28.18 201.41,-21.58 203.78,-31.91 209.7,-28.18"/>
</a>
</g>
</g>
<!-- Node12 -->
<g id="Node000012" class="node">
<title>Node12</title>
<g id="a_Node000012"><a xlink:title=" ">
<polygon fill="#e0e0e0" stroke="#999999" points="294.62,-20 232.88,-20 232.88,0 294.62,0 294.62,-20"/>
<text text-anchor="middle" x="263.75" y="-6.5" font-family="Helvetica,sans-Serif" font-size="10.00">type_traits</text>
</a>
</g>
</g>
<!-- Node7&#45;&gt;Node12 -->
<g id="edge11_Node000007_Node000012" class="edge">
<title>Node7&#45;&gt;Node12</title>
<g id="a_edge11_Node000007_Node000012"><a xlink:title=" ">
<path fill="none" stroke="#63b8ff" d="M234.85,-55.59C239.46,-48.47 245.96,-38.45 251.62,-29.72"/>
<polygon fill="#63b8ff" stroke="#63b8ff" points="254.4,-31.86 256.9,-21.57 248.52,-28.06 254.4,-31.86"/>
</a>
</g>
</g>
<!-- Node13 -->
<g id="Node000013" class="node">
<title>Node13</title>
<g id="a_Node000013"><a xlink:title=" ">
<polygon fill="#e0e0e0" stroke="#999999" points="364.38,-20 313.12,-20 313.12,0 364.38,0 364.38,-20"/>
<text text-anchor="middle" x="338.75" y="-6.5" font-family="Helvetica,sans-Serif" font-size="10.00">memory</text>
</a>
</g>
</g>
<!-- Node7&#45;&gt;Node13 -->
<g id="edge12_Node000007_Node000013" class="edge">
<title>Node7&#45;&gt;Node13</title>
<g id="a_edge12_Node000007_Node000013"><a xlink:title=" ">
<path fill="none" stroke="#63b8ff" d="M247.91,-55.59C264.84,-47.28 289.8,-35.03 309.27,-25.47"/>
<polygon fill="#63b8ff" stroke="#63b8ff" points="310.65,-28.7 318.08,-21.15 307.56,-22.41 310.65,-28.7"/>
</a>
</g>
</g>
<!-- Node14 -->
<g id="Node000014" class="node">
<title>Node14</title>
<g id="a_Node000014"><a xlink:title=" ">
<polygon fill="#e0e0e0" stroke="#999999" points="421.38,-20 382.12,-20 382.12,0 421.38,0 421.38,-20"/>
<text text-anchor="middle" x="401.75" y="-6.5" font-family="Helvetica,sans-Serif" font-size="10.00">utility</text>
</a>
</g>
</g>
<!-- Node7&#45;&gt;Node14 -->
<g id="edge13_Node000007_Node000014" class="edge">
<title>Node7&#45;&gt;Node14</title>
<g id="a_edge13_Node000007_Node000014"><a xlink:title=" ">
<path fill="none" stroke="#63b8ff" d="M259.61,-55.52C286.75,-47.16 327.59,-34.54 371.07,-20.83"/>
<polygon fill="#63b8ff" stroke="#63b8ff" points="371.95,-24.22 380.43,-17.87 369.84,-17.55 371.95,-24.22"/>
</a>
</g>
</g>
<!-- Node15 -->
<g id="Node000015" class="node">
<title>Node15</title>
<g id="a_Node000015"><a xlink:title=" ">
<polygon fill="#e0e0e0" stroke="#999999" points="498.12,-20 439.38,-20 439.38,0 498.12,0 498.12,-20"/>
<text text-anchor="middle" x="468.75" y="-6.5" font-family="Helvetica,sans-Serif" font-size="10.00">stdexcept</text>
</a>
</g>
</g>
<!-- Node7&#45;&gt;Node15 -->
<g id="edge14_Node000007_Node000015" class="edge">
<title>Node7&#45;&gt;Node15</title>
<g id="a_edge14_Node000007_Node000015"><a xlink:title=" ">
<path fill="none" stroke="#63b8ff" d="M272.13,-55.51C310.67,-47.04 368.81,-34.17 427.86,-20.64"/>
<polygon fill="#63b8ff" stroke="#63b8ff" points="428.45,-24.1 437.41,-18.45 426.88,-17.28 428.45,-24.1"/>
</a>
</g>
</g>
<!-- Node16&#45;&gt;Node7 -->
<g id="edge16_Node000016_Node000007" class="edge">
<title>Node16&#45;&gt;Node7</title>
<g id="a_edge16_Node000016_Node000007"><a xlink:title=" ">
<path fill="none" stroke="#63b8ff" d="M228.75,-111.59C228.75,-105.01 228.75,-95.96 228.75,-87.73"/>
<polygon fill="#63b8ff" stroke="#63b8ff" points="232.25,-87.81 228.75,-77.81 225.25,-87.81 232.25,-87.81"/>
</a>
</g>
</g>
<!-- Node18 -->
<g id="Node000018" class="node">
<title>Node18</title>
<g id="a_Node000018"><a xlink:href="../../d4/d1a/vertex__pair_8hpp.html" target="_top" xlink:title="Vertex pair related type declarations.">
<polygon fill="white" stroke="#666666" points="353.38,-244 248.12,-244 248.12,-224 353.38,-224 353.38,-244"/>
<text text-anchor="middle" x="300.75" y="-230.5" font-family="Helvetica,sans-Serif" font-size="10.00">ogxx/vertex_pair.hpp</text>
</a>
</g>
</g>
<!-- Node17&#45;&gt;Node18 -->
<g id="edge18_Node000017_Node000018" class="edge">
<title>Node17&#45;&gt;Node18</title>
<g id="a_edge18_Node000017_Node000018"><a xlink:title=" ">
<path fill="none" stroke="#63b8ff" d="M300.75,-279.59C300.75,-273.01 300.75,-263.96 300.75,-255.73"/>
<polygon fill="#63b8ff" stroke="#63b8ff" points="304.25,-255.81 300.75,-245.81 297.25,-255.81 304.25,-255.81"/>
</a>
</g>
</g>
<!-- Node18&#45;&gt;Node6 -->
<g id="edge20_Node000018_Node000006" class="edge">
<title>Node18&#45;&gt;Node6</title>
<g id="a_edge20_Node000018_Node000006"><a xlink:title=" ">
<path fill="none" stroke="#63b8ff" d="M287.34,-223.59C276.14,-215.74 259.94,-204.38 246.69,-195.09"/>
<polygon fill="#63b8ff" stroke="#63b8ff" points="248.7,-192.22 238.51,-189.35 244.68,-197.96 248.7,-192.22"/>
</a>
</g>
</g>
<!-- Node18&#45;&gt;Node7 -->
<g id="edge19_Node000018_Node000007" class="edge">
<title>Node18&#45;&gt;Node7</title>
<g id="a_edge19_Node000018_Node000007"><a xlink:title=" ">
<path fill="none" stroke="#63b8ff" d="M301.39,-223.81C302.45,-202.61 302.66,-149.28 281.75,-112 275.22,-100.35 264.43,-90.37 254.29,-82.78"/>
<polygon fill="#63b8ff" stroke="#63b8ff" points="256.37,-79.97 246.16,-77.14 252.38,-85.72 256.37,-79.97"/>
</a>
</g>
</g>
</g>
</svg>
