<?xml version="1.0" encoding="UTF-8" standalone="no"?>
<!DOCTYPE svg PUBLIC "-//W3C//DTD SVG 1.1//EN"
 "http://www.w3.org/Graphics/SVG/1.1/DTD/svg11.dtd">
<!-- Generated by graphviz version 9.0.0 (20230911.1827)
 -->
<!-- Title: ogxx::List&lt; Item &gt; Pages: 1 -->
<svg width="236pt" height="220pt"
 viewBox="0.00 0.00 236.25 220.00" xmlns="http://www.w3.org/2000/svg" xmlns:xlink="http://www.w3.org/1999/xlink">
<g id="graph0" class="graph" transform="scale(1 1) rotate(0) translate(4 216)">
<title>ogxx::List&lt; Item &gt;</title>
<!-- Node1 -->
<g id="Node000001" class="node">
<title>Node1</title>
<g id="a_Node000001"><a xlink:title="Generic container interface with inserts and erases and stores them in linear order as a list.">
<polygon fill="#999999" stroke="#666666" points="165.5,-20 70,-20 70,0 165.5,0 165.5,-20"/>
<text text-anchor="middle" x="117.75" y="-6.5" font-family="Helvetica,sans-Serif" font-size="10.00">ogxx::List&lt; Item &gt;</text>
</a>
</g>
</g>
<!-- Node2 -->
<g id="Node000002" class="node">
<title>Node2</title>
<g id="a_Node000002"><a xlink:href="../../d2/d20/classogxx_1_1_indexed__iterable.html" target="_top" xlink:title="Finally, the linear zero&#45;based integer&#45;indexed iterable collection.">
<polygon fill="white" stroke="#666666" points="113.5,-88 0,-88 0,-56 113.5,-56 113.5,-88"/>
<text text-anchor="start" x="8" y="-74.5" font-family="Helvetica,sans-Serif" font-size="10.00">ogxx::Indexed_iterable</text>
<text text-anchor="middle" x="56.75" y="-62.5" font-family="Helvetica,sans-Serif" font-size="10.00">&lt; Item &gt;</text>
</a>
</g>
</g>
<!-- Node2&#45;&gt;Node1 -->
<g id="edge1_Node000001_Node000002" class="edge">
<title>Node2&#45;&gt;Node1</title>
<g id="a_edge1_Node000001_Node000002"><a xlink:title=" ">
<path fill="none" stroke="#63b8ff" d="M80.58,-47.56C90.22,-38.08 100.79,-27.68 108.19,-20.41"/>
<polygon fill="#63b8ff" stroke="#63b8ff" points="78.21,-44.98 73.54,-54.49 83.12,-49.97 78.21,-44.98"/>
</a>
</g>
</g>
<!-- Node3 -->
<g id="Node000003" class="node">
<title>Node3</title>
<g id="a_Node000003"><a xlink:href="../../d9/d72/classogxx_1_1_sized__iterable.html" target="_top" xlink:title="Not only iterable but we know in advance, how many items it contains.">
<polygon fill="white" stroke="#666666" points="170,-156 65.5,-156 65.5,-124 170,-124 170,-156"/>
<text text-anchor="start" x="73.5" y="-142.5" font-family="Helvetica,sans-Serif" font-size="10.00">ogxx::Sized_iterable</text>
<text text-anchor="middle" x="117.75" y="-130.5" font-family="Helvetica,sans-Serif" font-size="10.00">&lt; Item &gt;</text>
</a>
</g>
</g>
<!-- Node3&#45;&gt;Node2 -->
<g id="edge2_Node000002_Node000003" class="edge">
<title>Node3&#45;&gt;Node2</title>
<g id="a_edge2_Node000002_Node000003"><a xlink:title=" ">
<path fill="none" stroke="#63b8ff" d="M95.97,-115.43C87.6,-106.38 78.28,-96.29 70.82,-88.22"/>
<polygon fill="#63b8ff" stroke="#63b8ff" points="93.22,-117.61 102.57,-122.58 98.36,-112.86 93.22,-117.61"/>
</a>
</g>
</g>
<!-- Node5 -->
<g id="Node000005" class="node">
<title>Node5</title>
<g id="a_Node000005"><a xlink:href="../../d2/d24/classogxx_1_1_bag.html" target="_top" xlink:title="Generic container interface with inserts and erases but no fixed ordering of items.">
<polygon fill="white" stroke="#666666" points="228.25,-82 131.25,-82 131.25,-62 228.25,-62 228.25,-82"/>
<text text-anchor="middle" x="179.75" y="-68.5" font-family="Helvetica,sans-Serif" font-size="10.00">ogxx::Bag&lt; Item &gt;</text>
</a>
</g>
</g>
<!-- Node3&#45;&gt;Node5 -->
<g id="edge5_Node000005_Node000003" class="edge">
<title>Node3&#45;&gt;Node5</title>
<g id="a_edge5_Node000005_Node000003"><a xlink:title=" ">
<path fill="none" stroke="#63b8ff" d="M139.94,-115.37C150.68,-103.95 162.95,-90.88 171,-82.32"/>
<polygon fill="#63b8ff" stroke="#63b8ff" points="137.46,-112.9 133.17,-122.59 142.56,-117.7 137.46,-112.9"/>
</a>
</g>
</g>
<!-- Node4 -->
<g id="Node000004" class="node">
<title>Node4</title>
<g id="a_Node000004"><a xlink:href="../../d8/d9b/classogxx_1_1_iterable.html" target="_top" xlink:title="An interface for an object that can be iterated with an iterator.">
<polygon fill="white" stroke="#666666" points="173.38,-212 62.12,-212 62.12,-192 173.38,-192 173.38,-212"/>
<text text-anchor="middle" x="117.75" y="-198.5" font-family="Helvetica,sans-Serif" font-size="10.00">ogxx::Iterable&lt; Item &gt;</text>
</a>
</g>
</g>
<!-- Node4&#45;&gt;Node3 -->
<g id="edge3_Node000003_Node000004" class="edge">
<title>Node4&#45;&gt;Node3</title>
<g id="a_edge3_Node000003_Node000004"><a xlink:title=" ">
<path fill="none" stroke="#63b8ff" d="M117.75,-180.31C117.75,-172.37 117.75,-163.46 117.75,-156.14"/>
<polygon fill="#63b8ff" stroke="#63b8ff" points="114.25,-180.11 117.75,-190.11 121.25,-180.11 114.25,-180.11"/>
</a>
</g>
</g>
<!-- Node5&#45;&gt;Node1 -->
<g id="edge4_Node000001_Node000005" class="edge">
<title>Node5&#45;&gt;Node1</title>
<g id="a_edge4_Node000001_Node000005"><a xlink:title=" ">
<path fill="none" stroke="#63b8ff" d="M162.08,-53.9C150.72,-42.91 136.4,-29.05 127.17,-20.11"/>
<polygon fill="#63b8ff" stroke="#63b8ff" points="159.35,-56.13 168.97,-60.57 164.22,-51.1 159.35,-56.13"/>
</a>
</g>
</g>
</g>
</svg>
