<?xml version="1.0" encoding="UTF-8" standalone="no"?>
<!DOCTYPE svg PUBLIC "-//W3C//DTD SVG 1.1//EN"
 "http://www.w3.org/Graphics/SVG/1.1/DTD/svg11.dtd">
<!-- Generated by graphviz version 9.0.0 (20230911.1827)
 -->
<!-- Title: ogxx::Edge_list_neighbor_iterator Pages: 1 -->
<svg width="134pt" height="96pt"
 viewBox="0.00 0.00 133.50 96.00" xmlns="http://www.w3.org/2000/svg" xmlns:xlink="http://www.w3.org/1999/xlink">
<g id="graph0" class="graph" transform="scale(1 1) rotate(0) translate(4 92)">
<title>ogxx::Edge_list_neighbor_iterator</title>
<!-- Node1 -->
<g id="Node000001" class="node">
<title>Node1</title>
<g id="a_Node000001"><a xlink:title=" ">
<polygon fill="#999999" stroke="#666666" points="125.5,-32 0,-32 0,0 125.5,0 125.5,-32"/>
<text text-anchor="start" x="8" y="-18.5" font-family="Helvetica,sans-Serif" font-size="10.00">ogxx::Edge_list_neighbor</text>
<text text-anchor="middle" x="62.75" y="-6.5" font-family="Helvetica,sans-Serif" font-size="10.00">_iterator</text>
</a>
</g>
</g>
<!-- Node2 -->
<g id="Node000002" class="node">
<title>Node2</title>
<g id="a_Node000002"><a xlink:href="../../dc/d8e/classogxx_1_1_basic__iterator.html" target="_top" xlink:title="Generic iterator for traversing a sequence of items of a small easily&#45;copyable or movable type.">
<polygon fill="white" stroke="#666666" points="100,-88 25.5,-88 25.5,-68 100,-68 100,-88"/>
<text text-anchor="middle" x="62.75" y="-74.5" font-family="Helvetica,sans-Serif" font-size="10.00">Index_iterator</text>
</a>
</g>
</g>
<!-- Node2&#45;&gt;Node1 -->
<g id="edge1_Node000001_Node000002" class="edge">
<title>Node2&#45;&gt;Node1</title>
<g id="a_edge1_Node000001_Node000002"><a xlink:title=" ">
<path fill="none" stroke="#63b8ff" d="M56.3,-56.31C55.77,-48.37 55.94,-39.46 56.8,-32.14"/>
<polygon fill="#63b8ff" stroke="#63b8ff" points="52.81,-56.62 57.5,-66.12 59.76,-55.77 52.81,-56.62"/>
</a>
</g>
</g>
<!-- Node2&#45;&gt;Node1 -->
<g id="edge2_Node000001_Node000002" class="edge">
<title>Node2&#45;&gt;Node1</title>
<g id="a_edge2_Node000001_Node000002"><a xlink:title=" ">
<path fill="none" stroke="#63b8ff" d="M69.2,-56.31C69.73,-48.37 69.56,-39.46 68.7,-32.14"/>
<polygon fill="#63b8ff" stroke="#63b8ff" points="65.74,-55.77 68,-66.12 72.69,-56.62 65.74,-55.77"/>
</a>
</g>
</g>
</g>
</svg>
