<?xml version="1.0" encoding="UTF-8" standalone="no"?>
<!DOCTYPE svg PUBLIC "-//W3C//DTD SVG 1.1//EN"
 "http://www.w3.org/Graphics/SVG/1.1/DTD/svg11.dtd">
<!-- Generated by graphviz version 9.0.0 (20230911.1827)
 -->
<!-- Title: ogxx::Edge_list Pages: 1 -->
<svg width="136pt" height="208pt"
 viewBox="0.00 0.00 135.75 208.00" xmlns="http://www.w3.org/2000/svg" xmlns:xlink="http://www.w3.org/1999/xlink">
<g id="graph0" class="graph" transform="scale(1 1) rotate(0) translate(4 204)">
<title>ogxx::Edge_list</title>
<!-- Node1 -->
<g id="Node000001" class="node">
<title>Node1</title>
<g id="a_Node000001"><a xlink:title="Interface (abstract base class) for storing an edge list of a graph.">
<polygon fill="#999999" stroke="#666666" points="105.62,-20 22.12,-20 22.12,0 105.62,0 105.62,-20"/>
<text text-anchor="middle" x="63.88" y="-6.5" font-family="Helvetica,sans-Serif" font-size="10.00">ogxx::Edge_list</text>
</a>
</g>
</g>
<!-- Node2 -->
<g id="Node000002" class="node">
<title>Node2</title>
<g id="a_Node000002"><a xlink:href="../../d2/d24/classogxx_1_1_bag.html" target="_top" xlink:title=" ">
<polygon fill="white" stroke="#666666" points="127.75,-76 0,-76 0,-56 127.75,-56 127.75,-76"/>
<text text-anchor="middle" x="63.88" y="-62.5" font-family="Helvetica,sans-Serif" font-size="10.00">ogxx::Bag&lt; Vertex_pair &gt;</text>
</a>
</g>
</g>
<!-- Node2&#45;&gt;Node1 -->
<g id="edge1_Node000001_Node000002" class="edge">
<title>Node2&#45;&gt;Node1</title>
<g id="a_edge1_Node000001_Node000002"><a xlink:title=" ">
<path fill="none" stroke="#63b8ff" d="M63.88,-44.13C63.88,-35.9 63.88,-26.85 63.88,-20.3"/>
<polygon fill="#63b8ff" stroke="#63b8ff" points="60.38,-44.08 63.88,-54.08 67.38,-44.08 60.38,-44.08"/>
</a>
</g>
</g>
<!-- Node3 -->
<g id="Node000003" class="node">
<title>Node3</title>
<g id="a_Node000003"><a xlink:href="../../d9/d72/classogxx_1_1_sized__iterable.html" target="_top" xlink:title="Not only iterable but we know in advance, how many items it contains.">
<polygon fill="white" stroke="#666666" points="116.12,-144 11.62,-144 11.62,-112 116.12,-112 116.12,-144"/>
<text text-anchor="start" x="19.62" y="-130.5" font-family="Helvetica,sans-Serif" font-size="10.00">ogxx::Sized_iterable</text>
<text text-anchor="middle" x="63.88" y="-118.5" font-family="Helvetica,sans-Serif" font-size="10.00">&lt; Item &gt;</text>
</a>
</g>
</g>
<!-- Node3&#45;&gt;Node2 -->
<g id="edge2_Node000002_Node000003" class="edge">
<title>Node3&#45;&gt;Node2</title>
<g id="a_edge2_Node000002_Node000003"><a xlink:title=" ">
<path fill="none" stroke="#63b8ff" d="M63.88,-100.08C63.88,-91.6 63.88,-82.8 63.88,-76.41"/>
<polygon fill="#63b8ff" stroke="#63b8ff" points="60.38,-100.03 63.88,-110.03 67.38,-100.03 60.38,-100.03"/>
</a>
</g>
</g>
<!-- Node4 -->
<g id="Node000004" class="node">
<title>Node4</title>
<g id="a_Node000004"><a xlink:href="../../d8/d9b/classogxx_1_1_iterable.html" target="_top" xlink:title="An interface for an object that can be iterated with an iterator.">
<polygon fill="white" stroke="#666666" points="119.5,-200 8.25,-200 8.25,-180 119.5,-180 119.5,-200"/>
<text text-anchor="middle" x="63.88" y="-186.5" font-family="Helvetica,sans-Serif" font-size="10.00">ogxx::Iterable&lt; Item &gt;</text>
</a>
</g>
</g>
<!-- Node4&#45;&gt;Node3 -->
<g id="edge3_Node000003_Node000004" class="edge">
<title>Node4&#45;&gt;Node3</title>
<g id="a_edge3_Node000003_Node000004"><a xlink:title=" ">
<path fill="none" stroke="#63b8ff" d="M63.88,-168.31C63.88,-160.37 63.88,-151.46 63.88,-144.14"/>
<polygon fill="#63b8ff" stroke="#63b8ff" points="60.38,-168.11 63.88,-178.11 67.38,-168.11 60.38,-168.11"/>
</a>
</g>
</g>
</g>
</svg>
