<?xml version="1.0" encoding="UTF-8" standalone="no"?>
<!DOCTYPE svg PUBLIC "-//W3C//DTD SVG 1.1//EN"
 "http://www.w3.org/Graphics/SVG/1.1/DTD/svg11.dtd">
<!-- Generated by graphviz version 9.0.0 (20230911.1827)
 -->
<!-- Title: source/point_distance_matrix.cpp Pages: 1 -->
<svg width="757pt" height="388pt"
 viewBox="0.00 0.00 757.12 388.00" xmlns="http://www.w3.org/2000/svg" xmlns:xlink="http://www.w3.org/1999/xlink">
<g id="graph0" class="graph" transform="scale(1 1) rotate(0) translate(4 384)">
<title>source/point_distance_matrix.cpp</title>
<!-- Node1 -->
<g id="Node000001" class="node">
<title>Node1</title>
<g id="a_Node000001"><a xlink:title="Implementation of point distance matrix adapter for a metrics object.">
<polygon fill="#999999" stroke="#666666" points="531.12,-380 419.88,-380 419.88,-348 531.12,-348 531.12,-380"/>
<text text-anchor="start" x="427.88" y="-366.5" font-family="Helvetica,sans-Serif" font-size="10.00">source/point_distance</text>
<text text-anchor="middle" x="475.5" y="-354.5" font-family="Helvetica,sans-Serif" font-size="10.00">_matrix.cpp</text>
</a>
</g>
</g>
<!-- Node2 -->
<g id="Node000002" class="node">
<title>Node2</title>
<g id="a_Node000002"><a xlink:href="../../de/d2f/primitive__definitions_8hpp.html" target="_top" xlink:title="Primitive type declarations like scalar indices and so on.">
<polygon fill="white" stroke="#666666" points="368.88,-76 226.12,-76 226.12,-56 368.88,-56 368.88,-76"/>
<text text-anchor="middle" x="297.5" y="-62.5" font-family="Helvetica,sans-Serif" font-size="10.00">ogxx/primitive_definitions.hpp</text>
</a>
</g>
</g>
<!-- Node1&#45;&gt;Node2 -->
<g id="edge1_Node000001_Node000002" class="edge">
<title>Node1&#45;&gt;Node2</title>
<g id="a_edge1_Node000001_Node000002"><a xlink:title=" ">
<path fill="none" stroke="#63b8ff" d="M464.86,-347.51C458.51,-337.69 450.69,-324.53 445.5,-312 431.96,-279.34 425.5,-270.36 425.5,-235 425.5,-235 425.5,-235 425.5,-177 425.5,-128.79 372.63,-97.11 334.85,-80.63"/>
<polygon fill="#63b8ff" stroke="#63b8ff" points="336.62,-77.58 326.04,-76.96 333.93,-84.04 336.62,-77.58"/>
</a>
</g>
</g>
<!-- Node11 -->
<g id="Node000011" class="node">
<title>Node11</title>
<g id="a_Node000011"><a xlink:href="../../dd/d0c/point__distance__matrix_8hpp.html" target="_top" xlink:title="Facilities to compute distance matrices according to selected metrics.">
<polygon fill="white" stroke="#666666" points="397,-312 294,-312 294,-280 397,-280 397,-312"/>
<text text-anchor="start" x="302" y="-298.5" font-family="Helvetica,sans-Serif" font-size="10.00">ogxx/point_distance</text>
<text text-anchor="middle" x="345.5" y="-286.5" font-family="Helvetica,sans-Serif" font-size="10.00">_matrix.hpp</text>
</a>
</g>
</g>
<!-- Node1&#45;&gt;Node11 -->
<g id="edge10_Node000001_Node000011" class="edge">
<title>Node1&#45;&gt;Node11</title>
<g id="a_edge10_Node000001_Node000011"><a xlink:title=" ">
<path fill="none" stroke="#63b8ff" d="M445.02,-347.53C427.42,-338.59 405.06,-327.24 385.99,-317.56"/>
<polygon fill="#63b8ff" stroke="#63b8ff" points="387.64,-314.47 377.14,-313.06 384.47,-320.71 387.64,-314.47"/>
</a>
</g>
</g>
<!-- Node17 -->
<g id="Node000017" class="node">
<title>Node17</title>
<g id="a_Node000017"><a xlink:href="../../d7/d63/iterator__algorithms_8hpp.html" target="_top" xlink:title="Helper functions to work with iterators inspired by STL algorithm header.">
<polygon fill="white" stroke="#666666" points="139,-244 0,-244 0,-224 139,-224 139,-244"/>
<text text-anchor="middle" x="69.5" y="-230.5" font-family="Helvetica,sans-Serif" font-size="10.00">ogxx/iterator_algorithms.hpp</text>
</a>
</g>
</g>
<!-- Node1&#45;&gt;Node17 -->
<g id="edge21_Node000001_Node000017" class="edge">
<title>Node1&#45;&gt;Node17</title>
<g id="a_edge21_Node000001_Node000017"><a xlink:title=" ">
<path fill="none" stroke="#63b8ff" d="M419.63,-363.24C353.9,-361.49 242.91,-352.1 157.5,-312 127.77,-298.04 100.47,-270.97 84.4,-252.94"/>
<polygon fill="#63b8ff" stroke="#63b8ff" points="87.24,-250.87 78.06,-245.59 81.95,-255.45 87.24,-250.87"/>
</a>
</g>
</g>
<!-- Node18 -->
<g id="Node000018" class="node">
<title>Node18</title>
<g id="a_Node000018"><a xlink:href="../../d4/d29/stl__iterator_8hpp.html" target="_top" xlink:title="This file defines the Stl_iterator class, which provides an iterator for standard C++ containers.">
<polygon fill="white" stroke="#666666" points="270.75,-306 166.25,-306 166.25,-286 270.75,-286 270.75,-306"/>
<text text-anchor="middle" x="218.5" y="-292.5" font-family="Helvetica,sans-Serif" font-size="10.00">ogxx/stl_iterator.hpp</text>
</a>
</g>
</g>
<!-- Node1&#45;&gt;Node18 -->
<g id="edge23_Node000001_Node000018" class="edge">
<title>Node1&#45;&gt;Node18</title>
<g id="a_edge23_Node000001_Node000018"><a xlink:title=" ">
<path fill="none" stroke="#63b8ff" d="M419.42,-348.6C373.73,-336.86 309.9,-320.47 266.54,-309.34"/>
<polygon fill="#63b8ff" stroke="#63b8ff" points="267.45,-305.96 256.89,-306.86 265.71,-312.74 267.45,-305.96"/>
</a>
</g>
</g>
<!-- Node20 -->
<g id="Node000020" class="node">
<title>Node20</title>
<g id="a_Node000020"><a xlink:title=" ">
<polygon fill="#e0e0e0" stroke="#999999" points="497,-306 454,-306 454,-286 497,-286 497,-306"/>
<text text-anchor="middle" x="475.5" y="-292.5" font-family="Helvetica,sans-Serif" font-size="10.00">cmath</text>
</a>
</g>
</g>
<!-- Node1&#45;&gt;Node20 -->
<g id="edge26_Node000001_Node000020" class="edge">
<title>Node1&#45;&gt;Node20</title>
<g id="a_edge26_Node000001_Node000020"><a xlink:title=" ">
<path fill="none" stroke="#63b8ff" d="M475.5,-347.69C475.5,-338.8 475.5,-327.46 475.5,-317.77"/>
<polygon fill="#63b8ff" stroke="#63b8ff" points="479,-317.83 475.5,-307.83 472,-317.83 479,-317.83"/>
</a>
</g>
</g>
<!-- Node21 -->
<g id="Node000021" class="node">
<title>Node21</title>
<g id="a_Node000021"><a xlink:title=" ">
<polygon fill="#e0e0e0" stroke="#999999" points="570.38,-306 514.62,-306 514.62,-286 570.38,-286 570.38,-306"/>
<text text-anchor="middle" x="542.5" y="-292.5" font-family="Helvetica,sans-Serif" font-size="10.00">algorithm</text>
</a>
</g>
</g>
<!-- Node1&#45;&gt;Node21 -->
<g id="edge27_Node000001_Node000021" class="edge">
<title>Node1&#45;&gt;Node21</title>
<g id="a_edge27_Node000001_Node000021"><a xlink:title=" ">
<path fill="none" stroke="#63b8ff" d="M491.04,-347.69C501.19,-337.7 514.46,-324.63 524.98,-314.26"/>
<polygon fill="#63b8ff" stroke="#63b8ff" points="527.3,-316.89 531.96,-307.38 522.38,-311.9 527.3,-316.89"/>
</a>
</g>
</g>
<!-- Node22 -->
<g id="Node000022" class="node">
<title>Node22</title>
<g id="a_Node000022"><a xlink:title=" ">
<polygon fill="#e0e0e0" stroke="#999999" points="638.75,-306 588.25,-306 588.25,-286 638.75,-286 638.75,-306"/>
<text text-anchor="middle" x="613.5" y="-292.5" font-family="Helvetica,sans-Serif" font-size="10.00">numeric</text>
</a>
</g>
</g>
<!-- Node1&#45;&gt;Node22 -->
<g id="edge28_Node000001_Node000022" class="edge">
<title>Node1&#45;&gt;Node22</title>
<g id="a_edge28_Node000001_Node000022"><a xlink:title=" ">
<path fill="none" stroke="#63b8ff" d="M507.85,-347.53C530.72,-336.59 561.15,-322.04 583.48,-311.36"/>
<polygon fill="#63b8ff" stroke="#63b8ff" points="584.84,-314.59 592.35,-307.11 581.82,-308.27 584.84,-314.59"/>
</a>
</g>
</g>
<!-- Node23 -->
<g id="Node000023" class="node">
<title>Node23</title>
<g id="a_Node000023"><a xlink:title=" ">
<polygon fill="#e0e0e0" stroke="#999999" points="698.25,-306 656.75,-306 656.75,-286 698.25,-286 698.25,-306"/>
<text text-anchor="middle" x="677.5" y="-292.5" font-family="Helvetica,sans-Serif" font-size="10.00">vector</text>
</a>
</g>
</g>
<!-- Node1&#45;&gt;Node23 -->
<g id="edge29_Node000001_Node000023" class="edge">
<title>Node1&#45;&gt;Node23</title>
<g id="a_edge29_Node000001_Node000023"><a xlink:title=" ">
<path fill="none" stroke="#63b8ff" d="M531.33,-349.11C565.4,-339.98 609.55,-326.98 647.5,-312 648.27,-311.7 649.05,-311.38 649.83,-311.05"/>
<polygon fill="#63b8ff" stroke="#63b8ff" points="650.96,-314.39 658.59,-307.04 648.04,-308.02 650.96,-314.39"/>
</a>
</g>
</g>
<!-- Node24 -->
<g id="Node000024" class="node">
<title>Node24</title>
<g id="a_Node000024"><a xlink:title=" ">
<polygon fill="#e0e0e0" stroke="#999999" points="749.12,-306 715.88,-306 715.88,-286 749.12,-286 749.12,-306"/>
<text text-anchor="middle" x="732.5" y="-292.5" font-family="Helvetica,sans-Serif" font-size="10.00">new</text>
</a>
</g>
</g>
<!-- Node1&#45;&gt;Node24 -->
<g id="edge30_Node000001_Node000024" class="edge">
<title>Node1&#45;&gt;Node24</title>
<g id="a_edge30_Node000001_Node000024"><a xlink:title=" ">
<path fill="none" stroke="#63b8ff" d="M531.37,-355.91C579.32,-348.62 649.63,-335.01 707.5,-312 707.85,-311.86 708.21,-311.71 708.56,-311.57"/>
<polygon fill="#63b8ff" stroke="#63b8ff" points="709.99,-314.77 717.29,-307.09 706.79,-308.54 709.99,-314.77"/>
</a>
</g>
</g>
<!-- Node3 -->
<g id="Node000003" class="node">
<title>Node3</title>
<g id="a_Node000003"><a xlink:title=" ">
<polygon fill="#e0e0e0" stroke="#999999" points="116.25,-20 68.75,-20 68.75,0 116.25,0 116.25,-20"/>
<text text-anchor="middle" x="92.5" y="-6.5" font-family="Helvetica,sans-Serif" font-size="10.00">cstddef</text>
</a>
</g>
</g>
<!-- Node2&#45;&gt;Node3 -->
<g id="edge2_Node000002_Node000003" class="edge">
<title>Node2&#45;&gt;Node3</title>
<g id="a_edge2_Node000002_Node000003"><a xlink:title=" ">
<path fill="none" stroke="#63b8ff" d="M260.32,-55.55C227.58,-47.19 178.32,-34.48 127.47,-20.77"/>
<polygon fill="#63b8ff" stroke="#63b8ff" points="128.63,-17.46 118.06,-18.23 126.8,-24.22 128.63,-17.46"/>
</a>
</g>
</g>
<!-- Node4 -->
<g id="Node000004" class="node">
<title>Node4</title>
<g id="a_Node000004"><a xlink:title=" ">
<polygon fill="#e0e0e0" stroke="#999999" points="179.12,-20 133.88,-20 133.88,0 179.12,0 179.12,-20"/>
<text text-anchor="middle" x="156.5" y="-6.5" font-family="Helvetica,sans-Serif" font-size="10.00">cstdint</text>
</a>
</g>
</g>
<!-- Node2&#45;&gt;Node4 -->
<g id="edge3_Node000002_Node000004" class="edge">
<title>Node2&#45;&gt;Node4</title>
<g id="a_edge3_Node000002_Node000004"><a xlink:title=" ">
<path fill="none" stroke="#63b8ff" d="M272.94,-55.59C249.98,-46.8 215.52,-33.6 190.04,-23.84"/>
<polygon fill="#63b8ff" stroke="#63b8ff" points="191.38,-20.61 180.79,-20.3 188.88,-27.15 191.38,-20.61"/>
</a>
</g>
</g>
<!-- Node5 -->
<g id="Node000005" class="node">
<title>Node5</title>
<g id="a_Node000005"><a xlink:title=" ">
<polygon fill="#e0e0e0" stroke="#999999" points="225.9,-20 197.1,-20 197.1,0 225.9,0 225.9,-20"/>
<text text-anchor="middle" x="211.5" y="-6.5" font-family="Helvetica,sans-Serif" font-size="10.00">bit</text>
</a>
</g>
</g>
<!-- Node2&#45;&gt;Node5 -->
<g id="edge4_Node000002_Node000005" class="edge">
<title>Node2&#45;&gt;Node5</title>
<g id="a_edge4_Node000002_Node000005"><a xlink:title=" ">
<path fill="none" stroke="#63b8ff" d="M282.52,-55.59C269.69,-47.54 250.98,-35.79 235.98,-26.37"/>
<polygon fill="#63b8ff" stroke="#63b8ff" points="237.92,-23.46 227.59,-21.1 234.2,-29.38 237.92,-23.46"/>
</a>
</g>
</g>
<!-- Node6 -->
<g id="Node000006" class="node">
<title>Node6</title>
<g id="a_Node000006"><a xlink:title=" ">
<polygon fill="#e0e0e0" stroke="#999999" points="283.12,-20 243.88,-20 243.88,0 283.12,0 283.12,-20"/>
<text text-anchor="middle" x="263.5" y="-6.5" font-family="Helvetica,sans-Serif" font-size="10.00">limits</text>
</a>
</g>
</g>
<!-- Node2&#45;&gt;Node6 -->
<g id="edge5_Node000002_Node000006" class="edge">
<title>Node2&#45;&gt;Node6</title>
<g id="a_edge5_Node000002_Node000006"><a xlink:title=" ">
<path fill="none" stroke="#63b8ff" d="M291.58,-55.59C287.14,-48.55 280.92,-38.67 275.46,-30"/>
<polygon fill="#63b8ff" stroke="#63b8ff" points="278.45,-28.18 270.16,-21.58 272.53,-31.91 278.45,-28.18"/>
</a>
</g>
</g>
<!-- Node7 -->
<g id="Node000007" class="node">
<title>Node7</title>
<g id="a_Node000007"><a xlink:title=" ">
<polygon fill="#e0e0e0" stroke="#999999" points="363.38,-20 301.62,-20 301.62,0 363.38,0 363.38,-20"/>
<text text-anchor="middle" x="332.5" y="-6.5" font-family="Helvetica,sans-Serif" font-size="10.00">type_traits</text>
</a>
</g>
</g>
<!-- Node2&#45;&gt;Node7 -->
<g id="edge6_Node000002_Node000007" class="edge">
<title>Node2&#45;&gt;Node7</title>
<g id="a_edge6_Node000002_Node000007"><a xlink:title=" ">
<path fill="none" stroke="#63b8ff" d="M303.6,-55.59C308.21,-48.47 314.71,-38.45 320.37,-29.72"/>
<polygon fill="#63b8ff" stroke="#63b8ff" points="323.15,-31.86 325.65,-21.57 317.27,-28.06 323.15,-31.86"/>
</a>
</g>
</g>
<!-- Node8 -->
<g id="Node000008" class="node">
<title>Node8</title>
<g id="a_Node000008"><a xlink:title=" ">
<polygon fill="#e0e0e0" stroke="#999999" points="433.12,-20 381.88,-20 381.88,0 433.12,0 433.12,-20"/>
<text text-anchor="middle" x="407.5" y="-6.5" font-family="Helvetica,sans-Serif" font-size="10.00">memory</text>
</a>
</g>
</g>
<!-- Node2&#45;&gt;Node8 -->
<g id="edge7_Node000002_Node000008" class="edge">
<title>Node2&#45;&gt;Node8</title>
<g id="a_edge7_Node000002_Node000008"><a xlink:title=" ">
<path fill="none" stroke="#63b8ff" d="M316.66,-55.59C333.59,-47.28 358.55,-35.03 378.02,-25.47"/>
<polygon fill="#63b8ff" stroke="#63b8ff" points="379.4,-28.7 386.83,-21.15 376.31,-22.41 379.4,-28.7"/>
</a>
</g>
</g>
<!-- Node9 -->
<g id="Node000009" class="node">
<title>Node9</title>
<g id="a_Node000009"><a xlink:title=" ">
<polygon fill="#e0e0e0" stroke="#999999" points="490.12,-20 450.88,-20 450.88,0 490.12,0 490.12,-20"/>
<text text-anchor="middle" x="470.5" y="-6.5" font-family="Helvetica,sans-Serif" font-size="10.00">utility</text>
</a>
</g>
</g>
<!-- Node2&#45;&gt;Node9 -->
<g id="edge8_Node000002_Node000009" class="edge">
<title>Node2&#45;&gt;Node9</title>
<g id="a_edge8_Node000002_Node000009"><a xlink:title=" ">
<path fill="none" stroke="#63b8ff" d="M328.36,-55.52C355.5,-47.16 396.34,-34.54 439.82,-20.83"/>
<polygon fill="#63b8ff" stroke="#63b8ff" points="440.7,-24.22 449.18,-17.87 438.59,-17.55 440.7,-24.22"/>
</a>
</g>
</g>
<!-- Node10 -->
<g id="Node000010" class="node">
<title>Node10</title>
<g id="a_Node000010"><a xlink:title=" ">
<polygon fill="#e0e0e0" stroke="#999999" points="566.88,-20 508.12,-20 508.12,0 566.88,0 566.88,-20"/>
<text text-anchor="middle" x="537.5" y="-6.5" font-family="Helvetica,sans-Serif" font-size="10.00">stdexcept</text>
</a>
</g>
</g>
<!-- Node2&#45;&gt;Node10 -->
<g id="edge9_Node000002_Node000010" class="edge">
<title>Node2&#45;&gt;Node10</title>
<g id="a_edge9_Node000002_Node000010"><a xlink:title=" ">
<path fill="none" stroke="#63b8ff" d="M340.88,-55.51C379.42,-47.04 437.56,-34.17 496.61,-20.64"/>
<polygon fill="#63b8ff" stroke="#63b8ff" points="497.2,-24.1 506.16,-18.45 495.63,-17.28 497.2,-24.1"/>
</a>
</g>
</g>
<!-- Node12 -->
<g id="Node000012" class="node">
<title>Node12</title>
<g id="a_Node000012"><a xlink:href="../../db/d3e/iterable_8hpp.html" target="_top" xlink:title="Iterable interfaces.">
<polygon fill="white" stroke="#666666" points="396.62,-188 306.38,-188 306.38,-168 396.62,-168 396.62,-188"/>
<text text-anchor="middle" x="351.5" y="-174.5" font-family="Helvetica,sans-Serif" font-size="10.00">ogxx/iterable.hpp</text>
</a>
</g>
</g>
<!-- Node11&#45;&gt;Node12 -->
<g id="edge11_Node000011_Node000012" class="edge">
<title>Node11&#45;&gt;Node12</title>
<g id="a_edge11_Node000011_Node000012"><a xlink:title=" ">
<path fill="none" stroke="#63b8ff" d="M354.56,-279.52C359.77,-269.7 365.8,-256.53 368.5,-244 371.8,-228.63 366.92,-211.43 361.55,-198.59"/>
<polygon fill="#63b8ff" stroke="#63b8ff" points="364.74,-197.15 357.35,-189.57 358.4,-200.11 364.74,-197.15"/>
</a>
</g>
</g>
<!-- Node14 -->
<g id="Node000014" class="node">
<title>Node14</title>
<g id="a_Node000014"><a xlink:href="../../df/dd1/st__matrix_8hpp.html" target="_top" xlink:title="St_matrix interface, st_ stands for &quot;simple type&quot;, i.e. a thing like int or double.">
<polygon fill="white" stroke="#666666" points="359.12,-244 259.88,-244 259.88,-224 359.12,-224 359.12,-244"/>
<text text-anchor="middle" x="309.5" y="-230.5" font-family="Helvetica,sans-Serif" font-size="10.00">ogxx/st_matrix.hpp</text>
</a>
</g>
</g>
<!-- Node11&#45;&gt;Node14 -->
<g id="edge15_Node000011_Node000014" class="edge">
<title>Node11&#45;&gt;Node14</title>
<g id="a_edge15_Node000011_Node000014"><a xlink:title=" ">
<path fill="none" stroke="#63b8ff" d="M336.23,-279.55C331.59,-271.82 325.94,-262.4 321.03,-254.21"/>
<polygon fill="#63b8ff" stroke="#63b8ff" points="324.07,-252.48 315.92,-245.71 318.07,-256.08 324.07,-252.48"/>
</a>
</g>
</g>
<!-- Node12&#45;&gt;Node2 -->
<g id="edge12_Node000012_Node000002" class="edge">
<title>Node12&#45;&gt;Node2</title>
<g id="a_edge12_Node000012_Node000002"><a xlink:title=" ">
<path fill="none" stroke="#63b8ff" d="M350.15,-167.74C347.98,-154.73 342.98,-130.56 333.5,-112 328.46,-102.14 321.05,-92.39 314.26,-84.51"/>
<polygon fill="#63b8ff" stroke="#63b8ff" points="317.07,-82.4 307.77,-77.33 311.88,-87.09 317.07,-82.4"/>
</a>
</g>
</g>
<!-- Node13 -->
<g id="Node000013" class="node">
<title>Node13</title>
<g id="a_Node000013"><a xlink:href="../../d9/dde/iterator_8hpp.html" target="_top" xlink:title="Linear sequence iterator interfaces.">
<polygon fill="white" stroke="#666666" points="214.88,-132 126.12,-132 126.12,-112 214.88,-112 214.88,-132"/>
<text text-anchor="middle" x="170.5" y="-118.5" font-family="Helvetica,sans-Serif" font-size="10.00">ogxx/iterator.hpp</text>
</a>
</g>
</g>
<!-- Node12&#45;&gt;Node13 -->
<g id="edge13_Node000012_Node000013" class="edge">
<title>Node12&#45;&gt;Node13</title>
<g id="a_edge13_Node000012_Node000013"><a xlink:title=" ">
<path fill="none" stroke="#63b8ff" d="M319.97,-167.59C290.31,-158.74 245.67,-145.43 212.89,-135.65"/>
<polygon fill="#63b8ff" stroke="#63b8ff" points="214.31,-132.42 203.72,-132.91 212.31,-139.13 214.31,-132.42"/>
</a>
</g>
</g>
<!-- Node13&#45;&gt;Node2 -->
<g id="edge14_Node000013_Node000002" class="edge">
<title>Node13&#45;&gt;Node2</title>
<g id="a_edge14_Node000013_Node000002"><a xlink:title=" ">
<path fill="none" stroke="#63b8ff" d="M192.62,-111.59C212.53,-103.13 242.05,-90.58 264.71,-80.94"/>
<polygon fill="#63b8ff" stroke="#63b8ff" points="265.98,-84.21 273.81,-77.07 263.24,-77.76 265.98,-84.21"/>
</a>
</g>
</g>
<!-- Node14&#45;&gt;Node12 -->
<g id="edge16_Node000014_Node000012" class="edge">
<title>Node14&#45;&gt;Node12</title>
<g id="a_edge16_Node000014_Node000012"><a xlink:title=" ">
<path fill="none" stroke="#63b8ff" d="M316.82,-223.59C322.48,-216.32 330.49,-206.02 337.39,-197.15"/>
<polygon fill="#63b8ff" stroke="#63b8ff" points="339.96,-199.54 343.34,-189.49 334.44,-195.24 339.96,-199.54"/>
</a>
</g>
</g>
<!-- Node15 -->
<g id="Node000015" class="node">
<title>Node15</title>
<g id="a_Node000015"><a xlink:href="../../df/dce/matrix_8hpp.html" target="_top" xlink:title="Abstract matrix interface.">
<polygon fill="white" stroke="#666666" points="286.38,-188 200.62,-188 200.62,-168 286.38,-168 286.38,-188"/>
<text text-anchor="middle" x="243.5" y="-174.5" font-family="Helvetica,sans-Serif" font-size="10.00">ogxx/matrix.hpp</text>
</a>
</g>
</g>
<!-- Node14&#45;&gt;Node15 -->
<g id="edge17_Node000014_Node000015" class="edge">
<title>Node14&#45;&gt;Node15</title>
<g id="a_edge17_Node000014_Node000015"><a xlink:title=" ">
<path fill="none" stroke="#63b8ff" d="M298,-223.59C288.54,-215.85 274.9,-204.69 263.63,-195.47"/>
<polygon fill="#63b8ff" stroke="#63b8ff" points="265.99,-192.88 256.04,-189.26 261.56,-198.3 265.99,-192.88"/>
</a>
</g>
</g>
<!-- Node15&#45;&gt;Node2 -->
<g id="edge18_Node000015_Node000002" class="edge">
<title>Node15&#45;&gt;Node2</title>
<g id="a_edge18_Node000015_Node000002"><a xlink:title=" ">
<path fill="none" stroke="#63b8ff" d="M244.85,-167.74C247.02,-154.73 252.02,-130.56 261.5,-112 266.54,-102.14 273.95,-92.39 280.74,-84.51"/>
<polygon fill="#63b8ff" stroke="#63b8ff" points="283.12,-87.09 287.23,-77.33 277.93,-82.4 283.12,-87.09"/>
</a>
</g>
</g>
<!-- Node15&#45;&gt;Node13 -->
<g id="edge19_Node000015_Node000013" class="edge">
<title>Node15&#45;&gt;Node13</title>
<g id="a_edge19_Node000015_Node000013"><a xlink:title=" ">
<path fill="none" stroke="#63b8ff" d="M230.78,-167.59C220.11,-159.7 204.62,-148.24 192.02,-138.92"/>
<polygon fill="#63b8ff" stroke="#63b8ff" points="194.41,-136.33 184.29,-133.2 190.24,-141.96 194.41,-136.33"/>
</a>
</g>
</g>
<!-- Node16 -->
<g id="Node000016" class="node">
<title>Node16</title>
<g id="a_Node000016"><a xlink:title=" ">
<polygon fill="#e0e0e0" stroke="#999999" points="324.25,-132 270.75,-132 270.75,-112 324.25,-112 324.25,-132"/>
<text text-anchor="middle" x="297.5" y="-118.5" font-family="Helvetica,sans-Serif" font-size="10.00">compare</text>
</a>
</g>
</g>
<!-- Node15&#45;&gt;Node16 -->
<g id="edge20_Node000015_Node000016" class="edge">
<title>Node15&#45;&gt;Node16</title>
<g id="a_edge20_Node000015_Node000016"><a xlink:title=" ">
<path fill="none" stroke="#63b8ff" d="M252.91,-167.59C260.42,-160.08 271.15,-149.35 280.2,-140.3"/>
<polygon fill="#63b8ff" stroke="#63b8ff" points="282.54,-142.91 287.13,-133.37 277.59,-137.96 282.54,-142.91"/>
</a>
</g>
</g>
<!-- Node17&#45;&gt;Node13 -->
<g id="edge22_Node000017_Node000013" class="edge">
<title>Node17&#45;&gt;Node13</title>
<g id="a_edge22_Node000017_Node000013"><a xlink:title=" ">
<path fill="none" stroke="#63b8ff" d="M78.11,-223.62C94.96,-205.27 132.51,-164.37 154.2,-140.75"/>
<polygon fill="#63b8ff" stroke="#63b8ff" points="156.7,-143.2 160.89,-133.47 151.55,-138.47 156.7,-143.2"/>
</a>
</g>
</g>
<!-- Node18&#45;&gt;Node13 -->
<g id="edge25_Node000018_Node000013" class="edge">
<title>Node18&#45;&gt;Node13</title>
<g id="a_edge25_Node000018_Node000013"><a xlink:title=" ">
<path fill="none" stroke="#63b8ff" d="M210.77,-285.5C203.25,-275.72 192.17,-259.73 186.5,-244 174.38,-210.37 171.29,-168.53 170.58,-143.89"/>
<polygon fill="#63b8ff" stroke="#63b8ff" points="174.09,-143.88 170.42,-133.94 167.09,-143.99 174.09,-143.88"/>
</a>
</g>
</g>
<!-- Node19 -->
<g id="Node000019" class="node">
<title>Node19</title>
<g id="a_Node000019"><a xlink:title=" ">
<polygon fill="#e0e0e0" stroke="#999999" points="241.5,-244 195.5,-244 195.5,-224 241.5,-224 241.5,-244"/>
<text text-anchor="middle" x="218.5" y="-230.5" font-family="Helvetica,sans-Serif" font-size="10.00">iterator</text>
</a>
</g>
</g>
<!-- Node18&#45;&gt;Node19 -->
<g id="edge24_Node000018_Node000019" class="edge">
<title>Node18&#45;&gt;Node19</title>
<g id="a_edge24_Node000018_Node000019"><a xlink:title=" ">
<path fill="none" stroke="#63b8ff" d="M218.5,-285.62C218.5,-277.56 218.5,-265.65 218.5,-255.41"/>
<polygon fill="#63b8ff" stroke="#63b8ff" points="222,-255.63 218.5,-245.63 215,-255.63 222,-255.63"/>
</a>
</g>
</g>
</g>
</svg>
