<?xml version="1.0" encoding="UTF-8" standalone="no"?>
<!DOCTYPE svg PUBLIC "-//W3C//DTD SVG 1.1//EN"
 "http://www.w3.org/Graphics/SVG/1.1/DTD/svg11.dtd">
<!-- Generated by graphviz version 9.0.0 (20230911.1827)
 -->
<!-- Title: ogxx::Bag&lt; Item &gt; Pages: 1 -->
<svg width="358pt" height="344pt"
 viewBox="0.00 0.00 358.00 344.00" xmlns="http://www.w3.org/2000/svg" xmlns:xlink="http://www.w3.org/1999/xlink">
<g id="graph0" class="graph" transform="scale(1 1) rotate(0) translate(4 340)">
<title>ogxx::Bag&lt; Item &gt;</title>
<!-- Node1 -->
<g id="Node000001" class="node">
<title>Node1</title>
<g id="a_Node000001"><a xlink:title="Generic container interface with inserts and erases but no fixed ordering of items.">
<polygon fill="#999999" stroke="#666666" points="236.75,-212 139.75,-212 139.75,-192 236.75,-192 236.75,-212"/>
<text text-anchor="middle" x="188.25" y="-198.5" font-family="Helvetica,sans-Serif" font-size="10.00">ogxx::Bag&lt; Item &gt;</text>
</a>
</g>
</g>
<!-- Node4 -->
<g id="Node000004" class="node">
<title>Node4</title>
<g id="a_Node000004"><a xlink:href="../../d8/d68/classogxx_1_1_list.html" target="_top" xlink:title=" ">
<polygon fill="white" stroke="#666666" points="122.5,-150 0,-150 0,-130 122.5,-130 122.5,-150"/>
<text text-anchor="middle" x="61.25" y="-136.5" font-family="Helvetica,sans-Serif" font-size="10.00">ogxx::List&lt; Adjacency &gt;</text>
</a>
</g>
</g>
<!-- Node1&#45;&gt;Node4 -->
<g id="edge3_Node000001_Node000004" class="edge">
<title>Node1&#45;&gt;Node4</title>
<g id="a_edge3_Node000001_Node000004"><a xlink:title=" ">
<path fill="none" stroke="#63b8ff" d="M158.13,-186.77C134.26,-175.49 101.59,-160.06 80.95,-150.31"/>
<polygon fill="#63b8ff" stroke="#63b8ff" points="156.5,-189.87 167.04,-190.98 159.49,-183.54 156.5,-189.87"/>
</a>
</g>
</g>
<!-- Node7 -->
<g id="Node000007" class="node">
<title>Node7</title>
<g id="a_Node000007"><a xlink:href="../../d8/d68/classogxx_1_1_list.html" target="_top" xlink:title=" ">
<polygon fill="white" stroke="#666666" points="236.38,-156 140.12,-156 140.12,-124 236.38,-124 236.38,-156"/>
<text text-anchor="start" x="148.12" y="-142.5" font-family="Helvetica,sans-Serif" font-size="10.00">ogxx::List&lt; Vertex</text>
<text text-anchor="middle" x="188.25" y="-130.5" font-family="Helvetica,sans-Serif" font-size="10.00">_pair &gt;</text>
</a>
</g>
</g>
<!-- Node1&#45;&gt;Node7 -->
<g id="edge7_Node000001_Node000007" class="edge">
<title>Node1&#45;&gt;Node7</title>
<g id="a_edge7_Node000001_Node000007"><a xlink:title=" ">
<path fill="none" stroke="#63b8ff" d="M188.25,-180.31C188.25,-172.37 188.25,-163.46 188.25,-156.14"/>
<polygon fill="#63b8ff" stroke="#63b8ff" points="184.75,-180.11 188.25,-190.11 191.75,-180.11 184.75,-180.11"/>
</a>
</g>
</g>
<!-- Node8 -->
<g id="Node000008" class="node">
<title>Node8</title>
<g id="a_Node000008"><a xlink:href="../../d8/d68/classogxx_1_1_list.html" target="_top" xlink:title="Generic container interface with inserts and erases and stores them in linear order as a list.">
<polygon fill="white" stroke="#666666" points="350,-150 254.5,-150 254.5,-130 350,-130 350,-150"/>
<text text-anchor="middle" x="302.25" y="-136.5" font-family="Helvetica,sans-Serif" font-size="10.00">ogxx::List&lt; Item &gt;</text>
</a>
</g>
</g>
<!-- Node1&#45;&gt;Node8 -->
<g id="edge8_Node000001_Node000008" class="edge">
<title>Node1&#45;&gt;Node8</title>
<g id="a_edge8_Node000001_Node000008"><a xlink:title=" ">
<path fill="none" stroke="#63b8ff" d="M216.16,-186.31C237.51,-175.08 266.29,-159.93 284.56,-150.31"/>
<polygon fill="#63b8ff" stroke="#63b8ff" points="214.62,-183.17 207.4,-190.92 217.88,-189.36 214.62,-183.17"/>
</a>
</g>
</g>
<!-- Node2 -->
<g id="Node000002" class="node">
<title>Node2</title>
<g id="a_Node000002"><a xlink:href="../../d9/d72/classogxx_1_1_sized__iterable.html" target="_top" xlink:title="Not only iterable but we know in advance, how many items it contains.">
<polygon fill="white" stroke="#666666" points="240.5,-280 136,-280 136,-248 240.5,-248 240.5,-280"/>
<text text-anchor="start" x="144" y="-266.5" font-family="Helvetica,sans-Serif" font-size="10.00">ogxx::Sized_iterable</text>
<text text-anchor="middle" x="188.25" y="-254.5" font-family="Helvetica,sans-Serif" font-size="10.00">&lt; Item &gt;</text>
</a>
</g>
</g>
<!-- Node2&#45;&gt;Node1 -->
<g id="edge1_Node000001_Node000002" class="edge">
<title>Node2&#45;&gt;Node1</title>
<g id="a_edge1_Node000001_Node000002"><a xlink:title=" ">
<path fill="none" stroke="#63b8ff" d="M188.25,-236.08C188.25,-227.6 188.25,-218.8 188.25,-212.41"/>
<polygon fill="#63b8ff" stroke="#63b8ff" points="184.75,-236.03 188.25,-246.03 191.75,-236.03 184.75,-236.03"/>
</a>
</g>
</g>
<!-- Node3 -->
<g id="Node000003" class="node">
<title>Node3</title>
<g id="a_Node000003"><a xlink:href="../../d8/d9b/classogxx_1_1_iterable.html" target="_top" xlink:title="An interface for an object that can be iterated with an iterator.">
<polygon fill="white" stroke="#666666" points="243.88,-336 132.62,-336 132.62,-316 243.88,-316 243.88,-336"/>
<text text-anchor="middle" x="188.25" y="-322.5" font-family="Helvetica,sans-Serif" font-size="10.00">ogxx::Iterable&lt; Item &gt;</text>
</a>
</g>
</g>
<!-- Node3&#45;&gt;Node2 -->
<g id="edge2_Node000002_Node000003" class="edge">
<title>Node3&#45;&gt;Node2</title>
<g id="a_edge2_Node000002_Node000003"><a xlink:title=" ">
<path fill="none" stroke="#63b8ff" d="M188.25,-304.31C188.25,-296.37 188.25,-287.46 188.25,-280.14"/>
<polygon fill="#63b8ff" stroke="#63b8ff" points="184.75,-304.11 188.25,-314.11 191.75,-304.11 184.75,-304.11"/>
</a>
</g>
</g>
<!-- Node5 -->
<g id="Node000005" class="node">
<title>Node5</title>
<g id="a_Node000005"><a xlink:href="../../d3/d35/classogxx_1_1_adjacency__list.html" target="_top" xlink:title="Graph representation where, which maps vertex index to the adjacency of that vertex.">
<polygon fill="white" stroke="#666666" points="114.62,-88 7.88,-88 7.88,-68 114.62,-68 114.62,-88"/>
<text text-anchor="middle" x="61.25" y="-74.5" font-family="Helvetica,sans-Serif" font-size="10.00">ogxx::Adjacency_list</text>
</a>
</g>
</g>
<!-- Node4&#45;&gt;Node5 -->
<g id="edge4_Node000004_Node000005" class="edge">
<title>Node4&#45;&gt;Node5</title>
<g id="a_edge4_Node000004_Node000005"><a xlink:title=" ">
<path fill="none" stroke="#63b8ff" d="M61.25,-118.25C61.25,-107.97 61.25,-96.09 61.25,-88.11"/>
<polygon fill="#63b8ff" stroke="#63b8ff" points="57.75,-118.11 61.25,-128.11 64.75,-118.11 57.75,-118.11"/>
</a>
</g>
</g>
<!-- Node6 -->
<g id="Node000006" class="node">
<title>Node6</title>
<g id="a_Node000006"><a xlink:href="../../d4/dae/classogxx_1_1_adjacency__list__vector.html" target="_top" xlink:title=" ">
<polygon fill="white" stroke="#666666" points="114.62,-32 7.88,-32 7.88,0 114.62,0 114.62,-32"/>
<text text-anchor="start" x="15.88" y="-18.5" font-family="Helvetica,sans-Serif" font-size="10.00">ogxx::Adjacency_list</text>
<text text-anchor="middle" x="61.25" y="-6.5" font-family="Helvetica,sans-Serif" font-size="10.00">_vector</text>
</a>
</g>
</g>
<!-- Node5&#45;&gt;Node6 -->
<g id="edge5_Node000005_Node000006" class="edge">
<title>Node5&#45;&gt;Node6</title>
<g id="a_edge5_Node000005_Node000006"><a xlink:title=" ">
<path fill="none" stroke="#63b8ff" d="M54.8,-56.31C54.27,-48.37 54.44,-39.46 55.3,-32.14"/>
<polygon fill="#63b8ff" stroke="#63b8ff" points="51.31,-56.62 56,-66.12 58.26,-55.77 51.31,-56.62"/>
</a>
</g>
</g>
<!-- Node5&#45;&gt;Node6 -->
<g id="edge6_Node000005_Node000006" class="edge">
<title>Node5&#45;&gt;Node6</title>
<g id="a_edge6_Node000005_Node000006"><a xlink:title=" ">
<path fill="none" stroke="#63b8ff" d="M67.7,-56.31C68.23,-48.37 68.06,-39.46 67.2,-32.14"/>
<polygon fill="#63b8ff" stroke="#63b8ff" points="64.24,-55.77 66.5,-66.12 71.19,-56.62 64.24,-55.77"/>
</a>
</g>
</g>
</g>
</svg>
