<?xml version="1.0" encoding="UTF-8" standalone="no"?>
<!DOCTYPE svg PUBLIC "-//W3C//DTD SVG 1.1//EN"
 "http://www.w3.org/Graphics/SVG/1.1/DTD/svg11.dtd">
<!-- Generated by graphviz version 9.0.0 (20230911.1827)
 -->
<!-- Title: tests/build_all.cpp Pages: 1 -->
<svg width="1161pt" height="556pt"
 viewBox="0.00 0.00 1161.00 556.00" xmlns="http://www.w3.org/2000/svg" xmlns:xlink="http://www.w3.org/1999/xlink">
<g id="graph0" class="graph" transform="scale(1 1) rotate(0) translate(4 552)">
<title>tests/build_all.cpp</title>
<!-- Node1 -->
<g id="Node000001" class="node">
<title>Node1</title>
<g id="a_Node000001"><a xlink:title="Include all test files here to build them at once.">
<polygon fill="#999999" stroke="#666666" points="473.38,-548 378.62,-548 378.62,-528 473.38,-528 473.38,-548"/>
<text text-anchor="middle" x="426" y="-534.5" font-family="Helvetica,sans-Serif" font-size="10.00">tests/build_all.cpp</text>
</a>
</g>
</g>
<!-- Node2 -->
<g id="Node000002" class="node">
<title>Node2</title>
<g id="a_Node000002"><a xlink:href="../../dc/d9b/is__within__clamp__min__max_8cpp.html" target="_top" xlink:title="Tests for is_within, clamp, min and max functions.">
<polygon fill="white" stroke="#666666" points="106,-492 0,-492 0,-460 106,-460 106,-492"/>
<text text-anchor="start" x="8" y="-478.5" font-family="Helvetica,sans-Serif" font-size="10.00">is_within_clamp_min</text>
<text text-anchor="middle" x="53" y="-466.5" font-family="Helvetica,sans-Serif" font-size="10.00">_max.cpp</text>
</a>
</g>
</g>
<!-- Node1&#45;&gt;Node2 -->
<g id="edge1_Node000001_Node000002" class="edge">
<title>Node1&#45;&gt;Node2</title>
<g id="a_edge1_Node000001_Node000002"><a xlink:title=" ">
<path fill="none" stroke="#63b8ff" d="M378.35,-531.51C319.33,-524.41 215.52,-510.9 117.38,-492.35"/>
<polygon fill="#63b8ff" stroke="#63b8ff" points="118.33,-488.97 107.85,-490.53 117.02,-495.85 118.33,-488.97"/>
</a>
</g>
</g>
<!-- Node15 -->
<g id="Node000015" class="node">
<title>Node15</title>
<g id="a_Node000015"><a xlink:href="../../dd/d7e/stl__iterator__and__iterator__algorithms_8cpp.html" target="_top" xlink:title="Testing Stl_iterator and iterator_algorithms.hpp.">
<polygon fill="white" stroke="#666666" points="973,-492 855,-492 855,-460 973,-460 973,-492"/>
<text text-anchor="start" x="863" y="-478.5" font-family="Helvetica,sans-Serif" font-size="10.00">stl_iterator_and_iterator</text>
<text text-anchor="middle" x="914" y="-466.5" font-family="Helvetica,sans-Serif" font-size="10.00">_algorithms.cpp</text>
</a>
</g>
</g>
<!-- Node1&#45;&gt;Node15 -->
<g id="edge15_Node000001_Node000015" class="edge">
<title>Node1&#45;&gt;Node15</title>
<g id="a_edge15_Node000001_Node000015"><a xlink:title=" ">
<path fill="none" stroke="#63b8ff" d="M473.77,-531.24C544.12,-522.74 679.72,-506.3 795,-492 810.63,-490.06 827.41,-487.96 843.3,-485.96"/>
<polygon fill="#63b8ff" stroke="#63b8ff" points="843.7,-489.44 853.19,-484.71 842.83,-482.49 843.7,-489.44"/>
</a>
</g>
</g>
<!-- Node23 -->
<g id="Node000023" class="node">
<title>Node23</title>
<g id="a_Node000023"><a xlink:href="../../d8/d88/matrix__index__shape__window_8cpp.html" target="_top" xlink:title="Tests Matrix_index, Matrix_shape, Matrix_window structs.">
<polygon fill="white" stroke="#666666" points="227.5,-492 124.5,-492 124.5,-460 227.5,-460 227.5,-492"/>
<text text-anchor="start" x="132.5" y="-478.5" font-family="Helvetica,sans-Serif" font-size="10.00">matrix_index_shape</text>
<text text-anchor="middle" x="176" y="-466.5" font-family="Helvetica,sans-Serif" font-size="10.00">_window.cpp</text>
</a>
</g>
</g>
<!-- Node1&#45;&gt;Node23 -->
<g id="edge26_Node000001_Node000023" class="edge">
<title>Node1&#45;&gt;Node23</title>
<g id="a_edge26_Node000001_Node000023"><a xlink:title=" ">
<path fill="none" stroke="#63b8ff" d="M385.79,-527.52C349.83,-519.02 295.4,-506.1 238.86,-492.44"/>
<polygon fill="#63b8ff" stroke="#63b8ff" points="239.92,-489.1 229.38,-490.15 238.28,-495.9 239.92,-489.1"/>
</a>
</g>
</g>
<!-- Node26 -->
<g id="Node000026" class="node">
<title>Node26</title>
<g id="a_Node000026"><a xlink:href="../../db/dc8/tests_2dense__st__matrix_8cpp.html" target="_top" xlink:title="A helper file to be included in each testing cpp.">
<polygon fill="white" stroke="#666666" points="352.38,-486 245.62,-486 245.62,-466 352.38,-466 352.38,-486"/>
<text text-anchor="middle" x="299" y="-472.5" font-family="Helvetica,sans-Serif" font-size="10.00">dense_st_matrix.cpp</text>
</a>
</g>
</g>
<!-- Node1&#45;&gt;Node26 -->
<g id="edge32_Node000001_Node000026" class="edge">
<title>Node1&#45;&gt;Node26</title>
<g id="a_edge32_Node000001_Node000026"><a xlink:title=" ">
<path fill="none" stroke="#63b8ff" d="M406.16,-527.62C385.47,-517.85 352.79,-502.41 328.96,-491.15"/>
<polygon fill="#63b8ff" stroke="#63b8ff" points="330.61,-488.06 320.07,-486.96 327.62,-494.39 330.61,-488.06"/>
</a>
</g>
</g>
<!-- Node29 -->
<g id="Node000029" class="node">
<title>Node29</title>
<g id="a_Node000029"><a xlink:href="../../d2/d31/tests_2index__set__sortedvector_8cpp.html" target="_top" xlink:title="Testing Index_set_sortedvector class.">
<polygon fill="white" stroke="#666666" points="786.25,-486 651.75,-486 651.75,-466 786.25,-466 786.25,-486"/>
<text text-anchor="middle" x="719" y="-472.5" font-family="Helvetica,sans-Serif" font-size="10.00">index_set_sortedvector.cpp</text>
</a>
</g>
</g>
<!-- Node1&#45;&gt;Node29 -->
<g id="edge39_Node000001_Node000029" class="edge">
<title>Node1&#45;&gt;Node29</title>
<g id="a_edge39_Node000001_Node000029"><a xlink:title=" ">
<path fill="none" stroke="#63b8ff" d="M472.1,-527.56C523.37,-517.06 606.23,-500.09 661.64,-488.75"/>
<polygon fill="#63b8ff" stroke="#63b8ff" points="662.1,-492.22 671.2,-486.79 660.7,-485.37 662.1,-492.22"/>
</a>
</g>
</g>
<!-- Node31 -->
<g id="Node000031" class="node">
<title>Node31</title>
<g id="a_Node000031"><a xlink:href="../../d0/ddf/tests_2st__matrix__io__read_8cpp.html" target="_top" xlink:title="St_matrix io::read function tests.">
<polygon fill="white" stroke="#666666" points="482,-486 370,-486 370,-466 482,-466 482,-486"/>
<text text-anchor="middle" x="426" y="-472.5" font-family="Helvetica,sans-Serif" font-size="10.00">st_matrix_io_read.cpp</text>
</a>
</g>
</g>
<!-- Node1&#45;&gt;Node31 -->
<g id="edge46_Node000001_Node000031" class="edge">
<title>Node1&#45;&gt;Node31</title>
<g id="a_edge46_Node000001_Node000031"><a xlink:title=" ">
<path fill="none" stroke="#63b8ff" d="M426,-527.62C426,-519.56 426,-507.65 426,-497.41"/>
<polygon fill="#63b8ff" stroke="#63b8ff" points="429.5,-497.63 426,-487.63 422.5,-497.63 429.5,-497.63"/>
</a>
</g>
</g>
<!-- Node36 -->
<g id="Node000036" class="node">
<title>Node36</title>
<g id="a_Node000036"><a xlink:href="../../d0/d40/tests_2adjacency__list__io__read_8cpp.html" target="_top" xlink:title="Adjacency list io::read function tests.">
<polygon fill="white" stroke="#666666" points="633.88,-486 500.12,-486 500.12,-466 633.88,-466 633.88,-486"/>
<text text-anchor="middle" x="567" y="-472.5" font-family="Helvetica,sans-Serif" font-size="10.00">adjacency_list_io_read.cpp</text>
</a>
</g>
</g>
<!-- Node1&#45;&gt;Node36 -->
<g id="edge53_Node000001_Node000036" class="edge">
<title>Node1&#45;&gt;Node36</title>
<g id="a_edge53_Node000001_Node000036"><a xlink:title=" ">
<path fill="none" stroke="#63b8ff" d="M448.03,-527.62C471.31,-517.72 508.26,-501.99 534.81,-490.7"/>
<polygon fill="#63b8ff" stroke="#63b8ff" points="535.9,-494.04 543.73,-486.9 533.16,-487.6 535.9,-494.04"/>
</a>
</g>
</g>
<!-- Node3 -->
<g id="Node000003" class="node">
<title>Node3</title>
<g id="a_Node000003"><a xlink:href="../../d0/d53/testing__head_8hpp.html" target="_top" xlink:title="A helper file to be included in each testing cpp.">
<polygon fill="white" stroke="#666666" points="314.12,-418 223.88,-418 223.88,-398 314.12,-398 314.12,-418"/>
<text text-anchor="middle" x="269" y="-404.5" font-family="Helvetica,sans-Serif" font-size="10.00">testing_head.hpp</text>
</a>
</g>
</g>
<!-- Node2&#45;&gt;Node3 -->
<g id="edge2_Node000002_Node000003" class="edge">
<title>Node2&#45;&gt;Node3</title>
<g id="a_edge2_Node000002_Node000003"><a xlink:title=" ">
<path fill="none" stroke="#63b8ff" d="M103.64,-459.53C141.22,-448.04 191.86,-432.57 227.15,-421.79"/>
<polygon fill="#63b8ff" stroke="#63b8ff" points="228.05,-425.17 236.59,-418.9 226.01,-418.48 228.05,-425.17"/>
</a>
</g>
</g>
<!-- Node5 -->
<g id="Node000005" class="node">
<title>Node5</title>
<g id="a_Node000005"><a xlink:href="../../de/d2f/primitive__definitions_8hpp.html" target="_top" xlink:title="Primitive type declarations like scalar indices and so on.">
<polygon fill="white" stroke="#666666" points="472.38,-76 329.62,-76 329.62,-56 472.38,-56 472.38,-76"/>
<text text-anchor="middle" x="401" y="-62.5" font-family="Helvetica,sans-Serif" font-size="10.00">ogxx/primitive_definitions.hpp</text>
</a>
</g>
</g>
<!-- Node2&#45;&gt;Node5 -->
<g id="edge13_Node000002_Node000005" class="edge">
<title>Node2&#45;&gt;Node5</title>
<g id="a_edge13_Node000002_Node000005"><a xlink:title=" ">
<path fill="none" stroke="#63b8ff" d="M53,-459.63C53,-435.6 53,-387.67 53,-347 53,-347 53,-347 53,-177 53,-121.65 215.07,-90.62 318,-76.49"/>
<polygon fill="#63b8ff" stroke="#63b8ff" points="318.37,-79.97 327.82,-75.17 317.44,-73.03 318.37,-79.97"/>
</a>
</g>
</g>
<!-- Node14 -->
<g id="Node000014" class="node">
<title>Node14</title>
<g id="a_Node000014"><a xlink:title=" ">
<polygon fill="#e0e0e0" stroke="#999999" points="124.5,-418 81.5,-418 81.5,-398 124.5,-398 124.5,-418"/>
<text text-anchor="middle" x="103" y="-404.5" font-family="Helvetica,sans-Serif" font-size="10.00">cmath</text>
</a>
</g>
</g>
<!-- Node2&#45;&gt;Node14 -->
<g id="edge14_Node000002_Node000014" class="edge">
<title>Node2&#45;&gt;Node14</title>
<g id="a_edge14_Node000002_Node000014"><a xlink:title=" ">
<path fill="none" stroke="#63b8ff" d="M64.6,-459.69C71.94,-450 81.48,-437.41 89.21,-427.2"/>
<polygon fill="#63b8ff" stroke="#63b8ff" points="91.78,-429.61 95.03,-419.52 86.2,-425.38 91.78,-429.61"/>
</a>
</g>
</g>
<!-- Node4 -->
<g id="Node000004" class="node">
<title>Node4</title>
<g id="a_Node000004"><a xlink:title=" ">
<polygon fill="#e0e0e0" stroke="#999999" points="273.88,-356 182.12,-356 182.12,-336 273.88,-336 273.88,-356"/>
<text text-anchor="middle" x="228" y="-342.5" font-family="Helvetica,sans-Serif" font-size="10.00">doctest/doctest.h</text>
</a>
</g>
</g>
<!-- Node3&#45;&gt;Node4 -->
<g id="edge3_Node000003_Node000004" class="edge">
<title>Node3&#45;&gt;Node4</title>
<g id="a_edge3_Node000003_Node000004"><a xlink:title=" ">
<path fill="none" stroke="#63b8ff" d="M262.59,-397.62C256.72,-389.03 247.86,-376.07 240.58,-365.41"/>
<polygon fill="#63b8ff" stroke="#63b8ff" points="243.61,-363.64 235.08,-357.36 237.83,-367.59 243.61,-363.64"/>
</a>
</g>
</g>
<!-- Node3&#45;&gt;Node5 -->
<g id="edge4_Node000003_Node000005" class="edge">
<title>Node3&#45;&gt;Node5</title>
<g id="a_edge4_Node000003_Node000005"><a xlink:title=" ">
<path fill="none" stroke="#63b8ff" d="M234.28,-397.53C189.14,-382.87 116,-350 116,-291 116,-291 116,-291 116,-177 116,-130.22 251.31,-95.68 335.46,-78.73"/>
<polygon fill="#63b8ff" stroke="#63b8ff" points="336.11,-82.17 345.24,-76.79 334.75,-75.3 336.11,-82.17"/>
</a>
</g>
</g>
<!-- Node6 -->
<g id="Node000006" class="node">
<title>Node6</title>
<g id="a_Node000006"><a xlink:title=" ">
<polygon fill="#e0e0e0" stroke="#999999" points="219.75,-20 172.25,-20 172.25,0 219.75,0 219.75,-20"/>
<text text-anchor="middle" x="196" y="-6.5" font-family="Helvetica,sans-Serif" font-size="10.00">cstddef</text>
</a>
</g>
</g>
<!-- Node5&#45;&gt;Node6 -->
<g id="edge5_Node000005_Node000006" class="edge">
<title>Node5&#45;&gt;Node6</title>
<g id="a_edge5_Node000005_Node000006"><a xlink:title=" ">
<path fill="none" stroke="#63b8ff" d="M363.82,-55.55C331.08,-47.19 281.82,-34.48 230.97,-20.77"/>
<polygon fill="#63b8ff" stroke="#63b8ff" points="232.13,-17.46 221.56,-18.23 230.3,-24.22 232.13,-17.46"/>
</a>
</g>
</g>
<!-- Node7 -->
<g id="Node000007" class="node">
<title>Node7</title>
<g id="a_Node000007"><a xlink:title=" ">
<polygon fill="#e0e0e0" stroke="#999999" points="282.62,-20 237.38,-20 237.38,0 282.62,0 282.62,-20"/>
<text text-anchor="middle" x="260" y="-6.5" font-family="Helvetica,sans-Serif" font-size="10.00">cstdint</text>
</a>
</g>
</g>
<!-- Node5&#45;&gt;Node7 -->
<g id="edge6_Node000005_Node000007" class="edge">
<title>Node5&#45;&gt;Node7</title>
<g id="a_edge6_Node000005_Node000007"><a xlink:title=" ">
<path fill="none" stroke="#63b8ff" d="M376.44,-55.59C353.48,-46.8 319.02,-33.6 293.54,-23.84"/>
<polygon fill="#63b8ff" stroke="#63b8ff" points="294.88,-20.61 284.29,-20.3 292.38,-27.15 294.88,-20.61"/>
</a>
</g>
</g>
<!-- Node8 -->
<g id="Node000008" class="node">
<title>Node8</title>
<g id="a_Node000008"><a xlink:title=" ">
<polygon fill="#e0e0e0" stroke="#999999" points="329.4,-20 300.6,-20 300.6,0 329.4,0 329.4,-20"/>
<text text-anchor="middle" x="315" y="-6.5" font-family="Helvetica,sans-Serif" font-size="10.00">bit</text>
</a>
</g>
</g>
<!-- Node5&#45;&gt;Node8 -->
<g id="edge7_Node000005_Node000008" class="edge">
<title>Node5&#45;&gt;Node8</title>
<g id="a_edge7_Node000005_Node000008"><a xlink:title=" ">
<path fill="none" stroke="#63b8ff" d="M386.02,-55.59C373.19,-47.54 354.48,-35.79 339.48,-26.37"/>
<polygon fill="#63b8ff" stroke="#63b8ff" points="341.42,-23.46 331.09,-21.1 337.7,-29.38 341.42,-23.46"/>
</a>
</g>
</g>
<!-- Node9 -->
<g id="Node000009" class="node">
<title>Node9</title>
<g id="a_Node000009"><a xlink:title=" ">
<polygon fill="#e0e0e0" stroke="#999999" points="386.62,-20 347.38,-20 347.38,0 386.62,0 386.62,-20"/>
<text text-anchor="middle" x="367" y="-6.5" font-family="Helvetica,sans-Serif" font-size="10.00">limits</text>
</a>
</g>
</g>
<!-- Node5&#45;&gt;Node9 -->
<g id="edge8_Node000005_Node000009" class="edge">
<title>Node5&#45;&gt;Node9</title>
<g id="a_edge8_Node000005_Node000009"><a xlink:title=" ">
<path fill="none" stroke="#63b8ff" d="M395.08,-55.59C390.64,-48.55 384.42,-38.67 378.96,-30"/>
<polygon fill="#63b8ff" stroke="#63b8ff" points="381.95,-28.18 373.66,-21.58 376.03,-31.91 381.95,-28.18"/>
</a>
</g>
</g>
<!-- Node10 -->
<g id="Node000010" class="node">
<title>Node10</title>
<g id="a_Node000010"><a xlink:title=" ">
<polygon fill="#e0e0e0" stroke="#999999" points="466.88,-20 405.12,-20 405.12,0 466.88,0 466.88,-20"/>
<text text-anchor="middle" x="436" y="-6.5" font-family="Helvetica,sans-Serif" font-size="10.00">type_traits</text>
</a>
</g>
</g>
<!-- Node5&#45;&gt;Node10 -->
<g id="edge9_Node000005_Node000010" class="edge">
<title>Node5&#45;&gt;Node10</title>
<g id="a_edge9_Node000005_Node000010"><a xlink:title=" ">
<path fill="none" stroke="#63b8ff" d="M407.1,-55.59C411.71,-48.47 418.21,-38.45 423.87,-29.72"/>
<polygon fill="#63b8ff" stroke="#63b8ff" points="426.65,-31.86 429.15,-21.57 420.77,-28.06 426.65,-31.86"/>
</a>
</g>
</g>
<!-- Node11 -->
<g id="Node000011" class="node">
<title>Node11</title>
<g id="a_Node000011"><a xlink:title=" ">
<polygon fill="#e0e0e0" stroke="#999999" points="536.62,-20 485.38,-20 485.38,0 536.62,0 536.62,-20"/>
<text text-anchor="middle" x="511" y="-6.5" font-family="Helvetica,sans-Serif" font-size="10.00">memory</text>
</a>
</g>
</g>
<!-- Node5&#45;&gt;Node11 -->
<g id="edge10_Node000005_Node000011" class="edge">
<title>Node5&#45;&gt;Node11</title>
<g id="a_edge10_Node000005_Node000011"><a xlink:title=" ">
<path fill="none" stroke="#63b8ff" d="M420.16,-55.59C437.09,-47.28 462.05,-35.03 481.52,-25.47"/>
<polygon fill="#63b8ff" stroke="#63b8ff" points="482.9,-28.7 490.33,-21.15 479.81,-22.41 482.9,-28.7"/>
</a>
</g>
</g>
<!-- Node12 -->
<g id="Node000012" class="node">
<title>Node12</title>
<g id="a_Node000012"><a xlink:title=" ">
<polygon fill="#e0e0e0" stroke="#999999" points="593.62,-20 554.38,-20 554.38,0 593.62,0 593.62,-20"/>
<text text-anchor="middle" x="574" y="-6.5" font-family="Helvetica,sans-Serif" font-size="10.00">utility</text>
</a>
</g>
</g>
<!-- Node5&#45;&gt;Node12 -->
<g id="edge11_Node000005_Node000012" class="edge">
<title>Node5&#45;&gt;Node12</title>
<g id="a_edge11_Node000005_Node000012"><a xlink:title=" ">
<path fill="none" stroke="#63b8ff" d="M431.86,-55.52C459,-47.16 499.84,-34.54 543.32,-20.83"/>
<polygon fill="#63b8ff" stroke="#63b8ff" points="544.2,-24.22 552.68,-17.87 542.09,-17.55 544.2,-24.22"/>
</a>
</g>
</g>
<!-- Node13 -->
<g id="Node000013" class="node">
<title>Node13</title>
<g id="a_Node000013"><a xlink:title=" ">
<polygon fill="#e0e0e0" stroke="#999999" points="670.38,-20 611.62,-20 611.62,0 670.38,0 670.38,-20"/>
<text text-anchor="middle" x="641" y="-6.5" font-family="Helvetica,sans-Serif" font-size="10.00">stdexcept</text>
</a>
</g>
</g>
<!-- Node5&#45;&gt;Node13 -->
<g id="edge12_Node000005_Node000013" class="edge">
<title>Node5&#45;&gt;Node13</title>
<g id="a_edge12_Node000005_Node000013"><a xlink:title=" ">
<path fill="none" stroke="#63b8ff" d="M444.38,-55.51C482.92,-47.04 541.06,-34.17 600.11,-20.64"/>
<polygon fill="#63b8ff" stroke="#63b8ff" points="600.7,-24.1 609.66,-18.45 599.13,-17.28 600.7,-24.1"/>
</a>
</g>
</g>
<!-- Node15&#45;&gt;Node3 -->
<g id="edge16_Node000015_Node000003" class="edge">
<title>Node15&#45;&gt;Node3</title>
<g id="a_edge16_Node000015_Node000003"><a xlink:title=" ">
<path fill="none" stroke="#63b8ff" d="M854.74,-467.02C835.68,-464.6 814.47,-462.03 795,-460 602.5,-439.89 553.11,-447.59 361,-424 349.44,-422.58 337.1,-420.77 325.34,-418.91"/>
<polygon fill="#63b8ff" stroke="#63b8ff" points="326.21,-415.5 315.78,-417.36 325.09,-422.41 326.21,-415.5"/>
</a>
</g>
</g>
<!-- Node16 -->
<g id="Node000016" class="node">
<title>Node16</title>
<g id="a_Node000016"><a xlink:href="../../d4/d29/stl__iterator_8hpp.html" target="_top" xlink:title="This file defines the Stl_iterator class, which provides an iterator for standard C++ containers.">
<polygon fill="white" stroke="#666666" points="966.25,-418 861.75,-418 861.75,-398 966.25,-398 966.25,-418"/>
<text text-anchor="middle" x="914" y="-404.5" font-family="Helvetica,sans-Serif" font-size="10.00">ogxx/stl_iterator.hpp</text>
</a>
</g>
</g>
<!-- Node15&#45;&gt;Node16 -->
<g id="edge17_Node000015_Node000016" class="edge">
<title>Node15&#45;&gt;Node16</title>
<g id="a_edge17_Node000015_Node000016"><a xlink:title=" ">
<path fill="none" stroke="#63b8ff" d="M914,-459.69C914,-450.8 914,-439.46 914,-429.77"/>
<polygon fill="#63b8ff" stroke="#63b8ff" points="917.5,-429.83 914,-419.83 910.5,-429.83 917.5,-429.83"/>
</a>
</g>
</g>
<!-- Node19 -->
<g id="Node000019" class="node">
<title>Node19</title>
<g id="a_Node000019"><a xlink:href="../../d7/d63/iterator__algorithms_8hpp.html" target="_top" xlink:title="Helper functions to work with iterators inspired by STL algorithm header.">
<polygon fill="white" stroke="#666666" points="805.5,-418 666.5,-418 666.5,-398 805.5,-398 805.5,-418"/>
<text text-anchor="middle" x="736" y="-404.5" font-family="Helvetica,sans-Serif" font-size="10.00">ogxx/iterator_algorithms.hpp</text>
</a>
</g>
</g>
<!-- Node15&#45;&gt;Node19 -->
<g id="edge21_Node000015_Node000019" class="edge">
<title>Node15&#45;&gt;Node19</title>
<g id="a_edge21_Node000015_Node000019"><a xlink:title=" ">
<path fill="none" stroke="#63b8ff" d="M872.27,-459.53C841.83,-448.24 801.01,-433.11 772.01,-422.35"/>
<polygon fill="#63b8ff" stroke="#63b8ff" points="773.53,-419.18 762.93,-418.99 771.09,-425.74 773.53,-419.18"/>
</a>
</g>
</g>
<!-- Node20 -->
<g id="Node000020" class="node">
<title>Node20</title>
<g id="a_Node000020"><a xlink:title=" ">
<polygon fill="#e0e0e0" stroke="#999999" points="1153,-418 1113,-418 1113,-398 1153,-398 1153,-418"/>
<text text-anchor="middle" x="1133" y="-404.5" font-family="Helvetica,sans-Serif" font-size="10.00">string</text>
</a>
</g>
</g>
<!-- Node15&#45;&gt;Node20 -->
<g id="edge23_Node000015_Node000020" class="edge">
<title>Node15&#45;&gt;Node20</title>
<g id="a_edge23_Node000015_Node000020"><a xlink:title=" ">
<path fill="none" stroke="#63b8ff" d="M973.25,-462.56C1011.27,-453.74 1061.33,-440.54 1104,-424 1104.77,-423.7 1105.55,-423.39 1106.33,-423.06"/>
<polygon fill="#63b8ff" stroke="#63b8ff" points="1107.46,-426.4 1115.04,-418.99 1104.5,-420.05 1107.46,-426.4"/>
</a>
</g>
</g>
<!-- Node21 -->
<g id="Node000021" class="node">
<title>Node21</title>
<g id="a_Node000021"><a xlink:title=" ">
<polygon fill="#e0e0e0" stroke="#999999" points="1035.62,-418 984.38,-418 984.38,-398 1035.62,-398 1035.62,-418"/>
<text text-anchor="middle" x="1010" y="-404.5" font-family="Helvetica,sans-Serif" font-size="10.00">sstream</text>
</a>
</g>
</g>
<!-- Node15&#45;&gt;Node21 -->
<g id="edge24_Node000015_Node000021" class="edge">
<title>Node15&#45;&gt;Node21</title>
<g id="a_edge24_Node000015_Node000021"><a xlink:title=" ">
<path fill="none" stroke="#63b8ff" d="M936.27,-459.69C951.53,-449.2 971.73,-435.31 987.13,-424.73"/>
<polygon fill="#63b8ff" stroke="#63b8ff" points="988.94,-427.72 995.2,-419.17 984.98,-421.95 988.94,-427.72"/>
</a>
</g>
</g>
<!-- Node22 -->
<g id="Node000022" class="node">
<title>Node22</title>
<g id="a_Node000022"><a xlink:title=" ">
<polygon fill="#e0e0e0" stroke="#999999" points="1094.75,-418 1053.25,-418 1053.25,-398 1094.75,-398 1094.75,-418"/>
<text text-anchor="middle" x="1074" y="-404.5" font-family="Helvetica,sans-Serif" font-size="10.00">vector</text>
</a>
</g>
</g>
<!-- Node15&#45;&gt;Node22 -->
<g id="edge25_Node000015_Node000022" class="edge">
<title>Node15&#45;&gt;Node22</title>
<g id="a_edge25_Node000015_Node000022"><a xlink:title=" ">
<path fill="none" stroke="#63b8ff" d="M956.95,-459.59C982.76,-450.01 1016.09,-437.06 1045,-424 1045.48,-423.78 1045.96,-423.56 1046.44,-423.34"/>
<polygon fill="#63b8ff" stroke="#63b8ff" points="1047.86,-426.55 1055.3,-419.01 1044.78,-420.26 1047.86,-426.55"/>
</a>
</g>
</g>
<!-- Node17 -->
<g id="Node000017" class="node">
<title>Node17</title>
<g id="a_Node000017"><a xlink:title=" ">
<polygon fill="#e0e0e0" stroke="#999999" points="864,-356 818,-356 818,-336 864,-336 864,-356"/>
<text text-anchor="middle" x="841" y="-342.5" font-family="Helvetica,sans-Serif" font-size="10.00">iterator</text>
</a>
</g>
</g>
<!-- Node16&#45;&gt;Node17 -->
<g id="edge18_Node000016_Node000017" class="edge">
<title>Node16&#45;&gt;Node17</title>
<g id="a_edge18_Node000016_Node000017"><a xlink:title=" ">
<path fill="none" stroke="#63b8ff" d="M902.59,-397.62C891.39,-388.41 874.06,-374.17 860.63,-363.14"/>
<polygon fill="#63b8ff" stroke="#63b8ff" points="863.2,-360.72 853.26,-357.07 858.76,-366.13 863.2,-360.72"/>
</a>
</g>
</g>
<!-- Node18 -->
<g id="Node000018" class="node">
<title>Node18</title>
<g id="a_Node000018"><a xlink:href="../../d9/dde/iterator_8hpp.html" target="_top" xlink:title="Linear sequence iterator interfaces.">
<polygon fill="white" stroke="#666666" points="646.38,-132 557.62,-132 557.62,-112 646.38,-112 646.38,-132"/>
<text text-anchor="middle" x="602" y="-118.5" font-family="Helvetica,sans-Serif" font-size="10.00">ogxx/iterator.hpp</text>
</a>
</g>
</g>
<!-- Node16&#45;&gt;Node18 -->
<g id="edge19_Node000016_Node000018" class="edge">
<title>Node16&#45;&gt;Node18</title>
<g id="a_edge19_Node000016_Node000018"><a xlink:title=" ">
<path fill="none" stroke="#63b8ff" d="M912.92,-397.69C910.74,-378.02 906,-330.77 906,-291 906,-291 906,-291 906,-233 906,-180.84 745.77,-146.44 657.97,-131.5"/>
<polygon fill="#63b8ff" stroke="#63b8ff" points="658.79,-128.09 648.35,-129.9 657.64,-135 658.79,-128.09"/>
</a>
</g>
</g>
<!-- Node18&#45;&gt;Node5 -->
<g id="edge20_Node000018_Node000005" class="edge">
<title>Node18&#45;&gt;Node5</title>
<g id="a_edge20_Node000018_Node000005"><a xlink:title=" ">
<path fill="none" stroke="#63b8ff" d="M566.99,-111.59C533.76,-102.67 483.61,-89.19 447.13,-79.39"/>
<polygon fill="#63b8ff" stroke="#63b8ff" points="448.31,-76.09 437.75,-76.87 446.5,-82.85 448.31,-76.09"/>
</a>
</g>
</g>
<!-- Node19&#45;&gt;Node18 -->
<g id="edge22_Node000019_Node000018" class="edge">
<title>Node19&#45;&gt;Node18</title>
<g id="a_edge22_Node000019_Node000018"><a xlink:title=" ">
<path fill="none" stroke="#63b8ff" d="M734.11,-397.72C730.29,-378.11 722,-330.96 722,-291 722,-291 722,-291 722,-233 722,-186.31 672.03,-154.08 636.58,-137.08"/>
<polygon fill="#63b8ff" stroke="#63b8ff" points="638.5,-134.11 627.95,-133.12 635.58,-140.47 638.5,-134.11"/>
</a>
</g>
</g>
<!-- Node23&#45;&gt;Node3 -->
<g id="edge27_Node000023_Node000003" class="edge">
<title>Node23&#45;&gt;Node3</title>
<g id="a_edge27_Node000023_Node000003"><a xlink:title=" ">
<path fill="none" stroke="#63b8ff" d="M197.57,-459.69C212.36,-449.2 231.93,-435.31 246.84,-424.73"/>
<polygon fill="#63b8ff" stroke="#63b8ff" points="248.51,-427.83 254.64,-419.19 244.46,-422.13 248.51,-427.83"/>
</a>
</g>
</g>
<!-- Node24 -->
<g id="Node000024" class="node">
<title>Node24</title>
<g id="a_Node000024"><a xlink:href="../../df/dce/matrix_8hpp.html" target="_top" xlink:title="Abstract matrix interface.">
<polygon fill="white" stroke="#666666" points="268.88,-300 183.12,-300 183.12,-280 268.88,-280 268.88,-300"/>
<text text-anchor="middle" x="226" y="-286.5" font-family="Helvetica,sans-Serif" font-size="10.00">ogxx/matrix.hpp</text>
</a>
</g>
</g>
<!-- Node23&#45;&gt;Node24 -->
<g id="edge28_Node000023_Node000024" class="edge">
<title>Node23&#45;&gt;Node24</title>
<g id="a_edge28_Node000023_Node000024"><a xlink:title=" ">
<path fill="none" stroke="#63b8ff" d="M171.44,-459.51C164.49,-432.84 153.94,-377.18 173,-336 178.49,-324.13 188.83,-314.24 198.93,-306.79"/>
<polygon fill="#63b8ff" stroke="#63b8ff" points="200.8,-309.76 207.12,-301.25 196.88,-303.96 200.8,-309.76"/>
</a>
</g>
</g>
<!-- Node24&#45;&gt;Node5 -->
<g id="edge29_Node000024_Node000005" class="edge">
<title>Node24&#45;&gt;Node5</title>
<g id="a_edge29_Node000024_Node000005"><a xlink:title=" ">
<path fill="none" stroke="#63b8ff" d="M214.66,-279.87C200.65,-267.4 179.81,-244.29 190,-224 226.87,-150.6 316.12,-102.83 365.92,-80.92"/>
<polygon fill="#63b8ff" stroke="#63b8ff" points="367.3,-84.13 375.11,-76.98 364.54,-77.7 367.3,-84.13"/>
</a>
</g>
</g>
<!-- Node24&#45;&gt;Node18 -->
<g id="edge30_Node000024_Node000018" class="edge">
<title>Node24&#45;&gt;Node18</title>
<g id="a_edge30_Node000024_Node000018"><a xlink:title=" ">
<path fill="none" stroke="#63b8ff" d="M233.95,-279.71C256.24,-253.91 319.46,-182.34 347,-168 409.97,-135.22 492.28,-125.76 546.11,-123.32"/>
<polygon fill="#63b8ff" stroke="#63b8ff" points="546.11,-126.82 555.97,-122.95 545.85,-119.83 546.11,-126.82"/>
</a>
</g>
</g>
<!-- Node25 -->
<g id="Node000025" class="node">
<title>Node25</title>
<g id="a_Node000025"><a xlink:title=" ">
<polygon fill="#e0e0e0" stroke="#999999" points="252.75,-244 199.25,-244 199.25,-224 252.75,-224 252.75,-244"/>
<text text-anchor="middle" x="226" y="-230.5" font-family="Helvetica,sans-Serif" font-size="10.00">compare</text>
</a>
</g>
</g>
<!-- Node24&#45;&gt;Node25 -->
<g id="edge31_Node000024_Node000025" class="edge">
<title>Node24&#45;&gt;Node25</title>
<g id="a_edge31_Node000024_Node000025"><a xlink:title=" ">
<path fill="none" stroke="#63b8ff" d="M226,-279.59C226,-273.01 226,-263.96 226,-255.73"/>
<polygon fill="#63b8ff" stroke="#63b8ff" points="229.5,-255.81 226,-245.81 222.5,-255.81 229.5,-255.81"/>
</a>
</g>
</g>
<!-- Node26&#45;&gt;Node3 -->
<g id="edge33_Node000026_Node000003" class="edge">
<title>Node26&#45;&gt;Node3</title>
<g id="a_edge33_Node000026_Node000003"><a xlink:title=" ">
<path fill="none" stroke="#63b8ff" d="M294.7,-465.54C290.34,-455.94 283.44,-440.78 277.9,-428.57"/>
<polygon fill="#63b8ff" stroke="#63b8ff" points="281.24,-427.47 273.92,-419.82 274.87,-430.37 281.24,-427.47"/>
</a>
</g>
</g>
<!-- Node27 -->
<g id="Node000027" class="node">
<title>Node27</title>
<g id="a_Node000027"><a xlink:href="../../df/dd1/st__matrix_8hpp.html" target="_top" xlink:title="St_matrix interface, st_ stands for &quot;simple type&quot;, i.e. a thing like int or double.">
<polygon fill="white" stroke="#666666" points="391.62,-356 292.38,-356 292.38,-336 391.62,-336 391.62,-356"/>
<text text-anchor="middle" x="342" y="-342.5" font-family="Helvetica,sans-Serif" font-size="10.00">ogxx/st_matrix.hpp</text>
</a>
</g>
</g>
<!-- Node26&#45;&gt;Node27 -->
<g id="edge34_Node000026_Node000027" class="edge">
<title>Node26&#45;&gt;Node27</title>
<g id="a_edge34_Node000026_Node000027"><a xlink:title=" ">
<path fill="none" stroke="#63b8ff" d="M303.99,-465.83C309.29,-455.8 317.63,-439.12 323,-424 329.68,-405.16 334.9,-382.92 338.16,-367.2"/>
<polygon fill="#63b8ff" stroke="#63b8ff" points="341.54,-368.15 340.05,-357.66 334.67,-366.79 341.54,-368.15"/>
</a>
</g>
</g>
<!-- Node27&#45;&gt;Node24 -->
<g id="edge38_Node000027_Node000024" class="edge">
<title>Node27&#45;&gt;Node24</title>
<g id="a_edge38_Node000027_Node000024"><a xlink:title=" ">
<path fill="none" stroke="#63b8ff" d="M321.79,-335.59C303.77,-327.21 277.13,-314.8 256.52,-305.21"/>
<polygon fill="#63b8ff" stroke="#63b8ff" points="258.28,-302.17 247.74,-301.12 255.32,-308.51 258.28,-302.17"/>
</a>
</g>
</g>
<!-- Node28 -->
<g id="Node000028" class="node">
<title>Node28</title>
<g id="a_Node000028"><a xlink:href="../../db/d3e/iterable_8hpp.html" target="_top" xlink:title="Iterable interfaces.">
<polygon fill="white" stroke="#666666" points="446.12,-188 355.88,-188 355.88,-168 446.12,-168 446.12,-188"/>
<text text-anchor="middle" x="401" y="-174.5" font-family="Helvetica,sans-Serif" font-size="10.00">ogxx/iterable.hpp</text>
</a>
</g>
</g>
<!-- Node27&#45;&gt;Node28 -->
<g id="edge35_Node000027_Node000028" class="edge">
<title>Node27&#45;&gt;Node28</title>
<g id="a_edge35_Node000027_Node000028"><a xlink:title=" ">
<path fill="none" stroke="#63b8ff" d="M339.47,-335.53C336.47,-322.68 332.52,-299.13 338,-280 347.16,-248.02 369.7,-216.33 385.18,-197.21"/>
<polygon fill="#63b8ff" stroke="#63b8ff" points="387.83,-199.5 391.55,-189.58 382.46,-195.01 387.83,-199.5"/>
</a>
</g>
</g>
<!-- Node28&#45;&gt;Node5 -->
<g id="edge36_Node000028_Node000005" class="edge">
<title>Node28&#45;&gt;Node5</title>
<g id="a_edge36_Node000028_Node000005"><a xlink:title=" ">
<path fill="none" stroke="#63b8ff" d="M401,-167.62C401,-150.01 401,-111.59 401,-87.65"/>
<polygon fill="#63b8ff" stroke="#63b8ff" points="404.5,-87.87 401,-77.87 397.5,-87.87 404.5,-87.87"/>
</a>
</g>
</g>
<!-- Node28&#45;&gt;Node18 -->
<g id="edge37_Node000028_Node000018" class="edge">
<title>Node28&#45;&gt;Node18</title>
<g id="a_edge37_Node000028_Node000018"><a xlink:title=" ">
<path fill="none" stroke="#63b8ff" d="M436.01,-167.59C469.24,-158.67 519.39,-145.19 555.87,-135.39"/>
<polygon fill="#63b8ff" stroke="#63b8ff" points="556.5,-138.85 565.25,-132.87 554.69,-132.09 556.5,-138.85"/>
</a>
</g>
</g>
<!-- Node29&#45;&gt;Node3 -->
<g id="edge40_Node000029_Node000003" class="edge">
<title>Node29&#45;&gt;Node3</title>
<g id="a_edge40_Node000029_Node000003"><a xlink:title=" ">
<path fill="none" stroke="#63b8ff" d="M673.68,-465.53C663.6,-463.57 652.96,-461.62 643,-460 518.28,-439.76 486.04,-442.17 361,-424 349.47,-422.32 337.15,-420.41 325.39,-418.51"/>
<polygon fill="#63b8ff" stroke="#63b8ff" points="326.27,-415.11 315.84,-416.96 325.14,-422.02 326.27,-415.11"/>
</a>
</g>
</g>
<!-- Node29&#45;&gt;Node17 -->
<g id="edge45_Node000029_Node000017" class="edge">
<title>Node29&#45;&gt;Node17</title>
<g id="a_edge45_Node000029_Node000017"><a xlink:title=" ">
<path fill="none" stroke="#63b8ff" d="M749.28,-465.65C770.4,-457.69 797.77,-444.28 815,-424 828.61,-407.97 835.19,-384.52 838.3,-367.71"/>
<polygon fill="#63b8ff" stroke="#63b8ff" points="841.75,-368.3 839.84,-357.88 834.84,-367.22 841.75,-368.3"/>
</a>
</g>
</g>
<!-- Node29&#45;&gt;Node19 -->
<g id="edge44_Node000029_Node000019" class="edge">
<title>Node29&#45;&gt;Node19</title>
<g id="a_edge44_Node000029_Node000019"><a xlink:title=" ">
<path fill="none" stroke="#63b8ff" d="M721.44,-465.54C723.86,-456.13 727.66,-441.39 730.77,-429.32"/>
<polygon fill="#63b8ff" stroke="#63b8ff" points="734.09,-430.46 733.19,-419.9 727.31,-428.72 734.09,-430.46"/>
</a>
</g>
</g>
<!-- Node30 -->
<g id="Node000030" class="node">
<title>Node30</title>
<g id="a_Node000030"><a xlink:href="../../d7/dbf/st__set_8hpp.html" target="_top" xlink:title="Simple type set interface. Set may be ordered or unordered.">
<polygon fill="white" stroke="#666666" points="650.88,-188 565.12,-188 565.12,-168 650.88,-168 650.88,-188"/>
<text text-anchor="middle" x="608" y="-174.5" font-family="Helvetica,sans-Serif" font-size="10.00">ogxx/st_set.hpp</text>
</a>
</g>
</g>
<!-- Node29&#45;&gt;Node30 -->
<g id="edge41_Node000029_Node000030" class="edge">
<title>Node29&#45;&gt;Node30</title>
<g id="a_edge41_Node000029_Node000030"><a xlink:title=" ">
<path fill="none" stroke="#63b8ff" d="M701.46,-465.64C687.07,-456.93 667.57,-442.52 658,-424 639.99,-389.14 656.01,-374.91 651,-336 644.54,-285.85 647.13,-271.92 631,-224 628.03,-215.18 623.58,-205.95 619.38,-198.16"/>
<polygon fill="#63b8ff" stroke="#63b8ff" points="622.51,-196.59 614.53,-189.61 616.42,-200.04 622.51,-196.59"/>
</a>
</g>
</g>
<!-- Node30&#45;&gt;Node5 -->
<g id="edge42_Node000030_Node000005" class="edge">
<title>Node30&#45;&gt;Node5</title>
<g id="a_edge42_Node000030_Node000005"><a xlink:title=" ">
<path fill="none" stroke="#63b8ff" d="M590.97,-167.64C567.75,-154.92 524.85,-131.51 488,-112 468.46,-101.66 446.33,-90.21 429.28,-81.45"/>
<polygon fill="#63b8ff" stroke="#63b8ff" points="431.23,-78.52 420.73,-77.07 428.03,-84.75 431.23,-78.52"/>
</a>
</g>
</g>
<!-- Node30&#45;&gt;Node18 -->
<g id="edge43_Node000030_Node000018" class="edge">
<title>Node30&#45;&gt;Node18</title>
<g id="a_edge43_Node000030_Node000018"><a xlink:title=" ">
<path fill="none" stroke="#63b8ff" d="M606.95,-167.59C606.22,-161.01 605.22,-151.96 604.3,-143.73"/>
<polygon fill="#63b8ff" stroke="#63b8ff" points="607.78,-143.35 603.2,-133.8 600.83,-144.13 607.78,-143.35"/>
</a>
</g>
</g>
<!-- Node31&#45;&gt;Node3 -->
<g id="edge47_Node000031_Node000003" class="edge">
<title>Node31&#45;&gt;Node3</title>
<g id="a_edge47_Node000031_Node000003"><a xlink:title=" ">
<path fill="none" stroke="#63b8ff" d="M403.51,-465.54C376.92,-454.37 332.47,-435.68 301.99,-422.87"/>
<polygon fill="#63b8ff" stroke="#63b8ff" points="303.42,-419.67 292.85,-419.03 300.71,-426.13 303.42,-419.67"/>
</a>
</g>
</g>
<!-- Node32 -->
<g id="Node000032" class="node">
<title>Node32</title>
<g id="a_Node000032"><a xlink:href="../../dd/db4/st__matrix__io_8hpp.html" target="_top" xlink:title="St_matrix reading and printing operations.">
<polygon fill="white" stroke="#666666" points="482,-418 370,-418 370,-398 482,-398 482,-418"/>
<text text-anchor="middle" x="426" y="-404.5" font-family="Helvetica,sans-Serif" font-size="10.00">ogxx/st_matrix_io.hpp</text>
</a>
</g>
</g>
<!-- Node31&#45;&gt;Node32 -->
<g id="edge48_Node000031_Node000032" class="edge">
<title>Node31&#45;&gt;Node32</title>
<g id="a_edge48_Node000031_Node000032"><a xlink:title=" ">
<path fill="none" stroke="#63b8ff" d="M426,-465.54C426,-456.23 426,-441.7 426,-429.7"/>
<polygon fill="#63b8ff" stroke="#63b8ff" points="429.5,-429.95 426,-419.95 422.5,-429.95 429.5,-429.95"/>
</a>
</g>
</g>
<!-- Node32&#45;&gt;Node27 -->
<g id="edge52_Node000032_Node000027" class="edge">
<title>Node32&#45;&gt;Node27</title>
<g id="a_edge52_Node000032_Node000027"><a xlink:title=" ">
<path fill="none" stroke="#63b8ff" d="M412.88,-397.62C399.81,-388.29 379.51,-373.79 363.98,-362.7"/>
<polygon fill="#63b8ff" stroke="#63b8ff" points="366.44,-360.15 356.26,-357.19 362.37,-365.85 366.44,-360.15"/>
</a>
</g>
</g>
<!-- Node33 -->
<g id="Node000033" class="node">
<title>Node33</title>
<g id="a_Node000033"><a xlink:href="../../d8/d3d/io__head_8hpp.html" target="_top" xlink:title="Shared things for *_io.hpp files.">
<polygon fill="white" stroke="#666666" points="502.25,-356 409.75,-356 409.75,-336 502.25,-336 502.25,-356"/>
<text text-anchor="middle" x="456" y="-342.5" font-family="Helvetica,sans-Serif" font-size="10.00">ogxx/io_head.hpp</text>
</a>
</g>
</g>
<!-- Node32&#45;&gt;Node33 -->
<g id="edge49_Node000032_Node000033" class="edge">
<title>Node32&#45;&gt;Node33</title>
<g id="a_edge49_Node000032_Node000033"><a xlink:title=" ">
<path fill="none" stroke="#63b8ff" d="M430.69,-397.62C434.85,-389.3 441.07,-376.86 446.3,-366.4"/>
<polygon fill="#63b8ff" stroke="#63b8ff" points="449.43,-367.98 450.77,-357.47 443.16,-364.85 449.43,-367.98"/>
</a>
</g>
</g>
<!-- Node34 -->
<g id="Node000034" class="node">
<title>Node34</title>
<g id="a_Node000034"><a xlink:title=" ">
<polygon fill="#e0e0e0" stroke="#999999" points="410.62,-300 347.38,-300 347.38,-280 410.62,-280 410.62,-300"/>
<text text-anchor="middle" x="379" y="-286.5" font-family="Helvetica,sans-Serif" font-size="10.00">string_view</text>
</a>
</g>
</g>
<!-- Node33&#45;&gt;Node34 -->
<g id="edge50_Node000033_Node000034" class="edge">
<title>Node33&#45;&gt;Node34</title>
<g id="a_edge50_Node000033_Node000034"><a xlink:title=" ">
<path fill="none" stroke="#63b8ff" d="M442.59,-335.59C431.39,-327.74 415.19,-316.38 401.94,-307.09"/>
<polygon fill="#63b8ff" stroke="#63b8ff" points="403.95,-304.22 393.76,-301.35 399.93,-309.96 403.95,-304.22"/>
</a>
</g>
</g>
<!-- Node35 -->
<g id="Node000035" class="node">
<title>Node35</title>
<g id="a_Node000035"><a xlink:title=" ">
<polygon fill="#e0e0e0" stroke="#999999" points="479.62,-300 428.38,-300 428.38,-280 479.62,-280 479.62,-300"/>
<text text-anchor="middle" x="454" y="-286.5" font-family="Helvetica,sans-Serif" font-size="10.00">ostream</text>
</a>
</g>
</g>
<!-- Node33&#45;&gt;Node35 -->
<g id="edge51_Node000033_Node000035" class="edge">
<title>Node33&#45;&gt;Node35</title>
<g id="a_edge51_Node000033_Node000035"><a xlink:title=" ">
<path fill="none" stroke="#63b8ff" d="M455.65,-335.59C455.41,-329.01 455.07,-319.96 454.77,-311.73"/>
<polygon fill="#63b8ff" stroke="#63b8ff" points="458.27,-311.67 454.4,-301.81 451.27,-311.93 458.27,-311.67"/>
</a>
</g>
</g>
<!-- Node36&#45;&gt;Node3 -->
<g id="edge54_Node000036_Node000003" class="edge">
<title>Node36&#45;&gt;Node3</title>
<g id="a_edge54_Node000036_Node000003"><a xlink:title=" ">
<path fill="none" stroke="#63b8ff" d="M524.3,-465.54C471.19,-453.78 380.49,-433.69 322.71,-420.9"/>
<polygon fill="#63b8ff" stroke="#63b8ff" points="323.61,-417.51 313.09,-418.77 322.1,-424.35 323.61,-417.51"/>
</a>
</g>
</g>
<!-- Node37 -->
<g id="Node000037" class="node">
<title>Node37</title>
<g id="a_Node000037"><a xlink:href="../../d8/d3e/adjacency__list__io_8hpp.html" target="_top" xlink:title="Textual input&#45;output for adjacency list.">
<polygon fill="white" stroke="#666666" points="610.12,-424 507.88,-424 507.88,-392 610.12,-392 610.12,-424"/>
<text text-anchor="start" x="515.88" y="-410.5" font-family="Helvetica,sans-Serif" font-size="10.00">ogxx/adjacency_list</text>
<text text-anchor="middle" x="559" y="-398.5" font-family="Helvetica,sans-Serif" font-size="10.00">_io.hpp</text>
</a>
</g>
</g>
<!-- Node36&#45;&gt;Node37 -->
<g id="edge55_Node000036_Node000037" class="edge">
<title>Node36&#45;&gt;Node37</title>
<g id="a_edge55_Node000036_Node000037"><a xlink:title=" ">
<path fill="none" stroke="#63b8ff" d="M565.85,-465.54C564.91,-457.72 563.51,-446.22 562.23,-435.63"/>
<polygon fill="#63b8ff" stroke="#63b8ff" points="565.71,-435.31 561.04,-425.8 558.77,-436.15 565.71,-435.31"/>
</a>
</g>
</g>
<!-- Node37&#45;&gt;Node33 -->
<g id="edge56_Node000037_Node000033" class="edge">
<title>Node37&#45;&gt;Node33</title>
<g id="a_edge56_Node000037_Node000033"><a xlink:title=" ">
<path fill="none" stroke="#63b8ff" d="M532.47,-391.55C516.98,-382.52 497.5,-371.17 482.08,-362.19"/>
<polygon fill="#63b8ff" stroke="#63b8ff" points="483.86,-359.18 473.46,-357.17 480.34,-365.23 483.86,-359.18"/>
</a>
</g>
</g>
<!-- Node38 -->
<g id="Node000038" class="node">
<title>Node38</title>
<g id="a_Node000038"><a xlink:href="../../d6/da0/adjacency__list_8hpp.html" target="_top" xlink:title="Adjacency list graph representation interface.">
<polygon fill="white" stroke="#666666" points="641.5,-356 520.5,-356 520.5,-336 641.5,-336 641.5,-356"/>
<text text-anchor="middle" x="581" y="-342.5" font-family="Helvetica,sans-Serif" font-size="10.00">ogxx/adjacency_list.hpp</text>
</a>
</g>
</g>
<!-- Node37&#45;&gt;Node38 -->
<g id="edge57_Node000037_Node000038" class="edge">
<title>Node37&#45;&gt;Node38</title>
<g id="a_edge57_Node000037_Node000038"><a xlink:title=" ">
<path fill="none" stroke="#63b8ff" d="M564.67,-391.55C567.4,-384.08 570.72,-375.03 573.65,-367.04"/>
<polygon fill="#63b8ff" stroke="#63b8ff" points="576.87,-368.42 577.03,-357.83 570.3,-366.01 576.87,-368.42"/>
</a>
</g>
</g>
<!-- Node38&#45;&gt;Node30 -->
<g id="edge58_Node000038_Node000030" class="edge">
<title>Node38&#45;&gt;Node30</title>
<g id="a_edge58_Node000038_Node000030"><a xlink:title=" ">
<path fill="none" stroke="#63b8ff" d="M590.36,-335.63C598.12,-327.14 608.57,-313.88 613,-300 623.84,-266.06 618.14,-224.03 613.04,-199.5"/>
<polygon fill="#63b8ff" stroke="#63b8ff" points="616.49,-198.85 610.86,-189.87 609.66,-200.4 616.49,-198.85"/>
</a>
</g>
</g>
<!-- Node39 -->
<g id="Node000039" class="node">
<title>Node39</title>
<g id="a_Node000039"><a xlink:href="../../d7/d6c/graph__view_8hpp.html" target="_top" xlink:title="Graph view interface that may be used for graph representation coversion.">
<polygon fill="white" stroke="#666666" points="604,-300 498,-300 498,-280 604,-280 604,-300"/>
<text text-anchor="middle" x="551" y="-286.5" font-family="Helvetica,sans-Serif" font-size="10.00">ogxx/graph_view.hpp</text>
</a>
</g>
</g>
<!-- Node38&#45;&gt;Node39 -->
<g id="edge59_Node000038_Node000039" class="edge">
<title>Node38&#45;&gt;Node39</title>
<g id="a_edge59_Node000038_Node000039"><a xlink:title=" ">
<path fill="none" stroke="#63b8ff" d="M575.77,-335.59C571.9,-328.63 566.49,-318.89 561.72,-310.29"/>
<polygon fill="#63b8ff" stroke="#63b8ff" points="564.82,-308.66 556.9,-301.62 558.7,-312.06 564.82,-308.66"/>
</a>
</g>
</g>
<!-- Node40 -->
<g id="Node000040" class="node">
<title>Node40</title>
<g id="a_Node000040"><a xlink:href="../../d4/d1a/vertex__pair_8hpp.html" target="_top" xlink:title="Vertex pair related type declarations.">
<polygon fill="white" stroke="#666666" points="526.62,-244 421.38,-244 421.38,-224 526.62,-224 526.62,-244"/>
<text text-anchor="middle" x="474" y="-230.5" font-family="Helvetica,sans-Serif" font-size="10.00">ogxx/vertex_pair.hpp</text>
</a>
</g>
</g>
<!-- Node39&#45;&gt;Node40 -->
<g id="edge60_Node000039_Node000040" class="edge">
<title>Node39&#45;&gt;Node40</title>
<g id="a_edge60_Node000039_Node000040"><a xlink:title=" ">
<path fill="none" stroke="#63b8ff" d="M537.59,-279.59C526.39,-271.74 510.19,-260.38 496.94,-251.09"/>
<polygon fill="#63b8ff" stroke="#63b8ff" points="498.95,-248.22 488.76,-245.35 494.93,-253.96 498.95,-248.22"/>
</a>
</g>
</g>
<!-- Node40&#45;&gt;Node5 -->
<g id="edge61_Node000040_Node000005" class="edge">
<title>Node40&#45;&gt;Node5</title>
<g id="a_edge61_Node000040_Node000005"><a xlink:title=" ">
<path fill="none" stroke="#63b8ff" d="M471.89,-223.54C468.87,-210.7 462.82,-187.16 455,-168 442.89,-138.33 424.62,-105.99 412.76,-86.1"/>
<polygon fill="#63b8ff" stroke="#63b8ff" points="415.86,-84.46 407.68,-77.72 409.87,-88.09 415.86,-84.46"/>
</a>
</g>
</g>
<!-- Node40&#45;&gt;Node28 -->
<g id="edge62_Node000040_Node000028" class="edge">
<title>Node40&#45;&gt;Node28</title>
<g id="a_edge62_Node000040_Node000028"><a xlink:title=" ">
<path fill="none" stroke="#63b8ff" d="M461.28,-223.59C450.61,-215.7 435.12,-204.24 422.52,-194.92"/>
<polygon fill="#63b8ff" stroke="#63b8ff" points="424.91,-192.33 414.79,-189.2 420.74,-197.96 424.91,-192.33"/>
</a>
</g>
</g>
</g>
</svg>
