<?xml version="1.0" encoding="UTF-8" standalone="no"?>
<!DOCTYPE svg PUBLIC "-//W3C//DTD SVG 1.1//EN"
 "http://www.w3.org/Graphics/SVG/1.1/DTD/svg11.dtd">
<!-- Generated by graphviz version 9.0.0 (20230911.1827)
 -->
<!-- Title: ogxx::Graph_view_directed_edge_list Pages: 1 -->
<svg width="777pt" height="166pt"
 viewBox="0.00 0.00 777.25 166.00" xmlns="http://www.w3.org/2000/svg" xmlns:xlink="http://www.w3.org/1999/xlink">
<g id="graph0" class="graph" transform="scale(1 1) rotate(0) translate(4 162)">
<title>ogxx::Graph_view_directed_edge_list</title>
<!-- Node1 -->
<g id="Node000001" class="node">
<title>Node1</title>
<g id="a_Node000001"><a xlink:title=" ">
<polygon fill="#999999" stroke="#666666" points="769.25,-126 637,-126 637,-94 769.25,-94 769.25,-126"/>
<text text-anchor="start" x="645" y="-112.5" font-family="Helvetica,sans-Serif" font-size="10.00">ogxx::Graph_view_directed</text>
<text text-anchor="middle" x="703.12" y="-100.5" font-family="Helvetica,sans-Serif" font-size="10.00">_edge_list</text>
</a>
</g>
</g>
<!-- Node2 -->
<g id="Node000002" class="node">
<title>Node2</title>
<g id="a_Node000002"><a xlink:href="../../de/d37/classogxx_1_1_graph__view.html" target="_top" xlink:title="Generic graph interface to provide a common facade over concrete graph representations.">
<polygon fill="white" stroke="#666666" points="555.25,-158 462.75,-158 462.75,-138 555.25,-138 555.25,-158"/>
<text text-anchor="middle" x="509" y="-144.5" font-family="Helvetica,sans-Serif" font-size="10.00">ogxx::Graph_view</text>
</a>
</g>
</g>
<!-- Node2&#45;&gt;Node1 -->
<g id="edge1_Node000001_Node000002" class="edge">
<title>Node2&#45;&gt;Node1</title>
<g id="a_edge1_Node000001_Node000002"><a xlink:title=" ">
<path fill="none" stroke="#63b8ff" d="M548.89,-134.76C574.09,-128.56 607.55,-121.65 636.77,-116.49"/>
<polygon fill="#63b8ff" stroke="#63b8ff" points="548.23,-131.31 539.4,-137.17 549.96,-138.1 548.23,-131.31"/>
</a>
</g>
</g>
<!-- Node2&#45;&gt;Node1 -->
<g id="edge2_Node000001_Node000002" class="edge">
<title>Node2&#45;&gt;Node1</title>
<g id="a_edge2_Node000001_Node000002"><a xlink:title=" ">
<path fill="none" stroke="#63b8ff" d="M566.85,-142.98C593.11,-138.53 624.1,-132.36 649.79,-126.44"/>
<polygon fill="#63b8ff" stroke="#63b8ff" points="566.33,-139.52 557.02,-144.59 567.46,-146.43 566.33,-139.52"/>
</a>
</g>
</g>
<!-- Node3 -->
<g id="Node000003" class="node">
<title>Node3</title>
<g id="a_Node000003"><a xlink:href="../../df/d8c/classogxx_1_1_edge__list.html" target="_top" xlink:title="Interface (abstract base class) for storing an edge list of a graph.">
<polygon fill="white" stroke="#666666" points="550.75,-120 467.25,-120 467.25,-100 550.75,-100 550.75,-120"/>
<text text-anchor="middle" x="509" y="-106.5" font-family="Helvetica,sans-Serif" font-size="10.00">ogxx::Edge_list</text>
</a>
</g>
</g>
<!-- Node3&#45;&gt;Node1 -->
<g id="edge3_Node000001_Node000003" class="edge">
<title>Node3&#45;&gt;Node1</title>
<g id="a_edge3_Node000001_Node000003"><a xlink:title=" ">
<path fill="none" stroke="#9a32cd" stroke-dasharray="5,2" d="M562.45,-110C585.39,-110 612.55,-110 636.79,-110"/>
<polygon fill="#9a32cd" stroke="#9a32cd" points="562.73,-106.5 552.73,-110 562.73,-113.5 562.73,-106.5"/>
</a>
</g>
<text text-anchor="middle" x="600.25" y="-112.5" font-family="Helvetica,sans-Serif" font-size="10.00" fill="grey"> _el</text>
</g>
<!-- Node4 -->
<g id="Node000004" class="node">
<title>Node4</title>
<g id="a_Node000004"><a xlink:href="../../d2/d24/classogxx_1_1_bag.html" target="_top" xlink:title=" ">
<polygon fill="white" stroke="#666666" points="417.5,-120 289.75,-120 289.75,-100 417.5,-100 417.5,-120"/>
<text text-anchor="middle" x="353.62" y="-106.5" font-family="Helvetica,sans-Serif" font-size="10.00">ogxx::Bag&lt; Vertex_pair &gt;</text>
</a>
</g>
</g>
<!-- Node4&#45;&gt;Node3 -->
<g id="edge4_Node000003_Node000004" class="edge">
<title>Node4&#45;&gt;Node3</title>
<g id="a_edge4_Node000003_Node000004"><a xlink:title=" ">
<path fill="none" stroke="#63b8ff" d="M429.21,-110C442.14,-110 455.16,-110 466.78,-110"/>
<polygon fill="#63b8ff" stroke="#63b8ff" points="429.41,-106.5 419.41,-110 429.41,-113.5 429.41,-106.5"/>
</a>
</g>
</g>
<!-- Node5 -->
<g id="Node000005" class="node">
<title>Node5</title>
<g id="a_Node000005"><a xlink:href="../../d9/d72/classogxx_1_1_sized__iterable.html" target="_top" xlink:title="Not only iterable but we know in advance, how many items it contains.">
<polygon fill="white" stroke="#666666" points="252.75,-126 148.25,-126 148.25,-94 252.75,-94 252.75,-126"/>
<text text-anchor="start" x="156.25" y="-112.5" font-family="Helvetica,sans-Serif" font-size="10.00">ogxx::Sized_iterable</text>
<text text-anchor="middle" x="200.5" y="-100.5" font-family="Helvetica,sans-Serif" font-size="10.00">&lt; Item &gt;</text>
</a>
</g>
</g>
<!-- Node5&#45;&gt;Node4 -->
<g id="edge5_Node000004_Node000005" class="edge">
<title>Node5&#45;&gt;Node4</title>
<g id="a_edge5_Node000004_Node000005"><a xlink:title=" ">
<path fill="none" stroke="#63b8ff" d="M264.56,-110C272.81,-110 281.26,-110 289.5,-110"/>
<polygon fill="#63b8ff" stroke="#63b8ff" points="264.6,-106.5 254.6,-110 264.6,-113.5 264.6,-106.5"/>
</a>
</g>
</g>
<!-- Node6 -->
<g id="Node000006" class="node">
<title>Node6</title>
<g id="a_Node000006"><a xlink:href="../../d8/d9b/classogxx_1_1_iterable.html" target="_top" xlink:title="An interface for an object that can be iterated with an iterator.">
<polygon fill="white" stroke="#666666" points="111.25,-94 0,-94 0,-74 111.25,-74 111.25,-94"/>
<text text-anchor="middle" x="55.62" y="-80.5" font-family="Helvetica,sans-Serif" font-size="10.00">ogxx::Iterable&lt; Item &gt;</text>
</a>
</g>
</g>
<!-- Node6&#45;&gt;Node5 -->
<g id="edge6_Node000005_Node000006" class="edge">
<title>Node6&#45;&gt;Node5</title>
<g id="a_edge6_Node000005_Node000006"><a xlink:title=" ">
<path fill="none" stroke="#63b8ff" d="M122.53,-95.99C131.03,-97.54 139.64,-99.11 147.87,-100.6"/>
<polygon fill="#63b8ff" stroke="#63b8ff" points="123.41,-92.6 112.94,-94.25 122.16,-99.48 123.41,-92.6"/>
</a>
</g>
</g>
<!-- Node10 -->
<g id="Node000010" class="node">
<title>Node10</title>
<g id="a_Node000010"><a xlink:href="../../d9/d72/classogxx_1_1_sized__iterable.html" target="_top" xlink:title="Not only iterable but we know in advance, how many items it contains.">
<polygon fill="white" stroke="#666666" points="252.75,-76 148.25,-76 148.25,-44 252.75,-44 252.75,-76"/>
<text text-anchor="start" x="156.25" y="-62.5" font-family="Helvetica,sans-Serif" font-size="10.00">ogxx::Sized_iterable</text>
<text text-anchor="middle" x="200.5" y="-50.5" font-family="Helvetica,sans-Serif" font-size="10.00">&lt; Item &gt;</text>
</a>
</g>
</g>
<!-- Node6&#45;&gt;Node10 -->
<g id="edge11_Node000010_Node000006" class="edge">
<title>Node6&#45;&gt;Node10</title>
<g id="a_edge11_Node000010_Node000006"><a xlink:title=" ">
<path fill="none" stroke="#63b8ff" d="M122.53,-72.93C131.03,-71.5 139.64,-70.05 147.87,-68.67"/>
<polygon fill="#63b8ff" stroke="#63b8ff" points="122.23,-69.43 112.95,-74.54 123.39,-76.33 122.23,-69.43"/>
</a>
</g>
</g>
<!-- Node7 -->
<g id="Node000007" class="node">
<title>Node7</title>
<g id="a_Node000007"><a xlink:href="../../d3/da1/classogxx_1_1_st__set.html" target="_top" xlink:title=" ">
<polygon fill="white" stroke="#666666" points="563.5,-32 454.5,-32 454.5,0 563.5,0 563.5,-32"/>
<text text-anchor="start" x="462.5" y="-18.5" font-family="Helvetica,sans-Serif" font-size="10.00">ogxx::St_set&lt; Vertex</text>
<text text-anchor="middle" x="509" y="-6.5" font-family="Helvetica,sans-Serif" font-size="10.00">_pair &gt;</text>
</a>
</g>
</g>
<!-- Node7&#45;&gt;Node1 -->
<g id="edge7_Node000001_Node000007" class="edge">
<title>Node7&#45;&gt;Node1</title>
<g id="a_edge7_Node000001_Node000007"><a xlink:title=" ">
<path fill="none" stroke="#9a32cd" stroke-dasharray="5,2" d="M557.63,-37.14C576.81,-45.84 599.07,-56.17 619,-66 636.86,-74.82 656.58,-85.22 672.33,-93.7"/>
<polygon fill="#9a32cd" stroke="#9a32cd" points="559.26,-34.04 548.71,-33.11 556.38,-40.42 559.26,-34.04"/>
</a>
</g>
<text text-anchor="middle" x="600.25" y="-68.5" font-family="Helvetica,sans-Serif" font-size="10.00" fill="grey"> _as_set</text>
</g>
<!-- Node8 -->
<g id="Node000008" class="node">
<title>Node8</title>
<g id="a_Node000008"><a xlink:href="../../d8/d68/classogxx_1_1_list.html" target="_top" xlink:title=" ">
<polygon fill="white" stroke="#666666" points="557.12,-82 460.88,-82 460.88,-50 557.12,-50 557.12,-82"/>
<text text-anchor="start" x="468.88" y="-68.5" font-family="Helvetica,sans-Serif" font-size="10.00">ogxx::List&lt; Vertex</text>
<text text-anchor="middle" x="509" y="-56.5" font-family="Helvetica,sans-Serif" font-size="10.00">_pair &gt;</text>
</a>
</g>
</g>
<!-- Node8&#45;&gt;Node1 -->
<g id="edge8_Node000001_Node000008" class="edge">
<title>Node8&#45;&gt;Node1</title>
<g id="a_edge8_Node000001_Node000008"><a xlink:title=" ">
<path fill="none" stroke="#9a32cd" stroke-dasharray="5,2" d="M568.46,-79.39C590.02,-84.33 614.57,-89.95 636.7,-95.02"/>
<polygon fill="#9a32cd" stroke="#9a32cd" points="569.5,-76.04 558.97,-77.21 567.93,-82.86 569.5,-76.04"/>
</a>
</g>
<text text-anchor="middle" x="600.25" y="-92.5" font-family="Helvetica,sans-Serif" font-size="10.00" fill="grey"> _as_list</text>
</g>
<!-- Node9 -->
<g id="Node000009" class="node">
<title>Node9</title>
<g id="a_Node000009"><a xlink:href="../../d2/d20/classogxx_1_1_indexed__iterable.html" target="_top" xlink:title="Finally, the linear zero&#45;based integer&#45;indexed iterable collection.">
<polygon fill="white" stroke="#666666" points="410.38,-82 296.88,-82 296.88,-50 410.38,-50 410.38,-82"/>
<text text-anchor="start" x="304.88" y="-68.5" font-family="Helvetica,sans-Serif" font-size="10.00">ogxx::Indexed_iterable</text>
<text text-anchor="middle" x="353.62" y="-56.5" font-family="Helvetica,sans-Serif" font-size="10.00">&lt; Item &gt;</text>
</a>
</g>
</g>
<!-- Node9&#45;&gt;Node8 -->
<g id="edge9_Node000008_Node000009" class="edge">
<title>Node9&#45;&gt;Node8</title>
<g id="a_edge9_Node000008_Node000009"><a xlink:title=" ">
<path fill="none" stroke="#63b8ff" d="M422.19,-66C435.23,-66 448.62,-66 460.84,-66"/>
<polygon fill="#63b8ff" stroke="#63b8ff" points="422.38,-62.5 412.38,-66 422.38,-69.5 422.38,-62.5"/>
</a>
</g>
</g>
<!-- Node10&#45;&gt;Node9 -->
<g id="edge10_Node000009_Node000010" class="edge">
<title>Node10&#45;&gt;Node9</title>
<g id="a_edge10_Node000009_Node000010"><a xlink:title=" ">
<path fill="none" stroke="#63b8ff" d="M264.48,-62.5C275.14,-62.92 286.15,-63.36 296.62,-63.78"/>
<polygon fill="#63b8ff" stroke="#63b8ff" points="264.73,-59.01 254.6,-62.11 264.45,-66 264.73,-59.01"/>
</a>
</g>
</g>
<!-- Node11 -->
<g id="Node000011" class="node">
<title>Node11</title>
<g id="a_Node000011"><a xlink:href="../../d2/d24/classogxx_1_1_bag.html" target="_top" xlink:title="Generic container interface with inserts and erases but no fixed ordering of items.">
<polygon fill="white" stroke="#666666" points="402.12,-32 305.12,-32 305.12,-12 402.12,-12 402.12,-32"/>
<text text-anchor="middle" x="353.62" y="-18.5" font-family="Helvetica,sans-Serif" font-size="10.00">ogxx::Bag&lt; Item &gt;</text>
</a>
</g>
</g>
<!-- Node10&#45;&gt;Node11 -->
<g id="edge13_Node000011_Node000010" class="edge">
<title>Node10&#45;&gt;Node11</title>
<g id="a_edge13_Node000011_Node000010"><a xlink:title=" ">
<path fill="none" stroke="#63b8ff" d="M263.96,-44.29C279.92,-40.28 296.67,-36.07 311.27,-32.4"/>
<polygon fill="#63b8ff" stroke="#63b8ff" points="263.4,-40.83 254.55,-46.66 265.11,-47.62 263.4,-40.83"/>
</a>
</g>
</g>
<!-- Node11&#45;&gt;Node8 -->
<g id="edge12_Node000008_Node000011" class="edge">
<title>Node11&#45;&gt;Node8</title>
<g id="a_edge12_Node000008_Node000011"><a xlink:title=" ">
<path fill="none" stroke="#63b8ff" d="M401.89,-35.56C420.53,-40.91 441.92,-47.04 460.58,-52.4"/>
<polygon fill="#63b8ff" stroke="#63b8ff" points="403.01,-32.24 392.43,-32.84 401.07,-38.97 403.01,-32.24"/>
</a>
</g>
</g>
</g>
</svg>
