<?xml version="1.0" encoding="UTF-8" standalone="no"?>
<!DOCTYPE svg PUBLIC "-//W3C//DTD SVG 1.1//EN"
 "http://www.w3.org/Graphics/SVG/1.1/DTD/svg11.dtd">
<!-- Generated by graphviz version 9.0.0 (20230911.1827)
 -->
<!-- Title: source/symmetric_dense_bit_matrix.cpp Pages: 1 -->
<svg width="506pt" height="432pt"
 viewBox="0.00 0.00 506.12 432.00" xmlns="http://www.w3.org/2000/svg" xmlns:xlink="http://www.w3.org/1999/xlink">
<g id="graph0" class="graph" transform="scale(1 1) rotate(0) translate(4 428)">
<title>source/symmetric_dense_bit_matrix.cpp</title>
<!-- Node1 -->
<g id="Node000001" class="node">
<title>Node1</title>
<g id="a_Node000001"><a xlink:title="Symmetric_dense_bit matrix implementation (of abstract matrix interface from matrix....">
<polygon fill="#999999" stroke="#666666" points="328.5,-424 203,-424 203,-392 328.5,-392 328.5,-424"/>
<text text-anchor="start" x="211" y="-410.5" font-family="Helvetica,sans-Serif" font-size="10.00">source/symmetric_dense</text>
<text text-anchor="middle" x="265.75" y="-398.5" font-family="Helvetica,sans-Serif" font-size="10.00">_bit_matrix.cpp</text>
</a>
</g>
</g>
<!-- Node2 -->
<g id="Node000002" class="node">
<title>Node2</title>
<g id="a_Node000002"><a xlink:href="../../dc/dbd/bit__matrix_8hpp.html" target="_top" xlink:title="Bit_matrix interface.">
<polygon fill="white" stroke="#666666" points="226.5,-356 125,-356 125,-336 226.5,-336 226.5,-356"/>
<text text-anchor="middle" x="175.75" y="-342.5" font-family="Helvetica,sans-Serif" font-size="10.00">ogxx/bit_matrix.hpp</text>
</a>
</g>
</g>
<!-- Node1&#45;&gt;Node2 -->
<g id="edge1_Node000001_Node000002" class="edge">
<title>Node1&#45;&gt;Node2</title>
<g id="a_edge1_Node000001_Node000002"><a xlink:title=" ">
<path fill="none" stroke="#63b8ff" d="M242.57,-391.55C229.29,-382.69 212.66,-371.61 199.32,-362.71"/>
<polygon fill="#63b8ff" stroke="#63b8ff" points="201.38,-359.88 191.12,-357.25 197.5,-365.71 201.38,-359.88"/>
</a>
</g>
</g>
<!-- Node18 -->
<g id="Node000018" class="node">
<title>Node18</title>
<g id="a_Node000018"><a xlink:title=" ">
<polygon fill="#e0e0e0" stroke="#999999" points="286.5,-356 245,-356 245,-336 286.5,-336 286.5,-356"/>
<text text-anchor="middle" x="265.75" y="-342.5" font-family="Helvetica,sans-Serif" font-size="10.00">vector</text>
</a>
</g>
</g>
<!-- Node1&#45;&gt;Node18 -->
<g id="edge21_Node000001_Node000018" class="edge">
<title>Node1&#45;&gt;Node18</title>
<g id="a_edge21_Node000001_Node000018"><a xlink:title=" ">
<path fill="none" stroke="#63b8ff" d="M265.75,-391.55C265.75,-384.34 265.75,-375.66 265.75,-367.88"/>
<polygon fill="#63b8ff" stroke="#63b8ff" points="269.25,-367.92 265.75,-357.92 262.25,-367.92 269.25,-367.92"/>
</a>
</g>
</g>
<!-- Node19 -->
<g id="Node000019" class="node">
<title>Node19</title>
<g id="a_Node000019"><a xlink:title=" ">
<polygon fill="#e0e0e0" stroke="#999999" points="349,-356 304.5,-356 304.5,-336 349,-336 349,-356"/>
<text text-anchor="middle" x="326.75" y="-342.5" font-family="Helvetica,sans-Serif" font-size="10.00">climits</text>
</a>
</g>
</g>
<!-- Node1&#45;&gt;Node19 -->
<g id="edge22_Node000001_Node000019" class="edge">
<title>Node1&#45;&gt;Node19</title>
<g id="a_edge22_Node000001_Node000019"><a xlink:title=" ">
<path fill="none" stroke="#63b8ff" d="M281.46,-391.55C289.93,-383.22 300.41,-372.91 309.16,-364.3"/>
<polygon fill="#63b8ff" stroke="#63b8ff" points="311.43,-366.98 316.11,-357.47 306.52,-361.99 311.43,-366.98"/>
</a>
</g>
</g>
<!-- Node3 -->
<g id="Node000003" class="node">
<title>Node3</title>
<g id="a_Node000003"><a xlink:href="../../df/dce/matrix_8hpp.html" target="_top" xlink:title="Abstract matrix interface.">
<polygon fill="white" stroke="#666666" points="164.62,-188 78.88,-188 78.88,-168 164.62,-168 164.62,-188"/>
<text text-anchor="middle" x="121.75" y="-174.5" font-family="Helvetica,sans-Serif" font-size="10.00">ogxx/matrix.hpp</text>
</a>
</g>
</g>
<!-- Node2&#45;&gt;Node3 -->
<g id="edge2_Node000002_Node000003" class="edge">
<title>Node2&#45;&gt;Node3</title>
<g id="a_edge2_Node000002_Node000003"><a xlink:title=" ">
<path fill="none" stroke="#63b8ff" d="M170.76,-335.55C166.17,-326.58 159.38,-312.63 154.75,-300 142.05,-265.36 131.7,-223.56 126.16,-199.26"/>
<polygon fill="#63b8ff" stroke="#63b8ff" points="129.63,-198.75 124.04,-189.75 122.8,-200.27 129.63,-198.75"/>
</a>
</g>
</g>
<!-- Node15 -->
<g id="Node000015" class="node">
<title>Node15</title>
<g id="a_Node000015"><a xlink:href="../../d7/d6c/graph__view_8hpp.html" target="_top" xlink:title="Graph view interface that may be used for graph representation coversion.">
<polygon fill="white" stroke="#666666" points="269.75,-300 163.75,-300 163.75,-280 269.75,-280 269.75,-300"/>
<text text-anchor="middle" x="216.75" y="-286.5" font-family="Helvetica,sans-Serif" font-size="10.00">ogxx/graph_view.hpp</text>
</a>
</g>
</g>
<!-- Node2&#45;&gt;Node15 -->
<g id="edge15_Node000002_Node000015" class="edge">
<title>Node2&#45;&gt;Node15</title>
<g id="a_edge15_Node000002_Node000015"><a xlink:title=" ">
<path fill="none" stroke="#63b8ff" d="M182.89,-335.59C188.36,-328.39 196.07,-318.23 202.76,-309.43"/>
<polygon fill="#63b8ff" stroke="#63b8ff" points="205.52,-311.58 208.77,-301.5 199.94,-307.35 205.52,-311.58"/>
</a>
</g>
</g>
<!-- Node4 -->
<g id="Node000004" class="node">
<title>Node4</title>
<g id="a_Node000004"><a xlink:href="../../de/d2f/primitive__definitions_8hpp.html" target="_top" xlink:title="Primitive type declarations like scalar indices and so on.">
<polygon fill="white" stroke="#666666" points="300.12,-76 157.38,-76 157.38,-56 300.12,-56 300.12,-76"/>
<text text-anchor="middle" x="228.75" y="-62.5" font-family="Helvetica,sans-Serif" font-size="10.00">ogxx/primitive_definitions.hpp</text>
</a>
</g>
</g>
<!-- Node3&#45;&gt;Node4 -->
<g id="edge3_Node000003_Node000004" class="edge">
<title>Node3&#45;&gt;Node4</title>
<g id="a_edge3_Node000003_Node000004"><a xlink:title=" ">
<path fill="none" stroke="#63b8ff" d="M122.04,-167.53C122.92,-153.82 126.39,-128.3 139.75,-112 151.36,-97.83 168.58,-87.68 184.79,-80.66"/>
<polygon fill="#63b8ff" stroke="#63b8ff" points="185.83,-84.01 193.82,-77.04 183.23,-77.51 185.83,-84.01"/>
</a>
</g>
</g>
<!-- Node13 -->
<g id="Node000013" class="node">
<title>Node13</title>
<g id="a_Node000013"><a xlink:href="../../d9/dde/iterator_8hpp.html" target="_top" xlink:title="Linear sequence iterator interfaces.">
<polygon fill="white" stroke="#666666" points="237.12,-132 148.38,-132 148.38,-112 237.12,-112 237.12,-132"/>
<text text-anchor="middle" x="192.75" y="-118.5" font-family="Helvetica,sans-Serif" font-size="10.00">ogxx/iterator.hpp</text>
</a>
</g>
</g>
<!-- Node3&#45;&gt;Node13 -->
<g id="edge12_Node000003_Node000013" class="edge">
<title>Node3&#45;&gt;Node13</title>
<g id="a_edge12_Node000003_Node000013"><a xlink:title=" ">
<path fill="none" stroke="#63b8ff" d="M134.12,-167.59C144.4,-159.77 159.27,-148.46 171.46,-139.19"/>
<polygon fill="#63b8ff" stroke="#63b8ff" points="173.48,-142.05 179.32,-133.21 169.24,-136.48 173.48,-142.05"/>
</a>
</g>
</g>
<!-- Node14 -->
<g id="Node000014" class="node">
<title>Node14</title>
<g id="a_Node000014"><a xlink:title=" ">
<polygon fill="#e0e0e0" stroke="#999999" points="92.5,-132 39,-132 39,-112 92.5,-112 92.5,-132"/>
<text text-anchor="middle" x="65.75" y="-118.5" font-family="Helvetica,sans-Serif" font-size="10.00">compare</text>
</a>
</g>
</g>
<!-- Node3&#45;&gt;Node14 -->
<g id="edge14_Node000003_Node000014" class="edge">
<title>Node3&#45;&gt;Node14</title>
<g id="a_edge14_Node000003_Node000014"><a xlink:title=" ">
<path fill="none" stroke="#63b8ff" d="M112,-167.59C104.13,-160.01 92.85,-149.13 83.4,-140.02"/>
<polygon fill="#63b8ff" stroke="#63b8ff" points="86.11,-137.77 76.48,-133.35 81.25,-142.81 86.11,-137.77"/>
</a>
</g>
</g>
<!-- Node5 -->
<g id="Node000005" class="node">
<title>Node5</title>
<g id="a_Node000005"><a xlink:title=" ">
<polygon fill="#e0e0e0" stroke="#999999" points="47.5,-20 0,-20 0,0 47.5,0 47.5,-20"/>
<text text-anchor="middle" x="23.75" y="-6.5" font-family="Helvetica,sans-Serif" font-size="10.00">cstddef</text>
</a>
</g>
</g>
<!-- Node4&#45;&gt;Node5 -->
<g id="edge4_Node000004_Node000005" class="edge">
<title>Node4&#45;&gt;Node5</title>
<g id="a_edge4_Node000004_Node000005"><a xlink:title=" ">
<path fill="none" stroke="#63b8ff" d="M191.57,-55.55C158.83,-47.19 109.57,-34.48 58.72,-20.77"/>
<polygon fill="#63b8ff" stroke="#63b8ff" points="59.88,-17.46 49.31,-18.23 58.05,-24.22 59.88,-17.46"/>
</a>
</g>
</g>
<!-- Node6 -->
<g id="Node000006" class="node">
<title>Node6</title>
<g id="a_Node000006"><a xlink:title=" ">
<polygon fill="#e0e0e0" stroke="#999999" points="110.38,-20 65.12,-20 65.12,0 110.38,0 110.38,-20"/>
<text text-anchor="middle" x="87.75" y="-6.5" font-family="Helvetica,sans-Serif" font-size="10.00">cstdint</text>
</a>
</g>
</g>
<!-- Node4&#45;&gt;Node6 -->
<g id="edge5_Node000004_Node000006" class="edge">
<title>Node4&#45;&gt;Node6</title>
<g id="a_edge5_Node000004_Node000006"><a xlink:title=" ">
<path fill="none" stroke="#63b8ff" d="M204.19,-55.59C181.23,-46.8 146.77,-33.6 121.29,-23.84"/>
<polygon fill="#63b8ff" stroke="#63b8ff" points="122.63,-20.61 112.04,-20.3 120.13,-27.15 122.63,-20.61"/>
</a>
</g>
</g>
<!-- Node7 -->
<g id="Node000007" class="node">
<title>Node7</title>
<g id="a_Node000007"><a xlink:title=" ">
<polygon fill="#e0e0e0" stroke="#999999" points="157.15,-20 128.35,-20 128.35,0 157.15,0 157.15,-20"/>
<text text-anchor="middle" x="142.75" y="-6.5" font-family="Helvetica,sans-Serif" font-size="10.00">bit</text>
</a>
</g>
</g>
<!-- Node4&#45;&gt;Node7 -->
<g id="edge6_Node000004_Node000007" class="edge">
<title>Node4&#45;&gt;Node7</title>
<g id="a_edge6_Node000004_Node000007"><a xlink:title=" ">
<path fill="none" stroke="#63b8ff" d="M213.77,-55.59C200.94,-47.54 182.23,-35.79 167.23,-26.37"/>
<polygon fill="#63b8ff" stroke="#63b8ff" points="169.17,-23.46 158.84,-21.1 165.45,-29.38 169.17,-23.46"/>
</a>
</g>
</g>
<!-- Node8 -->
<g id="Node000008" class="node">
<title>Node8</title>
<g id="a_Node000008"><a xlink:title=" ">
<polygon fill="#e0e0e0" stroke="#999999" points="214.38,-20 175.12,-20 175.12,0 214.38,0 214.38,-20"/>
<text text-anchor="middle" x="194.75" y="-6.5" font-family="Helvetica,sans-Serif" font-size="10.00">limits</text>
</a>
</g>
</g>
<!-- Node4&#45;&gt;Node8 -->
<g id="edge7_Node000004_Node000008" class="edge">
<title>Node4&#45;&gt;Node8</title>
<g id="a_edge7_Node000004_Node000008"><a xlink:title=" ">
<path fill="none" stroke="#63b8ff" d="M222.83,-55.59C218.39,-48.55 212.17,-38.67 206.71,-30"/>
<polygon fill="#63b8ff" stroke="#63b8ff" points="209.7,-28.18 201.41,-21.58 203.78,-31.91 209.7,-28.18"/>
</a>
</g>
</g>
<!-- Node9 -->
<g id="Node000009" class="node">
<title>Node9</title>
<g id="a_Node000009"><a xlink:title=" ">
<polygon fill="#e0e0e0" stroke="#999999" points="294.62,-20 232.88,-20 232.88,0 294.62,0 294.62,-20"/>
<text text-anchor="middle" x="263.75" y="-6.5" font-family="Helvetica,sans-Serif" font-size="10.00">type_traits</text>
</a>
</g>
</g>
<!-- Node4&#45;&gt;Node9 -->
<g id="edge8_Node000004_Node000009" class="edge">
<title>Node4&#45;&gt;Node9</title>
<g id="a_edge8_Node000004_Node000009"><a xlink:title=" ">
<path fill="none" stroke="#63b8ff" d="M234.85,-55.59C239.46,-48.47 245.96,-38.45 251.62,-29.72"/>
<polygon fill="#63b8ff" stroke="#63b8ff" points="254.4,-31.86 256.9,-21.57 248.52,-28.06 254.4,-31.86"/>
</a>
</g>
</g>
<!-- Node10 -->
<g id="Node000010" class="node">
<title>Node10</title>
<g id="a_Node000010"><a xlink:title=" ">
<polygon fill="#e0e0e0" stroke="#999999" points="364.38,-20 313.12,-20 313.12,0 364.38,0 364.38,-20"/>
<text text-anchor="middle" x="338.75" y="-6.5" font-family="Helvetica,sans-Serif" font-size="10.00">memory</text>
</a>
</g>
</g>
<!-- Node4&#45;&gt;Node10 -->
<g id="edge9_Node000004_Node000010" class="edge">
<title>Node4&#45;&gt;Node10</title>
<g id="a_edge9_Node000004_Node000010"><a xlink:title=" ">
<path fill="none" stroke="#63b8ff" d="M247.91,-55.59C264.84,-47.28 289.8,-35.03 309.27,-25.47"/>
<polygon fill="#63b8ff" stroke="#63b8ff" points="310.65,-28.7 318.08,-21.15 307.56,-22.41 310.65,-28.7"/>
</a>
</g>
</g>
<!-- Node11 -->
<g id="Node000011" class="node">
<title>Node11</title>
<g id="a_Node000011"><a xlink:title=" ">
<polygon fill="#e0e0e0" stroke="#999999" points="421.38,-20 382.12,-20 382.12,0 421.38,0 421.38,-20"/>
<text text-anchor="middle" x="401.75" y="-6.5" font-family="Helvetica,sans-Serif" font-size="10.00">utility</text>
</a>
</g>
</g>
<!-- Node4&#45;&gt;Node11 -->
<g id="edge10_Node000004_Node000011" class="edge">
<title>Node4&#45;&gt;Node11</title>
<g id="a_edge10_Node000004_Node000011"><a xlink:title=" ">
<path fill="none" stroke="#63b8ff" d="M259.61,-55.52C286.75,-47.16 327.59,-34.54 371.07,-20.83"/>
<polygon fill="#63b8ff" stroke="#63b8ff" points="371.95,-24.22 380.43,-17.87 369.84,-17.55 371.95,-24.22"/>
</a>
</g>
</g>
<!-- Node12 -->
<g id="Node000012" class="node">
<title>Node12</title>
<g id="a_Node000012"><a xlink:title=" ">
<polygon fill="#e0e0e0" stroke="#999999" points="498.12,-20 439.38,-20 439.38,0 498.12,0 498.12,-20"/>
<text text-anchor="middle" x="468.75" y="-6.5" font-family="Helvetica,sans-Serif" font-size="10.00">stdexcept</text>
</a>
</g>
</g>
<!-- Node4&#45;&gt;Node12 -->
<g id="edge11_Node000004_Node000012" class="edge">
<title>Node4&#45;&gt;Node12</title>
<g id="a_edge11_Node000004_Node000012"><a xlink:title=" ">
<path fill="none" stroke="#63b8ff" d="M272.13,-55.51C310.67,-47.04 368.81,-34.17 427.86,-20.64"/>
<polygon fill="#63b8ff" stroke="#63b8ff" points="428.45,-24.1 437.41,-18.45 426.88,-17.28 428.45,-24.1"/>
</a>
</g>
</g>
<!-- Node13&#45;&gt;Node4 -->
<g id="edge13_Node000013_Node000004" class="edge">
<title>Node13&#45;&gt;Node4</title>
<g id="a_edge13_Node000013_Node000004"><a xlink:title=" ">
<path fill="none" stroke="#63b8ff" d="M199.02,-111.59C203.77,-104.47 210.45,-94.45 216.27,-85.72"/>
<polygon fill="#63b8ff" stroke="#63b8ff" points="219.08,-87.82 221.71,-77.56 213.25,-83.94 219.08,-87.82"/>
</a>
</g>
</g>
<!-- Node16 -->
<g id="Node000016" class="node">
<title>Node16</title>
<g id="a_Node000016"><a xlink:href="../../d4/d1a/vertex__pair_8hpp.html" target="_top" xlink:title="Vertex pair related type declarations.">
<polygon fill="white" stroke="#666666" points="281.38,-244 176.12,-244 176.12,-224 281.38,-224 281.38,-244"/>
<text text-anchor="middle" x="228.75" y="-230.5" font-family="Helvetica,sans-Serif" font-size="10.00">ogxx/vertex_pair.hpp</text>
</a>
</g>
</g>
<!-- Node15&#45;&gt;Node16 -->
<g id="edge16_Node000015_Node000016" class="edge">
<title>Node15&#45;&gt;Node16</title>
<g id="a_edge16_Node000015_Node000016"><a xlink:title=" ">
<path fill="none" stroke="#63b8ff" d="M218.84,-279.59C220.32,-272.93 222.36,-263.75 224.21,-255.44"/>
<polygon fill="#63b8ff" stroke="#63b8ff" points="227.6,-256.3 226.36,-245.78 220.77,-254.78 227.6,-256.3"/>
</a>
</g>
</g>
<!-- Node16&#45;&gt;Node4 -->
<g id="edge17_Node000016_Node000004" class="edge">
<title>Node16&#45;&gt;Node4</title>
<g id="a_edge17_Node000016_Node000004"><a xlink:title=" ">
<path fill="none" stroke="#63b8ff" d="M246.97,-223.51C259.59,-215.82 275.4,-203.69 282.75,-188 286.52,-179.95 284.47,-176.72 282.75,-168 276.55,-136.58 256.78,-104.72 242.97,-85.41"/>
<polygon fill="#63b8ff" stroke="#63b8ff" points="245.87,-83.46 237.11,-77.5 240.25,-87.62 245.87,-83.46"/>
</a>
</g>
</g>
<!-- Node17 -->
<g id="Node000017" class="node">
<title>Node17</title>
<g id="a_Node000017"><a xlink:href="../../db/d3e/iterable_8hpp.html" target="_top" xlink:title="Iterable interfaces.">
<polygon fill="white" stroke="#666666" points="273.88,-188 183.62,-188 183.62,-168 273.88,-168 273.88,-188"/>
<text text-anchor="middle" x="228.75" y="-174.5" font-family="Helvetica,sans-Serif" font-size="10.00">ogxx/iterable.hpp</text>
</a>
</g>
</g>
<!-- Node16&#45;&gt;Node17 -->
<g id="edge18_Node000016_Node000017" class="edge">
<title>Node16&#45;&gt;Node17</title>
<g id="a_edge18_Node000016_Node000017"><a xlink:title=" ">
<path fill="none" stroke="#63b8ff" d="M228.75,-223.59C228.75,-217.01 228.75,-207.96 228.75,-199.73"/>
<polygon fill="#63b8ff" stroke="#63b8ff" points="232.25,-199.81 228.75,-189.81 225.25,-199.81 232.25,-199.81"/>
</a>
</g>
</g>
<!-- Node17&#45;&gt;Node4 -->
<g id="edge19_Node000017_Node000004" class="edge">
<title>Node17&#45;&gt;Node4</title>
<g id="a_edge19_Node000017_Node000004"><a xlink:title=" ">
<path fill="none" stroke="#63b8ff" d="M233.43,-167.63C237.61,-158.72 243.41,-144.82 245.75,-132 248.57,-116.54 243.71,-99.34 238.48,-86.53"/>
<polygon fill="#63b8ff" stroke="#63b8ff" points="241.72,-85.2 234.4,-77.54 235.34,-88.09 241.72,-85.2"/>
</a>
</g>
</g>
<!-- Node17&#45;&gt;Node13 -->
<g id="edge20_Node000017_Node000013" class="edge">
<title>Node17&#45;&gt;Node13</title>
<g id="a_edge20_Node000017_Node000013"><a xlink:title=" ">
<path fill="none" stroke="#63b8ff" d="M222.48,-167.59C217.73,-160.47 211.05,-150.45 205.23,-141.72"/>
<polygon fill="#63b8ff" stroke="#63b8ff" points="208.25,-139.94 199.79,-133.56 202.42,-143.82 208.25,-139.94"/>
</a>
</g>
</g>
</g>
</svg>
