<?xml version="1.0" encoding="UTF-8" standalone="no"?>
<!DOCTYPE svg PUBLIC "-//W3C//DTD SVG 1.1//EN"
 "http://www.w3.org/Graphics/SVG/1.1/DTD/svg11.dtd">
<!-- Generated by graphviz version 9.0.0 (20230911.1827)
 -->
<!-- Title: ogxx::Dense_st_matrix&lt; ST &gt; Pages: 1 -->
<svg width="354pt" height="234pt"
 viewBox="0.00 0.00 353.62 234.00" xmlns="http://www.w3.org/2000/svg" xmlns:xlink="http://www.w3.org/1999/xlink">
<g id="graph0" class="graph" transform="scale(1 1) rotate(0) translate(4 230)">
<title>ogxx::Dense_st_matrix&lt; ST &gt;</title>
<!-- Node1 -->
<g id="Node000001" class="node">
<title>Node1</title>
<g id="a_Node000001"><a xlink:title=" ">
<polygon fill="#999999" stroke="#666666" points="181.38,-32 64.88,-32 64.88,0 181.38,0 181.38,-32"/>
<text text-anchor="start" x="72.88" y="-18.5" font-family="Helvetica,sans-Serif" font-size="10.00">ogxx::Dense_st_matrix</text>
<text text-anchor="middle" x="123.12" y="-6.5" font-family="Helvetica,sans-Serif" font-size="10.00">&lt; ST &gt;</text>
</a>
</g>
</g>
<!-- Node2 -->
<g id="Node000002" class="node">
<title>Node2</title>
<g id="a_Node000002"><a xlink:href="../../da/dce/classogxx_1_1_st__matrix.html" target="_top" xlink:title="Simple type matrix interface. Iterating the matrix means going through all its elements in row&#45;major ...">
<polygon fill="white" stroke="#666666" points="117.62,-100 2.62,-100 2.62,-80 117.62,-80 117.62,-100"/>
<text text-anchor="middle" x="60.12" y="-86.5" font-family="Helvetica,sans-Serif" font-size="10.00">ogxx::St_matrix&lt; ST &gt;</text>
</a>
</g>
</g>
<!-- Node2&#45;&gt;Node1 -->
<g id="edge1_Node000001_Node000002" class="edge">
<title>Node2&#45;&gt;Node1</title>
<g id="a_edge1_Node000001_Node000002"><a xlink:title=" ">
<path fill="none" stroke="#63b8ff" d="M70.23,-70.62C79.43,-58.82 92.8,-43.66 103.93,-32.47"/>
<polygon fill="#63b8ff" stroke="#63b8ff" points="67.64,-68.24 64.53,-78.37 73.28,-72.39 67.64,-68.24"/>
</a>
</g>
</g>
<!-- Node2&#45;&gt;Node1 -->
<g id="edge5_Node000001_Node000002" class="edge">
<title>Node2&#45;&gt;Node1</title>
<g id="a_edge5_Node000001_Node000002"><a xlink:title=" ">
<path fill="none" stroke="#63b8ff" d="M81.15,-71.67C92.85,-59.73 106.55,-43.99 115.25,-32.47"/>
<polygon fill="#63b8ff" stroke="#63b8ff" points="78.86,-69.02 74.17,-78.53 83.76,-74.02 78.86,-69.02"/>
</a>
</g>
</g>
<!-- Node3 -->
<g id="Node000003" class="node">
<title>Node3</title>
<g id="a_Node000003"><a xlink:href="../../d0/d06/classogxx_1_1_matrix__base.html" target="_top" xlink:title="Common matrix function independent of matrix item type.">
<polygon fill="white" stroke="#666666" points="96.25,-163 0,-163 0,-143 96.25,-143 96.25,-163"/>
<text text-anchor="middle" x="48.12" y="-149.5" font-family="Helvetica,sans-Serif" font-size="10.00">ogxx::Matrix_base</text>
</a>
</g>
</g>
<!-- Node3&#45;&gt;Node2 -->
<g id="edge2_Node000002_Node000003" class="edge">
<title>Node3&#45;&gt;Node2</title>
<g id="a_edge2_Node000002_Node000003"><a xlink:title=" ">
<path fill="none" stroke="#63b8ff" d="M52.15,-131.53C54.23,-120.98 56.66,-108.62 58.29,-100.35"/>
<polygon fill="#63b8ff" stroke="#63b8ff" points="48.74,-130.76 50.24,-141.25 55.6,-132.11 48.74,-130.76"/>
</a>
</g>
</g>
<!-- Node4 -->
<g id="Node000004" class="node">
<title>Node4</title>
<g id="a_Node000004"><a xlink:href="../../d9/d72/classogxx_1_1_sized__iterable.html" target="_top" xlink:title=" ">
<polygon fill="white" stroke="#666666" points="218.38,-169 113.88,-169 113.88,-137 218.38,-137 218.38,-169"/>
<text text-anchor="start" x="121.88" y="-155.5" font-family="Helvetica,sans-Serif" font-size="10.00">ogxx::Sized_iterable</text>
<text text-anchor="middle" x="166.12" y="-143.5" font-family="Helvetica,sans-Serif" font-size="10.00">&lt; ST &gt;</text>
</a>
</g>
</g>
<!-- Node4&#45;&gt;Node2 -->
<g id="edge3_Node000002_Node000004" class="edge">
<title>Node4&#45;&gt;Node2</title>
<g id="a_edge3_Node000002_Node000004"><a xlink:title=" ">
<path fill="none" stroke="#63b8ff" d="M129.45,-130.9C111.46,-120.54 90.69,-108.59 76.61,-100.49"/>
<polygon fill="#63b8ff" stroke="#63b8ff" points="127.65,-133.9 138.06,-135.85 131.14,-127.83 127.65,-133.9"/>
</a>
</g>
</g>
<!-- Node5 -->
<g id="Node000005" class="node">
<title>Node5</title>
<g id="a_Node000005"><a xlink:href="../../d8/d9b/classogxx_1_1_iterable.html" target="_top" xlink:title="An interface for an object that can be iterated with an iterator.">
<polygon fill="white" stroke="#666666" points="221.75,-226 110.5,-226 110.5,-206 221.75,-206 221.75,-226"/>
<text text-anchor="middle" x="166.12" y="-212.5" font-family="Helvetica,sans-Serif" font-size="10.00">ogxx::Iterable&lt; Item &gt;</text>
</a>
</g>
</g>
<!-- Node5&#45;&gt;Node4 -->
<g id="edge4_Node000004_Node000005" class="edge">
<title>Node5&#45;&gt;Node4</title>
<g id="a_edge4_Node000004_Node000005"><a xlink:title=" ">
<path fill="none" stroke="#63b8ff" d="M166.12,-194.36C166.12,-186.07 166.12,-176.69 166.12,-169.06"/>
<polygon fill="#63b8ff" stroke="#63b8ff" points="162.63,-194.22 166.13,-204.22 169.63,-194.22 162.63,-194.22"/>
</a>
</g>
</g>
<!-- Node6 -->
<g id="Node000006" class="node">
<title>Node6</title>
<g id="a_Node000006"><a xlink:href="../../d3/d28/structogxx_1_1_matrix__shape.html" target="_top" xlink:title="Matrix shape description (just two sizes).">
<polygon fill="white" stroke="#666666" points="236.88,-100 135.38,-100 135.38,-80 236.88,-80 236.88,-100"/>
<text text-anchor="middle" x="186.12" y="-86.5" font-family="Helvetica,sans-Serif" font-size="10.00">ogxx::Matrix_shape</text>
</a>
</g>
</g>
<!-- Node6&#45;&gt;Node1 -->
<g id="edge6_Node000001_Node000006" class="edge">
<title>Node6&#45;&gt;Node1</title>
<g id="a_edge6_Node000001_Node000006"><a xlink:title=" ">
<path fill="none" stroke="#9a32cd" stroke-dasharray="5,2" d="M170.35,-70.97C159.98,-59.12 146.55,-43.77 136.66,-32.47"/>
<polygon fill="#9a32cd" stroke="#9a32cd" points="167.67,-73.23 176.89,-78.45 172.94,-68.62 167.67,-73.23"/>
</a>
</g>
<text text-anchor="middle" x="179.38" y="-52.5" font-family="Helvetica,sans-Serif" font-size="10.00" fill="grey"> shape_</text>
</g>
<!-- Node7 -->
<g id="Node000007" class="node">
<title>Node7</title>
<g id="a_Node000007"><a xlink:title=" ">
<polygon fill="white" stroke="#666666" points="345.62,-100 254.62,-100 254.62,-80 345.62,-80 345.62,-100"/>
<text text-anchor="middle" x="300.12" y="-86.5" font-family="Helvetica,sans-Serif" font-size="10.00">std::vector&lt; ST &gt;</text>
</a>
</g>
</g>
<!-- Node7&#45;&gt;Node1 -->
<g id="edge7_Node000001_Node000007" class="edge">
<title>Node7&#45;&gt;Node1</title>
<g id="a_edge7_Node000001_Node000007"><a xlink:title=" ">
<path fill="none" stroke="#9a32cd" stroke-dasharray="5,2" d="M266.6,-75.36C236.55,-63.14 192.51,-45.22 161.16,-32.47"/>
<polygon fill="#9a32cd" stroke="#9a32cd" points="265,-78.49 275.58,-79.02 267.64,-72.01 265,-78.49"/>
</a>
</g>
<text text-anchor="middle" x="249.75" y="-52.5" font-family="Helvetica,sans-Serif" font-size="10.00" fill="grey"> matrix_</text>
</g>
</g>
</svg>
