<?xml version="1.0" encoding="UTF-8" standalone="no"?>
<!DOCTYPE svg PUBLIC "-//W3C//DTD SVG 1.1//EN"
 "http://www.w3.org/Graphics/SVG/1.1/DTD/svg11.dtd">
<!-- Generated by graphviz version 9.0.0 (20230911.1827)
 -->
<!-- Title: include/ogxx/stl_iterator.hpp Pages: 1 -->
<svg width="1226pt" height="164pt"
 viewBox="0.00 0.00 1225.88 164.00" xmlns="http://www.w3.org/2000/svg" xmlns:xlink="http://www.w3.org/1999/xlink">
<g id="graph0" class="graph" transform="scale(1 1) rotate(0) translate(4 160)">
<title>include/ogxx/stl_iterator.hpp</title>
<!-- Node1 -->
<g id="Node000001" class="node">
<title>Node1</title>
<g id="a_Node000001"><a xlink:title="This file defines the Stl_iterator class, which provides an iterator for standard C++ containers.">
<polygon fill="#999999" stroke="#666666" points="682.38,-156 544.12,-156 544.12,-136 682.38,-136 682.38,-156"/>
<text text-anchor="middle" x="613.25" y="-142.5" font-family="Helvetica,sans-Serif" font-size="10.00">include/ogxx/stl_iterator.hpp</text>
</a>
</g>
</g>
<!-- Node2 -->
<g id="Node000002" class="node">
<title>Node2</title>
<g id="a_Node000002"><a xlink:href="../../d5/d8b/adjacency__list__vector_8cpp.html" target="_top" xlink:title="Adjacency_list interface implementation over std::vector.">
<polygon fill="white" stroke="#666666" points="110.5,-100 0,-100 0,-68 110.5,-68 110.5,-100"/>
<text text-anchor="start" x="8" y="-86.5" font-family="Helvetica,sans-Serif" font-size="10.00">source/adjacency_list</text>
<text text-anchor="middle" x="55.25" y="-74.5" font-family="Helvetica,sans-Serif" font-size="10.00">_vector.cpp</text>
</a>
</g>
</g>
<!-- Node1&#45;&gt;Node2 -->
<g id="edge1_Node000001_Node000002" class="edge">
<title>Node1&#45;&gt;Node2</title>
<g id="a_edge1_Node000001_Node000002"><a xlink:title=" ">
<path fill="none" stroke="#63b8ff" d="M532.42,-141.1C434.23,-135.57 263.79,-123.4 119.25,-100 116.43,-99.54 113.56,-99.03 110.66,-98.48"/>
<polygon fill="#63b8ff" stroke="#63b8ff" points="532.05,-144.59 542.22,-141.64 532.43,-137.6 532.05,-144.59"/>
</a>
</g>
</g>
<!-- Node3 -->
<g id="Node000003" class="node">
<title>Node3</title>
<g id="a_Node000003"><a xlink:href="../../d9/d93/dense__bit__matrix_8cpp.html" target="_top" xlink:title=" ">
<polygon fill="white" stroke="#666666" points="269.88,-94 128.62,-94 128.62,-74 269.88,-74 269.88,-94"/>
<text text-anchor="middle" x="199.25" y="-80.5" font-family="Helvetica,sans-Serif" font-size="10.00">source/dense_bit_matrix.cpp</text>
</a>
</g>
</g>
<!-- Node1&#45;&gt;Node3 -->
<g id="edge2_Node000001_Node000003" class="edge">
<title>Node1&#45;&gt;Node3</title>
<g id="a_edge2_Node000001_Node000003"><a xlink:title=" ">
<path fill="none" stroke="#63b8ff" d="M532.75,-135.43C464.78,-127.05 364.95,-114.04 278.25,-100 268.05,-98.35 257.15,-96.4 246.8,-94.46"/>
<polygon fill="#63b8ff" stroke="#63b8ff" points="531.94,-138.85 542.29,-136.6 532.79,-131.91 531.94,-138.85"/>
</a>
</g>
</g>
<!-- Node4 -->
<g id="Node000004" class="node">
<title>Node4</title>
<g id="a_Node000004"><a xlink:href="../../df/da6/source_2dense__st__matrix_8cpp.html" target="_top" xlink:title="Dense matrix implementation (of abstract matrix interface from matrix.hpp).">
<polygon fill="white" stroke="#666666" points="426.75,-94 287.75,-94 287.75,-74 426.75,-74 426.75,-94"/>
<text text-anchor="middle" x="357.25" y="-80.5" font-family="Helvetica,sans-Serif" font-size="10.00">source/dense_st_matrix.cpp</text>
</a>
</g>
</g>
<!-- Node1&#45;&gt;Node4 -->
<g id="edge3_Node000001_Node000004" class="edge">
<title>Node1&#45;&gt;Node4</title>
<g id="a_edge3_Node000001_Node000004"><a xlink:title=" ">
<path fill="none" stroke="#63b8ff" d="M561.81,-132.94C513.48,-121.62 442.12,-104.89 397.72,-94.48"/>
<polygon fill="#63b8ff" stroke="#63b8ff" points="560.96,-136.34 571.49,-135.21 562.56,-129.52 560.96,-136.34"/>
</a>
</g>
</g>
<!-- Node5 -->
<g id="Node000005" class="node">
<title>Node5</title>
<g id="a_Node000005"><a xlink:href="../../da/d7f/index__set__hashtable_8cpp.html" target="_top" xlink:title="index_set_hashtable.hpp implementation">
<polygon fill="white" stroke="#666666" points="601.38,-94 445.12,-94 445.12,-74 601.38,-74 601.38,-94"/>
<text text-anchor="middle" x="523.25" y="-80.5" font-family="Helvetica,sans-Serif" font-size="10.00">source/index_set_hashtable.cpp</text>
</a>
</g>
</g>
<!-- Node1&#45;&gt;Node5 -->
<g id="edge4_Node000001_Node000005" class="edge">
<title>Node1&#45;&gt;Node5</title>
<g id="a_edge4_Node000001_Node000005"><a xlink:title=" ">
<path fill="none" stroke="#63b8ff" d="M590.05,-129.54C573.33,-118.39 551.31,-103.71 537.21,-94.31"/>
<polygon fill="#63b8ff" stroke="#63b8ff" points="587.67,-132.15 597.93,-134.79 591.55,-126.33 587.67,-132.15"/>
</a>
</g>
</g>
<!-- Node6 -->
<g id="Node000006" class="node">
<title>Node6</title>
<g id="a_Node000006"><a xlink:href="../../d4/d0c/source_2index__set__sortedvector_8cpp.html" target="_top" xlink:title="Index_set implemented via sorted vector.">
<polygon fill="white" stroke="#666666" points="786.62,-94 619.88,-94 619.88,-74 786.62,-74 786.62,-94"/>
<text text-anchor="middle" x="703.25" y="-80.5" font-family="Helvetica,sans-Serif" font-size="10.00">source/index_set_sortedvector.cpp</text>
</a>
</g>
</g>
<!-- Node1&#45;&gt;Node6 -->
<g id="edge5_Node000001_Node000006" class="edge">
<title>Node1&#45;&gt;Node6</title>
<g id="a_edge5_Node000001_Node000006"><a xlink:title=" ">
<path fill="none" stroke="#63b8ff" d="M636.45,-129.54C653.17,-118.39 675.19,-103.71 689.29,-94.31"/>
<polygon fill="#63b8ff" stroke="#63b8ff" points="634.95,-126.33 628.57,-134.79 638.83,-132.15 634.95,-126.33"/>
</a>
</g>
</g>
<!-- Node7 -->
<g id="Node000007" class="node">
<title>Node7</title>
<g id="a_Node000007"><a xlink:href="../../d3/d60/point__distance__matrix_8cpp.html" target="_top" xlink:title="Implementation of point distance matrix adapter for a metrics object.">
<polygon fill="white" stroke="#666666" points="915.88,-100 804.62,-100 804.62,-68 915.88,-68 915.88,-100"/>
<text text-anchor="start" x="812.62" y="-86.5" font-family="Helvetica,sans-Serif" font-size="10.00">source/point_distance</text>
<text text-anchor="middle" x="860.25" y="-74.5" font-family="Helvetica,sans-Serif" font-size="10.00">_matrix.cpp</text>
</a>
</g>
</g>
<!-- Node1&#45;&gt;Node7 -->
<g id="edge6_Node000001_Node000007" class="edge">
<title>Node1&#45;&gt;Node7</title>
<g id="a_edge6_Node000001_Node000007"><a xlink:title=" ">
<path fill="none" stroke="#63b8ff" d="M663.16,-132.88C704,-122.96 761.74,-108.93 804.17,-98.62"/>
<polygon fill="#63b8ff" stroke="#63b8ff" points="662.48,-129.44 653.59,-135.2 664.13,-136.24 662.48,-129.44"/>
</a>
</g>
</g>
<!-- Node8 -->
<g id="Node000008" class="node">
<title>Node8</title>
<g id="a_Node000008"><a xlink:href="../../d8/d4d/symmetric__dense__st__matrix_8cpp.html" target="_top" xlink:title="Implementation of a class for compact storage of a symmetric matrix.">
<polygon fill="white" stroke="#666666" points="1059,-100 933.5,-100 933.5,-68 1059,-68 1059,-100"/>
<text text-anchor="start" x="941.5" y="-86.5" font-family="Helvetica,sans-Serif" font-size="10.00">source/symmetric_dense</text>
<text text-anchor="middle" x="996.25" y="-74.5" font-family="Helvetica,sans-Serif" font-size="10.00">_st_matrix.cpp</text>
</a>
</g>
</g>
<!-- Node1&#45;&gt;Node8 -->
<g id="edge7_Node000001_Node000008" class="edge">
<title>Node1&#45;&gt;Node8</title>
<g id="a_edge7_Node000001_Node000008"><a xlink:title=" ">
<path fill="none" stroke="#63b8ff" d="M693.93,-134.83C757.06,-126.52 846.97,-113.9 925.25,-100 927.85,-99.54 930.51,-99.05 933.19,-98.54"/>
<polygon fill="#63b8ff" stroke="#63b8ff" points="693.81,-131.31 684.35,-136.08 694.72,-138.25 693.81,-131.31"/>
</a>
</g>
</g>
<!-- Node10 -->
<g id="Node000010" class="node">
<title>Node10</title>
<g id="a_Node000010"><a xlink:href="../../dd/d7e/stl__iterator__and__iterator__algorithms_8cpp.html" target="_top" xlink:title="Testing Stl_iterator and iterator_algorithms.hpp.">
<polygon fill="white" stroke="#666666" points="1217.88,-100 1076.62,-100 1076.62,-68 1217.88,-68 1217.88,-100"/>
<text text-anchor="start" x="1084.62" y="-86.5" font-family="Helvetica,sans-Serif" font-size="10.00">tests/stl_iterator</text>
<text text-anchor="middle" x="1147.25" y="-74.5" font-family="Helvetica,sans-Serif" font-size="10.00">_and_iterator_algorithms.cpp</text>
</a>
</g>
</g>
<!-- Node1&#45;&gt;Node10 -->
<g id="edge9_Node000001_Node000010" class="edge">
<title>Node1&#45;&gt;Node10</title>
<g id="a_edge9_Node000001_Node000010"><a xlink:title=" ">
<path fill="none" stroke="#63b8ff" d="M694.22,-139.18C785.41,-132.12 937.9,-118.78 1068.25,-100 1070.88,-99.62 1073.55,-99.22 1076.24,-98.79"/>
<polygon fill="#63b8ff" stroke="#63b8ff" points="694.07,-135.68 684.37,-139.94 694.61,-142.66 694.07,-135.68"/>
</a>
</g>
</g>
<!-- Node9 -->
<g id="Node000009" class="node">
<title>Node9</title>
<g id="a_Node000009"><a xlink:href="../../d5/d40/symmetric__dense__st__matrix__test_8cpp.html" target="_top" xlink:title="Tests for Symmetric_dense_st_matrix.">
<polygon fill="white" stroke="#666666" points="1055.25,-32 937.25,-32 937.25,0 1055.25,0 1055.25,-32"/>
<text text-anchor="start" x="945.25" y="-18.5" font-family="Helvetica,sans-Serif" font-size="10.00">tests/symmetric_dense</text>
<text text-anchor="middle" x="996.25" y="-6.5" font-family="Helvetica,sans-Serif" font-size="10.00">_st_matrix_test.cpp</text>
</a>
</g>
</g>
<!-- Node8&#45;&gt;Node9 -->
<g id="edge8_Node000008_Node000009" class="edge">
<title>Node8&#45;&gt;Node9</title>
<g id="a_edge8_Node000008_Node000009"><a xlink:title=" ">
<path fill="none" stroke="#63b8ff" d="M996.25,-56.31C996.25,-48.12 996.25,-39.38 996.25,-32.22"/>
<polygon fill="#63b8ff" stroke="#63b8ff" points="992.75,-56.18 996.25,-66.18 999.75,-56.18 992.75,-56.18"/>
</a>
</g>
</g>
<!-- Node11 -->
<g id="Node000011" class="node">
<title>Node11</title>
<g id="a_Node000011"><a xlink:href="../../da/d4a/build__all_8cpp.html" target="_top" xlink:title="Include all test files here to build them at once.">
<polygon fill="white" stroke="#666666" points="1194.62,-26 1099.88,-26 1099.88,-6 1194.62,-6 1194.62,-26"/>
<text text-anchor="middle" x="1147.25" y="-12.5" font-family="Helvetica,sans-Serif" font-size="10.00">tests/build_all.cpp</text>
</a>
</g>
</g>
<!-- Node10&#45;&gt;Node11 -->
<g id="edge10_Node000010_Node000011" class="edge">
<title>Node10&#45;&gt;Node11</title>
<g id="a_edge10_Node000010_Node000011"><a xlink:title=" ">
<path fill="none" stroke="#63b8ff" d="M1147.25,-56.31C1147.25,-45.67 1147.25,-34.13 1147.25,-26.32"/>
<polygon fill="#63b8ff" stroke="#63b8ff" points="1143.75,-56.18 1147.25,-66.18 1150.75,-56.18 1143.75,-56.18"/>
</a>
</g>
</g>
</g>
</svg>
