<?xml version="1.0" encoding="UTF-8" standalone="no"?>
<!DOCTYPE svg PUBLIC "-//W3C//DTD SVG 1.1//EN"
 "http://www.w3.org/Graphics/SVG/1.1/DTD/svg11.dtd">
<!-- Generated by graphviz version 9.0.0 (20230911.1827)
 -->
<!-- Title: include/ogxx/bit_matrix.hpp Pages: 1 -->
<svg width="672pt" height="96pt"
 viewBox="0.00 0.00 672.00 96.00" xmlns="http://www.w3.org/2000/svg" xmlns:xlink="http://www.w3.org/1999/xlink">
<g id="graph0" class="graph" transform="scale(1 1) rotate(0) translate(4 92)">
<title>include/ogxx/bit_matrix.hpp</title>
<!-- Node1 -->
<g id="Node000001" class="node">
<title>Node1</title>
<g id="a_Node000001"><a xlink:title="Bit_matrix interface.">
<polygon fill="#999999" stroke="#666666" points="388.88,-88 253.62,-88 253.62,-68 388.88,-68 388.88,-88"/>
<text text-anchor="middle" x="321.25" y="-74.5" font-family="Helvetica,sans-Serif" font-size="10.00">include/ogxx/bit_matrix.hpp</text>
</a>
</g>
</g>
<!-- Node2 -->
<g id="Node000002" class="node">
<title>Node2</title>
<g id="a_Node000002"><a xlink:href="../../d6/d1d/bit__matrix__io_8hpp.html" target="_top" xlink:title="Bit_matrix reading and printing operations.">
<polygon fill="white" stroke="#666666" points="116.5,-32 0,-32 0,0 116.5,0 116.5,-32"/>
<text text-anchor="start" x="8" y="-18.5" font-family="Helvetica,sans-Serif" font-size="10.00">include/ogxx/bit_matrix</text>
<text text-anchor="middle" x="58.25" y="-6.5" font-family="Helvetica,sans-Serif" font-size="10.00">_io.hpp</text>
</a>
</g>
</g>
<!-- Node1&#45;&gt;Node2 -->
<g id="edge1_Node000001_Node000002" class="edge">
<title>Node1&#45;&gt;Node2</title>
<g id="a_edge1_Node000001_Node000002"><a xlink:title=" ">
<path fill="none" stroke="#63b8ff" d="M268.87,-65.05C225.02,-55.05 162.5,-40.78 116.98,-30.4"/>
<polygon fill="#63b8ff" stroke="#63b8ff" points="267.86,-68.41 278.39,-67.22 269.42,-61.59 267.86,-68.41"/>
</a>
</g>
</g>
<!-- Node3 -->
<g id="Node000003" class="node">
<title>Node3</title>
<g id="a_Node000003"><a xlink:href="../../d3/dcc/graph__repr__conv_8hpp.html" target="_top" xlink:title="Graph representation conversion operations.">
<polygon fill="white" stroke="#666666" points="232.12,-32 134.38,-32 134.38,0 232.12,0 232.12,-32"/>
<text text-anchor="start" x="142.38" y="-18.5" font-family="Helvetica,sans-Serif" font-size="10.00">include/ogxx/graph</text>
<text text-anchor="middle" x="183.25" y="-6.5" font-family="Helvetica,sans-Serif" font-size="10.00">_repr_conv.hpp</text>
</a>
</g>
</g>
<!-- Node1&#45;&gt;Node3 -->
<g id="edge2_Node000001_Node000003" class="edge">
<title>Node1&#45;&gt;Node3</title>
<g id="a_edge2_Node000001_Node000003"><a xlink:title=" ">
<path fill="none" stroke="#63b8ff" d="M289.34,-63.12C268.28,-53.97 240.66,-41.96 218.88,-32.49"/>
<polygon fill="#63b8ff" stroke="#63b8ff" points="287.73,-66.24 298.3,-67.02 290.52,-59.82 287.73,-66.24"/>
</a>
</g>
</g>
<!-- Node4 -->
<g id="Node000004" class="node">
<title>Node4</title>
<g id="a_Node000004"><a xlink:href="../../d9/d93/dense__bit__matrix_8cpp.html" target="_top" xlink:title=" ">
<polygon fill="white" stroke="#666666" points="391.88,-26 250.62,-26 250.62,-6 391.88,-6 391.88,-26"/>
<text text-anchor="middle" x="321.25" y="-12.5" font-family="Helvetica,sans-Serif" font-size="10.00">source/dense_bit_matrix.cpp</text>
</a>
</g>
</g>
<!-- Node1&#45;&gt;Node4 -->
<g id="edge3_Node000001_Node000004" class="edge">
<title>Node1&#45;&gt;Node4</title>
<g id="a_edge3_Node000001_Node000004"><a xlink:title=" ">
<path fill="none" stroke="#63b8ff" d="M321.25,-56.25C321.25,-45.97 321.25,-34.09 321.25,-26.11"/>
<polygon fill="#63b8ff" stroke="#63b8ff" points="317.75,-56.11 321.25,-66.11 324.75,-56.11 317.75,-56.11"/>
</a>
</g>
</g>
<!-- Node5 -->
<g id="Node000005" class="node">
<title>Node5</title>
<g id="a_Node000005"><a xlink:href="../../dc/d24/graph__view__un__am_8cpp.html" target="_top" xlink:title="Adjacency matrix of undirected graph adapter.">
<polygon fill="white" stroke="#666666" points="520.88,-32 409.62,-32 409.62,0 520.88,0 520.88,-32"/>
<text text-anchor="start" x="417.62" y="-18.5" font-family="Helvetica,sans-Serif" font-size="10.00">source/graph_view_un</text>
<text text-anchor="middle" x="465.25" y="-6.5" font-family="Helvetica,sans-Serif" font-size="10.00">_am.cpp</text>
</a>
</g>
</g>
<!-- Node1&#45;&gt;Node5 -->
<g id="edge4_Node000001_Node000005" class="edge">
<title>Node1&#45;&gt;Node5</title>
<g id="a_edge4_Node000001_Node000005"><a xlink:title=" ">
<path fill="none" stroke="#63b8ff" d="M354.25,-63.25C376.26,-54.08 405.24,-42 428.07,-32.49"/>
<polygon fill="#63b8ff" stroke="#63b8ff" points="353.03,-59.97 345.15,-67.04 355.72,-66.43 353.03,-59.97"/>
</a>
</g>
</g>
<!-- Node6 -->
<g id="Node000006" class="node">
<title>Node6</title>
<g id="a_Node000006"><a xlink:href="../../d5/d69/symmetric__dense__bit__matrix_8cpp.html" target="_top" xlink:title="Symmetric_dense_bit matrix implementation (of abstract matrix interface from matrix....">
<polygon fill="white" stroke="#666666" points="664,-32 538.5,-32 538.5,0 664,0 664,-32"/>
<text text-anchor="start" x="546.5" y="-18.5" font-family="Helvetica,sans-Serif" font-size="10.00">source/symmetric_dense</text>
<text text-anchor="middle" x="601.25" y="-6.5" font-family="Helvetica,sans-Serif" font-size="10.00">_bit_matrix.cpp</text>
</a>
</g>
</g>
<!-- Node1&#45;&gt;Node6 -->
<g id="edge5_Node000001_Node000006" class="edge">
<title>Node1&#45;&gt;Node6</title>
<g id="a_edge5_Node000001_Node000006"><a xlink:title=" ">
<path fill="none" stroke="#63b8ff" d="M376.39,-65.18C422.93,-55.21 489.56,-40.93 538.21,-30.51"/>
<polygon fill="#63b8ff" stroke="#63b8ff" points="375.83,-61.72 366.79,-67.24 377.3,-68.57 375.83,-61.72"/>
</a>
</g>
</g>
</g>
</svg>
