<?xml version="1.0" encoding="UTF-8" standalone="no"?>
<!DOCTYPE svg PUBLIC "-//W3C//DTD SVG 1.1//EN"
 "http://www.w3.org/Graphics/SVG/1.1/DTD/svg11.dtd">
<!-- Generated by graphviz version 9.0.0 (20230911.1827)
 -->
<!-- Title: ogxx::Edge_list_neighbor_iterator Pages: 1 -->
<svg width="244pt" height="200pt"
 viewBox="0.00 0.00 243.75 200.00" xmlns="http://www.w3.org/2000/svg" xmlns:xlink="http://www.w3.org/1999/xlink">
<g id="graph0" class="graph" transform="scale(1 1) rotate(0) translate(4 196)">
<title>ogxx::Edge_list_neighbor_iterator</title>
<!-- Node1 -->
<g id="Node000001" class="node">
<title>Node1</title>
<g id="a_Node000001"><a xlink:title=" ">
<polygon fill="#999999" stroke="#666666" points="125.5,-32 0,-32 0,0 125.5,0 125.5,-32"/>
<text text-anchor="start" x="8" y="-18.5" font-family="Helvetica,sans-Serif" font-size="10.00">ogxx::Edge_list_neighbor</text>
<text text-anchor="middle" x="62.75" y="-6.5" font-family="Helvetica,sans-Serif" font-size="10.00">_iterator</text>
</a>
</g>
</g>
<!-- Node2 -->
<g id="Node000002" class="node">
<title>Node2</title>
<g id="a_Node000002"><a xlink:href="../../dc/d8e/classogxx_1_1_basic__iterator.html" target="_top" xlink:title="Generic iterator for traversing a sequence of items of a small easily&#45;copyable or movable type.">
<polygon fill="white" stroke="#666666" points="100,-106 25.5,-106 25.5,-86 100,-86 100,-106"/>
<text text-anchor="middle" x="62.75" y="-92.5" font-family="Helvetica,sans-Serif" font-size="10.00">Index_iterator</text>
</a>
</g>
</g>
<!-- Node2&#45;&gt;Node1 -->
<g id="edge1_Node000001_Node000002" class="edge">
<title>Node2&#45;&gt;Node1</title>
<g id="a_edge1_Node000001_Node000002"><a xlink:title=" ">
<path fill="none" stroke="#63b8ff" d="M56.73,-74.51C55.61,-61.32 55.78,-44.47 57.25,-32.42"/>
<polygon fill="#63b8ff" stroke="#63b8ff" points="53.23,-74.78 58,-84.25 60.17,-73.88 53.23,-74.78"/>
</a>
</g>
</g>
<!-- Node2&#45;&gt;Node1 -->
<g id="edge2_Node000001_Node000002" class="edge">
<title>Node2&#45;&gt;Node1</title>
<g id="a_edge2_Node000001_Node000002"><a xlink:title=" ">
<path fill="none" stroke="#63b8ff" d="M68.77,-74.51C69.89,-61.32 69.72,-44.47 68.25,-32.42"/>
<polygon fill="#63b8ff" stroke="#63b8ff" points="65.33,-73.88 67.5,-84.25 72.27,-74.78 65.33,-73.88"/>
</a>
</g>
</g>
<!-- Node3 -->
<g id="Node000003" class="node">
<title>Node3</title>
<g id="a_Node000003"><a xlink:title=" ">
<polygon fill="white" stroke="#666666" points="235.75,-112 117.75,-112 117.75,-80 235.75,-80 235.75,-112"/>
<text text-anchor="start" x="125.75" y="-98.5" font-family="Helvetica,sans-Serif" font-size="10.00">std::unique_ptr&lt; Vertex</text>
<text text-anchor="middle" x="176.75" y="-86.5" font-family="Helvetica,sans-Serif" font-size="10.00">_pair_iterator &gt;</text>
</a>
</g>
</g>
<!-- Node3&#45;&gt;Node1 -->
<g id="edge3_Node000001_Node000003" class="edge">
<title>Node3&#45;&gt;Node1</title>
<g id="a_edge3_Node000001_Node000003"><a xlink:title=" ">
<path fill="none" stroke="#9a32cd" stroke-dasharray="5,2" d="M144.79,-73.13C125.82,-60.15 102.23,-44.01 85.23,-32.38"/>
<polygon fill="#9a32cd" stroke="#9a32cd" points="142.75,-75.98 152.98,-78.74 146.7,-70.2 142.75,-75.98"/>
</a>
</g>
<text text-anchor="middle" x="149.75" y="-52.5" font-family="Helvetica,sans-Serif" font-size="10.00" fill="grey"> _edge_iter</text>
</g>
<!-- Node4 -->
<g id="Node000004" class="node">
<title>Node4</title>
<g id="a_Node000004"><a xlink:href="../../dc/d8e/classogxx_1_1_basic__iterator.html" target="_top" xlink:title="Generic iterator for traversing a sequence of items of a small easily&#45;copyable or movable type.">
<polygon fill="white" stroke="#666666" points="228.25,-192 125.25,-192 125.25,-160 228.25,-160 228.25,-192"/>
<text text-anchor="start" x="133.25" y="-178.5" font-family="Helvetica,sans-Serif" font-size="10.00">ogxx::Basic_iterator</text>
<text text-anchor="middle" x="176.75" y="-166.5" font-family="Helvetica,sans-Serif" font-size="10.00">&lt; Item &gt;</text>
</a>
</g>
</g>
<!-- Node4&#45;&gt;Node3 -->
<g id="edge4_Node000003_Node000004" class="edge">
<title>Node4&#45;&gt;Node3</title>
<g id="a_edge4_Node000003_Node000004"><a xlink:title=" ">
<path fill="none" stroke="#9a32cd" stroke-dasharray="5,2" d="M176.75,-148.37C176.75,-136.37 176.75,-122.63 176.75,-112.38"/>
<polygon fill="#9a32cd" stroke="#9a32cd" points="173.25,-148.08 176.75,-158.08 180.25,-148.08 173.25,-148.08"/>
</a>
</g>
<text text-anchor="middle" x="183.88" y="-132.5" font-family="Helvetica,sans-Serif" font-size="10.00" fill="grey"> ptr</text>
</g>
</g>
</svg>
