<?xml version="1.0" encoding="UTF-8" standalone="no"?>
<!DOCTYPE svg PUBLIC "-//W3C//DTD SVG 1.1//EN"
 "http://www.w3.org/Graphics/SVG/1.1/DTD/svg11.dtd">
<!-- Generated by graphviz version 9.0.0 (20230911.1827)
 -->
<!-- Title: source/adjacency_list_vector.cpp Pages: 1 -->
<svg width="546pt" height="432pt"
 viewBox="0.00 0.00 546.15 432.00" xmlns="http://www.w3.org/2000/svg" xmlns:xlink="http://www.w3.org/1999/xlink">
<g id="graph0" class="graph" transform="scale(1 1) rotate(0) translate(4 428)">
<title>source/adjacency_list_vector.cpp</title>
<!-- Node1 -->
<g id="Node000001" class="node">
<title>Node1</title>
<g id="a_Node000001"><a xlink:title="Adjacency_list interface implementation over std::vector.">
<polygon fill="#999999" stroke="#666666" points="483.65,-424 373.15,-424 373.15,-392 483.65,-392 483.65,-424"/>
<text text-anchor="start" x="381.15" y="-410.5" font-family="Helvetica,sans-Serif" font-size="10.00">source/adjacency_list</text>
<text text-anchor="middle" x="428.4" y="-398.5" font-family="Helvetica,sans-Serif" font-size="10.00">_vector.cpp</text>
</a>
</g>
</g>
<!-- Node2 -->
<g id="Node000002" class="node">
<title>Node2</title>
<g id="a_Node000002"><a xlink:href="../../d6/da0/adjacency__list_8hpp.html" target="_top" xlink:title="Adjacency list graph representation interface.">
<polygon fill="white" stroke="#666666" points="317.9,-356 196.9,-356 196.9,-336 317.9,-336 317.9,-356"/>
<text text-anchor="middle" x="257.4" y="-342.5" font-family="Helvetica,sans-Serif" font-size="10.00">ogxx/adjacency_list.hpp</text>
</a>
</g>
</g>
<!-- Node1&#45;&gt;Node2 -->
<g id="edge1_Node000001_Node000002" class="edge">
<title>Node1&#45;&gt;Node2</title>
<g id="a_edge1_Node000001_Node000002"><a xlink:title=" ">
<path fill="none" stroke="#63b8ff" d="M384.36,-391.55C356.74,-381.86 321.5,-369.49 295.16,-360.25"/>
<polygon fill="#63b8ff" stroke="#63b8ff" points="296.49,-357.01 285.89,-357 294.17,-363.61 296.49,-357.01"/>
</a>
</g>
</g>
<!-- Node12 -->
<g id="Node000012" class="node">
<title>Node12</title>
<g id="a_Node000012"><a xlink:title=" ">
<polygon fill="#e0e0e0" stroke="#999999" points="497.77,-20 439.02,-20 439.02,0 497.77,0 497.77,-20"/>
<text text-anchor="middle" x="468.4" y="-6.5" font-family="Helvetica,sans-Serif" font-size="10.00">stdexcept</text>
</a>
</g>
</g>
<!-- Node1&#45;&gt;Node12 -->
<g id="edge24_Node000001_Node000012" class="edge">
<title>Node1&#45;&gt;Node12</title>
<g id="a_edge24_Node000001_Node000012"><a xlink:title=" ">
<path fill="none" stroke="#63b8ff" d="M437.28,-391.82C449.06,-370.19 468.4,-328.92 468.4,-291 468.4,-291 468.4,-291 468.4,-121 468.4,-89.87 468.4,-53.78 468.4,-31.68"/>
<polygon fill="#63b8ff" stroke="#63b8ff" points="471.9,-31.93 468.4,-21.93 464.9,-31.93 471.9,-31.93"/>
</a>
</g>
</g>
<!-- Node17 -->
<g id="Node000017" class="node">
<title>Node17</title>
<g id="a_Node000017"><a xlink:href="../../d4/d29/stl__iterator_8hpp.html" target="_top" xlink:title="This file defines the Stl_iterator class, which provides an iterator for standard C++ containers.">
<polygon fill="white" stroke="#666666" points="440.65,-356 336.15,-356 336.15,-336 440.65,-336 440.65,-356"/>
<text text-anchor="middle" x="388.4" y="-342.5" font-family="Helvetica,sans-Serif" font-size="10.00">ogxx/stl_iterator.hpp</text>
</a>
</g>
</g>
<!-- Node1&#45;&gt;Node17 -->
<g id="edge20_Node000001_Node000017" class="edge">
<title>Node1&#45;&gt;Node17</title>
<g id="a_edge20_Node000001_Node000017"><a xlink:title=" ">
<path fill="none" stroke="#63b8ff" d="M418.1,-391.55C412.89,-383.74 406.52,-374.19 401.02,-365.94"/>
<polygon fill="#63b8ff" stroke="#63b8ff" points="403.97,-364.05 395.51,-357.67 398.15,-367.93 403.97,-364.05"/>
</a>
</g>
</g>
<!-- Node19 -->
<g id="Node000019" class="node">
<title>Node19</title>
<g id="a_Node000019"><a xlink:title=" ">
<polygon fill="#e0e0e0" stroke="#999999" points="538.15,-356 496.65,-356 496.65,-336 538.15,-336 538.15,-356"/>
<text text-anchor="middle" x="517.4" y="-342.5" font-family="Helvetica,sans-Serif" font-size="10.00">vector</text>
</a>
</g>
</g>
<!-- Node1&#45;&gt;Node19 -->
<g id="edge23_Node000001_Node000019" class="edge">
<title>Node1&#45;&gt;Node19</title>
<g id="a_edge23_Node000001_Node000019"><a xlink:title=" ">
<path fill="none" stroke="#63b8ff" d="M451.32,-391.55C464.45,-382.69 480.9,-371.61 494.09,-362.71"/>
<polygon fill="#63b8ff" stroke="#63b8ff" points="495.85,-365.75 502.19,-357.25 491.94,-359.94 495.85,-365.75"/>
</a>
</g>
</g>
<!-- Node3 -->
<g id="Node000003" class="node">
<title>Node3</title>
<g id="a_Node000003"><a xlink:href="../../d7/dbf/st__set_8hpp.html" target="_top" xlink:title="Simple type set interface. Set may be ordered or unordered.">
<polygon fill="white" stroke="#666666" points="332.27,-188 246.52,-188 246.52,-168 332.27,-168 332.27,-188"/>
<text text-anchor="middle" x="289.4" y="-174.5" font-family="Helvetica,sans-Serif" font-size="10.00">ogxx/st_set.hpp</text>
</a>
</g>
</g>
<!-- Node2&#45;&gt;Node3 -->
<g id="edge2_Node000002_Node000003" class="edge">
<title>Node2&#45;&gt;Node3</title>
<g id="a_edge2_Node000002_Node000003"><a xlink:title=" ">
<path fill="none" stroke="#63b8ff" d="M259.21,-335.6C264.25,-309.46 278.51,-235.48 285.48,-199.36"/>
<polygon fill="#63b8ff" stroke="#63b8ff" points="288.87,-200.27 287.32,-189.78 281.99,-198.94 288.87,-200.27"/>
</a>
</g>
</g>
<!-- Node14 -->
<g id="Node000014" class="node">
<title>Node14</title>
<g id="a_Node000014"><a xlink:href="../../d7/d6c/graph__view_8hpp.html" target="_top" xlink:title="Graph view interface that may be used for graph representation coversion.">
<polygon fill="white" stroke="#666666" points="243.4,-300 137.4,-300 137.4,-280 243.4,-280 243.4,-300"/>
<text text-anchor="middle" x="190.4" y="-286.5" font-family="Helvetica,sans-Serif" font-size="10.00">ogxx/graph_view.hpp</text>
</a>
</g>
</g>
<!-- Node2&#45;&gt;Node14 -->
<g id="edge14_Node000002_Node000014" class="edge">
<title>Node2&#45;&gt;Node14</title>
<g id="a_edge14_Node000002_Node000014"><a xlink:title=" ">
<path fill="none" stroke="#63b8ff" d="M245.73,-335.59C236.12,-327.85 222.27,-316.69 210.83,-307.47"/>
<polygon fill="#63b8ff" stroke="#63b8ff" points="213.1,-304.8 203.12,-301.25 208.7,-310.25 213.1,-304.8"/>
</a>
</g>
</g>
<!-- Node4 -->
<g id="Node000004" class="node">
<title>Node4</title>
<g id="a_Node000004"><a xlink:href="../../de/d2f/primitive__definitions_8hpp.html" target="_top" xlink:title="Primitive type declarations like scalar indices and so on.">
<polygon fill="white" stroke="#666666" points="284.77,-76 142.02,-76 142.02,-56 284.77,-56 284.77,-76"/>
<text text-anchor="middle" x="213.4" y="-62.5" font-family="Helvetica,sans-Serif" font-size="10.00">ogxx/primitive_definitions.hpp</text>
</a>
</g>
</g>
<!-- Node3&#45;&gt;Node4 -->
<g id="edge3_Node000003_Node000004" class="edge">
<title>Node3&#45;&gt;Node4</title>
<g id="a_edge3_Node000003_Node000004"><a xlink:title=" ">
<path fill="none" stroke="#63b8ff" d="M275.61,-167.72C264.28,-159.49 248.51,-146.54 238.4,-132 228.89,-118.32 222.37,-100.53 218.38,-87.02"/>
<polygon fill="#63b8ff" stroke="#63b8ff" points="221.8,-86.26 215.81,-77.52 215.05,-88.09 221.8,-86.26"/>
</a>
</g>
</g>
<!-- Node13 -->
<g id="Node000013" class="node">
<title>Node13</title>
<g id="a_Node000013"><a xlink:href="../../d9/dde/iterator_8hpp.html" target="_top" xlink:title="Linear sequence iterator interfaces.">
<polygon fill="white" stroke="#666666" points="335.77,-132 247.02,-132 247.02,-112 335.77,-112 335.77,-132"/>
<text text-anchor="middle" x="291.4" y="-118.5" font-family="Helvetica,sans-Serif" font-size="10.00">ogxx/iterator.hpp</text>
</a>
</g>
</g>
<!-- Node3&#45;&gt;Node13 -->
<g id="edge12_Node000003_Node000013" class="edge">
<title>Node3&#45;&gt;Node13</title>
<g id="a_edge12_Node000003_Node000013"><a xlink:title=" ">
<path fill="none" stroke="#63b8ff" d="M289.75,-167.59C289.99,-161.01 290.33,-151.96 290.63,-143.73"/>
<polygon fill="#63b8ff" stroke="#63b8ff" points="294.13,-143.93 291,-133.81 287.13,-143.67 294.13,-143.93"/>
</a>
</g>
</g>
<!-- Node5 -->
<g id="Node000005" class="node">
<title>Node5</title>
<g id="a_Node000005"><a xlink:title=" ">
<polygon fill="#e0e0e0" stroke="#999999" points="358.15,-20 310.65,-20 310.65,0 358.15,0 358.15,-20"/>
<text text-anchor="middle" x="334.4" y="-6.5" font-family="Helvetica,sans-Serif" font-size="10.00">cstddef</text>
</a>
</g>
</g>
<!-- Node4&#45;&gt;Node5 -->
<g id="edge4_Node000004_Node000005" class="edge">
<title>Node4&#45;&gt;Node5</title>
<g id="a_edge4_Node000004_Node000005"><a xlink:title=" ">
<path fill="none" stroke="#63b8ff" d="M234.48,-55.59C253.36,-47.17 281.32,-34.69 302.86,-25.07"/>
<polygon fill="#63b8ff" stroke="#63b8ff" points="304.07,-28.37 311.78,-21.1 301.22,-21.98 304.07,-28.37"/>
</a>
</g>
</g>
<!-- Node6 -->
<g id="Node000006" class="node">
<title>Node6</title>
<g id="a_Node000006"><a xlink:title=" ">
<polygon fill="#e0e0e0" stroke="#999999" points="421.02,-20 375.77,-20 375.77,0 421.02,0 421.02,-20"/>
<text text-anchor="middle" x="398.4" y="-6.5" font-family="Helvetica,sans-Serif" font-size="10.00">cstdint</text>
</a>
</g>
</g>
<!-- Node4&#45;&gt;Node6 -->
<g id="edge5_Node000004_Node000006" class="edge">
<title>Node4&#45;&gt;Node6</title>
<g id="a_edge5_Node000004_Node000006"><a xlink:title=" ">
<path fill="none" stroke="#63b8ff" d="M245.62,-55.59C278.92,-45.87 330.68,-30.77 364.56,-20.88"/>
<polygon fill="#63b8ff" stroke="#63b8ff" points="365.24,-24.33 373.86,-18.16 363.28,-17.61 365.24,-24.33"/>
</a>
</g>
</g>
<!-- Node7 -->
<g id="Node000007" class="node">
<title>Node7</title>
<g id="a_Node000007"><a xlink:title=" ">
<polygon fill="#e0e0e0" stroke="#999999" points="28.8,-20 0,-20 0,0 28.8,0 28.8,-20"/>
<text text-anchor="middle" x="14.4" y="-6.5" font-family="Helvetica,sans-Serif" font-size="10.00">bit</text>
</a>
</g>
</g>
<!-- Node4&#45;&gt;Node7 -->
<g id="edge6_Node000004_Node000007" class="edge">
<title>Node4&#45;&gt;Node7</title>
<g id="a_edge6_Node000004_Node000007"><a xlink:title=" ">
<path fill="none" stroke="#63b8ff" d="M170.3,-55.54C136.87,-47.85 89.2,-36.15 39.8,-20.5"/>
<polygon fill="#63b8ff" stroke="#63b8ff" points="40.94,-17.18 30.34,-17.45 38.79,-23.85 40.94,-17.18"/>
</a>
</g>
</g>
<!-- Node8 -->
<g id="Node000008" class="node">
<title>Node8</title>
<g id="a_Node000008"><a xlink:title=" ">
<polygon fill="#e0e0e0" stroke="#999999" points="86.02,-20 46.77,-20 46.77,0 86.02,0 86.02,-20"/>
<text text-anchor="middle" x="66.4" y="-6.5" font-family="Helvetica,sans-Serif" font-size="10.00">limits</text>
</a>
</g>
</g>
<!-- Node4&#45;&gt;Node8 -->
<g id="edge7_Node000004_Node000008" class="edge">
<title>Node4&#45;&gt;Node8</title>
<g id="a_edge7_Node000004_Node000008"><a xlink:title=" ">
<path fill="none" stroke="#63b8ff" d="M187.79,-55.59C162.6,-46.34 124.12,-32.2 97.25,-22.33"/>
<polygon fill="#63b8ff" stroke="#63b8ff" points="98.54,-19.08 87.94,-18.91 96.12,-25.65 98.54,-19.08"/>
</a>
</g>
</g>
<!-- Node9 -->
<g id="Node000009" class="node">
<title>Node9</title>
<g id="a_Node000009"><a xlink:title=" ">
<polygon fill="#e0e0e0" stroke="#999999" points="166.27,-20 104.52,-20 104.52,0 166.27,0 166.27,-20"/>
<text text-anchor="middle" x="135.4" y="-6.5" font-family="Helvetica,sans-Serif" font-size="10.00">type_traits</text>
</a>
</g>
</g>
<!-- Node4&#45;&gt;Node9 -->
<g id="edge8_Node000004_Node000009" class="edge">
<title>Node4&#45;&gt;Node9</title>
<g id="a_edge8_Node000004_Node000009"><a xlink:title=" ">
<path fill="none" stroke="#63b8ff" d="M199.81,-55.59C188.36,-47.67 171.74,-36.16 158.24,-26.82"/>
<polygon fill="#63b8ff" stroke="#63b8ff" points="160.55,-24.16 150.34,-21.34 156.57,-29.91 160.55,-24.16"/>
</a>
</g>
</g>
<!-- Node10 -->
<g id="Node000010" class="node">
<title>Node10</title>
<g id="a_Node000010"><a xlink:title=" ">
<polygon fill="#e0e0e0" stroke="#999999" points="236.02,-20 184.77,-20 184.77,0 236.02,0 236.02,-20"/>
<text text-anchor="middle" x="210.4" y="-6.5" font-family="Helvetica,sans-Serif" font-size="10.00">memory</text>
</a>
</g>
</g>
<!-- Node4&#45;&gt;Node10 -->
<g id="edge9_Node000004_Node000010" class="edge">
<title>Node4&#45;&gt;Node10</title>
<g id="a_edge9_Node000004_Node000010"><a xlink:title=" ">
<path fill="none" stroke="#63b8ff" d="M212.88,-55.59C212.51,-49.01 212.01,-39.96 211.55,-31.73"/>
<polygon fill="#63b8ff" stroke="#63b8ff" points="215.05,-31.6 211,-21.81 208.06,-31.99 215.05,-31.6"/>
</a>
</g>
</g>
<!-- Node11 -->
<g id="Node000011" class="node">
<title>Node11</title>
<g id="a_Node000011"><a xlink:title=" ">
<polygon fill="#e0e0e0" stroke="#999999" points="293.02,-20 253.77,-20 253.77,0 293.02,0 293.02,-20"/>
<text text-anchor="middle" x="273.4" y="-6.5" font-family="Helvetica,sans-Serif" font-size="10.00">utility</text>
</a>
</g>
</g>
<!-- Node4&#45;&gt;Node11 -->
<g id="edge10_Node000004_Node000011" class="edge">
<title>Node4&#45;&gt;Node11</title>
<g id="a_edge10_Node000004_Node000011"><a xlink:title=" ">
<path fill="none" stroke="#63b8ff" d="M223.85,-55.59C232.37,-47.93 244.61,-36.91 254.79,-27.75"/>
<polygon fill="#63b8ff" stroke="#63b8ff" points="256.85,-30.6 261.94,-21.31 252.17,-25.4 256.85,-30.6"/>
</a>
</g>
</g>
<!-- Node4&#45;&gt;Node12 -->
<g id="edge11_Node000004_Node000012" class="edge">
<title>Node4&#45;&gt;Node12</title>
<g id="a_edge11_Node000004_Node000012"><a xlink:title=" ">
<path fill="none" stroke="#63b8ff" d="M260.89,-55.55C302.5,-47.18 364.89,-34.42 427.66,-20.57"/>
<polygon fill="#63b8ff" stroke="#63b8ff" points="428.06,-24.06 437.07,-18.48 426.55,-17.23 428.06,-24.06"/>
</a>
</g>
</g>
<!-- Node13&#45;&gt;Node4 -->
<g id="edge13_Node000013_Node000004" class="edge">
<title>Node13&#45;&gt;Node4</title>
<g id="a_edge13_Node000013_Node000004"><a xlink:title=" ">
<path fill="none" stroke="#63b8ff" d="M277.81,-111.59C266.36,-103.67 249.74,-92.16 236.24,-82.82"/>
<polygon fill="#63b8ff" stroke="#63b8ff" points="238.55,-80.16 228.34,-77.34 234.57,-85.91 238.55,-80.16"/>
</a>
</g>
</g>
<!-- Node15 -->
<g id="Node000015" class="node">
<title>Node15</title>
<g id="a_Node000015"><a xlink:href="../../d4/d1a/vertex__pair_8hpp.html" target="_top" xlink:title="Vertex pair related type declarations.">
<polygon fill="white" stroke="#666666" points="236.02,-244 130.77,-244 130.77,-224 236.02,-224 236.02,-244"/>
<text text-anchor="middle" x="183.4" y="-230.5" font-family="Helvetica,sans-Serif" font-size="10.00">ogxx/vertex_pair.hpp</text>
</a>
</g>
</g>
<!-- Node14&#45;&gt;Node15 -->
<g id="edge15_Node000014_Node000015" class="edge">
<title>Node14&#45;&gt;Node15</title>
<g id="a_edge15_Node000014_Node000015"><a xlink:title=" ">
<path fill="none" stroke="#63b8ff" d="M189.18,-279.59C188.32,-272.93 187.13,-263.75 186.05,-255.44"/>
<polygon fill="#63b8ff" stroke="#63b8ff" points="189.56,-255.27 184.8,-245.8 182.61,-256.17 189.56,-255.27"/>
</a>
</g>
</g>
<!-- Node15&#45;&gt;Node4 -->
<g id="edge16_Node000015_Node000004" class="edge">
<title>Node15&#45;&gt;Node4</title>
<g id="a_edge16_Node000015_Node000004"><a xlink:title=" ">
<path fill="none" stroke="#63b8ff" d="M165.18,-223.51C152.56,-215.82 136.75,-203.69 129.4,-188 125.63,-179.95 126.38,-176.36 129.4,-168 141.97,-133.22 172.32,-101.97 192.88,-83.74"/>
<polygon fill="#63b8ff" stroke="#63b8ff" points="195.08,-86.47 200.39,-77.3 190.52,-81.16 195.08,-86.47"/>
</a>
</g>
</g>
<!-- Node16 -->
<g id="Node000016" class="node">
<title>Node16</title>
<g id="a_Node000016"><a xlink:href="../../db/d3e/iterable_8hpp.html" target="_top" xlink:title="Iterable interfaces.">
<polygon fill="white" stroke="#666666" points="228.52,-188 138.27,-188 138.27,-168 228.52,-168 228.52,-188"/>
<text text-anchor="middle" x="183.4" y="-174.5" font-family="Helvetica,sans-Serif" font-size="10.00">ogxx/iterable.hpp</text>
</a>
</g>
</g>
<!-- Node15&#45;&gt;Node16 -->
<g id="edge17_Node000015_Node000016" class="edge">
<title>Node15&#45;&gt;Node16</title>
<g id="a_edge17_Node000015_Node000016"><a xlink:title=" ">
<path fill="none" stroke="#63b8ff" d="M183.4,-223.59C183.4,-217.01 183.4,-207.96 183.4,-199.73"/>
<polygon fill="#63b8ff" stroke="#63b8ff" points="186.9,-199.81 183.4,-189.81 179.9,-199.81 186.9,-199.81"/>
</a>
</g>
</g>
<!-- Node16&#45;&gt;Node4 -->
<g id="edge18_Node000016_Node000004" class="edge">
<title>Node16&#45;&gt;Node4</title>
<g id="a_edge18_Node000016_Node000004"><a xlink:title=" ">
<path fill="none" stroke="#63b8ff" d="M185.96,-167.62C190.78,-149.92 201.33,-111.24 207.86,-87.32"/>
<polygon fill="#63b8ff" stroke="#63b8ff" points="211.2,-88.38 210.45,-77.82 204.44,-86.54 211.2,-88.38"/>
</a>
</g>
</g>
<!-- Node16&#45;&gt;Node13 -->
<g id="edge19_Node000016_Node000013" class="edge">
<title>Node16&#45;&gt;Node13</title>
<g id="a_edge19_Node000016_Node000013"><a xlink:title=" ">
<path fill="none" stroke="#63b8ff" d="M202.21,-167.59C218.76,-159.32 243.11,-147.14 262.19,-137.6"/>
<polygon fill="#63b8ff" stroke="#63b8ff" points="263.71,-140.76 271.09,-133.16 260.58,-134.5 263.71,-140.76"/>
</a>
</g>
</g>
<!-- Node17&#45;&gt;Node13 -->
<g id="edge22_Node000017_Node000013" class="edge">
<title>Node17&#45;&gt;Node13</title>
<g id="a_edge22_Node000017_Node000013"><a xlink:title=" ">
<path fill="none" stroke="#63b8ff" d="M386.31,-335.91C378.42,-301.83 350.48,-182.85 341.4,-168 334.64,-156.94 324.34,-147.01 314.84,-139.31"/>
<polygon fill="#63b8ff" stroke="#63b8ff" points="317.05,-136.59 306.98,-133.31 312.81,-142.16 317.05,-136.59"/>
</a>
</g>
</g>
<!-- Node18 -->
<g id="Node000018" class="node">
<title>Node18</title>
<g id="a_Node000018"><a xlink:title=" ">
<polygon fill="#e0e0e0" stroke="#999999" points="434.4,-300 388.4,-300 388.4,-280 434.4,-280 434.4,-300"/>
<text text-anchor="middle" x="411.4" y="-286.5" font-family="Helvetica,sans-Serif" font-size="10.00">iterator</text>
</a>
</g>
</g>
<!-- Node17&#45;&gt;Node18 -->
<g id="edge21_Node000017_Node000018" class="edge">
<title>Node17&#45;&gt;Node18</title>
<g id="a_edge21_Node000017_Node000018"><a xlink:title=" ">
<path fill="none" stroke="#63b8ff" d="M392.41,-335.59C395.31,-328.78 399.34,-319.32 402.94,-310.86"/>
<polygon fill="#63b8ff" stroke="#63b8ff" points="406.15,-312.26 406.85,-301.69 399.71,-309.52 406.15,-312.26"/>
</a>
</g>
</g>
</g>
</svg>
