<?xml version="1.0" encoding="UTF-8" standalone="no"?>
<!DOCTYPE svg PUBLIC "-//W3C//DTD SVG 1.1//EN"
 "http://www.w3.org/Graphics/SVG/1.1/DTD/svg11.dtd">
<!-- Generated by graphviz version 9.0.0 (20230911.1827)
 -->
<!-- Title: ogxx::Index_set_hashtable Pages: 1 -->
<svg width="192pt" height="152pt"
 viewBox="0.00 0.00 191.62 152.00" xmlns="http://www.w3.org/2000/svg" xmlns:xlink="http://www.w3.org/1999/xlink">
<g id="graph0" class="graph" transform="scale(1 1) rotate(0) translate(4 148)">
<title>ogxx::Index_set_hashtable</title>
<!-- Node1 -->
<g id="Node000001" class="node">
<title>Node1</title>
<g id="a_Node000001"><a xlink:title=" ">
<polygon fill="#999999" stroke="#666666" points="144.12,-20 11.88,-20 11.88,0 144.12,0 144.12,-20"/>
<text text-anchor="middle" x="78" y="-6.5" font-family="Helvetica,sans-Serif" font-size="10.00">ogxx::Index_set_hashtable</text>
</a>
</g>
</g>
<!-- Node2 -->
<g id="Node000002" class="node">
<title>Node2</title>
<g id="a_Node000002"><a xlink:href="../../d3/da1/classogxx_1_1_st__set.html" target="_top" xlink:title="Possibly non&#45;iterable set of simple type items.">
<polygon fill="white" stroke="#666666" points="58,-82 0,-82 0,-62 58,-62 58,-82"/>
<text text-anchor="middle" x="29" y="-68.5" font-family="Helvetica,sans-Serif" font-size="10.00">Index_set</text>
</a>
</g>
</g>
<!-- Node2&#45;&gt;Node1 -->
<g id="edge1_Node000001_Node000002" class="edge">
<title>Node2&#45;&gt;Node1</title>
<g id="a_edge1_Node000001_Node000002"><a xlink:title=" ">
<path fill="none" stroke="#63b8ff" d="M43.76,-52.92C52.61,-42.1 63.47,-28.79 70.56,-20.11"/>
<polygon fill="#63b8ff" stroke="#63b8ff" points="41.23,-50.49 37.61,-60.45 46.65,-54.92 41.23,-50.49"/>
</a>
</g>
</g>
<!-- Node3 -->
<g id="Node000003" class="node">
<title>Node3</title>
<g id="a_Node000003"><a xlink:href="../../d9/d72/classogxx_1_1_sized__iterable.html" target="_top" xlink:title=" ">
<polygon fill="white" stroke="#666666" points="180.25,-88 75.75,-88 75.75,-56 180.25,-56 180.25,-88"/>
<text text-anchor="start" x="83.75" y="-74.5" font-family="Helvetica,sans-Serif" font-size="10.00">ogxx::Sized_iterable</text>
<text text-anchor="middle" x="128" y="-62.5" font-family="Helvetica,sans-Serif" font-size="10.00">&lt; Scalar_index &gt;</text>
</a>
</g>
</g>
<!-- Node3&#45;&gt;Node1 -->
<g id="edge2_Node000001_Node000003" class="edge">
<title>Node3&#45;&gt;Node1</title>
<g id="a_edge2_Node000001_Node000003"><a xlink:title=" ">
<path fill="none" stroke="#63b8ff" d="M107.98,-46.98C100.22,-37.66 91.78,-27.54 85.84,-20.41"/>
<polygon fill="#63b8ff" stroke="#63b8ff" points="105.06,-48.94 114.15,-54.39 110.44,-44.46 105.06,-48.94"/>
</a>
</g>
</g>
<!-- Node4 -->
<g id="Node000004" class="node">
<title>Node4</title>
<g id="a_Node000004"><a xlink:href="../../d8/d9b/classogxx_1_1_iterable.html" target="_top" xlink:title="An interface for an object that can be iterated with an iterator.">
<polygon fill="white" stroke="#666666" points="183.62,-144 72.38,-144 72.38,-124 183.62,-124 183.62,-144"/>
<text text-anchor="middle" x="128" y="-130.5" font-family="Helvetica,sans-Serif" font-size="10.00">ogxx::Iterable&lt; Item &gt;</text>
</a>
</g>
</g>
<!-- Node4&#45;&gt;Node3 -->
<g id="edge3_Node000003_Node000004" class="edge">
<title>Node4&#45;&gt;Node3</title>
<g id="a_edge3_Node000003_Node000004"><a xlink:title=" ">
<path fill="none" stroke="#63b8ff" d="M128,-112.31C128,-104.37 128,-95.46 128,-88.14"/>
<polygon fill="#63b8ff" stroke="#63b8ff" points="124.5,-112.11 128,-122.11 131.5,-112.11 124.5,-112.11"/>
</a>
</g>
</g>
</g>
</svg>
