<?xml version="1.0" encoding="UTF-8" standalone="no"?>
<!DOCTYPE svg PUBLIC "-//W3C//DTD SVG 1.1//EN"
 "http://www.w3.org/Graphics/SVG/1.1/DTD/svg11.dtd">
<!-- Generated by graphviz version 9.0.0 (20230911.1827)
 -->
<!-- Title: include/ogxx/iterator_algorithms.hpp Pages: 1 -->
<svg width="455pt" height="164pt"
 viewBox="0.00 0.00 455.25 164.00" xmlns="http://www.w3.org/2000/svg" xmlns:xlink="http://www.w3.org/1999/xlink">
<g id="graph0" class="graph" transform="scale(1 1) rotate(0) translate(4 160)">
<title>include/ogxx/iterator_algorithms.hpp</title>
<!-- Node1 -->
<g id="Node000001" class="node">
<title>Node1</title>
<g id="a_Node000001"><a xlink:title="Helper functions to work with iterators inspired by STL algorithm header.">
<polygon fill="#999999" stroke="#666666" points="260.5,-156 156.75,-156 156.75,-124 260.5,-124 260.5,-156"/>
<text text-anchor="start" x="164.75" y="-142.5" font-family="Helvetica,sans-Serif" font-size="10.00">include/ogxx/iterator</text>
<text text-anchor="middle" x="208.62" y="-130.5" font-family="Helvetica,sans-Serif" font-size="10.00">_algorithms.hpp</text>
</a>
</g>
</g>
<!-- Node2 -->
<g id="Node000002" class="node">
<title>Node2</title>
<g id="a_Node000002"><a xlink:href="../../d3/d60/point__distance__matrix_8cpp.html" target="_top" xlink:title="Implementation of point distance matrix adapter for a metrics object.">
<polygon fill="white" stroke="#666666" points="111.25,-88 0,-88 0,-56 111.25,-56 111.25,-88"/>
<text text-anchor="start" x="8" y="-74.5" font-family="Helvetica,sans-Serif" font-size="10.00">source/point_distance</text>
<text text-anchor="middle" x="55.62" y="-62.5" font-family="Helvetica,sans-Serif" font-size="10.00">_matrix.cpp</text>
</a>
</g>
</g>
<!-- Node1&#45;&gt;Node2 -->
<g id="edge1_Node000001_Node000002" class="edge">
<title>Node1&#45;&gt;Node2</title>
<g id="a_edge1_Node000001_Node000002"><a xlink:title=" ">
<path fill="none" stroke="#63b8ff" d="M162.32,-119.03C139.61,-109.23 112.67,-97.61 91.54,-88.49"/>
<polygon fill="#63b8ff" stroke="#63b8ff" points="160.8,-122.18 171.36,-122.93 163.57,-115.75 160.8,-122.18"/>
</a>
</g>
</g>
<!-- Node3 -->
<g id="Node000003" class="node">
<title>Node3</title>
<g id="a_Node000003"><a xlink:href="../../d2/d31/tests_2index__set__sortedvector_8cpp.html" target="_top" xlink:title="Testing Index_set_sortedvector class.">
<polygon fill="white" stroke="#666666" points="288.25,-82 129,-82 129,-62 288.25,-62 288.25,-82"/>
<text text-anchor="middle" x="208.62" y="-68.5" font-family="Helvetica,sans-Serif" font-size="10.00">tests/index_set_sortedvector.cpp</text>
</a>
</g>
</g>
<!-- Node1&#45;&gt;Node3 -->
<g id="edge2_Node000001_Node000003" class="edge">
<title>Node1&#45;&gt;Node3</title>
<g id="a_edge2_Node000001_Node000003"><a xlink:title=" ">
<path fill="none" stroke="#63b8ff" d="M208.62,-112.31C208.62,-101.67 208.62,-90.13 208.62,-82.32"/>
<polygon fill="#63b8ff" stroke="#63b8ff" points="205.13,-112.18 208.63,-122.18 212.13,-112.18 205.13,-112.18"/>
</a>
</g>
</g>
<!-- Node5 -->
<g id="Node000005" class="node">
<title>Node5</title>
<g id="a_Node000005"><a xlink:href="../../dd/d7e/stl__iterator__and__iterator__algorithms_8cpp.html" target="_top" xlink:title="Testing Stl_iterator and iterator_algorithms.hpp.">
<polygon fill="white" stroke="#666666" points="447.25,-88 306,-88 306,-56 447.25,-56 447.25,-88"/>
<text text-anchor="start" x="314" y="-74.5" font-family="Helvetica,sans-Serif" font-size="10.00">tests/stl_iterator</text>
<text text-anchor="middle" x="376.62" y="-62.5" font-family="Helvetica,sans-Serif" font-size="10.00">_and_iterator_algorithms.cpp</text>
</a>
</g>
</g>
<!-- Node1&#45;&gt;Node5 -->
<g id="edge4_Node000001_Node000005" class="edge">
<title>Node1&#45;&gt;Node5</title>
<g id="a_edge4_Node000001_Node000005"><a xlink:title=" ">
<path fill="none" stroke="#63b8ff" d="M258.46,-119.42C283.6,-109.54 313.68,-97.73 337.19,-88.49"/>
<polygon fill="#63b8ff" stroke="#63b8ff" points="257.45,-116.06 249.42,-122.97 260.01,-122.57 257.45,-116.06"/>
</a>
</g>
</g>
<!-- Node4 -->
<g id="Node000004" class="node">
<title>Node4</title>
<g id="a_Node000004"><a xlink:href="../../da/d4a/build__all_8cpp.html" target="_top" xlink:title="Include all test files here to build them at once.">
<polygon fill="white" stroke="#666666" points="340,-20 245.25,-20 245.25,0 340,0 340,-20"/>
<text text-anchor="middle" x="292.62" y="-6.5" font-family="Helvetica,sans-Serif" font-size="10.00">tests/build_all.cpp</text>
</a>
</g>
</g>
<!-- Node3&#45;&gt;Node4 -->
<g id="edge3_Node000003_Node000004" class="edge">
<title>Node3&#45;&gt;Node4</title>
<g id="a_edge3_Node000003_Node000004"><a xlink:title=" ">
<path fill="none" stroke="#63b8ff" d="M230.71,-55.22C246.27,-44.11 266.56,-29.62 279.59,-20.31"/>
<polygon fill="#63b8ff" stroke="#63b8ff" points="229.08,-52.08 222.98,-60.75 233.15,-57.78 229.08,-52.08"/>
</a>
</g>
</g>
<!-- Node5&#45;&gt;Node4 -->
<g id="edge5_Node000005_Node000004" class="edge">
<title>Node5&#45;&gt;Node4</title>
<g id="a_edge5_Node000005_Node000004"><a xlink:title=" ">
<path fill="none" stroke="#63b8ff" d="M345.8,-48.99C332.02,-39.14 316.49,-28.05 305.8,-20.41"/>
<polygon fill="#63b8ff" stroke="#63b8ff" points="343.59,-51.7 353.76,-54.67 347.66,-46.01 343.59,-51.7"/>
</a>
</g>
</g>
</g>
</svg>
