<?xml version="1.0" encoding="UTF-8" standalone="no"?>
<!DOCTYPE svg PUBLIC "-//W3C//DTD SVG 1.1//EN"
 "http://www.w3.org/Graphics/SVG/1.1/DTD/svg11.dtd">
<!-- Generated by graphviz version 9.0.0 (20230911.1827)
 -->
<!-- Title: include/ogxx/st_matrix_io.hpp Pages: 1 -->
<svg width="519pt" height="320pt"
 viewBox="0.00 0.00 519.00 320.00" xmlns="http://www.w3.org/2000/svg" xmlns:xlink="http://www.w3.org/1999/xlink">
<g id="graph0" class="graph" transform="scale(1 1) rotate(0) translate(4 316)">
<title>include/ogxx/st_matrix_io.hpp</title>
<!-- Node1 -->
<g id="Node000001" class="node">
<title>Node1</title>
<g id="a_Node000001"><a xlink:title="St_matrix reading and printing operations.">
<polygon fill="#999999" stroke="#666666" points="213.75,-312 99.5,-312 99.5,-280 213.75,-280 213.75,-312"/>
<text text-anchor="start" x="107.5" y="-298.5" font-family="Helvetica,sans-Serif" font-size="10.00">include/ogxx/st_matrix</text>
<text text-anchor="middle" x="156.62" y="-286.5" font-family="Helvetica,sans-Serif" font-size="10.00">_io.hpp</text>
</a>
</g>
</g>
<!-- Node2 -->
<g id="Node000002" class="node">
<title>Node2</title>
<g id="a_Node000002"><a xlink:href="../../d8/d3d/io__head_8hpp.html" target="_top" xlink:title="Shared things for *_io.hpp files.">
<polygon fill="white" stroke="#666666" points="145.88,-244 53.38,-244 53.38,-224 145.88,-224 145.88,-244"/>
<text text-anchor="middle" x="99.62" y="-230.5" font-family="Helvetica,sans-Serif" font-size="10.00">ogxx/io_head.hpp</text>
</a>
</g>
</g>
<!-- Node1&#45;&gt;Node2 -->
<g id="edge1_Node000001_Node000002" class="edge">
<title>Node1&#45;&gt;Node2</title>
<g id="a_edge1_Node000001_Node000002"><a xlink:title=" ">
<path fill="none" stroke="#63b8ff" d="M141.95,-279.55C134.11,-271.3 124.44,-261.12 116.32,-252.57"/>
<polygon fill="#63b8ff" stroke="#63b8ff" points="119.03,-250.34 109.61,-245.51 113.96,-255.17 119.03,-250.34"/>
</a>
</g>
</g>
<!-- Node5 -->
<g id="Node000005" class="node">
<title>Node5</title>
<g id="a_Node000005"><a xlink:href="../../df/dd1/st__matrix_8hpp.html" target="_top" xlink:title="St_matrix interface, st_ stands for &quot;simple type&quot;, i.e. a thing like int or double.">
<polygon fill="white" stroke="#666666" points="263.25,-244 164,-244 164,-224 263.25,-224 263.25,-244"/>
<text text-anchor="middle" x="213.62" y="-230.5" font-family="Helvetica,sans-Serif" font-size="10.00">ogxx/st_matrix.hpp</text>
</a>
</g>
</g>
<!-- Node1&#45;&gt;Node5 -->
<g id="edge4_Node000001_Node000005" class="edge">
<title>Node1&#45;&gt;Node5</title>
<g id="a_edge4_Node000001_Node000005"><a xlink:title=" ">
<path fill="none" stroke="#63b8ff" d="M171.3,-279.55C179.14,-271.3 188.81,-261.12 196.93,-252.57"/>
<polygon fill="#63b8ff" stroke="#63b8ff" points="199.29,-255.17 203.64,-245.51 194.22,-250.34 199.29,-255.17"/>
</a>
</g>
</g>
<!-- Node3 -->
<g id="Node000003" class="node">
<title>Node3</title>
<g id="a_Node000003"><a xlink:title=" ">
<polygon fill="#e0e0e0" stroke="#999999" points="63.25,-188 0,-188 0,-168 63.25,-168 63.25,-188"/>
<text text-anchor="middle" x="31.62" y="-174.5" font-family="Helvetica,sans-Serif" font-size="10.00">string_view</text>
</a>
</g>
</g>
<!-- Node2&#45;&gt;Node3 -->
<g id="edge2_Node000002_Node000003" class="edge">
<title>Node2&#45;&gt;Node3</title>
<g id="a_edge2_Node000002_Node000003"><a xlink:title=" ">
<path fill="none" stroke="#63b8ff" d="M87.78,-223.59C77.93,-215.77 63.69,-204.46 52.02,-195.19"/>
<polygon fill="#63b8ff" stroke="#63b8ff" points="54.53,-192.72 44.52,-189.24 50.17,-198.2 54.53,-192.72"/>
</a>
</g>
</g>
<!-- Node4 -->
<g id="Node000004" class="node">
<title>Node4</title>
<g id="a_Node000004"><a xlink:title=" ">
<polygon fill="#e0e0e0" stroke="#999999" points="132.25,-188 81,-188 81,-168 132.25,-168 132.25,-188"/>
<text text-anchor="middle" x="106.62" y="-174.5" font-family="Helvetica,sans-Serif" font-size="10.00">ostream</text>
</a>
</g>
</g>
<!-- Node2&#45;&gt;Node4 -->
<g id="edge3_Node000002_Node000004" class="edge">
<title>Node2&#45;&gt;Node4</title>
<g id="a_edge3_Node000002_Node000004"><a xlink:title=" ">
<path fill="none" stroke="#63b8ff" d="M100.84,-223.59C101.71,-216.93 102.9,-207.75 103.98,-199.44"/>
<polygon fill="#63b8ff" stroke="#63b8ff" points="107.41,-200.17 105.23,-189.8 100.47,-199.27 107.41,-200.17"/>
</a>
</g>
</g>
<!-- Node6 -->
<g id="Node000006" class="node">
<title>Node6</title>
<g id="a_Node000006"><a xlink:href="../../db/d3e/iterable_8hpp.html" target="_top" xlink:title="Iterable interfaces.">
<polygon fill="white" stroke="#666666" points="252.75,-188 162.5,-188 162.5,-168 252.75,-168 252.75,-188"/>
<text text-anchor="middle" x="207.62" y="-174.5" font-family="Helvetica,sans-Serif" font-size="10.00">ogxx/iterable.hpp</text>
</a>
</g>
</g>
<!-- Node5&#45;&gt;Node6 -->
<g id="edge5_Node000005_Node000006" class="edge">
<title>Node5&#45;&gt;Node6</title>
<g id="a_edge5_Node000005_Node000006"><a xlink:title=" ">
<path fill="none" stroke="#63b8ff" d="M212.58,-223.59C211.85,-217.01 210.84,-207.96 209.93,-199.73"/>
<polygon fill="#63b8ff" stroke="#63b8ff" points="213.41,-199.35 208.83,-189.8 206.45,-200.13 213.41,-199.35"/>
</a>
</g>
</g>
<!-- Node17 -->
<g id="Node000017" class="node">
<title>Node17</title>
<g id="a_Node000017"><a xlink:href="../../df/dce/matrix_8hpp.html" target="_top" xlink:title="Abstract matrix interface.">
<polygon fill="white" stroke="#666666" points="356.5,-188 270.75,-188 270.75,-168 356.5,-168 356.5,-188"/>
<text text-anchor="middle" x="313.62" y="-174.5" font-family="Helvetica,sans-Serif" font-size="10.00">ogxx/matrix.hpp</text>
</a>
</g>
</g>
<!-- Node5&#45;&gt;Node17 -->
<g id="edge17_Node000005_Node000017" class="edge">
<title>Node5&#45;&gt;Node17</title>
<g id="a_edge17_Node000005_Node000017"><a xlink:title=" ">
<path fill="none" stroke="#63b8ff" d="M231.04,-223.59C246.29,-215.36 268.7,-203.26 286.33,-193.74"/>
<polygon fill="#63b8ff" stroke="#63b8ff" points="287.6,-197.03 294.74,-189.2 284.28,-190.87 287.6,-197.03"/>
</a>
</g>
</g>
<!-- Node7 -->
<g id="Node000007" class="node">
<title>Node7</title>
<g id="a_Node000007"><a xlink:href="../../de/d2f/primitive__definitions_8hpp.html" target="_top" xlink:title="Primitive type declarations like scalar indices and so on.">
<polygon fill="white" stroke="#666666" points="313,-76 170.25,-76 170.25,-56 313,-56 313,-76"/>
<text text-anchor="middle" x="241.62" y="-62.5" font-family="Helvetica,sans-Serif" font-size="10.00">ogxx/primitive_definitions.hpp</text>
</a>
</g>
</g>
<!-- Node6&#45;&gt;Node7 -->
<g id="edge6_Node000006_Node000007" class="edge">
<title>Node6&#45;&gt;Node7</title>
<g id="a_edge6_Node000006_Node000007"><a xlink:title=" ">
<path fill="none" stroke="#63b8ff" d="M200.96,-167.86C192.45,-155 179.84,-130.99 188.62,-112 194.12,-100.13 204.46,-90.24 214.56,-82.79"/>
<polygon fill="#63b8ff" stroke="#63b8ff" points="216.42,-85.76 222.75,-77.25 212.5,-79.96 216.42,-85.76"/>
</a>
</g>
</g>
<!-- Node16 -->
<g id="Node000016" class="node">
<title>Node16</title>
<g id="a_Node000016"><a xlink:href="../../d9/dde/iterator_8hpp.html" target="_top" xlink:title="Linear sequence iterator interfaces.">
<polygon fill="white" stroke="#666666" points="286,-132 197.25,-132 197.25,-112 286,-112 286,-132"/>
<text text-anchor="middle" x="241.62" y="-118.5" font-family="Helvetica,sans-Serif" font-size="10.00">ogxx/iterator.hpp</text>
</a>
</g>
</g>
<!-- Node6&#45;&gt;Node16 -->
<g id="edge15_Node000006_Node000016" class="edge">
<title>Node6&#45;&gt;Node16</title>
<g id="a_edge15_Node000006_Node000016"><a xlink:title=" ">
<path fill="none" stroke="#63b8ff" d="M213.55,-167.59C217.98,-160.55 224.2,-150.67 229.66,-142"/>
<polygon fill="#63b8ff" stroke="#63b8ff" points="232.6,-143.91 234.96,-133.58 226.67,-140.18 232.6,-143.91"/>
</a>
</g>
</g>
<!-- Node8 -->
<g id="Node000008" class="node">
<title>Node8</title>
<g id="a_Node000008"><a xlink:title=" ">
<polygon fill="#e0e0e0" stroke="#999999" points="60.38,-20 12.88,-20 12.88,0 60.38,0 60.38,-20"/>
<text text-anchor="middle" x="36.62" y="-6.5" font-family="Helvetica,sans-Serif" font-size="10.00">cstddef</text>
</a>
</g>
</g>
<!-- Node7&#45;&gt;Node8 -->
<g id="edge7_Node000007_Node000008" class="edge">
<title>Node7&#45;&gt;Node8</title>
<g id="a_edge7_Node000007_Node000008"><a xlink:title=" ">
<path fill="none" stroke="#63b8ff" d="M204.45,-55.55C171.7,-47.19 122.45,-34.48 71.59,-20.77"/>
<polygon fill="#63b8ff" stroke="#63b8ff" points="72.75,-17.46 62.18,-18.23 70.92,-24.22 72.75,-17.46"/>
</a>
</g>
</g>
<!-- Node9 -->
<g id="Node000009" class="node">
<title>Node9</title>
<g id="a_Node000009"><a xlink:title=" ">
<polygon fill="#e0e0e0" stroke="#999999" points="123.25,-20 78,-20 78,0 123.25,0 123.25,-20"/>
<text text-anchor="middle" x="100.62" y="-6.5" font-family="Helvetica,sans-Serif" font-size="10.00">cstdint</text>
</a>
</g>
</g>
<!-- Node7&#45;&gt;Node9 -->
<g id="edge8_Node000007_Node000009" class="edge">
<title>Node7&#45;&gt;Node9</title>
<g id="a_edge8_Node000007_Node000009"><a xlink:title=" ">
<path fill="none" stroke="#63b8ff" d="M217.06,-55.59C194.11,-46.8 159.64,-33.6 134.16,-23.84"/>
<polygon fill="#63b8ff" stroke="#63b8ff" points="135.51,-20.61 124.92,-20.3 133,-27.15 135.51,-20.61"/>
</a>
</g>
</g>
<!-- Node10 -->
<g id="Node000010" class="node">
<title>Node10</title>
<g id="a_Node000010"><a xlink:title=" ">
<polygon fill="#e0e0e0" stroke="#999999" points="170.03,-20 141.22,-20 141.22,0 170.03,0 170.03,-20"/>
<text text-anchor="middle" x="155.62" y="-6.5" font-family="Helvetica,sans-Serif" font-size="10.00">bit</text>
</a>
</g>
</g>
<!-- Node7&#45;&gt;Node10 -->
<g id="edge9_Node000007_Node000010" class="edge">
<title>Node7&#45;&gt;Node10</title>
<g id="a_edge9_Node000007_Node000010"><a xlink:title=" ">
<path fill="none" stroke="#63b8ff" d="M226.64,-55.59C213.82,-47.54 195.1,-35.79 180.11,-26.37"/>
<polygon fill="#63b8ff" stroke="#63b8ff" points="182.05,-23.46 171.72,-21.1 178.32,-29.38 182.05,-23.46"/>
</a>
</g>
</g>
<!-- Node11 -->
<g id="Node000011" class="node">
<title>Node11</title>
<g id="a_Node000011"><a xlink:title=" ">
<polygon fill="#e0e0e0" stroke="#999999" points="227.25,-20 188,-20 188,0 227.25,0 227.25,-20"/>
<text text-anchor="middle" x="207.62" y="-6.5" font-family="Helvetica,sans-Serif" font-size="10.00">limits</text>
</a>
</g>
</g>
<!-- Node7&#45;&gt;Node11 -->
<g id="edge10_Node000007_Node000011" class="edge">
<title>Node7&#45;&gt;Node11</title>
<g id="a_edge10_Node000007_Node000011"><a xlink:title=" ">
<path fill="none" stroke="#63b8ff" d="M235.7,-55.59C231.27,-48.55 225.05,-38.67 219.59,-30"/>
<polygon fill="#63b8ff" stroke="#63b8ff" points="222.58,-28.18 214.29,-21.58 216.65,-31.91 222.58,-28.18"/>
</a>
</g>
</g>
<!-- Node12 -->
<g id="Node000012" class="node">
<title>Node12</title>
<g id="a_Node000012"><a xlink:title=" ">
<polygon fill="#e0e0e0" stroke="#999999" points="307.5,-20 245.75,-20 245.75,0 307.5,0 307.5,-20"/>
<text text-anchor="middle" x="276.62" y="-6.5" font-family="Helvetica,sans-Serif" font-size="10.00">type_traits</text>
</a>
</g>
</g>
<!-- Node7&#45;&gt;Node12 -->
<g id="edge11_Node000007_Node000012" class="edge">
<title>Node7&#45;&gt;Node12</title>
<g id="a_edge11_Node000007_Node000012"><a xlink:title=" ">
<path fill="none" stroke="#63b8ff" d="M247.72,-55.59C252.34,-48.47 258.83,-38.45 264.49,-29.72"/>
<polygon fill="#63b8ff" stroke="#63b8ff" points="267.27,-31.86 269.78,-21.57 261.4,-28.06 267.27,-31.86"/>
</a>
</g>
</g>
<!-- Node13 -->
<g id="Node000013" class="node">
<title>Node13</title>
<g id="a_Node000013"><a xlink:title=" ">
<polygon fill="#e0e0e0" stroke="#999999" points="377.25,-20 326,-20 326,0 377.25,0 377.25,-20"/>
<text text-anchor="middle" x="351.62" y="-6.5" font-family="Helvetica,sans-Serif" font-size="10.00">memory</text>
</a>
</g>
</g>
<!-- Node7&#45;&gt;Node13 -->
<g id="edge12_Node000007_Node000013" class="edge">
<title>Node7&#45;&gt;Node13</title>
<g id="a_edge12_Node000007_Node000013"><a xlink:title=" ">
<path fill="none" stroke="#63b8ff" d="M260.79,-55.59C277.72,-47.28 302.67,-35.03 322.15,-25.47"/>
<polygon fill="#63b8ff" stroke="#63b8ff" points="323.52,-28.7 330.96,-21.15 320.44,-22.41 323.52,-28.7"/>
</a>
</g>
</g>
<!-- Node14 -->
<g id="Node000014" class="node">
<title>Node14</title>
<g id="a_Node000014"><a xlink:title=" ">
<polygon fill="#e0e0e0" stroke="#999999" points="434.25,-20 395,-20 395,0 434.25,0 434.25,-20"/>
<text text-anchor="middle" x="414.62" y="-6.5" font-family="Helvetica,sans-Serif" font-size="10.00">utility</text>
</a>
</g>
</g>
<!-- Node7&#45;&gt;Node14 -->
<g id="edge13_Node000007_Node000014" class="edge">
<title>Node7&#45;&gt;Node14</title>
<g id="a_edge13_Node000007_Node000014"><a xlink:title=" ">
<path fill="none" stroke="#63b8ff" d="M272.48,-55.52C299.62,-47.16 340.46,-34.54 383.94,-20.83"/>
<polygon fill="#63b8ff" stroke="#63b8ff" points="384.82,-24.22 393.3,-17.87 382.71,-17.55 384.82,-24.22"/>
</a>
</g>
</g>
<!-- Node15 -->
<g id="Node000015" class="node">
<title>Node15</title>
<g id="a_Node000015"><a xlink:title=" ">
<polygon fill="#e0e0e0" stroke="#999999" points="511,-20 452.25,-20 452.25,0 511,0 511,-20"/>
<text text-anchor="middle" x="481.62" y="-6.5" font-family="Helvetica,sans-Serif" font-size="10.00">stdexcept</text>
</a>
</g>
</g>
<!-- Node7&#45;&gt;Node15 -->
<g id="edge14_Node000007_Node000015" class="edge">
<title>Node7&#45;&gt;Node15</title>
<g id="a_edge14_Node000007_Node000015"><a xlink:title=" ">
<path fill="none" stroke="#63b8ff" d="M285.01,-55.51C323.54,-47.04 381.69,-34.17 440.73,-20.64"/>
<polygon fill="#63b8ff" stroke="#63b8ff" points="441.32,-24.1 450.29,-18.45 439.76,-17.28 441.32,-24.1"/>
</a>
</g>
</g>
<!-- Node16&#45;&gt;Node7 -->
<g id="edge16_Node000016_Node000007" class="edge">
<title>Node16&#45;&gt;Node7</title>
<g id="a_edge16_Node000016_Node000007"><a xlink:title=" ">
<path fill="none" stroke="#63b8ff" d="M241.62,-111.59C241.62,-105.01 241.62,-95.96 241.62,-87.73"/>
<polygon fill="#63b8ff" stroke="#63b8ff" points="245.13,-87.81 241.63,-77.81 238.13,-87.81 245.13,-87.81"/>
</a>
</g>
</g>
<!-- Node17&#45;&gt;Node7 -->
<g id="edge18_Node000017_Node000007" class="edge">
<title>Node17&#45;&gt;Node7</title>
<g id="a_edge18_Node000017_Node000007"><a xlink:title=" ">
<path fill="none" stroke="#63b8ff" d="M312.64,-167.91C310.86,-154.68 306.14,-129.75 294.62,-112 287.26,-100.64 276.17,-90.6 266.04,-82.9"/>
<polygon fill="#63b8ff" stroke="#63b8ff" points="268.17,-80.12 258,-77.15 264.1,-85.81 268.17,-80.12"/>
</a>
</g>
</g>
<!-- Node17&#45;&gt;Node16 -->
<g id="edge19_Node000017_Node000016" class="edge">
<title>Node17&#45;&gt;Node16</title>
<g id="a_edge19_Node000017_Node000016"><a xlink:title=" ">
<path fill="none" stroke="#63b8ff" d="M301.08,-167.59C290.66,-159.77 275.58,-148.46 263.21,-139.19"/>
<polygon fill="#63b8ff" stroke="#63b8ff" points="265.33,-136.41 255.23,-133.21 261.13,-142.01 265.33,-136.41"/>
</a>
</g>
</g>
<!-- Node18 -->
<g id="Node000018" class="node">
<title>Node18</title>
<g id="a_Node000018"><a xlink:title=" ">
<polygon fill="#e0e0e0" stroke="#999999" points="395.38,-132 341.88,-132 341.88,-112 395.38,-112 395.38,-132"/>
<text text-anchor="middle" x="368.62" y="-118.5" font-family="Helvetica,sans-Serif" font-size="10.00">compare</text>
</a>
</g>
</g>
<!-- Node17&#45;&gt;Node18 -->
<g id="edge20_Node000017_Node000018" class="edge">
<title>Node17&#45;&gt;Node18</title>
<g id="a_edge20_Node000017_Node000018"><a xlink:title=" ">
<path fill="none" stroke="#63b8ff" d="M323.21,-167.59C330.86,-160.08 341.78,-149.35 351,-140.3"/>
<polygon fill="#63b8ff" stroke="#63b8ff" points="353.39,-142.86 358.07,-133.36 348.49,-137.87 353.39,-142.86"/>
</a>
</g>
</g>
</g>
</svg>
