<?xml version="1.0" encoding="UTF-8" standalone="no"?>
<!DOCTYPE svg PUBLIC "-//W3C//DTD SVG 1.1//EN"
 "http://www.w3.org/Graphics/SVG/1.1/DTD/svg11.dtd">
<!-- Generated by graphviz version 9.0.0 (20230911.1827)
 -->
<!-- Title: ogxx::Sized_iterable&lt; Item &gt; Pages: 1 -->
<svg width="888pt" height="326pt"
 viewBox="0.00 0.00 887.75 326.00" xmlns="http://www.w3.org/2000/svg" xmlns:xlink="http://www.w3.org/1999/xlink">
<g id="graph0" class="graph" transform="scale(1 1) rotate(0) translate(4 322)">
<title>ogxx::Sized_iterable&lt; Item &gt;</title>
<!-- Node1 -->
<g id="Node000001" class="node">
<title>Node1</title>
<g id="a_Node000001"><a xlink:title="Not only iterable but we know in advance, how many items it contains.">
<polygon fill="#999999" stroke="#666666" points="251.75,-192 147.25,-192 147.25,-160 251.75,-160 251.75,-192"/>
<text text-anchor="start" x="155.25" y="-178.5" font-family="Helvetica,sans-Serif" font-size="10.00">ogxx::Sized_iterable</text>
<text text-anchor="middle" x="199.5" y="-166.5" font-family="Helvetica,sans-Serif" font-size="10.00">&lt; Item &gt;</text>
</a>
</g>
</g>
<!-- Node3 -->
<g id="Node000003" class="node">
<title>Node3</title>
<g id="a_Node000003"><a xlink:href="../../d2/d24/classogxx_1_1_bag.html" target="_top" xlink:title=" ">
<polygon fill="white" stroke="#666666" points="413.62,-318 289.62,-318 289.62,-298 413.62,-298 413.62,-318"/>
<text text-anchor="middle" x="351.62" y="-304.5" font-family="Helvetica,sans-Serif" font-size="10.00">ogxx::Bag&lt; Adjacency &gt;</text>
</a>
</g>
</g>
<!-- Node1&#45;&gt;Node3 -->
<g id="edge2_Node000001_Node000003" class="edge">
<title>Node1&#45;&gt;Node3</title>
<g id="a_edge2_Node000001_Node000003"><a xlink:title=" ">
<path fill="none" stroke="#63b8ff" d="M214.34,-202.28C229.19,-228 255.1,-266.5 287.75,-289 292.73,-292.43 298.34,-295.25 304.11,-297.58"/>
<polygon fill="#63b8ff" stroke="#63b8ff" points="217.52,-200.79 209.58,-193.77 211.41,-204.21 217.52,-200.79"/>
</a>
</g>
</g>
<!-- Node4 -->
<g id="Node000004" class="node">
<title>Node4</title>
<g id="a_Node000004"><a xlink:href="../../d2/d24/classogxx_1_1_bag.html" target="_top" xlink:title=" ">
<polygon fill="white" stroke="#666666" points="415.5,-280 287.75,-280 287.75,-260 415.5,-260 415.5,-280"/>
<text text-anchor="middle" x="351.62" y="-266.5" font-family="Helvetica,sans-Serif" font-size="10.00">ogxx::Bag&lt; Vertex_pair &gt;</text>
</a>
</g>
</g>
<!-- Node1&#45;&gt;Node4 -->
<g id="edge3_Node000001_Node000004" class="edge">
<title>Node1&#45;&gt;Node4</title>
<g id="a_edge3_Node000001_Node000004"><a xlink:title=" ">
<path fill="none" stroke="#63b8ff" d="M223.33,-200.38C239.84,-216.74 263.44,-237.66 287.75,-251 293.85,-254.35 300.61,-257.18 307.37,-259.55"/>
<polygon fill="#63b8ff" stroke="#63b8ff" points="225.95,-198.05 216.44,-193.38 220.96,-202.96 225.95,-198.05"/>
</a>
</g>
</g>
<!-- Node6 -->
<g id="Node000006" class="node">
<title>Node6</title>
<g id="a_Node000006"><a xlink:href="../../d2/d20/classogxx_1_1_indexed__iterable.html" target="_top" xlink:title=" ">
<polygon fill="white" stroke="#666666" points="408.38,-242 294.88,-242 294.88,-210 408.38,-210 408.38,-242"/>
<text text-anchor="start" x="302.88" y="-228.5" font-family="Helvetica,sans-Serif" font-size="10.00">ogxx::Indexed_iterable</text>
<text text-anchor="middle" x="351.62" y="-216.5" font-family="Helvetica,sans-Serif" font-size="10.00">&lt; Adjacency &gt;</text>
</a>
</g>
</g>
<!-- Node1&#45;&gt;Node6 -->
<g id="edge5_Node000001_Node000006" class="edge">
<title>Node1&#45;&gt;Node6</title>
<g id="a_edge5_Node000001_Node000006"><a xlink:title=" ">
<path fill="none" stroke="#63b8ff" d="M260.32,-195.92C273.84,-200.43 288.06,-205.16 301.1,-209.51"/>
<polygon fill="#63b8ff" stroke="#63b8ff" points="261.69,-192.69 251.09,-192.85 259.47,-199.33 261.69,-192.69"/>
</a>
</g>
</g>
<!-- Node7 -->
<g id="Node000007" class="node">
<title>Node7</title>
<g id="a_Node000007"><a xlink:href="../../d2/d20/classogxx_1_1_indexed__iterable.html" target="_top" xlink:title=" ">
<polygon fill="white" stroke="#666666" points="408.38,-192 294.88,-192 294.88,-160 408.38,-160 408.38,-192"/>
<text text-anchor="start" x="302.88" y="-178.5" font-family="Helvetica,sans-Serif" font-size="10.00">ogxx::Indexed_iterable</text>
<text text-anchor="middle" x="351.62" y="-166.5" font-family="Helvetica,sans-Serif" font-size="10.00">&lt; Scalar_index &gt;</text>
</a>
</g>
</g>
<!-- Node1&#45;&gt;Node7 -->
<g id="edge6_Node000001_Node000007" class="edge">
<title>Node1&#45;&gt;Node7</title>
<g id="a_edge6_Node000001_Node000007"><a xlink:title=" ">
<path fill="none" stroke="#63b8ff" d="M263.58,-176C273.85,-176 284.42,-176 294.5,-176"/>
<polygon fill="#63b8ff" stroke="#63b8ff" points="263.68,-172.5 253.68,-176 263.68,-179.5 263.68,-172.5"/>
</a>
</g>
</g>
<!-- Node9 -->
<g id="Node000009" class="node">
<title>Node9</title>
<g id="a_Node000009"><a xlink:href="../../d2/d20/classogxx_1_1_indexed__iterable.html" target="_top" xlink:title=" ">
<polygon fill="white" stroke="#666666" points="408.38,-142 294.88,-142 294.88,-110 408.38,-110 408.38,-142"/>
<text text-anchor="start" x="302.88" y="-128.5" font-family="Helvetica,sans-Serif" font-size="10.00">ogxx::Indexed_iterable</text>
<text text-anchor="middle" x="351.62" y="-116.5" font-family="Helvetica,sans-Serif" font-size="10.00">&lt; Vertex_pair &gt;</text>
</a>
</g>
</g>
<!-- Node1&#45;&gt;Node9 -->
<g id="edge8_Node000001_Node000009" class="edge">
<title>Node1&#45;&gt;Node9</title>
<g id="a_edge8_Node000001_Node000009"><a xlink:title=" ">
<path fill="none" stroke="#63b8ff" d="M260.32,-156.08C273.84,-151.57 288.06,-146.84 301.1,-142.49"/>
<polygon fill="#63b8ff" stroke="#63b8ff" points="259.47,-152.67 251.09,-159.15 261.69,-159.31 259.47,-152.67"/>
</a>
</g>
</g>
<!-- Node10 -->
<g id="Node000010" class="node">
<title>Node10</title>
<g id="a_Node000010"><a xlink:href="../../d2/d24/classogxx_1_1_bag.html" target="_top" xlink:title="Generic container interface with inserts and erases but no fixed ordering of items.">
<polygon fill="white" stroke="#666666" points="400.12,-42 303.12,-42 303.12,-22 400.12,-22 400.12,-42"/>
<text text-anchor="middle" x="351.62" y="-28.5" font-family="Helvetica,sans-Serif" font-size="10.00">ogxx::Bag&lt; Item &gt;</text>
</a>
</g>
</g>
<!-- Node1&#45;&gt;Node10 -->
<g id="edge9_Node000001_Node000010" class="edge">
<title>Node1&#45;&gt;Node10</title>
<g id="a_edge9_Node000001_Node000010"><a xlink:title=" ">
<path fill="none" stroke="#63b8ff" d="M212.35,-149.53C226.39,-121.12 252.41,-76.62 287.75,-51 292.46,-47.59 297.79,-44.78 303.3,-42.47"/>
<polygon fill="#63b8ff" stroke="#63b8ff" points="209.37,-147.66 208.22,-158.19 215.68,-150.67 209.37,-147.66"/>
</a>
</g>
</g>
<!-- Node16 -->
<g id="Node000016" class="node">
<title>Node16</title>
<g id="a_Node000016"><a xlink:href="../../d2/d20/classogxx_1_1_indexed__iterable.html" target="_top" xlink:title="Finally, the linear zero&#45;based integer&#45;indexed iterable collection.">
<polygon fill="white" stroke="#666666" points="408.38,-92 294.88,-92 294.88,-60 408.38,-60 408.38,-92"/>
<text text-anchor="start" x="302.88" y="-78.5" font-family="Helvetica,sans-Serif" font-size="10.00">ogxx::Indexed_iterable</text>
<text text-anchor="middle" x="351.62" y="-66.5" font-family="Helvetica,sans-Serif" font-size="10.00">&lt; Item &gt;</text>
</a>
</g>
</g>
<!-- Node1&#45;&gt;Node16 -->
<g id="edge16_Node000001_Node000016" class="edge">
<title>Node1&#45;&gt;Node16</title>
<g id="a_edge16_Node000001_Node000016"><a xlink:title=" ">
<path fill="none" stroke="#63b8ff" d="M224.32,-151.67C240.96,-135.68 264.32,-115.18 287.75,-101 292.88,-97.9 298.45,-95.04 304.1,-92.45"/>
<polygon fill="#63b8ff" stroke="#63b8ff" points="222.04,-149 217.34,-158.5 226.94,-154 222.04,-149"/>
</a>
</g>
</g>
<!-- Node2 -->
<g id="Node000002" class="node">
<title>Node2</title>
<g id="a_Node000002"><a xlink:href="../../d8/d9b/classogxx_1_1_iterable.html" target="_top" xlink:title="An interface for an object that can be iterated with an iterator.">
<polygon fill="white" stroke="#666666" points="111.25,-186 0,-186 0,-166 111.25,-166 111.25,-186"/>
<text text-anchor="middle" x="55.62" y="-172.5" font-family="Helvetica,sans-Serif" font-size="10.00">ogxx::Iterable&lt; Item &gt;</text>
</a>
</g>
</g>
<!-- Node2&#45;&gt;Node1 -->
<g id="edge1_Node000001_Node000002" class="edge">
<title>Node2&#45;&gt;Node1</title>
<g id="a_edge1_Node000001_Node000002"><a xlink:title=" ">
<path fill="none" stroke="#63b8ff" d="M122.86,-176C130.98,-176 139.19,-176 147.05,-176"/>
<polygon fill="#63b8ff" stroke="#63b8ff" points="122.99,-172.5 112.99,-176 122.99,-179.5 122.99,-172.5"/>
</a>
</g>
</g>
<!-- Node5 -->
<g id="Node000005" class="node">
<title>Node5</title>
<g id="a_Node000005"><a xlink:href="../../df/d8c/classogxx_1_1_edge__list.html" target="_top" xlink:title="Interface (abstract base class) for storing an edge list of a graph.">
<polygon fill="white" stroke="#666666" points="564.62,-280 481.12,-280 481.12,-260 564.62,-260 564.62,-280"/>
<text text-anchor="middle" x="522.88" y="-266.5" font-family="Helvetica,sans-Serif" font-size="10.00">ogxx::Edge_list</text>
</a>
</g>
</g>
<!-- Node4&#45;&gt;Node5 -->
<g id="edge4_Node000004_Node000005" class="edge">
<title>Node4&#45;&gt;Node5</title>
<g id="a_edge4_Node000004_Node000005"><a xlink:title=" ">
<path fill="none" stroke="#63b8ff" d="M427.04,-270C445.53,-270 464.67,-270 480.88,-270"/>
<polygon fill="#63b8ff" stroke="#63b8ff" points="427.16,-266.5 417.16,-270 427.16,-273.5 427.16,-266.5"/>
</a>
</g>
</g>
<!-- Node8 -->
<g id="Node000008" class="node">
<title>Node8</title>
<g id="a_Node000008"><a xlink:href="../../d2/d01/classogxx_1_1_index__set__sortedvector.html" target="_top" xlink:title=" ">
<polygon fill="white" stroke="#666666" points="594.25,-186 451.5,-186 451.5,-166 594.25,-166 594.25,-186"/>
<text text-anchor="middle" x="522.88" y="-172.5" font-family="Helvetica,sans-Serif" font-size="10.00">ogxx::Index_set_sortedvector</text>
</a>
</g>
</g>
<!-- Node7&#45;&gt;Node8 -->
<g id="edge7_Node000007_Node000008" class="edge">
<title>Node7&#45;&gt;Node8</title>
<g id="a_edge7_Node000007_Node000008"><a xlink:title=" ">
<path fill="none" stroke="#63b8ff" d="M419.95,-176C430.24,-176 440.89,-176 451.26,-176"/>
<polygon fill="#63b8ff" stroke="#63b8ff" points="420.03,-172.5 410.03,-176 420.03,-179.5 420.03,-172.5"/>
</a>
</g>
</g>
<!-- Node11 -->
<g id="Node000011" class="node">
<title>Node11</title>
<g id="a_Node000011"><a xlink:href="../../d8/d68/classogxx_1_1_list.html" target="_top" xlink:title=" ">
<polygon fill="white" stroke="#666666" points="584.12,-108 461.62,-108 461.62,-88 584.12,-88 584.12,-108"/>
<text text-anchor="middle" x="522.88" y="-94.5" font-family="Helvetica,sans-Serif" font-size="10.00">ogxx::List&lt; Adjacency &gt;</text>
</a>
</g>
</g>
<!-- Node10&#45;&gt;Node11 -->
<g id="edge10_Node000010_Node000011" class="edge">
<title>Node10&#45;&gt;Node11</title>
<g id="a_edge10_Node000010_Node000011"><a xlink:title=" ">
<path fill="none" stroke="#63b8ff" d="M405.84,-46.53C409.16,-47.91 412.41,-49.4 415.5,-51 433.5,-60.31 433.36,-69.96 451.5,-79 458.3,-82.39 465.77,-85.23 473.24,-87.6"/>
<polygon fill="#63b8ff" stroke="#63b8ff" points="407.08,-43.26 396.49,-43.02 404.62,-49.81 407.08,-43.26"/>
</a>
</g>
</g>
<!-- Node14 -->
<g id="Node000014" class="node">
<title>Node14</title>
<g id="a_Node000014"><a xlink:href="../../d8/d68/classogxx_1_1_list.html" target="_top" xlink:title=" ">
<polygon fill="white" stroke="#666666" points="571,-70 474.75,-70 474.75,-38 571,-38 571,-70"/>
<text text-anchor="start" x="482.75" y="-56.5" font-family="Helvetica,sans-Serif" font-size="10.00">ogxx::List&lt; Vertex</text>
<text text-anchor="middle" x="522.88" y="-44.5" font-family="Helvetica,sans-Serif" font-size="10.00">_pair &gt;</text>
</a>
</g>
</g>
<!-- Node10&#45;&gt;Node14 -->
<g id="edge14_Node000010_Node000014" class="edge">
<title>Node10&#45;&gt;Node14</title>
<g id="a_edge14_Node000010_Node000014"><a xlink:title=" ">
<path fill="none" stroke="#63b8ff" d="M411.39,-39.64C431.96,-42.31 454.8,-45.28 474.34,-47.82"/>
<polygon fill="#63b8ff" stroke="#63b8ff" points="412.09,-36.2 401.72,-38.38 411.19,-43.14 412.09,-36.2"/>
</a>
</g>
</g>
<!-- Node15 -->
<g id="Node000015" class="node">
<title>Node15</title>
<g id="a_Node000015"><a xlink:href="../../d8/d68/classogxx_1_1_list.html" target="_top" xlink:title="Generic container interface with inserts and erases and stores them in linear order as a list.">
<polygon fill="white" stroke="#666666" points="570.62,-20 475.12,-20 475.12,0 570.62,0 570.62,-20"/>
<text text-anchor="middle" x="522.88" y="-6.5" font-family="Helvetica,sans-Serif" font-size="10.00">ogxx::List&lt; Item &gt;</text>
</a>
</g>
</g>
<!-- Node10&#45;&gt;Node15 -->
<g id="edge15_Node000010_Node000015" class="edge">
<title>Node10&#45;&gt;Node15</title>
<g id="a_edge15_Node000010_Node000015"><a xlink:title=" ">
<path fill="none" stroke="#63b8ff" d="M411.43,-24.36C432.1,-21.67 455.04,-18.69 474.64,-16.14"/>
<polygon fill="#63b8ff" stroke="#63b8ff" points="411.19,-20.86 401.72,-25.62 412.09,-27.8 411.19,-20.86"/>
</a>
</g>
</g>
<!-- Node12 -->
<g id="Node000012" class="node">
<title>Node12</title>
<g id="a_Node000012"><a xlink:href="../../d3/d35/classogxx_1_1_adjacency__list.html" target="_top" xlink:title="Graph representation where, which maps vertex index to the adjacency of that vertex.">
<polygon fill="white" stroke="#666666" points="737,-108 630.25,-108 630.25,-88 737,-88 737,-108"/>
<text text-anchor="middle" x="683.62" y="-94.5" font-family="Helvetica,sans-Serif" font-size="10.00">ogxx::Adjacency_list</text>
</a>
</g>
</g>
<!-- Node11&#45;&gt;Node12 -->
<g id="edge11_Node000011_Node000012" class="edge">
<title>Node11&#45;&gt;Node12</title>
<g id="a_edge11_Node000011_Node000012"><a xlink:title=" ">
<path fill="none" stroke="#63b8ff" d="M595.72,-98C607.21,-98 618.91,-98 629.85,-98"/>
<polygon fill="#63b8ff" stroke="#63b8ff" points="595.86,-94.5 585.86,-98 595.86,-101.5 595.86,-94.5"/>
</a>
</g>
</g>
<!-- Node13 -->
<g id="Node000013" class="node">
<title>Node13</title>
<g id="a_Node000013"><a xlink:href="../../d4/dae/classogxx_1_1_adjacency__list__vector.html" target="_top" xlink:title=" ">
<polygon fill="white" stroke="#666666" points="879.75,-114 773,-114 773,-82 879.75,-82 879.75,-114"/>
<text text-anchor="start" x="781" y="-100.5" font-family="Helvetica,sans-Serif" font-size="10.00">ogxx::Adjacency_list</text>
<text text-anchor="middle" x="826.38" y="-88.5" font-family="Helvetica,sans-Serif" font-size="10.00">_vector</text>
</a>
</g>
</g>
<!-- Node12&#45;&gt;Node13 -->
<g id="edge12_Node000012_Node000013" class="edge">
<title>Node12&#45;&gt;Node13</title>
<g id="a_edge12_Node000012_Node000013"><a xlink:title=" ">
<path fill="none" stroke="#63b8ff" d="M748.69,-91.27C756.74,-91.21 764.89,-91.27 772.74,-91.44"/>
<polygon fill="#63b8ff" stroke="#63b8ff" points="748.9,-87.77 738.95,-91.42 749,-94.77 748.9,-87.77"/>
</a>
</g>
</g>
<!-- Node12&#45;&gt;Node13 -->
<g id="edge13_Node000012_Node000013" class="edge">
<title>Node12&#45;&gt;Node13</title>
<g id="a_edge13_Node000012_Node000013"><a xlink:title=" ">
<path fill="none" stroke="#63b8ff" d="M748.69,-104.73C756.74,-104.79 764.89,-104.73 772.74,-104.56"/>
<polygon fill="#63b8ff" stroke="#63b8ff" points="749,-101.23 738.95,-104.58 748.9,-108.23 749,-101.23"/>
</a>
</g>
</g>
<!-- Node16&#45;&gt;Node11 -->
<g id="edge17_Node000016_Node000011" class="edge">
<title>Node16&#45;&gt;Node11</title>
<g id="a_edge17_Node000016_Node000011"><a xlink:title=" ">
<path fill="none" stroke="#63b8ff" d="M419.85,-84.74C433.57,-86.52 447.92,-88.39 461.38,-90.14"/>
<polygon fill="#63b8ff" stroke="#63b8ff" points="420.38,-81.28 410.01,-83.46 419.48,-88.22 420.38,-81.28"/>
</a>
</g>
</g>
<!-- Node16&#45;&gt;Node14 -->
<g id="edge18_Node000016_Node000014" class="edge">
<title>Node16&#45;&gt;Node14</title>
<g id="a_edge18_Node000016_Node000014"><a xlink:title=" ">
<path fill="none" stroke="#63b8ff" d="M419.7,-67.28C437.95,-64.91 457.34,-62.39 474.26,-60.19"/>
<polygon fill="#63b8ff" stroke="#63b8ff" points="419.48,-63.78 410.01,-68.54 420.38,-70.72 419.48,-63.78"/>
</a>
</g>
</g>
<!-- Node16&#45;&gt;Node15 -->
<g id="edge19_Node000016_Node000015" class="edge">
<title>Node16&#45;&gt;Node15</title>
<g id="a_edge19_Node000016_Node000015"><a xlink:title=" ">
<path fill="none" stroke="#63b8ff" d="M407.13,-55C409.98,-53.69 412.79,-52.36 415.5,-51 432.27,-42.62 434.27,-36.41 451.5,-29 459.17,-25.7 467.57,-22.84 475.8,-20.41"/>
<polygon fill="#63b8ff" stroke="#63b8ff" points="405.81,-51.76 398.07,-58.98 408.63,-58.17 405.81,-51.76"/>
</a>
</g>
</g>
</g>
</svg>
