<?xml version="1.0" encoding="UTF-8" standalone="no"?>
<!DOCTYPE svg PUBLIC "-//W3C//DTD SVG 1.1//EN"
 "http://www.w3.org/Graphics/SVG/1.1/DTD/svg11.dtd">
<!-- Generated by graphviz version 9.0.0 (20230911.1827)
 -->
<!-- Title: include/ogxx/st_matrix_io.hpp Pages: 1 -->
<svg width="222pt" height="164pt"
 viewBox="0.00 0.00 222.12 164.00" xmlns="http://www.w3.org/2000/svg" xmlns:xlink="http://www.w3.org/1999/xlink">
<g id="graph0" class="graph" transform="scale(1 1) rotate(0) translate(4 160)">
<title>include/ogxx/st_matrix_io.hpp</title>
<!-- Node1 -->
<g id="Node000001" class="node">
<title>Node1</title>
<g id="a_Node000001"><a xlink:title="St_matrix reading and printing operations.">
<polygon fill="#999999" stroke="#666666" points="165.88,-156 51.62,-156 51.62,-124 165.88,-124 165.88,-156"/>
<text text-anchor="start" x="59.62" y="-142.5" font-family="Helvetica,sans-Serif" font-size="10.00">include/ogxx/st_matrix</text>
<text text-anchor="middle" x="108.75" y="-130.5" font-family="Helvetica,sans-Serif" font-size="10.00">_io.hpp</text>
</a>
</g>
</g>
<!-- Node2 -->
<g id="Node000002" class="node">
<title>Node2</title>
<g id="a_Node000002"><a xlink:href="../../d1/d44/source_2st__matrix__io__read_8cpp.html" target="_top" xlink:title="Implementation of st_matrix_io.hpp&#39;s read function.">
<polygon fill="white" stroke="#666666" points="101.5,-88 0,-88 0,-56 101.5,-56 101.5,-88"/>
<text text-anchor="start" x="8" y="-74.5" font-family="Helvetica,sans-Serif" font-size="10.00">source/st_matrix_io</text>
<text text-anchor="middle" x="50.75" y="-62.5" font-family="Helvetica,sans-Serif" font-size="10.00">_read.cpp</text>
</a>
</g>
</g>
<!-- Node1&#45;&gt;Node2 -->
<g id="edge1_Node000001_Node000002" class="edge">
<title>Node1&#45;&gt;Node2</title>
<g id="a_edge1_Node000001_Node000002"><a xlink:title=" ">
<path fill="none" stroke="#63b8ff" d="M87.79,-115.15C79.9,-106.17 71.14,-96.21 64.13,-88.22"/>
<polygon fill="#63b8ff" stroke="#63b8ff" points="85.07,-117.35 94.3,-122.56 90.33,-112.73 85.07,-117.35"/>
</a>
</g>
</g>
<!-- Node3 -->
<g id="Node000003" class="node">
<title>Node3</title>
<g id="a_Node000003"><a xlink:href="../../d0/ddf/tests_2st__matrix__io__read_8cpp.html" target="_top" xlink:title="St_matrix io::read function tests.">
<polygon fill="white" stroke="#666666" points="213.75,-88 119.75,-88 119.75,-56 213.75,-56 213.75,-88"/>
<text text-anchor="start" x="127.75" y="-74.5" font-family="Helvetica,sans-Serif" font-size="10.00">tests/st_matrix_io</text>
<text text-anchor="middle" x="166.75" y="-62.5" font-family="Helvetica,sans-Serif" font-size="10.00">_read.cpp</text>
</a>
</g>
</g>
<!-- Node1&#45;&gt;Node3 -->
<g id="edge2_Node000001_Node000003" class="edge">
<title>Node1&#45;&gt;Node3</title>
<g id="a_edge2_Node000001_Node000003"><a xlink:title=" ">
<path fill="none" stroke="#63b8ff" d="M129.71,-115.15C137.6,-106.17 146.36,-96.21 153.37,-88.22"/>
<polygon fill="#63b8ff" stroke="#63b8ff" points="127.17,-112.73 123.2,-122.56 132.43,-117.35 127.17,-112.73"/>
</a>
</g>
</g>
<!-- Node4 -->
<g id="Node000004" class="node">
<title>Node4</title>
<g id="a_Node000004"><a xlink:href="../../da/d4a/build__all_8cpp.html" target="_top" xlink:title="Include all test files here to build them at once.">
<polygon fill="white" stroke="#666666" points="214.12,-20 119.38,-20 119.38,0 214.12,0 214.12,-20"/>
<text text-anchor="middle" x="166.75" y="-6.5" font-family="Helvetica,sans-Serif" font-size="10.00">tests/build_all.cpp</text>
</a>
</g>
</g>
<!-- Node3&#45;&gt;Node4 -->
<g id="edge3_Node000003_Node000004" class="edge">
<title>Node3&#45;&gt;Node4</title>
<g id="a_edge3_Node000003_Node000004"><a xlink:title=" ">
<path fill="none" stroke="#63b8ff" d="M166.75,-44.08C166.75,-35.6 166.75,-26.8 166.75,-20.41"/>
<polygon fill="#63b8ff" stroke="#63b8ff" points="163.25,-44.03 166.75,-54.03 170.25,-44.03 163.25,-44.03"/>
</a>
</g>
</g>
</g>
</svg>
