<?xml version="1.0" encoding="UTF-8" standalone="no"?>
<!DOCTYPE svg PUBLIC "-//W3C//DTD SVG 1.1//EN"
 "http://www.w3.org/Graphics/SVG/1.1/DTD/svg11.dtd">
<!-- Generated by graphviz version 9.0.0 (20230911.1827)
 -->
<!-- Title: ogxx::Graph_view Pages: 1 -->
<svg width="302pt" height="96pt"
 viewBox="0.00 0.00 301.50 96.00" xmlns="http://www.w3.org/2000/svg" xmlns:xlink="http://www.w3.org/1999/xlink">
<g id="graph0" class="graph" transform="scale(1 1) rotate(0) translate(4 92)">
<title>ogxx::Graph_view</title>
<!-- Node1 -->
<g id="Node000001" class="node">
<title>Node1</title>
<g id="a_Node000001"><a xlink:title="Generic graph interface to provide a common facade over concrete graph representations.">
<polygon fill="#999999" stroke="#666666" points="190.38,-88 97.88,-88 97.88,-68 190.38,-68 190.38,-88"/>
<text text-anchor="middle" x="144.12" y="-74.5" font-family="Helvetica,sans-Serif" font-size="10.00">ogxx::Graph_view</text>
</a>
</g>
</g>
<!-- Node2 -->
<g id="Node000002" class="node">
<title>Node2</title>
<g id="a_Node000002"><a xlink:href="../../dd/dde/classogxx_1_1_graph__view__directed__edge__list.html" target="_top" xlink:title=" ">
<polygon fill="white" stroke="#666666" points="132.25,-32 0,-32 0,0 132.25,0 132.25,-32"/>
<text text-anchor="start" x="8" y="-18.5" font-family="Helvetica,sans-Serif" font-size="10.00">ogxx::Graph_view_directed</text>
<text text-anchor="middle" x="66.12" y="-6.5" font-family="Helvetica,sans-Serif" font-size="10.00">_edge_list</text>
</a>
</g>
</g>
<!-- Node1&#45;&gt;Node2 -->
<g id="edge1_Node000001_Node000002" class="edge">
<title>Node1&#45;&gt;Node2</title>
<g id="a_edge1_Node000001_Node000002"><a xlink:title=" ">
<path fill="none" stroke="#63b8ff" d="M117.7,-61.3C105.11,-52.38 90.65,-41.25 80.13,-32.37"/>
<polygon fill="#63b8ff" stroke="#63b8ff" points="115.41,-63.97 125.63,-66.77 119.38,-58.21 115.41,-63.97"/>
</a>
</g>
</g>
<!-- Node1&#45;&gt;Node2 -->
<g id="edge2_Node000001_Node000002" class="edge">
<title>Node1&#45;&gt;Node2</title>
<g id="a_edge2_Node000001_Node000002"><a xlink:title=" ">
<path fill="none" stroke="#63b8ff" d="M128.47,-60.24C117.99,-51.51 104.15,-40.9 92.09,-32.37"/>
<polygon fill="#63b8ff" stroke="#63b8ff" points="126,-62.74 135.86,-66.63 130.58,-57.44 126,-62.74"/>
</a>
</g>
</g>
<!-- Node3 -->
<g id="Node000003" class="node">
<title>Node3</title>
<g id="a_Node000003"><a xlink:href="../../de/dcc/classogxx_1_1_graph__view__undirected__adjacency__matrix.html" target="_top" xlink:title=" ">
<polygon fill="white" stroke="#666666" points="293.5,-32 150.75,-32 150.75,0 293.5,0 293.5,-32"/>
<text text-anchor="start" x="158.75" y="-18.5" font-family="Helvetica,sans-Serif" font-size="10.00">ogxx::Graph_view_undirected</text>
<text text-anchor="middle" x="222.12" y="-6.5" font-family="Helvetica,sans-Serif" font-size="10.00">_adjacency_matrix</text>
</a>
</g>
</g>
<!-- Node1&#45;&gt;Node3 -->
<g id="edge3_Node000001_Node000003" class="edge">
<title>Node1&#45;&gt;Node3</title>
<g id="a_edge3_Node000001_Node000003"><a xlink:title=" ">
<path fill="none" stroke="#63b8ff" d="M159.78,-60.24C170.26,-51.51 184.1,-40.9 196.16,-32.37"/>
<polygon fill="#63b8ff" stroke="#63b8ff" points="157.67,-57.44 152.39,-66.63 162.25,-62.74 157.67,-57.44"/>
</a>
</g>
</g>
<!-- Node1&#45;&gt;Node3 -->
<g id="edge4_Node000001_Node000003" class="edge">
<title>Node1&#45;&gt;Node3</title>
<g id="a_edge4_Node000001_Node000003"><a xlink:title=" ">
<path fill="none" stroke="#63b8ff" d="M170.55,-61.3C183.14,-52.38 197.6,-41.25 208.12,-32.37"/>
<polygon fill="#63b8ff" stroke="#63b8ff" points="168.87,-58.21 162.62,-66.77 172.84,-63.97 168.87,-58.21"/>
</a>
</g>
</g>
</g>
</svg>
