<?xml version="1.0" encoding="UTF-8" standalone="no"?>
<!DOCTYPE svg PUBLIC "-//W3C//DTD SVG 1.1//EN"
 "http://www.w3.org/Graphics/SVG/1.1/DTD/svg11.dtd">
<!-- Generated by graphviz version 9.0.0 (20230911.1827)
 -->
<!-- Title: ogxx::Dense_bit_matrix Pages: 1 -->
<svg width="352pt" height="222pt"
 viewBox="0.00 0.00 351.88 222.00" xmlns="http://www.w3.org/2000/svg" xmlns:xlink="http://www.w3.org/1999/xlink">
<g id="graph0" class="graph" transform="scale(1 1) rotate(0) translate(4 218)">
<title>ogxx::Dense_bit_matrix</title>
<!-- Node1 -->
<g id="Node000001" class="node">
<title>Node1</title>
<g id="a_Node000001"><a xlink:title=" ">
<polygon fill="#999999" stroke="#666666" points="176.5,-20 57.75,-20 57.75,0 176.5,0 176.5,-20"/>
<text text-anchor="middle" x="117.12" y="-6.5" font-family="Helvetica,sans-Serif" font-size="10.00">ogxx::Dense_bit_matrix</text>
</a>
</g>
</g>
<!-- Node2 -->
<g id="Node000002" class="node">
<title>Node2</title>
<g id="a_Node000002"><a xlink:href="../../d4/def/classogxx_1_1_bit__matrix.html" target="_top" xlink:title="Bit matrix interface. Iterating the matrix means going through all its elements in row&#45;major order.">
<polygon fill="white" stroke="#666666" points="103.75,-88 16.5,-88 16.5,-68 103.75,-68 103.75,-88"/>
<text text-anchor="middle" x="60.12" y="-74.5" font-family="Helvetica,sans-Serif" font-size="10.00">ogxx::Bit_matrix</text>
</a>
</g>
</g>
<!-- Node2&#45;&gt;Node1 -->
<g id="edge1_Node000001_Node000002" class="edge">
<title>Node2&#45;&gt;Node1</title>
<g id="a_edge1_Node000001_Node000002"><a xlink:title=" ">
<path fill="none" stroke="#63b8ff" d="M69.95,-58.52C79.53,-46.13 93.58,-30.33 104.08,-20.44"/>
<polygon fill="#63b8ff" stroke="#63b8ff" points="67.33,-56.17 64.28,-66.32 72.99,-60.29 67.33,-56.17"/>
</a>
</g>
</g>
<!-- Node2&#45;&gt;Node1 -->
<g id="edge5_Node000001_Node000002" class="edge">
<title>Node2&#45;&gt;Node1</title>
<g id="a_edge5_Node000001_Node000002"><a xlink:title=" ">
<path fill="none" stroke="#63b8ff" d="M81.17,-59.61C93.25,-47.07 107.08,-30.63 113.87,-20.44"/>
<polygon fill="#63b8ff" stroke="#63b8ff" points="78.89,-56.94 74.27,-66.48 83.82,-61.91 78.89,-56.94"/>
</a>
</g>
</g>
<!-- Node3 -->
<g id="Node000003" class="node">
<title>Node3</title>
<g id="a_Node000003"><a xlink:href="../../d0/d06/classogxx_1_1_matrix__base.html" target="_top" xlink:title="Common matrix function independent of matrix item type.">
<polygon fill="white" stroke="#666666" points="96.25,-151 0,-151 0,-131 96.25,-131 96.25,-151"/>
<text text-anchor="middle" x="48.12" y="-137.5" font-family="Helvetica,sans-Serif" font-size="10.00">ogxx::Matrix_base</text>
</a>
</g>
</g>
<!-- Node3&#45;&gt;Node2 -->
<g id="edge2_Node000002_Node000003" class="edge">
<title>Node3&#45;&gt;Node2</title>
<g id="a_edge2_Node000002_Node000003"><a xlink:title=" ">
<path fill="none" stroke="#63b8ff" d="M52.15,-119.53C54.23,-108.98 56.66,-96.62 58.29,-88.35"/>
<polygon fill="#63b8ff" stroke="#63b8ff" points="48.74,-118.76 50.24,-129.25 55.6,-120.11 48.74,-118.76"/>
</a>
</g>
</g>
<!-- Node4 -->
<g id="Node000004" class="node">
<title>Node4</title>
<g id="a_Node000004"><a xlink:href="../../d9/d72/classogxx_1_1_sized__iterable.html" target="_top" xlink:title=" ">
<polygon fill="white" stroke="#666666" points="218.38,-157 113.88,-157 113.88,-125 218.38,-125 218.38,-157"/>
<text text-anchor="start" x="121.88" y="-143.5" font-family="Helvetica,sans-Serif" font-size="10.00">ogxx::Sized_iterable</text>
<text text-anchor="middle" x="166.12" y="-131.5" font-family="Helvetica,sans-Serif" font-size="10.00">&lt; bool &gt;</text>
</a>
</g>
</g>
<!-- Node4&#45;&gt;Node2 -->
<g id="edge3_Node000002_Node000004" class="edge">
<title>Node4&#45;&gt;Node2</title>
<g id="a_edge3_Node000002_Node000004"><a xlink:title=" ">
<path fill="none" stroke="#63b8ff" d="M129.45,-118.9C111.46,-108.54 90.69,-96.59 76.61,-88.49"/>
<polygon fill="#63b8ff" stroke="#63b8ff" points="127.65,-121.9 138.06,-123.85 131.14,-115.83 127.65,-121.9"/>
</a>
</g>
</g>
<!-- Node5 -->
<g id="Node000005" class="node">
<title>Node5</title>
<g id="a_Node000005"><a xlink:href="../../d8/d9b/classogxx_1_1_iterable.html" target="_top" xlink:title="An interface for an object that can be iterated with an iterator.">
<polygon fill="white" stroke="#666666" points="221.75,-214 110.5,-214 110.5,-194 221.75,-194 221.75,-214"/>
<text text-anchor="middle" x="166.12" y="-200.5" font-family="Helvetica,sans-Serif" font-size="10.00">ogxx::Iterable&lt; Item &gt;</text>
</a>
</g>
</g>
<!-- Node5&#45;&gt;Node4 -->
<g id="edge4_Node000004_Node000005" class="edge">
<title>Node5&#45;&gt;Node4</title>
<g id="a_edge4_Node000004_Node000005"><a xlink:title=" ">
<path fill="none" stroke="#63b8ff" d="M166.12,-182.36C166.12,-174.07 166.12,-164.69 166.12,-157.06"/>
<polygon fill="#63b8ff" stroke="#63b8ff" points="162.63,-182.22 166.13,-192.22 169.63,-182.22 162.63,-182.22"/>
</a>
</g>
</g>
<!-- Node6 -->
<g id="Node000006" class="node">
<title>Node6</title>
<g id="a_Node000006"><a xlink:title=" ">
<polygon fill="white" stroke="#666666" points="224.25,-88 122,-88 122,-68 224.25,-68 224.25,-88"/>
<text text-anchor="middle" x="173.12" y="-74.5" font-family="Helvetica,sans-Serif" font-size="10.00">std::vector&lt; Word &gt;</text>
</a>
</g>
</g>
<!-- Node6&#45;&gt;Node1 -->
<g id="edge6_Node000001_Node000006" class="edge">
<title>Node6&#45;&gt;Node1</title>
<g id="a_edge6_Node000001_Node000006"><a xlink:title=" ">
<path fill="none" stroke="#9a32cd" stroke-dasharray="5,2" d="M157.75,-58.88C147.2,-46.44 133.61,-30.43 125.13,-20.44"/>
<polygon fill="#9a32cd" stroke="#9a32cd" points="154.98,-61.03 164.12,-66.39 160.32,-56.5 154.98,-61.03"/>
</a>
</g>
<text text-anchor="middle" x="176.25" y="-40.5" font-family="Helvetica,sans-Serif" font-size="10.00" fill="grey"> bit_contain</text>
</g>
<!-- Node7 -->
<g id="Node000007" class="node">
<title>Node7</title>
<g id="a_Node000007"><a xlink:href="../../d3/d28/structogxx_1_1_matrix__shape.html" target="_top" xlink:title="Matrix shape description (just two sizes).">
<polygon fill="white" stroke="#666666" points="343.88,-88 242.38,-88 242.38,-68 343.88,-68 343.88,-88"/>
<text text-anchor="middle" x="293.12" y="-74.5" font-family="Helvetica,sans-Serif" font-size="10.00">ogxx::Matrix_shape</text>
</a>
</g>
</g>
<!-- Node7&#45;&gt;Node1 -->
<g id="edge7_Node000001_Node000007" class="edge">
<title>Node7&#45;&gt;Node1</title>
<g id="a_edge7_Node000001_Node000007"><a xlink:title=" ">
<path fill="none" stroke="#9a32cd" stroke-dasharray="5,2" d="M263.49,-62.8C246.59,-54.98 224.9,-45.39 205.12,-38 187.61,-31.46 167.72,-25.26 151.29,-20.45"/>
<polygon fill="#9a32cd" stroke="#9a32cd" points="261.92,-65.93 272.46,-67.01 264.89,-59.59 261.92,-65.93"/>
</a>
</g>
<text text-anchor="middle" x="251.38" y="-40.5" font-family="Helvetica,sans-Serif" font-size="10.00" fill="grey"> _shape</text>
</g>
</g>
</svg>
