<?xml version="1.0" encoding="UTF-8" standalone="no"?>
<!DOCTYPE svg PUBLIC "-//W3C//DTD SVG 1.1//EN"
 "http://www.w3.org/Graphics/SVG/1.1/DTD/svg11.dtd">
<!-- Generated by graphviz version 9.0.0 (20230911.1827)
 -->
<!-- Title: source/graph_view_di_el.cpp Pages: 1 -->
<svg width="506pt" height="432pt"
 viewBox="0.00 0.00 506.00 432.00" xmlns="http://www.w3.org/2000/svg" xmlns:xlink="http://www.w3.org/1999/xlink">
<g id="graph0" class="graph" transform="scale(1 1) rotate(0) translate(4 428)">
<title>source/graph_view_di_el.cpp</title>
<!-- Node1 -->
<g id="Node000001" class="node">
<title>Node1</title>
<g id="a_Node000001"><a xlink:title="Graph view implementation for directed graph represented by an edge list.">
<polygon fill="#999999" stroke="#666666" points="415.75,-424 307.5,-424 307.5,-392 415.75,-392 415.75,-424"/>
<text text-anchor="start" x="315.5" y="-410.5" font-family="Helvetica,sans-Serif" font-size="10.00">source/graph_view_di</text>
<text text-anchor="middle" x="361.62" y="-398.5" font-family="Helvetica,sans-Serif" font-size="10.00">_el.cpp</text>
</a>
</g>
</g>
<!-- Node2 -->
<g id="Node000002" class="node">
<title>Node2</title>
<g id="a_Node000002"><a xlink:href="../../d7/d6c/graph__view_8hpp.html" target="_top" xlink:title="Graph view interface that may be used for graph representation coversion.">
<polygon fill="white" stroke="#666666" points="265.62,-300 159.62,-300 159.62,-280 265.62,-280 265.62,-300"/>
<text text-anchor="middle" x="212.62" y="-286.5" font-family="Helvetica,sans-Serif" font-size="10.00">ogxx/graph_view.hpp</text>
</a>
</g>
</g>
<!-- Node1&#45;&gt;Node2 -->
<g id="edge1_Node000001_Node000002" class="edge">
<title>Node1&#45;&gt;Node2</title>
<g id="a_edge1_Node000001_Node000002"><a xlink:title=" ">
<path fill="none" stroke="#63b8ff" d="M307.13,-399.08C279.2,-392.24 246.9,-379.54 226.62,-356 216.13,-343.81 212.91,-325.63 212.16,-311.6"/>
<polygon fill="#63b8ff" stroke="#63b8ff" points="215.66,-311.63 212.04,-301.68 208.66,-311.72 215.66,-311.63"/>
</a>
</g>
</g>
<!-- Node12 -->
<g id="Node000012" class="node">
<title>Node12</title>
<g id="a_Node000012"><a xlink:title=" ">
<polygon fill="#e0e0e0" stroke="#999999" points="498,-20 439.25,-20 439.25,0 498,0 498,-20"/>
<text text-anchor="middle" x="468.62" y="-6.5" font-family="Helvetica,sans-Serif" font-size="10.00">stdexcept</text>
</a>
</g>
</g>
<!-- Node1&#45;&gt;Node12 -->
<g id="edge23_Node000001_Node000012" class="edge">
<title>Node1&#45;&gt;Node12</title>
<g id="a_edge23_Node000001_Node000012"><a xlink:title=" ">
<path fill="none" stroke="#63b8ff" d="M390.86,-391.62C422.54,-372.6 468.62,-337.03 468.62,-291 468.62,-291 468.62,-291 468.62,-121 468.62,-89.87 468.62,-53.78 468.62,-31.68"/>
<polygon fill="#63b8ff" stroke="#63b8ff" points="472.13,-31.93 468.63,-21.93 465.13,-31.93 472.13,-31.93"/>
</a>
</g>
</g>
<!-- Node13 -->
<g id="Node000013" class="node">
<title>Node13</title>
<g id="a_Node000013"><a xlink:href="../../db/d3e/iterable_8hpp.html" target="_top" xlink:title="Iterable interfaces.">
<polygon fill="white" stroke="#666666" points="336.75,-188 246.5,-188 246.5,-168 336.75,-168 336.75,-188"/>
<text text-anchor="middle" x="291.62" y="-174.5" font-family="Helvetica,sans-Serif" font-size="10.00">ogxx/iterable.hpp</text>
</a>
</g>
</g>
<!-- Node1&#45;&gt;Node13 -->
<g id="edge19_Node000001_Node000013" class="edge">
<title>Node1&#45;&gt;Node13</title>
<g id="a_edge19_Node000001_Node000013"><a xlink:title=" ">
<path fill="none" stroke="#63b8ff" d="M357.78,-391.7C354.09,-377.28 348.27,-355.09 342.62,-336 327.9,-286.25 308.49,-228.34 298.39,-198.7"/>
<polygon fill="#63b8ff" stroke="#63b8ff" points="301.82,-197.91 295.27,-189.58 295.2,-200.18 301.82,-197.91"/>
</a>
</g>
</g>
<!-- Node15 -->
<g id="Node000015" class="node">
<title>Node15</title>
<g id="a_Node000015"><a xlink:href="../../d0/df1/edge__list_8hpp.html" target="_top" xlink:title="Graph edge list interface.">
<polygon fill="white" stroke="#666666" points="333.5,-356 235.75,-356 235.75,-336 333.5,-336 333.5,-356"/>
<text text-anchor="middle" x="284.62" y="-342.5" font-family="Helvetica,sans-Serif" font-size="10.00">ogxx/edge_list.hpp</text>
</a>
</g>
</g>
<!-- Node1&#45;&gt;Node15 -->
<g id="edge16_Node000001_Node000015" class="edge">
<title>Node1&#45;&gt;Node15</title>
<g id="a_edge16_Node000001_Node000015"><a xlink:title=" ">
<path fill="none" stroke="#63b8ff" d="M341.8,-391.55C330.66,-382.87 316.76,-372.04 305.46,-363.24"/>
<polygon fill="#63b8ff" stroke="#63b8ff" points="307.93,-360.72 297.89,-357.34 303.63,-366.25 307.93,-360.72"/>
</a>
</g>
</g>
<!-- Node16 -->
<g id="Node000016" class="node">
<title>Node16</title>
<g id="a_Node000016"><a xlink:href="../../d7/dbf/st__set_8hpp.html" target="_top" xlink:title="Simple type set interface. Set may be ordered or unordered.">
<polygon fill="white" stroke="#666666" points="440.5,-188 354.75,-188 354.75,-168 440.5,-168 440.5,-188"/>
<text text-anchor="middle" x="397.62" y="-174.5" font-family="Helvetica,sans-Serif" font-size="10.00">ogxx/st_set.hpp</text>
</a>
</g>
</g>
<!-- Node1&#45;&gt;Node16 -->
<g id="edge20_Node000001_Node000016" class="edge">
<title>Node1&#45;&gt;Node16</title>
<g id="a_edge20_Node000001_Node000016"><a xlink:title=" ">
<path fill="none" stroke="#63b8ff" d="M366.5,-391.51C369.51,-381.48 373.23,-368.07 375.62,-356 386.74,-299.96 393.26,-232.75 396.04,-199.59"/>
<polygon fill="#63b8ff" stroke="#63b8ff" points="399.51,-200.05 396.82,-189.8 392.53,-199.48 399.51,-200.05"/>
</a>
</g>
</g>
<!-- Node3 -->
<g id="Node000003" class="node">
<title>Node3</title>
<g id="a_Node000003"><a xlink:href="../../d4/d1a/vertex__pair_8hpp.html" target="_top" xlink:title="Vertex pair related type declarations.">
<polygon fill="white" stroke="#666666" points="265.25,-244 160,-244 160,-224 265.25,-224 265.25,-244"/>
<text text-anchor="middle" x="212.62" y="-230.5" font-family="Helvetica,sans-Serif" font-size="10.00">ogxx/vertex_pair.hpp</text>
</a>
</g>
</g>
<!-- Node2&#45;&gt;Node3 -->
<g id="edge2_Node000002_Node000003" class="edge">
<title>Node2&#45;&gt;Node3</title>
<g id="a_edge2_Node000002_Node000003"><a xlink:title=" ">
<path fill="none" stroke="#63b8ff" d="M212.62,-279.59C212.62,-273.01 212.62,-263.96 212.62,-255.73"/>
<polygon fill="#63b8ff" stroke="#63b8ff" points="216.13,-255.81 212.63,-245.81 209.13,-255.81 216.13,-255.81"/>
</a>
</g>
</g>
<!-- Node4 -->
<g id="Node000004" class="node">
<title>Node4</title>
<g id="a_Node000004"><a xlink:href="../../de/d2f/primitive__definitions_8hpp.html" target="_top" xlink:title="Primitive type declarations like scalar indices and so on.">
<polygon fill="white" stroke="#666666" points="335,-76 192.25,-76 192.25,-56 335,-56 335,-76"/>
<text text-anchor="middle" x="263.62" y="-62.5" font-family="Helvetica,sans-Serif" font-size="10.00">ogxx/primitive_definitions.hpp</text>
</a>
</g>
</g>
<!-- Node3&#45;&gt;Node4 -->
<g id="edge3_Node000003_Node000004" class="edge">
<title>Node3&#45;&gt;Node4</title>
<g id="a_edge3_Node000003_Node000004"><a xlink:title=" ">
<path fill="none" stroke="#63b8ff" d="M215.51,-223.6C223.58,-197.35 246.47,-122.84 257.52,-86.89"/>
<polygon fill="#63b8ff" stroke="#63b8ff" points="260.73,-88.33 260.32,-77.74 254.04,-86.28 260.73,-88.33"/>
</a>
</g>
</g>
<!-- Node3&#45;&gt;Node13 -->
<g id="edge12_Node000003_Node000013" class="edge">
<title>Node3&#45;&gt;Node13</title>
<g id="a_edge12_Node000003_Node000013"><a xlink:title=" ">
<path fill="none" stroke="#63b8ff" d="M226.39,-223.59C237.98,-215.67 254.82,-204.16 268.49,-194.82"/>
<polygon fill="#63b8ff" stroke="#63b8ff" points="270.23,-197.87 276.51,-189.33 266.28,-192.09 270.23,-197.87"/>
</a>
</g>
</g>
<!-- Node5 -->
<g id="Node000005" class="node">
<title>Node5</title>
<g id="a_Node000005"><a xlink:title=" ">
<polygon fill="#e0e0e0" stroke="#999999" points="421.38,-20 373.88,-20 373.88,0 421.38,0 421.38,-20"/>
<text text-anchor="middle" x="397.62" y="-6.5" font-family="Helvetica,sans-Serif" font-size="10.00">cstddef</text>
</a>
</g>
</g>
<!-- Node4&#45;&gt;Node5 -->
<g id="edge4_Node000004_Node000005" class="edge">
<title>Node4&#45;&gt;Node5</title>
<g id="a_edge4_Node000004_Node000005"><a xlink:title=" ">
<path fill="none" stroke="#63b8ff" d="M286.97,-55.59C308.16,-47.05 339.69,-34.35 363.68,-24.68"/>
<polygon fill="#63b8ff" stroke="#63b8ff" points="364.73,-28.03 372.7,-21.05 362.11,-21.54 364.73,-28.03"/>
</a>
</g>
</g>
<!-- Node6 -->
<g id="Node000006" class="node">
<title>Node6</title>
<g id="a_Node000006"><a xlink:title=" ">
<polygon fill="#e0e0e0" stroke="#999999" points="45.25,-20 0,-20 0,0 45.25,0 45.25,-20"/>
<text text-anchor="middle" x="22.62" y="-6.5" font-family="Helvetica,sans-Serif" font-size="10.00">cstdint</text>
</a>
</g>
</g>
<!-- Node4&#45;&gt;Node6 -->
<g id="edge5_Node000004_Node000006" class="edge">
<title>Node4&#45;&gt;Node6</title>
<g id="a_edge5_Node000004_Node000006"><a xlink:title=" ">
<path fill="none" stroke="#63b8ff" d="M215.7,-55.56C175.62,-47.47 116.71,-35.12 56.51,-20.35"/>
<polygon fill="#63b8ff" stroke="#63b8ff" points="57.67,-17.03 47.12,-18.02 55.99,-23.83 57.67,-17.03"/>
</a>
</g>
</g>
<!-- Node7 -->
<g id="Node000007" class="node">
<title>Node7</title>
<g id="a_Node000007"><a xlink:title=" ">
<polygon fill="#e0e0e0" stroke="#999999" points="92.03,-20 63.23,-20 63.23,0 92.03,0 92.03,-20"/>
<text text-anchor="middle" x="77.62" y="-6.5" font-family="Helvetica,sans-Serif" font-size="10.00">bit</text>
</a>
</g>
</g>
<!-- Node4&#45;&gt;Node7 -->
<g id="edge6_Node000004_Node000007" class="edge">
<title>Node4&#45;&gt;Node7</title>
<g id="a_edge6_Node000004_Node000007"><a xlink:title=" ">
<path fill="none" stroke="#63b8ff" d="M225.08,-55.56C194.18,-47.73 149.52,-35.82 102.78,-20.48"/>
<polygon fill="#63b8ff" stroke="#63b8ff" points="104.17,-17.26 93.58,-17.42 101.96,-23.9 104.17,-17.26"/>
</a>
</g>
</g>
<!-- Node8 -->
<g id="Node000008" class="node">
<title>Node8</title>
<g id="a_Node000008"><a xlink:title=" ">
<polygon fill="#e0e0e0" stroke="#999999" points="149.25,-20 110,-20 110,0 149.25,0 149.25,-20"/>
<text text-anchor="middle" x="129.62" y="-6.5" font-family="Helvetica,sans-Serif" font-size="10.00">limits</text>
</a>
</g>
</g>
<!-- Node4&#45;&gt;Node8 -->
<g id="edge7_Node000004_Node000008" class="edge">
<title>Node4&#45;&gt;Node8</title>
<g id="a_edge7_Node000004_Node000008"><a xlink:title=" ">
<path fill="none" stroke="#63b8ff" d="M240.28,-55.59C218.05,-46.63 184.44,-33.09 160.1,-23.28"/>
<polygon fill="#63b8ff" stroke="#63b8ff" points="161.63,-20.12 151.04,-19.63 159.01,-26.62 161.63,-20.12"/>
</a>
</g>
</g>
<!-- Node9 -->
<g id="Node000009" class="node">
<title>Node9</title>
<g id="a_Node000009"><a xlink:title=" ">
<polygon fill="#e0e0e0" stroke="#999999" points="229.5,-20 167.75,-20 167.75,0 229.5,0 229.5,-20"/>
<text text-anchor="middle" x="198.62" y="-6.5" font-family="Helvetica,sans-Serif" font-size="10.00">type_traits</text>
</a>
</g>
</g>
<!-- Node4&#45;&gt;Node9 -->
<g id="edge8_Node000004_Node000009" class="edge">
<title>Node4&#45;&gt;Node9</title>
<g id="a_edge8_Node000004_Node000009"><a xlink:title=" ">
<path fill="none" stroke="#63b8ff" d="M252.3,-55.59C242.98,-47.85 229.55,-36.69 218.45,-27.47"/>
<polygon fill="#63b8ff" stroke="#63b8ff" points="220.91,-24.96 210.98,-21.27 216.44,-30.35 220.91,-24.96"/>
</a>
</g>
</g>
<!-- Node10 -->
<g id="Node000010" class="node">
<title>Node10</title>
<g id="a_Node000010"><a xlink:title=" ">
<polygon fill="#e0e0e0" stroke="#999999" points="299.25,-20 248,-20 248,0 299.25,0 299.25,-20"/>
<text text-anchor="middle" x="273.62" y="-6.5" font-family="Helvetica,sans-Serif" font-size="10.00">memory</text>
</a>
</g>
</g>
<!-- Node4&#45;&gt;Node10 -->
<g id="edge9_Node000004_Node000010" class="edge">
<title>Node4&#45;&gt;Node10</title>
<g id="a_edge9_Node000004_Node000010"><a xlink:title=" ">
<path fill="none" stroke="#63b8ff" d="M265.37,-55.59C266.6,-48.93 268.3,-39.75 269.84,-31.44"/>
<polygon fill="#63b8ff" stroke="#63b8ff" points="273.25,-32.26 271.63,-21.79 266.37,-30.98 273.25,-32.26"/>
</a>
</g>
</g>
<!-- Node11 -->
<g id="Node000011" class="node">
<title>Node11</title>
<g id="a_Node000011"><a xlink:title=" ">
<polygon fill="#e0e0e0" stroke="#999999" points="356.25,-20 317,-20 317,0 356.25,0 356.25,-20"/>
<text text-anchor="middle" x="336.62" y="-6.5" font-family="Helvetica,sans-Serif" font-size="10.00">utility</text>
</a>
</g>
</g>
<!-- Node4&#45;&gt;Node11 -->
<g id="edge10_Node000004_Node000011" class="edge">
<title>Node4&#45;&gt;Node11</title>
<g id="a_edge10_Node000004_Node000011"><a xlink:title=" ">
<path fill="none" stroke="#63b8ff" d="M276.34,-55.59C287.02,-47.7 302.5,-36.24 315.11,-26.92"/>
<polygon fill="#63b8ff" stroke="#63b8ff" points="316.88,-29.96 322.84,-21.2 312.72,-24.33 316.88,-29.96"/>
</a>
</g>
</g>
<!-- Node4&#45;&gt;Node12 -->
<g id="edge11_Node000004_Node000012" class="edge">
<title>Node4&#45;&gt;Node12</title>
<g id="a_edge11_Node000004_Node000012"><a xlink:title=" ">
<path fill="none" stroke="#63b8ff" d="M299.33,-55.59C335.2,-46.15 390.39,-31.61 427.93,-21.72"/>
<polygon fill="#63b8ff" stroke="#63b8ff" points="428.73,-25.13 437.51,-19.2 426.95,-18.36 428.73,-25.13"/>
</a>
</g>
</g>
<!-- Node13&#45;&gt;Node4 -->
<g id="edge13_Node000013_Node000004" class="edge">
<title>Node13&#45;&gt;Node4</title>
<g id="a_edge13_Node000013_Node000004"><a xlink:title=" ">
<path fill="none" stroke="#63b8ff" d="M286.8,-167.6C282.42,-158.68 276.14,-144.76 272.62,-132 268.63,-117.5 266.37,-100.67 265.11,-87.77"/>
<polygon fill="#63b8ff" stroke="#63b8ff" points="268.6,-87.59 264.28,-77.92 261.63,-88.18 268.6,-87.59"/>
</a>
</g>
</g>
<!-- Node14 -->
<g id="Node000014" class="node">
<title>Node14</title>
<g id="a_Node000014"><a xlink:href="../../d9/dde/iterator_8hpp.html" target="_top" xlink:title="Linear sequence iterator interfaces.">
<polygon fill="white" stroke="#666666" points="370,-132 281.25,-132 281.25,-112 370,-112 370,-132"/>
<text text-anchor="middle" x="325.62" y="-118.5" font-family="Helvetica,sans-Serif" font-size="10.00">ogxx/iterator.hpp</text>
</a>
</g>
</g>
<!-- Node13&#45;&gt;Node14 -->
<g id="edge14_Node000013_Node000014" class="edge">
<title>Node13&#45;&gt;Node14</title>
<g id="a_edge14_Node000013_Node000014"><a xlink:title=" ">
<path fill="none" stroke="#63b8ff" d="M297.55,-167.59C301.98,-160.55 308.2,-150.67 313.66,-142"/>
<polygon fill="#63b8ff" stroke="#63b8ff" points="316.6,-143.91 318.96,-133.58 310.67,-140.18 316.6,-143.91"/>
</a>
</g>
</g>
<!-- Node14&#45;&gt;Node4 -->
<g id="edge15_Node000014_Node000004" class="edge">
<title>Node14&#45;&gt;Node4</title>
<g id="a_edge15_Node000014_Node000004"><a xlink:title=" ">
<path fill="none" stroke="#63b8ff" d="M314.83,-111.59C306.02,-103.93 293.37,-92.91 282.85,-83.75"/>
<polygon fill="#63b8ff" stroke="#63b8ff" points="285.28,-81.22 275.44,-77.29 280.68,-86.5 285.28,-81.22"/>
</a>
</g>
</g>
<!-- Node15&#45;&gt;Node2 -->
<g id="edge18_Node000015_Node000002" class="edge">
<title>Node15&#45;&gt;Node2</title>
<g id="a_edge18_Node000015_Node000002"><a xlink:title=" ">
<path fill="none" stroke="#63b8ff" d="M272.08,-335.59C261.66,-327.77 246.58,-316.46 234.21,-307.19"/>
<polygon fill="#63b8ff" stroke="#63b8ff" points="236.33,-304.41 226.23,-301.21 232.13,-310.01 236.33,-304.41"/>
</a>
</g>
</g>
<!-- Node15&#45;&gt;Node13 -->
<g id="edge17_Node000015_Node000013" class="edge">
<title>Node15&#45;&gt;Node13</title>
<g id="a_edge17_Node000015_Node000013"><a xlink:title=" ">
<path fill="none" stroke="#63b8ff" d="M285.02,-335.6C286.12,-309.46 289.24,-235.48 290.77,-199.36"/>
<polygon fill="#63b8ff" stroke="#63b8ff" points="294.24,-199.95 291.17,-189.81 287.25,-199.65 294.24,-199.95"/>
</a>
</g>
</g>
<!-- Node16&#45;&gt;Node4 -->
<g id="edge21_Node000016_Node000004" class="edge">
<title>Node16&#45;&gt;Node4</title>
<g id="a_edge21_Node000016_Node000004"><a xlink:title=" ">
<path fill="none" stroke="#63b8ff" d="M397.4,-167.8C396.58,-153.98 393.07,-127.79 378.62,-112 364.71,-96.79 345.02,-86.66 325.86,-79.93"/>
<polygon fill="#63b8ff" stroke="#63b8ff" points="327.03,-76.63 316.44,-76.91 324.89,-83.3 327.03,-76.63"/>
</a>
</g>
</g>
<!-- Node16&#45;&gt;Node14 -->
<g id="edge22_Node000016_Node000014" class="edge">
<title>Node16&#45;&gt;Node14</title>
<g id="a_edge22_Node000016_Node000014"><a xlink:title=" ">
<path fill="none" stroke="#63b8ff" d="M385.08,-167.59C374.66,-159.77 359.58,-148.46 347.21,-139.19"/>
<polygon fill="#63b8ff" stroke="#63b8ff" points="349.33,-136.41 339.23,-133.21 345.13,-142.01 349.33,-136.41"/>
</a>
</g>
</g>
</g>
</svg>
