<?xml version="1.0" encoding="UTF-8" standalone="no"?>
<!DOCTYPE svg PUBLIC "-//W3C//DTD SVG 1.1//EN"
 "http://www.w3.org/Graphics/SVG/1.1/DTD/svg11.dtd">
<!-- Generated by graphviz version 9.0.0 (20230911.1827)
 -->
<!-- Title: ogxx::Dense_bit_iterator Pages: 1 -->
<svg width="130pt" height="84pt"
 viewBox="0.00 0.00 129.75 84.00" xmlns="http://www.w3.org/2000/svg" xmlns:xlink="http://www.w3.org/1999/xlink">
<g id="graph0" class="graph" transform="scale(1 1) rotate(0) translate(4 80)">
<title>ogxx::Dense_bit_iterator</title>
<!-- Node1 -->
<g id="Node000001" class="node">
<title>Node1</title>
<g id="a_Node000001"><a xlink:title=" ">
<polygon fill="#999999" stroke="#666666" points="121.75,-20 0,-20 0,0 121.75,0 121.75,-20"/>
<text text-anchor="middle" x="60.88" y="-6.5" font-family="Helvetica,sans-Serif" font-size="10.00">ogxx::Dense_bit_iterator</text>
</a>
</g>
</g>
<!-- Node2 -->
<g id="Node000002" class="node">
<title>Node2</title>
<g id="a_Node000002"><a xlink:href="../../dc/d8e/classogxx_1_1_basic__iterator.html" target="_top" xlink:title="Generic iterator for traversing a sequence of items of a small easily&#45;copyable or movable type.">
<polygon fill="white" stroke="#666666" points="92.5,-76 29.25,-76 29.25,-56 92.5,-56 92.5,-76"/>
<text text-anchor="middle" x="60.88" y="-62.5" font-family="Helvetica,sans-Serif" font-size="10.00">Bit_iterator</text>
</a>
</g>
</g>
<!-- Node2&#45;&gt;Node1 -->
<g id="edge1_Node000001_Node000002" class="edge">
<title>Node2&#45;&gt;Node1</title>
<g id="a_edge1_Node000001_Node000002"><a xlink:title=" ">
<path fill="none" stroke="#63b8ff" d="M54.3,-44.43C53.84,-36.11 54.29,-26.93 55.63,-20.3"/>
<polygon fill="#63b8ff" stroke="#63b8ff" points="50.79,-44.57 55.43,-54.09 57.74,-43.75 50.79,-44.57"/>
</a>
</g>
</g>
<!-- Node2&#45;&gt;Node1 -->
<g id="edge2_Node000001_Node000002" class="edge">
<title>Node2&#45;&gt;Node1</title>
<g id="a_edge2_Node000001_Node000002"><a xlink:title=" ">
<path fill="none" stroke="#63b8ff" d="M67.45,-44.43C67.91,-36.11 67.46,-26.93 66.12,-20.3"/>
<polygon fill="#63b8ff" stroke="#63b8ff" points="64.01,-43.75 66.32,-54.09 70.96,-44.57 64.01,-43.75"/>
</a>
</g>
</g>
</g>
</svg>
