<?xml version="1.0" encoding="UTF-8" standalone="no"?>
<!DOCTYPE svg PUBLIC "-//W3C//DTD SVG 1.1//EN"
 "http://www.w3.org/Graphics/SVG/1.1/DTD/svg11.dtd">
<!-- Generated by graphviz version 9.0.0 (20230911.1827)
 -->
<!-- Title: ogxx::io::St_matrix_format Pages: 1 -->
<svg width="119pt" height="213pt"
 viewBox="0.00 0.00 119.25 213.00" xmlns="http://www.w3.org/2000/svg" xmlns:xlink="http://www.w3.org/1999/xlink">
<g id="graph0" class="graph" transform="scale(1 1) rotate(0) translate(4 209)">
<title>ogxx::io::St_matrix_format</title>
<!-- Node1 -->
<g id="Node000001" class="node">
<title>Node1</title>
<g id="a_Node000001"><a xlink:title="Description of St_matrix IO format.">
<polygon fill="#999999" stroke="#666666" points="104.88,-32 6.37,-32 6.37,0 104.88,0 104.88,-32"/>
<text text-anchor="start" x="14.38" y="-18.5" font-family="Helvetica,sans-Serif" font-size="10.00">ogxx::io::St_matrix</text>
<text text-anchor="middle" x="55.62" y="-6.5" font-family="Helvetica,sans-Serif" font-size="10.00">_format</text>
</a>
</g>
</g>
<!-- Node2 -->
<g id="Node000002" class="node">
<title>Node2</title>
<g id="a_Node000002"><a xlink:title=" ">
<polygon fill="white" stroke="#666666" points="97,-136 14.25,-136 14.25,-116 97,-116 97,-136"/>
<text text-anchor="middle" x="55.62" y="-122.5" font-family="Helvetica,sans-Serif" font-size="10.00">std::string_view</text>
</a>
</g>
</g>
<!-- Node2&#45;&gt;Node1 -->
<g id="edge1_Node000001_Node000002" class="edge">
<title>Node2&#45;&gt;Node1</title>
<g id="a_edge1_Node000001_Node000002"><a xlink:title=" ">
<path fill="none" stroke="#9a32cd" stroke-dasharray="5,2" d="M55.62,-104.35C55.62,-83.32 55.62,-51.21 55.62,-32.34"/>
<polygon fill="#9a32cd" stroke="#9a32cd" points="52.13,-104.28 55.63,-114.28 59.13,-104.28 52.13,-104.28"/>
</a>
</g>
<text text-anchor="middle" x="83.38" y="-88.5" font-family="Helvetica,sans-Serif" font-size="10.00" fill="grey"> column_sep</text>
<text text-anchor="middle" x="83.38" y="-76.5" font-family="Helvetica,sans-Serif" font-size="10.00" fill="grey">matrix_close</text>
<text text-anchor="middle" x="83.38" y="-64.5" font-family="Helvetica,sans-Serif" font-size="10.00" fill="grey">matrix_open</text>
<text text-anchor="middle" x="83.38" y="-52.5" font-family="Helvetica,sans-Serif" font-size="10.00" fill="grey">row_sep</text>
</g>
<!-- Node3 -->
<g id="Node000003" class="node">
<title>Node3</title>
<g id="a_Node000003"><a xlink:title=" ">
<polygon fill="white" stroke="#666666" points="111.25,-205 0,-205 0,-173 111.25,-173 111.25,-205"/>
<text text-anchor="start" x="8" y="-191.5" font-family="Helvetica,sans-Serif" font-size="10.00">std::basic_string_view</text>
<text text-anchor="middle" x="55.62" y="-179.5" font-family="Helvetica,sans-Serif" font-size="10.00">&lt; Char &gt;</text>
</a>
</g>
</g>
<!-- Node3&#45;&gt;Node2 -->
<g id="edge2_Node000002_Node000003" class="edge">
<title>Node3&#45;&gt;Node2</title>
<g id="a_edge2_Node000002_Node000003"><a xlink:title=" ">
<path fill="none" stroke="#63b8ff" d="M55.62,-161.36C55.62,-152.41 55.62,-143.01 55.62,-136.31"/>
<polygon fill="#63b8ff" stroke="#63b8ff" points="52.13,-161.09 55.63,-171.09 59.13,-161.09 52.13,-161.09"/>
</a>
</g>
</g>
</g>
</svg>
