<?xml version="1.0" encoding="UTF-8" standalone="no"?>
<!DOCTYPE svg PUBLIC "-//W3C//DTD SVG 1.1//EN"
 "http://www.w3.org/Graphics/SVG/1.1/DTD/svg11.dtd">
<!-- Generated by graphviz version 9.0.0 (20230911.1827)
 -->
<!-- Title: ogxx::io::Edge_list_format Pages: 1 -->
<svg width="119pt" height="225pt"
 viewBox="0.00 0.00 119.25 225.00" xmlns="http://www.w3.org/2000/svg" xmlns:xlink="http://www.w3.org/1999/xlink">
<g id="graph0" class="graph" transform="scale(1 1) rotate(0) translate(4 221)">
<title>ogxx::io::Edge_list_format</title>
<!-- Node1 -->
<g id="Node000001" class="node">
<title>Node1</title>
<g id="a_Node000001"><a xlink:title="Description of Edge_list IO format.">
<polygon fill="#999999" stroke="#666666" points="104.12,-32 7.12,-32 7.12,0 104.12,0 104.12,-32"/>
<text text-anchor="start" x="15.12" y="-18.5" font-family="Helvetica,sans-Serif" font-size="10.00">ogxx::io::Edge_list</text>
<text text-anchor="middle" x="55.62" y="-6.5" font-family="Helvetica,sans-Serif" font-size="10.00">_format</text>
</a>
</g>
</g>
<!-- Node2 -->
<g id="Node000002" class="node">
<title>Node2</title>
<g id="a_Node000002"><a xlink:title=" ">
<polygon fill="white" stroke="#666666" points="97,-148 14.25,-148 14.25,-128 97,-128 97,-148"/>
<text text-anchor="middle" x="55.62" y="-134.5" font-family="Helvetica,sans-Serif" font-size="10.00">std::string_view</text>
</a>
</g>
</g>
<!-- Node2&#45;&gt;Node1 -->
<g id="edge1_Node000001_Node000002" class="edge">
<title>Node2&#45;&gt;Node1</title>
<g id="a_edge1_Node000001_Node000002"><a xlink:title=" ">
<path fill="none" stroke="#9a32cd" stroke-dasharray="5,2" d="M55.62,-116.32C55.62,-92.41 55.62,-53.6 55.62,-32.27"/>
<polygon fill="#9a32cd" stroke="#9a32cd" points="52.13,-116.07 55.63,-126.07 59.13,-116.07 52.13,-116.07"/>
</a>
</g>
<text text-anchor="middle" x="77.75" y="-100.5" font-family="Helvetica,sans-Serif" font-size="10.00" fill="grey"> list_close</text>
<text text-anchor="middle" x="77.75" y="-88.5" font-family="Helvetica,sans-Serif" font-size="10.00" fill="grey">list_open</text>
<text text-anchor="middle" x="77.75" y="-76.5" font-family="Helvetica,sans-Serif" font-size="10.00" fill="grey">pair_close</text>
<text text-anchor="middle" x="77.75" y="-64.5" font-family="Helvetica,sans-Serif" font-size="10.00" fill="grey">pair_open</text>
<text text-anchor="middle" x="77.75" y="-52.5" font-family="Helvetica,sans-Serif" font-size="10.00" fill="grey">pair_sep</text>
</g>
<!-- Node3 -->
<g id="Node000003" class="node">
<title>Node3</title>
<g id="a_Node000003"><a xlink:title=" ">
<polygon fill="white" stroke="#666666" points="111.25,-217 0,-217 0,-185 111.25,-185 111.25,-217"/>
<text text-anchor="start" x="8" y="-203.5" font-family="Helvetica,sans-Serif" font-size="10.00">std::basic_string_view</text>
<text text-anchor="middle" x="55.62" y="-191.5" font-family="Helvetica,sans-Serif" font-size="10.00">&lt; Char &gt;</text>
</a>
</g>
</g>
<!-- Node3&#45;&gt;Node2 -->
<g id="edge2_Node000002_Node000003" class="edge">
<title>Node3&#45;&gt;Node2</title>
<g id="a_edge2_Node000002_Node000003"><a xlink:title=" ">
<path fill="none" stroke="#63b8ff" d="M55.62,-173.36C55.62,-164.41 55.62,-155.01 55.62,-148.31"/>
<polygon fill="#63b8ff" stroke="#63b8ff" points="52.13,-173.09 55.63,-183.09 59.13,-173.09 52.13,-173.09"/>
</a>
</g>
</g>
</g>
</svg>
