<?xml version="1.0" encoding="UTF-8" standalone="no"?>
<!DOCTYPE svg PUBLIC "-//W3C//DTD SVG 1.1//EN"
 "http://www.w3.org/Graphics/SVG/1.1/DTD/svg11.dtd">
<!-- Generated by graphviz version 9.0.0 (20230911.1827)
 -->
<!-- Title: ogxx::io::Bit_matrix_format Pages: 1 -->
<svg width="122pt" height="189pt"
 viewBox="0.00 0.00 122.12 189.00" xmlns="http://www.w3.org/2000/svg" xmlns:xlink="http://www.w3.org/1999/xlink">
<g id="graph0" class="graph" transform="scale(1 1) rotate(0) translate(4 185)">
<title>ogxx::io::Bit_matrix_format</title>
<!-- Node1 -->
<g id="Node000001" class="node">
<title>Node1</title>
<g id="a_Node000001"><a xlink:title="Description of Bit_matrix IO format.">
<polygon fill="#999999" stroke="#666666" points="106,-32 5.25,-32 5.25,0 106,0 106,-32"/>
<text text-anchor="start" x="13.25" y="-18.5" font-family="Helvetica,sans-Serif" font-size="10.00">ogxx::io::Bit_matrix</text>
<text text-anchor="middle" x="55.62" y="-6.5" font-family="Helvetica,sans-Serif" font-size="10.00">_format</text>
</a>
</g>
</g>
<!-- Node2 -->
<g id="Node000002" class="node">
<title>Node2</title>
<g id="a_Node000002"><a xlink:title=" ">
<polygon fill="white" stroke="#666666" points="97,-112 14.25,-112 14.25,-92 97,-92 97,-112"/>
<text text-anchor="middle" x="55.62" y="-98.5" font-family="Helvetica,sans-Serif" font-size="10.00">std::string_view</text>
</a>
</g>
</g>
<!-- Node2&#45;&gt;Node1 -->
<g id="edge1_Node000001_Node000002" class="edge">
<title>Node2&#45;&gt;Node1</title>
<g id="a_edge1_Node000001_Node000002"><a xlink:title=" ">
<path fill="none" stroke="#9a32cd" stroke-dasharray="5,2" d="M55.62,-80.61C55.62,-65.72 55.62,-45.86 55.62,-32.32"/>
<polygon fill="#9a32cd" stroke="#9a32cd" points="52.13,-80.18 55.63,-90.18 59.13,-80.18 52.13,-80.18"/>
</a>
</g>
<text text-anchor="middle" x="84.88" y="-64.5" font-family="Helvetica,sans-Serif" font-size="10.00" fill="grey"> matrix_close</text>
<text text-anchor="middle" x="84.88" y="-52.5" font-family="Helvetica,sans-Serif" font-size="10.00" fill="grey">matrix_open</text>
</g>
<!-- Node3 -->
<g id="Node000003" class="node">
<title>Node3</title>
<g id="a_Node000003"><a xlink:title=" ">
<polygon fill="white" stroke="#666666" points="111.25,-181 0,-181 0,-149 111.25,-149 111.25,-181"/>
<text text-anchor="start" x="8" y="-167.5" font-family="Helvetica,sans-Serif" font-size="10.00">std::basic_string_view</text>
<text text-anchor="middle" x="55.62" y="-155.5" font-family="Helvetica,sans-Serif" font-size="10.00">&lt; Char &gt;</text>
</a>
</g>
</g>
<!-- Node3&#45;&gt;Node2 -->
<g id="edge2_Node000002_Node000003" class="edge">
<title>Node3&#45;&gt;Node2</title>
<g id="a_edge2_Node000002_Node000003"><a xlink:title=" ">
<path fill="none" stroke="#63b8ff" d="M55.62,-137.36C55.62,-128.41 55.62,-119.01 55.62,-112.31"/>
<polygon fill="#63b8ff" stroke="#63b8ff" points="52.13,-137.09 55.63,-147.09 59.13,-137.09 52.13,-137.09"/>
</a>
</g>
</g>
</g>
</svg>
