<?xml version="1.0" encoding="UTF-8" standalone="no"?>
<!DOCTYPE svg PUBLIC "-//W3C//DTD SVG 1.1//EN"
 "http://www.w3.org/Graphics/SVG/1.1/DTD/svg11.dtd">
<!-- Generated by graphviz version 9.0.0 (20230911.1827)
 -->
<!-- Title: include/ogxx/io_head.hpp Pages: 1 -->
<svg width="140pt" height="84pt"
 viewBox="0.00 0.00 140.25 84.00" xmlns="http://www.w3.org/2000/svg" xmlns:xlink="http://www.w3.org/1999/xlink">
<g id="graph0" class="graph" transform="scale(1 1) rotate(0) translate(4 80)">
<title>include/ogxx/io_head.hpp</title>
<!-- Node1 -->
<g id="Node000001" class="node">
<title>Node1</title>
<g id="a_Node000001"><a xlink:title="Shared things for *_io.hpp files.">
<polygon fill="#999999" stroke="#666666" points="131.75,-76 5.5,-76 5.5,-56 131.75,-56 131.75,-76"/>
<text text-anchor="middle" x="68.62" y="-62.5" font-family="Helvetica,sans-Serif" font-size="10.00">include/ogxx/io_head.hpp</text>
</a>
</g>
</g>
<!-- Node2 -->
<g id="Node000002" class="node">
<title>Node2</title>
<g id="a_Node000002"><a xlink:title=" ">
<polygon fill="#e0e0e0" stroke="#999999" points="63.25,-20 0,-20 0,0 63.25,0 63.25,-20"/>
<text text-anchor="middle" x="31.62" y="-6.5" font-family="Helvetica,sans-Serif" font-size="10.00">string_view</text>
</a>
</g>
</g>
<!-- Node1&#45;&gt;Node2 -->
<g id="edge1_Node000001_Node000002" class="edge">
<title>Node1&#45;&gt;Node2</title>
<g id="a_edge1_Node000001_Node000002"><a xlink:title=" ">
<path fill="none" stroke="#63b8ff" d="M62.18,-55.59C57.3,-48.47 50.43,-38.45 44.45,-29.72"/>
<polygon fill="#63b8ff" stroke="#63b8ff" points="47.39,-27.82 38.85,-21.55 41.62,-31.77 47.39,-27.82"/>
</a>
</g>
</g>
<!-- Node3 -->
<g id="Node000003" class="node">
<title>Node3</title>
<g id="a_Node000003"><a xlink:title=" ">
<polygon fill="#e0e0e0" stroke="#999999" points="132.25,-20 81,-20 81,0 132.25,0 132.25,-20"/>
<text text-anchor="middle" x="106.62" y="-6.5" font-family="Helvetica,sans-Serif" font-size="10.00">ostream</text>
</a>
</g>
</g>
<!-- Node1&#45;&gt;Node3 -->
<g id="edge2_Node000001_Node000003" class="edge">
<title>Node1&#45;&gt;Node3</title>
<g id="a_edge2_Node000001_Node000003"><a xlink:title=" ">
<path fill="none" stroke="#63b8ff" d="M75.24,-55.59C80.31,-48.39 87.46,-38.23 93.65,-29.43"/>
<polygon fill="#63b8ff" stroke="#63b8ff" points="96.32,-31.73 99.21,-21.54 90.59,-27.7 96.32,-31.73"/>
</a>
</g>
</g>
</g>
</svg>
