<?xml version="1.0" encoding="UTF-8" standalone="no"?>
<!DOCTYPE svg PUBLIC "-//W3C//DTD SVG 1.1//EN"
 "http://www.w3.org/Graphics/SVG/1.1/DTD/svg11.dtd">
<!-- Generated by graphviz version 9.0.0 (20230911.1827)
 -->
<!-- Title: source/dense_bit_matrix.cpp Pages: 1 -->
<svg width="506pt" height="420pt"
 viewBox="0.00 0.00 506.12 420.00" xmlns="http://www.w3.org/2000/svg" xmlns:xlink="http://www.w3.org/1999/xlink">
<g id="graph0" class="graph" transform="scale(1 1) rotate(0) translate(4 416)">
<title>source/dense_bit_matrix.cpp</title>
<!-- Node1 -->
<g id="Node000001" class="node">
<title>Node1</title>
<g id="a_Node000001"><a xlink:title=" ">
<polygon fill="#999999" stroke="#666666" points="424.38,-412 283.12,-412 283.12,-392 424.38,-392 424.38,-412"/>
<text text-anchor="middle" x="353.75" y="-398.5" font-family="Helvetica,sans-Serif" font-size="10.00">source/dense_bit_matrix.cpp</text>
</a>
</g>
</g>
<!-- Node2 -->
<g id="Node000002" class="node">
<title>Node2</title>
<g id="a_Node000002"><a xlink:href="../../dc/dbd/bit__matrix_8hpp.html" target="_top" xlink:title="Bit_matrix interface.">
<polygon fill="white" stroke="#666666" points="238.5,-356 137,-356 137,-336 238.5,-336 238.5,-356"/>
<text text-anchor="middle" x="187.75" y="-342.5" font-family="Helvetica,sans-Serif" font-size="10.00">ogxx/bit_matrix.hpp</text>
</a>
</g>
</g>
<!-- Node1&#45;&gt;Node2 -->
<g id="edge1_Node000001_Node000002" class="edge">
<title>Node1&#45;&gt;Node2</title>
<g id="a_edge1_Node000001_Node000002"><a xlink:title=" ">
<path fill="none" stroke="#63b8ff" d="M324.84,-391.59C297.98,-382.86 257.75,-369.77 227.81,-360.03"/>
<polygon fill="#63b8ff" stroke="#63b8ff" points="228.92,-356.71 218.33,-356.95 226.76,-363.37 228.92,-356.71"/>
</a>
</g>
</g>
<!-- Node18 -->
<g id="Node000018" class="node">
<title>Node18</title>
<g id="a_Node000018"><a xlink:href="../../d4/d29/stl__iterator_8hpp.html" target="_top" xlink:title="This file defines the Stl_iterator class, which provides an iterator for standard C++ containers.">
<polygon fill="white" stroke="#666666" points="361,-356 256.5,-356 256.5,-336 361,-336 361,-356"/>
<text text-anchor="middle" x="308.75" y="-342.5" font-family="Helvetica,sans-Serif" font-size="10.00">ogxx/stl_iterator.hpp</text>
</a>
</g>
</g>
<!-- Node1&#45;&gt;Node18 -->
<g id="edge21_Node000001_Node000018" class="edge">
<title>Node1&#45;&gt;Node18</title>
<g id="a_edge21_Node000001_Node000018"><a xlink:title=" ">
<path fill="none" stroke="#63b8ff" d="M345.91,-391.59C339.78,-384.24 331.08,-373.8 323.64,-364.87"/>
<polygon fill="#63b8ff" stroke="#63b8ff" points="326.56,-362.9 317.47,-357.46 321.18,-367.38 326.56,-362.9"/>
</a>
</g>
</g>
<!-- Node20 -->
<g id="Node000020" class="node">
<title>Node20</title>
<g id="a_Node000020"><a xlink:title=" ">
<polygon fill="#e0e0e0" stroke="#999999" points="420.5,-356 379,-356 379,-336 420.5,-336 420.5,-356"/>
<text text-anchor="middle" x="399.75" y="-342.5" font-family="Helvetica,sans-Serif" font-size="10.00">vector</text>
</a>
</g>
</g>
<!-- Node1&#45;&gt;Node20 -->
<g id="edge24_Node000001_Node000020" class="edge">
<title>Node1&#45;&gt;Node20</title>
<g id="a_edge24_Node000001_Node000020"><a xlink:title=" ">
<path fill="none" stroke="#63b8ff" d="M361.76,-391.59C368.03,-384.24 376.92,-373.8 384.53,-364.87"/>
<polygon fill="#63b8ff" stroke="#63b8ff" points="387.03,-367.33 390.85,-357.45 381.7,-362.79 387.03,-367.33"/>
</a>
</g>
</g>
<!-- Node21 -->
<g id="Node000021" class="node">
<title>Node21</title>
<g id="a_Node000021"><a xlink:title=" ">
<polygon fill="#e0e0e0" stroke="#999999" points="483,-356 438.5,-356 438.5,-336 483,-336 483,-356"/>
<text text-anchor="middle" x="460.75" y="-342.5" font-family="Helvetica,sans-Serif" font-size="10.00">climits</text>
</a>
</g>
</g>
<!-- Node1&#45;&gt;Node21 -->
<g id="edge25_Node000001_Node000021" class="edge">
<title>Node1&#45;&gt;Node21</title>
<g id="a_edge25_Node000001_Node000021"><a xlink:title=" ">
<path fill="none" stroke="#63b8ff" d="M372.39,-391.59C388.78,-383.32 412.91,-371.14 431.81,-361.6"/>
<polygon fill="#63b8ff" stroke="#63b8ff" points="433.26,-364.79 440.62,-357.16 430.11,-358.54 433.26,-364.79"/>
</a>
</g>
</g>
<!-- Node3 -->
<g id="Node000003" class="node">
<title>Node3</title>
<g id="a_Node000003"><a xlink:href="../../df/dce/matrix_8hpp.html" target="_top" xlink:title="Abstract matrix interface.">
<polygon fill="white" stroke="#666666" points="396.62,-188 310.88,-188 310.88,-168 396.62,-168 396.62,-188"/>
<text text-anchor="middle" x="353.75" y="-174.5" font-family="Helvetica,sans-Serif" font-size="10.00">ogxx/matrix.hpp</text>
</a>
</g>
</g>
<!-- Node2&#45;&gt;Node3 -->
<g id="edge2_Node000002_Node000003" class="edge">
<title>Node2&#45;&gt;Node3</title>
<g id="a_edge2_Node000002_Node000003"><a xlink:title=" ">
<path fill="none" stroke="#63b8ff" d="M197.15,-335.6C224.09,-308.66 301.83,-230.92 336.6,-196.15"/>
<polygon fill="#63b8ff" stroke="#63b8ff" points="338.79,-198.91 343.38,-189.37 333.84,-193.96 338.79,-198.91"/>
</a>
</g>
</g>
<!-- Node15 -->
<g id="Node000015" class="node">
<title>Node15</title>
<g id="a_Node000015"><a xlink:href="../../d7/d6c/graph__view_8hpp.html" target="_top" xlink:title="Graph view interface that may be used for graph representation coversion.">
<polygon fill="white" stroke="#666666" points="216.75,-300 110.75,-300 110.75,-280 216.75,-280 216.75,-300"/>
<text text-anchor="middle" x="163.75" y="-286.5" font-family="Helvetica,sans-Serif" font-size="10.00">ogxx/graph_view.hpp</text>
</a>
</g>
</g>
<!-- Node2&#45;&gt;Node15 -->
<g id="edge15_Node000002_Node000015" class="edge">
<title>Node2&#45;&gt;Node15</title>
<g id="a_edge15_Node000002_Node000015"><a xlink:title=" ">
<path fill="none" stroke="#63b8ff" d="M183.57,-335.59C180.51,-328.7 176.24,-319.1 172.45,-310.57"/>
<polygon fill="#63b8ff" stroke="#63b8ff" points="175.76,-309.4 168.5,-301.68 169.36,-312.24 175.76,-309.4"/>
</a>
</g>
</g>
<!-- Node4 -->
<g id="Node000004" class="node">
<title>Node4</title>
<g id="a_Node000004"><a xlink:href="../../de/d2f/primitive__definitions_8hpp.html" target="_top" xlink:title="Primitive type declarations like scalar indices and so on.">
<polygon fill="white" stroke="#666666" points="300.12,-76 157.38,-76 157.38,-56 300.12,-56 300.12,-76"/>
<text text-anchor="middle" x="228.75" y="-62.5" font-family="Helvetica,sans-Serif" font-size="10.00">ogxx/primitive_definitions.hpp</text>
</a>
</g>
</g>
<!-- Node3&#45;&gt;Node4 -->
<g id="edge3_Node000003_Node000004" class="edge">
<title>Node3&#45;&gt;Node4</title>
<g id="a_edge3_Node000003_Node000004"><a xlink:title=" ">
<path fill="none" stroke="#63b8ff" d="M365.61,-167.67C380.8,-154.57 403.63,-130.29 389.75,-112 378.61,-97.32 338.92,-86.14 301.74,-78.59"/>
<polygon fill="#63b8ff" stroke="#63b8ff" points="302.8,-75.23 292.31,-76.75 301.46,-82.1 302.8,-75.23"/>
</a>
</g>
</g>
<!-- Node13 -->
<g id="Node000013" class="node">
<title>Node13</title>
<g id="a_Node000013"><a xlink:href="../../d9/dde/iterator_8hpp.html" target="_top" xlink:title="Linear sequence iterator interfaces.">
<polygon fill="white" stroke="#666666" points="309.12,-132 220.38,-132 220.38,-112 309.12,-112 309.12,-132"/>
<text text-anchor="middle" x="264.75" y="-118.5" font-family="Helvetica,sans-Serif" font-size="10.00">ogxx/iterator.hpp</text>
</a>
</g>
</g>
<!-- Node3&#45;&gt;Node13 -->
<g id="edge12_Node000003_Node000013" class="edge">
<title>Node3&#45;&gt;Node13</title>
<g id="a_edge12_Node000003_Node000013"><a xlink:title=" ">
<path fill="none" stroke="#63b8ff" d="M338.25,-167.59C324.93,-159.51 305.47,-147.71 289.92,-138.27"/>
<polygon fill="#63b8ff" stroke="#63b8ff" points="292.03,-135.46 281.67,-133.26 288.4,-141.44 292.03,-135.46"/>
</a>
</g>
</g>
<!-- Node14 -->
<g id="Node000014" class="node">
<title>Node14</title>
<g id="a_Node000014"><a xlink:title=" ">
<polygon fill="#e0e0e0" stroke="#999999" points="380.5,-132 327,-132 327,-112 380.5,-112 380.5,-132"/>
<text text-anchor="middle" x="353.75" y="-118.5" font-family="Helvetica,sans-Serif" font-size="10.00">compare</text>
</a>
</g>
</g>
<!-- Node3&#45;&gt;Node14 -->
<g id="edge14_Node000003_Node000014" class="edge">
<title>Node3&#45;&gt;Node14</title>
<g id="a_edge14_Node000003_Node000014"><a xlink:title=" ">
<path fill="none" stroke="#63b8ff" d="M353.75,-167.59C353.75,-161.01 353.75,-151.96 353.75,-143.73"/>
<polygon fill="#63b8ff" stroke="#63b8ff" points="357.25,-143.81 353.75,-133.81 350.25,-143.81 357.25,-143.81"/>
</a>
</g>
</g>
<!-- Node5 -->
<g id="Node000005" class="node">
<title>Node5</title>
<g id="a_Node000005"><a xlink:title=" ">
<polygon fill="#e0e0e0" stroke="#999999" points="47.5,-20 0,-20 0,0 47.5,0 47.5,-20"/>
<text text-anchor="middle" x="23.75" y="-6.5" font-family="Helvetica,sans-Serif" font-size="10.00">cstddef</text>
</a>
</g>
</g>
<!-- Node4&#45;&gt;Node5 -->
<g id="edge4_Node000004_Node000005" class="edge">
<title>Node4&#45;&gt;Node5</title>
<g id="a_edge4_Node000004_Node000005"><a xlink:title=" ">
<path fill="none" stroke="#63b8ff" d="M191.57,-55.55C158.83,-47.19 109.57,-34.48 58.72,-20.77"/>
<polygon fill="#63b8ff" stroke="#63b8ff" points="59.88,-17.46 49.31,-18.23 58.05,-24.22 59.88,-17.46"/>
</a>
</g>
</g>
<!-- Node6 -->
<g id="Node000006" class="node">
<title>Node6</title>
<g id="a_Node000006"><a xlink:title=" ">
<polygon fill="#e0e0e0" stroke="#999999" points="110.38,-20 65.12,-20 65.12,0 110.38,0 110.38,-20"/>
<text text-anchor="middle" x="87.75" y="-6.5" font-family="Helvetica,sans-Serif" font-size="10.00">cstdint</text>
</a>
</g>
</g>
<!-- Node4&#45;&gt;Node6 -->
<g id="edge5_Node000004_Node000006" class="edge">
<title>Node4&#45;&gt;Node6</title>
<g id="a_edge5_Node000004_Node000006"><a xlink:title=" ">
<path fill="none" stroke="#63b8ff" d="M204.19,-55.59C181.23,-46.8 146.77,-33.6 121.29,-23.84"/>
<polygon fill="#63b8ff" stroke="#63b8ff" points="122.63,-20.61 112.04,-20.3 120.13,-27.15 122.63,-20.61"/>
</a>
</g>
</g>
<!-- Node7 -->
<g id="Node000007" class="node">
<title>Node7</title>
<g id="a_Node000007"><a xlink:title=" ">
<polygon fill="#e0e0e0" stroke="#999999" points="157.15,-20 128.35,-20 128.35,0 157.15,0 157.15,-20"/>
<text text-anchor="middle" x="142.75" y="-6.5" font-family="Helvetica,sans-Serif" font-size="10.00">bit</text>
</a>
</g>
</g>
<!-- Node4&#45;&gt;Node7 -->
<g id="edge6_Node000004_Node000007" class="edge">
<title>Node4&#45;&gt;Node7</title>
<g id="a_edge6_Node000004_Node000007"><a xlink:title=" ">
<path fill="none" stroke="#63b8ff" d="M213.77,-55.59C200.94,-47.54 182.23,-35.79 167.23,-26.37"/>
<polygon fill="#63b8ff" stroke="#63b8ff" points="169.17,-23.46 158.84,-21.1 165.45,-29.38 169.17,-23.46"/>
</a>
</g>
</g>
<!-- Node8 -->
<g id="Node000008" class="node">
<title>Node8</title>
<g id="a_Node000008"><a xlink:title=" ">
<polygon fill="#e0e0e0" stroke="#999999" points="214.38,-20 175.12,-20 175.12,0 214.38,0 214.38,-20"/>
<text text-anchor="middle" x="194.75" y="-6.5" font-family="Helvetica,sans-Serif" font-size="10.00">limits</text>
</a>
</g>
</g>
<!-- Node4&#45;&gt;Node8 -->
<g id="edge7_Node000004_Node000008" class="edge">
<title>Node4&#45;&gt;Node8</title>
<g id="a_edge7_Node000004_Node000008"><a xlink:title=" ">
<path fill="none" stroke="#63b8ff" d="M222.83,-55.59C218.39,-48.55 212.17,-38.67 206.71,-30"/>
<polygon fill="#63b8ff" stroke="#63b8ff" points="209.7,-28.18 201.41,-21.58 203.78,-31.91 209.7,-28.18"/>
</a>
</g>
</g>
<!-- Node9 -->
<g id="Node000009" class="node">
<title>Node9</title>
<g id="a_Node000009"><a xlink:title=" ">
<polygon fill="#e0e0e0" stroke="#999999" points="294.62,-20 232.88,-20 232.88,0 294.62,0 294.62,-20"/>
<text text-anchor="middle" x="263.75" y="-6.5" font-family="Helvetica,sans-Serif" font-size="10.00">type_traits</text>
</a>
</g>
</g>
<!-- Node4&#45;&gt;Node9 -->
<g id="edge8_Node000004_Node000009" class="edge">
<title>Node4&#45;&gt;Node9</title>
<g id="a_edge8_Node000004_Node000009"><a xlink:title=" ">
<path fill="none" stroke="#63b8ff" d="M234.85,-55.59C239.46,-48.47 245.96,-38.45 251.62,-29.72"/>
<polygon fill="#63b8ff" stroke="#63b8ff" points="254.4,-31.86 256.9,-21.57 248.52,-28.06 254.4,-31.86"/>
</a>
</g>
</g>
<!-- Node10 -->
<g id="Node000010" class="node">
<title>Node10</title>
<g id="a_Node000010"><a xlink:title=" ">
<polygon fill="#e0e0e0" stroke="#999999" points="364.38,-20 313.12,-20 313.12,0 364.38,0 364.38,-20"/>
<text text-anchor="middle" x="338.75" y="-6.5" font-family="Helvetica,sans-Serif" font-size="10.00">memory</text>
</a>
</g>
</g>
<!-- Node4&#45;&gt;Node10 -->
<g id="edge9_Node000004_Node000010" class="edge">
<title>Node4&#45;&gt;Node10</title>
<g id="a_edge9_Node000004_Node000010"><a xlink:title=" ">
<path fill="none" stroke="#63b8ff" d="M247.91,-55.59C264.84,-47.28 289.8,-35.03 309.27,-25.47"/>
<polygon fill="#63b8ff" stroke="#63b8ff" points="310.65,-28.7 318.08,-21.15 307.56,-22.41 310.65,-28.7"/>
</a>
</g>
</g>
<!-- Node11 -->
<g id="Node000011" class="node">
<title>Node11</title>
<g id="a_Node000011"><a xlink:title=" ">
<polygon fill="#e0e0e0" stroke="#999999" points="421.38,-20 382.12,-20 382.12,0 421.38,0 421.38,-20"/>
<text text-anchor="middle" x="401.75" y="-6.5" font-family="Helvetica,sans-Serif" font-size="10.00">utility</text>
</a>
</g>
</g>
<!-- Node4&#45;&gt;Node11 -->
<g id="edge10_Node000004_Node000011" class="edge">
<title>Node4&#45;&gt;Node11</title>
<g id="a_edge10_Node000004_Node000011"><a xlink:title=" ">
<path fill="none" stroke="#63b8ff" d="M259.61,-55.52C286.75,-47.16 327.59,-34.54 371.07,-20.83"/>
<polygon fill="#63b8ff" stroke="#63b8ff" points="371.95,-24.22 380.43,-17.87 369.84,-17.55 371.95,-24.22"/>
</a>
</g>
</g>
<!-- Node12 -->
<g id="Node000012" class="node">
<title>Node12</title>
<g id="a_Node000012"><a xlink:title=" ">
<polygon fill="#e0e0e0" stroke="#999999" points="498.12,-20 439.38,-20 439.38,0 498.12,0 498.12,-20"/>
<text text-anchor="middle" x="468.75" y="-6.5" font-family="Helvetica,sans-Serif" font-size="10.00">stdexcept</text>
</a>
</g>
</g>
<!-- Node4&#45;&gt;Node12 -->
<g id="edge11_Node000004_Node000012" class="edge">
<title>Node4&#45;&gt;Node12</title>
<g id="a_edge11_Node000004_Node000012"><a xlink:title=" ">
<path fill="none" stroke="#63b8ff" d="M272.13,-55.51C310.67,-47.04 368.81,-34.17 427.86,-20.64"/>
<polygon fill="#63b8ff" stroke="#63b8ff" points="428.45,-24.1 437.41,-18.45 426.88,-17.28 428.45,-24.1"/>
</a>
</g>
</g>
<!-- Node13&#45;&gt;Node4 -->
<g id="edge13_Node000013_Node000004" class="edge">
<title>Node13&#45;&gt;Node4</title>
<g id="a_edge13_Node000013_Node000004"><a xlink:title=" ">
<path fill="none" stroke="#63b8ff" d="M258.48,-111.59C253.73,-104.47 247.05,-94.45 241.23,-85.72"/>
<polygon fill="#63b8ff" stroke="#63b8ff" points="244.25,-83.94 235.79,-77.56 238.42,-87.82 244.25,-83.94"/>
</a>
</g>
</g>
<!-- Node16 -->
<g id="Node000016" class="node">
<title>Node16</title>
<g id="a_Node000016"><a xlink:href="../../d4/d1a/vertex__pair_8hpp.html" target="_top" xlink:title="Vertex pair related type declarations.">
<polygon fill="white" stroke="#666666" points="216.38,-244 111.12,-244 111.12,-224 216.38,-224 216.38,-244"/>
<text text-anchor="middle" x="163.75" y="-230.5" font-family="Helvetica,sans-Serif" font-size="10.00">ogxx/vertex_pair.hpp</text>
</a>
</g>
</g>
<!-- Node15&#45;&gt;Node16 -->
<g id="edge16_Node000015_Node000016" class="edge">
<title>Node15&#45;&gt;Node16</title>
<g id="a_edge16_Node000015_Node000016"><a xlink:title=" ">
<path fill="none" stroke="#63b8ff" d="M163.75,-279.59C163.75,-273.01 163.75,-263.96 163.75,-255.73"/>
<polygon fill="#63b8ff" stroke="#63b8ff" points="167.25,-255.81 163.75,-245.81 160.25,-255.81 167.25,-255.81"/>
</a>
</g>
</g>
<!-- Node16&#45;&gt;Node4 -->
<g id="edge17_Node000016_Node000004" class="edge">
<title>Node16&#45;&gt;Node4</title>
<g id="a_edge17_Node000016_Node000004"><a xlink:title=" ">
<path fill="none" stroke="#63b8ff" d="M160.09,-223.5C155.68,-210.62 149.59,-187.04 155.75,-168 166.51,-134.74 192.76,-103.24 210.67,-84.52"/>
<polygon fill="#63b8ff" stroke="#63b8ff" points="213.08,-87.05 217.62,-77.48 208.1,-82.13 213.08,-87.05"/>
</a>
</g>
</g>
<!-- Node17 -->
<g id="Node000017" class="node">
<title>Node17</title>
<g id="a_Node000017"><a xlink:href="../../db/d3e/iterable_8hpp.html" target="_top" xlink:title="Iterable interfaces.">
<polygon fill="white" stroke="#666666" points="254.88,-188 164.62,-188 164.62,-168 254.88,-168 254.88,-188"/>
<text text-anchor="middle" x="209.75" y="-174.5" font-family="Helvetica,sans-Serif" font-size="10.00">ogxx/iterable.hpp</text>
</a>
</g>
</g>
<!-- Node16&#45;&gt;Node17 -->
<g id="edge18_Node000016_Node000017" class="edge">
<title>Node16&#45;&gt;Node17</title>
<g id="a_edge18_Node000016_Node000017"><a xlink:title=" ">
<path fill="none" stroke="#63b8ff" d="M171.76,-223.59C178.03,-216.24 186.92,-205.8 194.53,-196.87"/>
<polygon fill="#63b8ff" stroke="#63b8ff" points="197.03,-199.33 200.85,-189.45 191.7,-194.79 197.03,-199.33"/>
</a>
</g>
</g>
<!-- Node17&#45;&gt;Node4 -->
<g id="edge19_Node000017_Node000004" class="edge">
<title>Node17&#45;&gt;Node4</title>
<g id="a_edge19_Node000017_Node000004"><a xlink:title=" ">
<path fill="none" stroke="#63b8ff" d="M209.08,-167.63C208.39,-154.9 207.88,-131.49 211.75,-112 213.43,-103.51 216.54,-94.53 219.64,-86.83"/>
<polygon fill="#63b8ff" stroke="#63b8ff" points="222.8,-88.34 223.56,-77.77 216.38,-85.57 222.8,-88.34"/>
</a>
</g>
</g>
<!-- Node17&#45;&gt;Node13 -->
<g id="edge20_Node000017_Node000013" class="edge">
<title>Node17&#45;&gt;Node13</title>
<g id="a_edge20_Node000017_Node000013"><a xlink:title=" ">
<path fill="none" stroke="#63b8ff" d="M219.33,-167.59C226.98,-160.08 237.91,-149.35 247.13,-140.3"/>
<polygon fill="#63b8ff" stroke="#63b8ff" points="249.52,-142.86 254.2,-133.36 244.61,-137.87 249.52,-142.86"/>
</a>
</g>
</g>
<!-- Node18&#45;&gt;Node13 -->
<g id="edge23_Node000018_Node000013" class="edge">
<title>Node18&#45;&gt;Node13</title>
<g id="a_edge23_Node000018_Node000013"><a xlink:title=" ">
<path fill="none" stroke="#63b8ff" d="M306.92,-335.74C300.36,-302.67 278,-189.83 268.78,-143.31"/>
<polygon fill="#63b8ff" stroke="#63b8ff" points="272.26,-142.91 266.89,-133.78 265.4,-144.27 272.26,-142.91"/>
</a>
</g>
</g>
<!-- Node19 -->
<g id="Node000019" class="node">
<title>Node19</title>
<g id="a_Node000019"><a xlink:title=" ">
<polygon fill="#e0e0e0" stroke="#999999" points="356.75,-300 310.75,-300 310.75,-280 356.75,-280 356.75,-300"/>
<text text-anchor="middle" x="333.75" y="-286.5" font-family="Helvetica,sans-Serif" font-size="10.00">iterator</text>
</a>
</g>
</g>
<!-- Node18&#45;&gt;Node19 -->
<g id="edge22_Node000018_Node000019" class="edge">
<title>Node18&#45;&gt;Node19</title>
<g id="a_edge22_Node000018_Node000019"><a xlink:title=" ">
<path fill="none" stroke="#63b8ff" d="M313.1,-335.59C316.3,-328.7 320.74,-319.1 324.69,-310.57"/>
<polygon fill="#63b8ff" stroke="#63b8ff" points="327.78,-312.22 328.81,-301.67 321.43,-309.28 327.78,-312.22"/>
</a>
</g>
</g>
</g>
</svg>
