<?xml version="1.0" encoding="UTF-8" standalone="no"?>
<!DOCTYPE svg PUBLIC "-//W3C//DTD SVG 1.1//EN"
 "http://www.w3.org/Graphics/SVG/1.1/DTD/svg11.dtd">
<!-- Generated by graphviz version 9.0.0 (20230911.1827)
 -->
<!-- Title: include/ogxx/adjacency_list_io.hpp Pages: 1 -->
<svg width="565pt" height="432pt"
 viewBox="0.00 0.00 565.00 432.00" xmlns="http://www.w3.org/2000/svg" xmlns:xlink="http://www.w3.org/1999/xlink">
<g id="graph0" class="graph" transform="scale(1 1) rotate(0) translate(4 428)">
<title>include/ogxx/adjacency_list_io.hpp</title>
<!-- Node1 -->
<g id="Node000001" class="node">
<title>Node1</title>
<g id="a_Node000001"><a xlink:title="Textual input&#45;output for adjacency list.">
<polygon fill="#999999" stroke="#666666" points="209.62,-424 91.62,-424 91.62,-392 209.62,-392 209.62,-424"/>
<text text-anchor="start" x="99.62" y="-410.5" font-family="Helvetica,sans-Serif" font-size="10.00">include/ogxx/adjacency</text>
<text text-anchor="middle" x="150.62" y="-398.5" font-family="Helvetica,sans-Serif" font-size="10.00">_list_io.hpp</text>
</a>
</g>
</g>
<!-- Node2 -->
<g id="Node000002" class="node">
<title>Node2</title>
<g id="a_Node000002"><a xlink:href="../../d8/d3d/io__head_8hpp.html" target="_top" xlink:title="Shared things for *_io.hpp files.">
<polygon fill="white" stroke="#666666" points="134.88,-356 42.38,-356 42.38,-336 134.88,-336 134.88,-356"/>
<text text-anchor="middle" x="88.62" y="-342.5" font-family="Helvetica,sans-Serif" font-size="10.00">ogxx/io_head.hpp</text>
</a>
</g>
</g>
<!-- Node1&#45;&gt;Node2 -->
<g id="edge1_Node000001_Node000002" class="edge">
<title>Node1&#45;&gt;Node2</title>
<g id="a_edge1_Node000001_Node000002"><a xlink:title=" ">
<path fill="none" stroke="#63b8ff" d="M134.66,-391.55C126.05,-383.22 115.39,-372.91 106.51,-364.3"/>
<polygon fill="#63b8ff" stroke="#63b8ff" points="109.05,-361.9 99.43,-357.46 104.19,-366.93 109.05,-361.9"/>
</a>
</g>
</g>
<!-- Node5 -->
<g id="Node000005" class="node">
<title>Node5</title>
<g id="a_Node000005"><a xlink:href="../../d6/da0/adjacency__list_8hpp.html" target="_top" xlink:title="Adjacency list graph representation interface.">
<polygon fill="white" stroke="#666666" points="274.12,-356 153.12,-356 153.12,-336 274.12,-336 274.12,-356"/>
<text text-anchor="middle" x="213.62" y="-342.5" font-family="Helvetica,sans-Serif" font-size="10.00">ogxx/adjacency_list.hpp</text>
</a>
</g>
</g>
<!-- Node1&#45;&gt;Node5 -->
<g id="edge4_Node000001_Node000005" class="edge">
<title>Node1&#45;&gt;Node5</title>
<g id="a_edge4_Node000001_Node000005"><a xlink:title=" ">
<path fill="none" stroke="#63b8ff" d="M166.85,-391.55C175.6,-383.22 186.42,-372.91 195.46,-364.3"/>
<polygon fill="#63b8ff" stroke="#63b8ff" points="197.82,-366.88 202.65,-357.45 193,-361.81 197.82,-366.88"/>
</a>
</g>
</g>
<!-- Node3 -->
<g id="Node000003" class="node">
<title>Node3</title>
<g id="a_Node000003"><a xlink:title=" ">
<polygon fill="#e0e0e0" stroke="#999999" points="63.25,-300 0,-300 0,-280 63.25,-280 63.25,-300"/>
<text text-anchor="middle" x="31.62" y="-286.5" font-family="Helvetica,sans-Serif" font-size="10.00">string_view</text>
</a>
</g>
</g>
<!-- Node2&#45;&gt;Node3 -->
<g id="edge2_Node000002_Node000003" class="edge">
<title>Node2&#45;&gt;Node3</title>
<g id="a_edge2_Node000002_Node000003"><a xlink:title=" ">
<path fill="none" stroke="#63b8ff" d="M78.7,-335.59C70.69,-328.01 59.21,-317.13 49.59,-308.02"/>
<polygon fill="#63b8ff" stroke="#63b8ff" points="52.21,-305.68 42.54,-301.34 47.39,-310.76 52.21,-305.68"/>
</a>
</g>
</g>
<!-- Node4 -->
<g id="Node000004" class="node">
<title>Node4</title>
<g id="a_Node000004"><a xlink:title=" ">
<polygon fill="#e0e0e0" stroke="#999999" points="132.25,-300 81,-300 81,-280 132.25,-280 132.25,-300"/>
<text text-anchor="middle" x="106.62" y="-286.5" font-family="Helvetica,sans-Serif" font-size="10.00">ostream</text>
</a>
</g>
</g>
<!-- Node2&#45;&gt;Node4 -->
<g id="edge3_Node000002_Node000004" class="edge">
<title>Node2&#45;&gt;Node4</title>
<g id="a_edge3_Node000002_Node000004"><a xlink:title=" ">
<path fill="none" stroke="#63b8ff" d="M91.76,-335.59C94.01,-328.86 97.11,-319.53 99.91,-311.15"/>
<polygon fill="#63b8ff" stroke="#63b8ff" points="103.2,-312.33 103.05,-301.73 96.56,-310.11 103.2,-312.33"/>
</a>
</g>
</g>
<!-- Node6 -->
<g id="Node000006" class="node">
<title>Node6</title>
<g id="a_Node000006"><a xlink:href="../../d7/dbf/st__set_8hpp.html" target="_top" xlink:title="Simple type set interface. Set may be ordered or unordered.">
<polygon fill="white" stroke="#666666" points="225.5,-188 139.75,-188 139.75,-168 225.5,-168 225.5,-188"/>
<text text-anchor="middle" x="182.62" y="-174.5" font-family="Helvetica,sans-Serif" font-size="10.00">ogxx/st_set.hpp</text>
</a>
</g>
</g>
<!-- Node5&#45;&gt;Node6 -->
<g id="edge5_Node000005_Node000006" class="edge">
<title>Node5&#45;&gt;Node6</title>
<g id="a_edge5_Node000005_Node000006"><a xlink:title=" ">
<path fill="none" stroke="#63b8ff" d="M211.87,-335.6C206.99,-309.46 193.17,-235.48 186.43,-199.36"/>
<polygon fill="#63b8ff" stroke="#63b8ff" points="189.92,-198.97 184.64,-189.79 183.03,-200.26 189.92,-198.97"/>
</a>
</g>
</g>
<!-- Node17 -->
<g id="Node000017" class="node">
<title>Node17</title>
<g id="a_Node000017"><a xlink:href="../../d7/d6c/graph__view_8hpp.html" target="_top" xlink:title="Graph view interface that may be used for graph representation coversion.">
<polygon fill="white" stroke="#666666" points="335.62,-300 229.62,-300 229.62,-280 335.62,-280 335.62,-300"/>
<text text-anchor="middle" x="282.62" y="-286.5" font-family="Helvetica,sans-Serif" font-size="10.00">ogxx/graph_view.hpp</text>
</a>
</g>
</g>
<!-- Node5&#45;&gt;Node17 -->
<g id="edge17_Node000005_Node000017" class="edge">
<title>Node5&#45;&gt;Node17</title>
<g id="a_edge17_Node000005_Node000017"><a xlink:title=" ">
<path fill="none" stroke="#63b8ff" d="M225.64,-335.59C235.64,-327.77 250.09,-316.46 261.93,-307.19"/>
<polygon fill="#63b8ff" stroke="#63b8ff" points="263.83,-310.15 269.55,-301.23 259.52,-304.64 263.83,-310.15"/>
</a>
</g>
</g>
<!-- Node7 -->
<g id="Node000007" class="node">
<title>Node7</title>
<g id="a_Node000007"><a xlink:href="../../de/d2f/primitive__definitions_8hpp.html" target="_top" xlink:title="Primitive type declarations like scalar indices and so on.">
<polygon fill="white" stroke="#666666" points="359,-76 216.25,-76 216.25,-56 359,-56 359,-76"/>
<text text-anchor="middle" x="287.62" y="-62.5" font-family="Helvetica,sans-Serif" font-size="10.00">ogxx/primitive_definitions.hpp</text>
</a>
</g>
</g>
<!-- Node6&#45;&gt;Node7 -->
<g id="edge6_Node000006_Node000007" class="edge">
<title>Node6&#45;&gt;Node7</title>
<g id="a_edge6_Node000006_Node000007"><a xlink:title=" ">
<path fill="none" stroke="#63b8ff" d="M182.57,-167.54C182.98,-153.85 185.6,-128.37 198.62,-112 209.94,-97.77 226.95,-87.65 243.07,-80.65"/>
<polygon fill="#63b8ff" stroke="#63b8ff" points="244.08,-84.02 252.07,-77.05 241.48,-77.52 244.08,-84.02"/>
</a>
</g>
</g>
<!-- Node16 -->
<g id="Node000016" class="node">
<title>Node16</title>
<g id="a_Node000016"><a xlink:href="../../d9/dde/iterator_8hpp.html" target="_top" xlink:title="Linear sequence iterator interfaces.">
<polygon fill="white" stroke="#666666" points="296,-132 207.25,-132 207.25,-112 296,-112 296,-132"/>
<text text-anchor="middle" x="251.62" y="-118.5" font-family="Helvetica,sans-Serif" font-size="10.00">ogxx/iterator.hpp</text>
</a>
</g>
</g>
<!-- Node6&#45;&gt;Node16 -->
<g id="edge15_Node000006_Node000016" class="edge">
<title>Node6&#45;&gt;Node16</title>
<g id="a_edge15_Node000006_Node000016"><a xlink:title=" ">
<path fill="none" stroke="#63b8ff" d="M194.64,-167.59C204.64,-159.77 219.09,-148.46 230.93,-139.19"/>
<polygon fill="#63b8ff" stroke="#63b8ff" points="232.83,-142.15 238.55,-133.23 228.52,-136.64 232.83,-142.15"/>
</a>
</g>
</g>
<!-- Node8 -->
<g id="Node000008" class="node">
<title>Node8</title>
<g id="a_Node000008"><a xlink:title=" ">
<polygon fill="#e0e0e0" stroke="#999999" points="106.38,-20 58.88,-20 58.88,0 106.38,0 106.38,-20"/>
<text text-anchor="middle" x="82.62" y="-6.5" font-family="Helvetica,sans-Serif" font-size="10.00">cstddef</text>
</a>
</g>
</g>
<!-- Node7&#45;&gt;Node8 -->
<g id="edge7_Node000007_Node000008" class="edge">
<title>Node7&#45;&gt;Node8</title>
<g id="a_edge7_Node000007_Node000008"><a xlink:title=" ">
<path fill="none" stroke="#63b8ff" d="M250.45,-55.55C217.7,-47.19 168.45,-34.48 117.59,-20.77"/>
<polygon fill="#63b8ff" stroke="#63b8ff" points="118.75,-17.46 108.18,-18.23 116.92,-24.22 118.75,-17.46"/>
</a>
</g>
</g>
<!-- Node9 -->
<g id="Node000009" class="node">
<title>Node9</title>
<g id="a_Node000009"><a xlink:title=" ">
<polygon fill="#e0e0e0" stroke="#999999" points="169.25,-20 124,-20 124,0 169.25,0 169.25,-20"/>
<text text-anchor="middle" x="146.62" y="-6.5" font-family="Helvetica,sans-Serif" font-size="10.00">cstdint</text>
</a>
</g>
</g>
<!-- Node7&#45;&gt;Node9 -->
<g id="edge8_Node000007_Node000009" class="edge">
<title>Node7&#45;&gt;Node9</title>
<g id="a_edge8_Node000007_Node000009"><a xlink:title=" ">
<path fill="none" stroke="#63b8ff" d="M263.06,-55.59C240.11,-46.8 205.64,-33.6 180.16,-23.84"/>
<polygon fill="#63b8ff" stroke="#63b8ff" points="181.51,-20.61 170.92,-20.3 179,-27.15 181.51,-20.61"/>
</a>
</g>
</g>
<!-- Node10 -->
<g id="Node000010" class="node">
<title>Node10</title>
<g id="a_Node000010"><a xlink:title=" ">
<polygon fill="#e0e0e0" stroke="#999999" points="216.03,-20 187.22,-20 187.22,0 216.03,0 216.03,-20"/>
<text text-anchor="middle" x="201.62" y="-6.5" font-family="Helvetica,sans-Serif" font-size="10.00">bit</text>
</a>
</g>
</g>
<!-- Node7&#45;&gt;Node10 -->
<g id="edge9_Node000007_Node000010" class="edge">
<title>Node7&#45;&gt;Node10</title>
<g id="a_edge9_Node000007_Node000010"><a xlink:title=" ">
<path fill="none" stroke="#63b8ff" d="M272.64,-55.59C259.82,-47.54 241.1,-35.79 226.11,-26.37"/>
<polygon fill="#63b8ff" stroke="#63b8ff" points="228.05,-23.46 217.72,-21.1 224.32,-29.38 228.05,-23.46"/>
</a>
</g>
</g>
<!-- Node11 -->
<g id="Node000011" class="node">
<title>Node11</title>
<g id="a_Node000011"><a xlink:title=" ">
<polygon fill="#e0e0e0" stroke="#999999" points="273.25,-20 234,-20 234,0 273.25,0 273.25,-20"/>
<text text-anchor="middle" x="253.62" y="-6.5" font-family="Helvetica,sans-Serif" font-size="10.00">limits</text>
</a>
</g>
</g>
<!-- Node7&#45;&gt;Node11 -->
<g id="edge10_Node000007_Node000011" class="edge">
<title>Node7&#45;&gt;Node11</title>
<g id="a_edge10_Node000007_Node000011"><a xlink:title=" ">
<path fill="none" stroke="#63b8ff" d="M281.7,-55.59C277.27,-48.55 271.05,-38.67 265.59,-30"/>
<polygon fill="#63b8ff" stroke="#63b8ff" points="268.58,-28.18 260.29,-21.58 262.65,-31.91 268.58,-28.18"/>
</a>
</g>
</g>
<!-- Node12 -->
<g id="Node000012" class="node">
<title>Node12</title>
<g id="a_Node000012"><a xlink:title=" ">
<polygon fill="#e0e0e0" stroke="#999999" points="353.5,-20 291.75,-20 291.75,0 353.5,0 353.5,-20"/>
<text text-anchor="middle" x="322.62" y="-6.5" font-family="Helvetica,sans-Serif" font-size="10.00">type_traits</text>
</a>
</g>
</g>
<!-- Node7&#45;&gt;Node12 -->
<g id="edge11_Node000007_Node000012" class="edge">
<title>Node7&#45;&gt;Node12</title>
<g id="a_edge11_Node000007_Node000012"><a xlink:title=" ">
<path fill="none" stroke="#63b8ff" d="M293.72,-55.59C298.34,-48.47 304.83,-38.45 310.49,-29.72"/>
<polygon fill="#63b8ff" stroke="#63b8ff" points="313.27,-31.86 315.78,-21.57 307.4,-28.06 313.27,-31.86"/>
</a>
</g>
</g>
<!-- Node13 -->
<g id="Node000013" class="node">
<title>Node13</title>
<g id="a_Node000013"><a xlink:title=" ">
<polygon fill="#e0e0e0" stroke="#999999" points="423.25,-20 372,-20 372,0 423.25,0 423.25,-20"/>
<text text-anchor="middle" x="397.62" y="-6.5" font-family="Helvetica,sans-Serif" font-size="10.00">memory</text>
</a>
</g>
</g>
<!-- Node7&#45;&gt;Node13 -->
<g id="edge12_Node000007_Node000013" class="edge">
<title>Node7&#45;&gt;Node13</title>
<g id="a_edge12_Node000007_Node000013"><a xlink:title=" ">
<path fill="none" stroke="#63b8ff" d="M306.79,-55.59C323.72,-47.28 348.67,-35.03 368.15,-25.47"/>
<polygon fill="#63b8ff" stroke="#63b8ff" points="369.52,-28.7 376.96,-21.15 366.44,-22.41 369.52,-28.7"/>
</a>
</g>
</g>
<!-- Node14 -->
<g id="Node000014" class="node">
<title>Node14</title>
<g id="a_Node000014"><a xlink:title=" ">
<polygon fill="#e0e0e0" stroke="#999999" points="480.25,-20 441,-20 441,0 480.25,0 480.25,-20"/>
<text text-anchor="middle" x="460.62" y="-6.5" font-family="Helvetica,sans-Serif" font-size="10.00">utility</text>
</a>
</g>
</g>
<!-- Node7&#45;&gt;Node14 -->
<g id="edge13_Node000007_Node000014" class="edge">
<title>Node7&#45;&gt;Node14</title>
<g id="a_edge13_Node000007_Node000014"><a xlink:title=" ">
<path fill="none" stroke="#63b8ff" d="M318.48,-55.52C345.62,-47.16 386.46,-34.54 429.94,-20.83"/>
<polygon fill="#63b8ff" stroke="#63b8ff" points="430.82,-24.22 439.3,-17.87 428.71,-17.55 430.82,-24.22"/>
</a>
</g>
</g>
<!-- Node15 -->
<g id="Node000015" class="node">
<title>Node15</title>
<g id="a_Node000015"><a xlink:title=" ">
<polygon fill="#e0e0e0" stroke="#999999" points="557,-20 498.25,-20 498.25,0 557,0 557,-20"/>
<text text-anchor="middle" x="527.62" y="-6.5" font-family="Helvetica,sans-Serif" font-size="10.00">stdexcept</text>
</a>
</g>
</g>
<!-- Node7&#45;&gt;Node15 -->
<g id="edge14_Node000007_Node000015" class="edge">
<title>Node7&#45;&gt;Node15</title>
<g id="a_edge14_Node000007_Node000015"><a xlink:title=" ">
<path fill="none" stroke="#63b8ff" d="M331.01,-55.51C369.54,-47.04 427.69,-34.17 486.73,-20.64"/>
<polygon fill="#63b8ff" stroke="#63b8ff" points="487.32,-24.1 496.29,-18.45 485.76,-17.28 487.32,-24.1"/>
</a>
</g>
</g>
<!-- Node16&#45;&gt;Node7 -->
<g id="edge16_Node000016_Node000007" class="edge">
<title>Node16&#45;&gt;Node7</title>
<g id="a_edge16_Node000016_Node000007"><a xlink:title=" ">
<path fill="none" stroke="#63b8ff" d="M257.9,-111.59C262.64,-104.47 269.32,-94.45 275.15,-85.72"/>
<polygon fill="#63b8ff" stroke="#63b8ff" points="277.95,-87.82 280.59,-77.56 272.13,-83.94 277.95,-87.82"/>
</a>
</g>
</g>
<!-- Node18 -->
<g id="Node000018" class="node">
<title>Node18</title>
<g id="a_Node000018"><a xlink:href="../../d4/d1a/vertex__pair_8hpp.html" target="_top" xlink:title="Vertex pair related type declarations.">
<polygon fill="white" stroke="#666666" points="341.25,-244 236,-244 236,-224 341.25,-224 341.25,-244"/>
<text text-anchor="middle" x="288.62" y="-230.5" font-family="Helvetica,sans-Serif" font-size="10.00">ogxx/vertex_pair.hpp</text>
</a>
</g>
</g>
<!-- Node17&#45;&gt;Node18 -->
<g id="edge18_Node000017_Node000018" class="edge">
<title>Node17&#45;&gt;Node18</title>
<g id="a_edge18_Node000017_Node000018"><a xlink:title=" ">
<path fill="none" stroke="#63b8ff" d="M283.67,-279.59C284.4,-273.01 285.41,-263.96 286.32,-255.73"/>
<polygon fill="#63b8ff" stroke="#63b8ff" points="289.8,-256.13 287.42,-245.8 282.84,-255.35 289.8,-256.13"/>
</a>
</g>
</g>
<!-- Node18&#45;&gt;Node7 -->
<g id="edge19_Node000018_Node000007" class="edge">
<title>Node18&#45;&gt;Node7</title>
<g id="a_edge19_Node000018_Node000007"><a xlink:title=" ">
<path fill="none" stroke="#63b8ff" d="M306.84,-223.51C319.46,-215.82 335.27,-203.69 342.62,-188 346.4,-179.95 344.41,-176.71 342.62,-168 336.16,-136.5 316.06,-104.66 302.04,-85.37"/>
<polygon fill="#63b8ff" stroke="#63b8ff" points="304.91,-83.36 296.1,-77.48 299.31,-87.57 304.91,-83.36"/>
</a>
</g>
</g>
<!-- Node19 -->
<g id="Node000019" class="node">
<title>Node19</title>
<g id="a_Node000019"><a xlink:href="../../db/d3e/iterable_8hpp.html" target="_top" xlink:title="Iterable interfaces.">
<polygon fill="white" stroke="#666666" points="333.75,-188 243.5,-188 243.5,-168 333.75,-168 333.75,-188"/>
<text text-anchor="middle" x="288.62" y="-174.5" font-family="Helvetica,sans-Serif" font-size="10.00">ogxx/iterable.hpp</text>
</a>
</g>
</g>
<!-- Node18&#45;&gt;Node19 -->
<g id="edge20_Node000018_Node000019" class="edge">
<title>Node18&#45;&gt;Node19</title>
<g id="a_edge20_Node000018_Node000019"><a xlink:title=" ">
<path fill="none" stroke="#63b8ff" d="M288.62,-223.59C288.62,-217.01 288.62,-207.96 288.62,-199.73"/>
<polygon fill="#63b8ff" stroke="#63b8ff" points="292.13,-199.81 288.63,-189.81 285.13,-199.81 292.13,-199.81"/>
</a>
</g>
</g>
<!-- Node19&#45;&gt;Node7 -->
<g id="edge21_Node000019_Node000007" class="edge">
<title>Node19&#45;&gt;Node7</title>
<g id="a_edge21_Node000019_Node000007"><a xlink:title=" ">
<path fill="none" stroke="#63b8ff" d="M293.41,-167.82C299.36,-155.3 308.3,-132.12 304.62,-112 303.07,-103.49 299.99,-94.5 296.87,-86.81"/>
<polygon fill="#63b8ff" stroke="#63b8ff" points="300.13,-85.51 292.92,-77.75 293.72,-88.32 300.13,-85.51"/>
</a>
</g>
</g>
<!-- Node19&#45;&gt;Node16 -->
<g id="edge22_Node000019_Node000016" class="edge">
<title>Node19&#45;&gt;Node16</title>
<g id="a_edge22_Node000019_Node000016"><a xlink:title=" ">
<path fill="none" stroke="#63b8ff" d="M282.18,-167.59C277.3,-160.47 270.43,-150.45 264.45,-141.72"/>
<polygon fill="#63b8ff" stroke="#63b8ff" points="267.39,-139.82 258.85,-133.55 261.62,-143.77 267.39,-139.82"/>
</a>
</g>
</g>
</g>
</svg>
