<?xml version="1.0" encoding="UTF-8" standalone="no"?>
<!DOCTYPE svg PUBLIC "-//W3C//DTD SVG 1.1//EN"
 "http://www.w3.org/Graphics/SVG/1.1/DTD/svg11.dtd">
<!-- Generated by graphviz version 9.0.0 (20230911.1827)
 -->
<!-- Title: include/ogxx/st_set.hpp Pages: 1 -->
<svg width="1305pt" height="288pt"
 viewBox="0.00 0.00 1305.00 288.00" xmlns="http://www.w3.org/2000/svg" xmlns:xlink="http://www.w3.org/1999/xlink">
<g id="graph0" class="graph" transform="scale(1 1) rotate(0) translate(4 284)">
<title>include/ogxx/st_set.hpp</title>
<!-- Node1 -->
<g id="Node000001" class="node">
<title>Node1</title>
<g id="a_Node000001"><a xlink:title="Simple type set interface. Set may be ordered or unordered.">
<polygon fill="#999999" stroke="#666666" points="809.38,-280 689.88,-280 689.88,-260 809.38,-260 809.38,-280"/>
<text text-anchor="middle" x="749.62" y="-266.5" font-family="Helvetica,sans-Serif" font-size="10.00">include/ogxx/st_set.hpp</text>
</a>
</g>
</g>
<!-- Node2 -->
<g id="Node000002" class="node">
<title>Node2</title>
<g id="a_Node000002"><a xlink:href="../../d6/da0/adjacency__list_8hpp.html" target="_top" xlink:title="Adjacency list graph representation interface.">
<polygon fill="white" stroke="#666666" points="505.62,-224 387.62,-224 387.62,-192 505.62,-192 505.62,-224"/>
<text text-anchor="start" x="395.62" y="-210.5" font-family="Helvetica,sans-Serif" font-size="10.00">include/ogxx/adjacency</text>
<text text-anchor="middle" x="446.62" y="-198.5" font-family="Helvetica,sans-Serif" font-size="10.00">_list.hpp</text>
</a>
</g>
</g>
<!-- Node1&#45;&gt;Node2 -->
<g id="edge1_Node000001_Node000002" class="edge">
<title>Node1&#45;&gt;Node2</title>
<g id="a_edge1_Node000001_Node000002"><a xlink:title=" ">
<path fill="none" stroke="#63b8ff" d="M690.98,-257.39C637.7,-246.84 559.49,-231.35 505.99,-220.76"/>
<polygon fill="#63b8ff" stroke="#63b8ff" points="689.97,-260.76 700.46,-259.26 691.33,-253.89 689.97,-260.76"/>
</a>
</g>
</g>
<!-- Node11 -->
<g id="Node000011" class="node">
<title>Node11</title>
<g id="a_Node000011"><a xlink:href="../../d1/d63/graph__view__di__el_8cpp.html" target="_top" xlink:title="Graph view implementation for directed graph represented by an edge list.">
<polygon fill="white" stroke="#666666" points="1225.75,-224 1117.5,-224 1117.5,-192 1225.75,-192 1225.75,-224"/>
<text text-anchor="start" x="1125.5" y="-210.5" font-family="Helvetica,sans-Serif" font-size="10.00">source/graph_view_di</text>
<text text-anchor="middle" x="1171.62" y="-198.5" font-family="Helvetica,sans-Serif" font-size="10.00">_el.cpp</text>
</a>
</g>
</g>
<!-- Node1&#45;&gt;Node11 -->
<g id="edge10_Node000001_Node000011" class="edge">
<title>Node1&#45;&gt;Node11</title>
<g id="a_edge10_Node000001_Node000011"><a xlink:title=" ">
<path fill="none" stroke="#63b8ff" d="M821.04,-262.26C893.53,-254.89 1008.86,-241.73 1107.62,-224 1110.77,-223.44 1113.99,-222.81 1117.24,-222.16"/>
<polygon fill="#63b8ff" stroke="#63b8ff" points="820.88,-258.76 811.28,-263.24 821.58,-265.72 820.88,-258.76"/>
</a>
</g>
</g>
<!-- Node12 -->
<g id="Node000012" class="node">
<title>Node12</title>
<g id="a_Node000012"><a xlink:href="../../d7/d92/index__set__bitvector_8hpp.html" target="_top" xlink:title="Index_set implemented via bit vector.">
<polygon fill="white" stroke="#666666" points="739.75,-218 589.5,-218 589.5,-198 739.75,-198 739.75,-218"/>
<text text-anchor="middle" x="664.62" y="-204.5" font-family="Helvetica,sans-Serif" font-size="10.00">source/index_set_bitvector.hpp</text>
</a>
</g>
</g>
<!-- Node1&#45;&gt;Node12 -->
<g id="edge11_Node000001_Node000012" class="edge">
<title>Node1&#45;&gt;Node12</title>
<g id="a_edge11_Node000001_Node000012"><a xlink:title=" ">
<path fill="none" stroke="#63b8ff" d="M727.27,-253.22C711.54,-242.11 691,-227.62 677.81,-218.31"/>
<polygon fill="#63b8ff" stroke="#63b8ff" points="724.92,-255.84 735.11,-258.75 728.96,-250.13 724.92,-255.84"/>
</a>
</g>
</g>
<!-- Node14 -->
<g id="Node000014" class="node">
<title>Node14</title>
<g id="a_Node000014"><a xlink:href="../../d2/d73/index__set__hashtable_8hpp.html" target="_top" xlink:title="This file defines Index_set and Sized_iterable implementation based upon std::unordered_set.">
<polygon fill="white" stroke="#666666" points="913.75,-218 757.5,-218 757.5,-198 913.75,-198 913.75,-218"/>
<text text-anchor="middle" x="835.62" y="-204.5" font-family="Helvetica,sans-Serif" font-size="10.00">source/index_set_hashtable.hpp</text>
</a>
</g>
</g>
<!-- Node1&#45;&gt;Node14 -->
<g id="edge14_Node000001_Node000014" class="edge">
<title>Node1&#45;&gt;Node14</title>
<g id="a_edge14_Node000001_Node000014"><a xlink:title=" ">
<path fill="none" stroke="#63b8ff" d="M772.24,-253.22C788.16,-242.11 808.94,-227.62 822.28,-218.31"/>
<polygon fill="#63b8ff" stroke="#63b8ff" points="770.5,-250.17 764.3,-258.76 774.51,-255.91 770.5,-250.17"/>
</a>
</g>
</g>
<!-- Node16 -->
<g id="Node000016" class="node">
<title>Node16</title>
<g id="a_Node000016"><a xlink:href="../../d5/df8/index__set__sortedvector_8hpp.html" target="_top" xlink:title="Index_set implementation based upon a sorted vector of set elements.">
<polygon fill="white" stroke="#666666" points="1099,-218 932.25,-218 932.25,-198 1099,-198 1099,-218"/>
<text text-anchor="middle" x="1015.62" y="-204.5" font-family="Helvetica,sans-Serif" font-size="10.00">source/index_set_sortedvector.hpp</text>
</a>
</g>
</g>
<!-- Node1&#45;&gt;Node16 -->
<g id="edge17_Node000001_Node000016" class="edge">
<title>Node1&#45;&gt;Node16</title>
<g id="a_edge17_Node000001_Node000016"><a xlink:title=" ">
<path fill="none" stroke="#63b8ff" d="M802.44,-257.09C852.67,-245.76 927.25,-228.93 973.58,-218.48"/>
<polygon fill="#63b8ff" stroke="#63b8ff" points="801.94,-253.61 792.96,-259.23 803.48,-260.44 801.94,-253.61"/>
</a>
</g>
</g>
<!-- Node18 -->
<g id="Node000018" class="node">
<title>Node18</title>
<g id="a_Node000018"><a xlink:href="../../d2/d31/tests_2index__set__sortedvector_8cpp.html" target="_top" xlink:title="Testing Index_set_sortedvector class.">
<polygon fill="white" stroke="#666666" points="159.25,-82 0,-82 0,-62 159.25,-62 159.25,-82"/>
<text text-anchor="middle" x="79.62" y="-68.5" font-family="Helvetica,sans-Serif" font-size="10.00">tests/index_set_sortedvector.cpp</text>
</a>
</g>
</g>
<!-- Node1&#45;&gt;Node18 -->
<g id="edge20_Node000001_Node000018" class="edge">
<title>Node1&#45;&gt;Node18</title>
<g id="a_edge20_Node000001_Node000018"><a xlink:title=" ">
<path fill="none" stroke="#63b8ff" d="M678.33,-268.61C519.04,-266.03 142.28,-249.92 66.62,-156 49.24,-134.42 64.82,-99.15 74.01,-82.4"/>
<polygon fill="#63b8ff" stroke="#63b8ff" points="677.86,-272.1 687.91,-268.75 677.96,-265.1 677.86,-272.1"/>
</a>
</g>
</g>
<!-- Node3 -->
<g id="Node000003" class="node">
<title>Node3</title>
<g id="a_Node000003"><a xlink:href="../../d8/d3e/adjacency__list__io_8hpp.html" target="_top" xlink:title="Textual input&#45;output for adjacency list.">
<polygon fill="white" stroke="#666666" points="447.62,-156 329.62,-156 329.62,-124 447.62,-124 447.62,-156"/>
<text text-anchor="start" x="337.62" y="-142.5" font-family="Helvetica,sans-Serif" font-size="10.00">include/ogxx/adjacency</text>
<text text-anchor="middle" x="388.62" y="-130.5" font-family="Helvetica,sans-Serif" font-size="10.00">_list_io.hpp</text>
</a>
</g>
</g>
<!-- Node2&#45;&gt;Node3 -->
<g id="edge2_Node000002_Node000003" class="edge">
<title>Node2&#45;&gt;Node3</title>
<g id="a_edge2_Node000002_Node000003"><a xlink:title=" ">
<path fill="none" stroke="#63b8ff" d="M425.67,-183.15C417.77,-174.17 409.02,-164.21 402,-156.22"/>
<polygon fill="#63b8ff" stroke="#63b8ff" points="422.94,-185.35 432.17,-190.56 428.2,-180.73 422.94,-185.35"/>
</a>
</g>
</g>
<!-- Node7 -->
<g id="Node000007" class="node">
<title>Node7</title>
<g id="a_Node000007"><a xlink:href="../../d3/dcc/graph__repr__conv_8hpp.html" target="_top" xlink:title="Graph representation conversion operations.">
<polygon fill="white" stroke="#666666" points="563.5,-156 465.75,-156 465.75,-124 563.5,-124 563.5,-156"/>
<text text-anchor="start" x="473.75" y="-142.5" font-family="Helvetica,sans-Serif" font-size="10.00">include/ogxx/graph</text>
<text text-anchor="middle" x="514.62" y="-130.5" font-family="Helvetica,sans-Serif" font-size="10.00">_repr_conv.hpp</text>
</a>
</g>
</g>
<!-- Node2&#45;&gt;Node7 -->
<g id="edge6_Node000002_Node000007" class="edge">
<title>Node2&#45;&gt;Node7</title>
<g id="a_edge6_Node000002_Node000007"><a xlink:title=" ">
<path fill="none" stroke="#63b8ff" d="M470.62,-183.71C480.02,-174.59 490.54,-164.37 498.94,-156.22"/>
<polygon fill="#63b8ff" stroke="#63b8ff" points="468.22,-181.16 463.48,-190.64 473.1,-186.18 468.22,-181.16"/>
</a>
</g>
</g>
<!-- Node8 -->
<g id="Node000008" class="node">
<title>Node8</title>
<g id="a_Node000008"><a xlink:href="../../d6/dda/adjacency__implementations_8cpp.html" target="_top" xlink:title="ogxx::Adjacency implementations based upon different Index_set implementations">
<polygon fill="white" stroke="#666666" points="937.5,-150 749.75,-150 749.75,-130 937.5,-130 937.5,-150"/>
<text text-anchor="middle" x="843.62" y="-136.5" font-family="Helvetica,sans-Serif" font-size="10.00">source/adjacency_implementations.cpp</text>
</a>
</g>
</g>
<!-- Node2&#45;&gt;Node8 -->
<g id="edge7_Node000002_Node000008" class="edge">
<title>Node2&#45;&gt;Node8</title>
<g id="a_edge7_Node000002_Node000008"><a xlink:title=" ">
<path fill="none" stroke="#63b8ff" d="M517.07,-195.29C593.96,-182.51 715.58,-162.29 786.68,-150.47"/>
<polygon fill="#63b8ff" stroke="#63b8ff" points="516.84,-191.78 507.55,-196.87 517.99,-198.68 516.84,-191.78"/>
</a>
</g>
</g>
<!-- Node9 -->
<g id="Node000009" class="node">
<title>Node9</title>
<g id="a_Node000009"><a xlink:href="../../d5/d8b/adjacency__list__vector_8cpp.html" target="_top" xlink:title="Adjacency_list interface implementation over std::vector.">
<polygon fill="white" stroke="#666666" points="185.88,-156 75.38,-156 75.38,-124 185.88,-124 185.88,-156"/>
<text text-anchor="start" x="83.38" y="-142.5" font-family="Helvetica,sans-Serif" font-size="10.00">source/adjacency_list</text>
<text text-anchor="middle" x="130.62" y="-130.5" font-family="Helvetica,sans-Serif" font-size="10.00">_vector.cpp</text>
</a>
</g>
</g>
<!-- Node2&#45;&gt;Node9 -->
<g id="edge8_Node000002_Node000009" class="edge">
<title>Node2&#45;&gt;Node9</title>
<g id="a_edge8_Node000002_Node000009"><a xlink:title=" ">
<path fill="none" stroke="#63b8ff" d="M376.06,-193.32C325.47,-183.36 255.74,-169.34 194.62,-156 191.84,-155.39 188.98,-154.76 186.1,-154.11"/>
<polygon fill="#63b8ff" stroke="#63b8ff" points="375.23,-196.72 385.71,-195.21 376.58,-189.85 375.23,-196.72"/>
</a>
</g>
</g>
<!-- Node10 -->
<g id="Node000010" class="node">
<title>Node10</title>
<g id="a_Node000010"><a xlink:href="../../d0/da2/graph__view__di__al_8cpp.html" target="_top" xlink:title="Graph view implementation for directed graph represented by an adjacency list.">
<polygon fill="white" stroke="#666666" points="311.75,-156 203.5,-156 203.5,-124 311.75,-124 311.75,-156"/>
<text text-anchor="start" x="211.5" y="-142.5" font-family="Helvetica,sans-Serif" font-size="10.00">source/graph_view_di</text>
<text text-anchor="middle" x="257.62" y="-130.5" font-family="Helvetica,sans-Serif" font-size="10.00">_al.cpp</text>
</a>
</g>
</g>
<!-- Node2&#45;&gt;Node10 -->
<g id="edge9_Node000002_Node000010" class="edge">
<title>Node2&#45;&gt;Node10</title>
<g id="a_edge9_Node000002_Node000010"><a xlink:title=" ">
<path fill="none" stroke="#63b8ff" d="M391.7,-187.82C363.18,-177.86 328.79,-165.85 301.99,-156.49"/>
<polygon fill="#63b8ff" stroke="#63b8ff" points="390.29,-191.03 400.88,-191.03 392.6,-184.43 390.29,-191.03"/>
</a>
</g>
</g>
<!-- Node4 -->
<g id="Node000004" class="node">
<title>Node4</title>
<g id="a_Node000004"><a xlink:href="../../df/d01/source_2adjacency__list__io__read_8cpp.html" target="_top" xlink:title="Implementation of ogxx::io::read function for Adjacency_list.">
<polygon fill="white" stroke="#666666" points="318.88,-88 208.38,-88 208.38,-56 318.88,-56 318.88,-88"/>
<text text-anchor="start" x="216.38" y="-74.5" font-family="Helvetica,sans-Serif" font-size="10.00">source/adjacency_list</text>
<text text-anchor="middle" x="263.62" y="-62.5" font-family="Helvetica,sans-Serif" font-size="10.00">_io_read.cpp</text>
</a>
</g>
</g>
<!-- Node3&#45;&gt;Node4 -->
<g id="edge3_Node000003_Node000004" class="edge">
<title>Node3&#45;&gt;Node4</title>
<g id="a_edge3_Node000003_Node000004"><a xlink:title=" ">
<path fill="none" stroke="#63b8ff" d="M349.24,-118.2C330.94,-108.54 309.56,-97.26 292.75,-88.38"/>
<polygon fill="#63b8ff" stroke="#63b8ff" points="347.5,-121.25 357.98,-122.82 350.77,-115.05 347.5,-121.25"/>
</a>
</g>
</g>
<!-- Node5 -->
<g id="Node000005" class="node">
<title>Node5</title>
<g id="a_Node000005"><a xlink:href="../../d0/d40/tests_2adjacency__list__io__read_8cpp.html" target="_top" xlink:title="Adjacency list io::read function tests.">
<polygon fill="white" stroke="#666666" points="440.12,-88 337.12,-88 337.12,-56 440.12,-56 440.12,-88"/>
<text text-anchor="start" x="345.12" y="-74.5" font-family="Helvetica,sans-Serif" font-size="10.00">tests/adjacency_list</text>
<text text-anchor="middle" x="388.62" y="-62.5" font-family="Helvetica,sans-Serif" font-size="10.00">_io_read.cpp</text>
</a>
</g>
</g>
<!-- Node3&#45;&gt;Node5 -->
<g id="edge4_Node000003_Node000005" class="edge">
<title>Node3&#45;&gt;Node5</title>
<g id="a_edge4_Node000003_Node000005"><a xlink:title=" ">
<path fill="none" stroke="#63b8ff" d="M388.62,-112.31C388.62,-104.12 388.62,-95.38 388.62,-88.22"/>
<polygon fill="#63b8ff" stroke="#63b8ff" points="385.13,-112.18 388.63,-122.18 392.13,-112.18 385.13,-112.18"/>
</a>
</g>
</g>
<!-- Node6 -->
<g id="Node000006" class="node">
<title>Node6</title>
<g id="a_Node000006"><a xlink:href="../../da/d4a/build__all_8cpp.html" target="_top" xlink:title="Include all test files here to build them at once.">
<polygon fill="white" stroke="#666666" points="266,-20 171.25,-20 171.25,0 266,0 266,-20"/>
<text text-anchor="middle" x="218.62" y="-6.5" font-family="Helvetica,sans-Serif" font-size="10.00">tests/build_all.cpp</text>
</a>
</g>
</g>
<!-- Node5&#45;&gt;Node6 -->
<g id="edge5_Node000005_Node000006" class="edge">
<title>Node5&#45;&gt;Node6</title>
<g id="a_edge5_Node000005_Node000006"><a xlink:title=" ">
<path fill="none" stroke="#63b8ff" d="M334.23,-51.8C304.61,-41.35 269.27,-28.88 245.53,-20.5"/>
<polygon fill="#63b8ff" stroke="#63b8ff" points="332.82,-55.02 343.42,-55.04 335.15,-48.42 332.82,-55.02"/>
</a>
</g>
</g>
<!-- Node12&#45;&gt;Node8 -->
<g id="edge12_Node000012_Node000008" class="edge">
<title>Node12&#45;&gt;Node8</title>
<g id="a_edge12_Node000012_Node000008"><a xlink:title=" ">
<path fill="none" stroke="#63b8ff" d="M700.93,-193.61C735.72,-180.79 787.34,-161.75 818.03,-150.44"/>
<polygon fill="#63b8ff" stroke="#63b8ff" points="699.86,-190.28 691.69,-197.02 702.28,-196.84 699.86,-190.28"/>
</a>
</g>
</g>
<!-- Node13 -->
<g id="Node000013" class="node">
<title>Node13</title>
<g id="a_Node000013"><a xlink:href="../../de/d57/index__set__bitvector_8cpp.html" target="_top" xlink:title="Defining interfaces for bitvector.">
<polygon fill="white" stroke="#666666" points="731.75,-150 581.5,-150 581.5,-130 731.75,-130 731.75,-150"/>
<text text-anchor="middle" x="656.62" y="-136.5" font-family="Helvetica,sans-Serif" font-size="10.00">source/index_set_bitvector.cpp</text>
</a>
</g>
</g>
<!-- Node12&#45;&gt;Node13 -->
<g id="edge13_Node000012_Node000013" class="edge">
<title>Node12&#45;&gt;Node13</title>
<g id="a_edge13_Node000012_Node000013"><a xlink:title=" ">
<path fill="none" stroke="#63b8ff" d="M662.11,-186.28C660.66,-174.27 658.9,-159.74 657.77,-150.44"/>
<polygon fill="#63b8ff" stroke="#63b8ff" points="658.62,-186.54 663.3,-196.04 665.57,-185.69 658.62,-186.54"/>
</a>
</g>
</g>
<!-- Node14&#45;&gt;Node8 -->
<g id="edge15_Node000014_Node000008" class="edge">
<title>Node14&#45;&gt;Node8</title>
<g id="a_edge15_Node000014_Node000008"><a xlink:title=" ">
<path fill="none" stroke="#63b8ff" d="M838.14,-186.28C839.59,-174.27 841.35,-159.74 842.48,-150.44"/>
<polygon fill="#63b8ff" stroke="#63b8ff" points="834.68,-185.69 836.95,-196.04 841.63,-186.54 834.68,-185.69"/>
</a>
</g>
</g>
<!-- Node15 -->
<g id="Node000015" class="node">
<title>Node15</title>
<g id="a_Node000015"><a xlink:href="../../da/d7f/index__set__hashtable_8cpp.html" target="_top" xlink:title="index_set_hashtable.hpp implementation">
<polygon fill="white" stroke="#666666" points="1111.75,-150 955.5,-150 955.5,-130 1111.75,-130 1111.75,-150"/>
<text text-anchor="middle" x="1033.62" y="-136.5" font-family="Helvetica,sans-Serif" font-size="10.00">source/index_set_hashtable.cpp</text>
</a>
</g>
</g>
<!-- Node14&#45;&gt;Node15 -->
<g id="edge16_Node000014_Node000015" class="edge">
<title>Node14&#45;&gt;Node15</title>
<g id="a_edge16_Node000014_Node000015"><a xlink:title=" ">
<path fill="none" stroke="#63b8ff" d="M874.79,-193.95C913.27,-181.12 971.08,-161.85 1005.31,-150.44"/>
<polygon fill="#63b8ff" stroke="#63b8ff" points="873.81,-190.58 865.43,-197.07 876.02,-197.22 873.81,-190.58"/>
</a>
</g>
</g>
<!-- Node16&#45;&gt;Node8 -->
<g id="edge18_Node000016_Node000008" class="edge">
<title>Node16&#45;&gt;Node8</title>
<g id="a_edge18_Node000016_Node000008"><a xlink:title=" ">
<path fill="none" stroke="#63b8ff" d="M980.31,-193.45C946.88,-180.62 897.58,-161.7 868.22,-150.44"/>
<polygon fill="#63b8ff" stroke="#63b8ff" points="978.98,-196.69 989.57,-197 981.49,-190.15 978.98,-196.69"/>
</a>
</g>
</g>
<!-- Node17 -->
<g id="Node000017" class="node">
<title>Node17</title>
<g id="a_Node000017"><a xlink:href="../../d4/d0c/source_2index__set__sortedvector_8cpp.html" target="_top" xlink:title="Index_set implemented via sorted vector.">
<polygon fill="white" stroke="#666666" points="1297,-150 1130.25,-150 1130.25,-130 1297,-130 1297,-150"/>
<text text-anchor="middle" x="1213.62" y="-136.5" font-family="Helvetica,sans-Serif" font-size="10.00">source/index_set_sortedvector.cpp</text>
</a>
</g>
</g>
<!-- Node16&#45;&gt;Node17 -->
<g id="edge19_Node000016_Node000017" class="edge">
<title>Node16&#45;&gt;Node17</title>
<g id="a_edge19_Node000016_Node000017"><a xlink:title=" ">
<path fill="none" stroke="#63b8ff" d="M1054.79,-193.95C1093.27,-181.12 1151.08,-161.85 1185.31,-150.44"/>
<polygon fill="#63b8ff" stroke="#63b8ff" points="1053.81,-190.58 1045.43,-197.07 1056.02,-197.22 1053.81,-190.58"/>
</a>
</g>
</g>
<!-- Node18&#45;&gt;Node6 -->
<g id="edge21_Node000018_Node000006" class="edge">
<title>Node18&#45;&gt;Node6</title>
<g id="a_edge21_Node000018_Node000006"><a xlink:title=" ">
<path fill="none" stroke="#63b8ff" d="M111.89,-57.07C138.07,-45.77 174.27,-30.15 197.06,-20.31"/>
<polygon fill="#63b8ff" stroke="#63b8ff" points="110.53,-53.85 102.73,-61.03 113.3,-60.28 110.53,-53.85"/>
</a>
</g>
</g>
</g>
</svg>
