<?xml version="1.0" encoding="UTF-8" standalone="no"?>
<!DOCTYPE svg PUBLIC "-//W3C//DTD SVG 1.1//EN"
 "http://www.w3.org/Graphics/SVG/1.1/DTD/svg11.dtd">
<!-- Generated by graphviz version 9.0.0 (20230911.1827)
 -->
<!-- Title: ogxx::Adjacency_list Pages: 1 -->
<svg width="236pt" height="344pt"
 viewBox="0.00 0.00 236.25 344.00" xmlns="http://www.w3.org/2000/svg" xmlns:xlink="http://www.w3.org/1999/xlink">
<g id="graph0" class="graph" transform="scale(1 1) rotate(0) translate(4 340)">
<title>ogxx::Adjacency_list</title>
<!-- Node1 -->
<g id="Node000001" class="node">
<title>Node1</title>
<g id="a_Node000001"><a xlink:title="Graph representation where, which maps vertex index to the adjacency of that vertex.">
<polygon fill="#999999" stroke="#666666" points="171.12,-88 64.38,-88 64.38,-68 171.12,-68 171.12,-88"/>
<text text-anchor="middle" x="117.75" y="-74.5" font-family="Helvetica,sans-Serif" font-size="10.00">ogxx::Adjacency_list</text>
</a>
</g>
</g>
<!-- Node7 -->
<g id="Node000007" class="node">
<title>Node7</title>
<g id="a_Node000007"><a xlink:href="../../d4/dae/classogxx_1_1_adjacency__list__vector.html" target="_top" xlink:title=" ">
<polygon fill="white" stroke="#666666" points="171.12,-32 64.38,-32 64.38,0 171.12,0 171.12,-32"/>
<text text-anchor="start" x="72.38" y="-18.5" font-family="Helvetica,sans-Serif" font-size="10.00">ogxx::Adjacency_list</text>
<text text-anchor="middle" x="117.75" y="-6.5" font-family="Helvetica,sans-Serif" font-size="10.00">_vector</text>
</a>
</g>
</g>
<!-- Node1&#45;&gt;Node7 -->
<g id="edge7_Node000001_Node000007" class="edge">
<title>Node1&#45;&gt;Node7</title>
<g id="a_edge7_Node000001_Node000007"><a xlink:title=" ">
<path fill="none" stroke="#63b8ff" d="M111.3,-56.31C110.77,-48.37 110.94,-39.46 111.8,-32.14"/>
<polygon fill="#63b8ff" stroke="#63b8ff" points="107.81,-56.62 112.5,-66.12 114.76,-55.77 107.81,-56.62"/>
</a>
</g>
</g>
<!-- Node1&#45;&gt;Node7 -->
<g id="edge8_Node000001_Node000007" class="edge">
<title>Node1&#45;&gt;Node7</title>
<g id="a_edge8_Node000001_Node000007"><a xlink:title=" ">
<path fill="none" stroke="#63b8ff" d="M124.2,-56.31C124.73,-48.37 124.56,-39.46 123.7,-32.14"/>
<polygon fill="#63b8ff" stroke="#63b8ff" points="120.74,-55.77 123,-66.12 127.69,-56.62 120.74,-55.77"/>
</a>
</g>
</g>
<!-- Node2 -->
<g id="Node000002" class="node">
<title>Node2</title>
<g id="a_Node000002"><a xlink:href="../../d8/d68/classogxx_1_1_list.html" target="_top" xlink:title=" ">
<polygon fill="white" stroke="#666666" points="179,-144 56.5,-144 56.5,-124 179,-124 179,-144"/>
<text text-anchor="middle" x="117.75" y="-130.5" font-family="Helvetica,sans-Serif" font-size="10.00">ogxx::List&lt; Adjacency &gt;</text>
</a>
</g>
</g>
<!-- Node2&#45;&gt;Node1 -->
<g id="edge1_Node000001_Node000002" class="edge">
<title>Node2&#45;&gt;Node1</title>
<g id="a_edge1_Node000001_Node000002"><a xlink:title=" ">
<path fill="none" stroke="#63b8ff" d="M117.75,-112.13C117.75,-103.9 117.75,-94.85 117.75,-88.3"/>
<polygon fill="#63b8ff" stroke="#63b8ff" points="114.25,-112.08 117.75,-122.08 121.25,-112.08 114.25,-112.08"/>
</a>
</g>
</g>
<!-- Node3 -->
<g id="Node000003" class="node">
<title>Node3</title>
<g id="a_Node000003"><a xlink:href="../../d2/d20/classogxx_1_1_indexed__iterable.html" target="_top" xlink:title="Finally, the linear zero&#45;based integer&#45;indexed iterable collection.">
<polygon fill="white" stroke="#666666" points="113.5,-212 0,-212 0,-180 113.5,-180 113.5,-212"/>
<text text-anchor="start" x="8" y="-198.5" font-family="Helvetica,sans-Serif" font-size="10.00">ogxx::Indexed_iterable</text>
<text text-anchor="middle" x="56.75" y="-186.5" font-family="Helvetica,sans-Serif" font-size="10.00">&lt; Item &gt;</text>
</a>
</g>
</g>
<!-- Node3&#45;&gt;Node2 -->
<g id="edge2_Node000002_Node000003" class="edge">
<title>Node3&#45;&gt;Node2</title>
<g id="a_edge2_Node000002_Node000003"><a xlink:title=" ">
<path fill="none" stroke="#63b8ff" d="M80.58,-171.56C90.22,-162.08 100.79,-151.68 108.19,-144.41"/>
<polygon fill="#63b8ff" stroke="#63b8ff" points="78.21,-168.98 73.54,-178.49 83.12,-173.97 78.21,-168.98"/>
</a>
</g>
</g>
<!-- Node4 -->
<g id="Node000004" class="node">
<title>Node4</title>
<g id="a_Node000004"><a xlink:href="../../d9/d72/classogxx_1_1_sized__iterable.html" target="_top" xlink:title="Not only iterable but we know in advance, how many items it contains.">
<polygon fill="white" stroke="#666666" points="170,-280 65.5,-280 65.5,-248 170,-248 170,-280"/>
<text text-anchor="start" x="73.5" y="-266.5" font-family="Helvetica,sans-Serif" font-size="10.00">ogxx::Sized_iterable</text>
<text text-anchor="middle" x="117.75" y="-254.5" font-family="Helvetica,sans-Serif" font-size="10.00">&lt; Item &gt;</text>
</a>
</g>
</g>
<!-- Node4&#45;&gt;Node3 -->
<g id="edge3_Node000003_Node000004" class="edge">
<title>Node4&#45;&gt;Node3</title>
<g id="a_edge3_Node000003_Node000004"><a xlink:title=" ">
<path fill="none" stroke="#63b8ff" d="M95.97,-239.43C87.6,-230.38 78.28,-220.29 70.82,-212.22"/>
<polygon fill="#63b8ff" stroke="#63b8ff" points="93.22,-241.61 102.57,-246.58 98.36,-236.86 93.22,-241.61"/>
</a>
</g>
</g>
<!-- Node6 -->
<g id="Node000006" class="node">
<title>Node6</title>
<g id="a_Node000006"><a xlink:href="../../d2/d24/classogxx_1_1_bag.html" target="_top" xlink:title="Generic container interface with inserts and erases but no fixed ordering of items.">
<polygon fill="white" stroke="#666666" points="228.25,-206 131.25,-206 131.25,-186 228.25,-186 228.25,-206"/>
<text text-anchor="middle" x="179.75" y="-192.5" font-family="Helvetica,sans-Serif" font-size="10.00">ogxx::Bag&lt; Item &gt;</text>
</a>
</g>
</g>
<!-- Node4&#45;&gt;Node6 -->
<g id="edge6_Node000006_Node000004" class="edge">
<title>Node4&#45;&gt;Node6</title>
<g id="a_edge6_Node000006_Node000004"><a xlink:title=" ">
<path fill="none" stroke="#63b8ff" d="M139.94,-239.37C150.68,-227.95 162.95,-214.88 171,-206.32"/>
<polygon fill="#63b8ff" stroke="#63b8ff" points="137.46,-236.9 133.17,-246.59 142.56,-241.7 137.46,-236.9"/>
</a>
</g>
</g>
<!-- Node5 -->
<g id="Node000005" class="node">
<title>Node5</title>
<g id="a_Node000005"><a xlink:href="../../d8/d9b/classogxx_1_1_iterable.html" target="_top" xlink:title="An interface for an object that can be iterated with an iterator.">
<polygon fill="white" stroke="#666666" points="173.38,-336 62.12,-336 62.12,-316 173.38,-316 173.38,-336"/>
<text text-anchor="middle" x="117.75" y="-322.5" font-family="Helvetica,sans-Serif" font-size="10.00">ogxx::Iterable&lt; Item &gt;</text>
</a>
</g>
</g>
<!-- Node5&#45;&gt;Node4 -->
<g id="edge4_Node000004_Node000005" class="edge">
<title>Node5&#45;&gt;Node4</title>
<g id="a_edge4_Node000004_Node000005"><a xlink:title=" ">
<path fill="none" stroke="#63b8ff" d="M117.75,-304.31C117.75,-296.37 117.75,-287.46 117.75,-280.14"/>
<polygon fill="#63b8ff" stroke="#63b8ff" points="114.25,-304.11 117.75,-314.11 121.25,-304.11 114.25,-304.11"/>
</a>
</g>
</g>
<!-- Node6&#45;&gt;Node2 -->
<g id="edge5_Node000002_Node000006" class="edge">
<title>Node6&#45;&gt;Node2</title>
<g id="a_edge5_Node000002_Node000006"><a xlink:title=" ">
<path fill="none" stroke="#63b8ff" d="M162.08,-177.9C150.72,-166.91 136.4,-153.05 127.17,-144.11"/>
<polygon fill="#63b8ff" stroke="#63b8ff" points="159.35,-180.13 168.97,-184.57 164.22,-175.1 159.35,-180.13"/>
</a>
</g>
</g>
</g>
</svg>
