<?xml version="1.0" encoding="UTF-8" standalone="no"?>
<!DOCTYPE svg PUBLIC "-//W3C//DTD SVG 1.1//EN"
 "http://www.w3.org/Graphics/SVG/1.1/DTD/svg11.dtd">
<!-- Generated by graphviz version 9.0.0 (20230911.1827)
 -->
<!-- Title: source/index_set_sortedvector.hpp Pages: 1 -->
<svg width="380pt" height="84pt"
 viewBox="0.00 0.00 380.25 84.00" xmlns="http://www.w3.org/2000/svg" xmlns:xlink="http://www.w3.org/1999/xlink">
<g id="graph0" class="graph" transform="scale(1 1) rotate(0) translate(4 80)">
<title>source/index_set_sortedvector.hpp</title>
<!-- Node1 -->
<g id="Node000001" class="node">
<title>Node1</title>
<g id="a_Node000001"><a xlink:title="Index_set implementation based upon a sorted vector of set elements.">
<polygon fill="#999999" stroke="#666666" points="274.25,-76 107.5,-76 107.5,-56 274.25,-56 274.25,-76"/>
<text text-anchor="middle" x="190.88" y="-62.5" font-family="Helvetica,sans-Serif" font-size="10.00">source/index_set_sortedvector.hpp</text>
</a>
</g>
</g>
<!-- Node2 -->
<g id="Node000002" class="node">
<title>Node2</title>
<g id="a_Node000002"><a xlink:href="../../d6/dda/adjacency__implementations_8cpp.html" target="_top" xlink:title="ogxx::Adjacency implementations based upon different Index_set implementations">
<polygon fill="white" stroke="#666666" points="187.75,-20 0,-20 0,0 187.75,0 187.75,-20"/>
<text text-anchor="middle" x="93.88" y="-6.5" font-family="Helvetica,sans-Serif" font-size="10.00">source/adjacency_implementations.cpp</text>
</a>
</g>
</g>
<!-- Node1&#45;&gt;Node2 -->
<g id="edge1_Node000001_Node000002" class="edge">
<title>Node1&#45;&gt;Node2</title>
<g id="a_edge1_Node000001_Node000002"><a xlink:title=" ">
<path fill="none" stroke="#63b8ff" d="M164.07,-50.08C147.08,-40.62 125.6,-28.66 110.9,-20.48"/>
<polygon fill="#63b8ff" stroke="#63b8ff" points="162.22,-53.05 172.66,-54.86 165.62,-46.94 162.22,-53.05"/>
</a>
</g>
</g>
<!-- Node3 -->
<g id="Node000003" class="node">
<title>Node3</title>
<g id="a_Node000003"><a xlink:href="../../d4/d0c/source_2index__set__sortedvector_8cpp.html" target="_top" xlink:title="Index_set implemented via sorted vector.">
<polygon fill="white" stroke="#666666" points="372.25,-20 205.5,-20 205.5,0 372.25,0 372.25,-20"/>
<text text-anchor="middle" x="288.88" y="-6.5" font-family="Helvetica,sans-Serif" font-size="10.00">source/index_set_sortedvector.cpp</text>
</a>
</g>
</g>
<!-- Node1&#45;&gt;Node3 -->
<g id="edge2_Node000001_Node000003" class="edge">
<title>Node1&#45;&gt;Node3</title>
<g id="a_edge2_Node000001_Node000003"><a xlink:title=" ">
<path fill="none" stroke="#63b8ff" d="M217.95,-50.08C235.13,-40.62 256.83,-28.66 271.67,-20.48"/>
<polygon fill="#63b8ff" stroke="#63b8ff" points="216.34,-46.97 209.27,-54.86 219.72,-53.1 216.34,-46.97"/>
</a>
</g>
</g>
</g>
</svg>
