<?xml version="1.0" encoding="UTF-8" standalone="no"?>
<!DOCTYPE svg PUBLIC "-//W3C//DTD SVG 1.1//EN"
 "http://www.w3.org/Graphics/SVG/1.1/DTD/svg11.dtd">
<!-- Generated by graphviz version 9.0.0 (20230911.1827)
 -->
<!-- Title: Graphical Class Hierarchy Pages: 1 -->
<svg width="279pt" height="90pt"
 viewBox="0.00 0.00 279.25 90.00" xmlns="http://www.w3.org/2000/svg" xmlns:xlink="http://www.w3.org/1999/xlink">
<g id="graph0" class="graph" transform="scale(1 1) rotate(0) translate(4 86)">
<title>Graphical Class Hierarchy</title>
<!-- Node0 -->
<g id="Node000000" class="node">
<title>Node0</title>
<g id="a_Node000000"><a xlink:href="de/d37/classogxx_1_1_graph__view.html" target="_top" xlink:title="Generic graph interface to provide a common facade over concrete graph representations.">
<polygon fill="white" stroke="#666666" points="92.5,-51 0,-51 0,-31 92.5,-31 92.5,-51"/>
<text text-anchor="middle" x="46.25" y="-37.5" font-family="Helvetica,sans-Serif" font-size="10.00">ogxx::Graph_view</text>
</a>
</g>
</g>
<!-- Node1 -->
<g id="Node000001" class="node">
<title>Node1</title>
<g id="a_Node000001"><a xlink:href="dd/dde/classogxx_1_1_graph__view__directed__edge__list.html" target="_top" xlink:title=" ">
<polygon fill="white" stroke="#666666" points="266,-82 133.75,-82 133.75,-50 266,-50 266,-82"/>
<text text-anchor="start" x="141.75" y="-68.5" font-family="Helvetica,sans-Serif" font-size="10.00">ogxx::Graph_view_directed</text>
<text text-anchor="middle" x="199.88" y="-56.5" font-family="Helvetica,sans-Serif" font-size="10.00">_edge_list</text>
</a>
</g>
</g>
<!-- Node0&#45;&gt;Node1 -->
<g id="edge4_Node000000_Node000001" class="edge">
<title>Node0&#45;&gt;Node1</title>
<g id="a_edge4_Node000000_Node000001"><a xlink:title=" ">
<path fill="none" stroke="#63b8ff" d="M103.85,-50.33C113.52,-51.93 123.64,-53.59 133.52,-55.22"/>
<polygon fill="#63b8ff" stroke="#63b8ff" points="104.67,-46.92 94.24,-48.75 103.53,-53.83 104.67,-46.92"/>
</a>
</g>
</g>
<!-- Node2 -->
<g id="Node000002" class="node">
<title>Node2</title>
<g id="a_Node000002"><a xlink:href="de/dcc/classogxx_1_1_graph__view__undirected__adjacency__matrix.html" target="_top" xlink:title=" ">
<polygon fill="white" stroke="#666666" points="271.25,-32 128.5,-32 128.5,0 271.25,0 271.25,-32"/>
<text text-anchor="start" x="136.5" y="-18.5" font-family="Helvetica,sans-Serif" font-size="10.00">ogxx::Graph_view_undirected</text>
<text text-anchor="middle" x="199.88" y="-6.5" font-family="Helvetica,sans-Serif" font-size="10.00">_adjacency_matrix</text>
</a>
</g>
</g>
<!-- Node0&#45;&gt;Node2 -->
<g id="edge5_Node000000_Node000002" class="edge">
<title>Node0&#45;&gt;Node2</title>
<g id="a_edge5_Node000000_Node000002"><a xlink:title=" ">
<path fill="none" stroke="#63b8ff" d="M104.03,-31.64C111.91,-30.34 120.08,-28.99 128.17,-27.66"/>
<polygon fill="#63b8ff" stroke="#63b8ff" points="103.53,-28.17 94.24,-33.25 104.67,-35.08 103.53,-28.17"/>
</a>
</g>
</g>
</g>
</svg>
