<?xml version="1.0" encoding="UTF-8" standalone="no"?>
<!DOCTYPE svg PUBLIC "-//W3C//DTD SVG 1.1//EN"
 "http://www.w3.org/Graphics/SVG/1.1/DTD/svg11.dtd">
<!-- Generated by graphviz version 9.0.0 (20230911.1827)
 -->
<!-- Title: Graphical Class Hierarchy Pages: 1 -->
<svg width="273pt" height="78pt"
 viewBox="0.00 0.00 272.50 78.00" xmlns="http://www.w3.org/2000/svg" xmlns:xlink="http://www.w3.org/1999/xlink">
<g id="graph0" class="graph" transform="scale(1 1) rotate(0) translate(4 74)">
<title>Graphical Class Hierarchy</title>
<!-- Node0 -->
<g id="Node000000" class="node">
<title>Node0</title>
<g id="a_Node000000"><a xlink:href="dc/d8e/classogxx_1_1_basic__iterator.html" target="_top" xlink:title="Generic iterator for traversing a sequence of items of a small easily&#45;copyable or movable type.">
<polygon fill="white" stroke="#666666" points="103,-54 0,-54 0,-22 103,-22 103,-54"/>
<text text-anchor="start" x="8" y="-40.5" font-family="Helvetica,sans-Serif" font-size="10.00">ogxx::Basic_iterator</text>
<text text-anchor="middle" x="51.5" y="-28.5" font-family="Helvetica,sans-Serif" font-size="10.00">&lt; Item &gt;</text>
</a>
</g>
</g>
<!-- Node1 -->
<g id="Node000001" class="node">
<title>Node1</title>
<g id="a_Node000001"><a xlink:href="d8/d8c/classogxx_1_1_dense__bit__iterator.html" target="_top" xlink:title=" ">
<polygon fill="white" stroke="#666666" points="262.62,-70 140.88,-70 140.88,-50 262.62,-50 262.62,-70"/>
<text text-anchor="middle" x="201.75" y="-56.5" font-family="Helvetica,sans-Serif" font-size="10.00">ogxx::Dense_bit_iterator</text>
</a>
</g>
</g>
<!-- Node0&#45;&gt;Node1 -->
<g id="edge1_Node000000_Node000001" class="edge">
<title>Node0&#45;&gt;Node1</title>
<g id="a_edge1_Node000000_Node000001"><a xlink:title=" ">
<path fill="none" stroke="#63b8ff" d="M114.28,-47.17C122.92,-48.45 131.78,-49.77 140.39,-51.04"/>
<polygon fill="#63b8ff" stroke="#63b8ff" points="115.01,-43.74 104.6,-45.73 113.98,-50.66 115.01,-43.74"/>
</a>
</g>
</g>
<!-- Node2 -->
<g id="Node000002" class="node">
<title>Node2</title>
<g id="a_Node000002"><a xlink:href="d4/d4c/classogxx_1_1_edge__list__neighbor__iterator.html" target="_top" xlink:title=" ">
<polygon fill="white" stroke="#666666" points="264.5,-32 139,-32 139,0 264.5,0 264.5,-32"/>
<text text-anchor="start" x="147" y="-18.5" font-family="Helvetica,sans-Serif" font-size="10.00">ogxx::Edge_list_neighbor</text>
<text text-anchor="middle" x="201.75" y="-6.5" font-family="Helvetica,sans-Serif" font-size="10.00">_iterator</text>
</a>
</g>
</g>
<!-- Node0&#45;&gt;Node2 -->
<g id="edge2_Node000000_Node000002" class="edge">
<title>Node0&#45;&gt;Node2</title>
<g id="a_edge2_Node000000_Node000002"><a xlink:title=" ">
<path fill="none" stroke="#63b8ff" d="M114.28,-28.83C122.31,-27.64 130.54,-26.42 138.57,-25.23"/>
<polygon fill="#63b8ff" stroke="#63b8ff" points="113.98,-25.34 104.6,-30.27 115.01,-32.26 113.98,-25.34"/>
</a>
</g>
</g>
</g>
</svg>
