<?xml version="1.0" encoding="UTF-8" standalone="no"?>
<!DOCTYPE svg PUBLIC "-//W3C//DTD SVG 1.1//EN"
 "http://www.w3.org/Graphics/SVG/1.1/DTD/svg11.dtd">
<!-- Generated by graphviz version 9.0.0 (20230911.1827)
 -->
<!-- Title: Graphical Class Hierarchy Pages: 1 -->
<svg width="896pt" height="615pt"
 viewBox="0.00 0.00 896.00 615.00" xmlns="http://www.w3.org/2000/svg" xmlns:xlink="http://www.w3.org/1999/xlink">
<g id="graph0" class="graph" transform="scale(1 1) rotate(0) translate(4 611)">
<title>Graphical Class Hierarchy</title>
<!-- Node0 -->
<g id="Node000000" class="node">
<title>Node0</title>
<g id="a_Node000000"><a xlink:href="d8/d9b/classogxx_1_1_iterable.html" target="_top" xlink:title="An interface for an object that can be iterated with an iterator.">
<polygon fill="white" stroke="#666666" points="111.25,-438 0,-438 0,-418 111.25,-418 111.25,-438"/>
<text text-anchor="middle" x="55.62" y="-424.5" font-family="Helvetica,sans-Serif" font-size="10.00">ogxx::Iterable&lt; Item &gt;</text>
</a>
</g>
</g>
<!-- Node1 -->
<g id="Node000001" class="node">
<title>Node1</title>
<g id="a_Node000001"><a xlink:href="d9/d72/classogxx_1_1_sized__iterable.html" target="_top" xlink:title=" ">
<polygon fill="white" stroke="#666666" points="253.62,-419 149.12,-419 149.12,-387 253.62,-387 253.62,-419"/>
<text text-anchor="start" x="157.12" y="-405.5" font-family="Helvetica,sans-Serif" font-size="10.00">ogxx::Sized_iterable</text>
<text text-anchor="middle" x="201.38" y="-393.5" font-family="Helvetica,sans-Serif" font-size="10.00">&lt; Scalar_index &gt;</text>
</a>
</g>
</g>
<!-- Node0&#45;&gt;Node1 -->
<g id="edge6_Node000000_Node000001" class="edge">
<title>Node0&#45;&gt;Node1</title>
<g id="a_edge6_Node000000_Node000001"><a xlink:title=" ">
<path fill="none" stroke="#63b8ff" d="M122.55,-416.53C131.46,-414.99 140.49,-413.42 149.08,-411.92"/>
<polygon fill="#63b8ff" stroke="#63b8ff" points="122.12,-413.06 112.87,-418.22 123.32,-419.95 122.12,-413.06"/>
</a>
</g>
</g>
<!-- Node21 -->
<g id="Node000021" class="node">
<title>Node21</title>
<g id="a_Node000021"><a xlink:href="d9/d72/classogxx_1_1_sized__iterable.html" target="_top" xlink:title=" ">
<polygon fill="white" stroke="#666666" points="253.62,-607 149.12,-607 149.12,-575 253.62,-575 253.62,-607"/>
<text text-anchor="start" x="157.12" y="-593.5" font-family="Helvetica,sans-Serif" font-size="10.00">ogxx::Sized_iterable</text>
<text text-anchor="middle" x="201.38" y="-581.5" font-family="Helvetica,sans-Serif" font-size="10.00">&lt; Adjacency &gt;</text>
</a>
</g>
</g>
<!-- Node0&#45;&gt;Node21 -->
<g id="edge10_Node000000_Node000021" class="edge">
<title>Node0&#45;&gt;Node21</title>
<g id="a_edge10_Node000000_Node000021"><a xlink:title=" ">
<path fill="none" stroke="#63b8ff" d="M65.72,-448.71C79.57,-478.17 108.46,-532.33 147.25,-566 150.95,-569.21 155.12,-572.09 159.47,-574.66"/>
<polygon fill="#63b8ff" stroke="#63b8ff" points="68.98,-447.42 61.65,-439.77 62.61,-450.32 68.98,-447.42"/>
</a>
</g>
</g>
<!-- Node22 -->
<g id="Node000022" class="node">
<title>Node22</title>
<g id="a_Node000022"><a xlink:href="d9/d72/classogxx_1_1_sized__iterable.html" target="_top" xlink:title=" ">
<polygon fill="white" stroke="#666666" points="253.62,-557 149.12,-557 149.12,-525 253.62,-525 253.62,-557"/>
<text text-anchor="start" x="157.12" y="-543.5" font-family="Helvetica,sans-Serif" font-size="10.00">ogxx::Sized_iterable</text>
<text text-anchor="middle" x="201.38" y="-531.5" font-family="Helvetica,sans-Serif" font-size="10.00">&lt; bool &gt;</text>
</a>
</g>
</g>
<!-- Node0&#45;&gt;Node22 -->
<g id="edge11_Node000000_Node000022" class="edge">
<title>Node0&#45;&gt;Node22</title>
<g id="a_edge11_Node000000_Node000022"><a xlink:title=" ">
<path fill="none" stroke="#63b8ff" d="M72.63,-446.86C89.66,-466.08 118.11,-495.84 147.25,-516 151.69,-519.07 156.57,-521.95 161.52,-524.57"/>
<polygon fill="#63b8ff" stroke="#63b8ff" points="75.43,-444.75 66.23,-439.5 70.15,-449.35 75.43,-444.75"/>
</a>
</g>
</g>
<!-- Node31 -->
<g id="Node000031" class="node">
<title>Node31</title>
<g id="a_Node000031"><a xlink:href="d9/d72/classogxx_1_1_sized__iterable.html" target="_top" xlink:title=" ">
<polygon fill="white" stroke="#666666" points="253.62,-331 149.12,-331 149.12,-299 253.62,-299 253.62,-331"/>
<text text-anchor="start" x="157.12" y="-317.5" font-family="Helvetica,sans-Serif" font-size="10.00">ogxx::Sized_iterable</text>
<text text-anchor="middle" x="201.38" y="-305.5" font-family="Helvetica,sans-Serif" font-size="10.00">&lt; Vertex_pair &gt;</text>
</a>
</g>
</g>
<!-- Node0&#45;&gt;Node31 -->
<g id="edge15_Node000000_Node000031" class="edge">
<title>Node0&#45;&gt;Node31</title>
<g id="a_edge15_Node000000_Node000031"><a xlink:title=" ">
<path fill="none" stroke="#63b8ff" d="M72.63,-409.14C89.66,-389.92 118.11,-360.16 147.25,-340 151.69,-336.93 156.57,-334.05 161.52,-331.43"/>
<polygon fill="#63b8ff" stroke="#63b8ff" points="70.15,-406.65 66.23,-416.5 75.43,-411.25 70.15,-406.65"/>
</a>
</g>
</g>
<!-- Node30 -->
<g id="Node000030" class="node">
<title>Node30</title>
<g id="a_Node000030"><a xlink:href="d9/d72/classogxx_1_1_sized__iterable.html" target="_top" xlink:title=" ">
<polygon fill="white" stroke="#666666" points="253.62,-469 149.12,-469 149.12,-437 253.62,-437 253.62,-469"/>
<text text-anchor="start" x="157.12" y="-455.5" font-family="Helvetica,sans-Serif" font-size="10.00">ogxx::Sized_iterable</text>
<text text-anchor="middle" x="201.38" y="-443.5" font-family="Helvetica,sans-Serif" font-size="10.00">&lt; ST &gt;</text>
</a>
</g>
</g>
<!-- Node0&#45;&gt;Node30 -->
<g id="edge16_Node000000_Node000030" class="edge">
<title>Node0&#45;&gt;Node30</title>
<g id="a_edge16_Node000000_Node000030"><a xlink:title=" ">
<path fill="none" stroke="#63b8ff" d="M122.55,-439.47C131.46,-441.01 140.49,-442.58 149.08,-444.08"/>
<polygon fill="#63b8ff" stroke="#63b8ff" points="123.32,-436.05 112.87,-437.78 122.12,-442.94 123.32,-436.05"/>
</a>
</g>
</g>
<!-- Node8 -->
<g id="Node000008" class="node">
<title>Node8</title>
<g id="a_Node000008"><a xlink:href="d9/d72/classogxx_1_1_sized__iterable.html" target="_top" xlink:title="Not only iterable but we know in advance, how many items it contains.">
<polygon fill="white" stroke="#666666" points="253.62,-171 149.12,-171 149.12,-139 253.62,-139 253.62,-171"/>
<text text-anchor="start" x="157.12" y="-157.5" font-family="Helvetica,sans-Serif" font-size="10.00">ogxx::Sized_iterable</text>
<text text-anchor="middle" x="201.38" y="-145.5" font-family="Helvetica,sans-Serif" font-size="10.00">&lt; Item &gt;</text>
</a>
</g>
</g>
<!-- Node0&#45;&gt;Node8 -->
<g id="edge20_Node000000_Node000008" class="edge">
<title>Node0&#45;&gt;Node8</title>
<g id="a_edge20_Node000000_Node000008"><a xlink:title=" ">
<path fill="none" stroke="#63b8ff" d="M67.36,-407.61C94.78,-355.53 166.98,-218.42 191.83,-171.23"/>
<polygon fill="#63b8ff" stroke="#63b8ff" points="64.35,-405.81 62.79,-416.29 70.55,-409.07 64.35,-405.81"/>
</a>
</g>
</g>
<!-- Node2 -->
<g id="Node000002" class="node">
<title>Node2</title>
<g id="a_Node000002"><a xlink:href="d4/de1/classogxx_1_1_adjacency.html" target="_top" xlink:title="Representation of adjacent vertices of a vertex of a graph. Vertex degree is the size of the adjacenc...">
<polygon fill="white" stroke="#666666" points="402,-448 313.25,-448 313.25,-428 402,-428 402,-448"/>
<text text-anchor="middle" x="357.62" y="-434.5" font-family="Helvetica,sans-Serif" font-size="10.00">ogxx::Adjacency</text>
</a>
</g>
</g>
<!-- Node1&#45;&gt;Node2 -->
<g id="edge7_Node000001_Node000002" class="edge">
<title>Node1&#45;&gt;Node2</title>
<g id="a_edge7_Node000001_Node000002"><a xlink:title=" ">
<path fill="none" stroke="#63b8ff" d="M264.75,-417.15C280.92,-420.82 297.99,-424.69 312.96,-428.09"/>
<polygon fill="#63b8ff" stroke="#63b8ff" points="265.74,-413.79 255.21,-414.99 264.19,-420.62 265.74,-413.79"/>
</a>
</g>
</g>
<!-- Node4 -->
<g id="Node000004" class="node">
<title>Node4</title>
<g id="a_Node000004"><a xlink:href="dc/d31/classogxx_1_1_index__set__bitvector.html" target="_top" xlink:title=" ">
<polygon fill="white" stroke="#666666" points="420.75,-410 294.5,-410 294.5,-390 420.75,-390 420.75,-410"/>
<text text-anchor="middle" x="357.62" y="-396.5" font-family="Helvetica,sans-Serif" font-size="10.00">ogxx::Index_set_bitvector</text>
</a>
</g>
</g>
<!-- Node1&#45;&gt;Node4 -->
<g id="edge8_Node000001_Node000004" class="edge">
<title>Node1&#45;&gt;Node4</title>
<g id="a_edge8_Node000001_Node000004"><a xlink:title=" ">
<path fill="none" stroke="#63b8ff" d="M265.22,-401.78C274.79,-401.59 284.67,-401.4 294.23,-401.21"/>
<polygon fill="#63b8ff" stroke="#63b8ff" points="265.18,-398.28 255.25,-401.97 265.32,-405.28 265.18,-398.28"/>
</a>
</g>
</g>
<!-- Node5 -->
<g id="Node000005" class="node">
<title>Node5</title>
<g id="a_Node000005"><a xlink:href="d4/d22/classogxx_1_1_index__set__hashtable.html" target="_top" xlink:title=" ">
<polygon fill="white" stroke="#666666" points="423.75,-372 291.5,-372 291.5,-352 423.75,-352 423.75,-372"/>
<text text-anchor="middle" x="357.62" y="-358.5" font-family="Helvetica,sans-Serif" font-size="10.00">ogxx::Index_set_hashtable</text>
</a>
</g>
</g>
<!-- Node1&#45;&gt;Node5 -->
<g id="edge9_Node000001_Node000005" class="edge">
<title>Node1&#45;&gt;Node5</title>
<g id="a_edge9_Node000001_Node000005"><a xlink:title=" ">
<path fill="none" stroke="#63b8ff" d="M264.61,-386.46C282.37,-381.74 301.21,-376.73 317.2,-372.48"/>
<polygon fill="#63b8ff" stroke="#63b8ff" points="263.97,-383.01 255.2,-388.96 265.76,-389.77 263.97,-383.01"/>
</a>
</g>
</g>
<!-- Node23 -->
<g id="Node000023" class="node">
<title>Node23</title>
<g id="a_Node000023"><a xlink:href="d4/def/classogxx_1_1_bit__matrix.html" target="_top" xlink:title="Bit matrix interface. Iterating the matrix means going through all its elements in row&#45;major order.">
<polygon fill="white" stroke="#666666" points="401.25,-549 314,-549 314,-529 401.25,-529 401.25,-549"/>
<text text-anchor="middle" x="357.62" y="-535.5" font-family="Helvetica,sans-Serif" font-size="10.00">ogxx::Bit_matrix</text>
</a>
</g>
</g>
<!-- Node22&#45;&gt;Node23 -->
<g id="edge12_Node000022_Node000023" class="edge">
<title>Node22&#45;&gt;Node23</title>
<g id="a_edge12_Node000022_Node000023"><a xlink:title=" ">
<path fill="none" stroke="#63b8ff" d="M264.9,-540.19C281.3,-539.98 298.61,-539.75 313.72,-539.56"/>
<polygon fill="#63b8ff" stroke="#63b8ff" points="265.21,-536.68 255.25,-540.31 265.3,-543.68 265.21,-536.68"/>
</a>
</g>
</g>
<!-- Node24 -->
<g id="Node000024" class="node">
<title>Node24</title>
<g id="a_Node000024"><a xlink:href="dc/d59/classogxx_1_1_dense__bit__matrix.html" target="_top" xlink:title=" ">
<polygon fill="white" stroke="#666666" points="590.5,-590 471.75,-590 471.75,-570 590.5,-570 590.5,-590"/>
<text text-anchor="middle" x="531.12" y="-576.5" font-family="Helvetica,sans-Serif" font-size="10.00">ogxx::Dense_bit_matrix</text>
</a>
</g>
</g>
<!-- Node23&#45;&gt;Node24 -->
<g id="edge13_Node000023_Node000024" class="edge">
<title>Node23&#45;&gt;Node24</title>
<g id="a_edge13_Node000023_Node000024"><a xlink:title=" ">
<path fill="none" stroke="#63b8ff" d="M412.44,-551.87C436.23,-557.55 463.85,-564.16 486.35,-569.53"/>
<polygon fill="#63b8ff" stroke="#63b8ff" points="413.47,-548.51 402.93,-549.59 411.84,-555.32 413.47,-548.51"/>
</a>
</g>
</g>
<!-- Node25 -->
<g id="Node000025" class="node">
<title>Node25</title>
<g id="a_Node000025"><a xlink:href="d0/dec/classogxx_1_1_symmetric__dense__bit__matrix.html" target="_top" xlink:title="Symmetric dense bit matrix stores only one half without the main diagonal.">
<polygon fill="white" stroke="#666666" points="592,-552 470.25,-552 470.25,-520 592,-520 592,-552"/>
<text text-anchor="start" x="478.25" y="-538.5" font-family="Helvetica,sans-Serif" font-size="10.00">ogxx::Symmetric_dense</text>
<text text-anchor="middle" x="531.12" y="-526.5" font-family="Helvetica,sans-Serif" font-size="10.00">_bit_matrix</text>
</a>
</g>
</g>
<!-- Node23&#45;&gt;Node25 -->
<g id="edge14_Node000023_Node000025" class="edge">
<title>Node23&#45;&gt;Node25</title>
<g id="a_edge14_Node000023_Node000025"><a xlink:title=" ">
<path fill="none" stroke="#63b8ff" d="M412.77,-538.05C430.99,-537.73 451.42,-537.38 470.06,-537.05"/>
<polygon fill="#63b8ff" stroke="#63b8ff" points="412.91,-534.55 402.97,-538.22 413.03,-541.55 412.91,-534.55"/>
</a>
</g>
</g>
<!-- Node27 -->
<g id="Node000027" class="node">
<title>Node27</title>
<g id="a_Node000027"><a xlink:href="da/dce/classogxx_1_1_st__matrix.html" target="_top" xlink:title="Simple type matrix interface. Iterating the matrix means going through all its elements in row&#45;major ...">
<polygon fill="white" stroke="#666666" points="415.12,-492 300.12,-492 300.12,-472 415.12,-472 415.12,-492"/>
<text text-anchor="middle" x="357.62" y="-478.5" font-family="Helvetica,sans-Serif" font-size="10.00">ogxx::St_matrix&lt; ST &gt;</text>
</a>
</g>
</g>
<!-- Node30&#45;&gt;Node27 -->
<g id="edge17_Node000030_Node000027" class="edge">
<title>Node30&#45;&gt;Node27</title>
<g id="a_edge17_Node000030_Node000027"><a xlink:title=" ">
<path fill="none" stroke="#63b8ff" d="M264.98,-464.77C276.9,-467.01 289.3,-469.34 300.98,-471.54"/>
<polygon fill="#63b8ff" stroke="#63b8ff" points="265.7,-461.34 255.23,-462.94 264.41,-468.22 265.7,-461.34"/>
</a>
</g>
</g>
<!-- Node28 -->
<g id="Node000028" class="node">
<title>Node28</title>
<g id="a_Node000028"><a xlink:href="dd/d0b/classogxx_1_1_dense__st__matrix.html" target="_top" xlink:title=" ">
<polygon fill="white" stroke="#666666" points="589.38,-501 472.88,-501 472.88,-469 589.38,-469 589.38,-501"/>
<text text-anchor="start" x="480.88" y="-487.5" font-family="Helvetica,sans-Serif" font-size="10.00">ogxx::Dense_st_matrix</text>
<text text-anchor="middle" x="531.12" y="-475.5" font-family="Helvetica,sans-Serif" font-size="10.00">&lt; ST &gt;</text>
</a>
</g>
</g>
<!-- Node27&#45;&gt;Node28 -->
<g id="edge18_Node000027_Node000028" class="edge">
<title>Node27&#45;&gt;Node28</title>
<g id="a_edge18_Node000027_Node000028"><a xlink:title=" ">
<path fill="none" stroke="#63b8ff" d="M426.65,-483.19C441.79,-483.45 457.7,-483.73 472.38,-483.99"/>
<polygon fill="#63b8ff" stroke="#63b8ff" points="426.83,-479.69 416.77,-483.02 426.71,-486.69 426.83,-479.69"/>
</a>
</g>
</g>
<!-- Node29 -->
<g id="Node000029" class="node">
<title>Node29</title>
<g id="a_Node000029"><a xlink:href="d6/dea/classogxx_1_1_symmetric__dense__st__matrix.html" target="_top" xlink:title="A class that represents a symmetric matrix in dense storage format.">
<polygon fill="white" stroke="#666666" points="592,-451 470.25,-451 470.25,-419 592,-419 592,-451"/>
<text text-anchor="start" x="478.25" y="-437.5" font-family="Helvetica,sans-Serif" font-size="10.00">ogxx::Symmetric_dense</text>
<text text-anchor="middle" x="531.12" y="-425.5" font-family="Helvetica,sans-Serif" font-size="10.00">_st_matrix&lt; ST &gt;</text>
</a>
</g>
</g>
<!-- Node27&#45;&gt;Node29 -->
<g id="edge19_Node000027_Node000029" class="edge">
<title>Node27&#45;&gt;Node29</title>
<g id="a_edge19_Node000027_Node000029"><a xlink:title=" ">
<path fill="none" stroke="#63b8ff" d="M407.71,-468.55C427.1,-463.23 449.58,-457.07 469.94,-451.49"/>
<polygon fill="#63b8ff" stroke="#63b8ff" points="406.87,-465.15 398.15,-471.17 408.72,-471.9 406.87,-465.15"/>
</a>
</g>
</g>
<!-- Node9 -->
<g id="Node000009" class="node">
<title>Node9</title>
<g id="a_Node000009"><a xlink:href="d2/d24/classogxx_1_1_bag.html" target="_top" xlink:title=" ">
<polygon fill="white" stroke="#666666" points="419.62,-96 295.62,-96 295.62,-76 419.62,-76 419.62,-96"/>
<text text-anchor="middle" x="357.62" y="-82.5" font-family="Helvetica,sans-Serif" font-size="10.00">ogxx::Bag&lt; Adjacency &gt;</text>
</a>
</g>
</g>
<!-- Node8&#45;&gt;Node9 -->
<g id="edge21_Node000008_Node000009" class="edge">
<title>Node8&#45;&gt;Node9</title>
<g id="a_edge21_Node000008_Node000009"><a xlink:title=" ">
<path fill="none" stroke="#63b8ff" d="M237.24,-133.01C253.33,-123.5 272.94,-112.79 291.5,-105 299.1,-101.81 307.42,-98.94 315.48,-96.46"/>
<polygon fill="#63b8ff" stroke="#63b8ff" points="235.78,-129.8 229.01,-137.95 239.39,-135.8 235.78,-129.8"/>
</a>
</g>
</g>
<!-- Node10 -->
<g id="Node000010" class="node">
<title>Node10</title>
<g id="a_Node000010"><a xlink:href="d2/d24/classogxx_1_1_bag.html" target="_top" xlink:title=" ">
<polygon fill="white" stroke="#666666" points="421.5,-20 293.75,-20 293.75,0 421.5,0 421.5,-20"/>
<text text-anchor="middle" x="357.62" y="-6.5" font-family="Helvetica,sans-Serif" font-size="10.00">ogxx::Bag&lt; Vertex_pair &gt;</text>
</a>
</g>
</g>
<!-- Node8&#45;&gt;Node10 -->
<g id="edge22_Node000008_Node000010" class="edge">
<title>Node8&#45;&gt;Node10</title>
<g id="a_edge22_Node000008_Node000010"><a xlink:title=" ">
<path fill="none" stroke="#63b8ff" d="M214.3,-128.71C228.62,-100.04 255.33,-54.8 291.5,-29 296.29,-25.58 301.7,-22.77 307.3,-20.47"/>
<polygon fill="#63b8ff" stroke="#63b8ff" points="211.27,-126.92 210.08,-137.45 217.58,-129.97 211.27,-126.92"/>
</a>
</g>
</g>
<!-- Node12 -->
<g id="Node000012" class="node">
<title>Node12</title>
<g id="a_Node000012"><a xlink:href="d2/d20/classogxx_1_1_indexed__iterable.html" target="_top" xlink:title=" ">
<polygon fill="white" stroke="#666666" points="414.38,-246 300.88,-246 300.88,-214 414.38,-214 414.38,-246"/>
<text text-anchor="start" x="308.88" y="-232.5" font-family="Helvetica,sans-Serif" font-size="10.00">ogxx::Indexed_iterable</text>
<text text-anchor="middle" x="357.62" y="-220.5" font-family="Helvetica,sans-Serif" font-size="10.00">&lt; Adjacency &gt;</text>
</a>
</g>
</g>
<!-- Node8&#45;&gt;Node12 -->
<g id="edge24_Node000008_Node000012" class="edge">
<title>Node8&#45;&gt;Node12</title>
<g id="a_edge24_Node000008_Node000012"><a xlink:title=" ">
<path fill="none" stroke="#63b8ff" d="M239.07,-177.17C254.92,-186.32 273.85,-196.71 291.5,-205 297.86,-207.98 304.68,-210.9 311.43,-213.63"/>
<polygon fill="#63b8ff" stroke="#63b8ff" points="240.85,-174.15 230.45,-172.12 237.32,-180.19 240.85,-174.15"/>
</a>
</g>
</g>
<!-- Node7 -->
<g id="Node000007" class="node">
<title>Node7</title>
<g id="a_Node000007"><a xlink:href="d2/d20/classogxx_1_1_indexed__iterable.html" target="_top" xlink:title=" ">
<polygon fill="white" stroke="#666666" points="414.38,-296 300.88,-296 300.88,-264 414.38,-264 414.38,-296"/>
<text text-anchor="start" x="308.88" y="-282.5" font-family="Helvetica,sans-Serif" font-size="10.00">ogxx::Indexed_iterable</text>
<text text-anchor="middle" x="357.62" y="-270.5" font-family="Helvetica,sans-Serif" font-size="10.00">&lt; Scalar_index &gt;</text>
</a>
</g>
</g>
<!-- Node8&#45;&gt;Node7 -->
<g id="edge25_Node000008_Node000007" class="edge">
<title>Node8&#45;&gt;Node7</title>
<g id="a_edge25_Node000008_Node000007"><a xlink:title=" ">
<path fill="none" stroke="#63b8ff" d="M219.73,-180.58C236,-202.87 262.17,-234.73 291.5,-255 296.08,-258.17 301.12,-261 306.3,-263.53"/>
<polygon fill="#63b8ff" stroke="#63b8ff" points="222.71,-178.73 214.06,-172.61 217.01,-182.79 222.71,-178.73"/>
</a>
</g>
</g>
<!-- Node13 -->
<g id="Node000013" class="node">
<title>Node13</title>
<g id="a_Node000013"><a xlink:href="d2/d20/classogxx_1_1_indexed__iterable.html" target="_top" xlink:title=" ">
<polygon fill="white" stroke="#666666" points="414.38,-196 300.88,-196 300.88,-164 414.38,-164 414.38,-196"/>
<text text-anchor="start" x="308.88" y="-182.5" font-family="Helvetica,sans-Serif" font-size="10.00">ogxx::Indexed_iterable</text>
<text text-anchor="middle" x="357.62" y="-170.5" font-family="Helvetica,sans-Serif" font-size="10.00">&lt; Vertex_pair &gt;</text>
</a>
</g>
</g>
<!-- Node8&#45;&gt;Node13 -->
<g id="edge27_Node000008_Node000013" class="edge">
<title>Node8&#45;&gt;Node13</title>
<g id="a_edge27_Node000008_Node000013"><a xlink:title=" ">
<path fill="none" stroke="#63b8ff" d="M264.85,-165.13C276.62,-167.03 288.87,-169.02 300.44,-170.89"/>
<polygon fill="#63b8ff" stroke="#63b8ff" points="265.66,-161.71 255.23,-163.57 264.54,-168.62 265.66,-161.71"/>
</a>
</g>
</g>
<!-- Node14 -->
<g id="Node000014" class="node">
<title>Node14</title>
<g id="a_Node000014"><a xlink:href="d2/d24/classogxx_1_1_bag.html" target="_top" xlink:title="Generic container interface with inserts and erases but no fixed ordering of items.">
<polygon fill="white" stroke="#666666" points="406.12,-58 309.12,-58 309.12,-38 406.12,-38 406.12,-58"/>
<text text-anchor="middle" x="357.62" y="-44.5" font-family="Helvetica,sans-Serif" font-size="10.00">ogxx::Bag&lt; Item &gt;</text>
</a>
</g>
</g>
<!-- Node8&#45;&gt;Node14 -->
<g id="edge28_Node000008_Node000014" class="edge">
<title>Node8&#45;&gt;Node14</title>
<g id="a_edge28_Node000008_Node000014"><a xlink:title=" ">
<path fill="none" stroke="#63b8ff" d="M221.89,-129.78C238.43,-110.04 263.83,-83.27 291.5,-67 297.29,-63.6 303.73,-60.77 310.24,-58.43"/>
<polygon fill="#63b8ff" stroke="#63b8ff" points="219.29,-127.44 215.68,-137.4 224.72,-131.86 219.29,-127.44"/>
</a>
</g>
</g>
<!-- Node18 -->
<g id="Node000018" class="node">
<title>Node18</title>
<g id="a_Node000018"><a xlink:href="d2/d20/classogxx_1_1_indexed__iterable.html" target="_top" xlink:title="Finally, the linear zero&#45;based integer&#45;indexed iterable collection.">
<polygon fill="white" stroke="#666666" points="414.38,-146 300.88,-146 300.88,-114 414.38,-114 414.38,-146"/>
<text text-anchor="start" x="308.88" y="-132.5" font-family="Helvetica,sans-Serif" font-size="10.00">ogxx::Indexed_iterable</text>
<text text-anchor="middle" x="357.62" y="-120.5" font-family="Helvetica,sans-Serif" font-size="10.00">&lt; Item &gt;</text>
</a>
</g>
</g>
<!-- Node8&#45;&gt;Node18 -->
<g id="edge34_Node000008_Node000018" class="edge">
<title>Node8&#45;&gt;Node18</title>
<g id="a_edge34_Node000008_Node000018"><a xlink:title=" ">
<path fill="none" stroke="#63b8ff" d="M264.85,-144.87C276.62,-142.97 288.87,-140.98 300.44,-139.11"/>
<polygon fill="#63b8ff" stroke="#63b8ff" points="264.54,-141.38 255.23,-146.43 265.66,-148.29 264.54,-141.38"/>
</a>
</g>
</g>
<!-- Node11 -->
<g id="Node000011" class="node">
<title>Node11</title>
<g id="a_Node000011"><a xlink:href="df/d8c/classogxx_1_1_edge__list.html" target="_top" xlink:title="Interface (abstract base class) for storing an edge list of a graph.">
<polygon fill="white" stroke="#666666" points="572.88,-20 489.38,-20 489.38,0 572.88,0 572.88,-20"/>
<text text-anchor="middle" x="531.12" y="-6.5" font-family="Helvetica,sans-Serif" font-size="10.00">ogxx::Edge_list</text>
</a>
</g>
</g>
<!-- Node10&#45;&gt;Node11 -->
<g id="edge23_Node000010_Node000011" class="edge">
<title>Node10&#45;&gt;Node11</title>
<g id="a_edge23_Node000010_Node000011"><a xlink:title=" ">
<path fill="none" stroke="#63b8ff" d="M433.45,-10C452.56,-10 472.41,-10 489.11,-10"/>
<polygon fill="#63b8ff" stroke="#63b8ff" points="433.51,-6.5 423.51,-10 433.51,-13.5 433.51,-6.5"/>
</a>
</g>
</g>
<!-- Node6 -->
<g id="Node000006" class="node">
<title>Node6</title>
<g id="a_Node000006"><a xlink:href="d2/d01/classogxx_1_1_index__set__sortedvector.html" target="_top" xlink:title=" ">
<polygon fill="white" stroke="#666666" points="602.5,-312 459.75,-312 459.75,-292 602.5,-292 602.5,-312"/>
<text text-anchor="middle" x="531.12" y="-298.5" font-family="Helvetica,sans-Serif" font-size="10.00">ogxx::Index_set_sortedvector</text>
</a>
</g>
</g>
<!-- Node7&#45;&gt;Node6 -->
<g id="edge26_Node000007_Node000006" class="edge">
<title>Node7&#45;&gt;Node6</title>
<g id="a_edge26_Node000007_Node000006"><a xlink:title=" ">
<path fill="none" stroke="#63b8ff" d="M426.03,-288.65C437,-290.05 448.39,-291.51 459.43,-292.93"/>
<polygon fill="#63b8ff" stroke="#63b8ff" points="426.65,-285.2 416.28,-287.4 425.76,-292.14 426.65,-285.2"/>
</a>
</g>
</g>
<!-- Node15 -->
<g id="Node000015" class="node">
<title>Node15</title>
<g id="a_Node000015"><a xlink:href="d8/d68/classogxx_1_1_list.html" target="_top" xlink:title=" ">
<polygon fill="white" stroke="#666666" points="592.38,-146 469.88,-146 469.88,-126 592.38,-126 592.38,-146"/>
<text text-anchor="middle" x="531.12" y="-132.5" font-family="Helvetica,sans-Serif" font-size="10.00">ogxx::List&lt; Adjacency &gt;</text>
</a>
</g>
</g>
<!-- Node14&#45;&gt;Node15 -->
<g id="edge29_Node000014_Node000015" class="edge">
<title>Node14&#45;&gt;Node15</title>
<g id="a_edge29_Node000014_Node000015"><a xlink:title=" ">
<path fill="none" stroke="#63b8ff" d="M416.84,-62.72C419.24,-64.03 421.56,-65.45 423.75,-67 446.11,-82.81 437.23,-101.42 459.75,-117 464.75,-120.46 470.34,-123.28 476.14,-125.6"/>
<polygon fill="#63b8ff" stroke="#63b8ff" points="418.5,-59.63 407.95,-58.6 415.55,-65.98 418.5,-59.63"/>
</a>
</g>
</g>
<!-- Node19 -->
<g id="Node000019" class="node">
<title>Node19</title>
<g id="a_Node000019"><a xlink:href="d8/d68/classogxx_1_1_list.html" target="_top" xlink:title=" ">
<polygon fill="white" stroke="#666666" points="579.25,-108 483,-108 483,-76 579.25,-76 579.25,-108"/>
<text text-anchor="start" x="491" y="-94.5" font-family="Helvetica,sans-Serif" font-size="10.00">ogxx::List&lt; Vertex</text>
<text text-anchor="middle" x="531.12" y="-82.5" font-family="Helvetica,sans-Serif" font-size="10.00">_pair &gt;</text>
</a>
</g>
</g>
<!-- Node14&#45;&gt;Node19 -->
<g id="edge32_Node000014_Node000019" class="edge">
<title>Node14&#45;&gt;Node19</title>
<g id="a_edge32_Node000014_Node000019"><a xlink:title=" ">
<path fill="none" stroke="#63b8ff" d="M410.23,-61.24C433.28,-67.15 460.26,-74.08 482.78,-79.85"/>
<polygon fill="#63b8ff" stroke="#63b8ff" points="411.29,-57.9 400.73,-58.8 409.55,-64.68 411.29,-57.9"/>
</a>
</g>
</g>
<!-- Node20 -->
<g id="Node000020" class="node">
<title>Node20</title>
<g id="a_Node000020"><a xlink:href="d8/d68/classogxx_1_1_list.html" target="_top" xlink:title="Generic container interface with inserts and erases and stores them in linear order as a list.">
<polygon fill="white" stroke="#666666" points="578.88,-58 483.38,-58 483.38,-38 578.88,-38 578.88,-58"/>
<text text-anchor="middle" x="531.12" y="-44.5" font-family="Helvetica,sans-Serif" font-size="10.00">ogxx::List&lt; Item &gt;</text>
</a>
</g>
</g>
<!-- Node14&#45;&gt;Node20 -->
<g id="edge33_Node000014_Node000020" class="edge">
<title>Node14&#45;&gt;Node20</title>
<g id="a_edge33_Node000014_Node000020"><a xlink:title=" ">
<path fill="none" stroke="#63b8ff" d="M417.62,-48C438.95,-48 462.72,-48 482.91,-48"/>
<polygon fill="#63b8ff" stroke="#63b8ff" points="417.91,-44.5 407.91,-48 417.91,-51.5 417.91,-44.5"/>
</a>
</g>
</g>
<!-- Node16 -->
<g id="Node000016" class="node">
<title>Node16</title>
<g id="a_Node000016"><a xlink:href="d3/d35/classogxx_1_1_adjacency__list.html" target="_top" xlink:title="Graph representation where, which maps vertex index to the adjacency of that vertex.">
<polygon fill="white" stroke="#666666" points="745.25,-146 638.5,-146 638.5,-126 745.25,-126 745.25,-146"/>
<text text-anchor="middle" x="691.88" y="-132.5" font-family="Helvetica,sans-Serif" font-size="10.00">ogxx::Adjacency_list</text>
</a>
</g>
</g>
<!-- Node15&#45;&gt;Node16 -->
<g id="edge30_Node000015_Node000016" class="edge">
<title>Node15&#45;&gt;Node16</title>
<g id="a_edge30_Node000015_Node000016"><a xlink:title=" ">
<path fill="none" stroke="#63b8ff" d="M603.97,-136C615.46,-136 627.16,-136 638.1,-136"/>
<polygon fill="#63b8ff" stroke="#63b8ff" points="604.11,-132.5 594.11,-136 604.11,-139.5 604.11,-132.5"/>
</a>
</g>
</g>
<!-- Node17 -->
<g id="Node000017" class="node">
<title>Node17</title>
<g id="a_Node000017"><a xlink:href="d4/dae/classogxx_1_1_adjacency__list__vector.html" target="_top" xlink:title=" ">
<polygon fill="white" stroke="#666666" points="888,-152 781.25,-152 781.25,-120 888,-120 888,-152"/>
<text text-anchor="start" x="789.25" y="-138.5" font-family="Helvetica,sans-Serif" font-size="10.00">ogxx::Adjacency_list</text>
<text text-anchor="middle" x="834.62" y="-126.5" font-family="Helvetica,sans-Serif" font-size="10.00">_vector</text>
</a>
</g>
</g>
<!-- Node16&#45;&gt;Node17 -->
<g id="edge31_Node000016_Node000017" class="edge">
<title>Node16&#45;&gt;Node17</title>
<g id="a_edge31_Node000016_Node000017"><a xlink:title=" ">
<path fill="none" stroke="#63b8ff" d="M756.94,-136C764.99,-136 773.14,-136 780.99,-136"/>
<polygon fill="#63b8ff" stroke="#63b8ff" points="757.2,-132.5 747.2,-136 757.2,-139.5 757.2,-132.5"/>
</a>
</g>
</g>
<!-- Node18&#45;&gt;Node15 -->
<g id="edge35_Node000018_Node000015" class="edge">
<title>Node18&#45;&gt;Node15</title>
<g id="a_edge35_Node000018_Node000015"><a xlink:title=" ">
<path fill="none" stroke="#63b8ff" d="M426.06,-132.36C440.36,-132.86 455.38,-133.38 469.41,-133.88"/>
<polygon fill="#63b8ff" stroke="#63b8ff" points="426.41,-128.87 416.29,-132.02 426.16,-135.87 426.41,-128.87"/>
</a>
</g>
</g>
<!-- Node18&#45;&gt;Node19 -->
<g id="edge36_Node000018_Node000019" class="edge">
<title>Node18&#45;&gt;Node19</title>
<g id="a_edge36_Node000018_Node000019"><a xlink:title=" ">
<path fill="none" stroke="#63b8ff" d="M425.81,-115.11C444.84,-110.9 465.15,-106.4 482.75,-102.5"/>
<polygon fill="#63b8ff" stroke="#63b8ff" points="425.26,-111.65 416.26,-117.23 426.78,-118.48 425.26,-111.65"/>
</a>
</g>
</g>
<!-- Node18&#45;&gt;Node20 -->
<g id="edge37_Node000018_Node000020" class="edge">
<title>Node18&#45;&gt;Node20</title>
<g id="a_edge37_Node000018_Node000020"><a xlink:title=" ">
<path fill="none" stroke="#63b8ff" d="M418.25,-108.43C420.14,-107.33 421.98,-106.19 423.75,-105 443.09,-92.07 439.77,-78.92 459.75,-67 466.92,-62.72 475.07,-59.38 483.22,-56.79"/>
<polygon fill="#63b8ff" stroke="#63b8ff" points="417.07,-105.09 409.85,-112.84 420.33,-111.29 417.07,-105.09"/>
</a>
</g>
</g>
<!-- Node26 -->
<g id="Node000026" class="node">
<title>Node26</title>
<g id="a_Node000026"><a xlink:href="d0/d06/classogxx_1_1_matrix__base.html" target="_top" xlink:title="Common matrix function independent of matrix item type.">
<polygon fill="white" stroke="#666666" points="249.5,-507 153.25,-507 153.25,-487 249.5,-487 249.5,-507"/>
<text text-anchor="middle" x="201.38" y="-493.5" font-family="Helvetica,sans-Serif" font-size="10.00">ogxx::Matrix_base</text>
</a>
</g>
</g>
<!-- Node26&#45;&gt;Node23 -->
<g id="edge38_Node000026_Node000023" class="edge">
<title>Node26&#45;&gt;Node23</title>
<g id="a_edge38_Node000026_Node000023"><a xlink:title=" ">
<path fill="none" stroke="#63b8ff" d="M251.82,-510.46C273.36,-516.33 298.22,-523.1 318.32,-528.57"/>
<polygon fill="#63b8ff" stroke="#63b8ff" points="252.93,-507.14 242.36,-507.89 251.09,-513.89 252.93,-507.14"/>
</a>
</g>
</g>
<!-- Node26&#45;&gt;Node27 -->
<g id="edge39_Node000026_Node000027" class="edge">
<title>Node26&#45;&gt;Node27</title>
<g id="a_edge39_Node000026_Node000027"><a xlink:title=" ">
<path fill="none" stroke="#63b8ff" d="M261.27,-491.27C273.89,-490.05 287.21,-488.75 299.75,-487.53"/>
<polygon fill="#63b8ff" stroke="#63b8ff" points="261.03,-487.78 251.42,-492.23 261.71,-494.75 261.03,-487.78"/>
</a>
</g>
</g>
<!-- Node3 -->
<g id="Node000003" class="node">
<title>Node3</title>
<g id="a_Node000003"><a xlink:href="d3/da1/classogxx_1_1_st__set.html" target="_top" xlink:title="Possibly non&#45;iterable set of simple type items.">
<polygon fill="white" stroke="#666666" points="255.5,-369 147.25,-369 147.25,-349 255.5,-349 255.5,-369"/>
<text text-anchor="middle" x="201.38" y="-355.5" font-family="Helvetica,sans-Serif" font-size="10.00">ogxx::St_set&lt; Item &gt;</text>
</a>
</g>
</g>
<!-- Node3&#45;&gt;Node2 -->
<g id="edge40_Node000003_Node000002" class="edge">
<title>Node3&#45;&gt;Node2</title>
<g id="a_edge40_Node000003_Node000002"><a xlink:title=" ">
<path fill="none" stroke="#63b8ff" d="M249.44,-374.3C251.54,-375.46 253.57,-376.69 255.5,-378 275.56,-391.63 271.05,-405.97 291.5,-419 298.06,-423.18 305.56,-426.46 313.09,-429.04"/>
<polygon fill="#63b8ff" stroke="#63b8ff" points="251.18,-371.25 240.65,-370.09 248.16,-377.56 251.18,-371.25"/>
</a>
</g>
</g>
<!-- Node3&#45;&gt;Node4 -->
<g id="edge41_Node000003_Node000004" class="edge">
<title>Node3&#45;&gt;Node4</title>
<g id="a_edge41_Node000003_Node000004"><a xlink:title=" ">
<path fill="none" stroke="#63b8ff" d="M252.68,-372.37C273.68,-377.95 297.71,-384.34 317.37,-389.57"/>
<polygon fill="#63b8ff" stroke="#63b8ff" points="253.72,-369.03 243.16,-369.84 251.93,-375.79 253.72,-369.03"/>
</a>
</g>
</g>
<!-- Node3&#45;&gt;Node5 -->
<g id="edge42_Node000003_Node000005" class="edge">
<title>Node3&#45;&gt;Node5</title>
<g id="a_edge42_Node000003_Node000005"><a xlink:title=" ">
<path fill="none" stroke="#63b8ff" d="M267.32,-360.26C275.23,-360.42 283.32,-360.57 291.24,-360.73"/>
<polygon fill="#63b8ff" stroke="#63b8ff" points="267.47,-356.77 257.4,-360.07 267.33,-363.76 267.47,-356.77"/>
</a>
</g>
</g>
<!-- Node3&#45;&gt;Node6 -->
<g id="edge43_Node000003_Node000006" class="edge">
<title>Node3&#45;&gt;Node6</title>
<g id="a_edge43_Node000003_Node000006"><a xlink:title=" ">
<path fill="none" stroke="#63b8ff" d="M266.84,-347.37C275.13,-345.89 283.52,-344.4 291.5,-343 351.53,-332.45 420.11,-320.7 468.3,-312.49"/>
<polygon fill="#63b8ff" stroke="#63b8ff" points="266.34,-343.9 257.11,-349.11 267.57,-350.79 266.34,-343.9"/>
</a>
</g>
</g>
</g>
</svg>
