<?xml version="1.0" encoding="UTF-8" standalone="no"?>
<!DOCTYPE svg PUBLIC "-//W3C//DTD SVG 1.1//EN"
 "http://www.w3.org/Graphics/SVG/1.1/DTD/svg11.dtd">
<!-- Generated by graphviz version 9.0.0 (20230911.1827)
 -->
<!-- Title: include/ogxx/st_matrix.hpp Pages: 1 -->
<svg width="645pt" height="220pt"
 viewBox="0.00 0.00 645.38 220.00" xmlns="http://www.w3.org/2000/svg" xmlns:xlink="http://www.w3.org/1999/xlink">
<g id="graph0" class="graph" transform="scale(1 1) rotate(0) translate(4 216)">
<title>include/ogxx/st_matrix.hpp</title>
<!-- Node1 -->
<g id="Node000001" class="node">
<title>Node1</title>
<g id="a_Node000001"><a xlink:title="St_matrix interface, st_ stands for &quot;simple type&quot;, i.e. a thing like int or double.">
<polygon fill="#999999" stroke="#666666" points="397.12,-212 264.12,-212 264.12,-192 397.12,-192 397.12,-212"/>
<text text-anchor="middle" x="330.62" y="-198.5" font-family="Helvetica,sans-Serif" font-size="10.00">include/ogxx/st_matrix.hpp</text>
</a>
</g>
</g>
<!-- Node2 -->
<g id="Node000002" class="node">
<title>Node2</title>
<g id="a_Node000002"><a xlink:href="../../dd/d0c/point__distance__matrix_8hpp.html" target="_top" xlink:title="Facilities to compute distance matrices according to selected metrics.">
<polygon fill="white" stroke="#666666" points="110.12,-156 1.12,-156 1.12,-124 110.12,-124 110.12,-156"/>
<text text-anchor="start" x="9.12" y="-142.5" font-family="Helvetica,sans-Serif" font-size="10.00">include/ogxx/point</text>
<text text-anchor="middle" x="55.62" y="-130.5" font-family="Helvetica,sans-Serif" font-size="10.00">_distance_matrix.hpp</text>
</a>
</g>
</g>
<!-- Node1&#45;&gt;Node2 -->
<g id="edge1_Node000001_Node000002" class="edge">
<title>Node1&#45;&gt;Node2</title>
<g id="a_edge1_Node000001_Node000002"><a xlink:title=" ">
<path fill="none" stroke="#63b8ff" d="M273.64,-189.17C231.14,-180.27 171.69,-167.65 119.62,-156 116.62,-155.33 113.53,-154.63 110.42,-153.92"/>
<polygon fill="#63b8ff" stroke="#63b8ff" points="272.89,-192.59 283.4,-191.21 274.33,-185.74 272.89,-192.59"/>
</a>
</g>
</g>
<!-- Node4 -->
<g id="Node000004" class="node">
<title>Node4</title>
<g id="a_Node000004"><a xlink:href="../../dd/db4/st__matrix__io_8hpp.html" target="_top" xlink:title="St_matrix reading and printing operations.">
<polygon fill="white" stroke="#666666" points="242.75,-156 128.5,-156 128.5,-124 242.75,-124 242.75,-156"/>
<text text-anchor="start" x="136.5" y="-142.5" font-family="Helvetica,sans-Serif" font-size="10.00">include/ogxx/st_matrix</text>
<text text-anchor="middle" x="185.62" y="-130.5" font-family="Helvetica,sans-Serif" font-size="10.00">_io.hpp</text>
</a>
</g>
</g>
<!-- Node1&#45;&gt;Node4 -->
<g id="edge3_Node000001_Node000004" class="edge">
<title>Node1&#45;&gt;Node4</title>
<g id="a_edge3_Node000001_Node000004"><a xlink:title=" ">
<path fill="none" stroke="#63b8ff" d="M297.4,-187.25C275.23,-178.08 246.05,-166 223.06,-156.49"/>
<polygon fill="#63b8ff" stroke="#63b8ff" points="295.99,-190.46 306.57,-191.05 298.67,-183.99 295.99,-190.46"/>
</a>
</g>
</g>
<!-- Node8 -->
<g id="Node000008" class="node">
<title>Node8</title>
<g id="a_Node000008"><a xlink:href="../../df/da6/source_2dense__st__matrix_8cpp.html" target="_top" xlink:title="Dense matrix implementation (of abstract matrix interface from matrix.hpp).">
<polygon fill="white" stroke="#666666" points="400.12,-150 261.12,-150 261.12,-130 400.12,-130 400.12,-150"/>
<text text-anchor="middle" x="330.62" y="-136.5" font-family="Helvetica,sans-Serif" font-size="10.00">source/dense_st_matrix.cpp</text>
</a>
</g>
</g>
<!-- Node1&#45;&gt;Node8 -->
<g id="edge7_Node000001_Node000008" class="edge">
<title>Node1&#45;&gt;Node8</title>
<g id="a_edge7_Node000001_Node000008"><a xlink:title=" ">
<path fill="none" stroke="#63b8ff" d="M330.62,-180.25C330.62,-169.97 330.62,-158.09 330.62,-150.11"/>
<polygon fill="#63b8ff" stroke="#63b8ff" points="327.13,-180.11 330.63,-190.11 334.13,-180.11 327.13,-180.11"/>
</a>
</g>
</g>
<!-- Node9 -->
<g id="Node000009" class="node">
<title>Node9</title>
<g id="a_Node000009"><a xlink:href="../../d8/d4d/symmetric__dense__st__matrix_8cpp.html" target="_top" xlink:title="Implementation of a class for compact storage of a symmetric matrix.">
<polygon fill="white" stroke="#666666" points="543.38,-156 417.88,-156 417.88,-124 543.38,-124 543.38,-156"/>
<text text-anchor="start" x="425.88" y="-142.5" font-family="Helvetica,sans-Serif" font-size="10.00">source/symmetric_dense</text>
<text text-anchor="middle" x="480.62" y="-130.5" font-family="Helvetica,sans-Serif" font-size="10.00">_st_matrix.cpp</text>
</a>
</g>
</g>
<!-- Node1&#45;&gt;Node9 -->
<g id="edge8_Node000001_Node000009" class="edge">
<title>Node1&#45;&gt;Node9</title>
<g id="a_edge8_Node000001_Node000009"><a xlink:title=" ">
<path fill="none" stroke="#63b8ff" d="M364.68,-187.38C387.65,-178.19 418.01,-166.05 441.9,-156.49"/>
<polygon fill="#63b8ff" stroke="#63b8ff" points="363.45,-184.1 355.47,-191.06 366.05,-190.6 363.45,-184.1"/>
</a>
</g>
</g>
<!-- Node11 -->
<g id="Node000011" class="node">
<title>Node11</title>
<g id="a_Node000011"><a xlink:href="../../db/dc8/tests_2dense__st__matrix_8cpp.html" target="_top" xlink:title="A helper file to be included in each testing cpp.">
<polygon fill="white" stroke="#666666" points="637.38,-82 505.88,-82 505.88,-62 637.38,-62 637.38,-82"/>
<text text-anchor="middle" x="571.62" y="-68.5" font-family="Helvetica,sans-Serif" font-size="10.00">tests/dense_st_matrix.cpp</text>
</a>
</g>
</g>
<!-- Node1&#45;&gt;Node11 -->
<g id="edge10_Node000001_Node000011" class="edge">
<title>Node1&#45;&gt;Node11</title>
<g id="a_edge10_Node000001_Node000011"><a xlink:title=" ">
<path fill="none" stroke="#63b8ff" d="M408.66,-194.12C464.14,-187.62 532.28,-175.84 552.62,-156 572.94,-136.18 573.47,-99.4 572.47,-82.25"/>
<polygon fill="#63b8ff" stroke="#63b8ff" points="408.44,-190.62 398.89,-195.22 409.22,-197.58 408.44,-190.62"/>
</a>
</g>
</g>
<!-- Node3 -->
<g id="Node000003" class="node">
<title>Node3</title>
<g id="a_Node000003"><a xlink:href="../../d3/d60/point__distance__matrix_8cpp.html" target="_top" xlink:title="Implementation of point distance matrix adapter for a metrics object.">
<polygon fill="white" stroke="#666666" points="111.25,-88 0,-88 0,-56 111.25,-56 111.25,-88"/>
<text text-anchor="start" x="8" y="-74.5" font-family="Helvetica,sans-Serif" font-size="10.00">source/point_distance</text>
<text text-anchor="middle" x="55.62" y="-62.5" font-family="Helvetica,sans-Serif" font-size="10.00">_matrix.cpp</text>
</a>
</g>
</g>
<!-- Node2&#45;&gt;Node3 -->
<g id="edge2_Node000002_Node000003" class="edge">
<title>Node2&#45;&gt;Node3</title>
<g id="a_edge2_Node000002_Node000003"><a xlink:title=" ">
<path fill="none" stroke="#63b8ff" d="M55.62,-112.31C55.62,-104.12 55.62,-95.38 55.62,-88.22"/>
<polygon fill="#63b8ff" stroke="#63b8ff" points="52.13,-112.18 55.63,-122.18 59.13,-112.18 52.13,-112.18"/>
</a>
</g>
</g>
<!-- Node5 -->
<g id="Node000005" class="node">
<title>Node5</title>
<g id="a_Node000005"><a xlink:href="../../d1/d44/source_2st__matrix__io__read_8cpp.html" target="_top" xlink:title="Implementation of st_matrix_io.hpp&#39;s read function.">
<polygon fill="white" stroke="#666666" points="236.38,-88 134.88,-88 134.88,-56 236.38,-56 236.38,-88"/>
<text text-anchor="start" x="142.88" y="-74.5" font-family="Helvetica,sans-Serif" font-size="10.00">source/st_matrix_io</text>
<text text-anchor="middle" x="185.62" y="-62.5" font-family="Helvetica,sans-Serif" font-size="10.00">_read.cpp</text>
</a>
</g>
</g>
<!-- Node4&#45;&gt;Node5 -->
<g id="edge4_Node000004_Node000005" class="edge">
<title>Node4&#45;&gt;Node5</title>
<g id="a_edge4_Node000004_Node000005"><a xlink:title=" ">
<path fill="none" stroke="#63b8ff" d="M185.62,-112.31C185.62,-104.12 185.62,-95.38 185.62,-88.22"/>
<polygon fill="#63b8ff" stroke="#63b8ff" points="182.13,-112.18 185.63,-122.18 189.13,-112.18 182.13,-112.18"/>
</a>
</g>
</g>
<!-- Node6 -->
<g id="Node000006" class="node">
<title>Node6</title>
<g id="a_Node000006"><a xlink:href="../../d0/ddf/tests_2st__matrix__io__read_8cpp.html" target="_top" xlink:title="St_matrix io::read function tests.">
<polygon fill="white" stroke="#666666" points="350.62,-88 256.62,-88 256.62,-56 350.62,-56 350.62,-88"/>
<text text-anchor="start" x="264.62" y="-74.5" font-family="Helvetica,sans-Serif" font-size="10.00">tests/st_matrix_io</text>
<text text-anchor="middle" x="303.62" y="-62.5" font-family="Helvetica,sans-Serif" font-size="10.00">_read.cpp</text>
</a>
</g>
</g>
<!-- Node4&#45;&gt;Node6 -->
<g id="edge5_Node000004_Node000006" class="edge">
<title>Node4&#45;&gt;Node6</title>
<g id="a_edge5_Node000004_Node000006"><a xlink:title=" ">
<path fill="none" stroke="#63b8ff" d="M223.05,-118.07C240.27,-108.44 260.33,-97.21 276.13,-88.38"/>
<polygon fill="#63b8ff" stroke="#63b8ff" points="221.63,-114.85 214.61,-122.79 225.05,-120.96 221.63,-114.85"/>
</a>
</g>
</g>
<!-- Node7 -->
<g id="Node000007" class="node">
<title>Node7</title>
<g id="a_Node000007"><a xlink:href="../../da/d4a/build__all_8cpp.html" target="_top" xlink:title="Include all test files here to build them at once.">
<polygon fill="white" stroke="#666666" points="484,-20 389.25,-20 389.25,0 484,0 484,-20"/>
<text text-anchor="middle" x="436.62" y="-6.5" font-family="Helvetica,sans-Serif" font-size="10.00">tests/build_all.cpp</text>
</a>
</g>
</g>
<!-- Node6&#45;&gt;Node7 -->
<g id="edge6_Node000006_Node000007" class="edge">
<title>Node6&#45;&gt;Node7</title>
<g id="a_edge6_Node000006_Node000007"><a xlink:title=" ">
<path fill="none" stroke="#63b8ff" d="M348.36,-50.82C371.15,-40.54 397.77,-28.53 415.77,-20.41"/>
<polygon fill="#63b8ff" stroke="#63b8ff" points="346.93,-47.62 339.26,-54.93 349.81,-54 346.93,-47.62"/>
</a>
</g>
</g>
<!-- Node10 -->
<g id="Node000010" class="node">
<title>Node10</title>
<g id="a_Node000010"><a xlink:href="../../d5/d40/symmetric__dense__st__matrix__test_8cpp.html" target="_top" xlink:title="Tests for Symmetric_dense_st_matrix.">
<polygon fill="white" stroke="#666666" points="487.62,-88 369.62,-88 369.62,-56 487.62,-56 487.62,-88"/>
<text text-anchor="start" x="377.62" y="-74.5" font-family="Helvetica,sans-Serif" font-size="10.00">tests/symmetric_dense</text>
<text text-anchor="middle" x="428.62" y="-62.5" font-family="Helvetica,sans-Serif" font-size="10.00">_st_matrix_test.cpp</text>
</a>
</g>
</g>
<!-- Node9&#45;&gt;Node10 -->
<g id="edge9_Node000009_Node000010" class="edge">
<title>Node9&#45;&gt;Node10</title>
<g id="a_edge9_Node000009_Node000010"><a xlink:title=" ">
<path fill="none" stroke="#63b8ff" d="M461.61,-114.87C454.59,-105.96 446.84,-96.12 440.62,-88.22"/>
<polygon fill="#63b8ff" stroke="#63b8ff" points="458.69,-116.81 467.63,-122.5 464.19,-112.48 458.69,-116.81"/>
</a>
</g>
</g>
<!-- Node11&#45;&gt;Node7 -->
<g id="edge11_Node000011_Node000007" class="edge">
<title>Node11&#45;&gt;Node7</title>
<g id="a_edge11_Node000011_Node000007"><a xlink:title=" ">
<path fill="none" stroke="#63b8ff" d="M540.29,-57.07C514.86,-45.77 479.7,-30.15 457.57,-20.31"/>
<polygon fill="#63b8ff" stroke="#63b8ff" points="538.59,-60.15 549.15,-61.01 541.43,-53.75 538.59,-60.15"/>
</a>
</g>
</g>
</g>
</svg>
