<?xml version="1.0" encoding="UTF-8" standalone="no"?>
<!DOCTYPE svg PUBLIC "-//W3C//DTD SVG 1.1//EN"
 "http://www.w3.org/Graphics/SVG/1.1/DTD/svg11.dtd">
<!-- Generated by graphviz version 9.0.0 (20230911.1827)
 -->
<!-- Title: source/adjacency_implementations.cpp Pages: 1 -->
<svg width="582pt" height="420pt"
 viewBox="0.00 0.00 581.62 420.00" xmlns="http://www.w3.org/2000/svg" xmlns:xlink="http://www.w3.org/1999/xlink">
<g id="graph0" class="graph" transform="scale(1 1) rotate(0) translate(4 416)">
<title>source/adjacency_implementations.cpp</title>
<!-- Node1 -->
<g id="Node000001" class="node">
<title>Node1</title>
<g id="a_Node000001"><a xlink:title="ogxx::Adjacency implementations based upon different Index_set implementations">
<polygon fill="#999999" stroke="#666666" points="445.5,-412 257.75,-412 257.75,-392 445.5,-392 445.5,-412"/>
<text text-anchor="middle" x="351.62" y="-398.5" font-family="Helvetica,sans-Serif" font-size="10.00">source/adjacency_implementations.cpp</text>
</a>
</g>
</g>
<!-- Node2 -->
<g id="Node000002" class="node">
<title>Node2</title>
<g id="a_Node000002"><a xlink:href="../../d6/da0/adjacency__list_8hpp.html" target="_top" xlink:title="Adjacency list graph representation interface.">
<polygon fill="white" stroke="#666666" points="304.12,-356 183.12,-356 183.12,-336 304.12,-336 304.12,-356"/>
<text text-anchor="middle" x="243.62" y="-342.5" font-family="Helvetica,sans-Serif" font-size="10.00">ogxx/adjacency_list.hpp</text>
</a>
</g>
</g>
<!-- Node1&#45;&gt;Node2 -->
<g id="edge1_Node000001_Node000002" class="edge">
<title>Node1&#45;&gt;Node2</title>
<g id="a_edge1_Node000001_Node000002"><a xlink:title=" ">
<path fill="none" stroke="#63b8ff" d="M332.81,-391.59C316.27,-383.32 291.91,-371.14 272.83,-361.6"/>
<polygon fill="#63b8ff" stroke="#63b8ff" points="274.45,-358.5 263.94,-357.16 271.32,-364.76 274.45,-358.5"/>
</a>
</g>
</g>
<!-- Node17 -->
<g id="Node000017" class="node">
<title>Node17</title>
<g id="a_Node000017"><a xlink:href="../../d2/d73/index__set__hashtable_8hpp.html" target="_top" xlink:title="This file defines Index_set and Sized_iterable implementation based upon std::unordered_set.">
<polygon fill="white" stroke="#666666" points="247.62,-244 123.62,-244 123.62,-224 247.62,-224 247.62,-244"/>
<text text-anchor="middle" x="185.62" y="-230.5" font-family="Helvetica,sans-Serif" font-size="10.00">index_set_hashtable.hpp</text>
</a>
</g>
</g>
<!-- Node1&#45;&gt;Node17 -->
<g id="edge20_Node000001_Node000017" class="edge">
<title>Node1&#45;&gt;Node17</title>
<g id="a_edge20_Node000001_Node000017"><a xlink:title=" ">
<path fill="none" stroke="#63b8ff" d="M347.48,-391.93C341.18,-378.71 328.24,-353.81 312.62,-336 281.83,-300.87 237.65,-268.88 210.34,-250.69"/>
<polygon fill="#63b8ff" stroke="#63b8ff" points="212.31,-247.8 202.03,-245.25 208.48,-253.66 212.31,-247.8"/>
</a>
</g>
</g>
<!-- Node19 -->
<g id="Node000019" class="node">
<title>Node19</title>
<g id="a_Node000019"><a xlink:href="../../d7/d92/index__set__bitvector_8hpp.html" target="_top" xlink:title="Index_set implemented via bit vector.">
<polygon fill="white" stroke="#666666" points="573.62,-244 455.62,-244 455.62,-224 573.62,-224 573.62,-244"/>
<text text-anchor="middle" x="514.62" y="-230.5" font-family="Helvetica,sans-Serif" font-size="10.00">index_set_bitvector.hpp</text>
</a>
</g>
</g>
<!-- Node1&#45;&gt;Node19 -->
<g id="edge24_Node000001_Node000019" class="edge">
<title>Node1&#45;&gt;Node19</title>
<g id="a_edge24_Node000001_Node000019"><a xlink:title=" ">
<path fill="none" stroke="#63b8ff" d="M360.86,-391.6C387.3,-364.66 463.65,-286.92 497.78,-252.15"/>
<polygon fill="#63b8ff" stroke="#63b8ff" points="499.93,-254.96 504.44,-245.38 494.93,-250.06 499.93,-254.96"/>
</a>
</g>
</g>
<!-- Node21 -->
<g id="Node000021" class="node">
<title>Node21</title>
<g id="a_Node000021"><a xlink:href="../../d5/df8/index__set__sortedvector_8hpp.html" target="_top" xlink:title="Index_set implementation based upon a sorted vector of set elements.">
<polygon fill="white" stroke="#666666" points="437.88,-244 303.38,-244 303.38,-224 437.88,-224 437.88,-244"/>
<text text-anchor="middle" x="370.62" y="-230.5" font-family="Helvetica,sans-Serif" font-size="10.00">index_set_sortedvector.hpp</text>
</a>
</g>
</g>
<!-- Node1&#45;&gt;Node21 -->
<g id="edge28_Node000001_Node000021" class="edge">
<title>Node1&#45;&gt;Node21</title>
<g id="a_edge28_Node000001_Node000021"><a xlink:title=" ">
<path fill="none" stroke="#63b8ff" d="M352.7,-391.6C355.69,-365.46 364.16,-291.48 368.29,-255.36"/>
<polygon fill="#63b8ff" stroke="#63b8ff" points="371.73,-256.13 369.39,-245.8 364.77,-255.34 371.73,-256.13"/>
</a>
</g>
</g>
<!-- Node3 -->
<g id="Node000003" class="node">
<title>Node3</title>
<g id="a_Node000003"><a xlink:href="../../d7/dbf/st__set_8hpp.html" target="_top" xlink:title="Simple type set interface. Set may be ordered or unordered.">
<polygon fill="white" stroke="#666666" points="402.5,-188 316.75,-188 316.75,-168 402.5,-168 402.5,-188"/>
<text text-anchor="middle" x="359.62" y="-174.5" font-family="Helvetica,sans-Serif" font-size="10.00">ogxx/st_set.hpp</text>
</a>
</g>
</g>
<!-- Node2&#45;&gt;Node3 -->
<g id="edge2_Node000002_Node000003" class="edge">
<title>Node2&#45;&gt;Node3</title>
<g id="a_edge2_Node000002_Node000003"><a xlink:title=" ">
<path fill="none" stroke="#63b8ff" d="M245.68,-335.57C250.77,-313.88 265.74,-259.57 294.62,-224 304.36,-212.01 318.09,-201.87 330.43,-194.27"/>
<polygon fill="#63b8ff" stroke="#63b8ff" points="332.15,-197.31 339.03,-189.26 328.63,-191.26 332.15,-197.31"/>
</a>
</g>
</g>
<!-- Node14 -->
<g id="Node000014" class="node">
<title>Node14</title>
<g id="a_Node000014"><a xlink:href="../../d7/d6c/graph__view_8hpp.html" target="_top" xlink:title="Graph view interface that may be used for graph representation coversion.">
<polygon fill="white" stroke="#666666" points="176.62,-300 70.62,-300 70.62,-280 176.62,-280 176.62,-300"/>
<text text-anchor="middle" x="123.62" y="-286.5" font-family="Helvetica,sans-Serif" font-size="10.00">ogxx/graph_view.hpp</text>
</a>
</g>
</g>
<!-- Node2&#45;&gt;Node14 -->
<g id="edge14_Node000002_Node000014" class="edge">
<title>Node2&#45;&gt;Node14</title>
<g id="a_edge14_Node000002_Node000014"><a xlink:title=" ">
<path fill="none" stroke="#63b8ff" d="M222.72,-335.59C204,-327.17 176.27,-314.69 154.9,-305.07"/>
<polygon fill="#63b8ff" stroke="#63b8ff" points="156.63,-302.01 146.07,-301.1 153.75,-308.4 156.63,-302.01"/>
</a>
</g>
</g>
<!-- Node4 -->
<g id="Node000004" class="node">
<title>Node4</title>
<g id="a_Node000004"><a xlink:href="../../de/d2f/primitive__definitions_8hpp.html" target="_top" xlink:title="Primitive type declarations like scalar indices and so on.">
<polygon fill="white" stroke="#666666" points="323,-76 180.25,-76 180.25,-56 323,-56 323,-76"/>
<text text-anchor="middle" x="251.62" y="-62.5" font-family="Helvetica,sans-Serif" font-size="10.00">ogxx/primitive_definitions.hpp</text>
</a>
</g>
</g>
<!-- Node3&#45;&gt;Node4 -->
<g id="edge3_Node000003_Node000004" class="edge">
<title>Node3&#45;&gt;Node4</title>
<g id="a_edge3_Node000003_Node000004"><a xlink:title=" ">
<path fill="none" stroke="#63b8ff" d="M359.17,-167.52C358.05,-153.8 354.15,-128.27 340.62,-112 328.82,-97.8 311.41,-87.62 295.11,-80.58"/>
<polygon fill="#63b8ff" stroke="#63b8ff" points="296.62,-77.41 286.03,-76.95 294.02,-83.91 296.62,-77.41"/>
</a>
</g>
</g>
<!-- Node13 -->
<g id="Node000013" class="node">
<title>Node13</title>
<g id="a_Node000013"><a xlink:href="../../d9/dde/iterator_8hpp.html" target="_top" xlink:title="Linear sequence iterator interfaces.">
<polygon fill="white" stroke="#666666" points="332,-132 243.25,-132 243.25,-112 332,-112 332,-132"/>
<text text-anchor="middle" x="287.62" y="-118.5" font-family="Helvetica,sans-Serif" font-size="10.00">ogxx/iterator.hpp</text>
</a>
</g>
</g>
<!-- Node3&#45;&gt;Node13 -->
<g id="edge12_Node000003_Node000013" class="edge">
<title>Node3&#45;&gt;Node13</title>
<g id="a_edge12_Node000003_Node000013"><a xlink:title=" ">
<path fill="none" stroke="#63b8ff" d="M347.08,-167.59C336.66,-159.77 321.58,-148.46 309.21,-139.19"/>
<polygon fill="#63b8ff" stroke="#63b8ff" points="311.33,-136.41 301.23,-133.21 307.13,-142.01 311.33,-136.41"/>
</a>
</g>
</g>
<!-- Node5 -->
<g id="Node000005" class="node">
<title>Node5</title>
<g id="a_Node000005"><a xlink:title=" ">
<polygon fill="#e0e0e0" stroke="#999999" points="70.38,-20 22.88,-20 22.88,0 70.38,0 70.38,-20"/>
<text text-anchor="middle" x="46.62" y="-6.5" font-family="Helvetica,sans-Serif" font-size="10.00">cstddef</text>
</a>
</g>
</g>
<!-- Node4&#45;&gt;Node5 -->
<g id="edge4_Node000004_Node000005" class="edge">
<title>Node4&#45;&gt;Node5</title>
<g id="a_edge4_Node000004_Node000005"><a xlink:title=" ">
<path fill="none" stroke="#63b8ff" d="M214.45,-55.55C181.7,-47.19 132.45,-34.48 81.59,-20.77"/>
<polygon fill="#63b8ff" stroke="#63b8ff" points="82.75,-17.46 72.18,-18.23 80.92,-24.22 82.75,-17.46"/>
</a>
</g>
</g>
<!-- Node6 -->
<g id="Node000006" class="node">
<title>Node6</title>
<g id="a_Node000006"><a xlink:title=" ">
<polygon fill="#e0e0e0" stroke="#999999" points="133.25,-20 88,-20 88,0 133.25,0 133.25,-20"/>
<text text-anchor="middle" x="110.62" y="-6.5" font-family="Helvetica,sans-Serif" font-size="10.00">cstdint</text>
</a>
</g>
</g>
<!-- Node4&#45;&gt;Node6 -->
<g id="edge5_Node000004_Node000006" class="edge">
<title>Node4&#45;&gt;Node6</title>
<g id="a_edge5_Node000004_Node000006"><a xlink:title=" ">
<path fill="none" stroke="#63b8ff" d="M227.06,-55.59C204.11,-46.8 169.64,-33.6 144.16,-23.84"/>
<polygon fill="#63b8ff" stroke="#63b8ff" points="145.51,-20.61 134.92,-20.3 143,-27.15 145.51,-20.61"/>
</a>
</g>
</g>
<!-- Node7 -->
<g id="Node000007" class="node">
<title>Node7</title>
<g id="a_Node000007"><a xlink:title=" ">
<polygon fill="#e0e0e0" stroke="#999999" points="180.03,-20 151.22,-20 151.22,0 180.03,0 180.03,-20"/>
<text text-anchor="middle" x="165.62" y="-6.5" font-family="Helvetica,sans-Serif" font-size="10.00">bit</text>
</a>
</g>
</g>
<!-- Node4&#45;&gt;Node7 -->
<g id="edge6_Node000004_Node000007" class="edge">
<title>Node4&#45;&gt;Node7</title>
<g id="a_edge6_Node000004_Node000007"><a xlink:title=" ">
<path fill="none" stroke="#63b8ff" d="M236.64,-55.59C223.82,-47.54 205.1,-35.79 190.11,-26.37"/>
<polygon fill="#63b8ff" stroke="#63b8ff" points="192.05,-23.46 181.72,-21.1 188.32,-29.38 192.05,-23.46"/>
</a>
</g>
</g>
<!-- Node8 -->
<g id="Node000008" class="node">
<title>Node8</title>
<g id="a_Node000008"><a xlink:title=" ">
<polygon fill="#e0e0e0" stroke="#999999" points="237.25,-20 198,-20 198,0 237.25,0 237.25,-20"/>
<text text-anchor="middle" x="217.62" y="-6.5" font-family="Helvetica,sans-Serif" font-size="10.00">limits</text>
</a>
</g>
</g>
<!-- Node4&#45;&gt;Node8 -->
<g id="edge7_Node000004_Node000008" class="edge">
<title>Node4&#45;&gt;Node8</title>
<g id="a_edge7_Node000004_Node000008"><a xlink:title=" ">
<path fill="none" stroke="#63b8ff" d="M245.7,-55.59C241.27,-48.55 235.05,-38.67 229.59,-30"/>
<polygon fill="#63b8ff" stroke="#63b8ff" points="232.58,-28.18 224.29,-21.58 226.65,-31.91 232.58,-28.18"/>
</a>
</g>
</g>
<!-- Node9 -->
<g id="Node000009" class="node">
<title>Node9</title>
<g id="a_Node000009"><a xlink:title=" ">
<polygon fill="#e0e0e0" stroke="#999999" points="317.5,-20 255.75,-20 255.75,0 317.5,0 317.5,-20"/>
<text text-anchor="middle" x="286.62" y="-6.5" font-family="Helvetica,sans-Serif" font-size="10.00">type_traits</text>
</a>
</g>
</g>
<!-- Node4&#45;&gt;Node9 -->
<g id="edge8_Node000004_Node000009" class="edge">
<title>Node4&#45;&gt;Node9</title>
<g id="a_edge8_Node000004_Node000009"><a xlink:title=" ">
<path fill="none" stroke="#63b8ff" d="M257.72,-55.59C262.34,-48.47 268.83,-38.45 274.49,-29.72"/>
<polygon fill="#63b8ff" stroke="#63b8ff" points="277.27,-31.86 279.78,-21.57 271.4,-28.06 277.27,-31.86"/>
</a>
</g>
</g>
<!-- Node10 -->
<g id="Node000010" class="node">
<title>Node10</title>
<g id="a_Node000010"><a xlink:title=" ">
<polygon fill="#e0e0e0" stroke="#999999" points="387.25,-20 336,-20 336,0 387.25,0 387.25,-20"/>
<text text-anchor="middle" x="361.62" y="-6.5" font-family="Helvetica,sans-Serif" font-size="10.00">memory</text>
</a>
</g>
</g>
<!-- Node4&#45;&gt;Node10 -->
<g id="edge9_Node000004_Node000010" class="edge">
<title>Node4&#45;&gt;Node10</title>
<g id="a_edge9_Node000004_Node000010"><a xlink:title=" ">
<path fill="none" stroke="#63b8ff" d="M270.79,-55.59C287.72,-47.28 312.67,-35.03 332.15,-25.47"/>
<polygon fill="#63b8ff" stroke="#63b8ff" points="333.52,-28.7 340.96,-21.15 330.44,-22.41 333.52,-28.7"/>
</a>
</g>
</g>
<!-- Node11 -->
<g id="Node000011" class="node">
<title>Node11</title>
<g id="a_Node000011"><a xlink:title=" ">
<polygon fill="#e0e0e0" stroke="#999999" points="444.25,-20 405,-20 405,0 444.25,0 444.25,-20"/>
<text text-anchor="middle" x="424.62" y="-6.5" font-family="Helvetica,sans-Serif" font-size="10.00">utility</text>
</a>
</g>
</g>
<!-- Node4&#45;&gt;Node11 -->
<g id="edge10_Node000004_Node000011" class="edge">
<title>Node4&#45;&gt;Node11</title>
<g id="a_edge10_Node000004_Node000011"><a xlink:title=" ">
<path fill="none" stroke="#63b8ff" d="M282.48,-55.52C309.62,-47.16 350.46,-34.54 393.94,-20.83"/>
<polygon fill="#63b8ff" stroke="#63b8ff" points="394.82,-24.22 403.3,-17.87 392.71,-17.55 394.82,-24.22"/>
</a>
</g>
</g>
<!-- Node12 -->
<g id="Node000012" class="node">
<title>Node12</title>
<g id="a_Node000012"><a xlink:title=" ">
<polygon fill="#e0e0e0" stroke="#999999" points="521,-20 462.25,-20 462.25,0 521,0 521,-20"/>
<text text-anchor="middle" x="491.62" y="-6.5" font-family="Helvetica,sans-Serif" font-size="10.00">stdexcept</text>
</a>
</g>
</g>
<!-- Node4&#45;&gt;Node12 -->
<g id="edge11_Node000004_Node000012" class="edge">
<title>Node4&#45;&gt;Node12</title>
<g id="a_edge11_Node000004_Node000012"><a xlink:title=" ">
<path fill="none" stroke="#63b8ff" d="M295.01,-55.51C333.54,-47.04 391.69,-34.17 450.73,-20.64"/>
<polygon fill="#63b8ff" stroke="#63b8ff" points="451.32,-24.1 460.29,-18.45 449.76,-17.28 451.32,-24.1"/>
</a>
</g>
</g>
<!-- Node13&#45;&gt;Node4 -->
<g id="edge13_Node000013_Node000004" class="edge">
<title>Node13&#45;&gt;Node4</title>
<g id="a_edge13_Node000013_Node000004"><a xlink:title=" ">
<path fill="none" stroke="#63b8ff" d="M281.35,-111.59C276.61,-104.47 269.93,-94.45 264.1,-85.72"/>
<polygon fill="#63b8ff" stroke="#63b8ff" points="267.12,-83.94 258.66,-77.56 261.3,-87.82 267.12,-83.94"/>
</a>
</g>
</g>
<!-- Node15 -->
<g id="Node000015" class="node">
<title>Node15</title>
<g id="a_Node000015"><a xlink:href="../../d4/d1a/vertex__pair_8hpp.html" target="_top" xlink:title="Vertex pair related type declarations.">
<polygon fill="white" stroke="#666666" points="105.25,-244 0,-244 0,-224 105.25,-224 105.25,-244"/>
<text text-anchor="middle" x="52.62" y="-230.5" font-family="Helvetica,sans-Serif" font-size="10.00">ogxx/vertex_pair.hpp</text>
</a>
</g>
</g>
<!-- Node14&#45;&gt;Node15 -->
<g id="edge15_Node000014_Node000015" class="edge">
<title>Node14&#45;&gt;Node15</title>
<g id="a_edge15_Node000014_Node000015"><a xlink:title=" ">
<path fill="none" stroke="#63b8ff" d="M111.26,-279.59C100.98,-271.77 86.11,-260.46 73.91,-251.19"/>
<polygon fill="#63b8ff" stroke="#63b8ff" points="76.13,-248.48 66.06,-245.21 71.9,-254.05 76.13,-248.48"/>
</a>
</g>
</g>
<!-- Node15&#45;&gt;Node4 -->
<g id="edge16_Node000015_Node000004" class="edge">
<title>Node15&#45;&gt;Node4</title>
<g id="a_edge16_Node000015_Node000004"><a xlink:title=" ">
<path fill="none" stroke="#63b8ff" d="M58.46,-223.88C67.22,-210.61 84.77,-185.64 103.62,-168 141.79,-132.29 193.6,-99.95 224.72,-81.94"/>
<polygon fill="#63b8ff" stroke="#63b8ff" points="226.16,-85.14 233.11,-77.15 222.69,-79.07 226.16,-85.14"/>
</a>
</g>
</g>
<!-- Node16 -->
<g id="Node000016" class="node">
<title>Node16</title>
<g id="a_Node000016"><a xlink:href="../../db/d3e/iterable_8hpp.html" target="_top" xlink:title="Iterable interfaces.">
<polygon fill="white" stroke="#666666" points="298.75,-188 208.5,-188 208.5,-168 298.75,-168 298.75,-188"/>
<text text-anchor="middle" x="253.62" y="-174.5" font-family="Helvetica,sans-Serif" font-size="10.00">ogxx/iterable.hpp</text>
</a>
</g>
</g>
<!-- Node15&#45;&gt;Node16 -->
<g id="edge17_Node000015_Node000016" class="edge">
<title>Node15&#45;&gt;Node16</title>
<g id="a_edge17_Node000015_Node000016"><a xlink:title=" ">
<path fill="none" stroke="#63b8ff" d="M87.64,-223.59C120.87,-214.67 171.01,-201.19 207.49,-191.39"/>
<polygon fill="#63b8ff" stroke="#63b8ff" points="208.13,-194.85 216.88,-188.87 206.31,-188.09 208.13,-194.85"/>
</a>
</g>
</g>
<!-- Node16&#45;&gt;Node4 -->
<g id="edge18_Node000016_Node000004" class="edge">
<title>Node16&#45;&gt;Node4</title>
<g id="a_edge18_Node000016_Node000004"><a xlink:title=" ">
<path fill="none" stroke="#63b8ff" d="M248.39,-167.7C243.73,-158.84 237.25,-144.97 234.62,-132 231.51,-116.59 236.38,-99.4 241.7,-86.56"/>
<polygon fill="#63b8ff" stroke="#63b8ff" points="244.84,-88.1 245.85,-77.56 238.49,-85.17 244.84,-88.1"/>
</a>
</g>
</g>
<!-- Node16&#45;&gt;Node13 -->
<g id="edge19_Node000016_Node000013" class="edge">
<title>Node16&#45;&gt;Node13</title>
<g id="a_edge19_Node000016_Node000013"><a xlink:title=" ">
<path fill="none" stroke="#63b8ff" d="M259.55,-167.59C263.98,-160.55 270.2,-150.67 275.66,-142"/>
<polygon fill="#63b8ff" stroke="#63b8ff" points="278.6,-143.91 280.96,-133.58 272.67,-140.18 278.6,-143.91"/>
</a>
</g>
</g>
<!-- Node17&#45;&gt;Node3 -->
<g id="edge21_Node000017_Node000003" class="edge">
<title>Node17&#45;&gt;Node3</title>
<g id="a_edge21_Node000017_Node000003"><a xlink:title=" ">
<path fill="none" stroke="#63b8ff" d="M215.93,-223.59C244.33,-214.78 286.99,-201.54 318.46,-191.78"/>
<polygon fill="#63b8ff" stroke="#63b8ff" points="319.12,-195.23 327.63,-188.93 317.05,-188.55 319.12,-195.23"/>
</a>
</g>
</g>
<!-- Node17&#45;&gt;Node16 -->
<g id="edge22_Node000017_Node000016" class="edge">
<title>Node17&#45;&gt;Node16</title>
<g id="a_edge22_Node000017_Node000016"><a xlink:title=" ">
<path fill="none" stroke="#63b8ff" d="M197.47,-223.59C207.32,-215.77 221.56,-204.46 233.23,-195.19"/>
<polygon fill="#63b8ff" stroke="#63b8ff" points="235.08,-198.2 240.73,-189.24 230.72,-192.72 235.08,-198.2"/>
</a>
</g>
</g>
<!-- Node18 -->
<g id="Node000018" class="node">
<title>Node18</title>
<g id="a_Node000018"><a xlink:title=" ">
<polygon fill="#e0e0e0" stroke="#999999" points="190.38,-188 112.88,-188 112.88,-168 190.38,-168 190.38,-188"/>
<text text-anchor="middle" x="151.62" y="-174.5" font-family="Helvetica,sans-Serif" font-size="10.00">unordered_set</text>
</a>
</g>
</g>
<!-- Node17&#45;&gt;Node18 -->
<g id="edge23_Node000017_Node000018" class="edge">
<title>Node17&#45;&gt;Node18</title>
<g id="a_edge23_Node000017_Node000018"><a xlink:title=" ">
<path fill="none" stroke="#63b8ff" d="M179.7,-223.59C175.27,-216.55 169.05,-206.67 163.59,-198"/>
<polygon fill="#63b8ff" stroke="#63b8ff" points="166.58,-196.18 158.29,-189.58 160.65,-199.91 166.58,-196.18"/>
</a>
</g>
</g>
<!-- Node19&#45;&gt;Node3 -->
<g id="edge25_Node000019_Node000003" class="edge">
<title>Node19&#45;&gt;Node3</title>
<g id="a_edge25_Node000019_Node000003"><a xlink:title=" ">
<path fill="none" stroke="#63b8ff" d="M487.63,-223.59C462.66,-214.9 425.32,-201.89 397.4,-192.16"/>
<polygon fill="#63b8ff" stroke="#63b8ff" points="398.86,-188.96 388.26,-188.98 396.56,-195.57 398.86,-188.96"/>
</a>
</g>
</g>
<!-- Node19&#45;&gt;Node16 -->
<g id="edge26_Node000019_Node000016" class="edge">
<title>Node19&#45;&gt;Node16</title>
<g id="a_edge26_Node000019_Node000016"><a xlink:title=" ">
<path fill="none" stroke="#63b8ff" d="M468.86,-223.53C424.6,-214.38 357.44,-200.48 309.92,-190.65"/>
<polygon fill="#63b8ff" stroke="#63b8ff" points="310.88,-187.27 300.38,-188.67 309.46,-194.13 310.88,-187.27"/>
</a>
</g>
</g>
<!-- Node20 -->
<g id="Node000020" class="node">
<title>Node20</title>
<g id="a_Node000020"><a xlink:title=" ">
<polygon fill="#e0e0e0" stroke="#999999" points="498.38,-188 456.88,-188 456.88,-168 498.38,-168 498.38,-188"/>
<text text-anchor="middle" x="477.62" y="-174.5" font-family="Helvetica,sans-Serif" font-size="10.00">vector</text>
</a>
</g>
</g>
<!-- Node19&#45;&gt;Node20 -->
<g id="edge27_Node000019_Node000020" class="edge">
<title>Node19&#45;&gt;Node20</title>
<g id="a_edge27_Node000019_Node000020"><a xlink:title=" ">
<path fill="none" stroke="#63b8ff" d="M508.18,-223.59C503.3,-216.47 496.43,-206.45 490.45,-197.72"/>
<polygon fill="#63b8ff" stroke="#63b8ff" points="493.39,-195.82 484.85,-189.55 487.62,-199.77 493.39,-195.82"/>
</a>
</g>
</g>
<!-- Node21&#45;&gt;Node3 -->
<g id="edge29_Node000021_Node000003" class="edge">
<title>Node21&#45;&gt;Node3</title>
<g id="a_edge29_Node000021_Node000003"><a xlink:title=" ">
<path fill="none" stroke="#63b8ff" d="M368.71,-223.59C367.35,-216.93 365.48,-207.75 363.79,-199.44"/>
<polygon fill="#63b8ff" stroke="#63b8ff" points="367.25,-198.88 361.82,-189.78 360.39,-200.28 367.25,-198.88"/>
</a>
</g>
</g>
<!-- Node21&#45;&gt;Node16 -->
<g id="edge30_Node000021_Node000016" class="edge">
<title>Node21&#45;&gt;Node16</title>
<g id="a_edge30_Node000021_Node000016"><a xlink:title=" ">
<path fill="none" stroke="#63b8ff" d="M350.25,-223.59C332.07,-215.21 305.2,-202.8 284.41,-193.21"/>
<polygon fill="#63b8ff" stroke="#63b8ff" points="286.08,-190.13 275.54,-189.11 283.15,-196.48 286.08,-190.13"/>
</a>
</g>
</g>
<!-- Node21&#45;&gt;Node20 -->
<g id="edge31_Node000021_Node000020" class="edge">
<title>Node21&#45;&gt;Node20</title>
<g id="a_edge31_Node000021_Node000020"><a xlink:title=" ">
<path fill="none" stroke="#63b8ff" d="M389.26,-223.59C405.66,-215.32 429.78,-203.14 448.69,-193.6"/>
<polygon fill="#63b8ff" stroke="#63b8ff" points="450.14,-196.79 457.49,-189.16 446.99,-190.54 450.14,-196.79"/>
</a>
</g>
</g>
</g>
</svg>
