<?xml version="1.0" encoding="UTF-8" standalone="no"?>
<!DOCTYPE svg PUBLIC "-//W3C//DTD SVG 1.1//EN"
 "http://www.w3.org/Graphics/SVG/1.1/DTD/svg11.dtd">
<!-- Generated by graphviz version 9.0.0 (20230911.1827)
 -->
<!-- Title: ogxx::Adjacency_list_vector Pages: 1 -->
<svg width="338pt" height="394pt"
 viewBox="0.00 0.00 337.62 394.00" xmlns="http://www.w3.org/2000/svg" xmlns:xlink="http://www.w3.org/1999/xlink">
<g id="graph0" class="graph" transform="scale(1 1) rotate(0) translate(4 390)">
<title>ogxx::Adjacency_list_vector</title>
<!-- Node1 -->
<g id="Node000001" class="node">
<title>Node1</title>
<g id="a_Node000001"><a xlink:title=" ">
<polygon fill="#999999" stroke="#666666" points="196.12,-32 89.38,-32 89.38,0 196.12,0 196.12,-32"/>
<text text-anchor="start" x="97.38" y="-18.5" font-family="Helvetica,sans-Serif" font-size="10.00">ogxx::Adjacency_list</text>
<text text-anchor="middle" x="142.75" y="-6.5" font-family="Helvetica,sans-Serif" font-size="10.00">_vector</text>
</a>
</g>
</g>
<!-- Node2 -->
<g id="Node000002" class="node">
<title>Node2</title>
<g id="a_Node000002"><a xlink:href="../../d3/d35/classogxx_1_1_adjacency__list.html" target="_top" xlink:title="Graph representation where, which maps vertex index to the adjacency of that vertex.">
<polygon fill="white" stroke="#666666" points="196.12,-106 89.38,-106 89.38,-86 196.12,-86 196.12,-106"/>
<text text-anchor="middle" x="142.75" y="-92.5" font-family="Helvetica,sans-Serif" font-size="10.00">ogxx::Adjacency_list</text>
</a>
</g>
</g>
<!-- Node2&#45;&gt;Node1 -->
<g id="edge1_Node000001_Node000002" class="edge">
<title>Node2&#45;&gt;Node1</title>
<g id="a_edge1_Node000001_Node000002"><a xlink:title=" ">
<path fill="none" stroke="#63b8ff" d="M136.73,-74.51C135.61,-61.32 135.78,-44.47 137.25,-32.42"/>
<polygon fill="#63b8ff" stroke="#63b8ff" points="133.23,-74.78 138,-84.25 140.17,-73.88 133.23,-74.78"/>
</a>
</g>
</g>
<!-- Node2&#45;&gt;Node1 -->
<g id="edge8_Node000001_Node000002" class="edge">
<title>Node2&#45;&gt;Node1</title>
<g id="a_edge8_Node000001_Node000002"><a xlink:title=" ">
<path fill="none" stroke="#63b8ff" d="M148.77,-74.51C149.89,-61.32 149.72,-44.47 148.25,-32.42"/>
<polygon fill="#63b8ff" stroke="#63b8ff" points="145.33,-73.88 147.5,-84.25 152.27,-74.78 145.33,-73.88"/>
</a>
</g>
</g>
<!-- Node3 -->
<g id="Node000003" class="node">
<title>Node3</title>
<g id="a_Node000003"><a xlink:href="../../d8/d68/classogxx_1_1_list.html" target="_top" xlink:title=" ">
<polygon fill="white" stroke="#666666" points="203,-180 80.5,-180 80.5,-160 203,-160 203,-180"/>
<text text-anchor="middle" x="141.75" y="-166.5" font-family="Helvetica,sans-Serif" font-size="10.00">ogxx::List&lt; Adjacency &gt;</text>
</a>
</g>
</g>
<!-- Node3&#45;&gt;Node2 -->
<g id="edge2_Node000002_Node000003" class="edge">
<title>Node3&#45;&gt;Node2</title>
<g id="a_edge2_Node000002_Node000003"><a xlink:title=" ">
<path fill="none" stroke="#63b8ff" d="M142.04,-148.18C142.23,-134.29 142.48,-116.71 142.62,-106.19"/>
<polygon fill="#63b8ff" stroke="#63b8ff" points="138.54,-148.03 141.9,-158.07 145.54,-148.12 138.54,-148.03"/>
</a>
</g>
</g>
<!-- Node4 -->
<g id="Node000004" class="node">
<title>Node4</title>
<g id="a_Node000004"><a xlink:href="../../d2/d20/classogxx_1_1_indexed__iterable.html" target="_top" xlink:title="Finally, the linear zero&#45;based integer&#45;indexed iterable collection.">
<polygon fill="white" stroke="#666666" points="113.5,-260 0,-260 0,-228 113.5,-228 113.5,-260"/>
<text text-anchor="start" x="8" y="-246.5" font-family="Helvetica,sans-Serif" font-size="10.00">ogxx::Indexed_iterable</text>
<text text-anchor="middle" x="56.75" y="-234.5" font-family="Helvetica,sans-Serif" font-size="10.00">&lt; Item &gt;</text>
</a>
</g>
</g>
<!-- Node4&#45;&gt;Node3 -->
<g id="edge3_Node000003_Node000004" class="edge">
<title>Node4&#45;&gt;Node3</title>
<g id="a_edge3_Node000003_Node000004"><a xlink:title=" ">
<path fill="none" stroke="#63b8ff" d="M83.23,-220.57C99.24,-207.01 118.8,-190.44 130.76,-180.31"/>
<polygon fill="#63b8ff" stroke="#63b8ff" points="81.3,-217.62 75.93,-226.75 85.82,-222.96 81.3,-217.62"/>
</a>
</g>
</g>
<!-- Node5 -->
<g id="Node000005" class="node">
<title>Node5</title>
<g id="a_Node000005"><a xlink:href="../../d9/d72/classogxx_1_1_sized__iterable.html" target="_top" xlink:title="Not only iterable but we know in advance, how many items it contains.">
<polygon fill="white" stroke="#666666" points="170,-329 65.5,-329 65.5,-297 170,-297 170,-329"/>
<text text-anchor="start" x="73.5" y="-315.5" font-family="Helvetica,sans-Serif" font-size="10.00">ogxx::Sized_iterable</text>
<text text-anchor="middle" x="117.75" y="-303.5" font-family="Helvetica,sans-Serif" font-size="10.00">&lt; Item &gt;</text>
</a>
</g>
</g>
<!-- Node5&#45;&gt;Node4 -->
<g id="edge4_Node000004_Node000005" class="edge">
<title>Node5&#45;&gt;Node4</title>
<g id="a_edge4_Node000004_Node000005"><a xlink:title=" ">
<path fill="none" stroke="#63b8ff" d="M96.41,-288.56C87.82,-279.13 78.17,-268.53 70.54,-260.14"/>
<polygon fill="#63b8ff" stroke="#63b8ff" points="93.57,-290.64 102.89,-295.68 98.75,-285.93 93.57,-290.64"/>
</a>
</g>
</g>
<!-- Node7 -->
<g id="Node000007" class="node">
<title>Node7</title>
<g id="a_Node000007"><a xlink:href="../../d2/d24/classogxx_1_1_bag.html" target="_top" xlink:title="Generic container interface with inserts and erases but no fixed ordering of items.">
<polygon fill="white" stroke="#666666" points="228.25,-254 131.25,-254 131.25,-234 228.25,-234 228.25,-254"/>
<text text-anchor="middle" x="179.75" y="-240.5" font-family="Helvetica,sans-Serif" font-size="10.00">ogxx::Bag&lt; Item &gt;</text>
</a>
</g>
</g>
<!-- Node5&#45;&gt;Node7 -->
<g id="edge7_Node000007_Node000005" class="edge">
<title>Node5&#45;&gt;Node7</title>
<g id="a_edge7_Node000007_Node000005"><a xlink:title=" ">
<path fill="none" stroke="#63b8ff" d="M139.42,-288.58C150.4,-276.72 163.1,-262.99 171.27,-254.16"/>
<polygon fill="#63b8ff" stroke="#63b8ff" points="137.07,-285.97 132.85,-295.69 142.21,-290.72 137.07,-285.97"/>
</a>
</g>
</g>
<!-- Node6 -->
<g id="Node000006" class="node">
<title>Node6</title>
<g id="a_Node000006"><a xlink:href="../../d8/d9b/classogxx_1_1_iterable.html" target="_top" xlink:title="An interface for an object that can be iterated with an iterator.">
<polygon fill="white" stroke="#666666" points="173.38,-386 62.12,-386 62.12,-366 173.38,-366 173.38,-386"/>
<text text-anchor="middle" x="117.75" y="-372.5" font-family="Helvetica,sans-Serif" font-size="10.00">ogxx::Iterable&lt; Item &gt;</text>
</a>
</g>
</g>
<!-- Node6&#45;&gt;Node5 -->
<g id="edge5_Node000005_Node000006" class="edge">
<title>Node6&#45;&gt;Node5</title>
<g id="a_edge5_Node000005_Node000006"><a xlink:title=" ">
<path fill="none" stroke="#63b8ff" d="M117.75,-354.36C117.75,-346.07 117.75,-336.69 117.75,-329.06"/>
<polygon fill="#63b8ff" stroke="#63b8ff" points="114.25,-354.22 117.75,-364.22 121.25,-354.22 114.25,-354.22"/>
</a>
</g>
</g>
<!-- Node7&#45;&gt;Node3 -->
<g id="edge6_Node000003_Node000007" class="edge">
<title>Node7&#45;&gt;Node3</title>
<g id="a_edge6_Node000003_Node000007"><a xlink:title=" ">
<path fill="none" stroke="#63b8ff" d="M169.43,-223.44C162,-209.37 152.32,-191.03 146.6,-180.19"/>
<polygon fill="#63b8ff" stroke="#63b8ff" points="166.31,-225.04 174.08,-232.25 172.5,-221.77 166.31,-225.04"/>
</a>
</g>
</g>
<!-- Node8 -->
<g id="Node000008" class="node">
<title>Node8</title>
<g id="a_Node000008"><a xlink:title=" ">
<polygon fill="white" stroke="#666666" points="329.62,-112 213.88,-112 213.88,-80 329.62,-80 329.62,-112"/>
<text text-anchor="start" x="221.88" y="-98.5" font-family="Helvetica,sans-Serif" font-size="10.00">std::vector&lt; Adjacency</text>
<text text-anchor="middle" x="271.75" y="-86.5" font-family="Helvetica,sans-Serif" font-size="10.00">_uptr &gt;</text>
</a>
</g>
</g>
<!-- Node8&#45;&gt;Node1 -->
<g id="edge9_Node000001_Node000008" class="edge">
<title>Node8&#45;&gt;Node1</title>
<g id="a_edge9_Node000001_Node000008"><a xlink:title=" ">
<path fill="none" stroke="#9a32cd" stroke-dasharray="5,2" d="M236.47,-73.67C214.85,-60.6 187.69,-44.17 168.18,-32.38"/>
<polygon fill="#9a32cd" stroke="#9a32cd" points="234.6,-76.63 244.97,-78.81 238.22,-70.64 234.6,-76.63"/>
</a>
</g>
<text text-anchor="middle" x="226.25" y="-52.5" font-family="Helvetica,sans-Serif" font-size="10.00" fill="grey"> _adj</text>
</g>
<!-- Node9 -->
<g id="Node000009" class="node">
<title>Node9</title>
<g id="a_Node000009"><a xlink:title=" ">
<polygon fill="white" stroke="#666666" points="324.62,-180 220.88,-180 220.88,-160 324.62,-160 324.62,-180"/>
<text text-anchor="middle" x="272.75" y="-166.5" font-family="Helvetica,sans-Serif" font-size="10.00">std::unique_ptr&lt; T &gt;</text>
</a>
</g>
</g>
<!-- Node9&#45;&gt;Node8 -->
<g id="edge10_Node000008_Node000009" class="edge">
<title>Node9&#45;&gt;Node8</title>
<g id="a_edge10_Node000008_Node000009"><a xlink:title=" ">
<path fill="none" stroke="#9a32cd" stroke-dasharray="5,2" d="M272.46,-148.1C272.3,-136.71 272.11,-122.87 271.96,-112.47"/>
<polygon fill="#9a32cd" stroke="#9a32cd" points="268.96,-148.12 272.6,-158.07 275.96,-148.03 268.96,-148.12"/>
</a>
</g>
<text text-anchor="middle" x="293.12" y="-132.5" font-family="Helvetica,sans-Serif" font-size="10.00" fill="grey"> elements</text>
</g>
<!-- Node10 -->
<g id="Node000010" class="node">
<title>Node10</title>
<g id="a_Node000010"><a xlink:title=" ">
<polygon fill="white" stroke="#666666" points="287.15,-254 258.35,-254 258.35,-234 287.15,-234 287.15,-254"/>
<text text-anchor="middle" x="272.75" y="-240.5" font-family="Helvetica,sans-Serif" font-size="10.00">T</text>
</a>
</g>
</g>
<!-- Node10&#45;&gt;Node9 -->
<g id="edge11_Node000009_Node000010" class="edge">
<title>Node10&#45;&gt;Node9</title>
<g id="a_edge11_Node000009_Node000010"><a xlink:title=" ">
<path fill="none" stroke="#9a32cd" stroke-dasharray="5,2" d="M272.75,-222.18C272.75,-208.29 272.75,-190.71 272.75,-180.19"/>
<polygon fill="#9a32cd" stroke="#9a32cd" points="269.25,-222.07 272.75,-232.07 276.25,-222.07 269.25,-222.07"/>
</a>
</g>
<text text-anchor="middle" x="279.88" y="-200.5" font-family="Helvetica,sans-Serif" font-size="10.00" fill="grey"> ptr</text>
</g>
</g>
</svg>
