<?xml version="1.0" encoding="UTF-8" standalone="no"?>
<!DOCTYPE svg PUBLIC "-//W3C//DTD SVG 1.1//EN"
 "http://www.w3.org/Graphics/SVG/1.1/DTD/svg11.dtd">
<!-- Generated by graphviz version 9.0.0 (20230911.1827)
 -->
<!-- Title: include/ogxx/graph_view.hpp Pages: 1 -->
<svg width="1525pt" height="300pt"
 viewBox="0.00 0.00 1525.38 300.00" xmlns="http://www.w3.org/2000/svg" xmlns:xlink="http://www.w3.org/1999/xlink">
<g id="graph0" class="graph" transform="scale(1 1) rotate(0) translate(4 296)">
<title>include/ogxx/graph_view.hpp</title>
<!-- Node1 -->
<g id="Node000001" class="node">
<title>Node1</title>
<g id="a_Node000001"><a xlink:title="Graph view interface that may be used for graph representation coversion.">
<polygon fill="#999999" stroke="#666666" points="916.12,-292 818.38,-292 818.38,-260 916.12,-260 916.12,-292"/>
<text text-anchor="start" x="826.38" y="-278.5" font-family="Helvetica,sans-Serif" font-size="10.00">include/ogxx/graph</text>
<text text-anchor="middle" x="867.25" y="-266.5" font-family="Helvetica,sans-Serif" font-size="10.00">_view.hpp</text>
</a>
</g>
</g>
<!-- Node2 -->
<g id="Node000002" class="node">
<title>Node2</title>
<g id="a_Node000002"><a xlink:href="../../d6/da0/adjacency__list_8hpp.html" target="_top" xlink:title="Adjacency list graph representation interface.">
<polygon fill="white" stroke="#666666" points="1035.25,-224 917.25,-224 917.25,-192 1035.25,-192 1035.25,-224"/>
<text text-anchor="start" x="925.25" y="-210.5" font-family="Helvetica,sans-Serif" font-size="10.00">include/ogxx/adjacency</text>
<text text-anchor="middle" x="976.25" y="-198.5" font-family="Helvetica,sans-Serif" font-size="10.00">_list.hpp</text>
</a>
</g>
</g>
<!-- Node1&#45;&gt;Node2 -->
<g id="edge1_Node000001_Node000002" class="edge">
<title>Node1&#45;&gt;Node2</title>
<g id="a_edge1_Node000001_Node000002"><a xlink:title=" ">
<path fill="none" stroke="#63b8ff" d="M902.27,-253.8C918.07,-244.23 936.4,-233.13 950.85,-224.38"/>
<polygon fill="#63b8ff" stroke="#63b8ff" points="900.84,-250.57 894.1,-258.74 904.47,-256.56 900.84,-250.57"/>
</a>
</g>
</g>
<!-- Node7 -->
<g id="Node000007" class="node">
<title>Node7</title>
<g id="a_Node000007"><a xlink:href="../../d3/dcc/graph__repr__conv_8hpp.html" target="_top" xlink:title="Graph representation conversion operations.">
<polygon fill="white" stroke="#666666" points="664.12,-156 566.38,-156 566.38,-124 664.12,-124 664.12,-156"/>
<text text-anchor="start" x="574.38" y="-142.5" font-family="Helvetica,sans-Serif" font-size="10.00">include/ogxx/graph</text>
<text text-anchor="middle" x="615.25" y="-130.5" font-family="Helvetica,sans-Serif" font-size="10.00">_repr_conv.hpp</text>
</a>
</g>
</g>
<!-- Node1&#45;&gt;Node7 -->
<g id="edge20_Node000001_Node000007" class="edge">
<title>Node1&#45;&gt;Node7</title>
<g id="a_edge20_Node000001_Node000007"><a xlink:title=" ">
<path fill="none" stroke="#63b8ff" d="M806.91,-268.46C768.14,-261.97 718.14,-249.17 680.25,-224 654.03,-206.58 633.7,-175.1 623.18,-156.32"/>
<polygon fill="#63b8ff" stroke="#63b8ff" points="806.12,-271.88 816.54,-269.97 807.21,-264.96 806.12,-271.88"/>
</a>
</g>
</g>
<!-- Node10 -->
<g id="Node000010" class="node">
<title>Node10</title>
<g id="a_Node000010"><a xlink:href="../../d0/da2/graph__view__di__al_8cpp.html" target="_top" xlink:title="Graph view implementation for directed graph represented by an adjacency list.">
<polygon fill="white" stroke="#666666" points="1517.38,-156 1409.12,-156 1409.12,-124 1517.38,-124 1517.38,-156"/>
<text text-anchor="start" x="1417.12" y="-142.5" font-family="Helvetica,sans-Serif" font-size="10.00">source/graph_view_di</text>
<text text-anchor="middle" x="1463.25" y="-130.5" font-family="Helvetica,sans-Serif" font-size="10.00">_al.cpp</text>
</a>
</g>
</g>
<!-- Node1&#45;&gt;Node10 -->
<g id="edge21_Node000001_Node000010" class="edge">
<title>Node1&#45;&gt;Node10</title>
<g id="a_edge21_Node000001_Node000010"><a xlink:title=" ">
<path fill="none" stroke="#63b8ff" d="M927.44,-264.23C962.86,-256.32 1007.72,-243.5 1044.25,-224 1063.73,-213.6 1061.97,-200.73 1082.25,-192 1212.91,-135.79 1260.14,-180.52 1400.25,-156 1403.02,-155.52 1405.85,-154.98 1408.7,-154.42"/>
<polygon fill="#63b8ff" stroke="#63b8ff" points="926.82,-260.78 917.78,-266.31 928.29,-267.63 926.82,-260.78"/>
</a>
</g>
</g>
<!-- Node11 -->
<g id="Node000011" class="node">
<title>Node11</title>
<g id="a_Node000011"><a xlink:href="../../dc/dbd/bit__matrix_8hpp.html" target="_top" xlink:title="Bit_matrix interface.">
<polygon fill="white" stroke="#666666" points="492.88,-218 357.62,-218 357.62,-198 492.88,-198 492.88,-218"/>
<text text-anchor="middle" x="425.25" y="-204.5" font-family="Helvetica,sans-Serif" font-size="10.00">include/ogxx/bit_matrix.hpp</text>
</a>
</g>
</g>
<!-- Node1&#45;&gt;Node11 -->
<g id="edge10_Node000001_Node000011" class="edge">
<title>Node1&#45;&gt;Node11</title>
<g id="a_edge10_Node000001_Node000011"><a xlink:title=" ">
<path fill="none" stroke="#63b8ff" d="M806.95,-266C723.55,-253.54 573.71,-231.17 488.69,-218.47"/>
<polygon fill="#63b8ff" stroke="#63b8ff" points="806.36,-269.45 816.76,-267.46 807.39,-262.52 806.36,-269.45"/>
</a>
</g>
</g>
<!-- Node14 -->
<g id="Node000014" class="node">
<title>Node14</title>
<g id="a_Node000014"><a xlink:href="../../dc/d24/graph__view__un__am_8cpp.html" target="_top" xlink:title="Adjacency matrix of undirected graph adapter.">
<polygon fill="white" stroke="#666666" points="547.88,-156 436.62,-156 436.62,-124 547.88,-124 547.88,-156"/>
<text text-anchor="start" x="444.62" y="-142.5" font-family="Helvetica,sans-Serif" font-size="10.00">source/graph_view_un</text>
<text text-anchor="middle" x="492.25" y="-130.5" font-family="Helvetica,sans-Serif" font-size="10.00">_am.cpp</text>
</a>
</g>
</g>
<!-- Node1&#45;&gt;Node14 -->
<g id="edge23_Node000001_Node000014" class="edge">
<title>Node1&#45;&gt;Node14</title>
<g id="a_edge23_Node000001_Node000014"><a xlink:title=" ">
<path fill="none" stroke="#63b8ff" d="M806.79,-265.94C760.93,-257.96 696.87,-244.38 643.25,-224 595.43,-205.83 544.12,-174.9 515.32,-156.36"/>
<polygon fill="#63b8ff" stroke="#63b8ff" points="806.1,-269.38 816.55,-267.6 807.27,-262.47 806.1,-269.38"/>
</a>
</g>
</g>
<!-- Node16 -->
<g id="Node000016" class="node">
<title>Node16</title>
<g id="a_Node000016"><a xlink:href="../../d0/df1/edge__list_8hpp.html" target="_top" xlink:title="Graph edge list interface.">
<polygon fill="white" stroke="#666666" points="821,-218 689.5,-218 689.5,-198 821,-198 821,-218"/>
<text text-anchor="middle" x="755.25" y="-204.5" font-family="Helvetica,sans-Serif" font-size="10.00">include/ogxx/edge_list.hpp</text>
</a>
</g>
</g>
<!-- Node1&#45;&gt;Node16 -->
<g id="edge16_Node000001_Node000016" class="edge">
<title>Node1&#45;&gt;Node16</title>
<g id="a_edge16_Node000001_Node000016"><a xlink:title=" ">
<path fill="none" stroke="#63b8ff" d="M831.17,-253.74C811,-241.85 786.86,-227.63 771.3,-218.46"/>
<polygon fill="#63b8ff" stroke="#63b8ff" points="829.29,-256.7 839.69,-258.76 832.85,-250.67 829.29,-256.7"/>
</a>
</g>
</g>
<!-- Node18 -->
<g id="Node000018" class="node">
<title>Node18</title>
<g id="a_Node000018"><a xlink:href="../../d1/d63/graph__view__di__el_8cpp.html" target="_top" xlink:title="Graph view implementation for directed graph represented by an edge list.">
<polygon fill="white" stroke="#666666" points="921.38,-156 813.12,-156 813.12,-124 921.38,-124 921.38,-156"/>
<text text-anchor="start" x="821.12" y="-142.5" font-family="Helvetica,sans-Serif" font-size="10.00">source/graph_view_di</text>
<text text-anchor="middle" x="867.25" y="-130.5" font-family="Helvetica,sans-Serif" font-size="10.00">_el.cpp</text>
</a>
</g>
</g>
<!-- Node1&#45;&gt;Node18 -->
<g id="edge22_Node000001_Node000018" class="edge">
<title>Node1&#45;&gt;Node18</title>
<g id="a_edge22_Node000001_Node000018"><a xlink:title=" ">
<path fill="none" stroke="#63b8ff" d="M867.25,-248.45C867.25,-220.84 867.25,-178.6 867.25,-156.19"/>
<polygon fill="#63b8ff" stroke="#63b8ff" points="863.75,-248.11 867.25,-258.11 870.75,-248.11 863.75,-248.11"/>
</a>
</g>
</g>
<!-- Node19 -->
<g id="Node000019" class="node">
<title>Node19</title>
<g id="a_Node000019"><a xlink:href="../../d0/d9c/is__chain__loop_8cpp.html" target="_top" xlink:title="ogxx::functions, that check a subgraph of the graph gv contains (contour) on the vertices enumerated ...">
<polygon fill="white" stroke="#666666" points="1217.38,-218 1091.12,-218 1091.12,-198 1217.38,-198 1217.38,-218"/>
<text text-anchor="middle" x="1154.25" y="-204.5" font-family="Helvetica,sans-Serif" font-size="10.00">source/is_chain_loop.cpp</text>
</a>
</g>
</g>
<!-- Node1&#45;&gt;Node19 -->
<g id="edge24_Node000001_Node000019" class="edge">
<title>Node1&#45;&gt;Node19</title>
<g id="a_edge24_Node000001_Node000019"><a xlink:title=" ">
<path fill="none" stroke="#63b8ff" d="M927.71,-261.1C983.36,-248.3 1064.43,-229.66 1112.99,-218.49"/>
<polygon fill="#63b8ff" stroke="#63b8ff" points="927.02,-257.66 918.06,-263.31 928.59,-264.48 927.02,-257.66"/>
</a>
</g>
</g>
<!-- Node20 -->
<g id="Node000020" class="node">
<title>Node20</title>
<g id="a_Node000020"><a xlink:href="../../d7/dc5/make__clique_8cpp.html" target="_top" xlink:title="make_undirected_clique">
<polygon fill="white" stroke="#666666" points="1357.12,-218 1235.38,-218 1235.38,-198 1357.12,-198 1357.12,-218"/>
<text text-anchor="middle" x="1296.25" y="-204.5" font-family="Helvetica,sans-Serif" font-size="10.00">source/make_clique.cpp</text>
</a>
</g>
</g>
<!-- Node1&#45;&gt;Node20 -->
<g id="edge25_Node000001_Node000020" class="edge">
<title>Node1&#45;&gt;Node20</title>
<g id="a_edge25_Node000001_Node000020"><a xlink:title=" ">
<path fill="none" stroke="#63b8ff" d="M927.51,-267.75C999,-258.84 1121.68,-242.61 1226.25,-224 1235.43,-222.37 1245.24,-220.4 1254.52,-218.44"/>
<polygon fill="#63b8ff" stroke="#63b8ff" points="927.49,-264.22 917.99,-268.93 928.35,-271.17 927.49,-264.22"/>
</a>
</g>
</g>
<!-- Node3 -->
<g id="Node000003" class="node">
<title>Node3</title>
<g id="a_Node000003"><a xlink:href="../../d8/d3e/adjacency__list__io_8hpp.html" target="_top" xlink:title="Textual input&#45;output for adjacency list.">
<polygon fill="white" stroke="#666666" points="1057.25,-156 939.25,-156 939.25,-124 1057.25,-124 1057.25,-156"/>
<text text-anchor="start" x="947.25" y="-142.5" font-family="Helvetica,sans-Serif" font-size="10.00">include/ogxx/adjacency</text>
<text text-anchor="middle" x="998.25" y="-130.5" font-family="Helvetica,sans-Serif" font-size="10.00">_list_io.hpp</text>
</a>
</g>
</g>
<!-- Node2&#45;&gt;Node3 -->
<g id="edge2_Node000002_Node000003" class="edge">
<title>Node2&#45;&gt;Node3</title>
<g id="a_edge2_Node000002_Node000003"><a xlink:title=" ">
<path fill="none" stroke="#63b8ff" d="M984.95,-180.89C987.74,-172.52 990.74,-163.54 993.18,-156.22"/>
<polygon fill="#63b8ff" stroke="#63b8ff" points="981.67,-179.66 981.83,-190.26 988.31,-181.88 981.67,-179.66"/>
</a>
</g>
</g>
<!-- Node2&#45;&gt;Node7 -->
<g id="edge6_Node000002_Node000007" class="edge">
<title>Node2&#45;&gt;Node7</title>
<g id="a_edge6_Node000002_Node000007"><a xlink:title=" ">
<path fill="none" stroke="#63b8ff" d="M905.88,-196.92C844.26,-187.67 752.45,-172.87 673.25,-156 670.4,-155.39 667.48,-154.74 664.54,-154.06"/>
<polygon fill="#63b8ff" stroke="#63b8ff" points="905.12,-200.34 915.53,-198.36 906.16,-193.42 905.12,-200.34"/>
</a>
</g>
</g>
<!-- Node8 -->
<g id="Node000008" class="node">
<title>Node8</title>
<g id="a_Node000008"><a xlink:href="../../d6/dda/adjacency__implementations_8cpp.html" target="_top" xlink:title="ogxx::Adjacency implementations based upon different Index_set implementations">
<polygon fill="white" stroke="#666666" points="1263.12,-150 1075.38,-150 1075.38,-130 1263.12,-130 1263.12,-150"/>
<text text-anchor="middle" x="1169.25" y="-136.5" font-family="Helvetica,sans-Serif" font-size="10.00">source/adjacency_implementations.cpp</text>
</a>
</g>
</g>
<!-- Node2&#45;&gt;Node8 -->
<g id="edge7_Node000002_Node000008" class="edge">
<title>Node2&#45;&gt;Node8</title>
<g id="a_edge7_Node000002_Node000008"><a xlink:title=" ">
<path fill="none" stroke="#63b8ff" d="M1032.32,-187.83C1068.2,-175.56 1113.19,-160.17 1141.59,-150.46"/>
<polygon fill="#63b8ff" stroke="#63b8ff" points="1031.26,-184.49 1022.93,-191.04 1033.53,-191.11 1031.26,-184.49"/>
</a>
</g>
</g>
<!-- Node9 -->
<g id="Node000009" class="node">
<title>Node9</title>
<g id="a_Node000009"><a xlink:href="../../d5/d8b/adjacency__list__vector_8cpp.html" target="_top" xlink:title="Adjacency_list interface implementation over std::vector.">
<polygon fill="white" stroke="#666666" points="1391.5,-156 1281,-156 1281,-124 1391.5,-124 1391.5,-156"/>
<text text-anchor="start" x="1289" y="-142.5" font-family="Helvetica,sans-Serif" font-size="10.00">source/adjacency_list</text>
<text text-anchor="middle" x="1336.25" y="-130.5" font-family="Helvetica,sans-Serif" font-size="10.00">_vector.cpp</text>
</a>
</g>
</g>
<!-- Node2&#45;&gt;Node9 -->
<g id="edge8_Node000002_Node000009" class="edge">
<title>Node2&#45;&gt;Node9</title>
<g id="a_edge8_Node000002_Node000009"><a xlink:title=" ">
<path fill="none" stroke="#63b8ff" d="M1046.73,-192.47C1047.57,-192.31 1048.41,-192.15 1049.25,-192 1148,-173.89 1173.76,-175.47 1272.25,-156 1275.05,-155.45 1277.91,-154.86 1280.8,-154.25"/>
<polygon fill="#63b8ff" stroke="#63b8ff" points="1046.23,-189 1037.06,-194.31 1047.54,-195.87 1046.23,-189"/>
</a>
</g>
</g>
<!-- Node2&#45;&gt;Node10 -->
<g id="edge9_Node000002_Node000010" class="edge">
<title>Node2&#45;&gt;Node10</title>
<g id="a_edge9_Node000002_Node000010"><a xlink:title=" ">
<path fill="none" stroke="#63b8ff" d="M1046.72,-192.4C1047.57,-192.26 1048.41,-192.13 1049.25,-192 1204.25,-168.19 1245.64,-182.22 1400.25,-156 1403.02,-155.53 1405.85,-155.01 1408.7,-154.45"/>
<polygon fill="#63b8ff" stroke="#63b8ff" points="1046.29,-188.92 1037.01,-194.05 1047.46,-195.82 1046.29,-188.92"/>
</a>
</g>
</g>
<!-- Node4 -->
<g id="Node000004" class="node">
<title>Node4</title>
<g id="a_Node000004"><a xlink:href="../../df/d01/source_2adjacency__list__io__read_8cpp.html" target="_top" xlink:title="Implementation of ogxx::io::read function for Adjacency_list.">
<polygon fill="white" stroke="#666666" points="990.5,-88 880,-88 880,-56 990.5,-56 990.5,-88"/>
<text text-anchor="start" x="888" y="-74.5" font-family="Helvetica,sans-Serif" font-size="10.00">source/adjacency_list</text>
<text text-anchor="middle" x="935.25" y="-62.5" font-family="Helvetica,sans-Serif" font-size="10.00">_io_read.cpp</text>
</a>
</g>
</g>
<!-- Node3&#45;&gt;Node4 -->
<g id="edge3_Node000003_Node000004" class="edge">
<title>Node3&#45;&gt;Node4</title>
<g id="a_edge3_Node000003_Node000004"><a xlink:title=" ">
<path fill="none" stroke="#63b8ff" d="M975.75,-115.43C967.11,-106.38 957.48,-96.29 949.78,-88.22"/>
<polygon fill="#63b8ff" stroke="#63b8ff" points="973.16,-117.78 982.59,-122.6 978.22,-112.95 973.16,-117.78"/>
</a>
</g>
</g>
<!-- Node5 -->
<g id="Node000005" class="node">
<title>Node5</title>
<g id="a_Node000005"><a xlink:href="../../d0/d40/tests_2adjacency__list__io__read_8cpp.html" target="_top" xlink:title="Adjacency list io::read function tests.">
<polygon fill="white" stroke="#666666" points="1111.75,-88 1008.75,-88 1008.75,-56 1111.75,-56 1111.75,-88"/>
<text text-anchor="start" x="1016.75" y="-74.5" font-family="Helvetica,sans-Serif" font-size="10.00">tests/adjacency_list</text>
<text text-anchor="middle" x="1060.25" y="-62.5" font-family="Helvetica,sans-Serif" font-size="10.00">_io_read.cpp</text>
</a>
</g>
</g>
<!-- Node3&#45;&gt;Node5 -->
<g id="edge4_Node000003_Node000005" class="edge">
<title>Node3&#45;&gt;Node5</title>
<g id="a_edge4_Node000003_Node000005"><a xlink:title=" ">
<path fill="none" stroke="#63b8ff" d="M1020.39,-115.43C1028.9,-106.38 1038.37,-96.29 1045.95,-88.22"/>
<polygon fill="#63b8ff" stroke="#63b8ff" points="1017.96,-112.9 1013.67,-122.59 1023.06,-117.7 1017.96,-112.9"/>
</a>
</g>
</g>
<!-- Node6 -->
<g id="Node000006" class="node">
<title>Node6</title>
<g id="a_Node000006"><a xlink:href="../../da/d4a/build__all_8cpp.html" target="_top" xlink:title="Include all test files here to build them at once.">
<polygon fill="white" stroke="#666666" points="1107.62,-20 1012.88,-20 1012.88,0 1107.62,0 1107.62,-20"/>
<text text-anchor="middle" x="1060.25" y="-6.5" font-family="Helvetica,sans-Serif" font-size="10.00">tests/build_all.cpp</text>
</a>
</g>
</g>
<!-- Node5&#45;&gt;Node6 -->
<g id="edge5_Node000005_Node000006" class="edge">
<title>Node5&#45;&gt;Node6</title>
<g id="a_edge5_Node000005_Node000006"><a xlink:title=" ">
<path fill="none" stroke="#63b8ff" d="M1060.25,-44.08C1060.25,-35.6 1060.25,-26.8 1060.25,-20.41"/>
<polygon fill="#63b8ff" stroke="#63b8ff" points="1056.75,-44.03 1060.25,-54.03 1063.75,-44.03 1056.75,-44.03"/>
</a>
</g>
</g>
<!-- Node11&#45;&gt;Node7 -->
<g id="edge12_Node000011_Node000007" class="edge">
<title>Node11&#45;&gt;Node7</title>
<g id="a_edge12_Node000011_Node000007"><a xlink:title=" ">
<path fill="none" stroke="#63b8ff" d="M463.28,-193.79C494.31,-183.01 538.2,-167.77 570.84,-156.43"/>
<polygon fill="#63b8ff" stroke="#63b8ff" points="462.2,-190.46 453.9,-197.05 464.5,-197.07 462.2,-190.46"/>
</a>
</g>
</g>
<!-- Node12 -->
<g id="Node000012" class="node">
<title>Node12</title>
<g id="a_Node000012"><a xlink:href="../../d6/d1d/bit__matrix__io_8hpp.html" target="_top" xlink:title="Bit_matrix reading and printing operations.">
<polygon fill="white" stroke="#666666" points="116.5,-156 0,-156 0,-124 116.5,-124 116.5,-156"/>
<text text-anchor="start" x="8" y="-142.5" font-family="Helvetica,sans-Serif" font-size="10.00">include/ogxx/bit_matrix</text>
<text text-anchor="middle" x="58.25" y="-130.5" font-family="Helvetica,sans-Serif" font-size="10.00">_io.hpp</text>
</a>
</g>
</g>
<!-- Node11&#45;&gt;Node12 -->
<g id="edge11_Node000011_Node000012" class="edge">
<title>Node11&#45;&gt;Node12</title>
<g id="a_edge11_Node000011_Node000012"><a xlink:title=" ">
<path fill="none" stroke="#63b8ff" d="M352.86,-195.77C291.98,-186.07 202.72,-171.25 125.25,-156 122.44,-155.45 119.57,-154.87 116.68,-154.27"/>
<polygon fill="#63b8ff" stroke="#63b8ff" points="351.97,-199.18 362.39,-197.29 353.07,-192.26 351.97,-199.18"/>
</a>
</g>
</g>
<!-- Node13 -->
<g id="Node000013" class="node">
<title>Node13</title>
<g id="a_Node000013"><a xlink:href="../../d9/d93/dense__bit__matrix_8cpp.html" target="_top" xlink:title=" ">
<polygon fill="white" stroke="#666666" points="275.88,-150 134.62,-150 134.62,-130 275.88,-130 275.88,-150"/>
<text text-anchor="middle" x="205.25" y="-136.5" font-family="Helvetica,sans-Serif" font-size="10.00">source/dense_bit_matrix.cpp</text>
</a>
</g>
</g>
<!-- Node11&#45;&gt;Node13 -->
<g id="edge13_Node000011_Node000013" class="edge">
<title>Node11&#45;&gt;Node13</title>
<g id="a_edge13_Node000011_Node000013"><a xlink:title=" ">
<path fill="none" stroke="#63b8ff" d="M382.83,-194.28C340.08,-181.45 275.08,-161.95 236.71,-150.44"/>
<polygon fill="#63b8ff" stroke="#63b8ff" points="381.7,-197.59 392.28,-197.11 383.71,-190.88 381.7,-197.59"/>
</a>
</g>
</g>
<!-- Node11&#45;&gt;Node14 -->
<g id="edge14_Node000011_Node000014" class="edge">
<title>Node11&#45;&gt;Node14</title>
<g id="a_edge14_Node000011_Node000014"><a xlink:title=" ">
<path fill="none" stroke="#63b8ff" d="M442.91,-189.6C453.41,-179.26 466.61,-166.25 476.72,-156.3"/>
<polygon fill="#63b8ff" stroke="#63b8ff" points="440.6,-186.97 435.93,-196.48 445.51,-191.96 440.6,-186.97"/>
</a>
</g>
</g>
<!-- Node15 -->
<g id="Node000015" class="node">
<title>Node15</title>
<g id="a_Node000015"><a xlink:href="../../d5/d69/symmetric__dense__bit__matrix_8cpp.html" target="_top" xlink:title="Symmetric_dense_bit matrix implementation (of abstract matrix interface from matrix....">
<polygon fill="white" stroke="#666666" points="419,-156 293.5,-156 293.5,-124 419,-124 419,-156"/>
<text text-anchor="start" x="301.5" y="-142.5" font-family="Helvetica,sans-Serif" font-size="10.00">source/symmetric_dense</text>
<text text-anchor="middle" x="356.25" y="-130.5" font-family="Helvetica,sans-Serif" font-size="10.00">_bit_matrix.cpp</text>
</a>
</g>
</g>
<!-- Node11&#45;&gt;Node15 -->
<g id="edge15_Node000011_Node000015" class="edge">
<title>Node11&#45;&gt;Node15</title>
<g id="a_edge15_Node000011_Node000015"><a xlink:title=" ">
<path fill="none" stroke="#63b8ff" d="M407.06,-189.6C396.25,-179.26 382.65,-166.25 372.25,-156.3"/>
<polygon fill="#63b8ff" stroke="#63b8ff" points="404.62,-192.11 414.27,-196.5 409.46,-187.06 404.62,-192.11"/>
</a>
</g>
</g>
<!-- Node16&#45;&gt;Node7 -->
<g id="edge18_Node000016_Node000007" class="edge">
<title>Node16&#45;&gt;Node7</title>
<g id="a_edge18_Node000016_Node000007"><a xlink:title=" ">
<path fill="none" stroke="#63b8ff" d="M724.79,-192.64C702.11,-181.95 671.18,-167.37 647.98,-156.43"/>
<polygon fill="#63b8ff" stroke="#63b8ff" points="723.28,-195.8 733.82,-196.9 726.27,-189.47 723.28,-195.8"/>
</a>
</g>
</g>
<!-- Node17 -->
<g id="Node000017" class="node">
<title>Node17</title>
<g id="a_Node000017"><a xlink:href="../../d6/d2b/edge__list__io_8hpp.html" target="_top" xlink:title="Textual input&#45;output for edge list.">
<polygon fill="white" stroke="#666666" points="794.62,-156 681.88,-156 681.88,-124 794.62,-124 794.62,-156"/>
<text text-anchor="start" x="689.88" y="-142.5" font-family="Helvetica,sans-Serif" font-size="10.00">include/ogxx/edge_list</text>
<text text-anchor="middle" x="738.25" y="-130.5" font-family="Helvetica,sans-Serif" font-size="10.00">_io.hpp</text>
</a>
</g>
</g>
<!-- Node16&#45;&gt;Node17 -->
<g id="edge17_Node000016_Node000017" class="edge">
<title>Node16&#45;&gt;Node17</title>
<g id="a_edge17_Node000016_Node000017"><a xlink:title=" ">
<path fill="none" stroke="#63b8ff" d="M749.95,-186.43C747.44,-176.69 744.5,-165.26 742.19,-156.3"/>
<polygon fill="#63b8ff" stroke="#63b8ff" points="746.55,-187.27 752.44,-196.08 753.33,-185.52 746.55,-187.27"/>
</a>
</g>
</g>
<!-- Node16&#45;&gt;Node18 -->
<g id="edge19_Node000016_Node000018" class="edge">
<title>Node16&#45;&gt;Node18</title>
<g id="a_edge19_Node000016_Node000018"><a xlink:title=" ">
<path fill="none" stroke="#63b8ff" d="M781.15,-191.74C799.21,-181.09 823.21,-166.95 841.28,-156.3"/>
<polygon fill="#63b8ff" stroke="#63b8ff" points="779.44,-188.68 772.6,-196.78 782.99,-194.71 779.44,-188.68"/>
</a>
</g>
</g>
</g>
</svg>
