<?xml version="1.0" encoding="UTF-8" standalone="no"?>
<!DOCTYPE svg PUBLIC "-//W3C//DTD SVG 1.1//EN"
 "http://www.w3.org/Graphics/SVG/1.1/DTD/svg11.dtd">
<!-- Generated by graphviz version 9.0.0 (20230911.1827)
 -->
<!-- Title: source/adjacency_list_io_read.cpp Pages: 1 -->
<svg width="587pt" height="500pt"
 viewBox="0.00 0.00 587.12 500.00" xmlns="http://www.w3.org/2000/svg" xmlns:xlink="http://www.w3.org/1999/xlink">
<g id="graph0" class="graph" transform="scale(1 1) rotate(0) translate(4 496)">
<title>source/adjacency_list_io_read.cpp</title>
<!-- Node1 -->
<g id="Node000001" class="node">
<title>Node1</title>
<g id="a_Node000001"><a xlink:title="Implementation of ogxx::io::read function for Adjacency_list.">
<polygon fill="#999999" stroke="#666666" points="471,-492 360.5,-492 360.5,-460 471,-460 471,-492"/>
<text text-anchor="start" x="368.5" y="-478.5" font-family="Helvetica,sans-Serif" font-size="10.00">source/adjacency_list</text>
<text text-anchor="middle" x="415.75" y="-466.5" font-family="Helvetica,sans-Serif" font-size="10.00">_io_read.cpp</text>
</a>
</g>
</g>
<!-- Node2 -->
<g id="Node000002" class="node">
<title>Node2</title>
<g id="a_Node000002"><a xlink:href="../../d8/d3e/adjacency__list__io_8hpp.html" target="_top" xlink:title="Textual input&#45;output for adjacency list.">
<polygon fill="white" stroke="#666666" points="310.88,-424 208.62,-424 208.62,-392 310.88,-392 310.88,-424"/>
<text text-anchor="start" x="216.62" y="-410.5" font-family="Helvetica,sans-Serif" font-size="10.00">ogxx/adjacency_list</text>
<text text-anchor="middle" x="259.75" y="-398.5" font-family="Helvetica,sans-Serif" font-size="10.00">_io.hpp</text>
</a>
</g>
</g>
<!-- Node1&#45;&gt;Node2 -->
<g id="edge1_Node000001_Node000002" class="edge">
<title>Node1&#45;&gt;Node2</title>
<g id="a_edge1_Node000001_Node000002"><a xlink:title=" ">
<path fill="none" stroke="#63b8ff" d="M379.17,-459.53C357.54,-450.37 329.92,-438.69 306.69,-428.86"/>
<polygon fill="#63b8ff" stroke="#63b8ff" points="308.33,-425.75 297.76,-425.08 305.61,-432.2 308.33,-425.75"/>
</a>
</g>
</g>
<!-- Node21 -->
<g id="Node000021" class="node">
<title>Node21</title>
<g id="a_Node000021"><a xlink:href="../../db/db9/parsing__utils_8hpp.html" target="_top" xlink:title="Utility functions to make text parsing easier.">
<polygon fill="white" stroke="#666666" points="418.5,-418 329,-418 329,-398 418.5,-398 418.5,-418"/>
<text text-anchor="middle" x="373.75" y="-404.5" font-family="Helvetica,sans-Serif" font-size="10.00">parsing_utils.hpp</text>
</a>
</g>
</g>
<!-- Node1&#45;&gt;Node21 -->
<g id="edge24_Node000001_Node000021" class="edge">
<title>Node1&#45;&gt;Node21</title>
<g id="a_edge24_Node000001_Node000021"><a xlink:title=" ">
<path fill="none" stroke="#63b8ff" d="M406.01,-459.69C399.97,-450.2 392.16,-437.92 385.74,-427.83"/>
<polygon fill="#63b8ff" stroke="#63b8ff" points="388.81,-426.15 380.49,-419.59 382.91,-429.91 388.81,-426.15"/>
</a>
</g>
</g>
<!-- Node24 -->
<g id="Node000024" class="node">
<title>Node24</title>
<g id="a_Node000024"><a xlink:title=" ">
<polygon fill="#e0e0e0" stroke="#999999" points="478.5,-418 437,-418 437,-398 478.5,-398 478.5,-418"/>
<text text-anchor="middle" x="457.75" y="-404.5" font-family="Helvetica,sans-Serif" font-size="10.00">vector</text>
</a>
</g>
</g>
<!-- Node1&#45;&gt;Node24 -->
<g id="edge29_Node000001_Node000024" class="edge">
<title>Node1&#45;&gt;Node24</title>
<g id="a_edge29_Node000001_Node000024"><a xlink:title=" ">
<path fill="none" stroke="#63b8ff" d="M425.49,-459.69C431.53,-450.2 439.34,-437.92 445.76,-427.83"/>
<polygon fill="#63b8ff" stroke="#63b8ff" points="448.59,-429.91 451.01,-419.59 442.69,-426.15 448.59,-429.91"/>
</a>
</g>
</g>
<!-- Node25 -->
<g id="Node000025" class="node">
<title>Node25</title>
<g id="a_Node000025"><a xlink:title=" ">
<polygon fill="#e0e0e0" stroke="#999999" points="579.12,-418 496.38,-418 496.38,-398 579.12,-398 579.12,-418"/>
<text text-anchor="middle" x="537.75" y="-404.5" font-family="Helvetica,sans-Serif" font-size="10.00">unordered_map</text>
</a>
</g>
</g>
<!-- Node1&#45;&gt;Node25 -->
<g id="edge30_Node000001_Node000025" class="edge">
<title>Node1&#45;&gt;Node25</title>
<g id="a_edge30_Node000001_Node000025"><a xlink:title=" ">
<path fill="none" stroke="#63b8ff" d="M444.35,-459.53C464.29,-448.74 490.74,-434.43 510.4,-423.8"/>
<polygon fill="#63b8ff" stroke="#63b8ff" points="511.8,-427.02 518.93,-419.18 508.47,-420.86 511.8,-427.02"/>
</a>
</g>
</g>
<!-- Node3 -->
<g id="Node000003" class="node">
<title>Node3</title>
<g id="a_Node000003"><a xlink:href="../../d8/d3d/io__head_8hpp.html" target="_top" xlink:title="Shared things for *_io.hpp files.">
<polygon fill="white" stroke="#666666" points="318,-356 225.5,-356 225.5,-336 318,-336 318,-356"/>
<text text-anchor="middle" x="271.75" y="-342.5" font-family="Helvetica,sans-Serif" font-size="10.00">ogxx/io_head.hpp</text>
</a>
</g>
</g>
<!-- Node2&#45;&gt;Node3 -->
<g id="edge2_Node000002_Node000003" class="edge">
<title>Node2&#45;&gt;Node3</title>
<g id="a_edge2_Node000002_Node000003"><a xlink:title=" ">
<path fill="none" stroke="#63b8ff" d="M262.84,-391.55C264.3,-384.26 266.06,-375.45 267.63,-367.6"/>
<polygon fill="#63b8ff" stroke="#63b8ff" points="271.04,-368.38 269.57,-357.89 264.18,-367.01 271.04,-368.38"/>
</a>
</g>
</g>
<!-- Node6 -->
<g id="Node000006" class="node">
<title>Node6</title>
<g id="a_Node000006"><a xlink:href="../../d6/da0/adjacency__list_8hpp.html" target="_top" xlink:title="Adjacency list graph representation interface.">
<polygon fill="white" stroke="#666666" points="207.25,-356 86.25,-356 86.25,-336 207.25,-336 207.25,-356"/>
<text text-anchor="middle" x="146.75" y="-342.5" font-family="Helvetica,sans-Serif" font-size="10.00">ogxx/adjacency_list.hpp</text>
</a>
</g>
</g>
<!-- Node2&#45;&gt;Node6 -->
<g id="edge5_Node000002_Node000006" class="edge">
<title>Node2&#45;&gt;Node6</title>
<g id="a_edge5_Node000002_Node000006"><a xlink:title=" ">
<path fill="none" stroke="#63b8ff" d="M230.65,-391.55C213.32,-382.35 191.45,-370.74 174.39,-361.68"/>
<polygon fill="#63b8ff" stroke="#63b8ff" points="176.28,-358.72 165.81,-357.12 173,-364.9 176.28,-358.72"/>
</a>
</g>
</g>
<!-- Node4 -->
<g id="Node000004" class="node">
<title>Node4</title>
<g id="a_Node000004"><a xlink:title=" ">
<polygon fill="#e0e0e0" stroke="#999999" points="378.38,-300 315.12,-300 315.12,-280 378.38,-280 378.38,-300"/>
<text text-anchor="middle" x="346.75" y="-286.5" font-family="Helvetica,sans-Serif" font-size="10.00">string_view</text>
</a>
</g>
</g>
<!-- Node3&#45;&gt;Node4 -->
<g id="edge3_Node000003_Node000004" class="edge">
<title>Node3&#45;&gt;Node4</title>
<g id="a_edge3_Node000003_Node000004"><a xlink:title=" ">
<path fill="none" stroke="#63b8ff" d="M284.81,-335.59C295.72,-327.74 311.5,-316.38 324.41,-307.09"/>
<polygon fill="#63b8ff" stroke="#63b8ff" points="326.29,-310.05 332.36,-301.36 322.2,-304.37 326.29,-310.05"/>
</a>
</g>
</g>
<!-- Node5 -->
<g id="Node000005" class="node">
<title>Node5</title>
<g id="a_Node000005"><a xlink:title=" ">
<polygon fill="#e0e0e0" stroke="#999999" points="297.38,-300 246.12,-300 246.12,-280 297.38,-280 297.38,-300"/>
<text text-anchor="middle" x="271.75" y="-286.5" font-family="Helvetica,sans-Serif" font-size="10.00">ostream</text>
</a>
</g>
</g>
<!-- Node3&#45;&gt;Node5 -->
<g id="edge4_Node000003_Node000005" class="edge">
<title>Node3&#45;&gt;Node5</title>
<g id="a_edge4_Node000003_Node000005"><a xlink:title=" ">
<path fill="none" stroke="#63b8ff" d="M271.75,-335.59C271.75,-329.01 271.75,-319.96 271.75,-311.73"/>
<polygon fill="#63b8ff" stroke="#63b8ff" points="275.25,-311.81 271.75,-301.81 268.25,-311.81 275.25,-311.81"/>
</a>
</g>
</g>
<!-- Node7 -->
<g id="Node000007" class="node">
<title>Node7</title>
<g id="a_Node000007"><a xlink:href="../../d7/dbf/st__set_8hpp.html" target="_top" xlink:title="Simple type set interface. Set may be ordered or unordered.">
<polygon fill="white" stroke="#666666" points="322.62,-188 236.88,-188 236.88,-168 322.62,-168 322.62,-188"/>
<text text-anchor="middle" x="279.75" y="-174.5" font-family="Helvetica,sans-Serif" font-size="10.00">ogxx/st_set.hpp</text>
</a>
</g>
</g>
<!-- Node6&#45;&gt;Node7 -->
<g id="edge6_Node000006_Node000007" class="edge">
<title>Node6&#45;&gt;Node7</title>
<g id="a_edge6_Node000006_Node000007"><a xlink:title=" ">
<path fill="none" stroke="#63b8ff" d="M159.14,-335.82C170.23,-327.26 186.58,-313.78 198.75,-300 227.78,-267.14 254.65,-223.27 268.97,-198.39"/>
<polygon fill="#63b8ff" stroke="#63b8ff" points="272,-200.14 273.88,-189.72 265.9,-196.69 272,-200.14"/>
</a>
</g>
</g>
<!-- Node18 -->
<g id="Node000018" class="node">
<title>Node18</title>
<g id="a_Node000018"><a xlink:href="../../d7/d6c/graph__view_8hpp.html" target="_top" xlink:title="Graph view interface that may be used for graph representation coversion.">
<polygon fill="white" stroke="#666666" points="189.75,-300 83.75,-300 83.75,-280 189.75,-280 189.75,-300"/>
<text text-anchor="middle" x="136.75" y="-286.5" font-family="Helvetica,sans-Serif" font-size="10.00">ogxx/graph_view.hpp</text>
</a>
</g>
</g>
<!-- Node6&#45;&gt;Node18 -->
<g id="edge18_Node000006_Node000018" class="edge">
<title>Node6&#45;&gt;Node18</title>
<g id="a_edge18_Node000006_Node000018"><a xlink:title=" ">
<path fill="none" stroke="#63b8ff" d="M145.01,-335.59C143.77,-328.93 142.07,-319.75 140.54,-311.44"/>
<polygon fill="#63b8ff" stroke="#63b8ff" points="144.01,-310.98 138.75,-301.79 137.13,-312.26 144.01,-310.98"/>
</a>
</g>
</g>
<!-- Node8 -->
<g id="Node000008" class="node">
<title>Node8</title>
<g id="a_Node000008"><a xlink:href="../../de/d2f/primitive__definitions_8hpp.html" target="_top" xlink:title="Primitive type declarations like scalar indices and so on.">
<polygon fill="white" stroke="#666666" points="300.12,-76 157.38,-76 157.38,-56 300.12,-56 300.12,-76"/>
<text text-anchor="middle" x="228.75" y="-62.5" font-family="Helvetica,sans-Serif" font-size="10.00">ogxx/primitive_definitions.hpp</text>
</a>
</g>
</g>
<!-- Node7&#45;&gt;Node8 -->
<g id="edge7_Node000007_Node000008" class="edge">
<title>Node7&#45;&gt;Node8</title>
<g id="a_edge7_Node000007_Node000008"><a xlink:title=" ">
<path fill="none" stroke="#63b8ff" d="M282.54,-167.65C285.93,-154.54 290.19,-130.24 281.75,-112 276.26,-100.13 265.92,-90.24 255.82,-82.79"/>
<polygon fill="#63b8ff" stroke="#63b8ff" points="257.87,-79.96 247.63,-77.25 253.95,-85.76 257.87,-79.96"/>
</a>
</g>
</g>
<!-- Node17 -->
<g id="Node000017" class="node">
<title>Node17</title>
<g id="a_Node000017"><a xlink:href="../../d9/dde/iterator_8hpp.html" target="_top" xlink:title="Linear sequence iterator interfaces.">
<polygon fill="white" stroke="#666666" points="273.12,-132 184.38,-132 184.38,-112 273.12,-112 273.12,-132"/>
<text text-anchor="middle" x="228.75" y="-118.5" font-family="Helvetica,sans-Serif" font-size="10.00">ogxx/iterator.hpp</text>
</a>
</g>
</g>
<!-- Node7&#45;&gt;Node17 -->
<g id="edge16_Node000007_Node000017" class="edge">
<title>Node7&#45;&gt;Node17</title>
<g id="a_edge16_Node000007_Node000017"><a xlink:title=" ">
<path fill="none" stroke="#63b8ff" d="M270.87,-167.59C263.85,-160.16 253.85,-149.58 245.36,-140.58"/>
<polygon fill="#63b8ff" stroke="#63b8ff" points="247.98,-138.27 238.57,-133.4 242.89,-143.07 247.98,-138.27"/>
</a>
</g>
</g>
<!-- Node9 -->
<g id="Node000009" class="node">
<title>Node9</title>
<g id="a_Node000009"><a xlink:title=" ">
<polygon fill="#e0e0e0" stroke="#999999" points="47.5,-20 0,-20 0,0 47.5,0 47.5,-20"/>
<text text-anchor="middle" x="23.75" y="-6.5" font-family="Helvetica,sans-Serif" font-size="10.00">cstddef</text>
</a>
</g>
</g>
<!-- Node8&#45;&gt;Node9 -->
<g id="edge8_Node000008_Node000009" class="edge">
<title>Node8&#45;&gt;Node9</title>
<g id="a_edge8_Node000008_Node000009"><a xlink:title=" ">
<path fill="none" stroke="#63b8ff" d="M191.57,-55.55C158.83,-47.19 109.57,-34.48 58.72,-20.77"/>
<polygon fill="#63b8ff" stroke="#63b8ff" points="59.88,-17.46 49.31,-18.23 58.05,-24.22 59.88,-17.46"/>
</a>
</g>
</g>
<!-- Node10 -->
<g id="Node000010" class="node">
<title>Node10</title>
<g id="a_Node000010"><a xlink:title=" ">
<polygon fill="#e0e0e0" stroke="#999999" points="110.38,-20 65.12,-20 65.12,0 110.38,0 110.38,-20"/>
<text text-anchor="middle" x="87.75" y="-6.5" font-family="Helvetica,sans-Serif" font-size="10.00">cstdint</text>
</a>
</g>
</g>
<!-- Node8&#45;&gt;Node10 -->
<g id="edge9_Node000008_Node000010" class="edge">
<title>Node8&#45;&gt;Node10</title>
<g id="a_edge9_Node000008_Node000010"><a xlink:title=" ">
<path fill="none" stroke="#63b8ff" d="M204.19,-55.59C181.23,-46.8 146.77,-33.6 121.29,-23.84"/>
<polygon fill="#63b8ff" stroke="#63b8ff" points="122.63,-20.61 112.04,-20.3 120.13,-27.15 122.63,-20.61"/>
</a>
</g>
</g>
<!-- Node11 -->
<g id="Node000011" class="node">
<title>Node11</title>
<g id="a_Node000011"><a xlink:title=" ">
<polygon fill="#e0e0e0" stroke="#999999" points="157.15,-20 128.35,-20 128.35,0 157.15,0 157.15,-20"/>
<text text-anchor="middle" x="142.75" y="-6.5" font-family="Helvetica,sans-Serif" font-size="10.00">bit</text>
</a>
</g>
</g>
<!-- Node8&#45;&gt;Node11 -->
<g id="edge10_Node000008_Node000011" class="edge">
<title>Node8&#45;&gt;Node11</title>
<g id="a_edge10_Node000008_Node000011"><a xlink:title=" ">
<path fill="none" stroke="#63b8ff" d="M213.77,-55.59C200.94,-47.54 182.23,-35.79 167.23,-26.37"/>
<polygon fill="#63b8ff" stroke="#63b8ff" points="169.17,-23.46 158.84,-21.1 165.45,-29.38 169.17,-23.46"/>
</a>
</g>
</g>
<!-- Node12 -->
<g id="Node000012" class="node">
<title>Node12</title>
<g id="a_Node000012"><a xlink:title=" ">
<polygon fill="#e0e0e0" stroke="#999999" points="214.38,-20 175.12,-20 175.12,0 214.38,0 214.38,-20"/>
<text text-anchor="middle" x="194.75" y="-6.5" font-family="Helvetica,sans-Serif" font-size="10.00">limits</text>
</a>
</g>
</g>
<!-- Node8&#45;&gt;Node12 -->
<g id="edge11_Node000008_Node000012" class="edge">
<title>Node8&#45;&gt;Node12</title>
<g id="a_edge11_Node000008_Node000012"><a xlink:title=" ">
<path fill="none" stroke="#63b8ff" d="M222.83,-55.59C218.39,-48.55 212.17,-38.67 206.71,-30"/>
<polygon fill="#63b8ff" stroke="#63b8ff" points="209.7,-28.18 201.41,-21.58 203.78,-31.91 209.7,-28.18"/>
</a>
</g>
</g>
<!-- Node13 -->
<g id="Node000013" class="node">
<title>Node13</title>
<g id="a_Node000013"><a xlink:title=" ">
<polygon fill="#e0e0e0" stroke="#999999" points="294.62,-20 232.88,-20 232.88,0 294.62,0 294.62,-20"/>
<text text-anchor="middle" x="263.75" y="-6.5" font-family="Helvetica,sans-Serif" font-size="10.00">type_traits</text>
</a>
</g>
</g>
<!-- Node8&#45;&gt;Node13 -->
<g id="edge12_Node000008_Node000013" class="edge">
<title>Node8&#45;&gt;Node13</title>
<g id="a_edge12_Node000008_Node000013"><a xlink:title=" ">
<path fill="none" stroke="#63b8ff" d="M234.85,-55.59C239.46,-48.47 245.96,-38.45 251.62,-29.72"/>
<polygon fill="#63b8ff" stroke="#63b8ff" points="254.4,-31.86 256.9,-21.57 248.52,-28.06 254.4,-31.86"/>
</a>
</g>
</g>
<!-- Node14 -->
<g id="Node000014" class="node">
<title>Node14</title>
<g id="a_Node000014"><a xlink:title=" ">
<polygon fill="#e0e0e0" stroke="#999999" points="364.38,-20 313.12,-20 313.12,0 364.38,0 364.38,-20"/>
<text text-anchor="middle" x="338.75" y="-6.5" font-family="Helvetica,sans-Serif" font-size="10.00">memory</text>
</a>
</g>
</g>
<!-- Node8&#45;&gt;Node14 -->
<g id="edge13_Node000008_Node000014" class="edge">
<title>Node8&#45;&gt;Node14</title>
<g id="a_edge13_Node000008_Node000014"><a xlink:title=" ">
<path fill="none" stroke="#63b8ff" d="M247.91,-55.59C264.84,-47.28 289.8,-35.03 309.27,-25.47"/>
<polygon fill="#63b8ff" stroke="#63b8ff" points="310.65,-28.7 318.08,-21.15 307.56,-22.41 310.65,-28.7"/>
</a>
</g>
</g>
<!-- Node15 -->
<g id="Node000015" class="node">
<title>Node15</title>
<g id="a_Node000015"><a xlink:title=" ">
<polygon fill="#e0e0e0" stroke="#999999" points="421.38,-20 382.12,-20 382.12,0 421.38,0 421.38,-20"/>
<text text-anchor="middle" x="401.75" y="-6.5" font-family="Helvetica,sans-Serif" font-size="10.00">utility</text>
</a>
</g>
</g>
<!-- Node8&#45;&gt;Node15 -->
<g id="edge14_Node000008_Node000015" class="edge">
<title>Node8&#45;&gt;Node15</title>
<g id="a_edge14_Node000008_Node000015"><a xlink:title=" ">
<path fill="none" stroke="#63b8ff" d="M259.61,-55.52C286.75,-47.16 327.59,-34.54 371.07,-20.83"/>
<polygon fill="#63b8ff" stroke="#63b8ff" points="371.95,-24.22 380.43,-17.87 369.84,-17.55 371.95,-24.22"/>
</a>
</g>
</g>
<!-- Node16 -->
<g id="Node000016" class="node">
<title>Node16</title>
<g id="a_Node000016"><a xlink:title=" ">
<polygon fill="#e0e0e0" stroke="#999999" points="498.12,-20 439.38,-20 439.38,0 498.12,0 498.12,-20"/>
<text text-anchor="middle" x="468.75" y="-6.5" font-family="Helvetica,sans-Serif" font-size="10.00">stdexcept</text>
</a>
</g>
</g>
<!-- Node8&#45;&gt;Node16 -->
<g id="edge15_Node000008_Node000016" class="edge">
<title>Node8&#45;&gt;Node16</title>
<g id="a_edge15_Node000008_Node000016"><a xlink:title=" ">
<path fill="none" stroke="#63b8ff" d="M272.13,-55.51C310.67,-47.04 368.81,-34.17 427.86,-20.64"/>
<polygon fill="#63b8ff" stroke="#63b8ff" points="428.45,-24.1 437.41,-18.45 426.88,-17.28 428.45,-24.1"/>
</a>
</g>
</g>
<!-- Node17&#45;&gt;Node8 -->
<g id="edge17_Node000017_Node000008" class="edge">
<title>Node17&#45;&gt;Node8</title>
<g id="a_edge17_Node000017_Node000008"><a xlink:title=" ">
<path fill="none" stroke="#63b8ff" d="M228.75,-111.59C228.75,-105.01 228.75,-95.96 228.75,-87.73"/>
<polygon fill="#63b8ff" stroke="#63b8ff" points="232.25,-87.81 228.75,-77.81 225.25,-87.81 232.25,-87.81"/>
</a>
</g>
</g>
<!-- Node19 -->
<g id="Node000019" class="node">
<title>Node19</title>
<g id="a_Node000019"><a xlink:href="../../d4/d1a/vertex__pair_8hpp.html" target="_top" xlink:title="Vertex pair related type declarations.">
<polygon fill="white" stroke="#666666" points="189.38,-244 84.12,-244 84.12,-224 189.38,-224 189.38,-244"/>
<text text-anchor="middle" x="136.75" y="-230.5" font-family="Helvetica,sans-Serif" font-size="10.00">ogxx/vertex_pair.hpp</text>
</a>
</g>
</g>
<!-- Node18&#45;&gt;Node19 -->
<g id="edge19_Node000018_Node000019" class="edge">
<title>Node18&#45;&gt;Node19</title>
<g id="a_edge19_Node000018_Node000019"><a xlink:title=" ">
<path fill="none" stroke="#63b8ff" d="M136.75,-279.59C136.75,-273.01 136.75,-263.96 136.75,-255.73"/>
<polygon fill="#63b8ff" stroke="#63b8ff" points="140.25,-255.81 136.75,-245.81 133.25,-255.81 140.25,-255.81"/>
</a>
</g>
</g>
<!-- Node19&#45;&gt;Node8 -->
<g id="edge20_Node000019_Node000008" class="edge">
<title>Node19&#45;&gt;Node8</title>
<g id="a_edge20_Node000019_Node000008"><a xlink:title=" ">
<path fill="none" stroke="#63b8ff" d="M130.75,-223.58C123.4,-210.78 112.73,-187.29 119.75,-168 133.99,-128.88 173.59,-98.94 200.92,-82.16"/>
<polygon fill="#63b8ff" stroke="#63b8ff" points="202.58,-85.24 209.41,-77.15 199.02,-79.22 202.58,-85.24"/>
</a>
</g>
</g>
<!-- Node20 -->
<g id="Node000020" class="node">
<title>Node20</title>
<g id="a_Node000020"><a xlink:href="../../db/d3e/iterable_8hpp.html" target="_top" xlink:title="Iterable interfaces.">
<polygon fill="white" stroke="#666666" points="218.88,-188 128.62,-188 128.62,-168 218.88,-168 218.88,-188"/>
<text text-anchor="middle" x="173.75" y="-174.5" font-family="Helvetica,sans-Serif" font-size="10.00">ogxx/iterable.hpp</text>
</a>
</g>
</g>
<!-- Node19&#45;&gt;Node20 -->
<g id="edge21_Node000019_Node000020" class="edge">
<title>Node19&#45;&gt;Node20</title>
<g id="a_edge21_Node000019_Node000020"><a xlink:title=" ">
<path fill="none" stroke="#63b8ff" d="M143.19,-223.59C148.08,-216.47 154.94,-206.45 160.93,-197.72"/>
<polygon fill="#63b8ff" stroke="#63b8ff" points="163.76,-199.77 166.52,-189.55 157.98,-195.82 163.76,-199.77"/>
</a>
</g>
</g>
<!-- Node20&#45;&gt;Node8 -->
<g id="edge22_Node000020_Node000008" class="edge">
<title>Node20&#45;&gt;Node8</title>
<g id="a_edge22_Node000020_Node000008"><a xlink:title=" ">
<path fill="none" stroke="#63b8ff" d="M171.77,-167.62C169.47,-154.46 167.03,-130.11 175.75,-112 181.43,-100.21 191.79,-90.34 201.86,-82.88"/>
<polygon fill="#63b8ff" stroke="#63b8ff" points="203.72,-85.85 210.01,-77.33 199.78,-80.06 203.72,-85.85"/>
</a>
</g>
</g>
<!-- Node20&#45;&gt;Node17 -->
<g id="edge23_Node000020_Node000017" class="edge">
<title>Node20&#45;&gt;Node17</title>
<g id="a_edge23_Node000020_Node000017"><a xlink:title=" ">
<path fill="none" stroke="#63b8ff" d="M183.33,-167.59C190.98,-160.08 201.91,-149.35 211.13,-140.3"/>
<polygon fill="#63b8ff" stroke="#63b8ff" points="213.52,-142.86 218.2,-133.36 208.61,-137.87 213.52,-142.86"/>
</a>
</g>
</g>
<!-- Node21&#45;&gt;Node3 -->
<g id="edge25_Node000021_Node000003" class="edge">
<title>Node21&#45;&gt;Node3</title>
<g id="a_edge25_Node000021_Node000003"><a xlink:title=" ">
<path fill="none" stroke="#63b8ff" d="M357.81,-397.62C341.64,-388.11 316.36,-373.24 297.38,-362.08"/>
<polygon fill="#63b8ff" stroke="#63b8ff" points="299.27,-359.13 288.88,-357.08 295.72,-365.16 299.27,-359.13"/>
</a>
</g>
</g>
<!-- Node21&#45;&gt;Node8 -->
<g id="edge26_Node000021_Node000008" class="edge">
<title>Node21&#45;&gt;Node8</title>
<g id="a_edge26_Node000021_Node000008"><a xlink:title=" ">
<path fill="none" stroke="#63b8ff" d="M380.05,-397.53C392.22,-378.32 417.75,-333 417.75,-291 417.75,-291 417.75,-291 417.75,-177 417.75,-120.61 354.14,-92.63 300.72,-79.07"/>
<polygon fill="#63b8ff" stroke="#63b8ff" points="301.86,-75.75 291.32,-76.82 300.23,-82.55 301.86,-75.75"/>
</a>
</g>
</g>
<!-- Node22 -->
<g id="Node000022" class="node">
<title>Node22</title>
<g id="a_Node000022"><a xlink:title=" ">
<polygon fill="#e0e0e0" stroke="#999999" points="495.62,-356 445.88,-356 445.88,-336 495.62,-336 495.62,-356"/>
<text text-anchor="middle" x="470.75" y="-342.5" font-family="Helvetica,sans-Serif" font-size="10.00">optional</text>
</a>
</g>
</g>
<!-- Node21&#45;&gt;Node22 -->
<g id="edge27_Node000021_Node000022" class="edge">
<title>Node21&#45;&gt;Node22</title>
<g id="a_edge27_Node000021_Node000022"><a xlink:title=" ">
<path fill="none" stroke="#63b8ff" d="M388.91,-397.62C404.21,-388.16 428.1,-373.38 446.13,-362.23"/>
<polygon fill="#63b8ff" stroke="#63b8ff" points="447.75,-365.34 454.41,-357.11 444.07,-359.39 447.75,-365.34"/>
</a>
</g>
</g>
<!-- Node23 -->
<g id="Node000023" class="node">
<title>Node23</title>
<g id="a_Node000023"><a xlink:title=" ">
<polygon fill="#e0e0e0" stroke="#999999" points="389.88,-356 335.62,-356 335.62,-336 389.88,-336 389.88,-356"/>
<text text-anchor="middle" x="362.75" y="-342.5" font-family="Helvetica,sans-Serif" font-size="10.00">charconv</text>
</a>
</g>
</g>
<!-- Node21&#45;&gt;Node23 -->
<g id="edge28_Node000021_Node000023" class="edge">
<title>Node21&#45;&gt;Node23</title>
<g id="a_edge28_Node000021_Node000023"><a xlink:title=" ">
<path fill="none" stroke="#63b8ff" d="M372.03,-397.62C370.55,-389.56 368.37,-377.65 366.49,-367.41"/>
<polygon fill="#63b8ff" stroke="#63b8ff" points="369.94,-366.81 364.69,-357.6 363.05,-368.07 369.94,-366.81"/>
</a>
</g>
</g>
</g>
</svg>
