<?xml version="1.0" encoding="UTF-8" standalone="no"?>
<!DOCTYPE svg PUBLIC "-//W3C//DTD SVG 1.1//EN"
 "http://www.w3.org/Graphics/SVG/1.1/DTD/svg11.dtd">
<!-- Generated by graphviz version 9.0.0 (20230911.1827)
 -->
<!-- Title: source/parsing_utils.hpp Pages: 1 -->
<svg width="656pt" height="140pt"
 viewBox="0.00 0.00 656.00 140.00" xmlns="http://www.w3.org/2000/svg" xmlns:xlink="http://www.w3.org/1999/xlink">
<g id="graph0" class="graph" transform="scale(1 1) rotate(0) translate(4 136)">
<title>source/parsing_utils.hpp</title>
<!-- Node1 -->
<g id="Node000001" class="node">
<title>Node1</title>
<g id="a_Node000001"><a xlink:title="Utility functions to make text parsing easier.">
<polygon fill="#999999" stroke="#666666" points="462.5,-132 340.75,-132 340.75,-112 462.5,-112 462.5,-132"/>
<text text-anchor="middle" x="401.62" y="-118.5" font-family="Helvetica,sans-Serif" font-size="10.00">source/parsing_utils.hpp</text>
</a>
</g>
</g>
<!-- Node2 -->
<g id="Node000002" class="node">
<title>Node2</title>
<g id="a_Node000002"><a xlink:href="../../d8/d3d/io__head_8hpp.html" target="_top" xlink:title="Shared things for *_io.hpp files.">
<polygon fill="white" stroke="#666666" points="152.88,-76 60.38,-76 60.38,-56 152.88,-56 152.88,-76"/>
<text text-anchor="middle" x="106.62" y="-62.5" font-family="Helvetica,sans-Serif" font-size="10.00">ogxx/io_head.hpp</text>
</a>
</g>
</g>
<!-- Node1&#45;&gt;Node2 -->
<g id="edge1_Node000001_Node000002" class="edge">
<title>Node1&#45;&gt;Node2</title>
<g id="a_edge1_Node000001_Node000002"><a xlink:title=" ">
<path fill="none" stroke="#63b8ff" d="M349.9,-111.53C297.91,-102.02 217.96,-87.38 164.03,-77.51"/>
<polygon fill="#63b8ff" stroke="#63b8ff" points="164.9,-74.11 154.43,-75.75 163.64,-80.99 164.9,-74.11"/>
</a>
</g>
</g>
<!-- Node5 -->
<g id="Node000005" class="node">
<title>Node5</title>
<g id="a_Node000005"><a xlink:href="../../de/d2f/primitive__definitions_8hpp.html" target="_top" xlink:title="Primitive type declarations like scalar indices and so on.">
<polygon fill="white" stroke="#666666" points="416,-76 273.25,-76 273.25,-56 416,-56 416,-76"/>
<text text-anchor="middle" x="344.62" y="-62.5" font-family="Helvetica,sans-Serif" font-size="10.00">ogxx/primitive_definitions.hpp</text>
</a>
</g>
</g>
<!-- Node1&#45;&gt;Node5 -->
<g id="edge4_Node000001_Node000005" class="edge">
<title>Node1&#45;&gt;Node5</title>
<g id="a_edge4_Node000001_Node000005"><a xlink:title=" ">
<path fill="none" stroke="#63b8ff" d="M391.7,-111.59C383.69,-104.01 372.21,-93.13 362.59,-84.02"/>
<polygon fill="#63b8ff" stroke="#63b8ff" points="365.21,-81.68 355.54,-77.34 360.39,-86.76 365.21,-81.68"/>
</a>
</g>
</g>
<!-- Node14 -->
<g id="Node000014" class="node">
<title>Node14</title>
<g id="a_Node000014"><a xlink:title=" ">
<polygon fill="#e0e0e0" stroke="#999999" points="483.5,-76 433.75,-76 433.75,-56 483.5,-56 483.5,-76"/>
<text text-anchor="middle" x="458.62" y="-62.5" font-family="Helvetica,sans-Serif" font-size="10.00">optional</text>
</a>
</g>
</g>
<!-- Node1&#45;&gt;Node14 -->
<g id="edge13_Node000001_Node000014" class="edge">
<title>Node1&#45;&gt;Node14</title>
<g id="a_edge13_Node000001_Node000014"><a xlink:title=" ">
<path fill="none" stroke="#63b8ff" d="M411.55,-111.59C419.56,-104.01 431.04,-93.13 440.66,-84.02"/>
<polygon fill="#63b8ff" stroke="#63b8ff" points="442.86,-86.76 447.71,-77.34 438.04,-81.68 442.86,-86.76"/>
</a>
</g>
</g>
<!-- Node15 -->
<g id="Node000015" class="node">
<title>Node15</title>
<g id="a_Node000015"><a xlink:title=" ">
<polygon fill="#e0e0e0" stroke="#999999" points="555.75,-76 501.5,-76 501.5,-56 555.75,-56 555.75,-76"/>
<text text-anchor="middle" x="528.62" y="-62.5" font-family="Helvetica,sans-Serif" font-size="10.00">charconv</text>
</a>
</g>
</g>
<!-- Node1&#45;&gt;Node15 -->
<g id="edge14_Node000001_Node000015" class="edge">
<title>Node1&#45;&gt;Node15</title>
<g id="a_edge14_Node000001_Node000015"><a xlink:title=" ">
<path fill="none" stroke="#63b8ff" d="M423.75,-111.59C443.66,-103.13 473.18,-90.58 495.83,-80.94"/>
<polygon fill="#63b8ff" stroke="#63b8ff" points="497.1,-84.21 504.94,-77.07 494.37,-77.76 497.1,-84.21"/>
</a>
</g>
</g>
<!-- Node3 -->
<g id="Node000003" class="node">
<title>Node3</title>
<g id="a_Node000003"><a xlink:title=" ">
<polygon fill="#e0e0e0" stroke="#999999" points="63.25,-20 0,-20 0,0 63.25,0 63.25,-20"/>
<text text-anchor="middle" x="31.62" y="-6.5" font-family="Helvetica,sans-Serif" font-size="10.00">string_view</text>
</a>
</g>
</g>
<!-- Node2&#45;&gt;Node3 -->
<g id="edge2_Node000002_Node000003" class="edge">
<title>Node2&#45;&gt;Node3</title>
<g id="a_edge2_Node000002_Node000003"><a xlink:title=" ">
<path fill="none" stroke="#63b8ff" d="M93.56,-55.59C82.66,-47.74 66.87,-36.38 53.97,-27.09"/>
<polygon fill="#63b8ff" stroke="#63b8ff" points="56.18,-24.37 46.02,-21.36 52.09,-30.05 56.18,-24.37"/>
</a>
</g>
</g>
<!-- Node4 -->
<g id="Node000004" class="node">
<title>Node4</title>
<g id="a_Node000004"><a xlink:title=" ">
<polygon fill="#e0e0e0" stroke="#999999" points="132.25,-20 81,-20 81,0 132.25,0 132.25,-20"/>
<text text-anchor="middle" x="106.62" y="-6.5" font-family="Helvetica,sans-Serif" font-size="10.00">ostream</text>
</a>
</g>
</g>
<!-- Node2&#45;&gt;Node4 -->
<g id="edge3_Node000002_Node000004" class="edge">
<title>Node2&#45;&gt;Node4</title>
<g id="a_edge3_Node000002_Node000004"><a xlink:title=" ">
<path fill="none" stroke="#63b8ff" d="M106.62,-55.59C106.62,-49.01 106.62,-39.96 106.62,-31.73"/>
<polygon fill="#63b8ff" stroke="#63b8ff" points="110.13,-31.81 106.63,-21.81 103.13,-31.81 110.13,-31.81"/>
</a>
</g>
</g>
<!-- Node6 -->
<g id="Node000006" class="node">
<title>Node6</title>
<g id="a_Node000006"><a xlink:title=" ">
<polygon fill="#e0e0e0" stroke="#999999" points="197.38,-20 149.88,-20 149.88,0 197.38,0 197.38,-20"/>
<text text-anchor="middle" x="173.62" y="-6.5" font-family="Helvetica,sans-Serif" font-size="10.00">cstddef</text>
</a>
</g>
</g>
<!-- Node5&#45;&gt;Node6 -->
<g id="edge5_Node000005_Node000006" class="edge">
<title>Node5&#45;&gt;Node6</title>
<g id="a_edge5_Node000005_Node000006"><a xlink:title=" ">
<path fill="none" stroke="#63b8ff" d="M314.84,-55.59C285.27,-46.26 239.94,-31.94 208.66,-22.06"/>
<polygon fill="#63b8ff" stroke="#63b8ff" points="209.86,-18.77 199.27,-19.1 207.75,-25.45 209.86,-18.77"/>
</a>
</g>
</g>
<!-- Node7 -->
<g id="Node000007" class="node">
<title>Node7</title>
<g id="a_Node000007"><a xlink:title=" ">
<polygon fill="#e0e0e0" stroke="#999999" points="260.25,-20 215,-20 215,0 260.25,0 260.25,-20"/>
<text text-anchor="middle" x="237.62" y="-6.5" font-family="Helvetica,sans-Serif" font-size="10.00">cstdint</text>
</a>
</g>
</g>
<!-- Node5&#45;&gt;Node7 -->
<g id="edge6_Node000005_Node000007" class="edge">
<title>Node5&#45;&gt;Node7</title>
<g id="a_edge6_Node000005_Node000007"><a xlink:title=" ">
<path fill="none" stroke="#63b8ff" d="M325.99,-55.59C309.59,-47.32 285.47,-35.14 266.56,-25.6"/>
<polygon fill="#63b8ff" stroke="#63b8ff" points="268.26,-22.54 257.76,-21.16 265.11,-28.79 268.26,-22.54"/>
</a>
</g>
</g>
<!-- Node8 -->
<g id="Node000008" class="node">
<title>Node8</title>
<g id="a_Node000008"><a xlink:title=" ">
<polygon fill="#e0e0e0" stroke="#999999" points="307.02,-20 278.23,-20 278.23,0 307.02,0 307.02,-20"/>
<text text-anchor="middle" x="292.62" y="-6.5" font-family="Helvetica,sans-Serif" font-size="10.00">bit</text>
</a>
</g>
</g>
<!-- Node5&#45;&gt;Node8 -->
<g id="edge7_Node000005_Node000008" class="edge">
<title>Node5&#45;&gt;Node8</title>
<g id="a_edge7_Node000005_Node000008"><a xlink:title=" ">
<path fill="none" stroke="#63b8ff" d="M335.57,-55.59C328.41,-48.16 318.22,-37.58 309.56,-28.58"/>
<polygon fill="#63b8ff" stroke="#63b8ff" points="312.09,-26.16 302.63,-21.39 307.04,-31.02 312.09,-26.16"/>
</a>
</g>
</g>
<!-- Node9 -->
<g id="Node000009" class="node">
<title>Node9</title>
<g id="a_Node000009"><a xlink:title=" ">
<polygon fill="#e0e0e0" stroke="#999999" points="364.25,-20 325,-20 325,0 364.25,0 364.25,-20"/>
<text text-anchor="middle" x="344.62" y="-6.5" font-family="Helvetica,sans-Serif" font-size="10.00">limits</text>
</a>
</g>
</g>
<!-- Node5&#45;&gt;Node9 -->
<g id="edge8_Node000005_Node000009" class="edge">
<title>Node5&#45;&gt;Node9</title>
<g id="a_edge8_Node000005_Node000009"><a xlink:title=" ">
<path fill="none" stroke="#63b8ff" d="M344.62,-55.59C344.62,-49.01 344.62,-39.96 344.62,-31.73"/>
<polygon fill="#63b8ff" stroke="#63b8ff" points="348.13,-31.81 344.63,-21.81 341.13,-31.81 348.13,-31.81"/>
</a>
</g>
</g>
<!-- Node10 -->
<g id="Node000010" class="node">
<title>Node10</title>
<g id="a_Node000010"><a xlink:title=" ">
<polygon fill="#e0e0e0" stroke="#999999" points="444.5,-20 382.75,-20 382.75,0 444.5,0 444.5,-20"/>
<text text-anchor="middle" x="413.62" y="-6.5" font-family="Helvetica,sans-Serif" font-size="10.00">type_traits</text>
</a>
</g>
</g>
<!-- Node5&#45;&gt;Node10 -->
<g id="edge9_Node000005_Node000010" class="edge">
<title>Node5&#45;&gt;Node10</title>
<g id="a_edge9_Node000005_Node000010"><a xlink:title=" ">
<path fill="none" stroke="#63b8ff" d="M356.64,-55.59C366.64,-47.77 381.09,-36.46 392.93,-27.19"/>
<polygon fill="#63b8ff" stroke="#63b8ff" points="394.83,-30.15 400.55,-21.23 390.52,-24.64 394.83,-30.15"/>
</a>
</g>
</g>
<!-- Node11 -->
<g id="Node000011" class="node">
<title>Node11</title>
<g id="a_Node000011"><a xlink:title=" ">
<polygon fill="#e0e0e0" stroke="#999999" points="514.25,-20 463,-20 463,0 514.25,0 514.25,-20"/>
<text text-anchor="middle" x="488.62" y="-6.5" font-family="Helvetica,sans-Serif" font-size="10.00">memory</text>
</a>
</g>
</g>
<!-- Node5&#45;&gt;Node11 -->
<g id="edge10_Node000005_Node000011" class="edge">
<title>Node5&#45;&gt;Node11</title>
<g id="a_edge10_Node000005_Node000011"><a xlink:title=" ">
<path fill="none" stroke="#63b8ff" d="M369.71,-55.59C392.69,-46.97 426.98,-34.12 452.84,-24.42"/>
<polygon fill="#63b8ff" stroke="#63b8ff" points="453.79,-27.8 461.93,-21.01 451.34,-21.25 453.79,-27.8"/>
</a>
</g>
</g>
<!-- Node12 -->
<g id="Node000012" class="node">
<title>Node12</title>
<g id="a_Node000012"><a xlink:title=" ">
<polygon fill="#e0e0e0" stroke="#999999" points="571.25,-20 532,-20 532,0 571.25,0 571.25,-20"/>
<text text-anchor="middle" x="551.62" y="-6.5" font-family="Helvetica,sans-Serif" font-size="10.00">utility</text>
</a>
</g>
</g>
<!-- Node5&#45;&gt;Node12 -->
<g id="edge11_Node000005_Node000012" class="edge">
<title>Node5&#45;&gt;Node12</title>
<g id="a_edge11_Node000005_Node000012"><a xlink:title=" ">
<path fill="none" stroke="#63b8ff" d="M385.35,-55.56C419.34,-47.5 469.3,-35.25 520.78,-20.69"/>
<polygon fill="#63b8ff" stroke="#63b8ff" points="521.68,-24.08 530.33,-17.97 519.76,-17.35 521.68,-24.08"/>
</a>
</g>
</g>
<!-- Node13 -->
<g id="Node000013" class="node">
<title>Node13</title>
<g id="a_Node000013"><a xlink:title=" ">
<polygon fill="#e0e0e0" stroke="#999999" points="648,-20 589.25,-20 589.25,0 648,0 648,-20"/>
<text text-anchor="middle" x="618.62" y="-6.5" font-family="Helvetica,sans-Serif" font-size="10.00">stdexcept</text>
</a>
</g>
</g>
<!-- Node5&#45;&gt;Node13 -->
<g id="edge12_Node000005_Node000013" class="edge">
<title>Node5&#45;&gt;Node13</title>
<g id="a_edge12_Node000005_Node000013"><a xlink:title=" ">
<path fill="none" stroke="#63b8ff" d="M397.72,-55.57C443.11,-47.35 510.45,-34.79 577.58,-20.59"/>
<polygon fill="#63b8ff" stroke="#63b8ff" points="578.25,-24.02 587.3,-18.51 576.79,-17.17 578.25,-24.02"/>
</a>
</g>
</g>
</g>
</svg>
