<?xml version="1.0" encoding="UTF-8" standalone="no"?>
<!DOCTYPE svg PUBLIC "-//W3C//DTD SVG 1.1//EN"
 "http://www.w3.org/Graphics/SVG/1.1/DTD/svg11.dtd">
<!-- Generated by graphviz version 9.0.0 (20230911.1827)
 -->
<!-- Title: ogxx::Matrix_base Pages: 1 -->
<svg width="413pt" height="178pt"
 viewBox="0.00 0.00 413.00 178.00" xmlns="http://www.w3.org/2000/svg" xmlns:xlink="http://www.w3.org/1999/xlink">
<g id="graph0" class="graph" transform="scale(1 1) rotate(0) translate(4 174)">
<title>ogxx::Matrix_base</title>
<!-- Node1 -->
<g id="Node000001" class="node">
<title>Node1</title>
<g id="a_Node000001"><a xlink:title="Common matrix function independent of matrix item type.">
<polygon fill="#999999" stroke="#666666" points="96.25,-101 0,-101 0,-81 96.25,-81 96.25,-101"/>
<text text-anchor="middle" x="48.12" y="-87.5" font-family="Helvetica,sans-Serif" font-size="10.00">ogxx::Matrix_base</text>
</a>
</g>
</g>
<!-- Node2 -->
<g id="Node000002" class="node">
<title>Node2</title>
<g id="a_Node000002"><a xlink:href="../../d4/def/classogxx_1_1_bit__matrix.html" target="_top" xlink:title="Bit matrix interface. Iterating the matrix means going through all its elements in row&#45;major order.">
<polygon fill="white" stroke="#666666" points="233.38,-126 146.12,-126 146.12,-106 233.38,-106 233.38,-126"/>
<text text-anchor="middle" x="189.75" y="-112.5" font-family="Helvetica,sans-Serif" font-size="10.00">ogxx::Bit_matrix</text>
</a>
</g>
</g>
<!-- Node1&#45;&gt;Node2 -->
<g id="edge1_Node000001_Node000002" class="edge">
<title>Node1&#45;&gt;Node2</title>
<g id="a_edge1_Node000001_Node000002"><a xlink:title=" ">
<path fill="none" stroke="#63b8ff" d="M107.48,-101.45C120.31,-103.75 133.66,-106.14 145.75,-108.3"/>
<polygon fill="#63b8ff" stroke="#63b8ff" points="108.35,-98.05 97.89,-99.73 107.11,-104.94 108.35,-98.05"/>
</a>
</g>
</g>
<!-- Node5 -->
<g id="Node000005" class="node">
<title>Node5</title>
<g id="a_Node000005"><a xlink:href="../../da/dce/classogxx_1_1_st__matrix.html" target="_top" xlink:title="Simple type matrix interface. Iterating the matrix means going through all its elements in row&#45;major ...">
<polygon fill="white" stroke="#666666" points="247.25,-76 132.25,-76 132.25,-56 247.25,-56 247.25,-76"/>
<text text-anchor="middle" x="189.75" y="-62.5" font-family="Helvetica,sans-Serif" font-size="10.00">ogxx::St_matrix&lt; ST &gt;</text>
</a>
</g>
</g>
<!-- Node1&#45;&gt;Node5 -->
<g id="edge6_Node000001_Node000005" class="edge">
<title>Node1&#45;&gt;Node5</title>
<g id="a_edge6_Node000001_Node000005"><a xlink:title=" ">
<path fill="none" stroke="#63b8ff" d="M107.57,-80.53C115.61,-79.1 123.85,-77.62 131.86,-76.19"/>
<polygon fill="#63b8ff" stroke="#63b8ff" points="107.11,-77.06 97.89,-82.27 108.35,-83.95 107.11,-77.06"/>
</a>
</g>
</g>
<!-- Node3 -->
<g id="Node000003" class="node">
<title>Node3</title>
<g id="a_Node000003"><a xlink:href="../../dc/d59/classogxx_1_1_dense__bit__matrix.html" target="_top" xlink:title=" ">
<polygon fill="white" stroke="#666666" points="403.5,-170 284.75,-170 284.75,-150 403.5,-150 403.5,-170"/>
<text text-anchor="middle" x="344.12" y="-156.5" font-family="Helvetica,sans-Serif" font-size="10.00">ogxx::Dense_bit_matrix</text>
</a>
</g>
</g>
<!-- Node2&#45;&gt;Node3 -->
<g id="edge2_Node000002_Node000003" class="edge">
<title>Node2&#45;&gt;Node3</title>
<g id="a_edge2_Node000002_Node000003"><a xlink:title=" ">
<path fill="none" stroke="#63b8ff" d="M244.6,-125.07C271.9,-132.28 303.39,-141.96 323.28,-149.54"/>
<polygon fill="#63b8ff" stroke="#63b8ff" points="245.62,-121.71 235.07,-122.61 243.88,-128.49 245.62,-121.71"/>
</a>
</g>
</g>
<!-- Node2&#45;&gt;Node3 -->
<g id="edge3_Node000002_Node000003" class="edge">
<title>Node2&#45;&gt;Node3</title>
<g id="a_edge3_Node000002_Node000003"><a xlink:title=" ">
<path fill="none" stroke="#63b8ff" d="M221.42,-130.39C239.47,-136.71 262.92,-143.83 284.4,-149.63"/>
<polygon fill="#63b8ff" stroke="#63b8ff" points="222.69,-127.13 212.09,-127 220.29,-133.71 222.69,-127.13"/>
</a>
</g>
</g>
<!-- Node4 -->
<g id="Node000004" class="node">
<title>Node4</title>
<g id="a_Node000004"><a xlink:href="../../d0/dec/classogxx_1_1_symmetric__dense__bit__matrix.html" target="_top" xlink:title="Symmetric dense bit matrix stores only one half without the main diagonal.">
<polygon fill="white" stroke="#666666" points="405,-132 283.25,-132 283.25,-100 405,-100 405,-132"/>
<text text-anchor="start" x="291.25" y="-118.5" font-family="Helvetica,sans-Serif" font-size="10.00">ogxx::Symmetric_dense</text>
<text text-anchor="middle" x="344.12" y="-106.5" font-family="Helvetica,sans-Serif" font-size="10.00">_bit_matrix</text>
</a>
</g>
</g>
<!-- Node2&#45;&gt;Node4 -->
<g id="edge4_Node000002_Node000004" class="edge">
<title>Node2&#45;&gt;Node4</title>
<g id="a_edge4_Node000002_Node000004"><a xlink:title=" ">
<path fill="none" stroke="#63b8ff" d="M245.08,-109.5C257.36,-109.21 270.47,-109.17 282.98,-109.38"/>
<polygon fill="#63b8ff" stroke="#63b8ff" points="245,-106 235.11,-109.81 245.22,-113 245,-106"/>
</a>
</g>
</g>
<!-- Node2&#45;&gt;Node4 -->
<g id="edge5_Node000002_Node000004" class="edge">
<title>Node2&#45;&gt;Node4</title>
<g id="a_edge5_Node000002_Node000004"><a xlink:title=" ">
<path fill="none" stroke="#63b8ff" d="M245.08,-122.5C257.36,-122.79 270.47,-122.83 282.98,-122.62"/>
<polygon fill="#63b8ff" stroke="#63b8ff" points="245.22,-119 235.11,-122.19 245,-126 245.22,-119"/>
</a>
</g>
</g>
<!-- Node6 -->
<g id="Node000006" class="node">
<title>Node6</title>
<g id="a_Node000006"><a xlink:href="../../dd/d0b/classogxx_1_1_dense__st__matrix.html" target="_top" xlink:title=" ">
<polygon fill="white" stroke="#666666" points="402.38,-82 285.88,-82 285.88,-50 402.38,-50 402.38,-82"/>
<text text-anchor="start" x="293.88" y="-68.5" font-family="Helvetica,sans-Serif" font-size="10.00">ogxx::Dense_st_matrix</text>
<text text-anchor="middle" x="344.12" y="-56.5" font-family="Helvetica,sans-Serif" font-size="10.00">&lt; ST &gt;</text>
</a>
</g>
</g>
<!-- Node5&#45;&gt;Node6 -->
<g id="edge7_Node000005_Node000006" class="edge">
<title>Node5&#45;&gt;Node6</title>
<g id="a_edge7_Node000005_Node000006"><a xlink:title=" ">
<path fill="none" stroke="#63b8ff" d="M258.72,-59.28C267.69,-59.21 276.81,-59.26 285.58,-59.43"/>
<polygon fill="#63b8ff" stroke="#63b8ff" points="258.95,-55.78 249,-59.43 259.05,-62.78 258.95,-55.78"/>
</a>
</g>
</g>
<!-- Node5&#45;&gt;Node6 -->
<g id="edge8_Node000005_Node000006" class="edge">
<title>Node5&#45;&gt;Node6</title>
<g id="a_edge8_Node000005_Node000006"><a xlink:title=" ">
<path fill="none" stroke="#63b8ff" d="M258.72,-72.72C267.69,-72.79 276.81,-72.74 285.58,-72.57"/>
<polygon fill="#63b8ff" stroke="#63b8ff" points="259.05,-69.22 249,-72.57 258.95,-76.22 259.05,-69.22"/>
</a>
</g>
</g>
<!-- Node7 -->
<g id="Node000007" class="node">
<title>Node7</title>
<g id="a_Node000007"><a xlink:href="../../d6/dea/classogxx_1_1_symmetric__dense__st__matrix.html" target="_top" xlink:title="A class that represents a symmetric matrix in dense storage format.">
<polygon fill="white" stroke="#666666" points="405,-32 283.25,-32 283.25,0 405,0 405,-32"/>
<text text-anchor="start" x="291.25" y="-18.5" font-family="Helvetica,sans-Serif" font-size="10.00">ogxx::Symmetric_dense</text>
<text text-anchor="middle" x="344.12" y="-6.5" font-family="Helvetica,sans-Serif" font-size="10.00">_st_matrix&lt; ST &gt;</text>
</a>
</g>
</g>
<!-- Node5&#45;&gt;Node7 -->
<g id="edge9_Node000005_Node000007" class="edge">
<title>Node5&#45;&gt;Node7</title>
<g id="a_edge9_Node000005_Node000007"><a xlink:title=" ">
<path fill="none" stroke="#63b8ff" d="M219.42,-51.18C237.33,-44.13 261.08,-35.94 282.97,-29.12"/>
<polygon fill="#63b8ff" stroke="#63b8ff" points="218.16,-47.91 210.23,-54.94 220.81,-54.39 218.16,-47.91"/>
</a>
</g>
</g>
<!-- Node5&#45;&gt;Node7 -->
<g id="edge10_Node000005_Node000007" class="edge">
<title>Node5&#45;&gt;Node7</title>
<g id="a_edge10_Node000005_Node000007"><a xlink:title=" ">
<path fill="none" stroke="#63b8ff" d="M252.74,-52.3C272.53,-46.1 293.66,-38.84 310.5,-32.36"/>
<polygon fill="#63b8ff" stroke="#63b8ff" points="251.89,-48.9 243.36,-55.18 253.95,-55.59 251.89,-48.9"/>
</a>
</g>
</g>
</g>
</svg>
