<?xml version="1.0" encoding="UTF-8" standalone="no"?>
<!DOCTYPE svg PUBLIC "-//W3C//DTD SVG 1.1//EN"
 "http://www.w3.org/Graphics/SVG/1.1/DTD/svg11.dtd">
<!-- Generated by graphviz version 9.0.0 (20230911.1827)
 -->
<!-- Title: ogxx::Basic_iterator&lt; Item &gt; Pages: 1 -->
<svg width="273pt" height="90pt"
 viewBox="0.00 0.00 272.50 90.00" xmlns="http://www.w3.org/2000/svg" xmlns:xlink="http://www.w3.org/1999/xlink">
<g id="graph0" class="graph" transform="scale(1 1) rotate(0) translate(4 86)">
<title>ogxx::Basic_iterator&lt; Item &gt;</title>
<!-- Node1 -->
<g id="Node000001" class="node">
<title>Node1</title>
<g id="a_Node000001"><a xlink:title="Generic iterator for traversing a sequence of items of a small easily&#45;copyable or movable type.">
<polygon fill="#999999" stroke="#666666" points="103,-57 0,-57 0,-25 103,-25 103,-57"/>
<text text-anchor="start" x="8" y="-43.5" font-family="Helvetica,sans-Serif" font-size="10.00">ogxx::Basic_iterator</text>
<text text-anchor="middle" x="51.5" y="-31.5" font-family="Helvetica,sans-Serif" font-size="10.00">&lt; Item &gt;</text>
</a>
</g>
</g>
<!-- Node2 -->
<g id="Node000002" class="node">
<title>Node2</title>
<g id="a_Node000002"><a xlink:href="../../d8/d8c/classogxx_1_1_dense__bit__iterator.html" target="_top" xlink:title=" ">
<polygon fill="white" stroke="#666666" points="262.62,-82 140.88,-82 140.88,-50 262.62,-50 262.62,-82"/>
<text text-anchor="start" x="148.88" y="-68.5" font-family="Helvetica,sans-Serif" font-size="10.00">ogxx::Dense_bit_iterator</text>
<text text-anchor="middle" x="201.75" y="-56.5" font-family="Helvetica,sans-Serif" font-size="10.00">&lt; bool &gt;</text>
</a>
</g>
</g>
<!-- Node1&#45;&gt;Node2 -->
<g id="edge1_Node000001_Node000002" class="edge">
<title>Node1&#45;&gt;Node2</title>
<g id="a_edge1_Node000001_Node000002"><a xlink:title=" ">
<path fill="none" stroke="#63b8ff" d="M114.23,-44.74C123.49,-46.18 133.01,-47.8 142.21,-49.51"/>
<polygon fill="#63b8ff" stroke="#63b8ff" points="115.01,-41.32 104.6,-43.32 113.98,-48.25 115.01,-41.32"/>
</a>
</g>
</g>
<!-- Node1&#45;&gt;Node2 -->
<g id="edge2_Node000001_Node000002" class="edge">
<title>Node1&#45;&gt;Node2</title>
<g id="a_edge2_Node000001_Node000002"><a xlink:title=" ">
<path fill="none" stroke="#63b8ff" d="M114.28,-58.08C122.92,-59.66 131.78,-61.15 140.39,-62.47"/>
<polygon fill="#63b8ff" stroke="#63b8ff" points="115.07,-54.67 104.59,-56.25 113.77,-61.55 115.07,-54.67"/>
</a>
</g>
</g>
<!-- Node3 -->
<g id="Node000003" class="node">
<title>Node3</title>
<g id="a_Node000003"><a xlink:href="../../d4/d4c/classogxx_1_1_edge__list__neighbor__iterator.html" target="_top" xlink:title=" ">
<polygon fill="white" stroke="#666666" points="264.5,-32 139,-32 139,0 264.5,0 264.5,-32"/>
<text text-anchor="start" x="147" y="-18.5" font-family="Helvetica,sans-Serif" font-size="10.00">ogxx::Edge_list_neighbor</text>
<text text-anchor="middle" x="201.75" y="-6.5" font-family="Helvetica,sans-Serif" font-size="10.00">_iterator&lt; Scalar_index &gt;</text>
</a>
</g>
</g>
<!-- Node1&#45;&gt;Node3 -->
<g id="edge3_Node000001_Node000003" class="edge">
<title>Node1&#45;&gt;Node3</title>
<g id="a_edge3_Node000001_Node000003"><a xlink:title=" ">
<path fill="none" stroke="#63b8ff" d="M114.28,-23.92C122.31,-22.45 130.54,-21.06 138.57,-19.81"/>
<polygon fill="#63b8ff" stroke="#63b8ff" points="113.77,-20.45 104.59,-25.75 115.07,-27.33 113.77,-20.45"/>
</a>
</g>
</g>
<!-- Node1&#45;&gt;Node3 -->
<g id="edge4_Node000001_Node000003" class="edge">
<title>Node1&#45;&gt;Node3</title>
<g id="a_edge4_Node000001_Node000003"><a xlink:title=" ">
<path fill="none" stroke="#63b8ff" d="M114.23,-37.26C123.49,-35.82 133.01,-34.2 142.21,-32.49"/>
<polygon fill="#63b8ff" stroke="#63b8ff" points="113.98,-33.75 104.6,-38.68 115.01,-40.68 113.98,-33.75"/>
</a>
</g>
</g>
</g>
</svg>
