<?xml version="1.0" encoding="UTF-8" standalone="no"?>
<!DOCTYPE svg PUBLIC "-//W3C//DTD SVG 1.1//EN"
 "http://www.w3.org/Graphics/SVG/1.1/DTD/svg11.dtd">
<!-- Generated by graphviz version 9.0.0 (20230911.1827)
 -->
<!-- Title: ogxx::Matrix_window Pages: 1 -->
<svg width="226pt" height="96pt"
 viewBox="0.00 0.00 226.00 96.00" xmlns="http://www.w3.org/2000/svg" xmlns:xlink="http://www.w3.org/1999/xlink">
<g id="graph0" class="graph" transform="scale(1 1) rotate(0) translate(4 92)">
<title>ogxx::Matrix_window</title>
<!-- Node1 -->
<g id="Node000001" class="node">
<title>Node1</title>
<g id="a_Node000001"><a xlink:title="Rectangular matrix window coordinates: position and shape.">
<polygon fill="#999999" stroke="#666666" points="161.62,-20 54.88,-20 54.88,0 161.62,0 161.62,-20"/>
<text text-anchor="middle" x="108.25" y="-6.5" font-family="Helvetica,sans-Serif" font-size="10.00">ogxx::Matrix_window</text>
</a>
</g>
</g>
<!-- Node2 -->
<g id="Node000002" class="node">
<title>Node2</title>
<g id="a_Node000002"><a xlink:href="../../de/d20/structogxx_1_1_matrix__index.html" target="_top" xlink:title="Index of an item of a matrix. Negative indices are to be interpreted as offsets from the right end li...">
<polygon fill="white" stroke="#666666" points="98.5,-88 0,-88 0,-68 98.5,-68 98.5,-88"/>
<text text-anchor="middle" x="49.25" y="-74.5" font-family="Helvetica,sans-Serif" font-size="10.00">ogxx::Matrix_index</text>
</a>
</g>
</g>
<!-- Node2&#45;&gt;Node1 -->
<g id="edge1_Node000001_Node000002" class="edge">
<title>Node2&#45;&gt;Node1</title>
<g id="a_edge1_Node000001_Node000002"><a xlink:title=" ">
<path fill="none" stroke="#9a32cd" stroke-dasharray="5,2" d="M65.12,-59.25C76.29,-46.76 90.79,-30.53 99.81,-20.44"/>
<polygon fill="#9a32cd" stroke="#9a32cd" points="62.77,-56.63 58.71,-66.42 67.99,-61.29 62.77,-56.63"/>
</a>
</g>
<text text-anchor="middle" x="102.62" y="-40.5" font-family="Helvetica,sans-Serif" font-size="10.00" fill="grey"> position</text>
</g>
<!-- Node3 -->
<g id="Node000003" class="node">
<title>Node3</title>
<g id="a_Node000003"><a xlink:href="../../d3/d28/structogxx_1_1_matrix__shape.html" target="_top" xlink:title="Matrix shape description (just two sizes).">
<polygon fill="white" stroke="#666666" points="218,-88 116.5,-88 116.5,-68 218,-68 218,-88"/>
<text text-anchor="middle" x="167.25" y="-74.5" font-family="Helvetica,sans-Serif" font-size="10.00">ogxx::Matrix_shape</text>
</a>
</g>
</g>
<!-- Node3&#45;&gt;Node1 -->
<g id="edge2_Node000001_Node000003" class="edge">
<title>Node3&#45;&gt;Node1</title>
<g id="a_edge2_Node000001_Node000003"><a xlink:title=" ">
<path fill="none" stroke="#9a32cd" stroke-dasharray="5,2" d="M151.38,-59.25C140.21,-46.76 125.71,-30.53 116.69,-20.44"/>
<polygon fill="#9a32cd" stroke="#9a32cd" points="148.51,-61.29 157.79,-66.42 153.73,-56.63 148.51,-61.29"/>
</a>
</g>
<text text-anchor="middle" x="156.88" y="-40.5" font-family="Helvetica,sans-Serif" font-size="10.00" fill="grey"> shape</text>
</g>
</g>
</svg>
