<?xml version="1.0" encoding="UTF-8" standalone="no"?>
<!DOCTYPE svg PUBLIC "-//W3C//DTD SVG 1.1//EN"
 "http://www.w3.org/Graphics/SVG/1.1/DTD/svg11.dtd">
<!-- Generated by graphviz version 9.0.0 (20230911.1827)
 -->
<!-- Title: ogxx::Graph_view_directed_edge_list Pages: 1 -->
<svg width="140pt" height="96pt"
 viewBox="0.00 0.00 140.25 96.00" xmlns="http://www.w3.org/2000/svg" xmlns:xlink="http://www.w3.org/1999/xlink">
<g id="graph0" class="graph" transform="scale(1 1) rotate(0) translate(4 92)">
<title>ogxx::Graph_view_directed_edge_list</title>
<!-- Node1 -->
<g id="Node000001" class="node">
<title>Node1</title>
<g id="a_Node000001"><a xlink:title=" ">
<polygon fill="#999999" stroke="#666666" points="132.25,-32 0,-32 0,0 132.25,0 132.25,-32"/>
<text text-anchor="start" x="8" y="-18.5" font-family="Helvetica,sans-Serif" font-size="10.00">ogxx::Graph_view_directed</text>
<text text-anchor="middle" x="66.12" y="-6.5" font-family="Helvetica,sans-Serif" font-size="10.00">_edge_list</text>
</a>
</g>
</g>
<!-- Node2 -->
<g id="Node000002" class="node">
<title>Node2</title>
<g id="a_Node000002"><a xlink:href="../../de/d37/classogxx_1_1_graph__view.html" target="_top" xlink:title="Generic graph interface to provide a common facade over concrete graph representations.">
<polygon fill="white" stroke="#666666" points="112.38,-88 19.88,-88 19.88,-68 112.38,-68 112.38,-88"/>
<text text-anchor="middle" x="66.12" y="-74.5" font-family="Helvetica,sans-Serif" font-size="10.00">ogxx::Graph_view</text>
</a>
</g>
</g>
<!-- Node2&#45;&gt;Node1 -->
<g id="edge1_Node000001_Node000002" class="edge">
<title>Node2&#45;&gt;Node1</title>
<g id="a_edge1_Node000001_Node000002"><a xlink:title=" ">
<path fill="none" stroke="#63b8ff" d="M59.67,-56.31C59.15,-48.37 59.32,-39.46 60.17,-32.14"/>
<polygon fill="#63b8ff" stroke="#63b8ff" points="56.18,-56.62 60.88,-66.12 63.13,-55.77 56.18,-56.62"/>
</a>
</g>
</g>
<!-- Node2&#45;&gt;Node1 -->
<g id="edge2_Node000001_Node000002" class="edge">
<title>Node2&#45;&gt;Node1</title>
<g id="a_edge2_Node000001_Node000002"><a xlink:title=" ">
<path fill="none" stroke="#63b8ff" d="M72.58,-56.31C73.1,-48.37 72.93,-39.46 72.08,-32.14"/>
<polygon fill="#63b8ff" stroke="#63b8ff" points="69.12,-55.77 71.37,-66.12 76.07,-56.62 69.12,-55.77"/>
</a>
</g>
</g>
</g>
</svg>
