<?xml version="1.0" encoding="UTF-8" standalone="no"?>
<!DOCTYPE svg PUBLIC "-//W3C//DTD SVG 1.1//EN"
 "http://www.w3.org/Graphics/SVG/1.1/DTD/svg11.dtd">
<!-- Generated by graphviz version 9.0.0 (20230911.1827)
 -->
<!-- Title: include/ogxx/io_head.hpp Pages: 1 -->
<svg width="663pt" height="220pt"
 viewBox="0.00 0.00 663.12 220.00" xmlns="http://www.w3.org/2000/svg" xmlns:xlink="http://www.w3.org/1999/xlink">
<g id="graph0" class="graph" transform="scale(1 1) rotate(0) translate(4 216)">
<title>include/ogxx/io_head.hpp</title>
<!-- Node1 -->
<g id="Node000001" class="node">
<title>Node1</title>
<g id="a_Node000001"><a xlink:title="Shared things for *_io.hpp files.">
<polygon fill="#999999" stroke="#666666" points="390.12,-212 263.88,-212 263.88,-192 390.12,-192 390.12,-212"/>
<text text-anchor="middle" x="327" y="-198.5" font-family="Helvetica,sans-Serif" font-size="10.00">include/ogxx/io_head.hpp</text>
</a>
</g>
</g>
<!-- Node2 -->
<g id="Node000002" class="node">
<title>Node2</title>
<g id="a_Node000002"><a xlink:href="../../d8/d3e/adjacency__list__io_8hpp.html" target="_top" xlink:title="Textual input&#45;output for adjacency list.">
<polygon fill="white" stroke="#666666" points="118,-156 0,-156 0,-124 118,-124 118,-156"/>
<text text-anchor="start" x="8" y="-142.5" font-family="Helvetica,sans-Serif" font-size="10.00">include/ogxx/adjacency</text>
<text text-anchor="middle" x="59" y="-130.5" font-family="Helvetica,sans-Serif" font-size="10.00">_list_io.hpp</text>
</a>
</g>
</g>
<!-- Node1&#45;&gt;Node2 -->
<g id="edge1_Node000001_Node000002" class="edge">
<title>Node1&#45;&gt;Node2</title>
<g id="a_edge1_Node000001_Node000002"><a xlink:title=" ">
<path fill="none" stroke="#63b8ff" d="M273.87,-189.1C229.02,-179.06 164.86,-164.7 118.34,-154.29"/>
<polygon fill="#63b8ff" stroke="#63b8ff" points="272.83,-192.46 283.35,-191.23 274.36,-185.63 272.83,-192.46"/>
</a>
</g>
</g>
<!-- Node6 -->
<g id="Node000006" class="node">
<title>Node6</title>
<g id="a_Node000006"><a xlink:href="../../d6/d1d/bit__matrix__io_8hpp.html" target="_top" xlink:title="Bit_matrix reading and printing operations.">
<polygon fill="white" stroke="#666666" points="252.25,-156 135.75,-156 135.75,-124 252.25,-124 252.25,-156"/>
<text text-anchor="start" x="143.75" y="-142.5" font-family="Helvetica,sans-Serif" font-size="10.00">include/ogxx/bit_matrix</text>
<text text-anchor="middle" x="194" y="-130.5" font-family="Helvetica,sans-Serif" font-size="10.00">_io.hpp</text>
</a>
</g>
</g>
<!-- Node1&#45;&gt;Node6 -->
<g id="edge5_Node000001_Node000006" class="edge">
<title>Node1&#45;&gt;Node6</title>
<g id="a_edge5_Node000001_Node000006"><a xlink:title=" ">
<path fill="none" stroke="#63b8ff" d="M295.96,-187C275.7,-177.86 249.23,-165.92 228.34,-156.49"/>
<polygon fill="#63b8ff" stroke="#63b8ff" points="294.28,-190.08 304.84,-191 297.16,-183.7 294.28,-190.08"/>
</a>
</g>
</g>
<!-- Node7 -->
<g id="Node000007" class="node">
<title>Node7</title>
<g id="a_Node000007"><a xlink:href="../../d6/d2b/edge__list__io_8hpp.html" target="_top" xlink:title="Textual input&#45;output for edge list.">
<polygon fill="white" stroke="#666666" points="383.38,-156 270.62,-156 270.62,-124 383.38,-124 383.38,-156"/>
<text text-anchor="start" x="278.62" y="-142.5" font-family="Helvetica,sans-Serif" font-size="10.00">include/ogxx/edge_list</text>
<text text-anchor="middle" x="327" y="-130.5" font-family="Helvetica,sans-Serif" font-size="10.00">_io.hpp</text>
</a>
</g>
</g>
<!-- Node1&#45;&gt;Node7 -->
<g id="edge6_Node000001_Node000007" class="edge">
<title>Node1&#45;&gt;Node7</title>
<g id="a_edge6_Node000001_Node000007"><a xlink:title=" ">
<path fill="none" stroke="#63b8ff" d="M327,-180.31C327,-172.37 327,-163.46 327,-156.14"/>
<polygon fill="#63b8ff" stroke="#63b8ff" points="323.5,-180.11 327,-190.11 330.5,-180.11 323.5,-180.11"/>
</a>
</g>
</g>
<!-- Node8 -->
<g id="Node000008" class="node">
<title>Node8</title>
<g id="a_Node000008"><a xlink:href="../../dd/db4/st__matrix__io_8hpp.html" target="_top" xlink:title="St_matrix reading and printing operations.">
<polygon fill="white" stroke="#666666" points="655.12,-156 540.88,-156 540.88,-124 655.12,-124 655.12,-156"/>
<text text-anchor="start" x="548.88" y="-142.5" font-family="Helvetica,sans-Serif" font-size="10.00">include/ogxx/st_matrix</text>
<text text-anchor="middle" x="598" y="-130.5" font-family="Helvetica,sans-Serif" font-size="10.00">_io.hpp</text>
</a>
</g>
</g>
<!-- Node1&#45;&gt;Node8 -->
<g id="edge7_Node000001_Node000008" class="edge">
<title>Node1&#45;&gt;Node8</title>
<g id="a_edge7_Node000001_Node000008"><a xlink:title=" ">
<path fill="none" stroke="#63b8ff" d="M381.8,-189.09C423.1,-180.08 481.13,-167.36 532,-156 534.75,-155.39 537.57,-154.75 540.41,-154.11"/>
<polygon fill="#63b8ff" stroke="#63b8ff" points="381.11,-185.65 372.09,-191.2 382.61,-192.49 381.11,-185.65"/>
</a>
</g>
</g>
<!-- Node11 -->
<g id="Node000011" class="node">
<title>Node11</title>
<g id="a_Node000011"><a xlink:href="../../db/db9/parsing__utils_8hpp.html" target="_top" xlink:title="Utility functions to make text parsing easier.">
<polygon fill="white" stroke="#666666" points="522.88,-150 401.12,-150 401.12,-130 522.88,-130 522.88,-150"/>
<text text-anchor="middle" x="462" y="-136.5" font-family="Helvetica,sans-Serif" font-size="10.00">source/parsing_utils.hpp</text>
</a>
</g>
</g>
<!-- Node1&#45;&gt;Node11 -->
<g id="edge11_Node000001_Node000011" class="edge">
<title>Node1&#45;&gt;Node11</title>
<g id="a_edge11_Node000001_Node000011"><a xlink:title=" ">
<path fill="none" stroke="#63b8ff" d="M358.33,-187.07C383.77,-175.77 418.92,-160.15 441.05,-150.31"/>
<polygon fill="#63b8ff" stroke="#63b8ff" points="357.19,-183.75 349.48,-191.01 360.04,-190.15 357.19,-183.75"/>
</a>
</g>
</g>
<!-- Node3 -->
<g id="Node000003" class="node">
<title>Node3</title>
<g id="a_Node000003"><a xlink:href="../../df/d01/source_2adjacency__list__io__read_8cpp.html" target="_top" xlink:title="Implementation of ogxx::io::read function for Adjacency_list.">
<polygon fill="white" stroke="#666666" points="360.25,-88 249.75,-88 249.75,-56 360.25,-56 360.25,-88"/>
<text text-anchor="start" x="257.75" y="-74.5" font-family="Helvetica,sans-Serif" font-size="10.00">source/adjacency_list</text>
<text text-anchor="middle" x="305" y="-62.5" font-family="Helvetica,sans-Serif" font-size="10.00">_io_read.cpp</text>
</a>
</g>
</g>
<!-- Node2&#45;&gt;Node3 -->
<g id="edge2_Node000002_Node000003" class="edge">
<title>Node2&#45;&gt;Node3</title>
<g id="a_edge2_Node000002_Node000003"><a xlink:title=" ">
<path fill="none" stroke="#63b8ff" d="M127.77,-120.55C166.15,-110.25 213.34,-97.59 249.38,-87.92"/>
<polygon fill="#63b8ff" stroke="#63b8ff" points="126.89,-117.16 118.14,-123.13 128.7,-123.92 126.89,-117.16"/>
</a>
</g>
</g>
<!-- Node4 -->
<g id="Node000004" class="node">
<title>Node4</title>
<g id="a_Node000004"><a xlink:href="../../d0/d40/tests_2adjacency__list__io__read_8cpp.html" target="_top" xlink:title="Adjacency list io::read function tests.">
<polygon fill="white" stroke="#666666" points="154.5,-88 51.5,-88 51.5,-56 154.5,-56 154.5,-88"/>
<text text-anchor="start" x="59.5" y="-74.5" font-family="Helvetica,sans-Serif" font-size="10.00">tests/adjacency_list</text>
<text text-anchor="middle" x="103" y="-62.5" font-family="Helvetica,sans-Serif" font-size="10.00">_io_read.cpp</text>
</a>
</g>
</g>
<!-- Node2&#45;&gt;Node4 -->
<g id="edge3_Node000002_Node000004" class="edge">
<title>Node2&#45;&gt;Node4</title>
<g id="a_edge3_Node000002_Node000004"><a xlink:title=" ">
<path fill="none" stroke="#63b8ff" d="M75.46,-114.3C81.3,-105.55 87.69,-95.96 92.85,-88.22"/>
<polygon fill="#63b8ff" stroke="#63b8ff" points="72.68,-112.17 70.04,-122.43 78.5,-116.05 72.68,-112.17"/>
</a>
</g>
</g>
<!-- Node5 -->
<g id="Node000005" class="node">
<title>Node5</title>
<g id="a_Node000005"><a xlink:href="../../da/d4a/build__all_8cpp.html" target="_top" xlink:title="Include all test files here to build them at once.">
<polygon fill="white" stroke="#666666" points="395.38,-20 300.62,-20 300.62,0 395.38,0 395.38,-20"/>
<text text-anchor="middle" x="348" y="-6.5" font-family="Helvetica,sans-Serif" font-size="10.00">tests/build_all.cpp</text>
</a>
</g>
</g>
<!-- Node4&#45;&gt;Node5 -->
<g id="edge4_Node000004_Node000005" class="edge">
<title>Node4&#45;&gt;Node5</title>
<g id="a_edge4_Node000004_Node000005"><a xlink:title=" ">
<path fill="none" stroke="#63b8ff" d="M166.14,-55.54C211.41,-44.45 270.96,-29.87 309.36,-20.46"/>
<polygon fill="#63b8ff" stroke="#63b8ff" points="165.31,-52.14 156.43,-57.92 166.97,-58.94 165.31,-52.14"/>
</a>
</g>
</g>
<!-- Node9 -->
<g id="Node000009" class="node">
<title>Node9</title>
<g id="a_Node000009"><a xlink:href="../../d1/d44/source_2st__matrix__io__read_8cpp.html" target="_top" xlink:title="Implementation of st_matrix_io.hpp&#39;s read function.">
<polygon fill="white" stroke="#666666" points="517.75,-88 416.25,-88 416.25,-56 517.75,-56 517.75,-88"/>
<text text-anchor="start" x="424.25" y="-74.5" font-family="Helvetica,sans-Serif" font-size="10.00">source/st_matrix_io</text>
<text text-anchor="middle" x="467" y="-62.5" font-family="Helvetica,sans-Serif" font-size="10.00">_read.cpp</text>
</a>
</g>
</g>
<!-- Node8&#45;&gt;Node9 -->
<g id="edge8_Node000008_Node000009" class="edge">
<title>Node8&#45;&gt;Node9</title>
<g id="a_edge8_Node000008_Node000009"><a xlink:title=" ">
<path fill="none" stroke="#63b8ff" d="M557.26,-118.47C537.96,-108.75 515.31,-97.34 497.52,-88.38"/>
<polygon fill="#63b8ff" stroke="#63b8ff" points="555.43,-121.47 565.93,-122.84 558.58,-115.22 555.43,-121.47"/>
</a>
</g>
</g>
<!-- Node10 -->
<g id="Node000010" class="node">
<title>Node10</title>
<g id="a_Node000010"><a xlink:href="../../d0/ddf/tests_2st__matrix__io__read_8cpp.html" target="_top" xlink:title="St_matrix io::read function tests.">
<polygon fill="white" stroke="#666666" points="640,-88 546,-88 546,-56 640,-56 640,-88"/>
<text text-anchor="start" x="554" y="-74.5" font-family="Helvetica,sans-Serif" font-size="10.00">tests/st_matrix_io</text>
<text text-anchor="middle" x="593" y="-62.5" font-family="Helvetica,sans-Serif" font-size="10.00">_read.cpp</text>
</a>
</g>
</g>
<!-- Node8&#45;&gt;Node10 -->
<g id="edge9_Node000008_Node000010" class="edge">
<title>Node8&#45;&gt;Node10</title>
<g id="a_edge9_Node000008_Node000010"><a xlink:title=" ">
<path fill="none" stroke="#63b8ff" d="M595.98,-112.31C595.36,-104.12 594.7,-95.38 594.15,-88.22"/>
<polygon fill="#63b8ff" stroke="#63b8ff" points="592.48,-112.48 596.73,-122.18 599.46,-111.95 592.48,-112.48"/>
</a>
</g>
</g>
<!-- Node10&#45;&gt;Node5 -->
<g id="edge10_Node000010_Node000005" class="edge">
<title>Node10&#45;&gt;Node5</title>
<g id="a_edge10_Node000010_Node000005"><a xlink:title=" ">
<path fill="none" stroke="#63b8ff" d="M534.79,-56.75C488.99,-45.53 426.45,-30.21 386.64,-20.46"/>
<polygon fill="#63b8ff" stroke="#63b8ff" points="533.75,-60.09 544.29,-59.07 535.41,-53.29 533.75,-60.09"/>
</a>
</g>
</g>
<!-- Node11&#45;&gt;Node3 -->
<g id="edge12_Node000011_Node000003" class="edge">
<title>Node11&#45;&gt;Node3</title>
<g id="a_edge12_Node000011_Node000003"><a xlink:title=" ">
<path fill="none" stroke="#63b8ff" d="M429.22,-125.22C403.67,-114.48 368.2,-99.57 341.7,-88.43"/>
<polygon fill="#63b8ff" stroke="#63b8ff" points="427.54,-128.31 438.11,-128.96 430.25,-121.86 427.54,-128.31"/>
</a>
</g>
</g>
<!-- Node11&#45;&gt;Node9 -->
<g id="edge13_Node000011_Node000009" class="edge">
<title>Node11&#45;&gt;Node9</title>
<g id="a_edge13_Node000011_Node000009"><a xlink:title=" ">
<path fill="none" stroke="#63b8ff" d="M463.58,-118.1C464.32,-108.43 465.17,-97.16 465.84,-88.3"/>
<polygon fill="#63b8ff" stroke="#63b8ff" points="460.1,-117.8 462.83,-128.03 467.08,-118.33 460.1,-117.8"/>
</a>
</g>
</g>
</g>
</svg>
