<?xml version="1.0" encoding="UTF-8" standalone="no"?>
<!DOCTYPE svg PUBLIC "-//W3C//DTD SVG 1.1//EN"
 "http://www.w3.org/Graphics/SVG/1.1/DTD/svg11.dtd">
<!-- Generated by graphviz version 9.0.0 (20230911.1827)
 -->
<!-- Title: include/ogxx/bit_matrix_io.hpp Pages: 1 -->
<svg width="561pt" height="432pt"
 viewBox="0.00 0.00 561.00 432.00" xmlns="http://www.w3.org/2000/svg" xmlns:xlink="http://www.w3.org/1999/xlink">
<g id="graph0" class="graph" transform="scale(1 1) rotate(0) translate(4 428)">
<title>include/ogxx/bit_matrix_io.hpp</title>
<!-- Node1 -->
<g id="Node000001" class="node">
<title>Node1</title>
<g id="a_Node000001"><a xlink:title="Bit_matrix reading and printing operations.">
<polygon fill="#999999" stroke="#666666" points="205.88,-424 89.38,-424 89.38,-392 205.88,-392 205.88,-424"/>
<text text-anchor="start" x="97.38" y="-410.5" font-family="Helvetica,sans-Serif" font-size="10.00">include/ogxx/bit_matrix</text>
<text text-anchor="middle" x="147.62" y="-398.5" font-family="Helvetica,sans-Serif" font-size="10.00">_io.hpp</text>
</a>
</g>
</g>
<!-- Node2 -->
<g id="Node000002" class="node">
<title>Node2</title>
<g id="a_Node000002"><a xlink:href="../../d8/d3d/io__head_8hpp.html" target="_top" xlink:title="Shared things for *_io.hpp files.">
<polygon fill="white" stroke="#666666" points="136.88,-356 44.38,-356 44.38,-336 136.88,-336 136.88,-356"/>
<text text-anchor="middle" x="90.62" y="-342.5" font-family="Helvetica,sans-Serif" font-size="10.00">ogxx/io_head.hpp</text>
</a>
</g>
</g>
<!-- Node1&#45;&gt;Node2 -->
<g id="edge1_Node000001_Node000002" class="edge">
<title>Node1&#45;&gt;Node2</title>
<g id="a_edge1_Node000001_Node000002"><a xlink:title=" ">
<path fill="none" stroke="#63b8ff" d="M132.95,-391.55C125.11,-383.3 115.44,-373.12 107.32,-364.57"/>
<polygon fill="#63b8ff" stroke="#63b8ff" points="110.03,-362.34 100.61,-357.51 104.96,-367.17 110.03,-362.34"/>
</a>
</g>
</g>
<!-- Node5 -->
<g id="Node000005" class="node">
<title>Node5</title>
<g id="a_Node000005"><a xlink:href="../../dc/dbd/bit__matrix_8hpp.html" target="_top" xlink:title="Bit_matrix interface.">
<polygon fill="white" stroke="#666666" points="256.38,-356 154.88,-356 154.88,-336 256.38,-336 256.38,-356"/>
<text text-anchor="middle" x="205.62" y="-342.5" font-family="Helvetica,sans-Serif" font-size="10.00">ogxx/bit_matrix.hpp</text>
</a>
</g>
</g>
<!-- Node1&#45;&gt;Node5 -->
<g id="edge4_Node000001_Node000005" class="edge">
<title>Node1&#45;&gt;Node5</title>
<g id="a_edge4_Node000001_Node000005"><a xlink:title=" ">
<path fill="none" stroke="#63b8ff" d="M162.56,-391.55C170.53,-383.3 180.38,-373.12 188.64,-364.57"/>
<polygon fill="#63b8ff" stroke="#63b8ff" points="191.04,-367.12 195.48,-357.5 186.01,-362.25 191.04,-367.12"/>
</a>
</g>
</g>
<!-- Node3 -->
<g id="Node000003" class="node">
<title>Node3</title>
<g id="a_Node000003"><a xlink:title=" ">
<polygon fill="#e0e0e0" stroke="#999999" points="63.25,-300 0,-300 0,-280 63.25,-280 63.25,-300"/>
<text text-anchor="middle" x="31.62" y="-286.5" font-family="Helvetica,sans-Serif" font-size="10.00">string_view</text>
</a>
</g>
</g>
<!-- Node2&#45;&gt;Node3 -->
<g id="edge2_Node000002_Node000003" class="edge">
<title>Node2&#45;&gt;Node3</title>
<g id="a_edge2_Node000002_Node000003"><a xlink:title=" ">
<path fill="none" stroke="#63b8ff" d="M80.35,-335.59C72.06,-328.01 60.18,-317.13 50.22,-308.02"/>
<polygon fill="#63b8ff" stroke="#63b8ff" points="52.64,-305.49 42.9,-301.32 47.91,-310.65 52.64,-305.49"/>
</a>
</g>
</g>
<!-- Node4 -->
<g id="Node000004" class="node">
<title>Node4</title>
<g id="a_Node000004"><a xlink:title=" ">
<polygon fill="#e0e0e0" stroke="#999999" points="132.25,-300 81,-300 81,-280 132.25,-280 132.25,-300"/>
<text text-anchor="middle" x="106.62" y="-286.5" font-family="Helvetica,sans-Serif" font-size="10.00">ostream</text>
</a>
</g>
</g>
<!-- Node2&#45;&gt;Node4 -->
<g id="edge3_Node000002_Node000004" class="edge">
<title>Node2&#45;&gt;Node4</title>
<g id="a_edge3_Node000002_Node000004"><a xlink:title=" ">
<path fill="none" stroke="#63b8ff" d="M93.41,-335.59C95.41,-328.86 98.17,-319.53 100.65,-311.15"/>
<polygon fill="#63b8ff" stroke="#63b8ff" points="103.95,-312.33 103.44,-301.75 97.24,-310.34 103.95,-312.33"/>
</a>
</g>
</g>
<!-- Node6 -->
<g id="Node000006" class="node">
<title>Node6</title>
<g id="a_Node000006"><a xlink:href="../../df/dce/matrix_8hpp.html" target="_top" xlink:title="Abstract matrix interface.">
<polygon fill="white" stroke="#666666" points="219.5,-188 133.75,-188 133.75,-168 219.5,-168 219.5,-188"/>
<text text-anchor="middle" x="176.62" y="-174.5" font-family="Helvetica,sans-Serif" font-size="10.00">ogxx/matrix.hpp</text>
</a>
</g>
</g>
<!-- Node5&#45;&gt;Node6 -->
<g id="edge5_Node000005_Node000006" class="edge">
<title>Node5&#45;&gt;Node6</title>
<g id="a_edge5_Node000005_Node000006"><a xlink:title=" ">
<path fill="none" stroke="#63b8ff" d="M203.98,-335.6C199.42,-309.46 186.49,-235.48 180.18,-199.36"/>
<polygon fill="#63b8ff" stroke="#63b8ff" points="183.68,-199.04 178.51,-189.79 176.78,-200.24 183.68,-199.04"/>
</a>
</g>
</g>
<!-- Node18 -->
<g id="Node000018" class="node">
<title>Node18</title>
<g id="a_Node000018"><a xlink:href="../../d7/d6c/graph__view_8hpp.html" target="_top" xlink:title="Graph view interface that may be used for graph representation coversion.">
<polygon fill="white" stroke="#666666" points="330.62,-300 224.62,-300 224.62,-280 330.62,-280 330.62,-300"/>
<text text-anchor="middle" x="277.62" y="-286.5" font-family="Helvetica,sans-Serif" font-size="10.00">ogxx/graph_view.hpp</text>
</a>
</g>
</g>
<!-- Node5&#45;&gt;Node18 -->
<g id="edge18_Node000005_Node000018" class="edge">
<title>Node5&#45;&gt;Node18</title>
<g id="a_edge18_Node000005_Node000018"><a xlink:title=" ">
<path fill="none" stroke="#63b8ff" d="M218.17,-335.59C228.59,-327.77 243.67,-316.46 256.04,-307.19"/>
<polygon fill="#63b8ff" stroke="#63b8ff" points="258.12,-310.01 264.02,-301.21 253.92,-304.41 258.12,-310.01"/>
</a>
</g>
</g>
<!-- Node7 -->
<g id="Node000007" class="node">
<title>Node7</title>
<g id="a_Node000007"><a xlink:href="../../de/d2f/primitive__definitions_8hpp.html" target="_top" xlink:title="Primitive type declarations like scalar indices and so on.">
<polygon fill="white" stroke="#666666" points="355,-76 212.25,-76 212.25,-56 355,-56 355,-76"/>
<text text-anchor="middle" x="283.62" y="-62.5" font-family="Helvetica,sans-Serif" font-size="10.00">ogxx/primitive_definitions.hpp</text>
</a>
</g>
</g>
<!-- Node6&#45;&gt;Node7 -->
<g id="edge6_Node000006_Node000007" class="edge">
<title>Node6&#45;&gt;Node7</title>
<g id="a_edge6_Node000006_Node000007"><a xlink:title=" ">
<path fill="none" stroke="#63b8ff" d="M176.91,-167.53C177.79,-153.82 181.27,-128.3 194.62,-112 206.24,-97.83 223.46,-87.68 239.66,-80.66"/>
<polygon fill="#63b8ff" stroke="#63b8ff" points="240.71,-84.01 248.69,-77.04 238.11,-77.51 240.71,-84.01"/>
</a>
</g>
</g>
<!-- Node16 -->
<g id="Node000016" class="node">
<title>Node16</title>
<g id="a_Node000016"><a xlink:href="../../d9/dde/iterator_8hpp.html" target="_top" xlink:title="Linear sequence iterator interfaces.">
<polygon fill="white" stroke="#666666" points="292,-132 203.25,-132 203.25,-112 292,-112 292,-132"/>
<text text-anchor="middle" x="247.62" y="-118.5" font-family="Helvetica,sans-Serif" font-size="10.00">ogxx/iterator.hpp</text>
</a>
</g>
</g>
<!-- Node6&#45;&gt;Node16 -->
<g id="edge15_Node000006_Node000016" class="edge">
<title>Node6&#45;&gt;Node16</title>
<g id="a_edge15_Node000006_Node000016"><a xlink:title=" ">
<path fill="none" stroke="#63b8ff" d="M188.99,-167.59C199.27,-159.77 214.14,-148.46 226.34,-139.19"/>
<polygon fill="#63b8ff" stroke="#63b8ff" points="228.35,-142.05 234.19,-133.21 224.12,-136.48 228.35,-142.05"/>
</a>
</g>
</g>
<!-- Node17 -->
<g id="Node000017" class="node">
<title>Node17</title>
<g id="a_Node000017"><a xlink:title=" ">
<polygon fill="#e0e0e0" stroke="#999999" points="147.38,-132 93.88,-132 93.88,-112 147.38,-112 147.38,-132"/>
<text text-anchor="middle" x="120.62" y="-118.5" font-family="Helvetica,sans-Serif" font-size="10.00">compare</text>
</a>
</g>
</g>
<!-- Node6&#45;&gt;Node17 -->
<g id="edge17_Node000006_Node000017" class="edge">
<title>Node6&#45;&gt;Node17</title>
<g id="a_edge17_Node000006_Node000017"><a xlink:title=" ">
<path fill="none" stroke="#63b8ff" d="M166.87,-167.59C159,-160.01 147.73,-149.13 138.28,-140.02"/>
<polygon fill="#63b8ff" stroke="#63b8ff" points="140.99,-137.77 131.36,-133.35 136.13,-142.81 140.99,-137.77"/>
</a>
</g>
</g>
<!-- Node8 -->
<g id="Node000008" class="node">
<title>Node8</title>
<g id="a_Node000008"><a xlink:title=" ">
<polygon fill="#e0e0e0" stroke="#999999" points="102.38,-20 54.88,-20 54.88,0 102.38,0 102.38,-20"/>
<text text-anchor="middle" x="78.62" y="-6.5" font-family="Helvetica,sans-Serif" font-size="10.00">cstddef</text>
</a>
</g>
</g>
<!-- Node7&#45;&gt;Node8 -->
<g id="edge7_Node000007_Node000008" class="edge">
<title>Node7&#45;&gt;Node8</title>
<g id="a_edge7_Node000007_Node000008"><a xlink:title=" ">
<path fill="none" stroke="#63b8ff" d="M246.45,-55.55C213.7,-47.19 164.45,-34.48 113.59,-20.77"/>
<polygon fill="#63b8ff" stroke="#63b8ff" points="114.75,-17.46 104.18,-18.23 112.92,-24.22 114.75,-17.46"/>
</a>
</g>
</g>
<!-- Node9 -->
<g id="Node000009" class="node">
<title>Node9</title>
<g id="a_Node000009"><a xlink:title=" ">
<polygon fill="#e0e0e0" stroke="#999999" points="165.25,-20 120,-20 120,0 165.25,0 165.25,-20"/>
<text text-anchor="middle" x="142.62" y="-6.5" font-family="Helvetica,sans-Serif" font-size="10.00">cstdint</text>
</a>
</g>
</g>
<!-- Node7&#45;&gt;Node9 -->
<g id="edge8_Node000007_Node000009" class="edge">
<title>Node7&#45;&gt;Node9</title>
<g id="a_edge8_Node000007_Node000009"><a xlink:title=" ">
<path fill="none" stroke="#63b8ff" d="M259.06,-55.59C236.11,-46.8 201.64,-33.6 176.16,-23.84"/>
<polygon fill="#63b8ff" stroke="#63b8ff" points="177.51,-20.61 166.92,-20.3 175,-27.15 177.51,-20.61"/>
</a>
</g>
</g>
<!-- Node10 -->
<g id="Node000010" class="node">
<title>Node10</title>
<g id="a_Node000010"><a xlink:title=" ">
<polygon fill="#e0e0e0" stroke="#999999" points="212.03,-20 183.22,-20 183.22,0 212.03,0 212.03,-20"/>
<text text-anchor="middle" x="197.62" y="-6.5" font-family="Helvetica,sans-Serif" font-size="10.00">bit</text>
</a>
</g>
</g>
<!-- Node7&#45;&gt;Node10 -->
<g id="edge9_Node000007_Node000010" class="edge">
<title>Node7&#45;&gt;Node10</title>
<g id="a_edge9_Node000007_Node000010"><a xlink:title=" ">
<path fill="none" stroke="#63b8ff" d="M268.64,-55.59C255.82,-47.54 237.1,-35.79 222.11,-26.37"/>
<polygon fill="#63b8ff" stroke="#63b8ff" points="224.05,-23.46 213.72,-21.1 220.32,-29.38 224.05,-23.46"/>
</a>
</g>
</g>
<!-- Node11 -->
<g id="Node000011" class="node">
<title>Node11</title>
<g id="a_Node000011"><a xlink:title=" ">
<polygon fill="#e0e0e0" stroke="#999999" points="269.25,-20 230,-20 230,0 269.25,0 269.25,-20"/>
<text text-anchor="middle" x="249.62" y="-6.5" font-family="Helvetica,sans-Serif" font-size="10.00">limits</text>
</a>
</g>
</g>
<!-- Node7&#45;&gt;Node11 -->
<g id="edge10_Node000007_Node000011" class="edge">
<title>Node7&#45;&gt;Node11</title>
<g id="a_edge10_Node000007_Node000011"><a xlink:title=" ">
<path fill="none" stroke="#63b8ff" d="M277.7,-55.59C273.27,-48.55 267.05,-38.67 261.59,-30"/>
<polygon fill="#63b8ff" stroke="#63b8ff" points="264.58,-28.18 256.29,-21.58 258.65,-31.91 264.58,-28.18"/>
</a>
</g>
</g>
<!-- Node12 -->
<g id="Node000012" class="node">
<title>Node12</title>
<g id="a_Node000012"><a xlink:title=" ">
<polygon fill="#e0e0e0" stroke="#999999" points="349.5,-20 287.75,-20 287.75,0 349.5,0 349.5,-20"/>
<text text-anchor="middle" x="318.62" y="-6.5" font-family="Helvetica,sans-Serif" font-size="10.00">type_traits</text>
</a>
</g>
</g>
<!-- Node7&#45;&gt;Node12 -->
<g id="edge11_Node000007_Node000012" class="edge">
<title>Node7&#45;&gt;Node12</title>
<g id="a_edge11_Node000007_Node000012"><a xlink:title=" ">
<path fill="none" stroke="#63b8ff" d="M289.72,-55.59C294.34,-48.47 300.83,-38.45 306.49,-29.72"/>
<polygon fill="#63b8ff" stroke="#63b8ff" points="309.27,-31.86 311.78,-21.57 303.4,-28.06 309.27,-31.86"/>
</a>
</g>
</g>
<!-- Node13 -->
<g id="Node000013" class="node">
<title>Node13</title>
<g id="a_Node000013"><a xlink:title=" ">
<polygon fill="#e0e0e0" stroke="#999999" points="419.25,-20 368,-20 368,0 419.25,0 419.25,-20"/>
<text text-anchor="middle" x="393.62" y="-6.5" font-family="Helvetica,sans-Serif" font-size="10.00">memory</text>
</a>
</g>
</g>
<!-- Node7&#45;&gt;Node13 -->
<g id="edge12_Node000007_Node000013" class="edge">
<title>Node7&#45;&gt;Node13</title>
<g id="a_edge12_Node000007_Node000013"><a xlink:title=" ">
<path fill="none" stroke="#63b8ff" d="M302.79,-55.59C319.72,-47.28 344.67,-35.03 364.15,-25.47"/>
<polygon fill="#63b8ff" stroke="#63b8ff" points="365.52,-28.7 372.96,-21.15 362.44,-22.41 365.52,-28.7"/>
</a>
</g>
</g>
<!-- Node14 -->
<g id="Node000014" class="node">
<title>Node14</title>
<g id="a_Node000014"><a xlink:title=" ">
<polygon fill="#e0e0e0" stroke="#999999" points="476.25,-20 437,-20 437,0 476.25,0 476.25,-20"/>
<text text-anchor="middle" x="456.62" y="-6.5" font-family="Helvetica,sans-Serif" font-size="10.00">utility</text>
</a>
</g>
</g>
<!-- Node7&#45;&gt;Node14 -->
<g id="edge13_Node000007_Node000014" class="edge">
<title>Node7&#45;&gt;Node14</title>
<g id="a_edge13_Node000007_Node000014"><a xlink:title=" ">
<path fill="none" stroke="#63b8ff" d="M314.48,-55.52C341.62,-47.16 382.46,-34.54 425.94,-20.83"/>
<polygon fill="#63b8ff" stroke="#63b8ff" points="426.82,-24.22 435.3,-17.87 424.71,-17.55 426.82,-24.22"/>
</a>
</g>
</g>
<!-- Node15 -->
<g id="Node000015" class="node">
<title>Node15</title>
<g id="a_Node000015"><a xlink:title=" ">
<polygon fill="#e0e0e0" stroke="#999999" points="553,-20 494.25,-20 494.25,0 553,0 553,-20"/>
<text text-anchor="middle" x="523.62" y="-6.5" font-family="Helvetica,sans-Serif" font-size="10.00">stdexcept</text>
</a>
</g>
</g>
<!-- Node7&#45;&gt;Node15 -->
<g id="edge14_Node000007_Node000015" class="edge">
<title>Node7&#45;&gt;Node15</title>
<g id="a_edge14_Node000007_Node000015"><a xlink:title=" ">
<path fill="none" stroke="#63b8ff" d="M327.01,-55.51C365.54,-47.04 423.69,-34.17 482.73,-20.64"/>
<polygon fill="#63b8ff" stroke="#63b8ff" points="483.32,-24.1 492.29,-18.45 481.76,-17.28 483.32,-24.1"/>
</a>
</g>
</g>
<!-- Node16&#45;&gt;Node7 -->
<g id="edge16_Node000016_Node000007" class="edge">
<title>Node16&#45;&gt;Node7</title>
<g id="a_edge16_Node000016_Node000007"><a xlink:title=" ">
<path fill="none" stroke="#63b8ff" d="M253.9,-111.59C258.64,-104.47 265.32,-94.45 271.15,-85.72"/>
<polygon fill="#63b8ff" stroke="#63b8ff" points="273.95,-87.82 276.59,-77.56 268.13,-83.94 273.95,-87.82"/>
</a>
</g>
</g>
<!-- Node19 -->
<g id="Node000019" class="node">
<title>Node19</title>
<g id="a_Node000019"><a xlink:href="../../d4/d1a/vertex__pair_8hpp.html" target="_top" xlink:title="Vertex pair related type declarations.">
<polygon fill="white" stroke="#666666" points="336.25,-244 231,-244 231,-224 336.25,-224 336.25,-244"/>
<text text-anchor="middle" x="283.62" y="-230.5" font-family="Helvetica,sans-Serif" font-size="10.00">ogxx/vertex_pair.hpp</text>
</a>
</g>
</g>
<!-- Node18&#45;&gt;Node19 -->
<g id="edge19_Node000018_Node000019" class="edge">
<title>Node18&#45;&gt;Node19</title>
<g id="a_edge19_Node000018_Node000019"><a xlink:title=" ">
<path fill="none" stroke="#63b8ff" d="M278.67,-279.59C279.4,-273.01 280.41,-263.96 281.32,-255.73"/>
<polygon fill="#63b8ff" stroke="#63b8ff" points="284.8,-256.13 282.42,-245.8 277.84,-255.35 284.8,-256.13"/>
</a>
</g>
</g>
<!-- Node19&#45;&gt;Node7 -->
<g id="edge20_Node000019_Node000007" class="edge">
<title>Node19&#45;&gt;Node7</title>
<g id="a_edge20_Node000019_Node000007"><a xlink:title=" ">
<path fill="none" stroke="#63b8ff" d="M301.84,-223.51C314.46,-215.82 330.27,-203.69 337.62,-188 341.4,-179.95 339.35,-176.72 337.62,-168 331.42,-136.58 311.65,-104.72 297.84,-85.41"/>
<polygon fill="#63b8ff" stroke="#63b8ff" points="300.75,-83.46 291.98,-77.5 295.12,-87.62 300.75,-83.46"/>
</a>
</g>
</g>
<!-- Node20 -->
<g id="Node000020" class="node">
<title>Node20</title>
<g id="a_Node000020"><a xlink:href="../../db/d3e/iterable_8hpp.html" target="_top" xlink:title="Iterable interfaces.">
<polygon fill="white" stroke="#666666" points="328.75,-188 238.5,-188 238.5,-168 328.75,-168 328.75,-188"/>
<text text-anchor="middle" x="283.62" y="-174.5" font-family="Helvetica,sans-Serif" font-size="10.00">ogxx/iterable.hpp</text>
</a>
</g>
</g>
<!-- Node19&#45;&gt;Node20 -->
<g id="edge21_Node000019_Node000020" class="edge">
<title>Node19&#45;&gt;Node20</title>
<g id="a_edge21_Node000019_Node000020"><a xlink:title=" ">
<path fill="none" stroke="#63b8ff" d="M283.62,-223.59C283.62,-217.01 283.62,-207.96 283.62,-199.73"/>
<polygon fill="#63b8ff" stroke="#63b8ff" points="287.13,-199.81 283.63,-189.81 280.13,-199.81 287.13,-199.81"/>
</a>
</g>
</g>
<!-- Node20&#45;&gt;Node7 -->
<g id="edge22_Node000020_Node000007" class="edge">
<title>Node20&#45;&gt;Node7</title>
<g id="a_edge22_Node000020_Node000007"><a xlink:title=" ">
<path fill="none" stroke="#63b8ff" d="M288.31,-167.63C292.48,-158.72 298.28,-144.82 300.62,-132 303.45,-116.54 298.59,-99.34 293.35,-86.53"/>
<polygon fill="#63b8ff" stroke="#63b8ff" points="296.59,-85.2 289.27,-77.54 290.22,-88.09 296.59,-85.2"/>
</a>
</g>
</g>
<!-- Node20&#45;&gt;Node16 -->
<g id="edge23_Node000020_Node000016" class="edge">
<title>Node20&#45;&gt;Node16</title>
<g id="a_edge23_Node000020_Node000016"><a xlink:title=" ">
<path fill="none" stroke="#63b8ff" d="M277.35,-167.59C272.61,-160.47 265.93,-150.45 260.1,-141.72"/>
<polygon fill="#63b8ff" stroke="#63b8ff" points="263.12,-139.94 254.66,-133.56 257.3,-143.82 263.12,-139.94"/>
</a>
</g>
</g>
</g>
</svg>
