<?xml version="1.0" encoding="UTF-8" standalone="no"?>
<!DOCTYPE svg PUBLIC "-//W3C//DTD SVG 1.1//EN"
 "http://www.w3.org/Graphics/SVG/1.1/DTD/svg11.dtd">
<!-- Generated by graphviz version 9.0.0 (20230911.1827)
 -->
<!-- Title: ogxx::St_matrix&lt; ST &gt; Pages: 1 -->
<svg width="264pt" height="220pt"
 viewBox="0.00 0.00 264.12 220.00" xmlns="http://www.w3.org/2000/svg" xmlns:xlink="http://www.w3.org/1999/xlink">
<g id="graph0" class="graph" transform="scale(1 1) rotate(0) translate(4 216)">
<title>ogxx::St_matrix&lt; ST &gt;</title>
<!-- Node1 -->
<g id="Node000001" class="node">
<title>Node1</title>
<g id="a_Node000001"><a xlink:title="Simple type matrix interface. Iterating the matrix means going through all its elements in row&#45;major ...">
<polygon fill="#999999" stroke="#666666" points="183.75,-88 68.75,-88 68.75,-68 183.75,-68 183.75,-88"/>
<text text-anchor="middle" x="126.25" y="-74.5" font-family="Helvetica,sans-Serif" font-size="10.00">ogxx::St_matrix&lt; ST &gt;</text>
</a>
</g>
</g>
<!-- Node5 -->
<g id="Node000005" class="node">
<title>Node5</title>
<g id="a_Node000005"><a xlink:href="../../dd/d0b/classogxx_1_1_dense__st__matrix.html" target="_top" xlink:title=" ">
<polygon fill="white" stroke="#666666" points="116.5,-32 0,-32 0,0 116.5,0 116.5,-32"/>
<text text-anchor="start" x="8" y="-18.5" font-family="Helvetica,sans-Serif" font-size="10.00">ogxx::Dense_st_matrix</text>
<text text-anchor="middle" x="58.25" y="-6.5" font-family="Helvetica,sans-Serif" font-size="10.00">&lt; ST &gt;</text>
</a>
</g>
</g>
<!-- Node1&#45;&gt;Node5 -->
<g id="edge4_Node000001_Node000005" class="edge">
<title>Node1&#45;&gt;Node5</title>
<g id="a_edge4_Node000001_Node000005"><a xlink:title=" ">
<path fill="none" stroke="#63b8ff" d="M101.72,-60.72C90.7,-51.82 78.32,-40.86 69.46,-32.14"/>
<polygon fill="#63b8ff" stroke="#63b8ff" points="99.33,-63.3 109.37,-66.69 103.64,-57.78 99.33,-63.3"/>
</a>
</g>
</g>
<!-- Node1&#45;&gt;Node5 -->
<g id="edge5_Node000001_Node000005" class="edge">
<title>Node1&#45;&gt;Node5</title>
<g id="a_edge5_Node000001_Node000005"><a xlink:title=" ">
<path fill="none" stroke="#63b8ff" d="M112.83,-59.71C103.87,-51.08 92.07,-40.72 81.65,-32.37"/>
<polygon fill="#63b8ff" stroke="#63b8ff" points="110.09,-61.92 119.62,-66.55 115.06,-56.99 110.09,-61.92"/>
</a>
</g>
</g>
<!-- Node6 -->
<g id="Node000006" class="node">
<title>Node6</title>
<g id="a_Node000006"><a xlink:href="../../d6/dea/classogxx_1_1_symmetric__dense__st__matrix.html" target="_top" xlink:title="A class that represents a symmetric matrix in dense storage format.">
<polygon fill="white" stroke="#666666" points="256.12,-32 134.38,-32 134.38,0 256.12,0 256.12,-32"/>
<text text-anchor="start" x="142.38" y="-18.5" font-family="Helvetica,sans-Serif" font-size="10.00">ogxx::Symmetric_dense</text>
<text text-anchor="middle" x="195.25" y="-6.5" font-family="Helvetica,sans-Serif" font-size="10.00">_st_matrix&lt; ST &gt;</text>
</a>
</g>
</g>
<!-- Node1&#45;&gt;Node6 -->
<g id="edge6_Node000001_Node000006" class="edge">
<title>Node1&#45;&gt;Node6</title>
<g id="a_edge6_Node000001_Node000006"><a xlink:title=" ">
<path fill="none" stroke="#63b8ff" d="M139.96,-59.71C149.06,-51.08 161.03,-40.72 171.59,-32.37"/>
<polygon fill="#63b8ff" stroke="#63b8ff" points="137.68,-57.03 133.04,-66.56 142.61,-62.01 137.68,-57.03"/>
</a>
</g>
</g>
<!-- Node1&#45;&gt;Node6 -->
<g id="edge7_Node000001_Node000006" class="edge">
<title>Node1&#45;&gt;Node6</title>
<g id="a_edge7_Node000001_Node000006"><a xlink:title=" ">
<path fill="none" stroke="#63b8ff" d="M151.05,-60.72C162.22,-51.82 174.78,-40.86 183.79,-32.14"/>
<polygon fill="#63b8ff" stroke="#63b8ff" points="149.08,-57.82 143.29,-66.7 153.35,-63.37 149.08,-57.82"/>
</a>
</g>
</g>
<!-- Node2 -->
<g id="Node000002" class="node">
<title>Node2</title>
<g id="a_Node000002"><a xlink:href="../../d0/d06/classogxx_1_1_matrix__base.html" target="_top" xlink:title="Common matrix function independent of matrix item type.">
<polygon fill="white" stroke="#666666" points="115.38,-150 19.12,-150 19.12,-130 115.38,-130 115.38,-150"/>
<text text-anchor="middle" x="67.25" y="-136.5" font-family="Helvetica,sans-Serif" font-size="10.00">ogxx::Matrix_base</text>
</a>
</g>
</g>
<!-- Node2&#45;&gt;Node1 -->
<g id="edge1_Node000001_Node000002" class="edge">
<title>Node2&#45;&gt;Node1</title>
<g id="a_edge1_Node000001_Node000002"><a xlink:title=" ">
<path fill="none" stroke="#63b8ff" d="M84.38,-121.58C95.14,-110.63 108.58,-96.97 117.29,-88.11"/>
<polygon fill="#63b8ff" stroke="#63b8ff" points="82.05,-118.96 77.53,-128.55 87.04,-123.87 82.05,-118.96"/>
</a>
</g>
</g>
<!-- Node3 -->
<g id="Node000003" class="node">
<title>Node3</title>
<g id="a_Node000003"><a xlink:href="../../d9/d72/classogxx_1_1_sized__iterable.html" target="_top" xlink:title=" ">
<polygon fill="white" stroke="#666666" points="237.5,-156 133,-156 133,-124 237.5,-124 237.5,-156"/>
<text text-anchor="start" x="141" y="-142.5" font-family="Helvetica,sans-Serif" font-size="10.00">ogxx::Sized_iterable</text>
<text text-anchor="middle" x="185.25" y="-130.5" font-family="Helvetica,sans-Serif" font-size="10.00">&lt; ST &gt;</text>
</a>
</g>
</g>
<!-- Node3&#45;&gt;Node1 -->
<g id="edge2_Node000001_Node000003" class="edge">
<title>Node3&#45;&gt;Node1</title>
<g id="a_edge2_Node000001_Node000003"><a xlink:title=" ">
<path fill="none" stroke="#63b8ff" d="M162.2,-115.56C152.88,-106.08 142.65,-95.68 135.5,-88.41"/>
<polygon fill="#63b8ff" stroke="#63b8ff" points="159.49,-117.79 168.99,-122.47 164.48,-112.89 159.49,-117.79"/>
</a>
</g>
</g>
<!-- Node4 -->
<g id="Node000004" class="node">
<title>Node4</title>
<g id="a_Node000004"><a xlink:href="../../d8/d9b/classogxx_1_1_iterable.html" target="_top" xlink:title="An interface for an object that can be iterated with an iterator.">
<polygon fill="white" stroke="#666666" points="240.88,-212 129.62,-212 129.62,-192 240.88,-192 240.88,-212"/>
<text text-anchor="middle" x="185.25" y="-198.5" font-family="Helvetica,sans-Serif" font-size="10.00">ogxx::Iterable&lt; Item &gt;</text>
</a>
</g>
</g>
<!-- Node4&#45;&gt;Node3 -->
<g id="edge3_Node000003_Node000004" class="edge">
<title>Node4&#45;&gt;Node3</title>
<g id="a_edge3_Node000003_Node000004"><a xlink:title=" ">
<path fill="none" stroke="#63b8ff" d="M185.25,-180.31C185.25,-172.37 185.25,-163.46 185.25,-156.14"/>
<polygon fill="#63b8ff" stroke="#63b8ff" points="181.75,-180.11 185.25,-190.11 188.75,-180.11 181.75,-180.11"/>
</a>
</g>
</g>
</g>
</svg>
