<?xml version="1.0" encoding="UTF-8" standalone="no"?>
<!DOCTYPE svg PUBLIC "-//W3C//DTD SVG 1.1//EN"
 "http://www.w3.org/Graphics/SVG/1.1/DTD/svg11.dtd">
<!-- Generated by graphviz version 9.0.0 (20230911.1827)
 -->
<!-- Title: ogxx::Iterable&lt; Item &gt; Pages: 1 -->
<svg width="892pt" height="582pt"
 viewBox="0.00 0.00 892.25 582.00" xmlns="http://www.w3.org/2000/svg" xmlns:xlink="http://www.w3.org/1999/xlink">
<g id="graph0" class="graph" transform="scale(1 1) rotate(0) translate(4 578)">
<title>ogxx::Iterable&lt; Item &gt;</title>
<!-- Node1 -->
<g id="Node000001" class="node">
<title>Node1</title>
<g id="a_Node000001"><a xlink:title="An interface for an object that can be iterated with an iterator.">
<polygon fill="#999999" stroke="#666666" points="111.25,-411 0,-411 0,-391 111.25,-391 111.25,-411"/>
<text text-anchor="middle" x="55.62" y="-397.5" font-family="Helvetica,sans-Serif" font-size="10.00">ogxx::Iterable&lt; Item &gt;</text>
</a>
</g>
</g>
<!-- Node2 -->
<g id="Node000002" class="node">
<title>Node2</title>
<g id="a_Node000002"><a xlink:href="../../d9/d72/classogxx_1_1_sized__iterable.html" target="_top" xlink:title=" ">
<polygon fill="white" stroke="#666666" points="251.75,-542 147.25,-542 147.25,-510 251.75,-510 251.75,-542"/>
<text text-anchor="start" x="155.25" y="-528.5" font-family="Helvetica,sans-Serif" font-size="10.00">ogxx::Sized_iterable</text>
<text text-anchor="middle" x="199.5" y="-516.5" font-family="Helvetica,sans-Serif" font-size="10.00">&lt; Scalar_index &gt;</text>
</a>
</g>
</g>
<!-- Node1&#45;&gt;Node2 -->
<g id="edge1_Node000001_Node000002" class="edge">
<title>Node1&#45;&gt;Node2</title>
<g id="a_edge1_Node000001_Node000002"><a xlink:title=" ">
<path fill="none" stroke="#63b8ff" d="M70.64,-420.49C87.07,-442.27 116.04,-477.56 147.25,-501 151.37,-504.09 155.92,-506.96 160.58,-509.56"/>
<polygon fill="#63b8ff" stroke="#63b8ff" points="73.48,-418.44 64.72,-412.47 67.84,-422.59 73.48,-418.44"/>
</a>
</g>
</g>
<!-- Node6 -->
<g id="Node000006" class="node">
<title>Node6</title>
<g id="a_Node000006"><a xlink:href="../../d9/d72/classogxx_1_1_sized__iterable.html" target="_top" xlink:title=" ">
<polygon fill="white" stroke="#666666" points="251.75,-492 147.25,-492 147.25,-460 251.75,-460 251.75,-492"/>
<text text-anchor="start" x="155.25" y="-478.5" font-family="Helvetica,sans-Serif" font-size="10.00">ogxx::Sized_iterable</text>
<text text-anchor="middle" x="199.5" y="-466.5" font-family="Helvetica,sans-Serif" font-size="10.00">&lt; Adjacency &gt;</text>
</a>
</g>
</g>
<!-- Node1&#45;&gt;Node6 -->
<g id="edge5_Node000001_Node000006" class="edge">
<title>Node1&#45;&gt;Node6</title>
<g id="a_edge5_Node000001_Node000006"><a xlink:title=" ">
<path fill="none" stroke="#63b8ff" d="M84.88,-417.07C102.66,-427.06 126.15,-440.04 147.25,-451 152.7,-453.83 158.51,-456.75 164.2,-459.56"/>
<polygon fill="#63b8ff" stroke="#63b8ff" points="86.62,-414.03 76.2,-412.17 83.18,-420.13 86.62,-414.03"/>
</a>
</g>
</g>
<!-- Node7 -->
<g id="Node000007" class="node">
<title>Node7</title>
<g id="a_Node000007"><a xlink:href="../../d9/d72/classogxx_1_1_sized__iterable.html" target="_top" xlink:title=" ">
<polygon fill="white" stroke="#666666" points="251.75,-442 147.25,-442 147.25,-410 251.75,-410 251.75,-442"/>
<text text-anchor="start" x="155.25" y="-428.5" font-family="Helvetica,sans-Serif" font-size="10.00">ogxx::Sized_iterable</text>
<text text-anchor="middle" x="199.5" y="-416.5" font-family="Helvetica,sans-Serif" font-size="10.00">&lt; bool &gt;</text>
</a>
</g>
</g>
<!-- Node1&#45;&gt;Node7 -->
<g id="edge6_Node000001_Node000007" class="edge">
<title>Node1&#45;&gt;Node7</title>
<g id="a_edge6_Node000001_Node000007"><a xlink:title=" ">
<path fill="none" stroke="#63b8ff" d="M122.58,-412.62C130.8,-414.07 139.1,-415.53 147.05,-416.93"/>
<polygon fill="#63b8ff" stroke="#63b8ff" points="123.42,-409.22 112.97,-410.93 122.21,-416.11 123.42,-409.22"/>
</a>
</g>
</g>
<!-- Node11 -->
<g id="Node000011" class="node">
<title>Node11</title>
<g id="a_Node000011"><a xlink:href="../../d9/d72/classogxx_1_1_sized__iterable.html" target="_top" xlink:title=" ">
<polygon fill="white" stroke="#666666" points="251.75,-392 147.25,-392 147.25,-360 251.75,-360 251.75,-392"/>
<text text-anchor="start" x="155.25" y="-378.5" font-family="Helvetica,sans-Serif" font-size="10.00">ogxx::Sized_iterable</text>
<text text-anchor="middle" x="199.5" y="-366.5" font-family="Helvetica,sans-Serif" font-size="10.00">&lt; Vertex_pair &gt;</text>
</a>
</g>
</g>
<!-- Node1&#45;&gt;Node11 -->
<g id="edge12_Node000001_Node000011" class="edge">
<title>Node1&#45;&gt;Node11</title>
<g id="a_edge12_Node000001_Node000011"><a xlink:title=" ">
<path fill="none" stroke="#63b8ff" d="M122.58,-389.38C130.8,-387.93 139.1,-386.47 147.05,-385.07"/>
<polygon fill="#63b8ff" stroke="#63b8ff" points="122.21,-385.89 112.97,-391.07 123.42,-392.78 122.21,-385.89"/>
</a>
</g>
</g>
<!-- Node12 -->
<g id="Node000012" class="node">
<title>Node12</title>
<g id="a_Node000012"><a xlink:href="../../d9/d72/classogxx_1_1_sized__iterable.html" target="_top" xlink:title=" ">
<polygon fill="white" stroke="#666666" points="251.75,-342 147.25,-342 147.25,-310 251.75,-310 251.75,-342"/>
<text text-anchor="start" x="155.25" y="-328.5" font-family="Helvetica,sans-Serif" font-size="10.00">ogxx::Sized_iterable</text>
<text text-anchor="middle" x="199.5" y="-316.5" font-family="Helvetica,sans-Serif" font-size="10.00">&lt; ST &gt;</text>
</a>
</g>
</g>
<!-- Node1&#45;&gt;Node12 -->
<g id="edge13_Node000001_Node000012" class="edge">
<title>Node1&#45;&gt;Node12</title>
<g id="a_edge13_Node000001_Node000012"><a xlink:title=" ">
<path fill="none" stroke="#63b8ff" d="M84.88,-384.93C102.66,-374.94 126.15,-361.96 147.25,-351 152.7,-348.17 158.51,-345.25 164.2,-342.44"/>
<polygon fill="#63b8ff" stroke="#63b8ff" points="83.18,-381.87 76.2,-389.83 86.62,-387.97 83.18,-381.87"/>
</a>
</g>
</g>
<!-- Node16 -->
<g id="Node000016" class="node">
<title>Node16</title>
<g id="a_Node000016"><a xlink:href="../../d9/d72/classogxx_1_1_sized__iterable.html" target="_top" xlink:title="Not only iterable but we know in advance, how many items it contains.">
<polygon fill="white" stroke="#666666" points="251.75,-204 147.25,-204 147.25,-172 251.75,-172 251.75,-204"/>
<text text-anchor="start" x="155.25" y="-190.5" font-family="Helvetica,sans-Serif" font-size="10.00">ogxx::Sized_iterable</text>
<text text-anchor="middle" x="199.5" y="-178.5" font-family="Helvetica,sans-Serif" font-size="10.00">&lt; Item &gt;</text>
</a>
</g>
</g>
<!-- Node1&#45;&gt;Node16 -->
<g id="edge19_Node000001_Node000016" class="edge">
<title>Node1&#45;&gt;Node16</title>
<g id="a_edge19_Node000001_Node000016"><a xlink:title=" ">
<path fill="none" stroke="#63b8ff" d="M69.7,-381.38C97.48,-339.66 161.99,-242.82 187.67,-204.26"/>
<polygon fill="#63b8ff" stroke="#63b8ff" points="66.94,-379.2 64.31,-389.47 72.76,-383.08 66.94,-379.2"/>
</a>
</g>
</g>
<!-- Node3 -->
<g id="Node000003" class="node">
<title>Node3</title>
<g id="a_Node000003"><a xlink:href="../../d4/de1/classogxx_1_1_adjacency.html" target="_top" xlink:title="Representation of adjacent vertices of a vertex of a graph. Vertex degree is the size of the adjacenc...">
<polygon fill="white" stroke="#666666" points="398.25,-574 309.5,-574 309.5,-554 398.25,-554 398.25,-574"/>
<text text-anchor="middle" x="353.88" y="-560.5" font-family="Helvetica,sans-Serif" font-size="10.00">ogxx::Adjacency</text>
</a>
</g>
</g>
<!-- Node2&#45;&gt;Node3 -->
<g id="edge2_Node000002_Node000003" class="edge">
<title>Node2&#45;&gt;Node3</title>
<g id="a_edge2_Node000002_Node000003"><a xlink:title=" ">
<path fill="none" stroke="#63b8ff" d="M263.08,-541.61C279.2,-545.63 296.16,-549.86 310.95,-553.54"/>
<polygon fill="#63b8ff" stroke="#63b8ff" points="264.11,-538.26 253.56,-539.23 262.41,-545.05 264.11,-538.26"/>
</a>
</g>
</g>
<!-- Node4 -->
<g id="Node000004" class="node">
<title>Node4</title>
<g id="a_Node000004"><a xlink:href="../../dc/d31/classogxx_1_1_index__set__bitvector.html" target="_top" xlink:title=" ">
<polygon fill="white" stroke="#666666" points="417,-536 290.75,-536 290.75,-516 417,-516 417,-536"/>
<text text-anchor="middle" x="353.88" y="-522.5" font-family="Helvetica,sans-Serif" font-size="10.00">ogxx::Index_set_bitvector</text>
</a>
</g>
</g>
<!-- Node2&#45;&gt;Node4 -->
<g id="edge3_Node000002_Node000004" class="edge">
<title>Node2&#45;&gt;Node4</title>
<g id="a_edge3_Node000002_Node000004"><a xlink:title=" ">
<path fill="none" stroke="#63b8ff" d="M263.52,-526C272.35,-526 281.43,-526 290.25,-526"/>
<polygon fill="#63b8ff" stroke="#63b8ff" points="263.6,-522.5 253.6,-526 263.6,-529.5 263.6,-522.5"/>
</a>
</g>
</g>
<!-- Node5 -->
<g id="Node000005" class="node">
<title>Node5</title>
<g id="a_Node000005"><a xlink:href="../../d4/d22/classogxx_1_1_index__set__hashtable.html" target="_top" xlink:title=" ">
<polygon fill="white" stroke="#666666" points="420,-498 287.75,-498 287.75,-478 420,-478 420,-498"/>
<text text-anchor="middle" x="353.88" y="-484.5" font-family="Helvetica,sans-Serif" font-size="10.00">ogxx::Index_set_hashtable</text>
</a>
</g>
</g>
<!-- Node2&#45;&gt;Node5 -->
<g id="edge4_Node000002_Node000005" class="edge">
<title>Node2&#45;&gt;Node5</title>
<g id="a_edge4_Node000002_Node000005"><a xlink:title=" ">
<path fill="none" stroke="#63b8ff" d="M263.08,-510.39C279.2,-506.37 296.16,-502.14 310.95,-498.46"/>
<polygon fill="#63b8ff" stroke="#63b8ff" points="262.41,-506.95 253.56,-512.77 264.11,-513.74 262.41,-506.95"/>
</a>
</g>
</g>
<!-- Node8 -->
<g id="Node000008" class="node">
<title>Node8</title>
<g id="a_Node000008"><a xlink:href="../../d4/def/classogxx_1_1_bit__matrix.html" target="_top" xlink:title="Bit matrix interface. Iterating the matrix means going through all its elements in row&#45;major order.">
<polygon fill="white" stroke="#666666" points="397.5,-436 310.25,-436 310.25,-416 397.5,-416 397.5,-436"/>
<text text-anchor="middle" x="353.88" y="-422.5" font-family="Helvetica,sans-Serif" font-size="10.00">ogxx::Bit_matrix</text>
</a>
</g>
</g>
<!-- Node7&#45;&gt;Node8 -->
<g id="edge7_Node000007_Node000008" class="edge">
<title>Node7&#45;&gt;Node8</title>
<g id="a_edge7_Node000007_Node000008"><a xlink:title=" ">
<path fill="none" stroke="#63b8ff" d="M263.33,-426C279.02,-426 295.49,-426 309.96,-426"/>
<polygon fill="#63b8ff" stroke="#63b8ff" points="263.6,-422.5 253.6,-426 263.6,-429.5 263.6,-422.5"/>
</a>
</g>
</g>
<!-- Node9 -->
<g id="Node000009" class="node">
<title>Node9</title>
<g id="a_Node000009"><a xlink:href="../../dc/d59/classogxx_1_1_dense__bit__matrix.html" target="_top" xlink:title=" ">
<polygon fill="white" stroke="#666666" points="586.75,-434 468,-434 468,-414 586.75,-414 586.75,-434"/>
<text text-anchor="middle" x="527.38" y="-420.5" font-family="Helvetica,sans-Serif" font-size="10.00">ogxx::Dense_bit_matrix</text>
</a>
</g>
</g>
<!-- Node8&#45;&gt;Node9 -->
<g id="edge8_Node000008_Node000009" class="edge">
<title>Node8&#45;&gt;Node9</title>
<g id="a_edge8_Node000008_Node000009"><a xlink:title=" ">
<path fill="none" stroke="#63b8ff" d="M408.98,-419.05C427.63,-418.3 448.6,-418.02 467.61,-418.24"/>
<polygon fill="#63b8ff" stroke="#63b8ff" points="409.05,-415.54 399.22,-419.5 409.37,-422.53 409.05,-415.54"/>
</a>
</g>
</g>
<!-- Node8&#45;&gt;Node9 -->
<g id="edge9_Node000008_Node000009" class="edge">
<title>Node8&#45;&gt;Node9</title>
<g id="a_edge9_Node000008_Node000009"><a xlink:title=" ">
<path fill="none" stroke="#63b8ff" d="M408.98,-431.69C427.63,-432 448.6,-431.8 467.61,-431.13"/>
<polygon fill="#63b8ff" stroke="#63b8ff" points="409.3,-428.2 399.22,-431.47 409.14,-435.2 409.3,-428.2"/>
</a>
</g>
</g>
<!-- Node10 -->
<g id="Node000010" class="node">
<title>Node10</title>
<g id="a_Node000010"><a xlink:href="../../d0/dec/classogxx_1_1_symmetric__dense__bit__matrix.html" target="_top" xlink:title="Symmetric dense bit matrix stores only one half without the main diagonal.">
<polygon fill="white" stroke="#666666" points="588.25,-484 466.5,-484 466.5,-452 588.25,-452 588.25,-484"/>
<text text-anchor="start" x="474.5" y="-470.5" font-family="Helvetica,sans-Serif" font-size="10.00">ogxx::Symmetric_dense</text>
<text text-anchor="middle" x="527.38" y="-458.5" font-family="Helvetica,sans-Serif" font-size="10.00">_bit_matrix</text>
</a>
</g>
</g>
<!-- Node8&#45;&gt;Node10 -->
<g id="edge10_Node000008_Node000010" class="edge">
<title>Node8&#45;&gt;Node10</title>
<g id="a_edge10_Node000008_Node000010"><a xlink:title=" ">
<path fill="none" stroke="#63b8ff" d="M408.82,-432.89C432.9,-438.11 460.87,-445.09 483.49,-451.56"/>
<polygon fill="#63b8ff" stroke="#63b8ff" points="409.7,-429.5 399.19,-430.87 408.26,-436.35 409.7,-429.5"/>
</a>
</g>
</g>
<!-- Node8&#45;&gt;Node10 -->
<g id="edge11_Node000008_Node000010" class="edge">
<title>Node8&#45;&gt;Node10</title>
<g id="a_edge11_Node000008_Node000010"><a xlink:title=" ">
<path fill="none" stroke="#63b8ff" d="M388.8,-439.81C410.82,-446.42 440.14,-453.93 466.06,-459.71"/>
<polygon fill="#63b8ff" stroke="#63b8ff" points="390.04,-436.53 379.45,-436.9 387.96,-443.22 390.04,-436.53"/>
</a>
</g>
</g>
<!-- Node13 -->
<g id="Node000013" class="node">
<title>Node13</title>
<g id="a_Node000013"><a xlink:href="../../da/dce/classogxx_1_1_st__matrix.html" target="_top" xlink:title="Simple type matrix interface. Iterating the matrix means going through all its elements in row&#45;major ...">
<polygon fill="white" stroke="#666666" points="411.38,-337 296.38,-337 296.38,-317 411.38,-317 411.38,-337"/>
<text text-anchor="middle" x="353.88" y="-323.5" font-family="Helvetica,sans-Serif" font-size="10.00">ogxx::St_matrix&lt; ST &gt;</text>
</a>
</g>
</g>
<!-- Node12&#45;&gt;Node13 -->
<g id="edge14_Node000012_Node000013" class="edge">
<title>Node12&#45;&gt;Node13</title>
<g id="a_edge14_Node000012_Node000013"><a xlink:title=" ">
<path fill="none" stroke="#63b8ff" d="M263.6,-326.41C274.37,-326.48 285.51,-326.56 296.11,-326.63"/>
<polygon fill="#63b8ff" stroke="#63b8ff" points="263.62,-322.91 253.6,-326.35 263.58,-329.91 263.62,-322.91"/>
</a>
</g>
</g>
<!-- Node14 -->
<g id="Node000014" class="node">
<title>Node14</title>
<g id="a_Node000014"><a xlink:href="../../dd/d0b/classogxx_1_1_dense__st__matrix.html" target="_top" xlink:title=" ">
<polygon fill="white" stroke="#666666" points="585.62,-343 469.12,-343 469.12,-311 585.62,-311 585.62,-343"/>
<text text-anchor="start" x="477.12" y="-329.5" font-family="Helvetica,sans-Serif" font-size="10.00">ogxx::Dense_st_matrix</text>
<text text-anchor="middle" x="527.38" y="-317.5" font-family="Helvetica,sans-Serif" font-size="10.00">&lt; ST &gt;</text>
</a>
</g>
</g>
<!-- Node13&#45;&gt;Node14 -->
<g id="edge15_Node000013_Node000014" class="edge">
<title>Node13&#45;&gt;Node14</title>
<g id="a_edge15_Node000013_Node000014"><a xlink:title=" ">
<path fill="none" stroke="#63b8ff" d="M422.9,-320.38C438.04,-320.16 453.95,-320.22 468.63,-320.58"/>
<polygon fill="#63b8ff" stroke="#63b8ff" points="422.95,-316.88 413.02,-320.58 423.09,-323.88 422.95,-316.88"/>
</a>
</g>
</g>
<!-- Node13&#45;&gt;Node14 -->
<g id="edge16_Node000013_Node000014" class="edge">
<title>Node13&#45;&gt;Node14</title>
<g id="a_edge16_Node000013_Node000014"><a xlink:title=" ">
<path fill="none" stroke="#63b8ff" d="M422.9,-333.62C438.04,-333.84 453.95,-333.78 468.63,-333.42"/>
<polygon fill="#63b8ff" stroke="#63b8ff" points="423.09,-330.12 413.02,-333.42 422.95,-337.12 423.09,-330.12"/>
</a>
</g>
</g>
<!-- Node15 -->
<g id="Node000015" class="node">
<title>Node15</title>
<g id="a_Node000015"><a xlink:href="../../d6/dea/classogxx_1_1_symmetric__dense__st__matrix.html" target="_top" xlink:title="A class that represents a symmetric matrix in dense storage format.">
<polygon fill="white" stroke="#666666" points="588.25,-393 466.5,-393 466.5,-361 588.25,-361 588.25,-393"/>
<text text-anchor="start" x="474.5" y="-379.5" font-family="Helvetica,sans-Serif" font-size="10.00">ogxx::Symmetric_dense</text>
<text text-anchor="middle" x="527.38" y="-367.5" font-family="Helvetica,sans-Serif" font-size="10.00">_st_matrix&lt; ST &gt;</text>
</a>
</g>
</g>
<!-- Node13&#45;&gt;Node15 -->
<g id="edge17_Node000013_Node000015" class="edge">
<title>Node13&#45;&gt;Node15</title>
<g id="a_edge17_Node000013_Node000015"><a xlink:title=" ">
<path fill="none" stroke="#63b8ff" d="M422.54,-340.11C445.36,-346.42 469.97,-353.91 489.5,-360.59"/>
<polygon fill="#63b8ff" stroke="#63b8ff" points="423.53,-336.76 412.97,-337.52 421.7,-343.51 423.53,-336.76"/>
</a>
</g>
</g>
<!-- Node13&#45;&gt;Node15 -->
<g id="edge18_Node000013_Node000015" class="edge">
<title>Node13&#45;&gt;Node15</title>
<g id="a_edge18_Node000013_Node000015"><a xlink:title=" ">
<path fill="none" stroke="#63b8ff" d="M385.77,-341.34C408.16,-349.23 439.14,-358.64 466.32,-365.97"/>
<polygon fill="#63b8ff" stroke="#63b8ff" points="387.24,-338.15 376.64,-338.01 384.84,-344.72 387.24,-338.15"/>
</a>
</g>
</g>
<!-- Node17 -->
<g id="Node000017" class="node">
<title>Node17</title>
<g id="a_Node000017"><a xlink:href="../../d2/d24/classogxx_1_1_bag.html" target="_top" xlink:title=" ">
<polygon fill="white" stroke="#666666" points="415.88,-258 291.88,-258 291.88,-238 415.88,-238 415.88,-258"/>
<text text-anchor="middle" x="353.88" y="-244.5" font-family="Helvetica,sans-Serif" font-size="10.00">ogxx::Bag&lt; Adjacency &gt;</text>
</a>
</g>
</g>
<!-- Node16&#45;&gt;Node17 -->
<g id="edge20_Node000016_Node000017" class="edge">
<title>Node16&#45;&gt;Node17</title>
<g id="a_edge20_Node000016_Node000017"><a xlink:title=" ">
<path fill="none" stroke="#63b8ff" d="M242.28,-209.25C256.51,-216.05 272.63,-223.28 287.75,-229 295.9,-232.08 304.78,-234.97 313.29,-237.52"/>
<polygon fill="#63b8ff" stroke="#63b8ff" points="244.19,-206.28 233.67,-205.06 241.13,-212.58 244.19,-206.28"/>
</a>
</g>
</g>
<!-- Node18 -->
<g id="Node000018" class="node">
<title>Node18</title>
<g id="a_Node000018"><a xlink:href="../../d2/d24/classogxx_1_1_bag.html" target="_top" xlink:title=" ">
<polygon fill="white" stroke="#666666" points="417.75,-296 290,-296 290,-276 417.75,-276 417.75,-296"/>
<text text-anchor="middle" x="353.88" y="-282.5" font-family="Helvetica,sans-Serif" font-size="10.00">ogxx::Bag&lt; Vertex_pair &gt;</text>
</a>
</g>
</g>
<!-- Node16&#45;&gt;Node18 -->
<g id="edge21_Node000016_Node000018" class="edge">
<title>Node16&#45;&gt;Node18</title>
<g id="a_edge21_Node000016_Node000018"><a xlink:title=" ">
<path fill="none" stroke="#63b8ff" d="M221.7,-212.38C238.13,-229.87 262.31,-252.77 287.75,-267 293.82,-270.39 300.54,-273.23 307.31,-275.59"/>
<polygon fill="#63b8ff" stroke="#63b8ff" points="224.65,-210.41 215.31,-205.4 219.49,-215.14 224.65,-210.41"/>
</a>
</g>
</g>
<!-- Node20 -->
<g id="Node000020" class="node">
<title>Node20</title>
<g id="a_Node000020"><a xlink:href="../../d2/d20/classogxx_1_1_indexed__iterable.html" target="_top" xlink:title=" ">
<polygon fill="white" stroke="#666666" points="410.62,-182 297.12,-182 297.12,-150 410.62,-150 410.62,-182"/>
<text text-anchor="start" x="305.12" y="-168.5" font-family="Helvetica,sans-Serif" font-size="10.00">ogxx::Indexed_iterable</text>
<text text-anchor="middle" x="353.88" y="-156.5" font-family="Helvetica,sans-Serif" font-size="10.00">&lt; Adjacency &gt;</text>
</a>
</g>
</g>
<!-- Node16&#45;&gt;Node20 -->
<g id="edge23_Node000016_Node000020" class="edge">
<title>Node16&#45;&gt;Node20</title>
<g id="a_edge23_Node000016_Node000020"><a xlink:title=" ">
<path fill="none" stroke="#63b8ff" d="M263.39,-178.92C274.41,-177.33 285.81,-175.68 296.64,-174.12"/>
<polygon fill="#63b8ff" stroke="#63b8ff" points="262.98,-175.44 253.59,-180.34 263.98,-182.37 262.98,-175.44"/>
</a>
</g>
</g>
<!-- Node21 -->
<g id="Node000021" class="node">
<title>Node21</title>
<g id="a_Node000021"><a xlink:href="../../d2/d20/classogxx_1_1_indexed__iterable.html" target="_top" xlink:title=" ">
<polygon fill="white" stroke="#666666" points="410.62,-32 297.12,-32 297.12,0 410.62,0 410.62,-32"/>
<text text-anchor="start" x="305.12" y="-18.5" font-family="Helvetica,sans-Serif" font-size="10.00">ogxx::Indexed_iterable</text>
<text text-anchor="middle" x="353.88" y="-6.5" font-family="Helvetica,sans-Serif" font-size="10.00">&lt; Scalar_index &gt;</text>
</a>
</g>
</g>
<!-- Node16&#45;&gt;Node21 -->
<g id="edge24_Node000016_Node000021" class="edge">
<title>Node16&#45;&gt;Node21</title>
<g id="a_edge24_Node000016_Node000021"><a xlink:title=" ">
<path fill="none" stroke="#63b8ff" d="M209.97,-161.4C222.84,-128.8 248.79,-73.87 287.75,-41 291.64,-37.72 296,-34.84 300.58,-32.33"/>
<polygon fill="#63b8ff" stroke="#63b8ff" points="206.79,-159.92 206.51,-170.51 213.33,-162.4 206.79,-159.92"/>
</a>
</g>
</g>
<!-- Node23 -->
<g id="Node000023" class="node">
<title>Node23</title>
<g id="a_Node000023"><a xlink:href="../../d2/d20/classogxx_1_1_indexed__iterable.html" target="_top" xlink:title=" ">
<polygon fill="white" stroke="#666666" points="410.62,-82 297.12,-82 297.12,-50 410.62,-50 410.62,-82"/>
<text text-anchor="start" x="305.12" y="-68.5" font-family="Helvetica,sans-Serif" font-size="10.00">ogxx::Indexed_iterable</text>
<text text-anchor="middle" x="353.88" y="-56.5" font-family="Helvetica,sans-Serif" font-size="10.00">&lt; Vertex_pair &gt;</text>
</a>
</g>
</g>
<!-- Node16&#45;&gt;Node23 -->
<g id="edge26_Node000016_Node000023" class="edge">
<title>Node16&#45;&gt;Node23</title>
<g id="a_edge26_Node000016_Node000023"><a xlink:title=" ">
<path fill="none" stroke="#63b8ff" d="M218.03,-162.54C234.02,-140.95 259.43,-110.48 287.75,-91 292.34,-87.84 297.38,-85.01 302.57,-82.5"/>
<polygon fill="#63b8ff" stroke="#63b8ff" points="215.27,-160.38 212.25,-170.53 220.95,-164.47 215.27,-160.38"/>
</a>
</g>
</g>
<!-- Node24 -->
<g id="Node000024" class="node">
<title>Node24</title>
<g id="a_Node000024"><a xlink:href="../../d2/d24/classogxx_1_1_bag.html" target="_top" xlink:title="Generic container interface with inserts and erases but no fixed ordering of items.">
<polygon fill="white" stroke="#666666" points="402.38,-220 305.38,-220 305.38,-200 402.38,-200 402.38,-220"/>
<text text-anchor="middle" x="353.88" y="-206.5" font-family="Helvetica,sans-Serif" font-size="10.00">ogxx::Bag&lt; Item &gt;</text>
</a>
</g>
</g>
<!-- Node16&#45;&gt;Node24 -->
<g id="edge27_Node000016_Node000024" class="edge">
<title>Node16&#45;&gt;Node24</title>
<g id="a_edge27_Node000016_Node000024"><a xlink:title=" ">
<path fill="none" stroke="#63b8ff" d="M263.11,-197.04C277.08,-199.06 291.67,-201.16 304.94,-203.08"/>
<polygon fill="#63b8ff" stroke="#63b8ff" points="263.98,-193.63 253.59,-195.66 262.98,-200.56 263.98,-193.63"/>
</a>
</g>
</g>
<!-- Node30 -->
<g id="Node000030" class="node">
<title>Node30</title>
<g id="a_Node000030"><a xlink:href="../../d2/d20/classogxx_1_1_indexed__iterable.html" target="_top" xlink:title="Finally, the linear zero&#45;based integer&#45;indexed iterable collection.">
<polygon fill="white" stroke="#666666" points="410.62,-132 297.12,-132 297.12,-100 410.62,-100 410.62,-132"/>
<text text-anchor="start" x="305.12" y="-118.5" font-family="Helvetica,sans-Serif" font-size="10.00">ogxx::Indexed_iterable</text>
<text text-anchor="middle" x="353.88" y="-106.5" font-family="Helvetica,sans-Serif" font-size="10.00">&lt; Item &gt;</text>
</a>
</g>
</g>
<!-- Node16&#45;&gt;Node30 -->
<g id="edge34_Node000016_Node000030" class="edge">
<title>Node16&#45;&gt;Node30</title>
<g id="a_edge34_Node000016_Node000030"><a xlink:title=" ">
<path fill="none" stroke="#63b8ff" d="M238.7,-166.06C253.77,-157.76 271.36,-148.52 287.75,-141 294.13,-138.07 300.97,-135.18 307.72,-132.47"/>
<polygon fill="#63b8ff" stroke="#63b8ff" points="237.08,-162.95 230.04,-170.88 240.48,-169.07 237.08,-162.95"/>
</a>
</g>
</g>
<!-- Node19 -->
<g id="Node000019" class="node">
<title>Node19</title>
<g id="a_Node000019"><a xlink:href="../../df/d8c/classogxx_1_1_edge__list.html" target="_top" xlink:title="Interface (abstract base class) for storing an edge list of a graph.">
<polygon fill="white" stroke="#666666" points="569.12,-293 485.62,-293 485.62,-273 569.12,-273 569.12,-293"/>
<text text-anchor="middle" x="527.38" y="-279.5" font-family="Helvetica,sans-Serif" font-size="10.00">ogxx::Edge_list</text>
</a>
</g>
</g>
<!-- Node18&#45;&gt;Node19 -->
<g id="edge22_Node000018_Node000019" class="edge">
<title>Node18&#45;&gt;Node19</title>
<g id="a_edge22_Node000018_Node000019"><a xlink:title=" ">
<path fill="none" stroke="#63b8ff" d="M429.7,-284.69C448.81,-284.36 468.66,-284.01 485.36,-283.72"/>
<polygon fill="#63b8ff" stroke="#63b8ff" points="429.7,-281.19 419.76,-284.86 429.82,-288.19 429.7,-281.19"/>
</a>
</g>
</g>
<!-- Node22 -->
<g id="Node000022" class="node">
<title>Node22</title>
<g id="a_Node000022"><a xlink:href="../../d2/d01/classogxx_1_1_index__set__sortedvector.html" target="_top" xlink:title=" ">
<polygon fill="white" stroke="#666666" points="598.75,-26 456,-26 456,-6 598.75,-6 598.75,-26"/>
<text text-anchor="middle" x="527.38" y="-12.5" font-family="Helvetica,sans-Serif" font-size="10.00">ogxx::Index_set_sortedvector</text>
</a>
</g>
</g>
<!-- Node21&#45;&gt;Node22 -->
<g id="edge25_Node000021_Node000022" class="edge">
<title>Node21&#45;&gt;Node22</title>
<g id="a_edge25_Node000021_Node000022"><a xlink:title=" ">
<path fill="none" stroke="#63b8ff" d="M422.28,-16C433.25,-16 444.64,-16 455.68,-16"/>
<polygon fill="#63b8ff" stroke="#63b8ff" points="422.54,-12.5 412.54,-16 422.54,-19.5 422.54,-12.5"/>
</a>
</g>
</g>
<!-- Node25 -->
<g id="Node000025" class="node">
<title>Node25</title>
<g id="a_Node000025"><a xlink:href="../../d8/d68/classogxx_1_1_list.html" target="_top" xlink:title=" ">
<polygon fill="white" stroke="#666666" points="588.62,-127 466.12,-127 466.12,-107 588.62,-107 588.62,-127"/>
<text text-anchor="middle" x="527.38" y="-113.5" font-family="Helvetica,sans-Serif" font-size="10.00">ogxx::List&lt; Adjacency &gt;</text>
</a>
</g>
</g>
<!-- Node24&#45;&gt;Node25 -->
<g id="edge28_Node000024_Node000025" class="edge">
<title>Node24&#45;&gt;Node25</title>
<g id="a_edge28_Node000024_Node000025"><a xlink:title=" ">
<path fill="none" stroke="#63b8ff" d="M412.99,-195.4C415.43,-194.06 417.78,-192.6 420,-191 442.8,-174.56 433.36,-155.65 456,-139 462.6,-134.15 470.3,-130.34 478.13,-127.37"/>
<polygon fill="#63b8ff" stroke="#63b8ff" points="411.52,-192.23 403.93,-199.62 414.47,-198.58 411.52,-192.23"/>
</a>
</g>
</g>
<!-- Node28 -->
<g id="Node000028" class="node">
<title>Node28</title>
<g id="a_Node000028"><a xlink:href="../../d8/d68/classogxx_1_1_list.html" target="_top" xlink:title=" ">
<polygon fill="white" stroke="#666666" points="575.5,-220 479.25,-220 479.25,-188 575.5,-188 575.5,-220"/>
<text text-anchor="start" x="487.25" y="-206.5" font-family="Helvetica,sans-Serif" font-size="10.00">ogxx::List&lt; Vertex</text>
<text text-anchor="middle" x="527.38" y="-194.5" font-family="Helvetica,sans-Serif" font-size="10.00">_pair &gt;</text>
</a>
</g>
</g>
<!-- Node24&#45;&gt;Node28 -->
<g id="edge32_Node000024_Node000028" class="edge">
<title>Node24&#45;&gt;Node28</title>
<g id="a_edge32_Node000024_Node000028"><a xlink:title=" ">
<path fill="none" stroke="#63b8ff" d="M414.12,-207.93C435.27,-207.19 458.82,-206.36 478.86,-205.66"/>
<polygon fill="#63b8ff" stroke="#63b8ff" points="414.03,-204.43 404.16,-208.28 414.28,-211.42 414.03,-204.43"/>
</a>
</g>
</g>
<!-- Node29 -->
<g id="Node000029" class="node">
<title>Node29</title>
<g id="a_Node000029"><a xlink:href="../../d8/d68/classogxx_1_1_list.html" target="_top" xlink:title="Generic container interface with inserts and erases and stores them in linear order as a list.">
<polygon fill="white" stroke="#666666" points="575.12,-168 479.62,-168 479.62,-148 575.12,-148 575.12,-168"/>
<text text-anchor="middle" x="527.38" y="-154.5" font-family="Helvetica,sans-Serif" font-size="10.00">ogxx::List&lt; Item &gt;</text>
</a>
</g>
</g>
<!-- Node24&#45;&gt;Node29 -->
<g id="edge33_Node000024_Node000029" class="edge">
<title>Node24&#45;&gt;Node29</title>
<g id="a_edge33_Node000024_Node000029"><a xlink:title=" ">
<path fill="none" stroke="#63b8ff" d="M402.16,-196.43C408.17,-194.64 414.24,-192.8 420,-191 436.1,-185.97 439.92,-184.08 456,-179 467.19,-175.47 479.42,-171.76 490.51,-168.46"/>
<polygon fill="#63b8ff" stroke="#63b8ff" points="401.51,-192.98 392.91,-199.16 403.49,-199.69 401.51,-192.98"/>
</a>
</g>
</g>
<!-- Node26 -->
<g id="Node000026" class="node">
<title>Node26</title>
<g id="a_Node000026"><a xlink:href="../../d3/d35/classogxx_1_1_adjacency__list.html" target="_top" xlink:title="Graph representation where, which maps vertex index to the adjacency of that vertex.">
<polygon fill="white" stroke="#666666" points="741.5,-127 634.75,-127 634.75,-107 741.5,-107 741.5,-127"/>
<text text-anchor="middle" x="688.12" y="-113.5" font-family="Helvetica,sans-Serif" font-size="10.00">ogxx::Adjacency_list</text>
</a>
</g>
</g>
<!-- Node25&#45;&gt;Node26 -->
<g id="edge29_Node000025_Node000026" class="edge">
<title>Node25&#45;&gt;Node26</title>
<g id="a_edge29_Node000025_Node000026"><a xlink:title=" ">
<path fill="none" stroke="#63b8ff" d="M600.22,-117C611.71,-117 623.41,-117 634.35,-117"/>
<polygon fill="#63b8ff" stroke="#63b8ff" points="600.36,-113.5 590.36,-117 600.36,-120.5 600.36,-113.5"/>
</a>
</g>
</g>
<!-- Node27 -->
<g id="Node000027" class="node">
<title>Node27</title>
<g id="a_Node000027"><a xlink:href="../../d4/dae/classogxx_1_1_adjacency__list__vector.html" target="_top" xlink:title=" ">
<polygon fill="white" stroke="#666666" points="884.25,-133 777.5,-133 777.5,-101 884.25,-101 884.25,-133"/>
<text text-anchor="start" x="785.5" y="-119.5" font-family="Helvetica,sans-Serif" font-size="10.00">ogxx::Adjacency_list</text>
<text text-anchor="middle" x="830.88" y="-107.5" font-family="Helvetica,sans-Serif" font-size="10.00">_vector</text>
</a>
</g>
</g>
<!-- Node26&#45;&gt;Node27 -->
<g id="edge30_Node000026_Node000027" class="edge">
<title>Node26&#45;&gt;Node27</title>
<g id="a_edge30_Node000026_Node000027"><a xlink:title=" ">
<path fill="none" stroke="#63b8ff" d="M753.19,-110.27C761.24,-110.21 769.39,-110.27 777.24,-110.44"/>
<polygon fill="#63b8ff" stroke="#63b8ff" points="753.4,-106.77 743.45,-110.42 753.5,-113.77 753.4,-106.77"/>
</a>
</g>
</g>
<!-- Node26&#45;&gt;Node27 -->
<g id="edge31_Node000026_Node000027" class="edge">
<title>Node26&#45;&gt;Node27</title>
<g id="a_edge31_Node000026_Node000027"><a xlink:title=" ">
<path fill="none" stroke="#63b8ff" d="M753.19,-123.73C761.24,-123.79 769.39,-123.73 777.24,-123.56"/>
<polygon fill="#63b8ff" stroke="#63b8ff" points="753.5,-120.23 743.45,-123.58 753.4,-127.23 753.5,-120.23"/>
</a>
</g>
</g>
<!-- Node30&#45;&gt;Node25 -->
<g id="edge35_Node000030_Node000025" class="edge">
<title>Node30&#45;&gt;Node25</title>
<g id="a_edge35_Node000030_Node000025"><a xlink:title=" ">
<path fill="none" stroke="#63b8ff" d="M422.31,-116.39C436.61,-116.48 451.63,-116.56 465.66,-116.65"/>
<polygon fill="#63b8ff" stroke="#63b8ff" points="422.56,-112.89 412.54,-116.34 422.52,-119.89 422.56,-112.89"/>
</a>
</g>
</g>
<!-- Node30&#45;&gt;Node28 -->
<g id="edge36_Node000030_Node000028" class="edge">
<title>Node30&#45;&gt;Node28</title>
<g id="a_edge36_Node000030_Node000028"><a xlink:title=" ">
<path fill="none" stroke="#63b8ff" d="M414.34,-137.57C416.28,-138.67 418.17,-139.81 420,-141 438.98,-153.32 437.02,-164.68 456,-177 463.02,-181.56 470.94,-185.53 478.85,-188.92"/>
<polygon fill="#63b8ff" stroke="#63b8ff" points="416.17,-134.58 405.68,-133.11 412.97,-140.8 416.17,-134.58"/>
</a>
</g>
</g>
<!-- Node30&#45;&gt;Node29 -->
<g id="edge37_Node000030_Node000029" class="edge">
<title>Node30&#45;&gt;Node29</title>
<g id="a_edge37_Node000030_Node000029"><a xlink:title=" ">
<path fill="none" stroke="#63b8ff" d="M422.04,-132.45C442.8,-137.53 465.08,-142.99 483.7,-147.55"/>
<polygon fill="#63b8ff" stroke="#63b8ff" points="423.05,-129.09 412.5,-130.11 421.38,-135.89 423.05,-129.09"/>
</a>
</g>
</g>
</g>
</svg>
