<?xml version="1.0" encoding="UTF-8" standalone="no"?>
<!DOCTYPE svg PUBLIC "-//W3C//DTD SVG 1.1//EN"
 "http://www.w3.org/Graphics/SVG/1.1/DTD/svg11.dtd">
<!-- Generated by graphviz version 9.0.0 (20230911.1827)
 -->
<!-- Title: ogxx::undirected::convert::Convertor Pages: 1 -->
<svg width="133pt" height="188pt"
 viewBox="0.00 0.00 132.75 188.00" xmlns="http://www.w3.org/2000/svg" xmlns:xlink="http://www.w3.org/1999/xlink">
<g id="graph0" class="graph" transform="scale(1 1) rotate(0) translate(4 184)">
<title>ogxx::undirected::convert::Convertor</title>
<!-- Node1 -->
<g id="Node000001" class="node">
<title>Node1</title>
<g id="a_Node000001"><a xlink:title="A flow&#45;interface implementation, holds &quot;from&quot; adapter graph view and does &quot;to&quot; directed graph convers...">
<polygon fill="#999999" stroke="#666666" points="124.75,-32 0,-32 0,0 124.75,0 124.75,-32"/>
<text text-anchor="start" x="8" y="-18.5" font-family="Helvetica,sans-Serif" font-size="10.00">ogxx::undirected::convert</text>
<text text-anchor="middle" x="62.38" y="-6.5" font-family="Helvetica,sans-Serif" font-size="10.00">::Convertor</text>
</a>
</g>
</g>
<!-- Node2 -->
<g id="Node000002" class="node">
<title>Node2</title>
<g id="a_Node000002"><a xlink:title=" ">
<polygon fill="white" stroke="#666666" points="120.25,-112 4.5,-112 4.5,-80 120.25,-80 120.25,-112"/>
<text text-anchor="start" x="12.5" y="-98.5" font-family="Helvetica,sans-Serif" font-size="10.00">std::unique_ptr&lt; Graph</text>
<text text-anchor="middle" x="62.38" y="-86.5" font-family="Helvetica,sans-Serif" font-size="10.00">_view const &gt;</text>
</a>
</g>
</g>
<!-- Node2&#45;&gt;Node1 -->
<g id="edge1_Node000001_Node000002" class="edge">
<title>Node2&#45;&gt;Node1</title>
<g id="a_edge1_Node000001_Node000002"><a xlink:title=" ">
<path fill="none" stroke="#9a32cd" stroke-dasharray="5,2" d="M62.38,-68.37C62.38,-56.37 62.38,-42.63 62.38,-32.38"/>
<polygon fill="#9a32cd" stroke="#9a32cd" points="58.88,-68.08 62.38,-78.08 65.88,-68.08 58.88,-68.08"/>
</a>
</g>
<text text-anchor="middle" x="75.88" y="-52.5" font-family="Helvetica,sans-Serif" font-size="10.00" fill="grey"> _from</text>
</g>
<!-- Node3 -->
<g id="Node000003" class="node">
<title>Node3</title>
<g id="a_Node000003"><a xlink:href="../../de/d37/classogxx_1_1_graph__view.html" target="_top" xlink:title="Generic graph interface to provide a common facade over concrete graph representations.">
<polygon fill="white" stroke="#666666" points="108.62,-180 16.12,-180 16.12,-160 108.62,-160 108.62,-180"/>
<text text-anchor="middle" x="62.38" y="-166.5" font-family="Helvetica,sans-Serif" font-size="10.00">ogxx::Graph_view</text>
</a>
</g>
</g>
<!-- Node3&#45;&gt;Node2 -->
<g id="edge2_Node000002_Node000003" class="edge">
<title>Node3&#45;&gt;Node2</title>
<g id="a_edge2_Node000002_Node000003"><a xlink:title=" ">
<path fill="none" stroke="#9a32cd" stroke-dasharray="5,2" d="M62.38,-148.1C62.38,-136.71 62.38,-122.87 62.38,-112.47"/>
<polygon fill="#9a32cd" stroke="#9a32cd" points="58.88,-148.07 62.38,-158.07 65.88,-148.07 58.88,-148.07"/>
</a>
</g>
<text text-anchor="middle" x="69.5" y="-132.5" font-family="Helvetica,sans-Serif" font-size="10.00" fill="grey"> ptr</text>
</g>
</g>
</svg>
