<?xml version="1.0" encoding="UTF-8" standalone="no"?>
<!DOCTYPE svg PUBLIC "-//W3C//DTD SVG 1.1//EN"
 "http://www.w3.org/Graphics/SVG/1.1/DTD/svg11.dtd">
<!-- Generated by graphviz version 9.0.0 (20230911.1827)
 -->
<!-- Title: ogxx::Graph_view_undirected_adjacency_matrix Pages: 1 -->
<svg width="326pt" height="234pt"
 viewBox="0.00 0.00 326.00 234.00" xmlns="http://www.w3.org/2000/svg" xmlns:xlink="http://www.w3.org/1999/xlink">
<g id="graph0" class="graph" transform="scale(1 1) rotate(0) translate(4 230)">
<title>ogxx::Graph_view_undirected_adjacency_matrix</title>
<!-- Node1 -->
<g id="Node000001" class="node">
<title>Node1</title>
<g id="a_Node000001"><a xlink:title=" ">
<polygon fill="#999999" stroke="#666666" points="142.75,-32 0,-32 0,0 142.75,0 142.75,-32"/>
<text text-anchor="start" x="8" y="-18.5" font-family="Helvetica,sans-Serif" font-size="10.00">ogxx::Graph_view_undirected</text>
<text text-anchor="middle" x="71.38" y="-6.5" font-family="Helvetica,sans-Serif" font-size="10.00">_adjacency_matrix</text>
</a>
</g>
</g>
<!-- Node2 -->
<g id="Node000002" class="node">
<title>Node2</title>
<g id="a_Node000002"><a xlink:href="../../de/d37/classogxx_1_1_graph__view.html" target="_top" xlink:title="Generic graph interface to provide a common facade over concrete graph representations.">
<polygon fill="white" stroke="#666666" points="117.62,-100 25.12,-100 25.12,-80 117.62,-80 117.62,-100"/>
<text text-anchor="middle" x="71.38" y="-86.5" font-family="Helvetica,sans-Serif" font-size="10.00">ogxx::Graph_view</text>
</a>
</g>
</g>
<!-- Node2&#45;&gt;Node1 -->
<g id="edge1_Node000001_Node000002" class="edge">
<title>Node2&#45;&gt;Node1</title>
<g id="a_edge1_Node000001_Node000002"><a xlink:title=" ">
<path fill="none" stroke="#63b8ff" d="M65.21,-68.46C64.29,-57.01 64.46,-42.99 65.71,-32.47"/>
<polygon fill="#63b8ff" stroke="#63b8ff" points="61.7,-68.61 66.45,-78.09 68.65,-67.72 61.7,-68.61"/>
</a>
</g>
</g>
<!-- Node2&#45;&gt;Node1 -->
<g id="edge2_Node000001_Node000002" class="edge">
<title>Node2&#45;&gt;Node1</title>
<g id="a_edge2_Node000001_Node000002"><a xlink:title=" ">
<path fill="none" stroke="#63b8ff" d="M77.54,-68.46C78.46,-57.01 78.29,-42.99 77.04,-32.47"/>
<polygon fill="#63b8ff" stroke="#63b8ff" points="74.1,-67.72 76.3,-78.09 81.05,-68.61 74.1,-67.72"/>
</a>
</g>
</g>
<!-- Node3 -->
<g id="Node000003" class="node">
<title>Node3</title>
<g id="a_Node000003"><a xlink:href="../../d4/def/classogxx_1_1_bit__matrix.html" target="_top" xlink:title="Bit matrix interface. Iterating the matrix means going through all its elements in row&#45;major order.">
<polygon fill="white" stroke="#666666" points="223,-100 135.75,-100 135.75,-80 223,-80 223,-100"/>
<text text-anchor="middle" x="179.38" y="-86.5" font-family="Helvetica,sans-Serif" font-size="10.00">ogxx::Bit_matrix</text>
</a>
</g>
</g>
<!-- Node3&#45;&gt;Node1 -->
<g id="edge3_Node000001_Node000003" class="edge">
<title>Node3&#45;&gt;Node1</title>
<g id="a_edge3_Node000001_Node000003"><a xlink:title=" ">
<path fill="none" stroke="#9a32cd" stroke-dasharray="5,2" d="M155.7,-73.22C137.55,-61.11 112.62,-44.5 94.58,-32.47"/>
<polygon fill="#9a32cd" stroke="#9a32cd" points="153.73,-76.11 164,-78.75 157.62,-70.29 153.73,-76.11"/>
</a>
</g>
<text text-anchor="middle" x="151.88" y="-52.5" font-family="Helvetica,sans-Serif" font-size="10.00" fill="grey"> bit_m</text>
</g>
<!-- Node4 -->
<g id="Node000004" class="node">
<title>Node4</title>
<g id="a_Node000004"><a xlink:href="../../d0/d06/classogxx_1_1_matrix__base.html" target="_top" xlink:title="Common matrix function independent of matrix item type.">
<polygon fill="white" stroke="#666666" points="192.5,-163 96.25,-163 96.25,-143 192.5,-143 192.5,-163"/>
<text text-anchor="middle" x="144.38" y="-149.5" font-family="Helvetica,sans-Serif" font-size="10.00">ogxx::Matrix_base</text>
</a>
</g>
</g>
<!-- Node4&#45;&gt;Node3 -->
<g id="edge4_Node000003_Node000004" class="edge">
<title>Node4&#45;&gt;Node3</title>
<g id="a_edge4_Node000003_Node000004"><a xlink:title=" ">
<path fill="none" stroke="#63b8ff" d="M155.34,-132.89C161.55,-122.06 169.06,-108.98 174.01,-100.35"/>
<polygon fill="#63b8ff" stroke="#63b8ff" points="152.38,-131.01 150.44,-141.42 158.46,-134.49 152.38,-131.01"/>
</a>
</g>
</g>
<!-- Node5 -->
<g id="Node000005" class="node">
<title>Node5</title>
<g id="a_Node000005"><a xlink:href="../../d9/d72/classogxx_1_1_sized__iterable.html" target="_top" xlink:title=" ">
<polygon fill="white" stroke="#666666" points="314.62,-169 210.12,-169 210.12,-137 314.62,-137 314.62,-169"/>
<text text-anchor="start" x="218.12" y="-155.5" font-family="Helvetica,sans-Serif" font-size="10.00">ogxx::Sized_iterable</text>
<text text-anchor="middle" x="262.38" y="-143.5" font-family="Helvetica,sans-Serif" font-size="10.00">&lt; bool &gt;</text>
</a>
</g>
</g>
<!-- Node5&#45;&gt;Node3 -->
<g id="edge5_Node000003_Node000005" class="edge">
<title>Node5&#45;&gt;Node3</title>
<g id="a_edge5_Node000003_Node000005"><a xlink:title=" ">
<path fill="none" stroke="#63b8ff" d="M232.22,-129.84C218.37,-119.66 202.69,-108.14 192.04,-100.31"/>
<polygon fill="#63b8ff" stroke="#63b8ff" points="230.08,-132.61 240.21,-135.71 234.23,-126.97 230.08,-132.61"/>
</a>
</g>
</g>
<!-- Node6 -->
<g id="Node000006" class="node">
<title>Node6</title>
<g id="a_Node000006"><a xlink:href="../../d8/d9b/classogxx_1_1_iterable.html" target="_top" xlink:title="An interface for an object that can be iterated with an iterator.">
<polygon fill="white" stroke="#666666" points="318,-226 206.75,-226 206.75,-206 318,-206 318,-226"/>
<text text-anchor="middle" x="262.38" y="-212.5" font-family="Helvetica,sans-Serif" font-size="10.00">ogxx::Iterable&lt; Item &gt;</text>
</a>
</g>
</g>
<!-- Node6&#45;&gt;Node5 -->
<g id="edge6_Node000005_Node000006" class="edge">
<title>Node6&#45;&gt;Node5</title>
<g id="a_edge6_Node000005_Node000006"><a xlink:title=" ">
<path fill="none" stroke="#63b8ff" d="M262.38,-194.36C262.38,-186.07 262.38,-176.69 262.38,-169.06"/>
<polygon fill="#63b8ff" stroke="#63b8ff" points="258.88,-194.22 262.38,-204.22 265.88,-194.22 258.88,-194.22"/>
</a>
</g>
</g>
</g>
</svg>
