<?xml version="1.0" encoding="UTF-8" standalone="no"?>
<!DOCTYPE svg PUBLIC "-//W3C//DTD SVG 1.1//EN"
 "http://www.w3.org/Graphics/SVG/1.1/DTD/svg11.dtd">
<!-- Generated by graphviz version 9.0.0 (20230911.1827)
 -->
<!-- Title: include/ogxx/adjacency_list.hpp Pages: 1 -->
<svg width="760pt" height="232pt"
 viewBox="0.00 0.00 760.38 232.00" xmlns="http://www.w3.org/2000/svg" xmlns:xlink="http://www.w3.org/1999/xlink">
<g id="graph0" class="graph" transform="scale(1 1) rotate(0) translate(4 228)">
<title>include/ogxx/adjacency_list.hpp</title>
<!-- Node1 -->
<g id="Node000001" class="node">
<title>Node1</title>
<g id="a_Node000001"><a xlink:title="Adjacency list graph representation interface.">
<polygon fill="#999999" stroke="#666666" points="463.25,-224 345.25,-224 345.25,-192 463.25,-192 463.25,-224"/>
<text text-anchor="start" x="353.25" y="-210.5" font-family="Helvetica,sans-Serif" font-size="10.00">include/ogxx/adjacency</text>
<text text-anchor="middle" x="404.25" y="-198.5" font-family="Helvetica,sans-Serif" font-size="10.00">_list.hpp</text>
</a>
</g>
</g>
<!-- Node2 -->
<g id="Node000002" class="node">
<title>Node2</title>
<g id="a_Node000002"><a xlink:href="../../d8/d3e/adjacency__list__io_8hpp.html" target="_top" xlink:title="Textual input&#45;output for adjacency list.">
<polygon fill="white" stroke="#666666" points="176.25,-156 58.25,-156 58.25,-124 176.25,-124 176.25,-156"/>
<text text-anchor="start" x="66.25" y="-142.5" font-family="Helvetica,sans-Serif" font-size="10.00">include/ogxx/adjacency</text>
<text text-anchor="middle" x="117.25" y="-130.5" font-family="Helvetica,sans-Serif" font-size="10.00">_list_io.hpp</text>
</a>
</g>
</g>
<!-- Node1&#45;&gt;Node2 -->
<g id="edge1_Node000001_Node000002" class="edge">
<title>Node1&#45;&gt;Node2</title>
<g id="a_edge1_Node000001_Node000002"><a xlink:title=" ">
<path fill="none" stroke="#63b8ff" d="M333.8,-190.8C285.57,-179.71 222.32,-165.16 176.64,-154.66"/>
<polygon fill="#63b8ff" stroke="#63b8ff" points="332.78,-194.16 343.31,-192.99 334.35,-187.33 332.78,-194.16"/>
</a>
</g>
</g>
<!-- Node6 -->
<g id="Node000006" class="node">
<title>Node6</title>
<g id="a_Node000006"><a xlink:href="../../d3/dcc/graph__repr__conv_8hpp.html" target="_top" xlink:title="Graph representation conversion operations.">
<polygon fill="white" stroke="#666666" points="292.12,-156 194.38,-156 194.38,-124 292.12,-124 292.12,-156"/>
<text text-anchor="start" x="202.38" y="-142.5" font-family="Helvetica,sans-Serif" font-size="10.00">include/ogxx/graph</text>
<text text-anchor="middle" x="243.25" y="-130.5" font-family="Helvetica,sans-Serif" font-size="10.00">_repr_conv.hpp</text>
</a>
</g>
</g>
<!-- Node1&#45;&gt;Node6 -->
<g id="edge5_Node000001_Node000006" class="edge">
<title>Node1&#45;&gt;Node6</title>
<g id="a_edge5_Node000001_Node000006"><a xlink:title=" ">
<path fill="none" stroke="#63b8ff" d="M356.17,-187.29C332.14,-177.44 303.47,-165.69 281.04,-156.49"/>
<polygon fill="#63b8ff" stroke="#63b8ff" points="354.52,-190.4 365.1,-190.95 357.18,-183.92 354.52,-190.4"/>
</a>
</g>
</g>
<!-- Node7 -->
<g id="Node000007" class="node">
<title>Node7</title>
<g id="a_Node000007"><a xlink:href="../../d6/dda/adjacency__implementations_8cpp.html" target="_top" xlink:title="ogxx::Adjacency implementations based upon different Index_set implementations">
<polygon fill="white" stroke="#666666" points="498.12,-150 310.38,-150 310.38,-130 498.12,-130 498.12,-150"/>
<text text-anchor="middle" x="404.25" y="-136.5" font-family="Helvetica,sans-Serif" font-size="10.00">source/adjacency_implementations.cpp</text>
</a>
</g>
</g>
<!-- Node1&#45;&gt;Node7 -->
<g id="edge6_Node000001_Node000007" class="edge">
<title>Node1&#45;&gt;Node7</title>
<g id="a_edge6_Node000001_Node000007"><a xlink:title=" ">
<path fill="none" stroke="#63b8ff" d="M404.25,-180.31C404.25,-169.67 404.25,-158.13 404.25,-150.32"/>
<polygon fill="#63b8ff" stroke="#63b8ff" points="400.75,-180.18 404.25,-190.18 407.75,-180.18 400.75,-180.18"/>
</a>
</g>
</g>
<!-- Node8 -->
<g id="Node000008" class="node">
<title>Node8</title>
<g id="a_Node000008"><a xlink:href="../../d5/d8b/adjacency__list__vector_8cpp.html" target="_top" xlink:title="Adjacency_list interface implementation over std::vector.">
<polygon fill="white" stroke="#666666" points="626.5,-156 516,-156 516,-124 626.5,-124 626.5,-156"/>
<text text-anchor="start" x="524" y="-142.5" font-family="Helvetica,sans-Serif" font-size="10.00">source/adjacency_list</text>
<text text-anchor="middle" x="571.25" y="-130.5" font-family="Helvetica,sans-Serif" font-size="10.00">_vector.cpp</text>
</a>
</g>
</g>
<!-- Node1&#45;&gt;Node8 -->
<g id="edge7_Node000001_Node000008" class="edge">
<title>Node1&#45;&gt;Node8</title>
<g id="a_edge7_Node000001_Node000008"><a xlink:title=" ">
<path fill="none" stroke="#63b8ff" d="M453.78,-187.42C478.78,-177.54 508.68,-165.73 532.05,-156.49"/>
<polygon fill="#63b8ff" stroke="#63b8ff" points="452.83,-184.04 444.81,-190.97 455.4,-190.55 452.83,-184.04"/>
</a>
</g>
</g>
<!-- Node9 -->
<g id="Node000009" class="node">
<title>Node9</title>
<g id="a_Node000009"><a xlink:href="../../d0/da2/graph__view__di__al_8cpp.html" target="_top" xlink:title="Graph view implementation for directed graph represented by an adjacency list.">
<polygon fill="white" stroke="#666666" points="752.38,-156 644.12,-156 644.12,-124 752.38,-124 752.38,-156"/>
<text text-anchor="start" x="652.12" y="-142.5" font-family="Helvetica,sans-Serif" font-size="10.00">source/graph_view_di</text>
<text text-anchor="middle" x="698.25" y="-130.5" font-family="Helvetica,sans-Serif" font-size="10.00">_al.cpp</text>
</a>
</g>
</g>
<!-- Node1&#45;&gt;Node9 -->
<g id="edge8_Node000001_Node000009" class="edge">
<title>Node1&#45;&gt;Node9</title>
<g id="a_edge8_Node000001_Node000009"><a xlink:title=" ">
<path fill="none" stroke="#63b8ff" d="M474.66,-191.77C520.45,-181.79 581.44,-168.34 635.25,-156 637.99,-155.37 640.8,-154.72 643.63,-154.06"/>
<polygon fill="#63b8ff" stroke="#63b8ff" points="474.16,-188.3 465.14,-193.84 475.65,-195.14 474.16,-188.3"/>
</a>
</g>
</g>
<!-- Node3 -->
<g id="Node000003" class="node">
<title>Node3</title>
<g id="a_Node000003"><a xlink:href="../../df/d01/source_2adjacency__list__io__read_8cpp.html" target="_top" xlink:title="Implementation of ogxx::io::read function for Adjacency_list.">
<polygon fill="white" stroke="#666666" points="110.5,-88 0,-88 0,-56 110.5,-56 110.5,-88"/>
<text text-anchor="start" x="8" y="-74.5" font-family="Helvetica,sans-Serif" font-size="10.00">source/adjacency_list</text>
<text text-anchor="middle" x="55.25" y="-62.5" font-family="Helvetica,sans-Serif" font-size="10.00">_io_read.cpp</text>
</a>
</g>
</g>
<!-- Node2&#45;&gt;Node3 -->
<g id="edge2_Node000002_Node000003" class="edge">
<title>Node2&#45;&gt;Node3</title>
<g id="a_edge2_Node000002_Node000003"><a xlink:title=" ">
<path fill="none" stroke="#63b8ff" d="M95.11,-115.43C86.6,-106.38 77.13,-96.29 69.55,-88.22"/>
<polygon fill="#63b8ff" stroke="#63b8ff" points="92.44,-117.7 101.83,-122.59 97.54,-112.9 92.44,-117.7"/>
</a>
</g>
</g>
<!-- Node4 -->
<g id="Node000004" class="node">
<title>Node4</title>
<g id="a_Node000004"><a xlink:href="../../d0/d40/tests_2adjacency__list__io__read_8cpp.html" target="_top" xlink:title="Adjacency list io::read function tests.">
<polygon fill="white" stroke="#666666" points="231.75,-88 128.75,-88 128.75,-56 231.75,-56 231.75,-88"/>
<text text-anchor="start" x="136.75" y="-74.5" font-family="Helvetica,sans-Serif" font-size="10.00">tests/adjacency_list</text>
<text text-anchor="middle" x="180.25" y="-62.5" font-family="Helvetica,sans-Serif" font-size="10.00">_io_read.cpp</text>
</a>
</g>
</g>
<!-- Node2&#45;&gt;Node4 -->
<g id="edge3_Node000002_Node000004" class="edge">
<title>Node2&#45;&gt;Node4</title>
<g id="a_edge3_Node000002_Node000004"><a xlink:title=" ">
<path fill="none" stroke="#63b8ff" d="M139.75,-115.43C148.39,-106.38 158.02,-96.29 165.72,-88.22"/>
<polygon fill="#63b8ff" stroke="#63b8ff" points="137.28,-112.95 132.91,-122.6 142.34,-117.78 137.28,-112.95"/>
</a>
</g>
</g>
<!-- Node5 -->
<g id="Node000005" class="node">
<title>Node5</title>
<g id="a_Node000005"><a xlink:href="../../da/d4a/build__all_8cpp.html" target="_top" xlink:title="Include all test files here to build them at once.">
<polygon fill="white" stroke="#666666" points="227.62,-20 132.88,-20 132.88,0 227.62,0 227.62,-20"/>
<text text-anchor="middle" x="180.25" y="-6.5" font-family="Helvetica,sans-Serif" font-size="10.00">tests/build_all.cpp</text>
</a>
</g>
</g>
<!-- Node4&#45;&gt;Node5 -->
<g id="edge4_Node000004_Node000005" class="edge">
<title>Node4&#45;&gt;Node5</title>
<g id="a_edge4_Node000004_Node000005"><a xlink:title=" ">
<path fill="none" stroke="#63b8ff" d="M180.25,-44.08C180.25,-35.6 180.25,-26.8 180.25,-20.41"/>
<polygon fill="#63b8ff" stroke="#63b8ff" points="176.75,-44.03 180.25,-54.03 183.75,-44.03 176.75,-44.03"/>
</a>
</g>
</g>
</g>
</svg>
